;TYPE=PLATED
;Layer: PTH_Through
;EasyEDA Pro v2.2.35.2, 2025-02-07 11:44:49
;Gerber Generator version 0.3
M48
METRIC,LZ,0000.00000
;Hole size 1 = 0.30400 METRIC
T01C0.30400
;Hole size 2 = 0.40000 METRIC
T02C0.40000
;Hole size 3 = 0.50000 METRIC
T03C0.50000
;Hole size 4 = 0.80000 METRIC
T04C0.80000
;Hole size 5 = 1.10002 METRIC
T05C1.10002
;Hole size 6 = 1.30002 METRIC
T06C1.30002
%
G05
G90
T01
X1.905Y78.232
X4.191Y78.232
X6.477Y78.232
X6.604Y75.184
X4.318Y75.184
X2.032Y75.184
T02
X144.2638Y7.50857
X109.40017Y6.53941
X116.69354Y25.37471
X116.32718Y57.48777
X116.26193Y38.14345
X107.42347Y90.78878
X119.01447Y4.02371
X57.02131Y3.16411
X106.75162Y7.53249
X117.66026Y24.48816
X118.71395Y13.71074
X108.07511Y8.38925
X107.99777Y17.92624
X111.80289Y20.80944
X111.7948Y17.91219
X115.08964Y21.44344
X115.07727Y17.89662
X118.97796Y21.54867
X118.9481Y17.90609
X126.30055Y17.88088
X120.91088Y15.02751
X122.64688Y17.90123
X122.74326Y21.67822
X126.30387Y21.74616
X120.86415Y23.95516
X126.32564Y4.04489
X129.92647Y4.0579
X152.75196Y30.90833
X107.42347Y72.23202
X107.39088Y34.84938
X108.87015Y27.22486
X108.95533Y34.86244
X108.94843Y45.88577
X108.96629Y64.70839
X108.96629Y72.50258
X108.99198Y83.61891
X108.97261Y90.77678
X122.48363Y4.03757
X115.14907Y4.05511
X111.45143Y4.05511
X107.5945Y4.05511
X12.23095Y47.61357
X13.67603Y48.87123
X107.62849Y6.3449
X105.77747Y6.34892
X50.7443Y2.5301
X116.08596Y75.83219
X133.78705Y59.1501
X130.53588Y56.47089
X146.84155Y19.88649
X102.09763Y30.46452
X108.17667Y67.05693
X108.19965Y71.54268
X108.16278Y47.90567
X145.42493Y15.13383
X145.41218Y3.45466
X154.08073Y37.67649
X150.21203Y50.41765
X151.61973Y24.58584
X109.91906Y93.55866
X108.21161Y89.64559
X108.15188Y34.09221
X104.18311Y17.86134
X100.59872Y17.82556
X104.46425Y13.67797
X134.40801Y27.02057
X123.24508Y33.86875
X52.25556Y17.27197
X54.94728Y40.91224
X51.11284Y48.11553
X58.1805Y52.00808
X47.20884Y55.63732
X44.30087Y44.50156
X16.47521Y44.74617
X47.91378Y82.85424
X51.10807Y53.87935
X56.84513Y48.36078
X60.18646Y53.07199
X57.0281Y42.05693
X48.62956Y44.01753
X52.45096Y48.52338
X50.27647Y55.84536
X54.09788Y50.56954
X49.30923Y82.54293
X55.6576Y9.9607
X145.42431Y12.17334
X116.79087Y94.79353
X114.74648Y98.66603
X141.63094Y33.17564
X142.60946Y32.49539
X144.28853Y23.45871
X150.876Y17.78
X150.876Y15.748
X107.39088Y53.5147
X108.96629Y53.53371
X108.16278Y52.71144
X104.65613Y68.06387
X105.65613Y68.06387
X104.65613Y67.06387
X105.65613Y67.06387
X105.08598Y30.48489
X106.08598Y30.48489
X105.08598Y29.48489
X106.08598Y29.48489
X104.90362Y49.05294
X105.90362Y49.05294
X104.90362Y48.05295
X105.90362Y48.05295
X104.91013Y86.85987
X105.91013Y86.85987
X104.91013Y85.85987
X105.91013Y85.85987
T03
X106.01362Y53.17718
X103.4866Y42.28649
X103.49001Y60.94163
X105.77925Y72.3107
X106.2068Y34.41517
X102.0634Y39.53395
X102.17496Y98.58539
X114.56033Y55.29098
X114.66464Y92.86763
X114.6002Y73.83465
X106.02943Y90.77539
X100.17293Y90.47169
X149.72452Y13.655
X149.77032Y19.10883
X114.58306Y35.65566
X94.42257Y84.40168
X91.49235Y84.39098
X88.36963Y84.45515
X85.39663Y84.34821
X103.53406Y79.81385
X95.26073Y53.10699
X96.73296Y44.92367
X96.7881Y60.8748
X131.65545Y37.91536
X156.07714Y50.42244
T04
X157.16058Y21.02934G85X157.76058Y21.02934
X152.88059Y21.0295G85X153.68056Y21.0295
X152.88056Y12.37927G85X153.68059Y12.37927
X157.16058Y12.37942G85X157.76058Y12.37942
T05
X124.16691Y38.80338
X124.16691Y41.34338
X124.16691Y43.88338
X124.16691Y46.42338
X124.16691Y48.96338
X124.16691Y51.50338
X124.16691Y54.04338
X124.16691Y56.58338
X124.16691Y59.12338
X124.16691Y61.66338
X124.16691Y64.20338
X124.16691Y66.74338
X124.16691Y69.28338
X124.16691Y71.82338
X124.16691Y74.36338
X124.16691Y76.90338
X124.16691Y79.44338
X124.16691Y81.98338
X124.16691Y84.52338
X124.16691Y87.06338
X124.16691Y89.60338
X124.16691Y92.14338
X124.16691Y94.68338
X124.16691Y97.22338
X139.47207Y38.80338
X139.47207Y41.34338
X139.47207Y43.88338
X139.47207Y46.42338
X139.47207Y48.96338
X139.47207Y51.50338
X139.47207Y54.04338
X139.47207Y56.58338
X139.47207Y59.12338
X139.47207Y61.66338
X139.47207Y64.20338
X139.47207Y66.74338
X139.47207Y69.28338
X139.47207Y71.82338
X139.47207Y74.36338
X139.47207Y76.90338
X139.47207Y79.44338
X139.47207Y81.98338
X139.47207Y84.52338
X139.47207Y87.06338
X139.47207Y89.60338
X139.47207Y92.14338
X139.47207Y94.68338
X139.47207Y97.22338
X152.50807Y64.09788
X152.50807Y61.59598
X152.50807Y59.09662
X152.50807Y56.59726
T06
X94.41561Y90.39987
X94.41561Y87.40013
X91.41587Y90.39987
X91.41587Y87.40013
X88.41613Y90.39987
X88.41613Y87.40013
X85.41639Y90.39987
X85.41639Y87.40013
X76.61302Y83.96614
X74.07302Y83.96614
X20.06508Y78.64119
X17.52508Y78.64119
X79.72942Y21.90453
X82.26942Y21.90453
X23.68295Y16.30161
X26.22295Y16.30161
X150.73857Y75.37415
X147.73883Y75.37415
X150.73857Y78.37389
X147.73883Y78.37389
X150.73857Y81.37363
X147.73883Y81.37363
X150.73857Y84.37337
X147.73883Y84.37337
X150.73857Y72.37441
X147.73883Y72.37187
M30