G04 Layer: BottomSolderMaskLayer*
G04 EasyEDA Pro v2.2.35.2, 2025-02-07 11:44:48*
G04 Gerber Generator version 0.3*
G04 Scale: 100 percent, Rotated: No, Reflected: No*
G04 Dimensions in millimeters*
G04 Leading zeros omitted, absolute positions, 4 integers and 5 decimals*
%FSLAX45Y45*%
%MOMM*%
%AMRoundRect*1,1,$1,$2,$3*1,1,$1,$4,$5*1,1,$1,0-$2,0-$3*1,1,$1,0-$4,0-$5*20,1,$1,$2,$3,$4,$5,0*20,1,$1,$4,$5,0-$2,0-$3,0*20,1,$1,0-$2,0-$3,0-$4,0-$5,0*20,1,$1,0-$4,0-$5,$2,$3,0*4,1,4,$2,$3,$4,$5,0-$2,0-$3,0-$4,0-$5,$2,$3,0*%
%ADD10C,2.102*%
%ADD11C,1.8016*%
%ADD12RoundRect,0.09562X0.76499X0.85299X0.76499X-0.85299*%
%ADD13C,1.9016*%
%ADD14C,2.1016*%
%ADD15O,1.902X1.302*%
%ADD16O,2.102X1.302*%
G75*


G04 Rect Start*
G36*
G01X111296Y8153926D02*
G01X578908Y8153926D01*
G02X1055158Y7677676I0J-476250D01*
G02X578908Y7201426I-476250J0D01*
G01X111296Y7201426D01*
G02X-364954Y7677676I0J476250D01*
G02X111296Y8153926I476250J0D01*
G37*
G04 Rect End*

G04 Pad Start*
G54D10*
G01X9441561Y9039987D03*
G01X9441561Y8740013D03*
G01X9141587Y9039987D03*
G01X9141587Y8740013D03*
G01X8841613Y9039987D03*
G01X8841613Y8740013D03*
G01X8541639Y9039987D03*
G01X8541639Y8740013D03*
G54D11*
G01X12416691Y3880338D03*
G01X12416691Y4134338D03*
G01X12416691Y4388338D03*
G01X12416691Y4642338D03*
G01X12416691Y4896338D03*
G01X12416691Y5150338D03*
G01X12416691Y5404338D03*
G01X12416691Y5658338D03*
G01X12416691Y5912338D03*
G01X12416691Y6166338D03*
G01X12416691Y6420338D03*
G01X12416691Y6674338D03*
G01X12416691Y6928338D03*
G01X12416691Y7182338D03*
G01X12416691Y7436338D03*
G01X12416691Y7690338D03*
G01X12416691Y7944338D03*
G01X12416691Y8198338D03*
G01X12416691Y8452338D03*
G01X12416691Y8706338D03*
G01X12416691Y8960338D03*
G01X12416691Y9214338D03*
G01X12416691Y9468338D03*
G54D12*
G01X12416691Y9722338D03*
G54D11*
G01X13947207Y3880338D03*
G01X13947207Y4134338D03*
G01X13947207Y4388338D03*
G01X13947207Y4642338D03*
G01X13947207Y4896338D03*
G01X13947207Y5150338D03*
G01X13947207Y5404338D03*
G01X13947207Y5658338D03*
G01X13947207Y5912338D03*
G01X13947207Y6166338D03*
G01X13947207Y6420338D03*
G01X13947207Y6674338D03*
G01X13947207Y6928338D03*
G01X13947207Y7182338D03*
G01X13947207Y7436338D03*
G01X13947207Y7690338D03*
G01X13947207Y7944338D03*
G01X13947207Y8198338D03*
G01X13947207Y8452338D03*
G01X13947207Y8706338D03*
G01X13947207Y8960338D03*
G01X13947207Y9214338D03*
G01X13947207Y9468338D03*
G54D12*
G01X13947207Y9722338D03*
G54D13*
G01X15250807Y6409788D03*
G01X15250807Y6159598D03*
G01X15250807Y5909662D03*
G01X15250807Y5659726D03*
G54D14*
G01X7661302Y8396614D03*
G01X7407302Y8396614D03*
G01X2006508Y7864119D03*
G01X1752508Y7864119D03*
G01X7972942Y2190453D03*
G01X8226942Y2190453D03*
G01X2368295Y1630161D03*
G01X2622295Y1630161D03*
G54D10*
G01X15073857Y7537415D03*
G01X14773883Y7537415D03*
G01X15073857Y7837389D03*
G01X14773883Y7837389D03*
G01X15073857Y8137363D03*
G01X14773883Y8137363D03*
G01X15073857Y8437337D03*
G01X14773883Y8437337D03*
G01X15073857Y7237441D03*
G01X14773883Y7237187D03*
G54D15*
G01X15746048Y2102950D03*
G54D16*
G01X15328057Y2102950D03*
G01X15328057Y1237927D03*
G54D15*
G01X15746048Y1237927D03*
G04 Pad End*

M02*

