999
"DXF R12 Output" (www.mydxf.blogspot.com)
 0 
SECTION
 2 
HEADER
 9 
$ACADVER
 1 
AC1009
 9 
$EXTMIN
 10 
 0 
 20 
 0 
 9 
$EXTMAX
 10 
 8.5 
 20 
 11 
 0 
ENDSEC
 0 
SECTION
 2 
ENTITIES
0
LINE
8
Layer 1
10
4.171880
20
204.138327
11
4.171880
21
154.138278
0
LINE
8
Layer 1
10
4.171880
20
154.138278
11
7.171700
21
154.138278
0
LINE
8
Layer 1
10
7.171700
20
154.138278
11
113.171950
21
154.138278
0
LINE
8
Layer 1
10
113.171950
20
154.138278
11
116.171760
21
154.138278
0
LINE
8
Layer 1
10
116.171760
20
154.138278
11
116.171760
21
204.138327
0
LINE
8
Layer 1
10
116.171760
20
204.138327
11
113.171950
21
204.138327
0
LINE
8
Layer 1
10
113.171950
20
204.138327
11
101.887880
21
204.138327
0
LINE
8
Layer 1
10
101.887880
20
204.138327
11
70.171990
21
204.138327
0
LINE
8
Layer 1
10
70.171990
20
204.138327
11
70.168990
21
204.138327
0
LINE
8
Layer 1
10
70.168990
20
204.138327
11
70.168990
21
198.138176
0
LINE
8
Layer 1
10
70.168990
20
198.138176
11
50.168660
21
198.138176
0
LINE
8
Layer 1
10
50.168660
20
198.138176
11
50.168660
21
204.138327
0
LINE
8
Layer 1
10
50.168660
20
204.138327
11
15.640010
21
204.138327
0
LINE
8
Layer 1
10
15.640010
20
204.138327
11
7.171800
21
204.138327
0
LINE
8
Layer 1
10
7.171800
20
204.138327
11
4.171880
21
204.138327
0
LINE
8
Layer 1
10
7.171700
20
199.838331
11
10.073840
21
199.839331
0
LINE
8
Layer 1
10
10.073840
20
199.839331
11
10.073850
21
189.139209
0
LINE
8
Layer 1
10
10.073850
20
189.139209
11
10.073850
21
187.042179
0
LINE
8
Layer 1
10
10.073850
20
187.042179
11
10.074850
21
187.040079
0
LINE
8
Layer 1
10
10.074850
20
187.040079
11
10.074330
21
187.040079
0
LINE
8
Layer 1
10
10.074330
20
187.040079
11
10.075330
21
187.040080
0
LINE
8
Layer 1
10
10.075330
20
187.040080
11
7.171640
21
187.037980
0
LINE
8
Layer 1
10
7.171640
20
187.037980
11
7.171700
21
199.838331
0
LINE
8
Layer 1
10
110.266690
20
199.838331
11
113.171950
21
199.838331
0
LINE
8
Layer 1
10
113.171950
20
199.838331
11
113.171950
21
189.138209
0
LINE
8
Layer 1
10
113.171950
20
189.138209
11
113.171950
21
187.038079
0
LINE
8
Layer 1
10
113.171950
20
187.038079
11
113.171950
21
187.008109
0
LINE
8
Layer 1
10
113.171950
20
187.008109
11
113.171430
21
187.008109
0
LINE
8
Layer 1
10
113.171430
20
187.008109
11
113.171430
21
187.038079
0
LINE
8
Layer 1
10
113.171430
20
187.038079
11
110.266690
21
187.040179
0
LINE
8
Layer 1
10
110.266690
20
187.040179
11
110.266690
21
199.838331
0
LINE
8
Layer 1
10
113.171430
20
170.841651
11
113.171950
21
170.841651
0
LINE
8
Layer 1
10
113.171950
20
170.841651
11
113.171950
21
170.838051
0
LINE
8
Layer 1
10
113.171950
20
170.838051
11
113.171950
21
169.138413
0
LINE
8
Layer 1
10
113.171950
20
169.138413
11
113.171950
21
158.038316
0
LINE
8
Layer 1
10
113.171950
20
158.038316
11
110.266690
21
158.040416
0
LINE
8
Layer 1
10
110.266690
20
158.040416
11
110.267690
21
170.834966
0
LINE
8
Layer 1
10
110.267690
20
170.834966
11
113.171390
21
170.838066
0
LINE
8
Layer 1
10
113.171390
20
170.838066
11
113.171430
21
170.841651
0
LINE
8
Layer 1
10
10.068160
20
170.840051
11
10.068680
21
170.835951
0
LINE
8
Layer 1
10
10.068680
20
170.835951
11
10.064680
21
170.837951
0
LINE
8
Layer 1
10
10.064680
20
170.837951
11
10.077080
21
169.134179
0
LINE
8
Layer 1
10
10.077080
20
169.134179
11
10.079080
21
158.035293
0
LINE
8
Layer 1
10
10.079080
20
158.035293
11
7.172290
21
158.038193
0
LINE
8
Layer 1
10
7.172290
20
158.038193
11
7.172290
21
170.838034
0
LINE
8
Layer 1
10
7.172290
20
170.838034
11
10.081150
21
170.838034
0
LINE
8
Layer 1
10
10.081150
20
170.838034
11
10.068160
21
170.840051
0
LINE
8
Layer 1
10
125.724070
20
203.881971
11
125.724070
21
153.881922
0
LINE
8
Layer 1
10
125.724070
20
153.881922
11
128.723880
21
153.881922
0
LINE
8
Layer 1
10
128.723880
20
153.881922
11
234.724133
21
153.881922
0
LINE
8
Layer 1
10
234.724133
20
153.881922
11
237.723950
21
153.881922
0
LINE
8
Layer 1
10
237.723950
20
153.881922
11
237.723950
21
203.881971
0
LINE
8
Layer 1
10
237.723950
20
203.881971
11
234.724133
21
203.881971
0
LINE
8
Layer 1
10
234.724133
20
203.881971
11
191.729341
21
203.881971
0
LINE
8
Layer 1
10
191.729341
20
203.881971
11
191.724141
21
203.881971
0
LINE
8
Layer 1
10
191.724141
20
203.881971
11
171.728979
21
203.881971
0
LINE
8
Layer 1
10
171.728979
20
203.881971
11
171.728979
21
203.801873
0
LINE
8
Layer 1
10
171.728979
20
203.801873
11
171.724279
21
203.801873
0
LINE
8
Layer 1
10
171.724279
20
203.801873
11
171.724279
21
203.881971
0
LINE
8
Layer 1
10
171.724279
20
203.881971
11
128.723880
21
203.881971
0
LINE
8
Layer 1
10
128.723880
20
203.881971
11
125.724070
21
203.881971
0
LINE
8
Layer 1
10
128.723880
20
199.581975
11
131.627070
21
199.581975
0
LINE
8
Layer 1
10
131.627070
20
199.581975
11
131.627580
21
188.887537
0
LINE
8
Layer 1
10
131.627580
20
188.887537
11
131.625580
21
186.782756
0
LINE
8
Layer 1
10
131.625580
20
186.782756
11
128.723940
21
186.781756
0
LINE
8
Layer 1
10
128.723940
20
186.781756
11
128.723880
21
199.581975
0
LINE
8
Layer 1
10
234.724133
20
199.581975
11
234.724133
21
188.881853
0
LINE
8
Layer 1
10
234.724133
20
188.881853
11
234.724133
21
186.781723
0
LINE
8
Layer 1
10
234.724133
20
186.781723
11
234.724133
21
186.765183
0
LINE
8
Layer 1
10
234.724133
20
186.765183
11
234.723616
21
186.765183
0
LINE
8
Layer 1
10
234.723616
20
186.765183
11
234.723616
21
186.781723
0
LINE
8
Layer 1
10
234.723616
20
186.781723
11
231.821468
21
186.781723
0
LINE
8
Layer 1
10
231.821468
20
186.781723
11
231.821468
21
199.578875
0
LINE
8
Layer 1
10
231.821468
20
199.578875
11
234.724133
21
199.581975
0
LINE
8
Layer 1
10
138.724308
20
191.882187
11
178.723934
21
191.882187
0
LINE
8
Layer 1
10
178.723934
20
191.882187
11
178.723934
21
176.882069
0
LINE
8
Layer 1
10
178.723934
20
176.882069
11
138.724308
21
176.882069
0
LINE
8
Layer 1
10
138.724308
20
176.882069
11
138.724308
21
191.882187
0
LINE
8
Layer 1
10
206.724292
20
186.881975
11
221.723893
21
186.881975
0
LINE
8
Layer 1
10
221.723893
20
186.881975
11
221.723893
21
176.882069
0
LINE
8
Layer 1
10
221.723893
20
176.882069
11
206.724292
21
176.882069
0
LINE
8
Layer 1
10
206.724292
20
176.882069
11
206.724292
21
186.881975
0
LINE
8
Layer 1
10
234.723616
20
170.663327
11
234.724133
21
170.663327
0
LINE
8
Layer 1
10
234.724133
20
170.663327
11
234.724133
21
170.581677
0
LINE
8
Layer 1
10
234.724133
20
170.581677
11
234.724133
21
168.882039
0
LINE
8
Layer 1
10
234.724133
20
168.882039
11
234.724133
21
157.781942
0
LINE
8
Layer 1
10
234.724133
20
157.781942
11
231.817851
21
157.776775
0
LINE
8
Layer 1
10
231.817851
20
157.776775
11
231.818884
21
170.578577
0
LINE
8
Layer 1
10
231.818884
20
170.578577
11
234.723616
21
170.581678
0
LINE
8
Layer 1
10
234.723616
20
170.581678
11
234.723616
21
170.663327
0
LINE
8
Layer 1
10
131.628100
20
170.582712
11
131.626100
21
168.885141
0
LINE
8
Layer 1
10
131.626100
20
168.885141
11
131.626100
21
157.782976
0
LINE
8
Layer 1
10
131.626100
20
157.782976
11
128.723950
21
157.781976
0
LINE
8
Layer 1
10
128.723950
20
157.781976
11
128.723950
21
170.581678
0
LINE
8
Layer 1
10
128.723950
20
170.581678
11
131.628100
21
170.582712
0
LINE
8
Layer 1
10
247.273660
20
408.557690
11
247.273660
21
408.549690
0
LINE
8
Layer 1
10
247.273660
20
408.549690
11
227.273330
21
408.549690
0
LINE
8
Layer 1
10
227.273330
20
408.549690
11
227.273330
21
408.550200
0
LINE
8
Layer 1
10
227.273330
20
408.550200
11
187.324870
21
408.550200
0
LINE
8
Layer 1
10
187.324870
20
408.550200
11
187.324870
21
358.550150
0
LINE
8
Layer 1
10
187.324870
20
358.550150
11
184.325050
21
358.550150
0
LINE
8
Layer 1
10
184.325050
20
358.550150
11
184.325050
21
338.549830
0
LINE
8
Layer 1
10
184.325050
20
338.549830
11
187.324870
21
338.549830
0
LINE
8
Layer 1
10
187.324870
20
338.549830
11
187.324870
21
318.550010
0
LINE
8
Layer 1
10
187.324870
20
318.550010
11
184.325050
21
318.550010
0
LINE
8
Layer 1
10
184.325050
20
318.550010
11
184.325050
21
298.550200
0
LINE
8
Layer 1
10
184.325050
20
298.550200
11
187.324870
21
298.550200
0
LINE
8
Layer 1
10
187.324870
20
298.550200
11
187.324870
21
248.550150
0
LINE
8
Layer 1
10
187.324870
20
248.550150
11
227.325010
21
248.550150
0
LINE
8
Layer 1
10
227.325010
20
248.550150
11
227.325010
21
248.549630
0
LINE
8
Layer 1
10
227.325010
20
248.549630
11
247.273660
21
248.549630
0
LINE
8
Layer 1
10
247.273660
20
248.549630
11
247.273660
21
248.549120
0
LINE
8
Layer 1
10
247.273660
20
248.549120
11
247.324860
21
248.545120
0
LINE
8
Layer 1
10
247.324860
20
248.545120
11
247.324860
21
248.550120
0
LINE
8
Layer 1
10
247.324860
20
248.550120
11
287.325000
21
248.550120
0
LINE
8
Layer 1
10
287.325000
20
248.550120
11
287.325000
21
298.550170
0
LINE
8
Layer 1
10
287.325000
20
298.550170
11
290.324820
21
298.550170
0
LINE
8
Layer 1
10
290.324820
20
298.550170
11
290.324820
21
318.549980
0
LINE
8
Layer 1
10
290.324820
20
318.549980
11
287.325000
21
318.549980
0
LINE
8
Layer 1
10
287.325000
20
318.549980
11
287.325000
21
338.549800
0
LINE
8
Layer 1
10
287.325000
20
338.549800
11
290.324820
21
338.549800
0
LINE
8
Layer 1
10
290.324820
20
338.549800
11
290.324820
21
358.550120
0
LINE
8
Layer 1
10
290.324820
20
358.550120
11
287.325000
21
358.550120
0
LINE
8
Layer 1
10
287.325000
20
358.550120
11
287.325000
21
408.550170
0
LINE
8
Layer 1
10
287.325000
20
408.550170
11
247.324860
21
408.550170
0
LINE
8
Layer 1
10
247.324860
20
408.550170
11
247.324860
21
408.558170
0
LINE
8
Layer 1
10
247.324860
20
408.558170
11
247.273660
21
408.557690
0
LINE
8
Layer 1
10
237.324910
20
405.534110
11
240.854493
21
405.381013
0
LINE
8
Layer 1
10
240.854493
20
405.381013
11
244.345159
21
404.954076
0
LINE
8
Layer 1
10
244.345159
20
404.954076
11
247.781622
21
404.258306
0
LINE
8
Layer 1
10
247.781622
20
404.258306
11
251.148594
21
403.298711
0
LINE
8
Layer 1
10
251.148594
20
403.298711
11
254.430787
21
402.080298
0
LINE
8
Layer 1
10
254.430787
20
402.080298
11
257.612913
21
400.608075
0
LINE
8
Layer 1
10
257.612913
20
400.608075
11
260.679687
21
398.887050
0
LINE
8
Layer 1
10
260.679687
20
398.887050
11
263.615820
21
396.922230
0
LINE
8
Layer 1
10
263.615820
20
396.922230
11
277.325060
21
396.922230
0
LINE
8
Layer 1
10
277.325060
20
396.922230
11
278.252270
21
396.836683
0
LINE
8
Layer 1
10
278.252270
20
396.836683
11
279.120187
21
396.590311
0
LINE
8
Layer 1
10
279.120187
20
396.590311
11
279.914080
21
396.198519
0
LINE
8
Layer 1
10
279.914080
20
396.198519
11
280.619217
21
395.676713
0
LINE
8
Layer 1
10
280.619217
20
395.676713
11
281.220867
21
395.040295
0
LINE
8
Layer 1
10
281.220867
20
395.040295
11
281.704297
21
394.304673
0
LINE
8
Layer 1
10
281.704297
20
394.304673
11
282.054775
21
393.485249
0
LINE
8
Layer 1
10
282.054775
20
393.485249
11
282.257570
21
392.597430
0
LINE
8
Layer 1
10
282.257570
20
392.597430
11
282.257570
21
392.879580
0
LINE
8
Layer 1
10
282.257570
20
392.879580
11
282.325270
21
392.879580
0
LINE
8
Layer 1
10
282.325270
20
392.879580
11
282.325270
21
391.922020
0
LINE
8
Layer 1
10
282.325270
20
391.922020
11
282.325270
21
305.549510
0
LINE
8
Layer 1
10
282.325270
20
305.549510
11
282.325270
21
304.049350
0
LINE
8
Layer 1
10
282.325270
20
304.049350
11
282.257570
21
303.373930
0
LINE
8
Layer 1
10
282.257570
20
303.373930
11
282.257570
21
304.874100
0
LINE
8
Layer 1
10
282.257570
20
304.874100
11
282.054775
21
303.986281
0
LINE
8
Layer 1
10
282.054775
20
303.986281
11
281.704297
21
303.166857
0
LINE
8
Layer 1
10
281.704297
20
303.166857
11
281.220867
21
302.431235
0
LINE
8
Layer 1
10
281.220867
20
302.431235
11
280.619217
21
301.794818
0
LINE
8
Layer 1
10
280.619217
20
301.794818
11
279.914080
21
301.273011
0
LINE
8
Layer 1
10
279.914080
20
301.273011
11
279.120187
21
300.881219
0
LINE
8
Layer 1
10
279.120187
20
300.881219
11
278.252270
21
300.634847
0
LINE
8
Layer 1
10
278.252270
20
300.634847
11
277.325060
21
300.549300
0
LINE
8
Layer 1
10
277.325060
20
300.549300
11
197.325290
21
300.549300
0
LINE
8
Layer 1
10
197.325290
20
300.549300
11
196.315144
21
300.650539
0
LINE
8
Layer 1
10
196.315144
20
300.650539
11
195.375413
21
300.941052
0
LINE
8
Layer 1
10
195.375413
20
300.941052
11
194.525907
21
301.401027
0
LINE
8
Layer 1
10
194.525907
20
301.401027
11
193.786435
21
302.010655
0
LINE
8
Layer 1
10
193.786435
20
302.010655
11
193.176807
21
302.750127
0
LINE
8
Layer 1
10
193.176807
20
302.750127
11
192.716832
21
303.599633
0
LINE
8
Layer 1
10
192.716832
20
303.599633
11
192.426319
21
304.539364
0
LINE
8
Layer 1
10
192.426319
20
304.539364
11
192.325080
21
305.549510
0
LINE
8
Layer 1
10
192.325080
20
305.549510
11
192.325080
21
360.534270
0
LINE
8
Layer 1
10
192.325080
20
360.534270
11
192.325080
21
391.922020
0
LINE
8
Layer 1
10
192.325080
20
391.922020
11
192.426319
21
392.932166
0
LINE
8
Layer 1
10
192.426319
20
392.932166
11
192.716832
21
393.871897
0
LINE
8
Layer 1
10
192.716832
20
393.871897
11
193.176807
21
394.721403
0
LINE
8
Layer 1
10
193.176807
20
394.721403
11
193.786435
21
395.460875
0
LINE
8
Layer 1
10
193.786435
20
395.460875
11
194.525907
21
396.070503
0
LINE
8
Layer 1
10
194.525907
20
396.070503
11
195.375413
21
396.530478
0
LINE
8
Layer 1
10
195.375413
20
396.530478
11
196.315144
21
396.820991
0
LINE
8
Layer 1
10
196.315144
20
396.820991
11
197.325290
21
396.922230
0
LINE
8
Layer 1
10
197.325290
20
396.922230
11
210.864510
21
396.922230
0
LINE
8
Layer 1
10
210.864510
20
396.922230
11
213.819006
21
398.898257
0
LINE
8
Layer 1
10
213.819006
20
398.898257
11
216.905524
21
400.627410
0
LINE
8
Layer 1
10
216.905524
20
400.627410
11
220.108490
21
402.104620
0
LINE
8
Layer 1
10
220.108490
20
402.104620
11
223.412329
21
403.324818
0
LINE
8
Layer 1
10
223.412329
20
403.324818
11
226.801465
21
404.282935
0
LINE
8
Layer 1
10
226.801465
20
404.282935
11
230.260324
21
404.973903
0
LINE
8
Layer 1
10
230.260324
20
404.973903
11
233.773330
21
405.392650
0
LINE
8
Layer 1
10
233.773330
20
405.392650
11
237.324910
21
405.534110
0
LINE
8
Layer 1
10
237.324910
20
405.534110
11
237.324910
21
405.534110
0
LINE
8
Layer 1
10
194.324950
20
403.049500
11
194.899064
21
402.935353
0
LINE
8
Layer 1
10
194.899064
20
402.935353
11
195.385777
21
402.610164
0
LINE
8
Layer 1
10
195.385777
20
402.610164
11
195.710969
21
402.123454
0
LINE
8
Layer 1
10
195.710969
20
402.123454
11
195.825120
21
401.549340
0
LINE
8
Layer 1
10
195.825120
20
401.549340
11
195.710972
21
400.975223
0
LINE
8
Layer 1
10
195.710972
20
400.975223
11
195.385780
21
400.488510
0
LINE
8
Layer 1
10
195.385780
20
400.488510
11
194.899067
21
400.163318
0
LINE
8
Layer 1
10
194.899067
20
400.163318
11
194.324950
21
400.049170
0
LINE
8
Layer 1
10
194.324950
20
400.049170
11
193.741153
21
400.167165
0
LINE
8
Layer 1
10
193.741153
20
400.167165
11
193.264456
21
400.488694
0
LINE
8
Layer 1
10
193.264456
20
400.488694
11
192.943093
21
400.965503
0
LINE
8
Layer 1
10
192.943093
20
400.965503
11
192.825300
21
401.549340
0
LINE
8
Layer 1
10
192.825300
20
401.549340
11
192.943096
21
402.133174
0
LINE
8
Layer 1
10
192.943096
20
402.133174
11
193.264460
21
402.609980
0
LINE
8
Layer 1
10
193.264460
20
402.609980
11
193.741156
21
402.931506
0
LINE
8
Layer 1
10
193.741156
20
402.931506
11
194.324950
21
403.049500
0
LINE
8
Layer 1
10
194.324950
20
403.049500
11
194.324950
21
403.049500
0
LINE
8
Layer 1
10
280.324870
20
403.049500
11
280.898984
21
402.935353
0
LINE
8
Layer 1
10
280.898984
20
402.935353
11
281.385697
21
402.610164
0
LINE
8
Layer 1
10
281.385697
20
402.610164
11
281.710889
21
402.123454
0
LINE
8
Layer 1
10
281.710889
20
402.123454
11
281.825040
21
401.549340
0
LINE
8
Layer 1
10
281.825040
20
401.549340
11
281.710892
21
400.975223
0
LINE
8
Layer 1
10
281.710892
20
400.975223
11
281.385700
21
400.488510
0
LINE
8
Layer 1
10
281.385700
20
400.488510
11
280.898987
21
400.163318
0
LINE
8
Layer 1
10
280.898987
20
400.163318
11
280.324870
21
400.049170
0
LINE
8
Layer 1
10
280.324870
20
400.049170
11
279.741073
21
400.167165
0
LINE
8
Layer 1
10
279.741073
20
400.167165
11
279.264376
21
400.488694
0
LINE
8
Layer 1
10
279.264376
20
400.488694
11
278.943013
21
400.965503
0
LINE
8
Layer 1
10
278.943013
20
400.965503
11
278.825220
21
401.549340
0
LINE
8
Layer 1
10
278.825220
20
401.549340
11
278.943016
21
402.133174
0
LINE
8
Layer 1
10
278.943016
20
402.133174
11
279.264380
21
402.609980
0
LINE
8
Layer 1
10
279.264380
20
402.609980
11
279.741076
21
402.931506
0
LINE
8
Layer 1
10
279.741076
20
402.931506
11
280.324870
21
403.049500
0
LINE
8
Layer 1
10
280.324870
20
403.049500
11
280.324870
21
403.049500
0
LINE
8
Layer 1
10
194.324950
20
257.049630
11
194.899067
21
256.935482
0
LINE
8
Layer 1
10
194.899067
20
256.935482
11
195.385780
21
256.610290
0
LINE
8
Layer 1
10
195.385780
20
256.610290
11
195.710972
21
256.123577
0
LINE
8
Layer 1
10
195.710972
20
256.123577
11
195.825120
21
255.549460
0
LINE
8
Layer 1
10
195.825120
20
255.549460
11
195.710969
21
254.975346
0
LINE
8
Layer 1
10
195.710969
20
254.975346
11
195.385777
21
254.488636
0
LINE
8
Layer 1
10
195.385777
20
254.488636
11
194.899064
21
254.163447
0
LINE
8
Layer 1
10
194.899064
20
254.163447
11
194.324950
21
254.049300
0
LINE
8
Layer 1
10
194.324950
20
254.049300
11
193.741156
21
254.167294
0
LINE
8
Layer 1
10
193.741156
20
254.167294
11
193.264460
21
254.488820
0
LINE
8
Layer 1
10
193.264460
20
254.488820
11
192.943096
21
254.965626
0
LINE
8
Layer 1
10
192.943096
20
254.965626
11
192.825300
21
255.549460
0
LINE
8
Layer 1
10
192.825300
20
255.549460
11
192.943093
21
256.133297
0
LINE
8
Layer 1
10
192.943093
20
256.133297
11
193.264456
21
256.610106
0
LINE
8
Layer 1
10
193.264456
20
256.610106
11
193.741153
21
256.931635
0
LINE
8
Layer 1
10
193.741153
20
256.931635
11
194.324950
21
257.049630
0
LINE
8
Layer 1
10
194.324950
20
257.049630
11
194.324950
21
257.049630
0
LINE
8
Layer 1
10
280.324870
20
257.049630
11
280.898987
21
256.935482
0
LINE
8
Layer 1
10
280.898987
20
256.935482
11
281.385700
21
256.610290
0
LINE
8
Layer 1
10
281.385700
20
256.610290
11
281.710892
21
256.123577
0
LINE
8
Layer 1
10
281.710892
20
256.123577
11
281.825040
21
255.549460
0
LINE
8
Layer 1
10
281.825040
20
255.549460
11
281.710889
21
254.975346
0
LINE
8
Layer 1
10
281.710889
20
254.975346
11
281.385697
21
254.488636
0
LINE
8
Layer 1
10
281.385697
20
254.488636
11
280.898984
21
254.163447
0
LINE
8
Layer 1
10
280.898984
20
254.163447
11
280.324870
21
254.049300
0
LINE
8
Layer 1
10
280.324870
20
254.049300
11
279.741076
21
254.167294
0
LINE
8
Layer 1
10
279.741076
20
254.167294
11
279.264380
21
254.488820
0
LINE
8
Layer 1
10
279.264380
20
254.488820
11
278.943016
21
254.965626
0
LINE
8
Layer 1
10
278.943016
20
254.965626
11
278.825220
21
255.549460
0
LINE
8
Layer 1
10
278.825220
20
255.549460
11
278.943013
21
256.133297
0
LINE
8
Layer 1
10
278.943013
20
256.133297
11
279.264376
21
256.610106
0
LINE
8
Layer 1
10
279.264376
20
256.610106
11
279.741073
21
256.931635
0
LINE
8
Layer 1
10
279.741073
20
256.931635
11
280.324870
21
257.049630
0
LINE
8
Layer 1
10
280.324870
20
257.049630
11
280.324870
21
257.049630
0
LINE
8
Layer 1
10
10.074090
20
257.257653
11
10.074090
21
252.939570
0
LINE
8
Layer 1
10
10.074090
20
252.939570
11
10.073580
21
252.939570
0
LINE
8
Layer 1
10
10.073580
20
252.939570
11
10.073580
21
252.928206
0
LINE
8
Layer 1
10
10.073580
20
252.928206
11
7.413787
21
252.944756
0
LINE
8
Layer 1
10
7.413787
20
252.944756
11
7.421790
21
254.731210
0
LINE
8
Layer 1
10
7.421790
20
254.731210
11
5.630779
21
254.500506
0
LINE
8
Layer 1
10
5.630779
20
254.500506
11
4.088156
21
253.870623
0
LINE
8
Layer 1
10
4.088156
20
253.870623
11
3.006612
21
252.934903
0
LINE
8
Layer 1
10
3.006612
20
252.934903
11
2.705209
21
252.381524
0
LINE
8
Layer 1
10
2.705209
20
252.381524
11
2.598833
21
251.786688
0
LINE
8
Layer 1
10
2.598833
20
251.786688
11
2.689258
21
251.191478
0
LINE
8
Layer 1
10
2.689258
20
251.191478
11
2.948602
21
250.637105
0
LINE
8
Layer 1
10
2.948602
20
250.637105
11
3.902459
21
249.698365
0
LINE
8
Layer 1
10
3.902459
20
249.698365
11
5.317224
21
249.065461
0
LINE
8
Layer 1
10
5.317224
20
249.065461
11
7.049719
21
248.833383
0
LINE
8
Layer 1
10
7.049719
20
248.833383
11
14.527808
21
248.832887
0
LINE
8
Layer 1
10
14.527808
20
248.832887
11
19.826106
21
248.961872
0
LINE
8
Layer 1
10
19.826106
20
248.961872
11
24.516173
21
249.319043
0
LINE
8
Layer 1
10
24.516173
20
249.319043
11
28.530655
21
249.859725
0
LINE
8
Layer 1
10
28.530655
20
249.859725
11
31.802200
21
250.539244
0
LINE
8
Layer 1
10
31.802200
20
250.539244
11
32.139645
21
250.617272
0
LINE
8
Layer 1
10
32.139645
20
250.617272
11
34.811834
21
251.175896
0
LINE
8
Layer 1
10
34.811834
20
251.175896
11
35.733748
21
251.331439
0
LINE
8
Layer 1
10
35.733748
20
251.331439
11
38.879284
21
251.764490
0
LINE
8
Layer 1
10
38.879284
20
251.764490
11
40.127788
21
251.897815
0
LINE
8
Layer 1
10
40.127788
20
251.897815
11
43.692948
21
252.180486
0
LINE
8
Layer 1
10
43.692948
20
252.180486
11
45.292333
21
252.263683
0
LINE
8
Layer 1
10
45.292333
20
252.263683
11
49.283298
21
252.366004
0
LINE
8
Layer 1
10
49.283298
20
252.366004
11
50.140092
21
252.377368
0
LINE
8
Layer 1
10
50.140092
20
252.377368
11
50.353000
21
252.362892
0
LINE
8
Layer 1
10
50.353000
20
252.362892
11
50.519916
21
252.340660
0
LINE
8
Layer 1
10
50.519916
20
252.340660
11
50.960719
21
252.211985
0
LINE
8
Layer 1
10
50.960719
20
252.211985
11
50.977727
21
252.204725
0
LINE
8
Layer 1
10
50.977727
20
252.204725
11
51.368917
21
251.944276
0
LINE
8
Layer 1
10
51.368917
20
251.944276
11
51.370918
21
251.943825
0
LINE
8
Layer 1
10
51.370918
20
251.943825
11
51.371428
21
251.943374
0
LINE
8
Layer 1
10
51.371428
20
251.943374
11
51.578143
21
251.626083
0
LINE
8
Layer 1
10
51.578143
20
251.626083
11
51.599353
21
251.556321
0
LINE
8
Layer 1
10
51.599353
20
251.556321
11
51.623664
21
251.394054
0
LINE
8
Layer 1
10
51.623664
20
251.394054
11
51.606056
21
251.279850
0
LINE
8
Layer 1
10
51.606056
20
251.279850
11
51.555933
21
251.116555
0
LINE
8
Layer 1
10
51.555933
20
251.116555
11
51.469093
21
250.964624
0
LINE
8
Layer 1
10
51.469093
20
250.964624
11
51.241198
21
250.740346
0
LINE
8
Layer 1
10
51.241198
20
250.740346
11
51.194176
21
250.702602
0
LINE
8
Layer 1
10
51.194176
20
250.702602
11
50.728385
21
250.497552
0
LINE
8
Layer 1
10
50.728385
20
250.497552
11
50.161162
21
250.421999
0
LINE
8
Layer 1
10
50.161162
20
250.421999
11
49.210314
21
250.398743
0
LINE
8
Layer 1
10
49.210314
20
250.398743
11
45.695288
21
250.312961
0
LINE
8
Layer 1
10
45.695288
20
250.312961
11
44.095903
21
250.234413
0
LINE
8
Layer 1
10
44.095903
20
250.234413
11
40.873881
21
249.988950
0
LINE
8
Layer 1
10
40.873881
20
249.988950
11
39.568011
21
249.854074
0
LINE
8
Layer 1
10
39.568011
20
249.854074
11
36.649849
21
249.460817
0
LINE
8
Layer 1
10
36.649849
20
249.460817
11
35.788913
21
249.317673
0
LINE
8
Layer 1
10
35.788913
20
249.317673
11
33.177192
21
248.775588
0
LINE
8
Layer 1
10
33.177192
20
248.775588
11
32.888320
21
248.715643
0
LINE
8
Layer 1
10
32.888320
20
248.715643
11
29.493163
21
248.006172
0
LINE
8
Layer 1
10
29.493163
20
248.006172
11
25.246165
21
247.421233
0
LINE
8
Layer 1
10
25.246165
20
247.421233
11
20.235771
21
247.023967
0
LINE
8
Layer 1
10
20.235771
20
247.023967
11
14.550428
21
246.877513
0
LINE
8
Layer 1
10
14.550428
20
246.877513
11
10.073700
21
246.877513
0
LINE
8
Layer 1
10
10.073700
20
246.877513
11
10.073700
21
246.865626
0
LINE
8
Layer 1
10
10.073700
20
246.865626
11
7.050630
21
246.865626
0
LINE
8
Layer 1
10
7.050630
20
246.865626
11
7.050630
21
241.744395
0
LINE
8
Layer 1
10
7.050630
20
241.744395
11
7.237042
21
241.131170
0
LINE
8
Layer 1
10
7.237042
20
241.131170
11
7.745522
21
240.630335
0
LINE
8
Layer 1
10
7.745522
20
240.630335
11
8.499931
21
240.292626
0
LINE
8
Layer 1
10
8.499931
20
240.292626
11
9.424131
21
240.168782
0
LINE
8
Layer 1
10
9.424131
20
240.168782
11
10.099412
21
240.168782
0
LINE
8
Layer 1
10
10.099412
20
240.168782
11
10.099412
21
223.956342
0
LINE
8
Layer 1
10
10.099412
20
223.956342
11
10.074600
21
223.956342
0
LINE
8
Layer 1
10
10.074600
20
223.956342
11
10.074600
21
223.944455
0
LINE
8
Layer 1
10
10.074600
20
223.944455
11
9.424511
21
223.944455
0
LINE
8
Layer 1
10
9.424511
20
223.944455
11
8.500311
21
223.820542
0
LINE
8
Layer 1
10
8.500311
20
223.820542
11
7.745902
21
223.482718
0
LINE
8
Layer 1
10
7.745902
20
223.482718
11
7.237423
21
222.981859
0
LINE
8
Layer 1
10
7.237423
20
222.981859
11
7.051010
21
222.368841
0
LINE
8
Layer 1
10
7.051010
20
222.368841
11
7.051010
21
215.279874
0
LINE
8
Layer 1
10
7.051010
20
215.279874
11
5.318134
21
215.047702
0
LINE
8
Layer 1
10
5.318134
20
215.047702
11
3.903411
21
214.414598
0
LINE
8
Layer 1
10
3.903411
20
214.414598
11
2.949766
21
213.475675
0
LINE
8
Layer 1
10
2.949766
20
213.475675
11
2.690512
21
212.921256
0
LINE
8
Layer 1
10
2.690512
20
212.921256
11
2.600124
21
212.326050
0
LINE
8
Layer 1
10
2.600124
20
212.326050
11
2.807715
21
211.741441
0
LINE
8
Layer 1
10
2.807715
20
211.741441
11
3.355003
21
211.219342
0
LINE
8
Layer 1
10
3.355003
20
211.219342
11
5.015739
21
210.412958
0
LINE
8
Layer 1
10
5.015739
20
210.412958
11
6.676475
21
210.007470
0
LINE
8
Layer 1
10
6.676475
20
210.007470
11
7.223763
21
209.986490
0
LINE
8
Layer 1
10
7.223763
20
209.986490
11
7.431355
21
210.103448
0
LINE
8
Layer 1
10
7.431355
20
210.103448
11
7.431355
21
211.190202
0
LINE
8
Layer 1
10
7.431355
20
211.190202
11
10.074600
21
211.184516
0
LINE
8
Layer 1
10
10.074600
20
211.184516
11
10.074600
21
207.257628
0
LINE
8
Layer 1
10
10.074600
20
207.257628
11
15.178677
21
207.257628
0
LINE
8
Layer 1
10
15.178677
20
207.257628
11
18.078760
21
207.257628
0
LINE
8
Layer 1
10
18.078760
20
207.257628
11
20.078640
21
207.257628
0
LINE
8
Layer 1
10
20.078640
20
207.257628
11
20.078640
21
213.257776
0
LINE
8
Layer 1
10
20.078640
20
213.257776
11
42.088660
21
213.257776
0
LINE
8
Layer 1
10
42.088660
20
213.257776
11
42.088660
21
207.257628
0
LINE
8
Layer 1
10
42.088660
20
207.257628
11
162.144335
21
207.257628
0
LINE
8
Layer 1
10
162.144335
20
207.257628
11
165.043899
21
207.257628
0
LINE
8
Layer 1
10
165.043899
20
207.257628
11
170.147978
21
207.257628
0
LINE
8
Layer 1
10
170.147978
20
207.257628
11
170.147978
21
211.196404
0
LINE
8
Layer 1
10
170.147978
20
211.196404
11
172.800529
21
211.188138
0
LINE
8
Layer 1
10
172.800529
20
211.188138
11
172.800529
21
210.171661
0
LINE
8
Layer 1
10
172.800529
20
210.171661
11
173.550240
21
210.168039
0
LINE
8
Layer 1
10
173.550240
20
210.168039
11
175.199606
21
210.542925
0
LINE
8
Layer 1
10
175.199606
20
210.542925
11
176.848971
21
211.273748
0
LINE
8
Layer 1
10
176.848971
20
211.273748
11
177.392512
21
211.765582
0
LINE
8
Layer 1
10
177.392512
20
211.765582
11
177.598683
21
212.337936
0
LINE
8
Layer 1
10
177.598683
20
212.337936
11
177.508294
21
212.933142
0
LINE
8
Layer 1
10
177.508294
20
212.933142
11
177.249040
21
213.487561
0
LINE
8
Layer 1
10
177.249040
20
213.487561
11
176.295393
21
214.426483
0
LINE
8
Layer 1
10
176.295393
20
214.426483
11
174.880669
21
215.059588
0
LINE
8
Layer 1
10
174.880669
20
215.059588
11
173.147793
21
215.291759
0
LINE
8
Layer 1
10
173.147793
20
215.291759
11
173.147793
21
222.380729
0
LINE
8
Layer 1
10
173.147793
20
222.380729
11
172.961301
21
222.993747
0
LINE
8
Layer 1
10
172.961301
20
222.993747
11
172.452645
21
223.494605
0
LINE
8
Layer 1
10
172.452645
20
223.494605
11
171.698060
21
223.832429
0
LINE
8
Layer 1
10
171.698060
20
223.832429
11
170.773780
21
223.956342
0
LINE
8
Layer 1
10
170.773780
20
223.956342
11
170.153663
21
223.956342
0
LINE
8
Layer 1
10
170.153663
20
223.956342
11
170.153663
21
240.181184
0
LINE
8
Layer 1
10
170.153663
20
240.181184
11
170.773780
21
240.181184
0
LINE
8
Layer 1
10
170.773780
20
240.181184
11
171.698060
21
240.305028
0
LINE
8
Layer 1
10
171.698060
20
240.305028
11
172.452645
21
240.642737
0
LINE
8
Layer 1
10
172.452645
20
240.642737
11
172.961301
21
241.143573
0
LINE
8
Layer 1
10
172.961301
20
241.143573
11
173.147793
21
241.756798
0
LINE
8
Layer 1
10
173.147793
20
241.756798
11
173.147793
21
246.876379
0
LINE
8
Layer 1
10
173.147793
20
246.876379
11
170.147462
21
246.876379
0
LINE
8
Layer 1
10
170.147462
20
246.876379
11
165.671767
21
246.876379
0
LINE
8
Layer 1
10
165.671767
20
246.876379
11
165.669166
21
246.876379
0
LINE
8
Layer 1
10
165.669166
20
246.876379
11
160.016800
21
247.021590
0
LINE
8
Layer 1
10
160.016800
20
247.021590
11
159.960474
21
247.024702
0
LINE
8
Layer 1
10
159.960474
20
247.024702
11
154.991270
21
247.418993
0
LINE
8
Layer 1
10
154.991270
20
247.418993
11
154.972672
21
247.420526
0
LINE
8
Layer 1
10
154.972672
20
247.420526
11
154.966969
21
247.421022
0
LINE
8
Layer 1
10
154.966969
20
247.421022
11
150.731053
21
248.004448
0
LINE
8
Layer 1
10
150.731053
20
248.004448
11
150.728452
21
248.004944
0
LINE
8
Layer 1
10
150.728452
20
248.004944
11
150.725351
21
248.005440
0
LINE
8
Layer 1
10
150.725351
20
248.005440
11
147.333311
21
248.714441
0
LINE
8
Layer 1
10
147.333311
20
248.714441
11
147.330210
21
248.714937
0
LINE
8
Layer 1
10
147.330210
20
248.714937
11
147.324507
21
248.716470
0
LINE
8
Layer 1
10
147.324507
20
248.716470
11
144.065793
21
249.392914
0
LINE
8
Layer 1
10
144.065793
20
249.392914
11
144.062691
21
249.393410
0
LINE
8
Layer 1
10
144.062691
20
249.393410
11
144.059590
21
249.393906
0
LINE
8
Layer 1
10
144.059590
20
249.393906
11
140.072238
21
249.931341
0
LINE
8
Layer 1
10
140.072238
20
249.931341
11
140.045365
21
249.934452
0
LINE
8
Layer 1
10
140.045365
20
249.934452
11
140.028828
21
249.935986
0
LINE
8
Layer 1
10
140.028828
20
249.935986
11
135.348903
21
250.291930
0
LINE
8
Layer 1
10
135.348903
20
250.291930
11
130.063548
21
250.420711
0
LINE
8
Layer 1
10
130.063548
20
250.420711
11
130.060446
21
250.420711
0
LINE
8
Layer 1
10
130.060446
20
250.420711
11
129.483221
21
250.497708
0
LINE
8
Layer 1
10
129.483221
20
250.497708
11
128.830648
21
250.854127
0
LINE
8
Layer 1
10
128.830648
20
250.854127
11
128.577333
21
251.404631
0
LINE
8
Layer 1
10
128.577333
20
251.404631
11
128.693701
21
251.787449
0
LINE
8
Layer 1
10
128.693701
20
251.787449
11
129.011241
21
252.100218
0
LINE
8
Layer 1
10
129.011241
20
252.100218
11
129.482605
21
252.311172
0
LINE
8
Layer 1
10
129.482605
20
252.311172
11
130.060446
21
252.388549
0
LINE
8
Layer 1
10
130.060446
20
252.388549
11
135.745904
21
252.242093
0
LINE
8
Layer 1
10
135.745904
20
252.242093
11
140.756430
21
251.844910
0
LINE
8
Layer 1
10
140.756430
20
251.844910
11
144.979427
21
251.263554
0
LINE
8
Layer 1
10
144.979427
20
251.263554
11
145.028519
21
251.255302
0
LINE
8
Layer 1
10
145.028519
20
251.255302
11
148.394720
21
250.551471
0
LINE
8
Layer 1
10
148.394720
20
250.551471
11
148.398322
21
250.551020
0
LINE
8
Layer 1
10
148.398322
20
250.551020
11
151.666855
21
249.871993
0
LINE
8
Layer 1
10
151.666855
20
249.871993
11
151.669956
21
249.871497
0
LINE
8
Layer 1
10
151.669956
20
249.871497
11
151.672557
21
249.871000
0
LINE
8
Layer 1
10
151.672557
20
249.871000
11
155.675413
21
249.331499
0
LINE
8
Layer 1
10
155.675413
20
249.331499
11
155.681616
21
249.331003
0
LINE
8
Layer 1
10
155.681616
20
249.331003
11
155.701765
21
249.329470
0
LINE
8
Layer 1
10
155.701765
20
249.329470
11
160.349542
21
248.975487
0
LINE
8
Layer 1
10
160.349542
20
248.975487
11
160.405358
21
248.972916
0
LINE
8
Layer 1
10
160.405358
20
248.972916
11
165.633459
21
248.845275
0
LINE
8
Layer 1
10
165.633459
20
248.845275
11
165.672737
21
248.844238
0
LINE
8
Layer 1
10
165.672737
20
248.844238
11
170.147399
21
248.844734
0
LINE
8
Layer 1
10
170.147399
20
248.844734
11
170.147399
21
248.845230
0
LINE
8
Layer 1
10
170.147399
20
248.845230
11
173.147730
21
248.845230
0
LINE
8
Layer 1
10
173.147730
20
248.845230
11
174.880227
21
249.077308
0
LINE
8
Layer 1
10
174.880227
20
249.077308
11
176.294993
21
249.710213
0
LINE
8
Layer 1
10
176.294993
20
249.710213
11
177.248850
21
250.648954
0
LINE
8
Layer 1
10
177.248850
20
250.648954
11
177.508194
21
251.203327
0
LINE
8
Layer 1
10
177.508194
20
251.203327
11
177.598620
21
251.798537
0
LINE
8
Layer 1
10
177.598620
20
251.798537
11
177.490468
21
252.394082
0
LINE
8
Layer 1
10
177.490468
20
252.394082
11
177.184381
21
252.949334
0
LINE
8
Layer 1
10
177.184381
20
252.949334
11
176.088625
21
253.890739
0
LINE
8
Layer 1
10
176.088625
20
253.890739
11
174.531791
21
254.526308
0
LINE
8
Layer 1
10
174.531791
20
254.526308
11
172.734319
21
254.759596
0
LINE
8
Layer 1
10
172.734319
20
254.759596
11
172.726015
21
252.940069
0
LINE
8
Layer 1
10
172.726015
20
252.940069
11
170.153046
21
252.940069
0
LINE
8
Layer 1
10
170.153046
20
252.940069
11
170.153046
21
257.257633
0
LINE
8
Layer 1
10
170.153046
20
257.257633
11
150.991950
21
257.257633
0
LINE
8
Layer 1
10
150.991950
20
257.257633
11
145.352503
21
257.257633
0
LINE
8
Layer 1
10
145.352503
20
257.257633
11
34.874534
21
257.257633
0
LINE
8
Layer 1
10
34.874534
20
257.257633
11
29.229919
21
257.257633
0
LINE
8
Layer 1
10
29.229919
20
257.257633
11
10.074090
21
257.257653
0
LINE
8
Layer 1
10
60.096860
20
254.257839
11
80.105970
21
254.257839
0
LINE
8
Layer 1
10
80.105970
20
254.257839
11
80.107971
21
251.368608
0
LINE
8
Layer 1
10
80.107971
20
251.368608
11
60.098861
21
251.359319
0
LINE
8
Layer 1
10
60.098861
20
251.359319
11
60.096860
21
254.257839
0
LINE
8
Layer 1
10
100.115588
20
254.257839
11
120.124178
21
254.257839
0
LINE
8
Layer 1
10
120.124178
20
254.257839
11
120.120076
21
251.353105
0
LINE
8
Layer 1
10
120.120076
20
251.353105
11
100.114070
21
251.354006
0
LINE
8
Layer 1
10
100.114070
20
251.354006
11
100.115588
21
254.257839
0
LINE
8
Layer 1
10
90.503259
20
234.257517
11
110.503064
21
234.257517
0
LINE
8
Layer 1
10
110.503064
20
234.257517
11
110.503064
21
218.257468
0
LINE
8
Layer 1
10
110.503064
20
218.257468
11
90.503259
21
218.257468
0
LINE
8
Layer 1
10
90.503259
20
218.257468
11
90.503259
21
234.257517
0
LINE
8
Layer 1
10
126.503115
20
234.257517
11
151.503128
21
234.257517
0
LINE
8
Layer 1
10
151.503128
20
234.257517
11
151.503128
21
212.257837
0
LINE
8
Layer 1
10
151.503128
20
212.257837
11
126.503115
21
212.257837
0
LINE
8
Layer 1
10
126.503115
20
212.257837
11
126.503115
21
234.257517
0
LINE
8
Layer 1
10
165.053718
20
214.259265
11
165.832430
21
214.102168
0
LINE
8
Layer 1
10
165.832430
20
214.102168
11
166.468325
21
213.673478
0
LINE
8
Layer 1
10
166.468325
20
213.673478
11
166.897015
21
213.037583
0
LINE
8
Layer 1
10
166.897015
20
213.037583
11
167.054112
21
212.258871
0
LINE
8
Layer 1
10
167.054112
20
212.258871
11
166.896867
21
211.480325
0
LINE
8
Layer 1
10
166.896867
20
211.480325
11
166.468143
21
210.844597
0
LINE
8
Layer 1
10
166.468143
20
210.844597
11
165.832305
21
210.416038
0
LINE
8
Layer 1
10
165.832305
20
210.416038
11
165.053718
21
210.258994
0
LINE
8
Layer 1
10
165.053718
20
210.258994
11
164.275296
21
210.416186
0
LINE
8
Layer 1
10
164.275296
20
210.416186
11
163.639626
21
210.844780
0
LINE
8
Layer 1
10
163.639626
20
210.844780
11
163.211033
21
211.480450
0
LINE
8
Layer 1
10
163.211033
20
211.480450
11
163.053840
21
212.258871
0
LINE
8
Layer 1
10
163.053840
20
212.258871
11
163.210884
21
213.037458
0
LINE
8
Layer 1
10
163.210884
20
213.037458
11
163.639444
21
213.673296
0
LINE
8
Layer 1
10
163.639444
20
213.673296
11
164.275172
21
214.102019
0
LINE
8
Layer 1
10
164.275172
20
214.102019
11
165.053718
21
214.259265
0
LINE
8
Layer 1
10
165.053718
20
214.259265
11
165.053718
21
214.259265
0
LINE
8
Layer 1
10
9.497550
20
310.714098
11
9.497550
21
306.396015
0
LINE
8
Layer 1
10
9.497550
20
306.396015
11
9.497040
21
306.396015
0
LINE
8
Layer 1
10
9.497040
20
306.396015
11
9.497040
21
306.384651
0
LINE
8
Layer 1
10
9.497040
20
306.384651
11
6.837247
21
306.401201
0
LINE
8
Layer 1
10
6.837247
20
306.401201
11
6.845250
21
308.187655
0
LINE
8
Layer 1
10
6.845250
20
308.187655
11
5.054239
21
307.956952
0
LINE
8
Layer 1
10
5.054239
20
307.956952
11
3.511616
21
307.327069
0
LINE
8
Layer 1
10
3.511616
20
307.327069
11
2.430072
21
306.391348
0
LINE
8
Layer 1
10
2.430072
20
306.391348
11
2.128669
21
305.837969
0
LINE
8
Layer 1
10
2.128669
20
305.837969
11
2.022293
21
305.243133
0
LINE
8
Layer 1
10
2.022293
20
305.243133
11
2.112718
21
304.647922
0
LINE
8
Layer 1
10
2.112718
20
304.647922
11
2.372062
21
304.093549
0
LINE
8
Layer 1
10
2.372062
20
304.093549
11
3.325919
21
303.154809
0
LINE
8
Layer 1
10
3.325919
20
303.154809
11
4.740684
21
302.521906
0
LINE
8
Layer 1
10
4.740684
20
302.521906
11
6.473179
21
302.289829
0
LINE
8
Layer 1
10
6.473179
20
302.289829
11
13.951268
21
302.289378
0
LINE
8
Layer 1
10
13.951268
20
302.289378
11
19.249566
21
302.418364
0
LINE
8
Layer 1
10
19.249566
20
302.418364
11
23.939633
21
302.775536
0
LINE
8
Layer 1
10
23.939633
20
302.775536
11
27.954115
21
303.316217
0
LINE
8
Layer 1
10
27.954115
20
303.316217
11
31.225660
21
303.995730
0
LINE
8
Layer 1
10
31.225660
20
303.995730
11
31.563105
21
304.073763
0
LINE
8
Layer 1
10
31.563105
20
304.073763
11
34.235294
21
304.632387
0
LINE
8
Layer 1
10
34.235294
20
304.632387
11
35.157208
21
304.787931
0
LINE
8
Layer 1
10
35.157208
20
304.787931
11
38.302744
21
305.220982
0
LINE
8
Layer 1
10
38.302744
20
305.220982
11
39.551248
21
305.354307
0
LINE
8
Layer 1
10
39.551248
20
305.354307
11
43.116408
21
305.636974
0
LINE
8
Layer 1
10
43.116408
20
305.636974
11
44.715793
21
305.720175
0
LINE
8
Layer 1
10
44.715793
20
305.720175
11
48.706758
21
305.822492
0
LINE
8
Layer 1
10
48.706758
20
305.822492
11
49.563552
21
305.833856
0
LINE
8
Layer 1
10
49.563552
20
305.833856
11
49.776460
21
305.819380
0
LINE
8
Layer 1
10
49.776460
20
305.819380
11
49.943376
21
305.797148
0
LINE
8
Layer 1
10
49.943376
20
305.797148
11
50.384179
21
305.668477
0
LINE
8
Layer 1
10
50.384179
20
305.668477
11
50.401187
21
305.661217
0
LINE
8
Layer 1
10
50.401187
20
305.661217
11
50.792377
21
305.400768
0
LINE
8
Layer 1
10
50.792377
20
305.400768
11
50.794378
21
305.400317
0
LINE
8
Layer 1
10
50.794378
20
305.400317
11
50.795378
21
305.399867
0
LINE
8
Layer 1
10
50.795378
20
305.399867
11
51.001573
21
305.082575
0
LINE
8
Layer 1
10
51.001573
20
305.082575
11
51.022783
21
305.012808
0
LINE
8
Layer 1
10
51.022783
20
305.012808
11
51.047094
21
304.850546
0
LINE
8
Layer 1
10
51.047094
20
304.850546
11
51.030086
21
304.736340
0
LINE
8
Layer 1
10
51.030086
20
304.736340
11
50.979963
21
304.573041
0
LINE
8
Layer 1
10
50.979963
20
304.573041
11
50.892623
21
304.421115
0
LINE
8
Layer 1
10
50.892623
20
304.421115
11
50.664728
21
304.196837
0
LINE
8
Layer 1
10
50.664728
20
304.196837
11
50.617707
21
304.159092
0
LINE
8
Layer 1
10
50.617707
20
304.159092
11
50.152175
21
303.954044
0
LINE
8
Layer 1
10
50.152175
20
303.954044
11
49.585212
21
303.878491
0
LINE
8
Layer 1
10
49.585212
20
303.878491
11
48.634365
21
303.855221
0
LINE
8
Layer 1
10
48.634365
20
303.855221
11
45.118818
21
303.769441
0
LINE
8
Layer 1
10
45.118818
20
303.769441
11
43.519953
21
303.690894
0
LINE
8
Layer 1
10
43.519953
20
303.690894
11
40.297411
21
303.445431
0
LINE
8
Layer 1
10
40.297411
20
303.445431
11
38.991541
21
303.310555
0
LINE
8
Layer 1
10
38.991541
20
303.310555
11
36.073379
21
302.917296
0
LINE
8
Layer 1
10
36.073379
20
302.917296
11
35.212443
21
302.774154
0
LINE
8
Layer 1
10
35.212443
20
302.774154
11
32.601243
21
302.232067
0
LINE
8
Layer 1
10
32.601243
20
302.232067
11
32.312370
21
302.172121
0
LINE
8
Layer 1
10
32.312370
20
302.172121
11
28.917132
21
301.462651
0
LINE
8
Layer 1
10
28.917132
20
301.462651
11
24.669955
21
300.877712
0
LINE
8
Layer 1
10
24.669955
20
300.877712
11
19.659382
21
300.480446
0
LINE
8
Layer 1
10
19.659382
20
300.480446
11
13.973958
21
300.333992
0
LINE
8
Layer 1
10
13.973958
20
300.333992
11
9.497230
21
300.333992
0
LINE
8
Layer 1
10
9.497230
20
300.333992
11
9.497230
21
300.322087
0
LINE
8
Layer 1
10
9.497230
20
300.322087
11
6.474160
21
300.322087
0
LINE
8
Layer 1
10
6.474160
20
300.322087
11
6.474160
21
295.200841
0
LINE
8
Layer 1
10
6.474160
20
295.200841
11
6.660654
21
294.587615
0
LINE
8
Layer 1
10
6.660654
20
294.587615
11
7.169312
21
294.086779
0
LINE
8
Layer 1
10
7.169312
20
294.086779
11
7.923900
21
293.749071
0
LINE
8
Layer 1
10
7.923900
20
293.749071
11
8.848181
21
293.625226
0
LINE
8
Layer 1
10
8.848181
20
293.625226
11
9.522551
21
293.625226
0
LINE
8
Layer 1
10
9.522551
20
293.625226
11
9.522551
21
277.412787
0
LINE
8
Layer 1
10
9.522551
20
277.412787
11
9.497740
21
277.412787
0
LINE
8
Layer 1
10
9.497740
20
277.412787
11
9.497740
21
277.400900
0
LINE
8
Layer 1
10
9.497740
20
277.400900
11
8.847651
21
277.400900
0
LINE
8
Layer 1
10
8.847651
20
277.400900
11
7.923451
21
277.276987
0
LINE
8
Layer 1
10
7.923451
20
277.276987
11
7.169042
21
276.939163
0
LINE
8
Layer 1
10
7.169042
20
276.939163
11
6.660562
21
276.438305
0
LINE
8
Layer 1
10
6.660562
20
276.438305
11
6.474150
21
275.825286
0
LINE
8
Layer 1
10
6.474150
20
275.825286
11
6.474150
21
268.736319
0
LINE
8
Layer 1
10
6.474150
20
268.736319
11
4.741274
21
268.504147
0
LINE
8
Layer 1
10
4.741274
20
268.504147
11
3.326551
21
267.871043
0
LINE
8
Layer 1
10
3.326551
20
267.871043
11
2.372906
21
266.932120
0
LINE
8
Layer 1
10
2.372906
20
266.932120
11
2.113652
21
266.377701
0
LINE
8
Layer 1
10
2.113652
20
266.377701
11
2.023263
21
265.782495
0
LINE
8
Layer 1
10
2.023263
20
265.782495
11
2.230855
21
265.197886
0
LINE
8
Layer 1
10
2.230855
20
265.197886
11
2.778143
21
264.675787
0
LINE
8
Layer 1
10
2.778143
20
264.675787
11
4.438879
21
263.869404
0
LINE
8
Layer 1
10
4.438879
20
263.869404
11
6.099615
21
263.463915
0
LINE
8
Layer 1
10
6.099615
20
263.463915
11
6.646903
21
263.442935
0
LINE
8
Layer 1
10
6.646903
20
263.442935
11
6.854495
21
263.559893
0
LINE
8
Layer 1
10
6.854495
20
263.559893
11
6.854495
21
264.646648
0
LINE
8
Layer 1
10
6.854495
20
264.646648
11
9.497740
21
264.640961
0
LINE
8
Layer 1
10
9.497740
20
264.640961
11
9.497740
21
260.714071
0
LINE
8
Layer 1
10
9.497740
20
260.714071
11
14.601817
21
260.714071
0
LINE
8
Layer 1
10
14.601817
20
260.714071
11
17.501900
21
260.714071
0
LINE
8
Layer 1
10
17.501900
20
260.714071
11
19.501780
21
260.714071
0
LINE
8
Layer 1
10
19.501780
20
260.714071
11
19.501780
21
266.714221
0
LINE
8
Layer 1
10
19.501780
20
266.714221
11
41.512120
21
266.714221
0
LINE
8
Layer 1
10
41.512120
20
266.714221
11
41.512120
21
260.714073
0
LINE
8
Layer 1
10
41.512120
20
260.714073
11
161.567787
21
260.714073
0
LINE
8
Layer 1
10
161.567787
20
260.714073
11
164.467350
21
260.714073
0
LINE
8
Layer 1
10
164.467350
20
260.714073
11
169.571430
21
260.714073
0
LINE
8
Layer 1
10
169.571430
20
260.714073
11
169.571430
21
264.652849
0
LINE
8
Layer 1
10
169.571430
20
264.652849
11
172.223980
21
264.644579
0
LINE
8
Layer 1
10
172.223980
20
264.644579
11
172.223980
21
263.628104
0
LINE
8
Layer 1
10
172.223980
20
263.628104
11
172.973691
21
263.624481
0
LINE
8
Layer 1
10
172.973691
20
263.624481
11
174.623057
21
263.999368
0
LINE
8
Layer 1
10
174.623057
20
263.999368
11
176.272423
21
264.730191
0
LINE
8
Layer 1
10
176.272423
20
264.730191
11
176.815964
21
265.222025
0
LINE
8
Layer 1
10
176.815964
20
265.222025
11
177.022135
21
265.794379
0
LINE
8
Layer 1
10
177.022135
20
265.794379
11
176.931746
21
266.389585
0
LINE
8
Layer 1
10
176.931746
20
266.389585
11
176.672492
21
266.944004
0
LINE
8
Layer 1
10
176.672492
20
266.944004
11
175.718845
21
267.882926
0
LINE
8
Layer 1
10
175.718845
20
267.882926
11
174.304121
21
268.516030
0
LINE
8
Layer 1
10
174.304121
20
268.516030
11
172.571245
21
268.748202
0
LINE
8
Layer 1
10
172.571245
20
268.748202
11
172.571245
21
275.837172
0
LINE
8
Layer 1
10
172.571245
20
275.837172
11
172.384753
21
276.450190
0
LINE
8
Layer 1
10
172.384753
20
276.450190
11
171.876097
21
276.951048
0
LINE
8
Layer 1
10
171.876097
20
276.951048
11
171.121512
21
277.288872
0
LINE
8
Layer 1
10
171.121512
20
277.288872
11
170.197231
21
277.412785
0
LINE
8
Layer 1
10
170.197231
20
277.412785
11
169.577114
21
277.412785
0
LINE
8
Layer 1
10
169.577114
20
277.412785
11
169.577114
21
293.637625
0
LINE
8
Layer 1
10
169.577114
20
293.637625
11
170.197231
21
293.637625
0
LINE
8
Layer 1
10
170.197231
20
293.637625
11
171.121512
21
293.761470
0
LINE
8
Layer 1
10
171.121512
20
293.761470
11
171.876097
21
294.099180
0
LINE
8
Layer 1
10
171.876097
20
294.099180
11
172.384753
21
294.600016
0
LINE
8
Layer 1
10
172.384753
20
294.600016
11
172.571245
21
295.213240
0
LINE
8
Layer 1
10
172.571245
20
295.213240
11
172.571245
21
300.332822
0
LINE
8
Layer 1
10
172.571245
20
300.332822
11
169.570913
21
300.332822
0
LINE
8
Layer 1
10
169.570913
20
300.332822
11
165.095219
21
300.332822
0
LINE
8
Layer 1
10
165.095219
20
300.332822
11
165.092618
21
300.332822
0
LINE
8
Layer 1
10
165.092618
20
300.332822
11
159.440252
21
300.478034
0
LINE
8
Layer 1
10
159.440252
20
300.478034
11
159.383926
21
300.481190
0
LINE
8
Layer 1
10
159.383926
20
300.481190
11
154.414722
21
300.875482
0
LINE
8
Layer 1
10
154.414722
20
300.875482
11
154.396124
21
300.876835
0
LINE
8
Layer 1
10
154.396124
20
300.876835
11
154.390421
21
300.877286
0
LINE
8
Layer 1
10
154.390421
20
300.877286
11
150.154505
21
301.460712
0
LINE
8
Layer 1
10
150.154505
20
301.460712
11
150.151904
21
301.461163
0
LINE
8
Layer 1
10
150.151904
20
301.461163
11
150.148803
21
301.461614
0
LINE
8
Layer 1
10
150.148803
20
301.461614
11
146.756763
21
302.170613
0
LINE
8
Layer 1
10
146.756763
20
302.170613
11
146.753662
21
302.171064
0
LINE
8
Layer 1
10
146.753662
20
302.171064
11
146.747959
21
302.172417
0
LINE
8
Layer 1
10
146.747959
20
302.172417
11
143.489244
21
302.848861
0
LINE
8
Layer 1
10
143.489244
20
302.848861
11
143.486142
21
302.849312
0
LINE
8
Layer 1
10
143.486142
20
302.849312
11
143.483041
21
302.849763
0
LINE
8
Layer 1
10
143.483041
20
302.849763
11
139.495690
21
303.387197
0
LINE
8
Layer 1
10
139.495690
20
303.387197
11
139.468817
21
303.390353
0
LINE
8
Layer 1
10
139.468817
20
303.390353
11
139.452280
21
303.391706
0
LINE
8
Layer 1
10
139.452280
20
303.391706
11
134.772356
21
303.747650
0
LINE
8
Layer 1
10
134.772356
20
303.747650
11
129.487001
21
303.876432
0
LINE
8
Layer 1
10
129.487001
20
303.876432
11
129.483899
21
303.876432
0
LINE
8
Layer 1
10
129.483899
20
303.876432
11
128.906674
21
303.953428
0
LINE
8
Layer 1
10
128.906674
20
303.953428
11
128.254101
21
304.309847
0
LINE
8
Layer 1
10
128.254101
20
304.309847
11
128.000786
21
304.860350
0
LINE
8
Layer 1
10
128.000786
20
304.860350
11
128.117154
21
305.243168
0
LINE
8
Layer 1
10
128.117154
20
305.243168
11
128.434694
21
305.555937
0
LINE
8
Layer 1
10
128.434694
20
305.555937
11
128.906058
21
305.766891
0
LINE
8
Layer 1
10
128.906058
20
305.766891
11
129.483899
21
305.844268
0
LINE
8
Layer 1
10
129.483899
20
305.844268
11
135.169357
21
305.697812
0
LINE
8
Layer 1
10
135.169357
20
305.697812
11
140.179883
21
305.300630
0
LINE
8
Layer 1
10
140.179883
20
305.300630
11
144.402879
21
304.719270
0
LINE
8
Layer 1
10
144.402879
20
304.719270
11
144.451971
21
304.711017
0
LINE
8
Layer 1
10
144.451971
20
304.711017
11
147.818173
21
304.007186
0
LINE
8
Layer 1
10
147.818173
20
304.007186
11
147.821775
21
304.006735
0
LINE
8
Layer 1
10
147.821775
20
304.006735
11
151.090308
21
303.327711
0
LINE
8
Layer 1
10
151.090308
20
303.327711
11
151.093409
21
303.327260
0
LINE
8
Layer 1
10
151.093409
20
303.327260
11
151.096010
21
303.326809
0
LINE
8
Layer 1
10
151.096010
20
303.326809
11
155.098865
21
302.787311
0
LINE
8
Layer 1
10
155.098865
20
302.787311
11
155.105068
21
302.786860
0
LINE
8
Layer 1
10
155.105068
20
302.786860
11
155.125217
21
302.785507
0
LINE
8
Layer 1
10
155.125217
20
302.785507
11
159.772993
21
302.431526
0
LINE
8
Layer 1
10
159.772993
20
302.431526
11
159.828809
21
302.428820
0
LINE
8
Layer 1
10
159.828809
20
302.428820
11
165.056911
21
302.301178
0
LINE
8
Layer 1
10
165.056911
20
302.301178
11
165.096189
21
302.300276
0
LINE
8
Layer 1
10
165.096189
20
302.300276
11
169.570850
21
302.300727
0
LINE
8
Layer 1
10
169.570850
20
302.300727
11
169.570850
21
302.301178
0
LINE
8
Layer 1
10
169.570850
20
302.301178
11
172.571182
21
302.301178
0
LINE
8
Layer 1
10
172.571182
20
302.301178
11
174.303679
21
302.533256
0
LINE
8
Layer 1
10
174.303679
20
302.533256
11
175.718445
21
303.166161
0
LINE
8
Layer 1
10
175.718445
20
303.166161
11
176.672302
21
304.104902
0
LINE
8
Layer 1
10
176.672302
20
304.104902
11
176.931646
21
304.659274
0
LINE
8
Layer 1
10
176.931646
20
304.659274
11
177.022072
21
305.254483
0
LINE
8
Layer 1
10
177.022072
20
305.254483
11
176.913920
21
305.850029
0
LINE
8
Layer 1
10
176.913920
20
305.850029
11
176.607833
21
306.405281
0
LINE
8
Layer 1
10
176.607833
20
306.405281
11
175.512077
21
307.346686
0
LINE
8
Layer 1
10
175.512077
20
307.346686
11
173.955243
21
307.982254
0
LINE
8
Layer 1
10
173.955243
20
307.982254
11
172.157771
21
308.215542
0
LINE
8
Layer 1
10
172.157771
20
308.215542
11
172.149467
21
306.396015
0
LINE
8
Layer 1
10
172.149467
20
306.396015
11
169.576499
21
306.396015
0
LINE
8
Layer 1
10
169.576499
20
306.396015
11
169.576499
21
310.713579
0
LINE
8
Layer 1
10
169.576499
20
310.713579
11
150.415402
21
310.713579
0
LINE
8
Layer 1
10
150.415402
20
310.713579
11
144.775955
21
310.713579
0
LINE
8
Layer 1
10
144.775955
20
310.713579
11
34.297993
21
310.713579
0
LINE
8
Layer 1
10
34.297993
20
310.713579
11
28.653378
21
310.713579
0
LINE
8
Layer 1
10
28.653378
20
310.713579
11
9.497550
21
310.714098
0
LINE
8
Layer 1
10
59.520320
20
307.714280
11
79.529430
21
307.714280
0
LINE
8
Layer 1
10
79.529430
20
307.714280
11
79.531431
21
304.825054
0
LINE
8
Layer 1
10
79.531431
20
304.825054
11
59.522331
21
304.815764
0
LINE
8
Layer 1
10
59.522331
20
304.815764
11
59.520320
21
307.714280
0
LINE
8
Layer 1
10
99.539040
20
307.714280
11
119.547630
21
307.714280
0
LINE
8
Layer 1
10
119.547630
20
307.714280
11
119.543528
21
304.809550
0
LINE
8
Layer 1
10
119.543528
20
304.809550
11
99.537521
21
304.810452
0
LINE
8
Layer 1
10
99.537521
20
304.810452
11
99.539040
21
307.714280
0
LINE
8
Layer 1
10
164.477169
20
267.715710
11
165.255881
21
267.558613
0
LINE
8
Layer 1
10
165.255881
20
267.558613
11
165.891776
21
267.129923
0
LINE
8
Layer 1
10
165.891776
20
267.129923
11
166.320466
21
266.494028
0
LINE
8
Layer 1
10
166.320466
20
266.494028
11
166.477563
21
265.715316
0
LINE
8
Layer 1
10
166.477563
20
265.715316
11
166.320318
21
264.936769
0
LINE
8
Layer 1
10
166.320318
20
264.936769
11
165.891594
21
264.301042
0
LINE
8
Layer 1
10
165.891594
20
264.301042
11
165.255756
21
263.872483
0
LINE
8
Layer 1
10
165.255756
20
263.872483
11
164.477169
21
263.715439
0
LINE
8
Layer 1
10
164.477169
20
263.715439
11
163.698748
21
263.872632
0
LINE
8
Layer 1
10
163.698748
20
263.872632
11
163.063078
21
264.301225
0
LINE
8
Layer 1
10
163.063078
20
264.301225
11
162.634485
21
264.936895
0
LINE
8
Layer 1
10
162.634485
20
264.936895
11
162.477292
21
265.715316
0
LINE
8
Layer 1
10
162.477292
20
265.715316
11
162.634336
21
266.493902
0
LINE
8
Layer 1
10
162.634336
20
266.493902
11
163.062896
21
267.129740
0
LINE
8
Layer 1
10
163.062896
20
267.129740
11
163.698623
21
267.558465
0
LINE
8
Layer 1
10
163.698623
20
267.558465
11
164.477169
21
267.715710
0
LINE
8
Layer 1
10
164.477169
20
267.715710
11
164.477169
21
267.715710
0
LINE
8
Layer 1
10
15.820840
20
418.527650
11
15.820840
21
415.527310
0
LINE
8
Layer 1
10
15.820840
20
415.527310
11
5.820420
21
415.527310
0
LINE
8
Layer 1
10
5.820420
20
415.527310
11
5.820420
21
375.527689
0
LINE
8
Layer 1
10
5.820420
20
375.527689
11
2.820600
21
375.527689
0
LINE
8
Layer 1
10
2.820600
20
375.527689
11
2.820600
21
355.527359
0
LINE
8
Layer 1
10
2.820600
20
355.527359
11
5.820420
21
355.527359
0
LINE
8
Layer 1
10
5.820420
20
355.527359
11
5.820420
21
315.527734
0
LINE
8
Layer 1
10
5.820420
20
315.527734
11
15.883370
21
315.527734
0
LINE
8
Layer 1
10
15.883370
20
315.527734
11
15.883370
21
312.527400
0
LINE
8
Layer 1
10
15.883370
20
312.527400
11
35.883180
21
312.527400
0
LINE
8
Layer 1
10
35.883180
20
312.527400
11
35.883180
21
315.527734
0
LINE
8
Layer 1
10
35.883180
20
315.527734
11
142.874587
21
315.527734
0
LINE
8
Layer 1
10
142.874587
20
315.527734
11
152.820750
21
315.527734
0
LINE
8
Layer 1
10
152.820750
20
315.527734
11
155.820566
21
315.527734
0
LINE
8
Layer 1
10
155.820566
20
315.527734
11
158.402838
21
315.527734
0
LINE
8
Layer 1
10
158.402838
20
315.527734
11
159.320611
21
315.527734
0
LINE
8
Layer 1
10
159.320611
20
315.527734
11
159.320611
21
312.527400
0
LINE
8
Layer 1
10
159.320611
20
312.527400
11
162.314227
21
312.527400
0
LINE
8
Layer 1
10
162.314227
20
312.527400
11
162.314227
21
315.527734
0
LINE
8
Layer 1
10
162.314227
20
315.527734
11
165.820473
21
315.527734
0
LINE
8
Layer 1
10
165.820473
20
315.527734
11
165.820473
21
415.527310
0
LINE
8
Layer 1
10
165.820473
20
415.527310
11
162.314227
21
415.527310
0
LINE
8
Layer 1
10
162.314227
20
415.527310
11
162.314227
21
418.527650
0
LINE
8
Layer 1
10
162.314227
20
418.527650
11
159.320611
21
418.527650
0
LINE
8
Layer 1
10
159.320611
20
418.527650
11
159.320611
21
415.527310
0
LINE
8
Layer 1
10
159.320611
20
415.527310
11
155.820566
21
415.527310
0
LINE
8
Layer 1
10
155.820566
20
415.527310
11
152.820750
21
415.527310
0
LINE
8
Layer 1
10
152.820750
20
415.527310
11
144.079164
21
415.527310
0
LINE
8
Layer 1
10
144.079164
20
415.527310
11
35.820660
21
415.527310
0
LINE
8
Layer 1
10
35.820660
20
415.527310
11
35.820660
21
418.527650
0
LINE
8
Layer 1
10
35.820660
20
418.527650
11
15.820840
21
418.527650
0
LINE
8
Layer 1
10
55.569840
20
392.643957
11
56.820410
21
390.479748
0
LINE
8
Layer 1
10
56.820410
20
390.479748
11
55.571390
21
388.313989
0
LINE
8
Layer 1
10
55.571390
20
388.313989
11
53.071800
21
388.312989
0
LINE
8
Layer 1
10
53.071800
20
388.312989
11
51.820710
21
390.477715
0
LINE
8
Layer 1
10
51.820710
20
390.477715
11
53.069730
21
392.642957
0
LINE
8
Layer 1
10
53.069730
20
392.642957
11
55.569840
21
392.643957
0
LINE
8
Layer 1
10
60.908530
20
389.957816
11
62.159620
21
387.793090
0
LINE
8
Layer 1
10
62.159620
20
387.793090
11
60.910600
21
385.627331
0
LINE
8
Layer 1
10
60.910600
20
385.627331
11
58.410490
21
385.626331
0
LINE
8
Layer 1
10
58.410490
20
385.626331
11
57.159920
21
387.791057
0
LINE
8
Layer 1
10
57.159920
20
387.791057
11
58.408940
21
389.956816
0
LINE
8
Layer 1
10
58.408940
20
389.956816
11
60.908530
21
389.957816
0
LINE
8
Layer 1
10
50.327260
20
389.874096
11
51.577830
21
387.709370
0
LINE
8
Layer 1
10
51.577830
20
387.709370
11
50.328810
21
385.543611
0
LINE
8
Layer 1
10
50.328810
20
385.543611
11
47.828710
21
385.542611
0
LINE
8
Layer 1
10
47.828710
20
385.542611
11
46.578140
21
387.707336
0
LINE
8
Layer 1
10
46.578140
20
387.707336
11
47.827160
21
389.873096
0
LINE
8
Layer 1
10
47.827160
20
389.873096
11
50.327260
21
389.874096
0
LINE
8
Layer 1
10
66.062740
20
387.233947
11
67.313820
21
385.069221
0
LINE
8
Layer 1
10
67.313820
20
385.069221
11
66.064800
21
382.903979
0
LINE
8
Layer 1
10
66.064800
20
382.903979
11
63.564700
21
382.902979
0
LINE
8
Layer 1
10
63.564700
20
382.902979
11
62.313610
21
385.067188
0
LINE
8
Layer 1
10
62.313610
20
385.067188
11
63.562630
21
387.232948
0
LINE
8
Layer 1
10
63.562630
20
387.232948
11
66.062740
21
387.233947
0
LINE
8
Layer 1
10
45.307930
20
387.152297
11
46.558500
21
384.988088
0
LINE
8
Layer 1
10
46.558500
20
384.988088
11
45.309480
21
382.822329
0
LINE
8
Layer 1
10
45.309480
20
382.822329
11
42.809380
21
382.821329
0
LINE
8
Layer 1
10
42.809380
20
382.821329
11
41.558810
21
384.986054
0
LINE
8
Layer 1
10
41.558810
20
384.986054
11
42.807830
21
387.151297
0
LINE
8
Layer 1
10
42.807830
20
387.151297
11
45.307930
21
387.152297
0
LINE
8
Layer 1
10
55.569840
20
387.143997
11
56.820410
21
384.979788
0
LINE
8
Layer 1
10
56.820410
20
384.979788
11
55.571390
21
382.814029
0
LINE
8
Layer 1
10
55.571390
20
382.814029
11
53.071800
21
382.813029
0
LINE
8
Layer 1
10
53.071800
20
382.813029
11
51.820710
21
384.977755
0
LINE
8
Layer 1
10
51.820710
20
384.977755
11
53.069730
21
387.142998
0
LINE
8
Layer 1
10
53.069730
20
387.142998
11
55.569840
21
387.143997
0
LINE
8
Layer 1
10
60.908530
20
384.457856
11
62.159620
21
382.293131
0
LINE
8
Layer 1
10
62.159620
20
382.293131
11
60.910600
21
380.127371
0
LINE
8
Layer 1
10
60.910600
20
380.127371
11
58.410490
21
380.126371
0
LINE
8
Layer 1
10
58.410490
20
380.126371
11
57.159920
21
382.291096
0
LINE
8
Layer 1
10
57.159920
20
382.291096
11
58.408940
21
384.456856
0
LINE
8
Layer 1
10
58.408940
20
384.456856
11
60.908530
21
384.457856
0
LINE
8
Layer 1
10
50.327260
20
384.374136
11
51.577830
21
382.209411
0
LINE
8
Layer 1
10
51.577830
20
382.209411
11
50.328810
21
380.043651
0
LINE
8
Layer 1
10
50.328810
20
380.043651
11
47.828710
21
380.042651
0
LINE
8
Layer 1
10
47.828710
20
380.042651
11
46.578140
21
382.207377
0
LINE
8
Layer 1
10
46.578140
20
382.207377
11
47.827160
21
384.373136
0
LINE
8
Layer 1
10
47.827160
20
384.373136
11
50.327260
21
384.374136
0
LINE
8
Layer 1
10
40.089130
20
384.144176
11
41.340220
21
381.979451
0
LINE
8
Layer 1
10
41.340220
20
381.979451
11
40.091200
21
379.814208
0
LINE
8
Layer 1
10
40.091200
20
379.814208
11
37.591090
21
379.813208
0
LINE
8
Layer 1
10
37.591090
20
379.813208
11
36.340000
21
381.977417
0
LINE
8
Layer 1
10
36.340000
20
381.977417
11
37.589020
21
384.143176
0
LINE
8
Layer 1
10
37.589020
20
384.143176
11
40.089130
21
384.144176
0
LINE
8
Layer 1
10
71.024710
20
384.144176
11
72.275280
21
381.979451
0
LINE
8
Layer 1
10
72.275280
20
381.979451
11
71.026260
21
379.814208
0
LINE
8
Layer 1
10
71.026260
20
379.814208
11
68.526670
21
379.813208
0
LINE
8
Layer 1
10
68.526670
20
379.813208
11
67.275580
21
381.977417
0
LINE
8
Layer 1
10
67.275580
20
381.977417
11
68.524600
21
384.143176
0
LINE
8
Layer 1
10
68.524600
20
384.143176
11
71.024710
21
384.144176
0
LINE
8
Layer 1
10
66.062740
20
381.733988
11
67.313820
21
379.569262
0
LINE
8
Layer 1
10
67.313820
20
379.569262
11
66.064800
21
377.403503
0
LINE
8
Layer 1
10
66.064800
20
377.403503
11
63.564700
21
377.402503
0
LINE
8
Layer 1
10
63.564700
20
377.402503
11
62.313610
21
379.567229
0
LINE
8
Layer 1
10
62.313610
20
379.567229
11
63.562630
21
381.732988
0
LINE
8
Layer 1
10
63.562630
20
381.732988
11
66.062740
21
381.733988
0
LINE
8
Layer 1
10
45.307930
20
381.652338
11
46.558500
21
379.488129
0
LINE
8
Layer 1
10
46.558500
20
379.488129
11
45.309480
21
377.322370
0
LINE
8
Layer 1
10
45.309480
20
377.322370
11
42.809380
21
377.321370
0
LINE
8
Layer 1
10
42.809380
20
377.321370
11
41.558810
21
379.485579
0
LINE
8
Layer 1
10
41.558810
20
379.485579
11
42.807830
21
381.651338
0
LINE
8
Layer 1
10
42.807830
20
381.651338
11
45.307930
21
381.652338
0
LINE
8
Layer 1
10
55.569840
20
381.644038
11
56.820410
21
379.479829
0
LINE
8
Layer 1
10
56.820410
20
379.479829
11
55.571390
21
377.314069
0
LINE
8
Layer 1
10
55.571390
20
377.314069
11
53.071800
21
377.313069
0
LINE
8
Layer 1
10
53.071800
20
377.313069
11
51.820710
21
379.477278
0
LINE
8
Layer 1
10
51.820710
20
379.477278
11
53.069730
21
381.643037
0
LINE
8
Layer 1
10
53.069730
20
381.643037
11
55.569840
21
381.644038
0
LINE
8
Layer 1
10
35.094600
20
381.543785
11
36.345170
21
379.379060
0
LINE
8
Layer 1
10
36.345170
20
379.379060
11
35.096150
21
377.213300
0
LINE
8
Layer 1
10
35.096150
20
377.213300
11
32.596050
21
377.212300
0
LINE
8
Layer 1
10
32.596050
20
377.212300
11
31.345480
21
379.377025
0
LINE
8
Layer 1
10
31.345480
20
379.377025
11
32.594500
21
381.542268
0
LINE
8
Layer 1
10
32.594500
20
381.542268
11
35.094600
21
381.543785
0
LINE
8
Layer 1
10
76.032155
20
381.451285
11
77.282725
21
379.286560
0
LINE
8
Layer 1
10
77.282725
20
379.286560
11
76.033705
21
377.121317
0
LINE
8
Layer 1
10
76.033705
20
377.121317
11
73.533600
21
377.120317
0
LINE
8
Layer 1
10
73.533600
20
377.120317
11
72.283030
21
379.284526
0
LINE
8
Layer 1
10
72.283030
20
379.284526
11
73.532050
21
381.450285
0
LINE
8
Layer 1
10
73.532050
20
381.450285
11
76.032155
21
381.451285
0
LINE
8
Layer 1
10
60.908530
20
378.957898
11
62.159620
21
376.793172
0
LINE
8
Layer 1
10
62.159620
20
376.793172
11
60.910600
21
374.627413
0
LINE
8
Layer 1
10
60.910600
20
374.627413
11
58.410490
21
374.626413
0
LINE
8
Layer 1
10
58.410490
20
374.626413
11
57.159920
21
376.791139
0
LINE
8
Layer 1
10
57.159920
20
376.791139
11
58.408940
21
378.956381
0
LINE
8
Layer 1
10
58.408940
20
378.956381
11
60.908530
21
378.957898
0
LINE
8
Layer 1
10
50.327260
20
378.873668
11
51.577830
21
376.709459
0
LINE
8
Layer 1
10
51.577830
20
376.709459
11
50.328810
21
374.543700
0
LINE
8
Layer 1
10
50.328810
20
374.543700
11
47.828710
21
374.542700
0
LINE
8
Layer 1
10
47.828710
20
374.542700
11
46.578140
21
376.707426
0
LINE
8
Layer 1
10
46.578140
20
376.707426
11
47.827160
21
378.872668
0
LINE
8
Layer 1
10
47.827160
20
378.872668
11
50.327260
21
378.873668
0
LINE
8
Layer 1
10
40.089130
20
378.644225
11
41.340220
21
376.479499
0
LINE
8
Layer 1
10
41.340220
20
376.479499
11
40.091200
21
374.313740
0
LINE
8
Layer 1
10
40.091200
20
374.313740
11
37.591090
21
374.312740
0
LINE
8
Layer 1
10
37.591090
20
374.312740
11
36.340000
21
376.477466
0
LINE
8
Layer 1
10
36.340000
20
376.477466
11
37.589020
21
378.643225
0
LINE
8
Layer 1
10
37.589020
20
378.643225
11
40.089130
21
378.644225
0
LINE
8
Layer 1
10
71.024710
20
378.644225
11
72.275280
21
376.479499
0
LINE
8
Layer 1
10
72.275280
20
376.479499
11
71.026260
21
374.313740
0
LINE
8
Layer 1
10
71.026260
20
374.313740
11
68.526670
21
374.312740
0
LINE
8
Layer 1
10
68.526670
20
374.312740
11
67.275580
21
376.477466
0
LINE
8
Layer 1
10
67.275580
20
376.477466
11
68.524600
21
378.643225
0
LINE
8
Layer 1
10
68.524600
20
378.643225
11
71.024710
21
378.644225
0
LINE
8
Layer 1
10
66.062740
20
376.234036
11
67.313820
21
374.069310
0
LINE
8
Layer 1
10
67.313820
20
374.069310
11
66.064800
21
371.903551
0
LINE
8
Layer 1
10
66.064800
20
371.903551
11
63.564700
21
371.902551
0
LINE
8
Layer 1
10
63.564700
20
371.902551
11
62.313610
21
374.067277
0
LINE
8
Layer 1
10
62.313610
20
374.067277
11
63.562630
21
376.233036
0
LINE
8
Layer 1
10
63.562630
20
376.233036
11
66.062740
21
376.234036
0
LINE
8
Layer 1
10
45.307930
20
376.152386
11
46.558500
21
373.987660
0
LINE
8
Layer 1
10
46.558500
20
373.987660
11
45.309480
21
371.822418
0
LINE
8
Layer 1
10
45.309480
20
371.822418
11
42.809380
21
371.821418
0
LINE
8
Layer 1
10
42.809380
20
371.821418
11
41.558810
21
373.985627
0
LINE
8
Layer 1
10
41.558810
20
373.985627
11
42.807830
21
376.151387
0
LINE
8
Layer 1
10
42.807830
20
376.151387
11
45.307930
21
376.152386
0
LINE
8
Layer 1
10
55.569840
20
376.144086
11
56.820410
21
373.979360
0
LINE
8
Layer 1
10
56.820410
20
373.979360
11
55.571390
21
371.814118
0
LINE
8
Layer 1
10
55.571390
20
371.814118
11
53.071800
21
371.813118
0
LINE
8
Layer 1
10
53.071800
20
371.813118
11
51.820710
21
373.977327
0
LINE
8
Layer 1
10
51.820710
20
373.977327
11
53.069730
21
376.143086
0
LINE
8
Layer 1
10
53.069730
20
376.143086
11
55.569840
21
376.144086
0
LINE
8
Layer 1
10
35.094600
20
376.043317
11
36.345170
21
373.879108
0
LINE
8
Layer 1
10
36.345170
20
373.879108
11
35.096150
21
371.713349
0
LINE
8
Layer 1
10
35.096150
20
371.713349
11
32.596050
21
371.712349
0
LINE
8
Layer 1
10
32.596050
20
371.712349
11
31.345480
21
373.877075
0
LINE
8
Layer 1
10
31.345480
20
373.877075
11
32.594500
21
376.042317
0
LINE
8
Layer 1
10
32.594500
20
376.042317
11
35.094600
21
376.043317
0
LINE
8
Layer 1
10
76.032155
20
375.951337
11
77.282725
21
373.786611
0
LINE
8
Layer 1
10
77.282725
20
373.786611
11
76.033705
21
371.621369
0
LINE
8
Layer 1
10
76.033705
20
371.621369
11
73.533600
21
371.619769
0
LINE
8
Layer 1
10
73.533600
20
371.619769
11
72.283030
21
373.784495
0
LINE
8
Layer 1
10
72.283030
20
373.784495
11
73.532050
21
375.950254
0
LINE
8
Layer 1
10
73.532050
20
375.950254
11
76.032155
21
375.951337
0
LINE
8
Layer 1
10
60.908530
20
373.457432
11
62.159620
21
371.293223
0
LINE
8
Layer 1
10
62.159620
20
371.293223
11
60.910600
21
369.127464
0
LINE
8
Layer 1
10
60.910600
20
369.127464
11
58.410490
21
369.126464
0
LINE
8
Layer 1
10
58.410490
20
369.126464
11
57.159920
21
371.291190
0
LINE
8
Layer 1
10
57.159920
20
371.291190
11
58.408940
21
373.456433
0
LINE
8
Layer 1
10
58.408940
20
373.456433
11
60.908530
21
373.457432
0
LINE
8
Layer 1
10
50.327260
20
373.373712
11
51.577830
21
371.209503
0
LINE
8
Layer 1
10
51.577830
20
371.209503
11
50.328810
21
369.043744
0
LINE
8
Layer 1
10
50.328810
20
369.043744
11
47.828710
21
369.042744
0
LINE
8
Layer 1
10
47.828710
20
369.042744
11
46.578140
21
371.207469
0
LINE
8
Layer 1
10
46.578140
20
371.207469
11
47.827160
21
373.372712
0
LINE
8
Layer 1
10
47.827160
20
373.372712
11
50.327260
21
373.373712
0
LINE
8
Layer 1
10
40.089130
20
373.144269
11
41.340220
21
370.979543
0
LINE
8
Layer 1
10
41.340220
20
370.979543
11
40.091200
21
368.813784
0
LINE
8
Layer 1
10
40.091200
20
368.813784
11
37.591090
21
368.812784
0
LINE
8
Layer 1
10
37.591090
20
368.812784
11
36.340000
21
370.977510
0
LINE
8
Layer 1
10
36.340000
20
370.977510
11
37.589020
21
373.143269
0
LINE
8
Layer 1
10
37.589020
20
373.143269
11
40.089130
21
373.144269
0
LINE
8
Layer 1
10
71.024710
20
373.144269
11
72.275280
21
370.979543
0
LINE
8
Layer 1
10
72.275280
20
370.979543
11
71.026260
21
368.813784
0
LINE
8
Layer 1
10
71.026260
20
368.813784
11
68.526670
21
368.812784
0
LINE
8
Layer 1
10
68.526670
20
368.812784
11
67.275580
21
370.977510
0
LINE
8
Layer 1
10
67.275580
20
370.977510
11
68.524600
21
373.143269
0
LINE
8
Layer 1
10
68.524600
20
373.143269
11
71.024710
21
373.144269
0
LINE
8
Layer 1
10
66.062740
20
370.733563
11
67.313820
21
368.569354
0
LINE
8
Layer 1
10
67.313820
20
368.569354
11
66.064800
21
366.403595
0
LINE
8
Layer 1
10
66.064800
20
366.403595
11
63.564700
21
366.402595
0
LINE
8
Layer 1
10
63.564700
20
366.402595
11
62.313610
21
368.567320
0
LINE
8
Layer 1
10
62.313610
20
368.567320
11
63.562630
21
370.732563
0
LINE
8
Layer 1
10
63.562630
20
370.732563
11
66.062740
21
370.733563
0
LINE
8
Layer 1
10
45.307930
20
370.652433
11
46.558500
21
368.487708
0
LINE
8
Layer 1
10
46.558500
20
368.487708
11
45.309480
21
366.322465
0
LINE
8
Layer 1
10
45.309480
20
366.322465
11
42.809380
21
366.320965
0
LINE
8
Layer 1
10
42.809380
20
366.320965
11
41.558810
21
368.485691
0
LINE
8
Layer 1
10
41.558810
20
368.485691
11
42.807830
21
370.651450
0
LINE
8
Layer 1
10
42.807830
20
370.651450
11
45.307930
21
370.652433
0
LINE
8
Layer 1
10
55.569840
20
370.644133
11
56.820410
21
368.479407
0
LINE
8
Layer 1
10
56.820410
20
368.479407
11
55.571390
21
366.314165
0
LINE
8
Layer 1
10
55.571390
20
366.314165
11
53.071800
21
366.312665
0
LINE
8
Layer 1
10
53.071800
20
366.312665
11
51.820710
21
368.477390
0
LINE
8
Layer 1
10
51.820710
20
368.477390
11
53.069730
21
370.643150
0
LINE
8
Layer 1
10
53.069730
20
370.643150
11
55.569840
21
370.644133
0
LINE
8
Layer 1
10
35.094600
20
370.543364
11
36.345170
21
368.379155
0
LINE
8
Layer 1
10
36.345170
20
368.379155
11
35.096150
21
366.213396
0
LINE
8
Layer 1
10
35.096150
20
366.213396
11
32.596050
21
366.212396
0
LINE
8
Layer 1
10
32.596050
20
366.212396
11
31.345480
21
368.377122
0
LINE
8
Layer 1
10
31.345480
20
368.377122
11
32.594500
21
370.542365
0
LINE
8
Layer 1
10
32.594500
20
370.542365
11
35.094600
21
370.543364
0
LINE
8
Layer 1
10
76.032155
20
370.451384
11
77.282725
21
368.286658
0
LINE
8
Layer 1
10
77.282725
20
368.286658
11
76.033705
21
366.120899
0
LINE
8
Layer 1
10
76.033705
20
366.120899
11
73.533600
21
366.119899
0
LINE
8
Layer 1
10
73.533600
20
366.119899
11
72.283030
21
368.284624
0
LINE
8
Layer 1
10
72.283030
20
368.284624
11
73.532050
21
370.450384
0
LINE
8
Layer 1
10
73.532050
20
370.450384
11
76.032155
21
370.451384
0
LINE
8
Layer 1
10
60.908530
20
367.957479
11
62.159620
21
365.793270
0
LINE
8
Layer 1
10
62.159620
20
365.793270
11
60.910600
21
363.627511
0
LINE
8
Layer 1
10
60.910600
20
363.627511
11
58.410490
21
363.626511
0
LINE
8
Layer 1
10
58.410490
20
363.626511
11
57.159920
21
365.790720
0
LINE
8
Layer 1
10
57.159920
20
365.790720
11
58.408940
21
367.956479
0
LINE
8
Layer 1
10
58.408940
20
367.956479
11
60.908530
21
367.957479
0
LINE
8
Layer 1
10
50.327260
20
367.873769
11
51.577830
21
365.709560
0
LINE
8
Layer 1
10
51.577830
20
365.709560
11
50.328810
21
363.543800
0
LINE
8
Layer 1
10
50.328810
20
363.543800
11
47.828710
21
363.542800
0
LINE
8
Layer 1
10
47.828710
20
363.542800
11
46.578140
21
365.707009
0
LINE
8
Layer 1
10
46.578140
20
365.707009
11
47.827160
21
367.872768
0
LINE
8
Layer 1
10
47.827160
20
367.872768
11
50.327260
21
367.873769
0
LINE
8
Layer 1
10
40.089130
20
367.643809
11
41.340220
21
365.479600
0
LINE
8
Layer 1
10
41.340220
20
365.479600
11
40.091200
21
363.313840
0
LINE
8
Layer 1
10
40.091200
20
363.313840
11
37.591090
21
363.312840
0
LINE
8
Layer 1
10
37.591090
20
363.312840
11
36.340000
21
365.477565
0
LINE
8
Layer 1
10
36.340000
20
365.477565
11
37.589020
21
367.642808
0
LINE
8
Layer 1
10
37.589020
20
367.642808
11
40.089130
21
367.643809
0
LINE
8
Layer 1
10
71.024710
20
367.643809
11
72.275280
21
365.479600
0
LINE
8
Layer 1
10
72.275280
20
365.479600
11
71.026260
21
363.313840
0
LINE
8
Layer 1
10
71.026260
20
363.313840
11
68.526670
21
363.312840
0
LINE
8
Layer 1
10
68.526670
20
363.312840
11
67.275580
21
365.477565
0
LINE
8
Layer 1
10
67.275580
20
365.477565
11
68.524600
21
367.642808
0
LINE
8
Layer 1
10
68.524600
20
367.642808
11
71.024710
21
367.643809
0
LINE
8
Layer 1
10
66.062740
20
365.233620
11
67.313820
21
363.069411
0
LINE
8
Layer 1
10
67.313820
20
363.069411
11
66.064800
21
360.903651
0
LINE
8
Layer 1
10
66.064800
20
360.903651
11
63.564700
21
360.902651
0
LINE
8
Layer 1
10
63.564700
20
360.902651
11
62.313610
21
363.067377
0
LINE
8
Layer 1
10
62.313610
20
363.067377
11
63.562630
21
365.232619
0
LINE
8
Layer 1
10
63.562630
20
365.232619
11
66.062740
21
365.233620
0
LINE
8
Layer 1
10
45.307930
20
365.152490
11
46.558500
21
362.987764
0
LINE
8
Layer 1
10
46.558500
20
362.987764
11
45.309480
21
360.822005
0
LINE
8
Layer 1
10
45.309480
20
360.822005
11
42.809380
21
360.821005
0
LINE
8
Layer 1
10
42.809380
20
360.821005
11
41.558810
21
362.985731
0
LINE
8
Layer 1
10
41.558810
20
362.985731
11
42.807830
21
365.151490
0
LINE
8
Layer 1
10
42.807830
20
365.151490
11
45.307930
21
365.152490
0
LINE
8
Layer 1
10
55.569840
20
365.144190
11
56.820410
21
362.979465
0
LINE
8
Layer 1
10
56.820410
20
362.979465
11
55.571390
21
360.813705
0
LINE
8
Layer 1
10
55.571390
20
360.813705
11
53.071800
21
360.812705
0
LINE
8
Layer 1
10
53.071800
20
360.812705
11
51.820710
21
362.977431
0
LINE
8
Layer 1
10
51.820710
20
362.977431
11
53.069730
21
365.143190
0
LINE
8
Layer 1
10
53.069730
20
365.143190
11
55.569840
21
365.144190
0
LINE
8
Layer 1
10
35.094600
20
365.043421
11
36.345170
21
362.878696
0
LINE
8
Layer 1
10
36.345170
20
362.878696
11
35.096150
21
360.713453
0
LINE
8
Layer 1
10
35.096150
20
360.713453
11
32.596050
21
360.712453
0
LINE
8
Layer 1
10
32.596050
20
360.712453
11
31.345480
21
362.876662
0
LINE
8
Layer 1
10
31.345480
20
362.876662
11
32.594500
21
365.042421
0
LINE
8
Layer 1
10
32.594500
20
365.042421
11
35.094600
21
365.043421
0
LINE
8
Layer 1
10
76.032155
20
364.951441
11
77.282725
21
362.786716
0
LINE
8
Layer 1
10
77.282725
20
362.786716
11
76.033705
21
360.620956
0
LINE
8
Layer 1
10
76.033705
20
360.620956
11
73.533600
21
360.619956
0
LINE
8
Layer 1
10
73.533600
20
360.619956
11
72.283030
21
362.784682
0
LINE
8
Layer 1
10
72.283030
20
362.784682
11
73.532050
21
364.949924
0
LINE
8
Layer 1
10
73.532050
20
364.949924
11
76.032155
21
364.951441
0
LINE
8
Layer 1
10
60.908530
20
362.457537
11
62.159620
21
360.292811
0
LINE
8
Layer 1
10
62.159620
20
360.292811
11
60.910600
21
358.127569
0
LINE
8
Layer 1
10
60.910600
20
358.127569
11
58.410490
21
358.126569
0
LINE
8
Layer 1
10
58.410490
20
358.126569
11
57.159920
21
360.290778
0
LINE
8
Layer 1
10
57.159920
20
360.290778
11
58.408940
21
362.456537
0
LINE
8
Layer 1
10
58.408940
20
362.456537
11
60.908530
21
362.457537
0
LINE
8
Layer 1
10
50.327260
20
362.373817
11
51.577830
21
360.209091
0
LINE
8
Layer 1
10
51.577830
20
360.209091
11
50.328810
21
358.043849
0
LINE
8
Layer 1
10
50.328810
20
358.043849
11
47.828710
21
358.042849
0
LINE
8
Layer 1
10
47.828710
20
358.042849
11
46.578140
21
360.207058
0
LINE
8
Layer 1
10
46.578140
20
360.207058
11
47.827160
21
362.372817
0
LINE
8
Layer 1
10
47.827160
20
362.372817
11
50.327260
21
362.373817
0
LINE
8
Layer 1
10
40.089130
20
362.143857
11
41.340220
21
359.979648
0
LINE
8
Layer 1
10
41.340220
20
359.979648
11
40.091200
21
357.813889
0
LINE
8
Layer 1
10
40.091200
20
357.813889
11
37.591090
21
357.812889
0
LINE
8
Layer 1
10
37.591090
20
357.812889
11
36.340000
21
359.977615
0
LINE
8
Layer 1
10
36.340000
20
359.977615
11
37.589020
21
362.142857
0
LINE
8
Layer 1
10
37.589020
20
362.142857
11
40.089130
21
362.143857
0
LINE
8
Layer 1
10
71.024710
20
362.143857
11
72.275280
21
359.979648
0
LINE
8
Layer 1
10
72.275280
20
359.979648
11
71.026260
21
357.813889
0
LINE
8
Layer 1
10
71.026260
20
357.813889
11
68.526670
21
357.812889
0
LINE
8
Layer 1
10
68.526670
20
357.812889
11
67.275580
21
359.977615
0
LINE
8
Layer 1
10
67.275580
20
359.977615
11
68.524600
21
362.142857
0
LINE
8
Layer 1
10
68.524600
20
362.142857
11
71.024710
21
362.143857
0
LINE
8
Layer 1
10
66.062740
20
359.733668
11
67.313820
21
357.569459
0
LINE
8
Layer 1
10
67.313820
20
357.569459
11
66.064800
21
355.403700
0
LINE
8
Layer 1
10
66.064800
20
355.403700
11
63.564700
21
355.402700
0
LINE
8
Layer 1
10
63.564700
20
355.402700
11
62.313610
21
357.566909
0
LINE
8
Layer 1
10
62.313610
20
357.566909
11
63.562630
21
359.732669
0
LINE
8
Layer 1
10
63.562630
20
359.732669
11
66.062740
21
359.733668
0
LINE
8
Layer 1
10
45.307930
20
359.652538
11
46.558500
21
357.487812
0
LINE
8
Layer 1
10
46.558500
20
357.487812
11
45.309480
21
355.322053
0
LINE
8
Layer 1
10
45.309480
20
355.322053
11
42.809380
21
355.321053
0
LINE
8
Layer 1
10
42.809380
20
355.321053
11
41.558810
21
357.485779
0
LINE
8
Layer 1
10
41.558810
20
357.485779
11
42.807830
21
359.651022
0
LINE
8
Layer 1
10
42.807830
20
359.651022
11
45.307930
21
359.652538
0
LINE
8
Layer 1
10
55.569840
20
359.644238
11
56.820410
21
357.479512
0
LINE
8
Layer 1
10
56.820410
20
357.479512
11
55.571390
21
355.313753
0
LINE
8
Layer 1
10
55.571390
20
355.313753
11
53.071800
21
355.312753
0
LINE
8
Layer 1
10
53.071800
20
355.312753
11
51.820710
21
357.477479
0
LINE
8
Layer 1
10
51.820710
20
357.477479
11
53.069730
21
359.642722
0
LINE
8
Layer 1
10
53.069730
20
359.642722
11
55.569840
21
359.644238
0
LINE
8
Layer 1
10
35.094600
20
359.543469
11
36.345170
21
357.378743
0
LINE
8
Layer 1
10
36.345170
20
357.378743
11
35.096150
21
355.213501
0
LINE
8
Layer 1
10
35.096150
20
355.213501
11
32.596050
21
355.212501
0
LINE
8
Layer 1
10
32.596050
20
355.212501
11
31.345480
21
357.376710
0
LINE
8
Layer 1
10
31.345480
20
357.376710
11
32.594500
21
359.542469
0
LINE
8
Layer 1
10
32.594500
20
359.542469
11
35.094600
21
359.543469
0
LINE
8
Layer 1
10
76.032155
20
359.450969
11
77.282725
21
357.286760
0
LINE
8
Layer 1
10
77.282725
20
357.286760
11
76.033705
21
355.121001
0
LINE
8
Layer 1
10
76.033705
20
355.121001
11
73.533600
21
355.120001
0
LINE
8
Layer 1
10
73.533600
20
355.120001
11
72.283030
21
357.284727
0
LINE
8
Layer 1
10
72.283030
20
357.284727
11
73.532050
21
359.449969
0
LINE
8
Layer 1
10
73.532050
20
359.449969
11
76.032155
21
359.450969
0
LINE
8
Layer 1
10
60.908530
20
356.957581
11
62.159620
21
354.792855
0
LINE
8
Layer 1
10
62.159620
20
354.792855
11
60.910600
21
352.627613
0
LINE
8
Layer 1
10
60.910600
20
352.627613
11
58.410490
21
352.626613
0
LINE
8
Layer 1
10
58.410490
20
352.626613
11
57.159920
21
354.790822
0
LINE
8
Layer 1
10
57.159920
20
354.790822
11
58.408940
21
356.956582
0
LINE
8
Layer 1
10
58.408940
20
356.956582
11
60.908530
21
356.957581
0
LINE
8
Layer 1
10
50.327260
20
356.873861
11
51.577830
21
354.709136
0
LINE
8
Layer 1
10
51.577830
20
354.709136
11
50.328810
21
352.543893
0
LINE
8
Layer 1
10
50.328810
20
352.543893
11
47.828710
21
352.542293
0
LINE
8
Layer 1
10
47.828710
20
352.542293
11
46.578140
21
354.707018
0
LINE
8
Layer 1
10
46.578140
20
354.707018
11
47.827160
21
356.872778
0
LINE
8
Layer 1
10
47.827160
20
356.872778
11
50.327260
21
356.873861
0
LINE
8
Layer 1
10
40.089130
20
356.643901
11
41.340220
21
354.479692
0
LINE
8
Layer 1
10
41.340220
20
354.479692
11
40.091200
21
352.313933
0
LINE
8
Layer 1
10
40.091200
20
352.313933
11
37.591090
21
352.312933
0
LINE
8
Layer 1
10
37.591090
20
352.312933
11
36.340000
21
354.477142
0
LINE
8
Layer 1
10
36.340000
20
354.477142
11
37.589020
21
356.642902
0
LINE
8
Layer 1
10
37.589020
20
356.642902
11
40.089130
21
356.643901
0
LINE
8
Layer 1
10
71.024710
20
356.643901
11
72.275280
21
354.479692
0
LINE
8
Layer 1
10
72.275280
20
354.479692
11
71.026260
21
352.313933
0
LINE
8
Layer 1
10
71.026260
20
352.313933
11
68.526670
21
352.312933
0
LINE
8
Layer 1
10
68.526670
20
352.312933
11
67.275580
21
354.477142
0
LINE
8
Layer 1
10
67.275580
20
354.477142
11
68.524600
21
356.642902
0
LINE
8
Layer 1
10
68.524600
20
356.642902
11
71.024710
21
356.643901
0
LINE
8
Layer 1
10
66.062740
20
354.233712
11
67.313820
21
352.068987
0
LINE
8
Layer 1
10
67.313820
20
352.068987
11
66.064800
21
349.903744
0
LINE
8
Layer 1
10
66.064800
20
349.903744
11
63.564700
21
349.902744
0
LINE
8
Layer 1
10
63.564700
20
349.902744
11
62.313610
21
352.066953
0
LINE
8
Layer 1
10
62.313610
20
352.066953
11
63.562630
21
354.232712
0
LINE
8
Layer 1
10
63.562630
20
354.232712
11
66.062740
21
354.233712
0
LINE
8
Layer 1
10
45.307930
20
354.152062
11
46.558500
21
351.987853
0
LINE
8
Layer 1
10
46.558500
20
351.987853
11
45.309480
21
349.822093
0
LINE
8
Layer 1
10
45.309480
20
349.822093
11
42.809380
21
349.821093
0
LINE
8
Layer 1
10
42.809380
20
349.821093
11
41.558810
21
351.985819
0
LINE
8
Layer 1
10
41.558810
20
351.985819
11
42.807830
21
354.151061
0
LINE
8
Layer 1
10
42.807830
20
354.151061
11
45.307930
21
354.152062
0
LINE
8
Layer 1
10
55.569840
20
354.143762
11
56.820410
21
351.979553
0
LINE
8
Layer 1
10
56.820410
20
351.979553
11
55.571390
21
349.813794
0
LINE
8
Layer 1
10
55.571390
20
349.813794
11
53.071800
21
349.812794
0
LINE
8
Layer 1
10
53.071800
20
349.812794
11
51.820710
21
351.977519
0
LINE
8
Layer 1
10
51.820710
20
351.977519
11
53.069730
21
354.142762
0
LINE
8
Layer 1
10
53.069730
20
354.142762
11
55.569840
21
354.143762
0
LINE
8
Layer 1
10
35.094600
20
354.043510
11
36.345170
21
351.878784
0
LINE
8
Layer 1
10
36.345170
20
351.878784
11
35.096150
21
349.713542
0
LINE
8
Layer 1
10
35.096150
20
349.713542
11
32.596050
21
349.712042
0
LINE
8
Layer 1
10
32.596050
20
349.712042
11
31.345480
21
351.876767
0
LINE
8
Layer 1
10
31.345480
20
351.876767
11
32.594500
21
354.042527
0
LINE
8
Layer 1
10
32.594500
20
354.042527
11
35.094600
21
354.043510
0
LINE
8
Layer 1
10
76.032155
20
353.951010
11
77.282725
21
351.786801
0
LINE
8
Layer 1
10
77.282725
20
351.786801
11
76.033705
21
349.621042
0
LINE
8
Layer 1
10
76.033705
20
349.621042
11
73.533600
21
349.620042
0
LINE
8
Layer 1
10
73.533600
20
349.620042
11
72.283030
21
351.784251
0
LINE
8
Layer 1
10
72.283030
20
351.784251
11
73.532050
21
353.950011
0
LINE
8
Layer 1
10
73.532050
20
353.950011
11
76.032155
21
353.951010
0
LINE
8
Layer 1
10
60.908530
20
351.457622
11
62.159620
21
349.292897
0
LINE
8
Layer 1
10
62.159620
20
349.292897
11
60.910600
21
347.127137
0
LINE
8
Layer 1
10
60.910600
20
347.127137
11
58.410490
21
347.126137
0
LINE
8
Layer 1
10
58.410490
20
347.126137
11
57.159920
21
349.290863
0
LINE
8
Layer 1
10
57.159920
20
349.290863
11
58.408940
21
351.456622
0
LINE
8
Layer 1
10
58.408940
20
351.456622
11
60.908530
21
351.457622
0
LINE
8
Layer 1
10
50.327260
20
351.373902
11
51.577830
21
349.209176
0
LINE
8
Layer 1
10
51.577830
20
349.209176
11
50.328810
21
347.043417
0
LINE
8
Layer 1
10
50.328810
20
347.043417
11
47.828710
21
347.042417
0
LINE
8
Layer 1
10
47.828710
20
347.042417
11
46.578140
21
349.207143
0
LINE
8
Layer 1
10
46.578140
20
349.207143
11
47.827160
21
351.372902
0
LINE
8
Layer 1
10
47.827160
20
351.372902
11
50.327260
21
351.373902
0
LINE
8
Layer 1
10
40.089130
20
351.143941
11
41.340220
21
348.979216
0
LINE
8
Layer 1
10
41.340220
20
348.979216
11
40.091200
21
346.813973
0
LINE
8
Layer 1
10
40.091200
20
346.813973
11
37.591090
21
346.812973
0
LINE
8
Layer 1
10
37.591090
20
346.812973
11
36.340000
21
348.977182
0
LINE
8
Layer 1
10
36.340000
20
348.977182
11
37.589020
21
351.142941
0
LINE
8
Layer 1
10
37.589020
20
351.142941
11
40.089130
21
351.143941
0
LINE
8
Layer 1
10
71.024710
20
351.143941
11
72.275280
21
348.979216
0
LINE
8
Layer 1
10
72.275280
20
348.979216
11
71.026260
21
346.813973
0
LINE
8
Layer 1
10
71.026260
20
346.813973
11
68.526670
21
346.812973
0
LINE
8
Layer 1
10
68.526670
20
346.812973
11
67.275580
21
348.977182
0
LINE
8
Layer 1
10
67.275580
20
348.977182
11
68.524600
21
351.142941
0
LINE
8
Layer 1
10
68.524600
20
351.142941
11
71.024710
21
351.143941
0
LINE
8
Layer 1
10
66.062740
20
348.733753
11
67.313820
21
346.569027
0
LINE
8
Layer 1
10
67.313820
20
346.569027
11
66.064800
21
344.403784
0
LINE
8
Layer 1
10
66.064800
20
344.403784
11
63.564700
21
344.402184
0
LINE
8
Layer 1
10
63.564700
20
344.402184
11
62.313610
21
346.566910
0
LINE
8
Layer 1
10
62.313610
20
346.566910
11
63.562630
21
348.732669
0
LINE
8
Layer 1
10
63.562630
20
348.732669
11
66.062740
21
348.733753
0
LINE
8
Layer 1
10
45.307930
20
348.652103
11
46.558500
21
346.487894
0
LINE
8
Layer 1
10
46.558500
20
346.487894
11
45.309480
21
344.322135
0
LINE
8
Layer 1
10
45.309480
20
344.322135
11
42.809380
21
344.321135
0
LINE
8
Layer 1
10
42.809380
20
344.321135
11
41.558810
21
346.485344
0
LINE
8
Layer 1
10
41.558810
20
346.485344
11
42.807830
21
348.651103
0
LINE
8
Layer 1
10
42.807830
20
348.651103
11
45.307930
21
348.652103
0
LINE
8
Layer 1
10
55.569840
20
348.643803
11
56.820410
21
346.479594
0
LINE
8
Layer 1
10
56.820410
20
346.479594
11
55.571390
21
344.313834
0
LINE
8
Layer 1
10
55.571390
20
344.313834
11
53.071800
21
344.312834
0
LINE
8
Layer 1
10
53.071800
20
344.312834
11
51.820710
21
346.477043
0
LINE
8
Layer 1
10
51.820710
20
346.477043
11
53.069730
21
348.642802
0
LINE
8
Layer 1
10
53.069730
20
348.642802
11
55.569840
21
348.643803
0
LINE
8
Layer 1
10
60.908530
20
345.957662
11
62.159620
21
343.792936
0
LINE
8
Layer 1
10
62.159620
20
343.792936
11
60.910600
21
341.627177
0
LINE
8
Layer 1
10
60.910600
20
341.627177
11
58.410490
21
341.626177
0
LINE
8
Layer 1
10
58.410490
20
341.626177
11
57.159920
21
343.790903
0
LINE
8
Layer 1
10
57.159920
20
343.790903
11
58.408940
21
345.956662
0
LINE
8
Layer 1
10
58.408940
20
345.956662
11
60.908530
21
345.957662
0
LINE
8
Layer 1
10
50.327260
20
345.873942
11
51.577830
21
343.709216
0
LINE
8
Layer 1
10
51.577830
20
343.709216
11
50.328810
21
341.543457
0
LINE
8
Layer 1
10
50.328810
20
341.543457
11
47.828710
21
341.542457
0
LINE
8
Layer 1
10
47.828710
20
341.542457
11
46.578140
21
343.707183
0
LINE
8
Layer 1
10
46.578140
20
343.707183
11
47.827160
21
345.872426
0
LINE
8
Layer 1
10
47.827160
20
345.872426
11
50.327260
21
345.873942
0
LINE
8
Layer 1
10
55.569840
20
343.143876
11
56.820410
21
340.979150
0
LINE
8
Layer 1
10
56.820410
20
340.979150
11
55.571390
21
338.813908
0
LINE
8
Layer 1
10
55.571390
20
338.813908
11
53.071800
21
338.812908
0
LINE
8
Layer 1
10
53.071800
20
338.812908
11
51.820710
21
340.977117
0
LINE
8
Layer 1
10
51.820710
20
340.977117
11
53.069730
21
343.142876
0
LINE
8
Layer 1
10
53.069730
20
343.142876
11
55.569840
21
343.143876
 0 
ENDSEC
 0 
EOF