M48
; DRILL file {KiCad 7.0.5} date Fri Jun 16 10:57:45 2023
; FORMAT={-:-/ absolute / inch / decimal}
; #@! TF.CreationDate,2023-06-16T10:57:45+02:00
; #@! TF.GenerationSoftware,Kicad,Pcbnew,7.0.5
; #@! TF.FileFunction,Plated,1,2,PTH
FMAT,2
INCH
; #@! TA.AperFunction,Plated,PTH,ViaDrill
T1C0.0157
; #@! TA.AperFunction,Plated,PTH,ComponentDrill
T2C0.0315
%
G90
G05
T1
X4.2717Y-3.6732
X4.4173Y-3.626
X4.9Y-2.4884
X4.9Y-2.9
X4.9833Y-3.2426
X5.0Y-2.9
X5.0826Y-3.2436
X5.1Y-3.1
X5.125Y-4.655
X5.225Y-4.655
X6.25Y-2.4803
X6.2869Y-3.2261
X6.3Y-2.7
X6.3875Y-3.2289
X6.5331Y-4.351
X6.6331Y-4.3453
X7.0866Y-3.622
X7.2323Y-3.622
T2
X5.4689Y-3.4602
X5.4689Y-3.5602
X5.4689Y-3.6602
X5.4689Y-3.7602
X5.4689Y-3.8602
X5.4689Y-3.9602
X5.4689Y-4.0602
X5.4689Y-4.1602
X5.4689Y-4.2602
X5.4689Y-4.3602
X5.4689Y-4.6602
X5.4689Y-4.7602
X5.4689Y-4.8602
X5.4689Y-4.9602
X5.4689Y-5.0602
X5.4689Y-5.1602
X5.4689Y-5.2602
X5.4689Y-5.3602
X5.4689Y-5.4602
X5.4689Y-5.5602
X5.4689Y-5.6602
X5.4689Y-5.7602
X6.0689Y-3.4602
X6.0689Y-3.5602
X6.0689Y-3.6602
X6.0689Y-3.7602
X6.0689Y-3.8602
X6.0689Y-3.9602
X6.0689Y-4.0602
X6.0689Y-4.1602
X6.0689Y-4.2602
X6.0689Y-4.3602
X6.0689Y-4.6602
X6.0689Y-4.7602
X6.0689Y-4.8602
X6.0689Y-4.9602
X6.0689Y-5.0602
X6.0689Y-5.1602
X6.0689Y-5.2602
X6.0689Y-5.3602
X6.0689Y-5.4602
X6.0689Y-5.5602
X6.0689Y-5.6602
X6.0689Y-5.7602
T0
M30
