%TF.GenerationSoftware,KiCad,Pcbnew,7.0.5*%
%TF.CreationDate,2023-06-16T10:57:35+02:00*%
%TF.ProjectId,maglev cv2,6d61676c-6576-4206-9376-322e6b696361,rev?*%
%TF.SameCoordinates,Original*%
%TF.FileFunction,Copper,L1,Top*%
%TF.FilePolarity,Positive*%
%FSLAX46Y46*%
G04 Gerber Fmt 4.6, Leading zero omitted, Abs format (unit mm)*
G04 Created by KiCad (PCBNEW 7.0.5) date 2023-06-16 10:57:35*
%MOMM*%
%LPD*%
G01*
G04 APERTURE LIST*
G04 Aperture macros list*
%AMRoundRect*
0 Rectangle with rounded corners*
0 $1 Rounding radius*
0 $2 $3 $4 $5 $6 $7 $8 $9 X,Y pos of 4 corners*
0 Add a 4 corners polygon primitive as box body*
4,1,4,$2,$3,$4,$5,$6,$7,$8,$9,$2,$3,0*
0 Add four circle primitives for the rounded corners*
1,1,$1+$1,$2,$3*
1,1,$1+$1,$4,$5*
1,1,$1+$1,$6,$7*
1,1,$1+$1,$8,$9*
0 Add four rect primitives between the rounded corners*
20,1,$1+$1,$2,$3,$4,$5,0*
20,1,$1+$1,$4,$5,$6,$7,0*
20,1,$1+$1,$6,$7,$8,$9,0*
20,1,$1+$1,$8,$9,$2,$3,0*%
G04 Aperture macros list end*
%TA.AperFunction,NonConductor*%
%ADD10C,0.200000*%
%TD*%
%TA.AperFunction,SMDPad,CuDef*%
%ADD11RoundRect,0.250000X-0.262500X-0.450000X0.262500X-0.450000X0.262500X0.450000X-0.262500X0.450000X0*%
%TD*%
%TA.AperFunction,SMDPad,CuDef*%
%ADD12RoundRect,0.225000X-0.225000X-0.250000X0.225000X-0.250000X0.225000X0.250000X-0.225000X0.250000X0*%
%TD*%
%TA.AperFunction,ComponentPad*%
%ADD13C,1.308000*%
%TD*%
%TA.AperFunction,ViaPad*%
%ADD14C,0.800000*%
%TD*%
%TA.AperFunction,Conductor*%
%ADD15C,0.700000*%
%TD*%
%TA.AperFunction,Conductor*%
%ADD16C,1.000000*%
%TD*%
%TA.AperFunction,Conductor*%
%ADD17C,1.400000*%
%TD*%
G04 APERTURE END LIST*
D10*
X166194188Y-99250000D02*
X146201140Y-79256952D01*
X146201140Y-79256952D02*
X126208092Y-99250000D01*
D11*
%TO.P,R5,1*%
%TO.N,+3.3V*%
X200087500Y-49750000D03*
%TO.P,R5,2*%
%TO.N,unconnected-(R5-Pad2)*%
X201912500Y-49750000D03*
%TD*%
D12*
%TO.P,C5,1*%
%TO.N,GND*%
X214490000Y-96490000D03*
%TO.P,C5,2*%
%TO.N,+3.3V*%
X216040000Y-96490000D03*
%TD*%
%TO.P,C7,2*%
%TO.N,+3.3V*%
X205245000Y-104140000D03*
%TO.P,C7,1*%
%TO.N,GND*%
X203695000Y-104140000D03*
%TD*%
D11*
%TO.P,R6,1*%
%TO.N,unconnected-(R6-Pad1)*%
X200041600Y-53296000D03*
%TO.P,R6,2*%
%TO.N,+3.3V*%
X201866600Y-53296000D03*
%TD*%
D13*
%TO.P,MC1,0,0_RX1_CRX2_CS1*%
%TO.N,unconnected-(MC1-0_RX1_CRX2_CS1-Pad0)*%
X154149481Y-143769185D03*
%TO.P,MC1,1,1_TX1_CTX2_MISO1*%
%TO.N,unconnected-(MC1-1_TX1_CTX2_MISO1-Pad1)*%
X154149481Y-141229185D03*
%TO.P,MC1,2,2_OUT2*%
%TO.N,Net-(M1-IN2)*%
X154149481Y-138689185D03*
%TO.P,MC1,3,3_LRCLK2*%
%TO.N,Net-(M1-IN1)*%
X154149481Y-136149185D03*
%TO.P,MC1,3.3V_1*%
%TO.N,N/C*%
X154149481Y-110749185D03*
%TO.P,MC1,3.3V_2*%
X138909481Y-141229185D03*
%TO.P,MC1,4,4_BCLK2*%
%TO.N,Net-(M2-IN2)*%
X154149481Y-133609185D03*
%TO.P,MC1,5,5_IN2*%
%TO.N,Net-(M2-IN1)*%
X154149481Y-131069185D03*
%TO.P,MC1,6,6_OUT1D*%
%TO.N,Net-(M3-IN2)*%
X154149481Y-128529185D03*
%TO.P,MC1,7,7_RX2_OUT1A*%
%TO.N,Net-(M3-IN1)*%
X154149481Y-125989185D03*
%TO.P,MC1,8,8_TX2_IN1*%
%TO.N,Net-(M4-IN2)*%
X154149481Y-123449185D03*
%TO.P,MC1,9,9_OUT1C*%
%TO.N,Net-(M4-IN1)*%
X154149481Y-120909185D03*
%TO.P,MC1,10,10_CS_MQSR*%
%TO.N,unconnected-(MC1-10_CS_MQSR-Pad10)*%
X154149481Y-118369185D03*
%TO.P,MC1,15,3V3*%
%TO.N,unconnected-(MC1-3V3-Pad15)*%
X138909481Y-118369185D03*
%TO.P,MC1,16,24_A10_TX6_SCL2*%
%TO.N,unconnected-(MC1-24_A10_TX6_SCL2-Pad16)*%
X138909481Y-120909185D03*
%TO.P,MC1,17,25_A11_RX6_SDA2*%
%TO.N,unconnected-(MC1-25_A11_RX6_SDA2-Pad17)*%
X138909481Y-123449185D03*
%TO.P,MC1,18,18_A4_SDA*%
%TO.N,/I2C*%
X138909481Y-125989185D03*
%TO.P,MC1,19,19_A5_SCL*%
%TO.N,Net-(MC1-19_A5_SCL)*%
X138909481Y-128529185D03*
%TO.P,MC1,20,28_RX7*%
%TO.N,unconnected-(MC1-28_RX7-Pad20)*%
X138909481Y-131069185D03*
%TO.P,MC1,21,29_TX7*%
%TO.N,unconnected-(MC1-29_TX7-Pad21)*%
X138909481Y-133609185D03*
%TO.P,MC1,22,30_CRX3*%
%TO.N,unconnected-(MC1-30_CRX3-Pad22)*%
X138909481Y-136149185D03*
%TO.P,MC1,23,31_CTX3*%
%TO.N,unconnected-(MC1-31_CTX3-Pad23)*%
X138909481Y-138689185D03*
%TO.P,MC1,24,32_OUT1B*%
%TO.N,unconnected-(MC1-32_OUT1B-Pad24)*%
X154149481Y-108209185D03*
%TO.P,MC1,25,33_MCLK2*%
%TO.N,unconnected-(MC1-33_MCLK2-Pad25)*%
X154149481Y-105669185D03*
%TO.P,MC1,26,34_RX8*%
%TO.N,unconnected-(MC1-34_RX8-Pad26)*%
X154149481Y-103129185D03*
%TO.P,MC1,27,35_TX8*%
%TO.N,unconnected-(MC1-35_TX8-Pad27)*%
X154149481Y-100589185D03*
%TO.P,MC1,28,36_CS*%
%TO.N,unconnected-(MC1-36_CS-Pad28)*%
X154149481Y-98049185D03*
%TO.P,MC1,29,37_CS*%
%TO.N,unconnected-(MC1-37_CS-Pad29)*%
X154149481Y-95509185D03*
%TO.P,MC1,30,38_CS1_IN1*%
%TO.N,unconnected-(MC1-38_CS1_IN1-Pad30)*%
X154149481Y-92969185D03*
%TO.P,MC1,31,39_MISO1_OUT1A*%
%TO.N,unconnected-(MC1-39_MISO1_OUT1A-Pad31)*%
X154149481Y-90429185D03*
%TO.P,MC1,32,40_A16*%
%TO.N,unconnected-(MC1-40_A16-Pad32)*%
X154149481Y-87889185D03*
%TO.P,MC1,33,41_A17*%
%TO.N,unconnected-(MC1-41_A17-Pad33)*%
X138909481Y-87889185D03*
%TO.P,MC1,34,GND*%
%TO.N,GND*%
X138909481Y-90429185D03*
%TO.P,MC1,35,13_SCK_LED*%
%TO.N,unconnected-(MC1-13_SCK_LED-Pad35)*%
X138909481Y-92969185D03*
%TO.P,MC1,36,14_A0_TX3_SPDIF_OUT*%
%TO.N,unconnected-(MC1-14_A0_TX3_SPDIF_OUT-Pad36)*%
X138909481Y-95509185D03*
%TO.P,MC1,37,15_A1_RX3_SPDIF_IN*%
%TO.N,unconnected-(MC1-15_A1_RX3_SPDIF_IN-Pad37)*%
X138909481Y-98049185D03*
%TO.P,MC1,38,16_A2_RX4_SCL1*%
%TO.N,unconnected-(MC1-16_A2_RX4_SCL1-Pad38)*%
X138909481Y-100589185D03*
%TO.P,MC1,39,17_A3_TX4_SDA1*%
%TO.N,unconnected-(MC1-17_A3_TX4_SDA1-Pad39)*%
X138909481Y-103129185D03*
%TO.P,MC1,40*%
%TO.N,N/C*%
X138909481Y-105669185D03*
%TO.P,MC1,41*%
X138909481Y-108209185D03*
%TO.P,MC1,GND1*%
X154149481Y-146309185D03*
%TO.P,MC1,GND2*%
X138909481Y-110749185D03*
%TO.P,MC1,GND3*%
X138909481Y-143769185D03*
%TO.P,MC1,VIN*%
X138909481Y-146309185D03*
%TD*%
D12*
%TO.P,C6,1*%
%TO.N,GND*%
X214490000Y-93980000D03*
%TO.P,C6,2*%
%TO.N,+3.3V*%
X216040000Y-93980000D03*
%TD*%
D14*
%TO.N,unconnected-(M3-OUT2-Pad8)*%
X129096820Y-82388580D03*
%TO.N,unconnected-(M3-OUT1-Pad6)*%
X126575754Y-82361177D03*
%TO.N,unconnected-(M1-OUT2-Pad8)*%
X162243701Y-82015144D03*
%TO.N,unconnected-(M1-OUT1-Pad6)*%
X159686098Y-81942069D03*
%TO.N,unconnected-(M2-OUT1-Pad6)*%
X165941021Y-110515532D03*
%TO.N,unconnected-(M2-OUT2-Pad8)*%
X168480355Y-110369383D03*
%TO.N,unconnected-(M4-OUT1-Pad6)*%
X130175000Y-118235976D03*
%TO.N,unconnected-(M4-OUT2-Pad8)*%
X132715000Y-118235976D03*
%TO.N,+3.3V*%
X129540000Y-78740000D03*
X127000000Y-73660000D03*
%TO.N,GND*%
X124460000Y-73660000D03*
X124460000Y-63205969D03*
X160020000Y-68580000D03*
X158750000Y-63000000D03*
X108500000Y-93300000D03*
X180000000Y-92000000D03*
X183700000Y-92000000D03*
X112200000Y-92100000D03*
%TD*%
D15*
%TO.N,+3.3V*%
X127000000Y-73660000D02*
X127000000Y-78740000D01*
X127000000Y-78740000D02*
X129540000Y-78740000D01*
D16*
%TO.N,GND*%
X124460000Y-63205969D02*
X124460000Y-73660000D01*
X158750000Y-67310000D02*
X160020000Y-68580000D01*
X158750000Y-63000000D02*
X158750000Y-67310000D01*
D17*
X112200000Y-92100000D02*
X111000000Y-93300000D01*
X183700000Y-92000000D02*
X180000000Y-92000000D01*
X111000000Y-93300000D02*
X108500000Y-93300000D01*
%TD*%
M02*
