%TF.GenerationSoftware,KiCad,Pcbnew,7.0.5*%
%TF.CreationDate,2023-06-16T10:57:35+02:00*%
%TF.ProjectId,maglev cv2,6d61676c-6576-4206-9376-322e6b696361,rev?*%
%TF.SameCoordinates,Original*%
%TF.FileFunction,Copper,L2,Bot*%
%TF.FilePolarity,Positive*%
%FSLAX46Y46*%
G04 Gerber Fmt 4.6, Leading zero omitted, Abs format (unit mm)*
G04 Created by KiCad (PCBNEW 7.0.5) date 2023-06-16 10:57:35*
%MOMM*%
%LPD*%
G01*
G04 APERTURE LIST*
G04 Aperture macros list*
%AMRoundRect*
0 Rectangle with rounded corners*
0 $1 Rounding radius*
0 $2 $3 $4 $5 $6 $7 $8 $9 X,Y pos of 4 corners*
0 Add a 4 corners polygon primitive as box body*
4,1,4,$2,$3,$4,$5,$6,$7,$8,$9,$2,$3,0*
0 Add four circle primitives for the rounded corners*
1,1,$1+$1,$2,$3*
1,1,$1+$1,$4,$5*
1,1,$1+$1,$6,$7*
1,1,$1+$1,$8,$9*
0 Add four rect primitives between the rounded corners*
20,1,$1+$1,$2,$3,$4,$5,0*
20,1,$1+$1,$4,$5,$6,$7,0*
20,1,$1+$1,$6,$7,$8,$9,0*
20,1,$1+$1,$8,$9,$2,$3,0*%
G04 Aperture macros list end*
%TA.AperFunction,SMDPad,CuDef*%
%ADD10RoundRect,0.250000X-0.550000X1.500000X-0.550000X-1.500000X0.550000X-1.500000X0.550000X1.500000X0*%
%TD*%
%TA.AperFunction,SMDPad,CuDef*%
%ADD11RoundRect,0.150000X0.512500X0.150000X-0.512500X0.150000X-0.512500X-0.150000X0.512500X-0.150000X0*%
%TD*%
%TA.AperFunction,ComponentPad*%
%ADD12C,1.308000*%
%TD*%
%TA.AperFunction,SMDPad,CuDef*%
%ADD13RoundRect,0.225000X-0.250000X0.225000X-0.250000X-0.225000X0.250000X-0.225000X0.250000X0.225000X0*%
%TD*%
%TA.AperFunction,SMDPad,CuDef*%
%ADD14RoundRect,0.250000X0.475000X-0.250000X0.475000X0.250000X-0.475000X0.250000X-0.475000X-0.250000X0*%
%TD*%
%TA.AperFunction,SMDPad,CuDef*%
%ADD15RoundRect,0.250000X-0.625000X0.400000X-0.625000X-0.400000X0.625000X-0.400000X0.625000X0.400000X0*%
%TD*%
%TA.AperFunction,SMDPad,CuDef*%
%ADD16RoundRect,0.150000X0.150000X-0.825000X0.150000X0.825000X-0.150000X0.825000X-0.150000X-0.825000X0*%
%TD*%
%TA.AperFunction,SMDPad,CuDef*%
%ADD17R,3.300000X2.410000*%
%TD*%
%TA.AperFunction,SMDPad,CuDef*%
%ADD18R,3.300000X4.400000*%
%TD*%
%TA.AperFunction,SMDPad,CuDef*%
%ADD19R,3.900000X6.200000*%
%TD*%
%TA.AperFunction,SMDPad,CuDef*%
%ADD20R,1.600200X0.838200*%
%TD*%
%TA.AperFunction,SMDPad,CuDef*%
%ADD21R,1.600200X3.098800*%
%TD*%
%TA.AperFunction,SMDPad,CuDef*%
%ADD22RoundRect,0.250000X-0.475000X0.250000X-0.475000X-0.250000X0.475000X-0.250000X0.475000X0.250000X0*%
%TD*%
%TA.AperFunction,ViaPad*%
%ADD23C,0.800000*%
%TD*%
%TA.AperFunction,Conductor*%
%ADD24C,1.000000*%
%TD*%
%TA.AperFunction,Conductor*%
%ADD25C,0.700000*%
%TD*%
%TA.AperFunction,Conductor*%
%ADD26C,1.400000*%
%TD*%
%TA.AperFunction,Conductor*%
%ADD27C,0.300000*%
%TD*%
%TA.AperFunction,Conductor*%
%ADD28C,0.400000*%
%TD*%
G04 APERTURE END LIST*
D10*
%TO.P,C8,2*%
%TO.N,GND*%
X119040000Y-120049126D03*
%TO.P,C8,1*%
%TO.N,+12V*%
X119040000Y-114649126D03*
%TD*%
D11*
%TO.P,S2,1,SCL/INT*%
%TO.N,Net-(MC1-19_A5_SCL)*%
X135137500Y-110300000D03*
%TO.P,S2,2,GND*%
%TO.N,GND*%
X135137500Y-111250000D03*
%TO.P,S2,3,GND*%
X135137500Y-112200000D03*
%TO.P,S2,4,VDD*%
%TO.N,+3.3V*%
X132862500Y-112200000D03*
%TO.P,S2,5,GND*%
%TO.N,GND*%
X132862500Y-111250000D03*
%TO.P,S2,6,SDA/ADDR*%
%TO.N,/I2C*%
X132862500Y-110300000D03*
%TD*%
%TO.P,S1,6,SDA/ADDR*%
%TO.N,/I2C*%
X157725000Y-109000000D03*
%TO.P,S1,5,GND*%
%TO.N,GND*%
X157725000Y-109950000D03*
%TO.P,S1,4,VDD*%
%TO.N,+3.3V*%
X157725000Y-110900000D03*
%TO.P,S1,3,GND*%
%TO.N,GND*%
X160000000Y-110900000D03*
%TO.P,S1,2,GND*%
X160000000Y-109950000D03*
%TO.P,S1,1,SCL/INT*%
%TO.N,Net-(MC1-19_A5_SCL)*%
X160000000Y-109000000D03*
%TD*%
D12*
%TO.P,MC1,0,0_RX1_CRX2_CS1*%
%TO.N,unconnected-(MC1-0_RX1_CRX2_CS1-Pad0)*%
X154149481Y-143769185D03*
%TO.P,MC1,1,1_TX1_CTX2_MISO1*%
%TO.N,unconnected-(MC1-1_TX1_CTX2_MISO1-Pad1)*%
X154149481Y-141229185D03*
%TO.P,MC1,2,2_OUT2*%
%TO.N,Net-(M1-IN2)*%
X154149481Y-138689185D03*
%TO.P,MC1,3,3_LRCLK2*%
%TO.N,Net-(M1-IN1)*%
X154149481Y-136149185D03*
%TO.P,MC1,3.3V_1*%
%TO.N,N/C*%
X154149481Y-110749185D03*
%TO.P,MC1,3.3V_2*%
X138909481Y-141229185D03*
%TO.P,MC1,4,4_BCLK2*%
%TO.N,Net-(M2-IN2)*%
X154149481Y-133609185D03*
%TO.P,MC1,5,5_IN2*%
%TO.N,Net-(M2-IN1)*%
X154149481Y-131069185D03*
%TO.P,MC1,6,6_OUT1D*%
%TO.N,Net-(M3-IN2)*%
X154149481Y-128529185D03*
%TO.P,MC1,7,7_RX2_OUT1A*%
%TO.N,Net-(M3-IN1)*%
X154149481Y-125989185D03*
%TO.P,MC1,8,8_TX2_IN1*%
%TO.N,Net-(M4-IN2)*%
X154149481Y-123449185D03*
%TO.P,MC1,9,9_OUT1C*%
%TO.N,Net-(M4-IN1)*%
X154149481Y-120909185D03*
%TO.P,MC1,10,10_CS_MQSR*%
%TO.N,unconnected-(MC1-10_CS_MQSR-Pad10)*%
X154149481Y-118369185D03*
%TO.P,MC1,15,3V3*%
%TO.N,unconnected-(MC1-3V3-Pad15)*%
X138909481Y-118369185D03*
%TO.P,MC1,16,24_A10_TX6_SCL2*%
%TO.N,unconnected-(MC1-24_A10_TX6_SCL2-Pad16)*%
X138909481Y-120909185D03*
%TO.P,MC1,17,25_A11_RX6_SDA2*%
%TO.N,unconnected-(MC1-25_A11_RX6_SDA2-Pad17)*%
X138909481Y-123449185D03*
%TO.P,MC1,18,18_A4_SDA*%
%TO.N,/I2C*%
X138909481Y-125989185D03*
%TO.P,MC1,19,19_A5_SCL*%
%TO.N,Net-(MC1-19_A5_SCL)*%
X138909481Y-128529185D03*
%TO.P,MC1,20,28_RX7*%
%TO.N,unconnected-(MC1-28_RX7-Pad20)*%
X138909481Y-131069185D03*
%TO.P,MC1,21,29_TX7*%
%TO.N,unconnected-(MC1-29_TX7-Pad21)*%
X138909481Y-133609185D03*
%TO.P,MC1,22,30_CRX3*%
%TO.N,unconnected-(MC1-30_CRX3-Pad22)*%
X138909481Y-136149185D03*
%TO.P,MC1,23,31_CTX3*%
%TO.N,unconnected-(MC1-31_CTX3-Pad23)*%
X138909481Y-138689185D03*
%TO.P,MC1,24,32_OUT1B*%
%TO.N,unconnected-(MC1-32_OUT1B-Pad24)*%
X154149481Y-108209185D03*
%TO.P,MC1,25,33_MCLK2*%
%TO.N,unconnected-(MC1-33_MCLK2-Pad25)*%
X154149481Y-105669185D03*
%TO.P,MC1,26,34_RX8*%
%TO.N,unconnected-(MC1-34_RX8-Pad26)*%
X154149481Y-103129185D03*
%TO.P,MC1,27,35_TX8*%
%TO.N,unconnected-(MC1-35_TX8-Pad27)*%
X154149481Y-100589185D03*
%TO.P,MC1,28,36_CS*%
%TO.N,unconnected-(MC1-36_CS-Pad28)*%
X154149481Y-98049185D03*
%TO.P,MC1,29,37_CS*%
%TO.N,unconnected-(MC1-37_CS-Pad29)*%
X154149481Y-95509185D03*
%TO.P,MC1,30,38_CS1_IN1*%
%TO.N,unconnected-(MC1-38_CS1_IN1-Pad30)*%
X154149481Y-92969185D03*
%TO.P,MC1,31,39_MISO1_OUT1A*%
%TO.N,unconnected-(MC1-39_MISO1_OUT1A-Pad31)*%
X154149481Y-90429185D03*
%TO.P,MC1,32,40_A16*%
%TO.N,unconnected-(MC1-40_A16-Pad32)*%
X154149481Y-87889185D03*
%TO.P,MC1,33,41_A17*%
%TO.N,unconnected-(MC1-41_A17-Pad33)*%
X138909481Y-87889185D03*
%TO.P,MC1,34,GND*%
%TO.N,GND*%
X138909481Y-90429185D03*
%TO.P,MC1,35,13_SCK_LED*%
%TO.N,unconnected-(MC1-13_SCK_LED-Pad35)*%
X138909481Y-92969185D03*
%TO.P,MC1,36,14_A0_TX3_SPDIF_OUT*%
%TO.N,unconnected-(MC1-14_A0_TX3_SPDIF_OUT-Pad36)*%
X138909481Y-95509185D03*
%TO.P,MC1,37,15_A1_RX3_SPDIF_IN*%
%TO.N,unconnected-(MC1-15_A1_RX3_SPDIF_IN-Pad37)*%
X138909481Y-98049185D03*
%TO.P,MC1,38,16_A2_RX4_SCL1*%
%TO.N,unconnected-(MC1-16_A2_RX4_SCL1-Pad38)*%
X138909481Y-100589185D03*
%TO.P,MC1,39,17_A3_TX4_SDA1*%
%TO.N,unconnected-(MC1-17_A3_TX4_SDA1-Pad39)*%
X138909481Y-103129185D03*
%TO.P,MC1,40*%
%TO.N,N/C*%
X138909481Y-105669185D03*
%TO.P,MC1,41*%
X138909481Y-108209185D03*
%TO.P,MC1,GND1*%
X154149481Y-146309185D03*
%TO.P,MC1,GND2*%
X138909481Y-110749185D03*
%TO.P,MC1,GND3*%
X138909481Y-143769185D03*
%TO.P,MC1,VIN*%
X138909481Y-146309185D03*
%TD*%
D11*
%TO.P,S3,6,SDA/ADDR*%
%TO.N,/I2C*%
X145063640Y-98300000D03*
%TO.P,S3,5,GND*%
%TO.N,GND*%
X145063640Y-99250000D03*
%TO.P,S3,4,VDD*%
%TO.N,+3.3V*%
X145063640Y-100200000D03*
%TO.P,S3,3,GND*%
%TO.N,GND*%
X147338640Y-100200000D03*
%TO.P,S3,2,GND*%
X147338640Y-99250000D03*
%TO.P,S3,1,SCL/INT*%
%TO.N,Net-(MC1-19_A5_SCL)*%
X147338640Y-98300000D03*
%TD*%
D13*
%TO.P,C11,2*%
%TO.N,GND*%
X126365000Y-123315976D03*
%TO.P,C11,1*%
%TO.N,+12V*%
X126365000Y-121765976D03*
%TD*%
D14*
%TO.P,C1,1*%
%TO.N,+12V*%
X153708562Y-71291263D03*
%TO.P,C1,2*%
%TO.N,GND*%
X153708562Y-69391263D03*
%TD*%
D10*
%TO.P,C12,1*%
%TO.N,+12V*%
X179070000Y-111635000D03*
%TO.P,C12,2*%
%TO.N,GND*%
X179070000Y-117035000D03*
%TD*%
D15*
%TO.P,R1,2*%
%TO.N,GND*%
X164317918Y-87275000D03*
%TO.P,R1,1*%
%TO.N,Net-(M1-LSS)*%
X164317918Y-84175000D03*
%TD*%
D14*
%TO.P,C4,1*%
%TO.N,GND*%
X153982885Y-75839462D03*
%TO.P,C4,2*%
%TO.N,/5V*%
X153982885Y-73939462D03*
%TD*%
D16*
%TO.P,M3,1,GND*%
%TO.N,GND*%
X129080000Y-89275000D03*
%TO.P,M3,2,IN2*%
%TO.N,Net-(M3-IN2)*%
X127810000Y-89275000D03*
%TO.P,M3,3,IN1*%
%TO.N,Net-(M3-IN1)*%
X126540000Y-89275000D03*
%TO.P,M3,4,VREF*%
%TO.N,+3.3V*%
X125270000Y-89275000D03*
%TO.P,M3,5,VBB*%
%TO.N,+12V*%
X125270000Y-84325000D03*
%TO.P,M3,6,OUT1*%
%TO.N,unconnected-(M3-OUT1-Pad6)*%
X126540000Y-84325000D03*
%TO.P,M3,7,LSS*%
%TO.N,Net-(M3-LSS)*%
X127810000Y-84325000D03*
%TO.P,M3,8,OUT2*%
%TO.N,unconnected-(M3-OUT2-Pad8)*%
X129080000Y-84325000D03*
D17*
%TO.P,M3,9,PAD*%
%TO.N,GND*%
X127175000Y-86800000D03*
%TD*%
%TO.P,M4,9,PAD*%
%TO.N,GND*%
X130810000Y-123125000D03*
D16*
%TO.P,M4,8,OUT2*%
%TO.N,unconnected-(M4-OUT2-Pad8)*%
X132715000Y-120650000D03*
%TO.P,M4,7,LSS*%
%TO.N,Net-(M4-LSS)*%
X131445000Y-120650000D03*
%TO.P,M4,6,OUT1*%
%TO.N,unconnected-(M4-OUT1-Pad6)*%
X130175000Y-120650000D03*
%TO.P,M4,5,VBB*%
%TO.N,+12V*%
X128905000Y-120650000D03*
%TO.P,M4,4,VREF*%
%TO.N,+3.3V*%
X128905000Y-125600000D03*
%TO.P,M4,3,IN1*%
%TO.N,Net-(M4-IN1)*%
X130175000Y-125600000D03*
%TO.P,M4,2,IN2*%
%TO.N,Net-(M4-IN2)*%
X131445000Y-125600000D03*
%TO.P,M4,1,GND*%
%TO.N,GND*%
X132715000Y-125600000D03*
%TD*%
D18*
%TO.P,J1,1*%
%TO.N,+12V*%
X146500000Y-65500000D03*
D19*
%TO.P,J1,2*%
%TO.N,GND*%
X139400000Y-56550000D03*
%TO.P,J1,3*%
X152300000Y-56550000D03*
%TD*%
D10*
%TO.P,C14,2*%
%TO.N,GND*%
X177000000Y-89700000D03*
%TO.P,C14,1*%
%TO.N,+12V*%
X177000000Y-84300000D03*
%TD*%
D20*
%TO.P,U2,1,GND*%
%TO.N,GND*%
X157135990Y-76000000D03*
%TO.P,U2,2,VO*%
%TO.N,/5V*%
X157135990Y-73688600D03*
%TO.P,U2,3,VI*%
%TO.N,+12V*%
X157135990Y-71377200D03*
D21*
%TO.P,U2,4*%
%TO.N,N/C*%
X163536790Y-73688600D03*
%TD*%
D10*
%TO.P,C10,1*%
%TO.N,+12V*%
X115500000Y-84400000D03*
%TO.P,C10,2*%
%TO.N,GND*%
X115500000Y-89800000D03*
%TD*%
D15*
%TO.P,R4,2*%
%TO.N,GND*%
X135065000Y-123370000D03*
%TO.P,R4,1*%
%TO.N,Net-(M4-LSS)*%
X135065000Y-120270000D03*
%TD*%
D22*
%TO.P,C3,1*%
%TO.N,+12V*%
X129540000Y-70170000D03*
%TO.P,C3,2*%
%TO.N,GND*%
X129540000Y-72070000D03*
%TD*%
D16*
%TO.P,M2,1,GND*%
%TO.N,GND*%
X168465000Y-117410000D03*
%TO.P,M2,2,IN2*%
%TO.N,Net-(M2-IN2)*%
X167195000Y-117410000D03*
%TO.P,M2,3,IN1*%
%TO.N,Net-(M2-IN1)*%
X165925000Y-117410000D03*
%TO.P,M2,4,VREF*%
%TO.N,+3.3V*%
X164655000Y-117410000D03*
%TO.P,M2,5,VBB*%
%TO.N,+12V*%
X164655000Y-112460000D03*
%TO.P,M2,6,OUT1*%
%TO.N,unconnected-(M2-OUT1-Pad6)*%
X165925000Y-112460000D03*
%TO.P,M2,7,LSS*%
%TO.N,Net-(M2-LSS)*%
X167195000Y-112460000D03*
%TO.P,M2,8,OUT2*%
%TO.N,unconnected-(M2-OUT2-Pad8)*%
X168465000Y-112460000D03*
D17*
%TO.P,M2,9,PAD*%
%TO.N,GND*%
X166560000Y-114935000D03*
%TD*%
D13*
%TO.P,C9,1*%
%TO.N,+12V*%
X122300000Y-86225000D03*
%TO.P,C9,2*%
%TO.N,GND*%
X122300000Y-87775000D03*
%TD*%
D15*
%TO.P,R2,1*%
%TO.N,Net-(M2-LSS)*%
X170815000Y-113420000D03*
%TO.P,R2,2*%
%TO.N,GND*%
X170815000Y-116520000D03*
%TD*%
D20*
%TO.P,U1,1,GND*%
%TO.N,GND*%
X131419600Y-75971400D03*
%TO.P,U1,2,VO*%
%TO.N,+3.3V*%
X131419600Y-73660000D03*
%TO.P,U1,3,VI*%
%TO.N,+12V*%
X131419600Y-71348600D03*
D21*
%TO.P,U1,4*%
%TO.N,N/C*%
X137820400Y-73660000D03*
%TD*%
D17*
%TO.P,M1,9,PAD*%
%TO.N,GND*%
X160317918Y-86425000D03*
D16*
%TO.P,M1,8,OUT2*%
%TO.N,unconnected-(M1-OUT2-Pad8)*%
X162222918Y-83950000D03*
%TO.P,M1,7,LSS*%
%TO.N,Net-(M1-LSS)*%
X160952918Y-83950000D03*
%TO.P,M1,6,OUT1*%
%TO.N,unconnected-(M1-OUT1-Pad6)*%
X159682918Y-83950000D03*
%TO.P,M1,5,VBB*%
%TO.N,+12V*%
X158412918Y-83950000D03*
%TO.P,M1,4,VREF*%
%TO.N,+3.3V*%
X158412918Y-88900000D03*
%TO.P,M1,3,IN1*%
%TO.N,Net-(M1-IN1)*%
X159682918Y-88900000D03*
%TO.P,M1,2,IN2*%
%TO.N,Net-(M1-IN2)*%
X160952918Y-88900000D03*
%TO.P,M1,1,GND*%
%TO.N,GND*%
X162222918Y-88900000D03*
%TD*%
D22*
%TO.P,C2,1*%
%TO.N,+3.3V*%
X129540000Y-74300000D03*
%TO.P,C2,2*%
%TO.N,GND*%
X129540000Y-76200000D03*
%TD*%
D15*
%TO.P,R3,1*%
%TO.N,Net-(M3-LSS)*%
X131400000Y-83750000D03*
%TO.P,R3,2*%
%TO.N,GND*%
X131400000Y-86850000D03*
%TD*%
D13*
%TO.P,C13,1*%
%TO.N,+12V*%
X173355000Y-112925000D03*
%TO.P,C13,2*%
%TO.N,GND*%
X173355000Y-114475000D03*
%TD*%
%TO.P,C15,2*%
%TO.N,GND*%
X167312918Y-87775000D03*
%TO.P,C15,1*%
%TO.N,+12V*%
X167312918Y-86225000D03*
%TD*%
D23*
%TO.N,unconnected-(M3-OUT2-Pad8)*%
X129096820Y-82388580D03*
%TO.N,unconnected-(M3-OUT1-Pad6)*%
X126575754Y-82361177D03*
%TO.N,unconnected-(M1-OUT2-Pad8)*%
X162243701Y-82015144D03*
%TO.N,unconnected-(M1-OUT1-Pad6)*%
X159686098Y-81942069D03*
%TO.N,unconnected-(M2-OUT1-Pad6)*%
X165941021Y-110515532D03*
%TO.N,unconnected-(M2-OUT2-Pad8)*%
X168480355Y-110369383D03*
%TO.N,unconnected-(M4-OUT1-Pad6)*%
X130175000Y-118235976D03*
%TO.N,unconnected-(M4-OUT2-Pad8)*%
X132715000Y-118235976D03*
%TO.N,+3.3V*%
X129540000Y-78740000D03*
X127000000Y-73660000D03*
%TO.N,GND*%
X124460000Y-73660000D03*
X124460000Y-63205969D03*
X160020000Y-68580000D03*
X158750000Y-63000000D03*
X108500000Y-93300000D03*
X180000000Y-92000000D03*
X183700000Y-92000000D03*
X112200000Y-92100000D03*
%TD*%
D24*
%TO.N,/5V*%
X153703423Y-73660000D02*
X153534920Y-73660000D01*
X153982885Y-73939462D02*
X153703423Y-73660000D01*
%TO.N,+12V*%
X153794499Y-71377200D02*
X153708562Y-71291263D01*
X157135990Y-71377200D02*
X153794499Y-71377200D01*
%TO.N,/5V*%
X154233747Y-73688600D02*
X153982885Y-73939462D01*
X157135990Y-73688600D02*
X154233747Y-73688600D01*
D25*
%TO.N,Net-(M3-LSS)*%
X127810000Y-80645000D02*
X130175000Y-80645000D01*
X127810000Y-84325000D02*
X127810000Y-80645000D01*
X130175000Y-80645000D02*
X131400000Y-81870000D01*
X131400000Y-81870000D02*
X131400000Y-83750000D01*
%TO.N,GND*%
X169230000Y-114935000D02*
X170815000Y-116520000D01*
X166560000Y-114935000D02*
X169230000Y-114935000D01*
X171310000Y-116520000D02*
X173355000Y-114475000D01*
X170815000Y-116520000D02*
X171310000Y-116520000D01*
%TO.N,unconnected-(M3-OUT2-Pad8)*%
X129080000Y-82405400D02*
X129096820Y-82388580D01*
X129080000Y-84325000D02*
X129080000Y-82405400D01*
%TO.N,unconnected-(M3-OUT1-Pad6)*%
X126540000Y-82396931D02*
X126575754Y-82361177D01*
X126540000Y-84325000D02*
X126540000Y-82396931D01*
%TO.N,unconnected-(M1-OUT2-Pad8)*%
X162222918Y-82035927D02*
X162243701Y-82015144D01*
X162222918Y-83950000D02*
X162222918Y-82035927D01*
%TO.N,unconnected-(M1-OUT1-Pad6)*%
X159682918Y-81945249D02*
X159686098Y-81942069D01*
X159682918Y-83950000D02*
X159682918Y-81945249D01*
%TO.N,GND*%
X160442867Y-86425000D02*
X160317918Y-86425000D01*
X162222918Y-88205051D02*
X160442867Y-86425000D01*
X162222918Y-88900000D02*
X162222918Y-88205051D01*
X177000000Y-89700000D02*
X169187918Y-89700000D01*
%TO.N,+12V*%
X177000000Y-84300000D02*
X169237918Y-84300000D01*
%TO.N,Net-(M1-LSS)*%
X164317918Y-81282792D02*
X164317918Y-84175000D01*
X161512918Y-80910000D02*
X163945126Y-80910000D01*
X160952918Y-81470000D02*
X161512918Y-80910000D01*
X163945126Y-80910000D02*
X164317918Y-81282792D01*
X160952918Y-83950000D02*
X160952918Y-81470000D01*
%TO.N,+12V*%
X167312918Y-86225000D02*
X167312918Y-83005000D01*
D24*
%TO.N,GND*%
X167187918Y-87900000D02*
X167312918Y-87775000D01*
X164817918Y-87775000D02*
X167312918Y-87775000D01*
D25*
X169187918Y-89700000D02*
X167312918Y-87825000D01*
%TO.N,+12V*%
X169237918Y-84300000D02*
X167312918Y-86225000D01*
X167312918Y-83005000D02*
X164317918Y-80010000D01*
X164317918Y-80010000D02*
X159872918Y-80010000D01*
X159872918Y-80010000D02*
X158412918Y-81470000D01*
X158412918Y-81470000D02*
X158412918Y-83950000D01*
D24*
%TO.N,GND*%
X163467918Y-86425000D02*
X164317918Y-87275000D01*
X160317918Y-86425000D02*
X163467918Y-86425000D01*
X164317918Y-87275000D02*
X164817918Y-87775000D01*
X160655000Y-86425000D02*
X160317918Y-86425000D01*
D25*
%TO.N,+12V*%
X126365000Y-118745000D02*
X126365000Y-121765976D01*
X122269126Y-114649126D02*
X126365000Y-118745000D01*
X119040000Y-114649126D02*
X122269126Y-114649126D01*
%TO.N,GND*%
X125855976Y-123825000D02*
X126365000Y-123315976D01*
X122815874Y-123825000D02*
X125855976Y-123825000D01*
X119040000Y-120049126D02*
X122815874Y-123825000D01*
D26*
X110800148Y-120049126D02*
X119040000Y-120049126D01*
X105100000Y-114348978D02*
X110800148Y-120049126D01*
%TO.N,+12V*%
X114427937Y-110037063D02*
X119040000Y-114649126D01*
X110400000Y-83300000D02*
X110400000Y-110037063D01*
X113150000Y-80550000D02*
X110400000Y-83300000D01*
X110400000Y-110037063D02*
X114427937Y-110037063D01*
D25*
%TO.N,GND*%
X134820000Y-123125000D02*
X130810000Y-123125000D01*
X135065000Y-123370000D02*
X134820000Y-123125000D01*
%TO.N,Net-(M4-LSS)*%
X133108503Y-117285976D02*
X135065000Y-119242473D01*
X135065000Y-119242473D02*
X135065000Y-120270000D01*
X132321497Y-117285976D02*
X133108503Y-117285976D01*
X131445000Y-118162473D02*
X132321497Y-117285976D01*
X131445000Y-120650000D02*
X131445000Y-118162473D01*
D26*
%TO.N,GND*%
X187000000Y-97000000D02*
X187000000Y-112755000D01*
X189000000Y-95000000D02*
X187000000Y-97000000D01*
X189000000Y-92000000D02*
X189000000Y-95000000D01*
%TO.N,+12V*%
X182000000Y-83000000D02*
X182000000Y-107435000D01*
X179500000Y-80500000D02*
X182000000Y-83000000D01*
D25*
%TO.N,unconnected-(M2-OUT1-Pad6)*%
X165925000Y-110531553D02*
X165941021Y-110515532D01*
X165925000Y-112460000D02*
X165925000Y-110531553D01*
%TO.N,unconnected-(M2-OUT2-Pad8)*%
X168465000Y-110384738D02*
X168480355Y-110369383D01*
X168465000Y-112460000D02*
X168465000Y-110384738D01*
%TO.N,GND*%
X168465000Y-116715051D02*
X166684949Y-114935000D01*
X168465000Y-117410000D02*
X168465000Y-116715051D01*
X166684949Y-114935000D02*
X166560000Y-114935000D01*
%TO.N,Net-(M2-LSS)*%
X167640000Y-109255000D02*
X170815000Y-109255000D01*
X167195000Y-109700000D02*
X167640000Y-109255000D01*
X167195000Y-112460000D02*
X167195000Y-109700000D01*
X170815000Y-109255000D02*
X170815000Y-113420000D01*
%TO.N,+12V*%
X173355000Y-109255000D02*
X173355000Y-112925000D01*
X172085000Y-107985000D02*
X173355000Y-109255000D01*
X164845000Y-107985000D02*
X172085000Y-107985000D01*
X164655000Y-108175000D02*
X164655000Y-111865000D01*
%TO.N,unconnected-(M4-OUT1-Pad6)*%
X130175000Y-120650000D02*
X130175000Y-118235976D01*
%TO.N,unconnected-(M4-OUT2-Pad8)*%
X132715000Y-120650000D02*
X132715000Y-118235976D01*
D26*
%TO.N,GND*%
X105100000Y-96500000D02*
X105100000Y-114348978D01*
%TO.N,+12V*%
X179070000Y-110365000D02*
X179070000Y-111635000D01*
X182000000Y-107435000D02*
X179070000Y-110365000D01*
%TO.N,GND*%
X182720000Y-117035000D02*
X179070000Y-117035000D01*
X187000000Y-112755000D02*
X182720000Y-117035000D01*
D25*
X175915000Y-117035000D02*
X173355000Y-114475000D01*
X179070000Y-117035000D02*
X175915000Y-117035000D01*
%TO.N,+12V*%
X174645000Y-111635000D02*
X173355000Y-112925000D01*
X179070000Y-111635000D02*
X174645000Y-111635000D01*
D27*
%TO.N,Net-(MC1-19_A5_SCL)*%
X160156860Y-108843140D02*
X160000000Y-109000000D01*
X161290000Y-108843140D02*
X160156860Y-108843140D01*
X160020000Y-114935000D02*
X161290000Y-113665000D01*
X142240000Y-114935000D02*
X160020000Y-114935000D01*
X161290000Y-113665000D02*
X161290000Y-108843140D01*
X142240000Y-114935000D02*
X142240000Y-102235000D01*
X142240000Y-125198666D02*
X142240000Y-114935000D01*
X148465000Y-98300000D02*
X147338640Y-98300000D01*
X149225000Y-101600000D02*
X149225000Y-99060000D01*
X149225000Y-99060000D02*
X148465000Y-98300000D01*
X148590000Y-102235000D02*
X149225000Y-101600000D01*
X142240000Y-102235000D02*
X148590000Y-102235000D01*
X138909481Y-128529185D02*
X142240000Y-125198666D01*
%TO.N,/I2C*%
X141730000Y-98300000D02*
X145063640Y-98300000D01*
X140970000Y-99060000D02*
X141730000Y-98300000D01*
X140970000Y-123928666D02*
X140970000Y-99060000D01*
X138909481Y-125989185D02*
X140970000Y-123928666D01*
D25*
%TO.N,+3.3V*%
X134620000Y-81280000D02*
X134620000Y-88900000D01*
X129540000Y-96520000D02*
X129540000Y-106680000D01*
X124460000Y-91440000D02*
X129540000Y-96520000D01*
X124460000Y-90085000D02*
X125270000Y-89275000D01*
X124460000Y-91440000D02*
X124460000Y-90085000D01*
X134620000Y-88900000D02*
X132080000Y-91440000D01*
X132080000Y-78740000D02*
X134620000Y-81280000D01*
X129540000Y-78740000D02*
X132080000Y-78740000D01*
X127640000Y-74300000D02*
X127000000Y-73660000D01*
X132080000Y-91440000D02*
X124460000Y-91440000D01*
X129540000Y-74300000D02*
X127640000Y-74300000D01*
%TO.N,GND*%
X124460000Y-76200000D02*
X129540000Y-76200000D01*
X124460000Y-73660000D02*
X124460000Y-76200000D01*
D24*
X129438603Y-72171397D02*
X129540000Y-72070000D01*
X125948603Y-72171397D02*
X129438603Y-72171397D01*
X124460000Y-73660000D02*
X125948603Y-72171397D01*
D26*
X135900000Y-60050000D02*
X139400000Y-56550000D01*
X132659764Y-63205969D02*
X135815733Y-60050000D01*
X103955516Y-77973577D02*
X103955516Y-77944484D01*
X102600000Y-79329093D02*
X103955516Y-77973577D01*
X118694031Y-63205969D02*
X132659764Y-63205969D01*
X135815733Y-60050000D02*
X135900000Y-60050000D01*
X102600000Y-94000000D02*
X102600000Y-79329093D01*
X105100000Y-96500000D02*
X102600000Y-94000000D01*
X103955516Y-77944484D02*
X118694031Y-63205969D01*
D24*
%TO.N,+12V*%
X130241000Y-70170000D02*
X131419600Y-71348600D01*
X127000000Y-70170000D02*
X130241000Y-70170000D01*
X126050000Y-70170000D02*
X127000000Y-70170000D01*
X124790000Y-68910000D02*
X126050000Y-70170000D01*
D26*
X124790000Y-68910000D02*
X113150000Y-80550000D01*
X128200000Y-65500000D02*
X124790000Y-68910000D01*
D24*
%TO.N,GND*%
X157135990Y-78395990D02*
X157135990Y-76000000D01*
X157480000Y-78740000D02*
X157135990Y-78395990D01*
X162560000Y-78740000D02*
X157480000Y-78740000D01*
X165100000Y-76200000D02*
X162560000Y-78740000D01*
X160020000Y-68580000D02*
X162177690Y-68580000D01*
X162177690Y-68580000D02*
X165100000Y-71502310D01*
X165100000Y-71502310D02*
X165100000Y-76200000D01*
X154519825Y-68580000D02*
X153708562Y-69391263D01*
X160020000Y-68580000D02*
X154519825Y-68580000D01*
%TO.N,+12V*%
X146500000Y-65500000D02*
X152291263Y-71291263D01*
X152291263Y-71291263D02*
X153708562Y-71291263D01*
D25*
%TO.N,GND*%
X132715000Y-124905051D02*
X132715000Y-125600000D01*
X130934949Y-123125000D02*
X132715000Y-124905051D01*
X130810000Y-123125000D02*
X130934949Y-123125000D01*
D24*
X130619024Y-123315976D02*
X130810000Y-123125000D01*
X126365000Y-123315976D02*
X130619024Y-123315976D01*
D25*
%TO.N,+12V*%
X128569194Y-120314194D02*
X128905000Y-120650000D01*
X127792381Y-120314194D02*
X128569194Y-120314194D01*
X127792381Y-120338595D02*
X127792381Y-120314194D01*
X126365000Y-121765976D02*
X127792381Y-120338595D01*
D24*
%TO.N,GND*%
X123550000Y-87775000D02*
X124525000Y-86800000D01*
D28*
X129080000Y-89275000D02*
X129080000Y-88705000D01*
D24*
X122300000Y-87775000D02*
X123550000Y-87775000D01*
D25*
X127425000Y-87050000D02*
X127175000Y-86800000D01*
D28*
X135304388Y-70792588D02*
X135200400Y-70688600D01*
D26*
X115500000Y-89800000D02*
X114500000Y-89800000D01*
D24*
X115500000Y-89800000D02*
X120275000Y-89800000D01*
D25*
X131350000Y-86800000D02*
X131400000Y-86850000D01*
D26*
X189000000Y-92000000D02*
X185000000Y-92000000D01*
X180000000Y-92000000D02*
X179300000Y-92000000D01*
X189000000Y-78000000D02*
X189000000Y-92000000D01*
X139400000Y-56550000D02*
X152300000Y-56550000D01*
D28*
X154143423Y-76000000D02*
X153982885Y-75839462D01*
X129080000Y-88705000D02*
X127175000Y-86800000D01*
D25*
X177000000Y-89700000D02*
X177000000Y-90000000D01*
D26*
X158750000Y-63000000D02*
X174000000Y-63000000D01*
D25*
X127175000Y-86800000D02*
X131350000Y-86800000D01*
D26*
X108500000Y-93300000D02*
X108300000Y-93300000D01*
X185000000Y-92000000D02*
X183700000Y-92000000D01*
D28*
X157135990Y-76000000D02*
X154143423Y-76000000D01*
D26*
X108300000Y-93300000D02*
X105100000Y-96500000D01*
X114500000Y-89800000D02*
X112200000Y-92100000D01*
D24*
X120275000Y-89800000D02*
X122300000Y-87775000D01*
D26*
X115500000Y-89800000D02*
X115500000Y-90200000D01*
X174000000Y-63000000D02*
X189000000Y-78000000D01*
X179300000Y-92000000D02*
X177000000Y-89700000D01*
X152300000Y-56550000D02*
X158750000Y-63000000D01*
D24*
X124525000Y-86800000D02*
X127175000Y-86800000D01*
D26*
%TO.N,+12V*%
X130600000Y-65500000D02*
X128200000Y-65500000D01*
D24*
X115500000Y-84400000D02*
X120475000Y-84400000D01*
D26*
X115500000Y-84400000D02*
X115500000Y-82900000D01*
X115500000Y-82900000D02*
X113150000Y-80550000D01*
D25*
X123370000Y-86225000D02*
X125270000Y-84325000D01*
D26*
X146500000Y-65500000D02*
X130600000Y-65500000D01*
X164500000Y-65500000D02*
X179500000Y-80500000D01*
X177000000Y-83000000D02*
X179500000Y-80500000D01*
D24*
X120475000Y-84400000D02*
X122300000Y-86225000D01*
D26*
X146500000Y-65500000D02*
X164500000Y-65500000D01*
X177000000Y-84300000D02*
X177000000Y-83000000D01*
D25*
X122300000Y-86225000D02*
X123370000Y-86225000D01*
%TD*%
M02*
