%TF.GenerationSoftware,KiCad,Pcbnew,7.0.5*%
%TF.CreationDate,2023-06-16T10:57:35+02:00*%
%TF.ProjectId,maglev cv2,6d61676c-6576-4206-9376-322e6b696361,rev?*%
%TF.SameCoordinates,Original*%
%TF.FileFunction,Soldermask,Bot*%
%TF.FilePolarity,Negative*%
%FSLAX46Y46*%
G04 Gerber Fmt 4.6, Leading zero omitted, Abs format (unit mm)*
G04 Created by KiCad (PCBNEW 7.0.5) date 2023-06-16 10:57:35*
%MOMM*%
%LPD*%
G01*
G04 APERTURE LIST*
G04 Aperture macros list*
%AMRoundRect*
0 Rectangle with rounded corners*
0 $1 Rounding radius*
0 $2 $3 $4 $5 $6 $7 $8 $9 X,Y pos of 4 corners*
0 Add a 4 corners polygon primitive as box body*
4,1,4,$2,$3,$4,$5,$6,$7,$8,$9,$2,$3,0*
0 Add four circle primitives for the rounded corners*
1,1,$1+$1,$2,$3*
1,1,$1+$1,$4,$5*
1,1,$1+$1,$6,$7*
1,1,$1+$1,$8,$9*
0 Add four rect primitives between the rounded corners*
20,1,$1+$1,$2,$3,$4,$5,0*
20,1,$1+$1,$4,$5,$6,$7,0*
20,1,$1+$1,$6,$7,$8,$9,0*
20,1,$1+$1,$8,$9,$2,$3,0*%
G04 Aperture macros list end*
%ADD10RoundRect,0.250000X-0.550000X1.500000X-0.550000X-1.500000X0.550000X-1.500000X0.550000X1.500000X0*%
%ADD11RoundRect,0.150000X0.512500X0.150000X-0.512500X0.150000X-0.512500X-0.150000X0.512500X-0.150000X0*%
%ADD12C,1.308000*%
%ADD13RoundRect,0.225000X-0.250000X0.225000X-0.250000X-0.225000X0.250000X-0.225000X0.250000X0.225000X0*%
%ADD14RoundRect,0.250000X0.475000X-0.250000X0.475000X0.250000X-0.475000X0.250000X-0.475000X-0.250000X0*%
%ADD15RoundRect,0.250000X-0.625000X0.400000X-0.625000X-0.400000X0.625000X-0.400000X0.625000X0.400000X0*%
%ADD16C,2.500000*%
%ADD17RoundRect,0.150000X0.150000X-0.825000X0.150000X0.825000X-0.150000X0.825000X-0.150000X-0.825000X0*%
%ADD18R,3.300000X2.410000*%
%ADD19C,3.200000*%
%ADD20C,2.000000*%
%ADD21R,3.300000X4.400000*%
%ADD22R,3.900000X6.200000*%
%ADD23R,1.600200X0.838200*%
%ADD24R,1.600200X3.098800*%
%ADD25RoundRect,0.250000X-0.475000X0.250000X-0.475000X-0.250000X0.475000X-0.250000X0.475000X0.250000X0*%
G04 APERTURE END LIST*
D10*
%TO.C,C8*%
X119040000Y-120049126D03*
X119040000Y-114649126D03*
%TD*%
D11*
%TO.C,S2*%
X135137500Y-110300000D03*
X135137500Y-111250000D03*
X135137500Y-112200000D03*
X132862500Y-112200000D03*
X132862500Y-111250000D03*
X132862500Y-110300000D03*
%TD*%
%TO.C,S1*%
X157725000Y-109000000D03*
X157725000Y-109950000D03*
X157725000Y-110900000D03*
X160000000Y-110900000D03*
X160000000Y-109950000D03*
X160000000Y-109000000D03*
%TD*%
D12*
%TO.C,MC1*%
X154149481Y-143769185D03*
X154149481Y-141229185D03*
X154149481Y-138689185D03*
X154149481Y-136149185D03*
X154149481Y-110749185D03*
X138909481Y-141229185D03*
X154149481Y-133609185D03*
X154149481Y-131069185D03*
X154149481Y-128529185D03*
X154149481Y-125989185D03*
X154149481Y-123449185D03*
X154149481Y-120909185D03*
X154149481Y-118369185D03*
X138909481Y-118369185D03*
X138909481Y-120909185D03*
X138909481Y-123449185D03*
X138909481Y-125989185D03*
X138909481Y-128529185D03*
X138909481Y-131069185D03*
X138909481Y-133609185D03*
X138909481Y-136149185D03*
X138909481Y-138689185D03*
X154149481Y-108209185D03*
X154149481Y-105669185D03*
X154149481Y-103129185D03*
X154149481Y-100589185D03*
X154149481Y-98049185D03*
X154149481Y-95509185D03*
X154149481Y-92969185D03*
X154149481Y-90429185D03*
X154149481Y-87889185D03*
X138909481Y-87889185D03*
X138909481Y-90429185D03*
X138909481Y-92969185D03*
X138909481Y-95509185D03*
X138909481Y-98049185D03*
X138909481Y-100589185D03*
X138909481Y-103129185D03*
X138909481Y-105669185D03*
X138909481Y-108209185D03*
X154149481Y-146309185D03*
X138909481Y-110749185D03*
X138909481Y-143769185D03*
X138909481Y-146309185D03*
%TD*%
D11*
%TO.C,S3*%
X145063640Y-98300000D03*
X145063640Y-99250000D03*
X145063640Y-100200000D03*
X147338640Y-100200000D03*
X147338640Y-99250000D03*
X147338640Y-98300000D03*
%TD*%
D13*
%TO.C,C11*%
X126365000Y-123315976D03*
X126365000Y-121765976D03*
%TD*%
D14*
%TO.C,C1*%
X153708562Y-71291263D03*
X153708562Y-69391263D03*
%TD*%
D10*
%TO.C,C12*%
X179070000Y-111635000D03*
X179070000Y-117035000D03*
%TD*%
D15*
%TO.C,R1*%
X164317918Y-87275000D03*
X164317918Y-84175000D03*
%TD*%
D16*
%TO.C,PMAG*%
X174500000Y-71000000D03*
%TD*%
D14*
%TO.C,C4*%
X153982885Y-75839462D03*
X153982885Y-73939462D03*
%TD*%
D17*
%TO.C,M3*%
X129080000Y-89275000D03*
X127810000Y-89275000D03*
X126540000Y-89275000D03*
X125270000Y-89275000D03*
X125270000Y-84325000D03*
X126540000Y-84325000D03*
X127810000Y-84325000D03*
X129080000Y-84325000D03*
D18*
X127175000Y-86800000D03*
%TD*%
%TO.C,M4*%
X130810000Y-123125000D03*
D17*
X132715000Y-120650000D03*
X131445000Y-120650000D03*
X130175000Y-120650000D03*
X128905000Y-120650000D03*
X128905000Y-125600000D03*
X130175000Y-125600000D03*
X131445000Y-125600000D03*
X132715000Y-125600000D03*
%TD*%
D19*
%TO.C,REF\u002A\u002A*%
X191250000Y-99250000D03*
%TD*%
%TO.C,REF\u002A\u002A*%
X129077025Y-140852859D03*
%TD*%
D20*
%TO.C,J1*%
X145850000Y-52750000D03*
D21*
X146500000Y-65500000D03*
D22*
X139400000Y-56550000D03*
X152300000Y-56550000D03*
%TD*%
D10*
%TO.C,C14*%
X177000000Y-89700000D03*
X177000000Y-84300000D03*
%TD*%
D16*
%TO.C,PMAG*%
X118000000Y-127500000D03*
%TD*%
D19*
%TO.C,REF\u002A\u002A*%
X100750000Y-99250000D03*
%TD*%
D23*
%TO.C,U2*%
X157135990Y-76000000D03*
X157135990Y-73688600D03*
X157135990Y-71377200D03*
D24*
X163536790Y-73688600D03*
%TD*%
D10*
%TO.C,C10*%
X115500000Y-84400000D03*
X115500000Y-89800000D03*
%TD*%
D16*
%TO.C,PMAG*%
X174500000Y-127500000D03*
%TD*%
D19*
%TO.C,PMAG*%
X129000000Y-57500000D03*
%TD*%
D15*
%TO.C,R4*%
X135065000Y-123370000D03*
X135065000Y-120270000D03*
%TD*%
D16*
%TO.C,PMAG*%
X118000000Y-71000000D03*
%TD*%
D25*
%TO.C,C3*%
X129540000Y-70170000D03*
X129540000Y-72070000D03*
%TD*%
D16*
%TO.C,Sol*%
X146208951Y-79245847D03*
%TD*%
D17*
%TO.C,M2*%
X168465000Y-117410000D03*
X167195000Y-117410000D03*
X165925000Y-117410000D03*
X164655000Y-117410000D03*
X164655000Y-112460000D03*
X165925000Y-112460000D03*
X167195000Y-112460000D03*
X168465000Y-112460000D03*
D18*
X166560000Y-114935000D03*
%TD*%
D19*
%TO.C,REF\u002A\u002A*%
X163412036Y-140678157D03*
%TD*%
%TO.C,PMAG*%
X163500000Y-57500000D03*
%TD*%
D13*
%TO.C,C9*%
X122300000Y-86225000D03*
X122300000Y-87775000D03*
%TD*%
D15*
%TO.C,R2*%
X170815000Y-113420000D03*
X170815000Y-116520000D03*
%TD*%
D23*
%TO.C,U1*%
X131419600Y-75971400D03*
X131419600Y-73660000D03*
X131419600Y-71348600D03*
D24*
X137820400Y-73660000D03*
%TD*%
D16*
%TO.C,Sol*%
X126250000Y-99250000D03*
%TD*%
%TO.C,Sol*%
X146198475Y-119261890D03*
%TD*%
D18*
%TO.C,M1*%
X160317918Y-86425000D03*
D17*
X162222918Y-83950000D03*
X160952918Y-83950000D03*
X159682918Y-83950000D03*
X158412918Y-83950000D03*
X158412918Y-88900000D03*
X159682918Y-88900000D03*
X160952918Y-88900000D03*
X162222918Y-88900000D03*
%TD*%
D25*
%TO.C,C2*%
X129540000Y-74300000D03*
X129540000Y-76200000D03*
%TD*%
D16*
%TO.C,Sol*%
X166250000Y-99250000D03*
%TD*%
D15*
%TO.C,R3*%
X131400000Y-83750000D03*
X131400000Y-86850000D03*
%TD*%
D13*
%TO.C,C13*%
X173355000Y-112925000D03*
X173355000Y-114475000D03*
%TD*%
%TO.C,C15*%
X167312918Y-87775000D03*
X167312918Y-86225000D03*
%TD*%
M02*
