;TYPE=NON_PLATED
;Layer: NPTH_Through
;EasyEDA Pro v2.2.32.3, 2024-11-29 12:30:00
;Gerber Generator version 0.3
M48
METRIC,LZ,000.00000
;Hole size 1 = 0.75001 METRIC
T01C0.75001
;Hole size 2 = 3.09982 METRIC
T02C3.09982
;Hole size 3 = 3.20000 METRIC
T03C3.20000
%
G05
G90
T01
X153.7807Y13.80447
X153.7807Y19.6043
T02
X92.31249Y94.79661
X87.51443Y94.79661
X155.13785Y74.47499
X155.13785Y82.27279
T03
X35.14401Y78.44049
X37.94366Y73.1337
X40.7433Y67.82692
X59.4076Y32.44833
X32.34437Y83.74728
X29.54473Y89.05407
X56.87125Y72.11072
X58.64407Y77.84283
X60.41689Y83.57495
X62.18971Y89.30706
X28.10235Y56.93343
X22.37024Y58.70625
X16.63813Y60.47906
X10.90601Y62.25188
X62.20724Y27.14155
X65.00688Y21.83476
X67.80653Y16.52797
X70.60617Y11.22118
X37.96119Y10.96819
X89.24488Y38.02337
X78.37831Y65.06906
X73.07153Y62.26941
X67.76474Y59.46977
X32.38616Y40.80548
X27.07937Y38.00583
X21.77258Y35.20619
X83.6851Y67.8687
X88.99189Y70.66835
X16.46579Y32.40655
X11.159Y29.6069
X39.73401Y16.7003
X41.50683Y22.43242
X43.27964Y28.16453
X45.05246Y33.89664
X55.09843Y66.37861
X83.51277Y39.79618
X77.78066Y41.569
X72.04855Y43.34182
X66.31643Y45.11464
X33.83446Y55.16061
X153.11Y7.11702
X153.08682Y93.18087
X7.12293Y93.18087
X7.12293Y7.14275
X13.44243Y83.90461
X75.184Y91.44
X83.312Y15.494
X25.146Y9.906
M30