;TYPE=PLATED
;Layer: PTH_Through_Via
;EasyEDA Pro v2.2.32.3, 2024-11-29 12:30:00
;Gerber Generator version 0.3
M48
METRIC,LZ,000.00000
;Hole size 1 = 0.30400 METRIC
T01C0.30400
;Hole size 2 = 0.30480 METRIC
T02C0.30480
;Hole size 3 = 0.30500 METRIC
T03C0.30500
;Hole size 4 = 0.50000 METRIC
T04C0.50000
%
G05
G90
T01
X1.905Y78.232
X4.191Y78.232
X6.477Y78.232
X2.032Y75.184
X4.318Y75.184
X6.604Y75.184
T02
X104.65613Y68.06387
X105.65613Y68.06387
X104.65613Y67.06387
X105.65613Y67.06387
X105.08598Y30.48489
X106.08598Y30.48489
X105.08598Y29.48489
X106.08598Y29.48489
X104.90362Y49.05294
X105.90362Y49.05294
X104.90362Y48.05295
X105.90362Y48.05295
X104.91013Y86.85987
X105.91013Y86.85987
X104.91013Y85.85987
X105.91013Y85.85987
T03
X145.391Y9.45861
X113.284Y93.66402
X143.867Y2.29848
X149.38108Y27.30886
X119.38Y88.20255
X116.586Y84.01548
X118.364Y69.342
X117.602Y65.278
X119.634Y31.242
X112.014Y38.354
X137.58767Y86.42889
X150.0192Y50.35788
X153.34615Y42.63288
X159.2002Y25.82991
X101.89921Y94.742
X102.108Y83.63941
X110.998Y75.946
X134.42786Y29.464
X133.64091Y26.42848
X128.30691Y39.38248
X118.364Y7.6454
X109.474Y7.6454
X112.42116Y14.986
X104.648Y13.716
X112.014Y12.21539
X111.506Y11.63139
X112.268Y9.144
X134.874Y10.668
X107.95Y74.676
X107.90237Y55.85101
X107.85375Y37.00031
X101.64521Y71.628
X106.68Y74.676
X107.696Y90.678
X106.92749Y55.372
X107.696Y72.39
X106.426Y36.83
X110.48349Y52.324
X118.11Y96.266
X120.904Y96.266
X111.76Y64.008
X111.76Y61.468
X111.506Y90.17
X111.506Y86.614
X109.982Y70.866
X109.982Y67.564
X111.49949Y51.562
X111.49949Y49.022
X94.996Y55.626
X92.202Y55.626
X119.634Y29.464
X123.952Y29.464
X131.318Y60.96
X131.05749Y57.658
X51.05166Y14.02518
X55.84572Y43.96257
X51.86767Y41.87154
X59.21177Y54.92771
X44.67658Y55.53972
X45.03358Y83.79408
X13.20917Y45.59459
X46.1046Y81.65206
X55.78066Y48.184
X53.55069Y53.65269
X46.5636Y54.0607
X48.90963Y46.1046
X50.54165Y44.62558
X20.45126Y48.17263
X47.99162Y48.96063
X118.872Y3.81
X63.5Y2.286
X96.52Y3.556
X107.95Y4.572
X111.76Y4.572
X90.17Y5.588
X60.325Y41.529
X55.372Y40.132
X96.877Y25.68101
X98.298Y11.938
X17.526Y48.006
X48.50163Y58.59976
X49.11364Y85.98711
X55.59072Y16.37121
X45.49259Y47.68562
X51.96967Y51.86767
X55.13171Y52.73468
X48.09362Y51.15366
X54.4177Y45.90059
X97.79Y20.95071
X107.95Y17.78
X98.298Y21.78871
X111.76Y18.034
X99.06Y22.37271
X115.062Y18.034
X50.13365Y52.37768
X55.18271Y47.02261
X104.80636Y22.59329
X118.62754Y17.79923
X126.07363Y17.90123
X126.94064Y14.43319
X122.86059Y17.90123
X105.69887Y22.8738
X98.86101Y24.513
X100.025Y25.09701
X114.3Y96.52
X88.392Y9.906
X81.28Y9.906
X122.428Y1.27
X122.428Y3.302
X130.91869Y1.02002
X130.91869Y3.44731
X41.05553Y45.33959
X109.982Y65.532
X111.76Y83.058
X111.76Y80.264
X108.458Y72.644
X101.8927Y56.896
X149.39377Y24.61935
X152.908Y41.148
X156.464Y39.60948
X147.066Y33.81952
X147.32Y29.718
X145.13688Y12.20435
X127.0Y89.44108
X101.94481Y31.496
X103.68085Y25.4
X117.856Y27.76415
X118.364Y46.45595
X118.618Y48.84239
X108.204Y53.848
X110.998Y57.15
X102.108Y29.464
X108.204Y34.798
X103.49849Y43.688
X156.21Y55.626
X156.21Y52.832
X139.446Y6.858
X135.636Y6.858
X145.288Y15.748
X145.288Y13.208
X135.89Y13.208
X110.744Y33.782
X110.744Y30.226
T04
X150.217Y20.08154
X105.62928Y52.832
X104.648Y42.164
X106.426Y61.705
X106.36655Y72.898
X97.536Y93.472
X105.664Y90.932
X90.424Y83.82
X100.076Y82.296
X93.74323Y82.31323
X113.85398Y82.567
X113.85398Y80.264
X113.84747Y44.958
X113.85398Y42.418
X131.60891Y37.084
X150.368Y13.36713
X113.792Y60.96
X113.792Y64.008
X106.172Y34.798
X100.084Y31.496
M30