G04 Layer: TopSolderMaskLayer*
G04 EasyEDA Pro v2.2.32.3, 2024-11-29 12:29:59*
G04 Gerber Generator version 0.3*
G04 Scale: 100 percent, Rotated: No, Reflected: No*
G04 Dimensions in millimeters*
G04 Leading zeros omitted, absolute positions, 3 integers and 5 decimals*
%FSLAX35Y35*%
%MOMM*%
%AMRoundRect*1,1,$1,$2,$3*1,1,$1,$4,$5*1,1,$1,0-$2,0-$3*1,1,$1,0-$4,0-$5*20,1,$1,$2,$3,$4,$5,0*20,1,$1,$4,$5,0-$2,0-$3,0*20,1,$1,0-$2,0-$3,0-$4,0-$5,0*20,1,$1,0-$4,0-$5,$2,$3,0*4,1,4,$2,$3,$4,$5,0-$2,0-$3,0-$4,0-$5,$2,$3,0*%
%ADD10RoundRect,0.09495X0.70833X-0.67833X-0.70833X-0.67833*%
%ADD11RoundRect,0.09495X-0.70833X0.67833X0.70833X0.67833*%
%ADD12RoundRect,0.09131X0.40514X-0.45514X-0.40514X-0.45514*%
%ADD13RoundRect,0.09131X-0.5725X0.20867X0.14094X0.59282*%
%ADD14RoundRect,0.09131X0.5708X-0.21326X-0.1457X-0.59167*%
%ADD15RoundRect,0.0902X0.57391X-0.20477X-0.1369X-0.59376*%
%ADD16RoundRect,0.09131X0.57391X-0.20477X-0.1369X-0.59376*%
%ADD17RoundRect,0.09131X-0.56594X0.22586X0.15877X0.58829*%
%ADD18RoundRect,0.09131X0.57344X-0.20607X-0.13825X-0.59345*%
%ADD19RoundRect,0.09131X0.57518X-0.20116X-0.13317X-0.59461*%
%ADD20RoundRect,0.09131X0.56594X-0.22586X-0.15877X-0.58829*%
%ADD21RoundRect,0.09131X-0.20306X-0.57451X-0.59417X0.13514*%
%ADD22RoundRect,0.09131X-0.40514X0.45514X0.40514X0.45514*%
%ADD23RoundRect,0.09368X-1.40396X0.55396X1.40396X0.55396*%
%ADD24RoundRect,0.09131X0.45514X0.40514X0.45514X-0.40514*%
%ADD25C,2.102*%
%ADD26RoundRect,0.09164X-0.40518X-0.40518X-0.40518X0.40518*%
%ADD27RoundRect,0.09387X-0.69237X-0.57013X-0.69237X0.57013*%
%ADD28RoundRect,0.09138X-0.40835X0.43712X0.40835X0.43712*%
%ADD29RoundRect,0.09387X0.69237X0.57013X0.69237X-0.57013*%
%ADD30RoundRect,0.09387X-0.57013X0.69237X0.57013X0.69237*%
%ADD31RoundRect,0.09428X-0.60742X0.85416X0.60742X0.85416*%
%ADD32RoundRect,0.09138X0.40835X-0.43712X-0.40835X-0.43712*%
%ADD33RoundRect,0.09387X0.57013X-0.69237X-0.57013X-0.69237*%
%ADD34RoundRect,0.09368X-1.25396X0.55396X1.25396X0.55396*%
%ADD35RoundRect,0.09754X-1.17203X1.80203X1.17203X1.80203*%
%ADD36RoundRect,0.08752X0.30625X0.75625X0.30625X-0.75625*%
%ADD37RoundRect,0.09568X-1.65217X1.05217X1.65217X1.05217*%
%ADD38C,1.8016*%
%ADD39RoundRect,0.09562X0.76499X0.85299X0.76499X-0.85299*%
%ADD40RoundRect,0.08449X-0.20856X0.83356X0.20856X0.83356*%
%ADD41RoundRect,0.0879X-0.71248X-0.05714X0.44949X0.55575*%
%ADD42C,1.9016*%
%ADD43O,0.70361X2.04259*%
%ADD44RoundRect,0.09765X-1.55098X1.20698X1.55098X1.20698*%
%ADD45RoundRect,0.09233X0.45964X-0.61463X-0.45964X-0.61463*%
%ADD46O,2.1466X0.68961*%
%ADD47C,2.1016*%
%ADD48RoundRect,0.08109X-0.66026X-0.16026X-0.66026X0.16026*%
%ADD49O,1.902X1.302*%
%ADD50O,2.102X1.302*%
%ADD51RoundRect,0.09495X0.67833X0.70833X0.67833X-0.70833*%
%ADD52RoundRect,0.0879X-0.71108X-0.07255X0.43735X0.56535*%
%ADD53RoundRect,0.0879X-0.71215X-0.06112X0.44638X0.55825*%
%ADD54RoundRect,0.0879X-0.7125X-0.0569X0.44968X0.55559*%
%ADD55RoundRect,0.08168X0.16747X0.43046X0.16747X-0.43046*%
G75*


G04 Rect Start*
G36*
G01X111296Y8153926D02*
G01X578908Y8153926D01*
G02X1055158Y7677676I0J-476250D01*
G02X578908Y7201426I-476250J0D01*
G01X111296Y7201426D01*
G02X-364954Y7677676I0J476250D01*
G02X111296Y8153926I476250J0D01*
G37*
G04 Rect End*

G04 Pad Start*
G54D10*
G01X15210427Y5039969D03*
G01X15410426Y5039969D03*
G54D11*
G01X15406262Y3960948D03*
G01X15206262Y3960948D03*
G54D10*
G01X12969592Y3996862D03*
G01X13169591Y3996862D03*
G54D11*
G01X13169591Y2701463D03*
G01X12969592Y2701463D03*
G54D12*
G01X10674198Y1143000D03*
G01X10814202Y1143000D03*
G54D11*
G01X10844200Y1371600D03*
G01X10644200Y1371600D03*
G54D13*
G01X4786035Y4554388D03*
G01X4662765Y4488012D03*
G54D14*
G01X5134660Y4529568D03*
G01X5258458Y4594955D03*
G54D16*
G01X5452044Y1202858D03*
G01X5574865Y1270062D03*
G54D17*
G01X2094612Y4730306D03*
G01X1969388Y4667694D03*
G54D18*
G01X4666278Y8060336D03*
G01X4789244Y8127273D03*
G54D19*
G01X4739407Y5452404D03*
G01X4861793Y5520396D03*
G54D20*
G01X5513741Y4938561D03*
G01X5638965Y5001173D03*
G54D21*
G01X5274807Y5319105D03*
G01X5342393Y5196495D03*
G54D22*
G01X11524100Y6547338D03*
G01X11384096Y6547338D03*
G54D23*
G01X11311171Y6947226D03*
G01X11731186Y6947226D03*
G54D22*
G01X11544941Y2776415D03*
G01X11404936Y2776415D03*
G54D23*
G01X11327455Y3182815D03*
G01X11747469Y3182815D03*
G54D24*
G01X11099800Y7346798D03*
G01X11099800Y7486802D03*
G01X11110221Y3594110D03*
G01X11110221Y3734115D03*
G54D25*
G01X9441561Y9039987D03*
G01X9441561Y8740013D03*
G01X9141587Y9039987D03*
G01X9141587Y8740013D03*
G01X8841613Y9039987D03*
G01X8841613Y8740013D03*
G01X8541639Y9039987D03*
G01X8541639Y8740013D03*
G54D26*
G01X15622118Y2325740D03*
G01X15782011Y2326426D03*
G01X15623827Y3091911D03*
G01X15783720Y3092597D03*
G01X15624572Y2835766D03*
G01X15784465Y2836452D03*
G54D27*
G01X10243859Y1982242D03*
G01X10243859Y1782243D03*
G01X10595763Y1987342D03*
G01X10595763Y1787343D03*
G54D28*
G01X15087524Y2583299D03*
G01X14936851Y2583299D03*
G01X15088045Y2323476D03*
G01X14937372Y2323476D03*
G54D29*
G01X10261600Y204800D03*
G01X10261600Y404800D03*
G01X10591800Y204800D03*
G01X10591800Y404800D03*
G01X10972800Y204800D03*
G01X10972800Y404800D03*
G01X11353800Y204800D03*
G01X11353800Y404800D03*
G01X11734800Y204800D03*
G01X11734800Y404800D03*
G01X12065000Y204800D03*
G01X12065000Y404800D03*
G01X12446000Y204800D03*
G01X12446000Y404800D03*
G01X12827000Y204800D03*
G01X12827000Y404800D03*
G54D30*
G01X12286984Y882629D03*
G01X12086984Y882629D03*
G01X12292084Y1265134D03*
G01X12092084Y1265134D03*
G54D27*
G01X12834692Y1997542D03*
G01X12834692Y1797543D03*
G01X12463357Y1992019D03*
G01X12463357Y1792019D03*
G01X12076490Y1994928D03*
G01X12076490Y1794928D03*
G01X11717778Y1992442D03*
G01X11717778Y1792443D03*
G01X11352381Y1994052D03*
G01X11352381Y1794053D03*
G01X10983368Y1992442D03*
G01X10983368Y1792443D03*
G54D31*
G01X10479817Y7392702D03*
G01X10184059Y7392702D03*
G01X10511079Y3632200D03*
G01X10215321Y3632200D03*
G54D29*
G01X14391098Y343248D03*
G01X14391098Y543248D03*
G54D27*
G01X14099976Y2141508D03*
G01X14099976Y1941508D03*
G54D32*
G01X14936316Y3093643D03*
G01X15086989Y3093643D03*
G54D29*
G01X14086298Y343248D03*
G01X14086298Y543248D03*
G54D32*
G01X14936592Y2837390D03*
G01X15087264Y2837390D03*
G54D33*
G01X12726349Y4876800D03*
G01X12926349Y4876800D03*
G01X13056549Y5181600D03*
G01X13256549Y5181600D03*
G01X13437549Y5537200D03*
G01X13637549Y5537200D03*
G54D31*
G01X10993679Y7772400D03*
G01X10697921Y7772400D03*
G01X10998239Y4014502D03*
G01X10702481Y4014502D03*
G54D33*
G01X12795167Y8642889D03*
G01X12995167Y8642889D03*
G01X13430167Y8642889D03*
G01X13630167Y8642889D03*
G54D34*
G01X15614015Y4273639D03*
G01X15614015Y4503636D03*
G01X15614015Y4733633D03*
G54D35*
G01X15020023Y4503636D03*
G54D34*
G01X13442786Y3157265D03*
G01X13442786Y3387262D03*
G01X13442786Y3617259D03*
G54D35*
G01X12848794Y3387262D03*
G54D36*
G01X14423992Y919213D03*
G01X14323992Y919188D03*
G01X14223992Y919188D03*
G01X14123993Y919188D03*
G01X14023993Y919213D03*
G01X14023993Y1519212D03*
G01X14123993Y1519212D03*
G01X14223992Y1519212D03*
G01X14323992Y1519212D03*
G01X14423992Y1519212D03*
G54D37*
G01X14223992Y1219187D03*
G54D38*
G01X12416691Y3880338D03*
G01X12416691Y4134338D03*
G01X12416691Y4388338D03*
G01X12416691Y4642338D03*
G01X12416691Y4896338D03*
G01X12416691Y5150338D03*
G01X12416691Y5404338D03*
G01X12416691Y5658338D03*
G01X12416691Y5912338D03*
G01X12416691Y6166338D03*
G01X12416691Y6420338D03*
G01X12416691Y6674338D03*
G01X12416691Y6928338D03*
G01X12416691Y7182338D03*
G01X12416691Y7436338D03*
G01X12416691Y7690338D03*
G01X12416691Y7944338D03*
G01X12416691Y8198338D03*
G01X12416691Y8452338D03*
G01X12416691Y8706338D03*
G01X12416691Y8960338D03*
G01X12416691Y9214338D03*
G01X12416691Y9468338D03*
G54D39*
G01X12416691Y9722338D03*
G54D38*
G01X13947207Y3880338D03*
G01X13947207Y4134338D03*
G01X13947207Y4388338D03*
G01X13947207Y4642338D03*
G01X13947207Y4896338D03*
G01X13947207Y5150338D03*
G01X13947207Y5404338D03*
G01X13947207Y5658338D03*
G01X13947207Y5912338D03*
G01X13947207Y6166338D03*
G01X13947207Y6420338D03*
G01X13947207Y6674338D03*
G01X13947207Y6928338D03*
G01X13947207Y7182338D03*
G01X13947207Y7436338D03*
G01X13947207Y7690338D03*
G01X13947207Y7944338D03*
G01X13947207Y8198338D03*
G01X13947207Y8452338D03*
G01X13947207Y8706338D03*
G01X13947207Y8960338D03*
G01X13947207Y9214338D03*
G01X13947207Y9468338D03*
G54D39*
G01X13947207Y9722338D03*
G54D40*
G01X11372113Y764540D03*
G01X11307115Y764540D03*
G01X11242116Y764540D03*
G01X11177118Y764540D03*
G01X11112119Y764540D03*
G01X11047120Y764540D03*
G01X11437087Y764540D03*
G01X11762080Y764540D03*
G01X11697106Y764540D03*
G01X11632108Y764540D03*
G01X11567109Y764540D03*
G01X11502111Y764540D03*
G01X11307115Y1369060D03*
G01X11242116Y1369060D03*
G01X11177118Y1369060D03*
G01X11112119Y1369060D03*
G01X11047120Y1369060D03*
G01X11372113Y1369060D03*
G01X11762080Y1369060D03*
G01X11697106Y1369060D03*
G01X11632108Y1369060D03*
G01X11567109Y1369060D03*
G01X11502111Y1369060D03*
G01X11437087Y1369060D03*
G54D41*
G01X5234610Y4320777D03*
G01X5278939Y4236752D03*
G01X5323267Y4152727D03*
G01X5534442Y4264134D03*
G01X5490661Y4348448D03*
G01X5445785Y4432184D03*
G01X5183810Y1552177D03*
G01X5228139Y1468152D03*
G01X5272467Y1384127D03*
G01X5483642Y1495534D03*
G01X5439861Y1579848D03*
G01X5394985Y1663584D03*
G54D42*
G01X15250807Y6409788D03*
G01X15250807Y6159598D03*
G01X15250807Y5909662D03*
G01X15250807Y5659726D03*
G54D41*
G01X4472610Y5768577D03*
G01X4516939Y5684552D03*
G01X4561267Y5600527D03*
G01X4772442Y5711934D03*
G01X4728661Y5796248D03*
G01X4683785Y5879984D03*
G01X5564810Y5412977D03*
G01X5609139Y5328952D03*
G01X5653467Y5244927D03*
G01X5864642Y5356334D03*
G01X5820861Y5440648D03*
G01X5775985Y5524384D03*
G54D43*
G01X10325100Y6484341D03*
G01X10452100Y6484341D03*
G01X10579100Y6484341D03*
G01X10706100Y6484341D03*
G01X10325100Y7028459D03*
G01X10452100Y7028459D03*
G01X10579100Y7028459D03*
G01X10706100Y7028459D03*
G54D44*
G01X10515600Y6756400D03*
G54D43*
G01X10368085Y2726443D03*
G01X10495085Y2726443D03*
G01X10622085Y2726443D03*
G01X10749085Y2726443D03*
G01X10368085Y3270561D03*
G01X10495085Y3270561D03*
G01X10622085Y3270561D03*
G01X10749085Y3270561D03*
G54D44*
G01X10558585Y2998502D03*
G54D45*
G01X14857043Y3381952D03*
G01X15184063Y3381952D03*
G54D46*
G01X12941614Y9325108D03*
G01X12941614Y9198108D03*
G01X12941614Y9071108D03*
G01X12941614Y8944108D03*
G01X13496096Y9325108D03*
G01X13496096Y9198108D03*
G01X13496096Y9071108D03*
G01X13496096Y8944108D03*
G54D47*
G01X7661302Y8396988D03*
G01X7407303Y8396241D03*
G01X2006503Y7863041D03*
G01X1752512Y7865197D03*
G01X7972945Y2191261D03*
G01X8226940Y2189646D03*
G01X2368325Y1627392D03*
G01X2622265Y1632930D03*
G54D48*
G01X15251222Y1495432D03*
G01X15251222Y1545445D03*
G01X15251222Y1595432D03*
G01X15251222Y1645445D03*
G01X15251222Y1695432D03*
G01X15251222Y1745445D03*
G01X15251222Y1795406D03*
G01X15251222Y1845444D03*
G01X15251222Y1335438D03*
G01X15251222Y1365435D03*
G01X15251222Y1415448D03*
G01X15251222Y1445445D03*
G01X15251222Y1895432D03*
G01X15251222Y1925454D03*
G01X15251222Y1975442D03*
G01X15251222Y2005439D03*
G54D49*
G01X15746048Y2102950D03*
G54D50*
G01X15328057Y2102950D03*
G01X15328057Y1237927D03*
G54D49*
G01X15746048Y1237927D03*
G54D23*
G01X11309218Y5045482D03*
G01X11729233Y5045482D03*
G54D43*
G01X10349849Y4583248D03*
G01X10476849Y4583248D03*
G01X10603849Y4583248D03*
G01X10730849Y4583248D03*
G01X10349849Y5127367D03*
G01X10476849Y5127367D03*
G01X10603849Y5127367D03*
G01X10730849Y5127367D03*
G54D44*
G01X10540349Y4855307D03*
G54D31*
G01X10485028Y5496169D03*
G01X10189270Y5496169D03*
G54D22*
G01X11526053Y4645595D03*
G01X11386049Y4645595D03*
G01X11525402Y8407400D03*
G01X11385398Y8407400D03*
G54D23*
G01X11312429Y8820255D03*
G01X11732444Y8820255D03*
G54D24*
G01X11099800Y9226398D03*
G01X11099800Y9366402D03*
G01X11099149Y5450265D03*
G01X11099149Y5590269D03*
G54D51*
G01X14691500Y1222048D03*
G01X14691500Y1422048D03*
G54D25*
G01X15073857Y7537415D03*
G01X14773883Y7537415D03*
G01X15073857Y7837389D03*
G01X14773883Y7837389D03*
G01X15073857Y8137363D03*
G01X14773883Y8137363D03*
G01X15073857Y8437337D03*
G01X14773883Y8437337D03*
G01X15073857Y7237441D03*
G01X14773883Y7237187D03*
G54D26*
G01X15625334Y2582305D03*
G01X15785227Y2582991D03*
G54D31*
G01X10485679Y9271000D03*
G01X10189921Y9271000D03*
G01X10993679Y9652000D03*
G01X10697921Y9652000D03*
G01X10993028Y5870656D03*
G01X10697270Y5870656D03*
G54D43*
G01X10350500Y8363941D03*
G01X10477500Y8363941D03*
G01X10604500Y8363941D03*
G01X10731500Y8363941D03*
G01X10350500Y8908059D03*
G01X10477500Y8908059D03*
G01X10604500Y8908059D03*
G01X10731500Y8908059D03*
G54D44*
G01X10541000Y8636000D03*
G54D52*
G01X1373236Y4698519D03*
G01X1419372Y4615473D03*
G01X1465509Y4532428D03*
G01X1674223Y4648380D03*
G01X1628628Y4731727D03*
G01X1581949Y4814471D03*
G54D53*
G01X4169415Y4678618D03*
G01X4214200Y4594836D03*
G01X4258986Y4511054D03*
G01X4469550Y4623610D03*
G01X4425311Y4707684D03*
G01X4379980Y4791175D03*
G54D54*
G01X4546983Y8514749D03*
G01X4591276Y8430706D03*
G01X4635569Y8346662D03*
G01X4846790Y8457981D03*
G01X4803046Y8542314D03*
G01X4758204Y8626068D03*
G01X4858087Y5031404D03*
G01X4902380Y4947361D03*
G01X4946673Y4863317D03*
G01X5157894Y4974636D03*
G01X5114150Y5058969D03*
G01X5069308Y5142723D03*
G54D55*
G01X10755401Y7373043D03*
G01X10820400Y7373043D03*
G01X10885399Y7373043D03*
G01X10885399Y7562157D03*
G01X10820400Y7562157D03*
G01X10755401Y7562157D03*
G01X10755401Y9252643D03*
G01X10820400Y9252643D03*
G01X10885399Y9252643D03*
G01X10885399Y9441757D03*
G01X10820400Y9441757D03*
G01X10755401Y9441757D03*
G01X10754750Y5497351D03*
G01X10819749Y5497351D03*
G01X10884748Y5497351D03*
G01X10884748Y5686464D03*
G01X10819749Y5686464D03*
G01X10754750Y5686464D03*
G01X10753448Y3608633D03*
G01X10818447Y3608633D03*
G01X10883446Y3608633D03*
G01X10883446Y3797746D03*
G01X10818447Y3797746D03*
G01X10753448Y3797746D03*
G04 Pad End*

M02*

