G04 Layer: DrillDrawingLayer*
G04 EasyEDA Pro v2.2.32.3, 2024-11-29 12:29:59*
G04 Gerber Generator version 0.3*
G04 Scale: 100 percent, Rotated: No, Reflected: No*
G04 Dimensions in millimeters*
G04 Leading zeros omitted, absolute positions, 3 integers and 5 decimals*
%FSLAX35Y35*%
%MOMM*%
%AMIconRect*4,1,4,0.2,-0.2,-0.2,-0.2,-0.2,0.2,0.2,0.2,0.2,-0.2,0*4,0,4,0.166667,-0.166667,0.166667,0.166667,-0.166667,0.166667,-0.166667,-0.166667,0.166667,-0.166667,0*%
%AMIconTriangle*4,1,3,-0.242567,0.171767,0.242567,0.171767,0,-0.2706,-0.242567,0.171767,0*4,0,3,-0.189767,0.1386,0,-0.1953,0.190167,0.1386,-0.189767,0.1386,0*%
%AMIconStar6*4,1,12,0.0862,0.1492,0.213233,0.123367,0.172367,0,0.213233,-0.1229,0.0862,-0.148733,0,-0.245767,-0.085767,-0.148733,-0.213267,-0.1229,-0.171933,0,-0.213267,0.1229,-0.085767,0.1492,0,0.245767,0.0862,0.1492,0*4,0,12,-0.000333,0.195333,-0.064333,0.122667,-0.169667,0.097667,-0.138333,-0.005333,-0.169667,-0.098,-0.064333,-0.122667,-0.000333,-0.195667,0.064333,-0.122667,0.169667,-0.098,0.138667,0.005,0.169667,0.098,0.064333,0.122333,-0.000333,0.195333,0*%
%AMIconStar4*4,1,8,-0.222667,0.222667,0,0.144667,0.222667,0.222667,0.144667,0,0.222667,-0.222667,0,-0.144667,-0.217433,-0.222667,-0.144667,0,-0.222667,0.222667,0*4,0,8,0.166667,-0.166667,0.108,0,0.166667,0.166667,0,0.108,-0.166667,0.166667,-0.108,0,-0.166667,-0.166667,0,-0.108,0.166667,-0.166667,0*%
%AMIconPlus*4,1,12,0.124,-0.2,-0.124,-0.2,-0.124,-0.124,-0.2,-0.124,-0.2,0.124,-0.124,0.124,-0.124,0.2,0.124,0.2,0.124,0.124,0.2,0.124,0.2,-0.124,0.124,-0.124,0.124,-0.2,0*4,0,12,0.090667,-0.166667,0.090667,-0.090667,0.166667,-0.090667,0.166667,0.090667,0.090667,0.090667,0.090667,0.166667,-0.090667,0.166667,-0.090667,0.090667,-0.166667,0.090667,-0.166667,-0.090667,-0.090667,-0.090667,-0.090667,-0.166667,0.090667,-0.166667,0*%
%AMIconX*4,1,16,0.2,-0.2,0.054533,-0.2,0,-0.145467,-0.054533,-0.2,-0.2,-0.2,-0.2,-0.054533,-0.145467,0,-0.2,0.054533,-0.2,0.2,-0.054533,0.2,0,0.145467,0.054533,0.2,0.2,0.2,0.2,0.054533,0.145467,0,0.2,-0.054533,0.2,-0.2,0*4,0,16,0.1668,-0.1664,0.1668,-0.068467,0.097933,0.000067,0.1668,0.068467,0.1668,0.1665,0.068467,0.1665,0,0.097933,-0.068467,0.1665,-0.1668,0.1665,-0.1668,0.068467,-0.097933,0.000067,-0.1668,-0.068467,-0.1668,-0.1664,-0.068467,-0.1664,0,-0.097933,0.068467,-0.1664,0.1668,-0.1664,0*%
%ADD10IconRect*%
%ADD11C,0.44X0.373333*%
%ADD12IconTriangle*%
%ADD13IconStar6*%
%ADD14IconStar4*%
%ADD15IconPlus*%
%ADD16IconX*%
G75*


G04 Drill Drawing Start*
G54D10*
G01X15746058Y1237942D03*
G01X15746058Y2102934D03*
G54D11*
G01X15328057Y1237927D03*
G01X15328057Y2102950D03*
G54D12*
G01X190500Y7823200D03*
G01X203200Y7518400D03*
G01X419100Y7823200D03*
G01X431800Y7518400D03*
G01X647700Y7823200D03*
G01X660400Y7518400D03*
G54D13*
G01X9042400Y8382000D03*
G01X9374323Y8231323D03*
G01X9753600Y9347200D03*
G01X10007600Y8229600D03*
G01X10008400Y3149600D03*
G01X10464800Y4216400D03*
G01X10562928Y5283200D03*
G01X10566400Y9093200D03*
G01X10617200Y3479800D03*
G01X10636655Y7289800D03*
G01X10642600Y6170500D03*
G01X11379200Y6096000D03*
G01X11379200Y6400800D03*
G01X11384747Y4495800D03*
G01X11385398Y4241800D03*
G01X11385398Y8026400D03*
G01X11385398Y8256700D03*
G01X13160891Y3708400D03*
G01X15021700Y2008154D03*
G01X15036800Y1336713D03*
G54D14*
G01X1752512Y7865197D03*
G01X2006503Y7863041D03*
G01X2368325Y1627392D03*
G01X2622265Y1632930D03*
G01X7407303Y8396241D03*
G01X7661302Y8396987D03*
G01X7972945Y2191261D03*
G01X8226940Y2189646D03*
G01X8541639Y8740013D03*
G01X8541639Y9039987D03*
G01X8841613Y8740013D03*
G01X8841613Y9039987D03*
G01X9141587Y8740013D03*
G01X9141587Y9039987D03*
G01X9441561Y8740013D03*
G01X9441561Y9039987D03*
G01X14773883Y7237187D03*
G01X14773883Y7537415D03*
G01X14773883Y7837389D03*
G01X14773883Y8137363D03*
G01X14773883Y8437337D03*
G01X15073857Y7237441D03*
G01X15073857Y7537415D03*
G01X15073857Y7837389D03*
G01X15073857Y8137363D03*
G01X15073857Y8437337D03*
G54D15*
G01X12416691Y3880338D03*
G01X12416691Y4134338D03*
G01X12416691Y4388338D03*
G01X12416691Y4642338D03*
G01X12416691Y4896338D03*
G01X12416691Y5150338D03*
G01X12416691Y5404338D03*
G01X12416691Y5658338D03*
G01X12416691Y5912338D03*
G01X12416691Y6166338D03*
G01X12416691Y6420338D03*
G01X12416691Y6674338D03*
G01X12416691Y6928338D03*
G01X12416691Y7182338D03*
G01X12416691Y7436338D03*
G01X12416691Y7690338D03*
G01X12416691Y7944338D03*
G01X12416691Y8198338D03*
G01X12416691Y8452338D03*
G01X12416691Y8706338D03*
G01X12416691Y8960338D03*
G01X12416691Y9214338D03*
G01X12416691Y9468338D03*
G01X12416691Y9722338D03*
G01X13947207Y3880338D03*
G01X13947207Y4134338D03*
G01X13947207Y4388338D03*
G01X13947207Y4642338D03*
G01X13947207Y4896338D03*
G01X13947207Y5150338D03*
G01X13947207Y5404338D03*
G01X13947207Y5658338D03*
G01X13947207Y5912338D03*
G01X13947207Y6166338D03*
G01X13947207Y6420338D03*
G01X13947207Y6674338D03*
G01X13947207Y6928338D03*
G01X13947207Y7182338D03*
G01X13947207Y7436338D03*
G01X13947207Y7690338D03*
G01X13947207Y7944338D03*
G01X13947207Y8198338D03*
G01X13947207Y8452338D03*
G01X13947207Y8706338D03*
G01X13947207Y8960338D03*
G01X13947207Y9214338D03*
G01X13947207Y9468338D03*
G01X13947207Y9722338D03*
G01X15250807Y5659726D03*
G01X15250807Y5909662D03*
G01X15250807Y6159598D03*
G01X15250807Y6409788D03*
G54D16*
G01X1320917Y4559459D03*
G01X1752600Y4800600D03*
G01X2045126Y4817263D03*
G01X4105553Y4533959D03*
G01X4467658Y5553972D03*
G01X4503358Y8379408D03*
G01X4549259Y4768562D03*
G01X4610460Y8165206D03*
G01X4656360Y5406070D03*
G01X4799162Y4896063D03*
G01X4809362Y5115366D03*
G01X4850163Y5859976D03*
G01X4890963Y4610460D03*
G01X4911364Y8598711D03*
G01X5013365Y5237768D03*
G01X5054165Y4462558D03*
G01X5105166Y1402518D03*
G01X5186767Y4187154D03*
G01X5196967Y5186767D03*
G01X5355069Y5365269D03*
G01X5441770Y4590059D03*
G01X5513171Y5273468D03*
G01X5518271Y4702261D03*
G01X5537200Y4013200D03*
G01X5559072Y1637121D03*
G01X5578066Y4818400D03*
G01X5584572Y4396257D03*
G01X5921177Y5492771D03*
G01X6032500Y4152900D03*
G01X6350000Y228600D03*
G01X8128000Y990600D03*
G01X8839200Y990600D03*
G01X9017000Y558800D03*
G01X9220200Y5562600D03*
G01X9499600Y5562600D03*
G01X9652000Y355600D03*
G01X9687700Y2568101D03*
G01X9779000Y2095071D03*
G01X9829800Y1193800D03*
G01X9829800Y2178871D03*
G01X9886101Y2451300D03*
G01X9906000Y2237271D03*
G01X10002500Y2509701D03*
G01X10164521Y7162800D03*
G01X10189270Y5689600D03*
G01X10189921Y9474200D03*
G01X10194481Y3149600D03*
G01X10210800Y2946400D03*
G01X10210800Y8363941D03*
G01X10349849Y4368800D03*
G01X10368085Y2540000D03*
G01X10464800Y1371600D03*
G01X10465613Y6706387D03*
G01X10465613Y6806387D03*
G01X10480636Y2259329D03*
G01X10490362Y4805295D03*
G01X10490362Y4905294D03*
G01X10491013Y8585987D03*
G01X10491013Y8685987D03*
G01X10508598Y2948489D03*
G01X10508598Y3048489D03*
G01X10565613Y6706387D03*
G01X10565613Y6806387D03*
G01X10569887Y2287380D03*
G01X10590362Y4805295D03*
G01X10590362Y4905294D03*
G01X10591013Y8585987D03*
G01X10591013Y8685987D03*
G01X10608598Y2948489D03*
G01X10608598Y3048489D03*
G01X10642600Y3683000D03*
G01X10668000Y7467600D03*
G01X10692749Y5537200D03*
G01X10769600Y7239000D03*
G01X10769600Y9067800D03*
G01X10785375Y3700031D03*
G01X10790237Y5585101D03*
G01X10795000Y457200D03*
G01X10795000Y1778000D03*
G01X10795000Y7467600D03*
G01X10820400Y3479800D03*
G01X10820400Y5384800D03*
G01X10845800Y7264400D03*
G01X10947400Y764540D03*
G01X10998200Y6553200D03*
G01X10998200Y6756400D03*
G01X10998200Y7086600D03*
G01X11048349Y5232400D03*
G01X11074400Y3022600D03*
G01X11074400Y3378200D03*
G01X11099800Y5715000D03*
G01X11099800Y7594600D03*
G01X11149949Y4902200D03*
G01X11149949Y5156200D03*
G01X11150600Y1163139D03*
G01X11150600Y8661400D03*
G01X11150600Y9017000D03*
G01X11176000Y457200D03*
G01X11176000Y1803400D03*
G01X11176000Y6146800D03*
G01X11176000Y6400800D03*
G01X11176000Y8026400D03*
G01X11176000Y8305800D03*
G01X11201400Y1221539D03*
G01X11201400Y3835400D03*
G01X11226800Y914400D03*
G01X11242116Y1498600D03*
G01X11328400Y9366402D03*
G01X11430000Y9652000D03*
G01X11506200Y1803400D03*
G01X11658600Y8401548D03*
G01X11760200Y6527800D03*
G01X11785600Y2776415D03*
G01X11811000Y9626600D03*
G01X11836400Y764540D03*
G01X11836400Y4645595D03*
G01X11836400Y6934200D03*
G01X11861800Y4884239D03*
G01X11862754Y1779923D03*
G01X11887200Y381000D03*
G01X11938000Y8820255D03*
G01X11963400Y2946400D03*
G01X11963400Y3124200D03*
G01X12090400Y9626600D03*
G01X12242800Y127000D03*
G01X12242800Y330200D03*
G01X12286059Y1790123D03*
G01X12395200Y2946400D03*
G01X12607363Y1790123D03*
G01X12694064Y1443319D03*
G01X12700000Y8944108D03*
G01X12830691Y3938248D03*
G01X13091869Y102002D03*
G01X13091869Y344731D03*
G01X13105749Y5765800D03*
G01X13131800Y6096000D03*
G01X13364091Y2642848D03*
G01X13442786Y2946400D03*
G01X13487400Y1066800D03*
G01X13563600Y685800D03*
G01X13589000Y1320800D03*
G01X13758767Y8642889D03*
G01X13944600Y685800D03*
G01X14386700Y229848D03*
G01X14513688Y1220435D03*
G01X14528800Y1320800D03*
G01X14528800Y1574800D03*
G01X14539100Y945861D03*
G01X14706600Y3381952D03*
G01X14732000Y2971800D03*
G01X14938108Y2730886D03*
G01X14939377Y2461935D03*
G01X15001920Y5035788D03*
G01X15290800Y4114800D03*
G01X15334615Y4263288D03*
G01X15621000Y5283200D03*
G01X15621000Y5562600D03*
G01X15646400Y3960948D03*
G01X15920020Y2582991D03*
G04 Drill Drawing End*

M02*

