<?xml version="1.0" encoding="UTF-8" standalone="no"?>
<!-- Created with Inkscape (http://www.inkscape.org/) -->

<svg
   width="210mm"
   height="297mm"
   viewBox="0 0 210 297"
   version="1.1"
   id="svg1"
   xml:space="preserve"
   inkscape:version="1.3.2 (091e20e, 2023-11-25, custom)"
   sodipodi:docname="protective_plate.svg"
   xmlns:inkscape="http://www.inkscape.org/namespaces/inkscape"
   xmlns:sodipodi="http://sodipodi.sourceforge.net/DTD/sodipodi-0.dtd"
   xmlns="http://www.w3.org/2000/svg"
   xmlns:svg="http://www.w3.org/2000/svg"><sodipodi:namedview
     id="namedview1"
     pagecolor="#ffffff"
     bordercolor="#000000"
     borderopacity="0.25"
     inkscape:showpageshadow="2"
     inkscape:pageopacity="0.0"
     inkscape:pagecheckerboard="0"
     inkscape:deskcolor="#d1d1d1"
     inkscape:document-units="mm"
     inkscape:zoom="2.0686841"
     inkscape:cx="385.75246"
     inkscape:cy="457.53722"
     inkscape:window-width="1920"
     inkscape:window-height="1017"
     inkscape:window-x="-8"
     inkscape:window-y="-8"
     inkscape:window-maximized="1"
     inkscape:current-layer="layer1" /><defs
     id="defs1"><marker
       id="DistanceX"
       orient="auto"
       refX="0.0"
       refY="0.0"
       style="overflow:visible"><path
         d="M 3,-3 L -3,3 M 0,-5 L  0,5"
         style="stroke:#000000; stroke-width:0.5"
         id="path1" /></marker><pattern
       id="Hatch"
       patternUnits="userSpaceOnUse"
       width="8"
       height="8"
       x="0"
       y="0"><path
         d="M8 4 l-4,4"
         stroke="#000000"
         stroke-width="0.25"
         linecap="square"
         id="path2" /><path
         d="M6 2 l-4,4"
         stroke="#000000"
         stroke-width="0.25"
         linecap="square"
         id="path3" /><path
         d="M4 0 l-4,4"
         stroke="#000000"
         stroke-width="0.25"
         linecap="square"
         id="path4" /></pattern><symbol
       id="*Model_Space" /><symbol
       id="*Paper_Space" /><symbol
       id="*Paper_Space0" /></defs><g
     inkscape:label="Lag 1"
     inkscape:groupmode="layer"
     id="layer1"><g
       inkscape:label="Board-Outline-Layer"
       id="g5"
       transform="matrix(0.26458333,0,0,0.26458333,22.659279,-103.36007)"
       style="stroke-width:1.00000001;stroke-dasharray:none"><path
         d="M 0,1103.622 V 763.46385 A 18.90457,18.90457 0 0 1 18.897676,744.56617 H 585.82794 v 0 a 18.90457,18.90457 0 0 1 18.89768,18.89768 v 0 340.15815 0 a 18.90457,18.90457 0 0 1 -18.89768,18.8977 v 0 H 18.897676 A 18.90457,18.90457 0 0 1 0,1103.622 Z"
         style="fill:none;stroke:#000000;stroke-width:1.00000001;stroke-dasharray:none"
         id="path5" /></g><path
       d="m 174.16958,186.5229 h 3.2 z"
       style="fill:#000000;stroke-width:0.26458333;stroke-dasharray:none"
       id="path86" /><path
       d="m 174.16958,186.5229 a 1.6000029,1.6000029 0 0 0 3.2,0 1.6000029,1.6000029 0 0 0 -3.2,0 z"
       style="fill:none;stroke:#000000;stroke-width:0.26458333;stroke-dasharray:none"
       id="path87" /><path
       d="m 174.1464,100.45887 h 3.2 z"
       style="fill:#000000;stroke-width:0.26458333;stroke-dasharray:none"
       id="path88" /><path
       d="m 174.1464,100.45887 a 1.6000029,1.6000029 0 0 0 3.2,0 1.6000029,1.6000029 0 0 0 -3.2,0 z"
       style="fill:none;stroke:#000000;stroke-width:0.26458333;stroke-dasharray:none"
       id="path89" /><path
       d="m 28.18222,100.45887 h 3.200005 z"
       style="fill:#000000;stroke-width:0.26458333;stroke-dasharray:none"
       id="path90" /><path
       d="m 28.18222,100.45887 a 1.6000026,1.6000026 0 0 0 3.200005,0 v 0 a 1.6000026,1.6000026 0 0 0 -3.200005,0"
       style="fill:none;stroke:#000000;stroke-width:0.26458333;stroke-dasharray:none"
       id="path91" /><path
       d="m 28.182223,186.49716 h 3.200005 z"
       style="fill:#000000;stroke-width:0.26458333;stroke-dasharray:none"
       id="path92" /><path
       d="m 28.182223,186.49716 a 1.6000026,1.6000026 0 0 0 3.200005,0 v 0 a 1.6000026,1.6000026 0 0 0 -3.200005,0"
       style="fill:none;stroke:#000000;stroke-width:0.26458333;stroke-dasharray:none"
       id="path93" /><path
       d="m 171.76957,186.5229 h 8.00002 z"
       style="fill:#000000;stroke-width:0.26458333;stroke-dasharray:none"
       id="path182" /><path
       d="m 171.74639,100.45887 h 8.00002 z"
       style="fill:#000000;stroke-width:0.26458333;stroke-dasharray:none"
       id="path184" /><path
       d="M 25.782215,100.45887 H 33.78223 Z"
       style="fill:#000000;stroke-width:0.26458333;stroke-dasharray:none"
       id="path186" /><path
       d="m 25.782218,186.49716 h 8.000015 z"
       style="fill:#000000;stroke-width:0.26458333;stroke-dasharray:none"
       id="path188" /><g
       inkscape:label="0"
       id="g1164"
       transform="matrix(0.26458333,0,0,0.26458333,22.659279,-103.36007)"
       style="stroke-width:1.00000001;stroke-dasharray:none" /></g></svg>
