999
"DXF R12 Output" (www.mydxf.blogspot.com)
 0 
SECTION
 2 
HEADER
 9 
$ACADVER
 1 
AC1009
 9 
$EXTMIN
 10 
 0 
 20 
 0 
 9 
$EXTMAX
 10 
 8.5 
 20 
 11 
 0 
ENDSEC
 0 
SECTION
 2 
ENTITIES
0
LINE
8
Layer 1
10
4.171880
20
204.138327
11
4.171880
21
154.138278
0
LINE
8
Layer 1
10
4.171880
20
154.138278
11
7.171700
21
154.138278
0
LINE
8
Layer 1
10
7.171700
20
154.138278
11
113.171950
21
154.138278
0
LINE
8
Layer 1
10
113.171950
20
154.138278
11
116.171760
21
154.138278
0
LINE
8
Layer 1
10
116.171760
20
154.138278
11
116.171760
21
204.138327
0
LINE
8
Layer 1
10
116.171760
20
204.138327
11
113.171950
21
204.138327
0
LINE
8
Layer 1
10
113.171950
20
204.138327
11
101.887880
21
204.138327
0
LINE
8
Layer 1
10
101.887880
20
204.138327
11
70.171990
21
204.138327
0
LINE
8
Layer 1
10
70.171990
20
204.138327
11
70.168990
21
204.138327
0
LINE
8
Layer 1
10
70.168990
20
204.138327
11
70.168990
21
198.138176
0
LINE
8
Layer 1
10
70.168990
20
198.138176
11
50.168660
21
198.138176
0
LINE
8
Layer 1
10
50.168660
20
198.138176
11
50.168660
21
204.138327
0
LINE
8
Layer 1
10
50.168660
20
204.138327
11
15.640010
21
204.138327
0
LINE
8
Layer 1
10
15.640010
20
204.138327
11
7.171800
21
204.138327
0
LINE
8
Layer 1
10
7.171800
20
204.138327
11
4.171880
21
204.138327
0
LINE
8
Layer 1
10
7.171700
20
199.838331
11
10.172030
21
199.838331
0
LINE
8
Layer 1
10
10.172030
20
199.838331
11
10.172030
21
189.138209
0
LINE
8
Layer 1
10
10.172030
20
189.138209
11
10.172030
21
187.038079
0
LINE
8
Layer 1
10
10.172030
20
187.038079
11
10.172030
21
187.023609
0
LINE
8
Layer 1
10
10.172030
20
187.023609
11
10.171510
21
187.023609
0
LINE
8
Layer 1
10
10.171510
20
187.023609
11
10.171510
21
187.038079
0
LINE
8
Layer 1
10
10.171510
20
187.038079
11
7.171700
21
187.038079
0
LINE
8
Layer 1
10
7.171700
20
187.038079
11
7.171700
21
199.838331
0
LINE
8
Layer 1
10
110.171610
20
199.838331
11
113.171950
21
199.838331
0
LINE
8
Layer 1
10
113.171950
20
199.838331
11
113.171950
21
189.138209
0
LINE
8
Layer 1
10
113.171950
20
189.138209
11
113.171950
21
187.038079
0
LINE
8
Layer 1
10
113.171950
20
187.038079
11
113.171950
21
187.008109
0
LINE
8
Layer 1
10
113.171950
20
187.008109
11
113.171430
21
187.008109
0
LINE
8
Layer 1
10
113.171430
20
187.008109
11
113.171430
21
187.038079
0
LINE
8
Layer 1
10
113.171430
20
187.038079
11
110.171610
21
187.038079
0
LINE
8
Layer 1
10
110.171610
20
187.038079
11
110.171610
21
199.838331
0
LINE
8
Layer 1
10
113.171430
20
170.841651
11
113.171950
21
170.841651
0
LINE
8
Layer 1
10
113.171950
20
170.841651
11
113.171950
21
170.838051
0
LINE
8
Layer 1
10
113.171950
20
170.838051
11
113.171950
21
169.138413
0
LINE
8
Layer 1
10
113.171950
20
169.138413
11
113.171950
21
158.038316
0
LINE
8
Layer 1
10
113.171950
20
158.038316
11
110.171610
21
158.038316
0
LINE
8
Layer 1
10
110.171610
20
158.038316
11
110.171610
21
170.838034
0
LINE
8
Layer 1
10
110.171610
20
170.838034
11
113.171430
21
170.838034
0
LINE
8
Layer 1
10
113.171430
20
170.838034
11
113.171430
21
170.841651
0
LINE
8
Layer 1
10
10.171510
20
170.840051
11
10.172030
21
170.840051
0
LINE
8
Layer 1
10
10.172030
20
170.840051
11
10.172030
21
170.837951
0
LINE
8
Layer 1
10
10.172030
20
170.837951
11
10.172030
21
169.138313
0
LINE
8
Layer 1
10
10.172030
20
169.138313
11
10.172030
21
158.038216
0
LINE
8
Layer 1
10
10.172030
20
158.038216
11
7.171700
21
158.038216
0
LINE
8
Layer 1
10
7.171700
20
158.038216
11
7.171700
21
170.838034
0
LINE
8
Layer 1
10
7.171700
20
170.838034
11
10.171510
21
170.838034
0
LINE
8
Layer 1
10
10.171510
20
170.838034
11
10.171510
21
170.840051
0
LINE
8
Layer 1
10
3.036060
20
147.632844
11
3.036060
21
97.632796
0
LINE
8
Layer 1
10
3.036060
20
97.632796
11
6.035870
21
97.632796
0
LINE
8
Layer 1
10
6.035870
20
97.632796
11
112.036123
21
97.632796
0
LINE
8
Layer 1
10
112.036123
20
97.632796
11
115.035940
21
97.632796
0
LINE
8
Layer 1
10
115.035940
20
97.632796
11
115.035940
21
147.632844
0
LINE
8
Layer 1
10
115.035940
20
147.632844
11
112.036123
21
147.632844
0
LINE
8
Layer 1
10
112.036123
20
147.632844
11
69.041331
21
147.632844
0
LINE
8
Layer 1
10
69.041331
20
147.632844
11
69.036131
21
147.632844
0
LINE
8
Layer 1
10
69.036131
20
147.632844
11
49.040970
21
147.632844
0
LINE
8
Layer 1
10
49.040970
20
147.632844
11
49.040970
21
147.552746
0
LINE
8
Layer 1
10
49.040970
20
147.552746
11
49.036270
21
147.552746
0
LINE
8
Layer 1
10
49.036270
20
147.552746
11
49.036270
21
147.632844
0
LINE
8
Layer 1
10
49.036270
20
147.632844
11
6.035870
21
147.632844
0
LINE
8
Layer 1
10
6.035870
20
147.632844
11
3.036060
21
147.632844
0
LINE
8
Layer 1
10
6.035870
20
143.332848
11
9.036210
21
143.332848
0
LINE
8
Layer 1
10
9.036210
20
143.332848
11
9.036210
21
132.632726
0
LINE
8
Layer 1
10
9.036210
20
132.632726
11
9.036210
21
130.532596
0
LINE
8
Layer 1
10
9.036210
20
130.532596
11
9.036210
21
130.494876
0
LINE
8
Layer 1
10
9.036210
20
130.494876
11
9.035690
21
130.494876
0
LINE
8
Layer 1
10
9.035690
20
130.494876
11
9.035690
21
130.532596
0
LINE
8
Layer 1
10
9.035690
20
130.532596
11
6.035870
21
130.532596
0
LINE
8
Layer 1
10
6.035870
20
130.532596
11
6.035870
21
143.332848
0
LINE
8
Layer 1
10
109.035789
20
143.332848
11
112.036123
21
143.332848
0
LINE
8
Layer 1
10
112.036123
20
143.332848
11
112.036123
21
132.632726
0
LINE
8
Layer 1
10
112.036123
20
132.632726
11
112.036123
21
130.532596
0
LINE
8
Layer 1
10
112.036123
20
130.532596
11
112.036123
21
130.516056
0
LINE
8
Layer 1
10
112.036123
20
130.516056
11
112.035606
21
130.516056
0
LINE
8
Layer 1
10
112.035606
20
130.516056
11
112.035606
21
130.532596
0
LINE
8
Layer 1
10
112.035606
20
130.532596
11
109.035789
21
130.532596
0
LINE
8
Layer 1
10
109.035789
20
130.532596
11
109.035789
21
143.332848
0
LINE
8
Layer 1
10
23.091681
20
139.754255
11
68.091518
21
139.754255
0
LINE
8
Layer 1
10
68.091518
20
139.754255
11
68.091518
21
124.754138
0
LINE
8
Layer 1
10
68.091518
20
124.754138
11
23.091681
21
124.754138
0
LINE
8
Layer 1
10
23.091681
20
124.754138
11
23.091681
21
139.754255
0
LINE
8
Layer 1
10
84.029564
20
134.795902
11
99.029165
21
134.795902
0
LINE
8
Layer 1
10
99.029165
20
134.795902
11
99.029165
21
124.795995
0
LINE
8
Layer 1
10
99.029165
20
124.795995
11
84.029564
21
124.795995
0
LINE
8
Layer 1
10
84.029564
20
124.795995
11
84.029564
21
134.795902
0
LINE
8
Layer 1
10
112.035606
20
114.414200
11
112.036123
21
114.414200
0
LINE
8
Layer 1
10
112.036123
20
114.414200
11
112.036123
21
114.332550
0
LINE
8
Layer 1
10
112.036123
20
114.332550
11
112.036123
21
112.632913
0
LINE
8
Layer 1
10
112.036123
20
112.632913
11
112.036123
21
101.532815
0
LINE
8
Layer 1
10
112.036123
20
101.532815
11
109.035789
21
101.532815
0
LINE
8
Layer 1
10
109.035789
20
101.532815
11
109.035789
21
114.332551
0
LINE
8
Layer 1
10
109.035789
20
114.332551
11
112.035606
21
114.332551
0
LINE
8
Layer 1
10
112.035606
20
114.332551
11
112.035606
21
114.414200
0
LINE
8
Layer 1
10
9.035690
20
114.393530
11
9.036210
21
114.393530
0
LINE
8
Layer 1
10
9.036210
20
114.393530
11
9.036210
21
114.332550
0
LINE
8
Layer 1
10
9.036210
20
114.332550
11
9.036210
21
112.632913
0
LINE
8
Layer 1
10
9.036210
20
112.632913
11
9.036210
21
101.532815
0
LINE
8
Layer 1
10
9.036210
20
101.532815
11
6.035870
21
101.532815
0
LINE
8
Layer 1
10
6.035870
20
101.532815
11
6.035870
21
114.332551
0
LINE
8
Layer 1
10
6.035870
20
114.332551
11
9.035690
21
114.332551
0
LINE
8
Layer 1
10
9.035690
20
114.332551
11
9.035690
21
114.393530
0
LINE
8
Layer 1
10
252.980960
20
418.473690
11
252.980960
21
418.465430
0
LINE
8
Layer 1
10
252.980960
20
418.465430
11
232.980630
21
418.465430
0
LINE
8
Layer 1
10
232.980630
20
418.465430
11
232.980630
21
418.465940
0
LINE
8
Layer 1
10
232.980630
20
418.465940
11
193.032170
21
418.465940
0
LINE
8
Layer 1
10
193.032170
20
418.465940
11
193.032170
21
368.465890
0
LINE
8
Layer 1
10
193.032170
20
368.465890
11
190.032350
21
368.465890
0
LINE
8
Layer 1
10
190.032350
20
368.465890
11
190.032350
21
348.465570
0
LINE
8
Layer 1
10
190.032350
20
348.465570
11
193.032170
21
348.465570
0
LINE
8
Layer 1
10
193.032170
20
348.465570
11
193.032170
21
328.465750
0
LINE
8
Layer 1
10
193.032170
20
328.465750
11
190.032350
21
328.465750
0
LINE
8
Layer 1
10
190.032350
20
328.465750
11
190.032350
21
308.465940
0
LINE
8
Layer 1
10
190.032350
20
308.465940
11
193.032170
21
308.465940
0
LINE
8
Layer 1
10
193.032170
20
308.465940
11
193.032170
21
258.465890
0
LINE
8
Layer 1
10
193.032170
20
258.465890
11
233.032310
21
258.465890
0
LINE
8
Layer 1
10
233.032310
20
258.465890
11
233.032310
21
258.465370
0
LINE
8
Layer 1
10
233.032310
20
258.465370
11
252.980960
21
258.465370
0
LINE
8
Layer 1
10
252.980960
20
258.465370
11
252.980960
21
258.464860
0
LINE
8
Layer 1
10
252.980960
20
258.464860
11
253.032120
21
258.460720
0
LINE
8
Layer 1
10
253.032120
20
258.460720
11
253.032120
21
258.465890
0
LINE
8
Layer 1
10
253.032120
20
258.465890
11
293.032260
21
258.465890
0
LINE
8
Layer 1
10
293.032260
20
258.465890
11
293.032260
21
308.465940
0
LINE
8
Layer 1
10
293.032260
20
308.465940
11
296.032080
21
308.465940
0
LINE
8
Layer 1
10
296.032080
20
308.465940
11
296.032080
21
328.465750
0
LINE
8
Layer 1
10
296.032080
20
328.465750
11
293.032260
21
328.465750
0
LINE
8
Layer 1
10
293.032260
20
328.465750
11
293.032260
21
348.465570
0
LINE
8
Layer 1
10
293.032260
20
348.465570
11
296.032080
21
348.465570
0
LINE
8
Layer 1
10
296.032080
20
348.465570
11
296.032080
21
368.465890
0
LINE
8
Layer 1
10
296.032080
20
368.465890
11
293.032260
21
368.465890
0
LINE
8
Layer 1
10
293.032260
20
368.465890
11
293.032260
21
418.465940
0
LINE
8
Layer 1
10
293.032260
20
418.465940
11
253.032120
21
418.465940
0
LINE
8
Layer 1
10
253.032120
20
418.465940
11
253.032120
21
418.473690
0
LINE
8
Layer 1
10
253.032120
20
418.473690
11
252.980960
21
418.473690
0
LINE
8
Layer 1
10
252.980960
20
418.473690
11
252.980960
21
418.473690
0
LINE
8
Layer 1
10
243.032210
20
415.450110
11
246.561793
21
415.297013
0
LINE
8
Layer 1
10
246.561793
20
415.297013
11
250.052459
21
414.870076
0
LINE
8
Layer 1
10
250.052459
20
414.870076
11
253.488922
21
414.174306
0
LINE
8
Layer 1
10
253.488922
20
414.174306
11
256.855894
21
413.214711
0
LINE
8
Layer 1
10
256.855894
20
413.214711
11
260.138087
21
411.996298
0
LINE
8
Layer 1
10
260.138087
20
411.996298
11
263.320213
21
410.524075
0
LINE
8
Layer 1
10
263.320213
20
410.524075
11
266.386987
21
408.803050
0
LINE
8
Layer 1
10
266.386987
20
408.803050
11
269.323120
21
406.838230
0
LINE
8
Layer 1
10
269.323120
20
406.838230
11
283.032360
21
406.838230
0
LINE
8
Layer 1
10
283.032360
20
406.838230
11
283.959570
21
406.752683
0
LINE
8
Layer 1
10
283.959570
20
406.752683
11
284.827487
21
406.506311
0
LINE
8
Layer 1
10
284.827487
20
406.506311
11
285.621380
21
406.114519
0
LINE
8
Layer 1
10
285.621380
20
406.114519
11
286.326518
21
405.592713
0
LINE
8
Layer 1
10
286.326518
20
405.592713
11
286.928167
21
404.956295
0
LINE
8
Layer 1
10
286.928167
20
404.956295
11
287.411597
21
404.220673
0
LINE
8
Layer 1
10
287.411597
20
404.220673
11
287.762075
21
403.401249
0
LINE
8
Layer 1
10
287.762075
20
403.401249
11
287.964870
21
402.513430
0
LINE
8
Layer 1
10
287.964870
20
402.513430
11
287.964870
21
402.795580
0
LINE
8
Layer 1
10
287.964870
20
402.795580
11
288.032570
21
402.795580
0
LINE
8
Layer 1
10
288.032570
20
402.795580
11
288.032570
21
401.838020
0
LINE
8
Layer 1
10
288.032570
20
401.838020
11
288.032570
21
315.465510
0
LINE
8
Layer 1
10
288.032570
20
315.465510
11
288.032570
21
313.965350
0
LINE
8
Layer 1
10
288.032570
20
313.965350
11
287.964870
21
313.289930
0
LINE
8
Layer 1
10
287.964870
20
313.289930
11
287.964870
21
314.790100
0
LINE
8
Layer 1
10
287.964870
20
314.790100
11
287.762075
21
313.902281
0
LINE
8
Layer 1
10
287.762075
20
313.902281
11
287.411597
21
313.082857
0
LINE
8
Layer 1
10
287.411597
20
313.082857
11
286.928167
21
312.347235
0
LINE
8
Layer 1
10
286.928167
20
312.347235
11
286.326518
21
311.710817
0
LINE
8
Layer 1
10
286.326518
20
311.710817
11
285.621380
21
311.189011
0
LINE
8
Layer 1
10
285.621380
20
311.189011
11
284.827487
21
310.797219
0
LINE
8
Layer 1
10
284.827487
20
310.797219
11
283.959570
21
310.550847
0
LINE
8
Layer 1
10
283.959570
20
310.550847
11
283.032360
21
310.465300
0
LINE
8
Layer 1
10
283.032360
20
310.465300
11
203.032590
21
310.465300
0
LINE
8
Layer 1
10
203.032590
20
310.465300
11
202.022444
21
310.566539
0
LINE
8
Layer 1
10
202.022444
20
310.566539
11
201.082713
21
310.857052
0
LINE
8
Layer 1
10
201.082713
20
310.857052
11
200.233207
21
311.317027
0
LINE
8
Layer 1
10
200.233207
20
311.317027
11
199.493735
21
311.926655
0
LINE
8
Layer 1
10
199.493735
20
311.926655
11
198.884107
21
312.666127
0
LINE
8
Layer 1
10
198.884107
20
312.666127
11
198.424132
21
313.515633
0
LINE
8
Layer 1
10
198.424132
20
313.515633
11
198.133619
21
314.455364
0
LINE
8
Layer 1
10
198.133619
20
314.455364
11
198.032380
21
315.465510
0
LINE
8
Layer 1
10
198.032380
20
315.465510
11
198.032380
21
370.450270
0
LINE
8
Layer 1
10
198.032380
20
370.450270
11
198.032380
21
401.838020
0
LINE
8
Layer 1
10
198.032380
20
401.838020
11
198.133619
21
402.848166
0
LINE
8
Layer 1
10
198.133619
20
402.848166
11
198.424132
21
403.787897
0
LINE
8
Layer 1
10
198.424132
20
403.787897
11
198.884107
21
404.637403
0
LINE
8
Layer 1
10
198.884107
20
404.637403
11
199.493735
21
405.376875
0
LINE
8
Layer 1
10
199.493735
20
405.376875
11
200.233207
21
405.986503
0
LINE
8
Layer 1
10
200.233207
20
405.986503
11
201.082713
21
406.446478
0
LINE
8
Layer 1
10
201.082713
20
406.446478
11
202.022444
21
406.736991
0
LINE
8
Layer 1
10
202.022444
20
406.736991
11
203.032590
21
406.838230
0
LINE
8
Layer 1
10
203.032590
20
406.838230
11
216.571810
21
406.838230
0
LINE
8
Layer 1
10
216.571810
20
406.838230
11
219.526306
21
408.814257
0
LINE
8
Layer 1
10
219.526306
20
408.814257
11
222.612824
21
410.543410
0
LINE
8
Layer 1
10
222.612824
20
410.543410
11
225.815790
21
412.020620
0
LINE
8
Layer 1
10
225.815790
20
412.020620
11
229.119629
21
413.240818
0
LINE
8
Layer 1
10
229.119629
20
413.240818
11
232.508765
21
414.198935
0
LINE
8
Layer 1
10
232.508765
20
414.198935
11
235.967624
21
414.889903
0
LINE
8
Layer 1
10
235.967624
20
414.889903
11
239.480630
21
415.308650
0
LINE
8
Layer 1
10
239.480630
20
415.308650
11
243.032210
21
415.450110
0
LINE
8
Layer 1
10
243.032210
20
415.450110
11
243.032210
21
415.450110
0
LINE
8
Layer 1
10
200.032250
20
412.965500
11
200.606364
21
412.851353
0
LINE
8
Layer 1
10
200.606364
20
412.851353
11
201.093077
21
412.526164
0
LINE
8
Layer 1
10
201.093077
20
412.526164
11
201.418269
21
412.039454
0
LINE
8
Layer 1
10
201.418269
20
412.039454
11
201.532420
21
411.465340
0
LINE
8
Layer 1
10
201.532420
20
411.465340
11
201.418272
21
410.891223
0
LINE
8
Layer 1
10
201.418272
20
410.891223
11
201.093080
21
410.404510
0
LINE
8
Layer 1
10
201.093080
20
410.404510
11
200.606367
21
410.079318
0
LINE
8
Layer 1
10
200.606367
20
410.079318
11
200.032250
21
409.965170
0
LINE
8
Layer 1
10
200.032250
20
409.965170
11
199.448453
21
410.083165
0
LINE
8
Layer 1
10
199.448453
20
410.083165
11
198.971756
21
410.404694
0
LINE
8
Layer 1
10
198.971756
20
410.404694
11
198.650393
21
410.881503
0
LINE
8
Layer 1
10
198.650393
20
410.881503
11
198.532600
21
411.465340
0
LINE
8
Layer 1
10
198.532600
20
411.465340
11
198.650396
21
412.049174
0
LINE
8
Layer 1
10
198.650396
20
412.049174
11
198.971760
21
412.525980
0
LINE
8
Layer 1
10
198.971760
20
412.525980
11
199.448456
21
412.847506
0
LINE
8
Layer 1
10
199.448456
20
412.847506
11
200.032250
21
412.965500
0
LINE
8
Layer 1
10
200.032250
20
412.965500
11
200.032250
21
412.965500
0
LINE
8
Layer 1
10
286.032170
20
412.965500
11
286.606284
21
412.851353
0
LINE
8
Layer 1
10
286.606284
20
412.851353
11
287.092997
21
412.526164
0
LINE
8
Layer 1
10
287.092997
20
412.526164
11
287.418189
21
412.039454
0
LINE
8
Layer 1
10
287.418189
20
412.039454
11
287.532340
21
411.465340
0
LINE
8
Layer 1
10
287.532340
20
411.465340
11
287.418192
21
410.891223
0
LINE
8
Layer 1
10
287.418192
20
410.891223
11
287.093000
21
410.404510
0
LINE
8
Layer 1
10
287.093000
20
410.404510
11
286.606287
21
410.079318
0
LINE
8
Layer 1
10
286.606287
20
410.079318
11
286.032170
21
409.965170
0
LINE
8
Layer 1
10
286.032170
20
409.965170
11
285.448373
21
410.083165
0
LINE
8
Layer 1
10
285.448373
20
410.083165
11
284.971676
21
410.404694
0
LINE
8
Layer 1
10
284.971676
20
410.404694
11
284.650313
21
410.881503
0
LINE
8
Layer 1
10
284.650313
20
410.881503
11
284.532520
21
411.465340
0
LINE
8
Layer 1
10
284.532520
20
411.465340
11
284.650316
21
412.049174
0
LINE
8
Layer 1
10
284.650316
20
412.049174
11
284.971680
21
412.525980
0
LINE
8
Layer 1
10
284.971680
20
412.525980
11
285.448376
21
412.847506
0
LINE
8
Layer 1
10
285.448376
20
412.847506
11
286.032170
21
412.965500
0
LINE
8
Layer 1
10
286.032170
20
412.965500
11
286.032170
21
412.965500
0
LINE
8
Layer 1
10
200.032250
20
266.965630
11
200.606367
21
266.851482
0
LINE
8
Layer 1
10
200.606367
20
266.851482
11
201.093080
21
266.526290
0
LINE
8
Layer 1
10
201.093080
20
266.526290
11
201.418272
21
266.039577
0
LINE
8
Layer 1
10
201.418272
20
266.039577
11
201.532420
21
265.465460
0
LINE
8
Layer 1
10
201.532420
20
265.465460
11
201.418269
21
264.891346
0
LINE
8
Layer 1
10
201.418269
20
264.891346
11
201.093077
21
264.404636
0
LINE
8
Layer 1
10
201.093077
20
264.404636
11
200.606364
21
264.079447
0
LINE
8
Layer 1
10
200.606364
20
264.079447
11
200.032250
21
263.965300
0
LINE
8
Layer 1
10
200.032250
20
263.965300
11
199.448456
21
264.083294
0
LINE
8
Layer 1
10
199.448456
20
264.083294
11
198.971760
21
264.404820
0
LINE
8
Layer 1
10
198.971760
20
264.404820
11
198.650396
21
264.881626
0
LINE
8
Layer 1
10
198.650396
20
264.881626
11
198.532600
21
265.465460
0
LINE
8
Layer 1
10
198.532600
20
265.465460
11
198.650393
21
266.049297
0
LINE
8
Layer 1
10
198.650393
20
266.049297
11
198.971756
21
266.526106
0
LINE
8
Layer 1
10
198.971756
20
266.526106
11
199.448453
21
266.847635
0
LINE
8
Layer 1
10
199.448453
20
266.847635
11
200.032250
21
266.965630
0
LINE
8
Layer 1
10
200.032250
20
266.965630
11
200.032250
21
266.965630
0
LINE
8
Layer 1
10
286.032170
20
266.965630
11
286.606287
21
266.851482
0
LINE
8
Layer 1
10
286.606287
20
266.851482
11
287.093000
21
266.526290
0
LINE
8
Layer 1
10
287.093000
20
266.526290
11
287.418192
21
266.039577
0
LINE
8
Layer 1
10
287.418192
20
266.039577
11
287.532340
21
265.465460
0
LINE
8
Layer 1
10
287.532340
20
265.465460
11
287.418189
21
264.891346
0
LINE
8
Layer 1
10
287.418189
20
264.891346
11
287.092997
21
264.404636
0
LINE
8
Layer 1
10
287.092997
20
264.404636
11
286.606284
21
264.079447
0
LINE
8
Layer 1
10
286.606284
20
264.079447
11
286.032170
21
263.965300
0
LINE
8
Layer 1
10
286.032170
20
263.965300
11
285.448376
21
264.083294
0
LINE
8
Layer 1
10
285.448376
20
264.083294
11
284.971680
21
264.404820
0
LINE
8
Layer 1
10
284.971680
20
264.404820
11
284.650316
21
264.881626
0
LINE
8
Layer 1
10
284.650316
20
264.881626
11
284.532520
21
265.465460
0
LINE
8
Layer 1
10
284.532520
20
265.465460
11
284.650313
21
266.049297
0
LINE
8
Layer 1
10
284.650313
20
266.049297
11
284.971676
21
266.526106
0
LINE
8
Layer 1
10
284.971676
20
266.526106
11
285.448373
21
266.847635
0
LINE
8
Layer 1
10
285.448373
20
266.847635
11
286.032170
21
266.965630
0
LINE
8
Layer 1
10
286.032170
20
266.965630
11
286.032170
21
266.965630
0
LINE
8
Layer 1
10
10.074240
20
259.999662
11
10.074240
21
255.681583
0
LINE
8
Layer 1
10
10.074240
20
255.681583
11
10.073730
21
255.681583
0
LINE
8
Layer 1
10
10.073730
20
255.681583
11
10.073730
21
255.670219
0
LINE
8
Layer 1
10
10.073730
20
255.670219
11
7.413937
21
255.686769
0
LINE
8
Layer 1
10
7.413937
20
255.686769
11
7.421941
21
257.473228
0
LINE
8
Layer 1
10
7.421941
20
257.473228
11
5.630929
21
257.242524
0
LINE
8
Layer 1
10
5.630929
20
257.242524
11
4.088307
21
256.612639
0
LINE
8
Layer 1
10
4.088307
20
256.612639
11
3.006762
21
255.676918
0
LINE
8
Layer 1
10
3.006762
20
255.676918
11
2.705359
21
255.123537
0
LINE
8
Layer 1
10
2.705359
20
255.123537
11
2.598983
21
254.528701
0
LINE
8
Layer 1
10
2.598983
20
254.528701
11
2.689408
21
253.933491
0
LINE
8
Layer 1
10
2.689408
20
253.933491
11
2.948752
21
253.379117
0
LINE
8
Layer 1
10
2.948752
20
253.379117
11
3.902609
21
252.440377
0
LINE
8
Layer 1
10
3.902609
20
252.440377
11
5.317374
21
251.807473
0
LINE
8
Layer 1
10
5.317374
20
251.807473
11
7.049869
21
251.575396
0
LINE
8
Layer 1
10
7.049869
20
251.575396
11
14.527958
21
251.574900
0
LINE
8
Layer 1
10
14.527958
20
251.574900
11
19.826256
21
251.703886
0
LINE
8
Layer 1
10
19.826256
20
251.703886
11
24.516323
21
252.061059
0
LINE
8
Layer 1
10
24.516323
20
252.061059
11
28.530805
21
252.601743
0
LINE
8
Layer 1
10
28.530805
20
252.601743
11
31.802350
21
253.281259
0
LINE
8
Layer 1
10
31.802350
20
253.281259
11
32.139796
21
253.359287
0
LINE
8
Layer 1
10
32.139796
20
253.359287
11
34.811984
21
253.917911
0
LINE
8
Layer 1
10
34.811984
20
253.917911
11
35.733898
21
254.073459
0
LINE
8
Layer 1
10
35.733898
20
254.073459
11
38.879434
21
254.506505
0
LINE
8
Layer 1
10
38.879434
20
254.506505
11
40.127938
21
254.639830
0
LINE
8
Layer 1
10
40.127938
20
254.639830
11
43.693098
21
254.922501
0
LINE
8
Layer 1
10
43.693098
20
254.922501
11
45.292483
21
255.005698
0
LINE
8
Layer 1
10
45.292483
20
255.005698
11
49.283448
21
255.108019
0
LINE
8
Layer 1
10
49.283448
20
255.108019
11
50.140242
21
255.119383
0
LINE
8
Layer 1
10
50.140242
20
255.119383
11
50.353150
21
255.104908
0
LINE
8
Layer 1
10
50.353150
20
255.104908
11
50.520067
21
255.082676
0
LINE
8
Layer 1
10
50.520067
20
255.082676
11
50.960869
21
254.954001
0
LINE
8
Layer 1
10
50.960869
20
254.954001
11
50.977877
21
254.946785
0
LINE
8
Layer 1
10
50.977877
20
254.946785
11
51.369067
21
254.686332
0
LINE
8
Layer 1
10
51.369067
20
254.686332
11
51.371068
21
254.685881
0
LINE
8
Layer 1
10
51.371068
20
254.685881
11
51.372068
21
254.685430
0
LINE
8
Layer 1
10
51.372068
20
254.685430
11
51.578263
21
254.368139
0
LINE
8
Layer 1
10
51.578263
20
254.368139
11
51.599473
21
254.298377
0
LINE
8
Layer 1
10
51.599473
20
254.298377
11
51.623784
21
254.136110
0
LINE
8
Layer 1
10
51.623784
20
254.136110
11
51.606676
21
254.021906
0
LINE
8
Layer 1
10
51.606676
20
254.021906
11
51.556553
21
253.858611
0
LINE
8
Layer 1
10
51.556553
20
253.858611
11
51.469713
21
253.706680
0
LINE
8
Layer 1
10
51.469713
20
253.706680
11
51.241818
21
253.482407
0
LINE
8
Layer 1
10
51.241818
20
253.482407
11
51.194797
21
253.444662
0
LINE
8
Layer 1
10
51.194797
20
253.444662
11
50.729010
21
253.239612
0
LINE
8
Layer 1
10
50.729010
20
253.239612
11
50.161792
21
253.164058
0
LINE
8
Layer 1
10
50.161792
20
253.164058
11
49.210945
21
253.140802
0
LINE
8
Layer 1
10
49.210945
20
253.140802
11
45.695908
21
253.055020
0
LINE
8
Layer 1
10
45.695908
20
253.055020
11
44.096533
21
252.976472
0
LINE
8
Layer 1
10
44.096533
20
252.976472
11
40.874502
21
252.731008
0
LINE
8
Layer 1
10
40.874502
20
252.731008
11
39.568641
21
252.596133
0
LINE
8
Layer 1
10
39.568641
20
252.596133
11
36.650469
21
252.202876
0
LINE
8
Layer 1
10
36.650469
20
252.202876
11
35.789544
21
252.059732
0
LINE
8
Layer 1
10
35.789544
20
252.059732
11
33.177823
21
251.517646
0
LINE
8
Layer 1
10
33.177823
20
251.517646
11
32.888950
21
251.457702
0
LINE
8
Layer 1
10
32.888950
20
251.457702
11
29.493793
21
250.748231
0
LINE
8
Layer 1
10
29.493793
20
250.748231
11
25.246795
21
250.163292
0
LINE
8
Layer 1
10
25.246795
20
250.163292
11
20.236401
21
249.766025
0
LINE
8
Layer 1
10
20.236401
20
249.766025
11
14.551058
21
249.619572
0
LINE
8
Layer 1
10
14.551058
20
249.619572
11
10.074330
21
249.619572
0
LINE
8
Layer 1
10
10.074330
20
249.619572
11
10.074330
21
249.607685
0
LINE
8
Layer 1
10
10.074330
20
249.607685
11
7.051260
21
249.607685
0
LINE
8
Layer 1
10
7.051260
20
249.607685
11
7.051260
21
244.486404
0
LINE
8
Layer 1
10
7.051260
20
244.486404
11
7.237673
21
243.873179
0
LINE
8
Layer 1
10
7.237673
20
243.873179
11
7.746152
21
243.372344
0
LINE
8
Layer 1
10
7.746152
20
243.372344
11
8.500561
21
243.034635
0
LINE
8
Layer 1
10
8.500561
20
243.034635
11
9.424761
21
242.910791
0
LINE
8
Layer 1
10
9.424761
20
242.910791
11
10.099652
21
242.910791
0
LINE
8
Layer 1
10
10.099652
20
242.910791
11
10.099652
21
226.698352
0
LINE
8
Layer 1
10
10.099652
20
226.698352
11
10.074840
21
226.698352
0
LINE
8
Layer 1
10
10.074840
20
226.698352
11
10.074840
21
226.686465
0
LINE
8
Layer 1
10
10.074840
20
226.686465
11
9.424751
21
226.686465
0
LINE
8
Layer 1
10
9.424751
20
226.686465
11
8.500551
21
226.562551
0
LINE
8
Layer 1
10
8.500551
20
226.562551
11
7.746142
21
226.224728
0
LINE
8
Layer 1
10
7.746142
20
226.224728
11
7.237663
21
225.723869
0
LINE
8
Layer 1
10
7.237663
20
225.723869
11
7.051250
21
225.110851
0
LINE
8
Layer 1
10
7.051250
20
225.110851
11
7.051250
21
218.021883
0
LINE
8
Layer 1
10
7.051250
20
218.021883
11
5.318374
21
217.789711
0
LINE
8
Layer 1
10
5.318374
20
217.789711
11
3.903652
21
217.156607
0
LINE
8
Layer 1
10
3.903652
20
217.156607
11
2.950006
21
216.217685
0
LINE
8
Layer 1
10
2.950006
20
216.217685
11
2.690752
21
215.663265
0
LINE
8
Layer 1
10
2.690752
20
215.663265
11
2.600364
21
215.068060
0
LINE
8
Layer 1
10
2.600364
20
215.068060
11
2.707114
21
214.473098
0
LINE
8
Layer 1
10
2.707114
20
214.473098
11
3.009498
21
213.919386
0
LINE
8
Layer 1
10
3.009498
20
213.919386
11
4.093964
21
212.982656
0
LINE
8
Layer 1
10
4.093964
20
212.982656
11
5.639358
21
212.351762
0
LINE
8
Layer 1
10
5.639358
20
212.351762
11
7.431275
21
212.120599
0
LINE
8
Layer 1
10
7.431275
20
212.120599
11
7.431275
21
213.932374
0
LINE
8
Layer 1
10
7.431275
20
213.932374
11
10.074840
21
213.926530
0
LINE
8
Layer 1
10
10.074840
20
213.926530
11
10.074840
21
209.999637
0
LINE
8
Layer 1
10
10.074840
20
209.999637
11
15.178837
21
209.999637
0
LINE
8
Layer 1
10
15.178837
20
209.999637
11
18.078920
21
209.999637
0
LINE
8
Layer 1
10
18.078920
20
209.999637
11
20.078800
21
209.999637
0
LINE
8
Layer 1
10
20.078800
20
209.999637
11
20.078800
21
215.999785
0
LINE
8
Layer 1
10
20.078800
20
215.999785
11
42.088810
21
215.999785
0
LINE
8
Layer 1
10
42.088810
20
215.999785
11
42.088810
21
209.999637
0
LINE
8
Layer 1
10
42.088810
20
209.999637
11
162.144486
21
209.999637
0
LINE
8
Layer 1
10
162.144486
20
209.999637
11
165.044049
21
209.999637
0
LINE
8
Layer 1
10
165.044049
20
209.999637
11
170.148129
21
209.999637
0
LINE
8
Layer 1
10
170.148129
20
209.999637
11
170.148129
21
213.938413
0
LINE
8
Layer 1
10
170.148129
20
213.938413
11
172.800679
21
213.930142
0
LINE
8
Layer 1
10
172.800679
20
213.930142
11
172.800679
21
212.118370
0
LINE
8
Layer 1
10
172.800679
20
212.118370
11
174.587478
21
212.351739
0
LINE
8
Layer 1
10
174.587478
20
212.351739
11
176.121611
21
212.987484
0
LINE
8
Layer 1
10
176.121611
20
212.987484
11
177.194818
21
213.929066
0
LINE
8
Layer 1
10
177.194818
20
213.929066
11
177.493491
21
214.484377
0
LINE
8
Layer 1
10
177.493491
20
214.484377
11
177.598834
21
215.079945
0
LINE
8
Layer 1
10
177.598834
20
215.079945
11
177.508445
21
215.675151
0
LINE
8
Layer 1
10
177.508445
20
215.675151
11
177.249191
21
216.229570
0
LINE
8
Layer 1
10
177.249191
20
216.229570
11
176.295544
21
217.168493
0
LINE
8
Layer 1
10
176.295544
20
217.168493
11
174.880821
21
217.801597
0
LINE
8
Layer 1
10
174.880821
20
217.801597
11
173.147944
21
218.033768
0
LINE
8
Layer 1
10
173.147944
20
218.033768
11
173.147944
21
225.122738
0
LINE
8
Layer 1
10
173.147944
20
225.122738
11
172.961452
21
225.735756
0
LINE
8
Layer 1
10
172.961452
20
225.735756
11
172.452796
21
226.236615
0
LINE
8
Layer 1
10
172.452796
20
226.236615
11
171.698211
21
226.574438
0
LINE
8
Layer 1
10
171.698211
20
226.574438
11
170.773930
21
226.698352
0
LINE
8
Layer 1
10
170.773930
20
226.698352
11
170.153813
21
226.698352
0
LINE
8
Layer 1
10
170.153813
20
226.698352
11
170.153813
21
242.923193
0
LINE
8
Layer 1
10
170.153813
20
242.923193
11
170.773930
21
242.923193
0
LINE
8
Layer 1
10
170.773930
20
242.923193
11
171.698211
21
243.047038
0
LINE
8
Layer 1
10
171.698211
20
243.047038
11
172.452796
21
243.384746
0
LINE
8
Layer 1
10
172.452796
20
243.384746
11
172.961452
21
243.885582
0
LINE
8
Layer 1
10
172.961452
20
243.885582
11
173.147944
21
244.498807
0
LINE
8
Layer 1
10
173.147944
20
244.498807
11
173.147944
21
249.618389
0
LINE
8
Layer 1
10
173.147944
20
249.618389
11
170.147612
21
249.618389
0
LINE
8
Layer 1
10
170.147612
20
249.618389
11
165.671918
21
249.618389
0
LINE
8
Layer 1
10
165.671918
20
249.618389
11
165.669317
21
249.618389
0
LINE
8
Layer 1
10
165.669317
20
249.618389
11
160.016951
21
249.763599
0
LINE
8
Layer 1
10
160.016951
20
249.763599
11
159.960625
21
249.766711
0
LINE
8
Layer 1
10
159.960625
20
249.766711
11
154.991421
21
250.161002
0
LINE
8
Layer 1
10
154.991421
20
250.161002
11
154.972823
21
250.162535
0
LINE
8
Layer 1
10
154.972823
20
250.162535
11
154.967120
21
250.163031
0
LINE
8
Layer 1
10
154.967120
20
250.163031
11
150.731204
21
250.746458
0
LINE
8
Layer 1
10
150.731204
20
250.746458
11
150.728603
21
250.746954
0
LINE
8
Layer 1
10
150.728603
20
250.746954
11
150.725502
21
250.747450
0
LINE
8
Layer 1
10
150.725502
20
250.747450
11
147.333462
21
251.456450
0
LINE
8
Layer 1
10
147.333462
20
251.456450
11
147.330361
21
251.456946
0
LINE
8
Layer 1
10
147.330361
20
251.456946
11
147.324658
21
251.458479
0
LINE
8
Layer 1
10
147.324658
20
251.458479
11
144.065944
21
252.134923
0
LINE
8
Layer 1
10
144.065944
20
252.134923
11
144.062842
21
252.135419
0
LINE
8
Layer 1
10
144.062842
20
252.135419
11
144.059741
21
252.135916
0
LINE
8
Layer 1
10
144.059741
20
252.135916
11
140.072389
21
252.673350
0
LINE
8
Layer 1
10
140.072389
20
252.673350
11
140.045516
21
252.676462
0
LINE
8
Layer 1
10
140.045516
20
252.676462
11
140.028979
21
252.677995
0
LINE
8
Layer 1
10
140.028979
20
252.677995
11
135.349055
21
253.033939
0
LINE
8
Layer 1
10
135.349055
20
253.033939
11
130.063700
21
253.162720
0
LINE
8
Layer 1
10
130.063700
20
253.162720
11
130.060598
21
253.162720
0
LINE
8
Layer 1
10
130.060598
20
253.162720
11
129.483373
21
253.239718
0
LINE
8
Layer 1
10
129.483373
20
253.239718
11
128.830800
21
253.596136
0
LINE
8
Layer 1
10
128.830800
20
253.596136
11
128.577485
21
254.146640
0
LINE
8
Layer 1
10
128.577485
20
254.146640
11
128.693853
21
254.529458
0
LINE
8
Layer 1
10
128.693853
20
254.529458
11
129.011393
21
254.842227
0
LINE
8
Layer 1
10
129.011393
20
254.842227
11
129.482757
21
255.053181
0
LINE
8
Layer 1
10
129.482757
20
255.053181
11
130.060598
21
255.130558
0
LINE
8
Layer 1
10
130.060598
20
255.130558
11
135.746056
21
254.984102
0
LINE
8
Layer 1
10
135.746056
20
254.984102
11
140.756582
21
254.586920
0
LINE
8
Layer 1
10
140.756582
20
254.586920
11
144.979578
21
254.005563
0
LINE
8
Layer 1
10
144.979578
20
254.005563
11
145.028671
21
253.997311
0
LINE
8
Layer 1
10
145.028671
20
253.997311
11
148.394872
21
253.293480
0
LINE
8
Layer 1
10
148.394872
20
253.293480
11
148.398474
21
253.293029
0
LINE
8
Layer 1
10
148.398474
20
253.293029
11
151.667007
21
252.614002
0
LINE
8
Layer 1
10
151.667007
20
252.614002
11
151.670108
21
252.613506
0
LINE
8
Layer 1
10
151.670108
20
252.613506
11
151.672709
21
252.613010
0
LINE
8
Layer 1
10
151.672709
20
252.613010
11
155.675564
21
252.073508
0
LINE
8
Layer 1
10
155.675564
20
252.073508
11
155.681767
21
252.073012
0
LINE
8
Layer 1
10
155.681767
20
252.073012
11
155.701916
21
252.071479
0
LINE
8
Layer 1
10
155.701916
20
252.071479
11
160.349692
21
251.717496
0
LINE
8
Layer 1
10
160.349692
20
251.717496
11
160.405508
21
251.714925
0
LINE
8
Layer 1
10
160.405508
20
251.714925
11
165.633610
21
251.587284
0
LINE
8
Layer 1
10
165.633610
20
251.587284
11
165.672888
21
251.586247
0
LINE
8
Layer 1
10
165.672888
20
251.586247
11
170.147549
21
251.586743
0
LINE
8
Layer 1
10
170.147549
20
251.586743
11
170.147549
21
251.587239
0
LINE
8
Layer 1
10
170.147549
20
251.587239
11
173.147881
21
251.587239
0
LINE
8
Layer 1
10
173.147881
20
251.587239
11
174.880378
21
251.819317
0
LINE
8
Layer 1
10
174.880378
20
251.819317
11
176.295144
21
252.452221
0
LINE
8
Layer 1
10
176.295144
20
252.452221
11
177.249001
21
253.390961
0
LINE
8
Layer 1
10
177.249001
20
253.390961
11
177.508346
21
253.945334
0
LINE
8
Layer 1
10
177.508346
20
253.945334
11
177.598771
21
254.540543
0
LINE
8
Layer 1
10
177.598771
20
254.540543
11
177.490619
21
255.136088
0
LINE
8
Layer 1
10
177.490619
20
255.136088
11
177.184532
21
255.691340
0
LINE
8
Layer 1
10
177.184532
20
255.691340
11
176.088776
21
256.632743
0
LINE
8
Layer 1
10
176.088776
20
256.632743
11
174.531942
21
257.268310
0
LINE
8
Layer 1
10
174.531942
20
257.268310
11
172.734470
21
257.501598
0
LINE
8
Layer 1
10
172.734470
20
257.501598
11
172.726167
21
255.682075
0
LINE
8
Layer 1
10
172.726167
20
255.682075
11
170.153198
21
255.682075
0
LINE
8
Layer 1
10
170.153198
20
255.682075
11
170.153198
21
259.999639
0
LINE
8
Layer 1
10
170.153198
20
259.999639
11
150.992101
21
259.999639
0
LINE
8
Layer 1
10
150.992101
20
259.999639
11
145.352654
21
259.999639
0
LINE
8
Layer 1
10
145.352654
20
259.999639
11
34.874683
21
259.999639
0
LINE
8
Layer 1
10
34.874683
20
259.999639
11
29.230068
21
259.999639
0
LINE
8
Layer 1
10
29.230068
20
259.999639
11
10.074240
21
259.999662
0
LINE
8
Layer 1
10
60.097010
20
256.999848
11
80.106120
21
256.999848
0
LINE
8
Layer 1
10
80.106120
20
256.999848
11
80.106120
21
254.000030
0
LINE
8
Layer 1
10
80.106120
20
254.000030
11
60.097010
21
254.000030
0
LINE
8
Layer 1
10
60.097010
20
254.000030
11
60.097010
21
256.999848
0
LINE
8
Layer 1
10
100.115739
20
256.999848
11
120.124329
21
256.999848
0
LINE
8
Layer 1
10
120.124329
20
256.999848
11
120.124329
21
254.000030
0
LINE
8
Layer 1
10
120.124329
20
254.000030
11
100.115739
21
254.000030
0
LINE
8
Layer 1
10
100.115739
20
254.000030
11
100.115739
21
256.999848
0
LINE
8
Layer 1
10
88.125777
20
233.362541
11
108.134884
21
233.362541
0
LINE
8
Layer 1
10
108.134884
20
233.362541
11
108.134884
21
218.362430
0
LINE
8
Layer 1
10
108.134884
20
218.362430
11
88.125777
21
218.362430
0
LINE
8
Layer 1
10
88.125777
20
218.362430
11
88.125777
21
233.362541
0
LINE
8
Layer 1
10
129.999691
20
233.361504
11
150.000012
21
233.361504
0
LINE
8
Layer 1
10
150.000012
20
233.361504
11
150.000012
21
218.361914
0
LINE
8
Layer 1
10
150.000012
20
218.361914
11
129.999691
21
218.361914
0
LINE
8
Layer 1
10
129.999691
20
218.361914
11
129.999691
21
233.361504
0
LINE
8
Layer 1
10
165.053868
20
217.001274
11
165.832580
21
216.844177
0
LINE
8
Layer 1
10
165.832580
20
216.844177
11
166.468475
21
216.415487
0
LINE
8
Layer 1
10
166.468475
20
216.415487
11
166.897165
21
215.779592
0
LINE
8
Layer 1
10
166.897165
20
215.779592
11
167.054262
21
215.000880
0
LINE
8
Layer 1
10
167.054262
20
215.000880
11
166.897017
21
214.222334
0
LINE
8
Layer 1
10
166.897017
20
214.222334
11
166.468293
21
213.586607
0
LINE
8
Layer 1
10
166.468293
20
213.586607
11
165.832455
21
213.158047
0
LINE
8
Layer 1
10
165.832455
20
213.158047
11
165.053868
21
213.001003
0
LINE
8
Layer 1
10
165.053868
20
213.001003
11
164.275447
21
213.158196
0
LINE
8
Layer 1
10
164.275447
20
213.158196
11
163.639777
21
213.586789
0
LINE
8
Layer 1
10
163.639777
20
213.586789
11
163.211184
21
214.222459
0
LINE
8
Layer 1
10
163.211184
20
214.222459
11
163.053991
21
215.000880
0
LINE
8
Layer 1
10
163.053991
20
215.000880
11
163.211035
21
215.779467
0
LINE
8
Layer 1
10
163.211035
20
215.779467
11
163.639595
21
216.415305
0
LINE
8
Layer 1
10
163.639595
20
216.415305
11
164.275322
21
216.844028
0
LINE
8
Layer 1
10
164.275322
20
216.844028
11
165.053868
21
217.001274
0
LINE
8
Layer 1
10
165.053868
20
217.001274
11
165.053868
21
217.001274
0
LINE
8
Layer 1
10
15.820840
20
418.527650
11
15.820840
21
415.527310
0
LINE
8
Layer 1
10
15.820840
20
415.527310
11
5.820420
21
415.527310
0
LINE
8
Layer 1
10
5.820420
20
415.527310
11
5.820420
21
375.527689
0
LINE
8
Layer 1
10
5.820420
20
375.527689
11
2.820600
21
375.527689
0
LINE
8
Layer 1
10
2.820600
20
375.527689
11
2.820600
21
355.527359
0
LINE
8
Layer 1
10
2.820600
20
355.527359
11
5.820420
21
355.527359
0
LINE
8
Layer 1
10
5.820420
20
355.527359
11
5.820420
21
315.527734
0
LINE
8
Layer 1
10
5.820420
20
315.527734
11
15.883370
21
315.527734
0
LINE
8
Layer 1
10
15.883370
20
315.527734
11
15.883370
21
312.527400
0
LINE
8
Layer 1
10
15.883370
20
312.527400
11
35.883180
21
312.527400
0
LINE
8
Layer 1
10
35.883180
20
312.527400
11
35.883180
21
315.527734
0
LINE
8
Layer 1
10
35.883180
20
315.527734
11
142.874587
21
315.527734
0
LINE
8
Layer 1
10
142.874587
20
315.527734
11
152.820750
21
315.527734
0
LINE
8
Layer 1
10
152.820750
20
315.527734
11
155.820566
21
315.527734
0
LINE
8
Layer 1
10
155.820566
20
315.527734
11
158.402838
21
315.527734
0
LINE
8
Layer 1
10
158.402838
20
315.527734
11
159.320611
21
315.527734
0
LINE
8
Layer 1
10
159.320611
20
315.527734
11
159.320611
21
312.527400
0
LINE
8
Layer 1
10
159.320611
20
312.527400
11
162.314227
21
312.527400
0
LINE
8
Layer 1
10
162.314227
20
312.527400
11
162.314227
21
315.527734
0
LINE
8
Layer 1
10
162.314227
20
315.527734
11
165.820473
21
315.527734
0
LINE
8
Layer 1
10
165.820473
20
315.527734
11
165.820473
21
415.527310
0
LINE
8
Layer 1
10
165.820473
20
415.527310
11
162.314227
21
415.527310
0
LINE
8
Layer 1
10
162.314227
20
415.527310
11
162.314227
21
418.527650
0
LINE
8
Layer 1
10
162.314227
20
418.527650
11
159.320611
21
418.527650
0
LINE
8
Layer 1
10
159.320611
20
418.527650
11
159.320611
21
415.527310
0
LINE
8
Layer 1
10
159.320611
20
415.527310
11
155.820566
21
415.527310
0
LINE
8
Layer 1
10
155.820566
20
415.527310
11
152.820750
21
415.527310
0
LINE
8
Layer 1
10
152.820750
20
415.527310
11
144.079164
21
415.527310
0
LINE
8
Layer 1
10
144.079164
20
415.527310
11
35.820660
21
415.527310
0
LINE
8
Layer 1
10
35.820660
20
415.527310
11
35.820660
21
418.527650
0
LINE
8
Layer 1
10
35.820660
20
418.527650
11
15.820840
21
418.527650
0
LINE
8
Layer 1
10
55.569840
20
392.643957
11
56.820410
21
390.479748
0
LINE
8
Layer 1
10
56.820410
20
390.479748
11
55.571390
21
388.313989
0
LINE
8
Layer 1
10
55.571390
20
388.313989
11
53.071800
21
388.312989
0
LINE
8
Layer 1
10
53.071800
20
388.312989
11
51.820710
21
390.477715
0
LINE
8
Layer 1
10
51.820710
20
390.477715
11
53.069730
21
392.642957
0
LINE
8
Layer 1
10
53.069730
20
392.642957
11
55.569840
21
392.643957
0
LINE
8
Layer 1
10
60.908530
20
389.957816
11
62.159620
21
387.793090
0
LINE
8
Layer 1
10
62.159620
20
387.793090
11
60.910600
21
385.627331
0
LINE
8
Layer 1
10
60.910600
20
385.627331
11
58.410490
21
385.626331
0
LINE
8
Layer 1
10
58.410490
20
385.626331
11
57.159920
21
387.791057
0
LINE
8
Layer 1
10
57.159920
20
387.791057
11
58.408940
21
389.956816
0
LINE
8
Layer 1
10
58.408940
20
389.956816
11
60.908530
21
389.957816
0
LINE
8
Layer 1
10
50.327260
20
389.874096
11
51.577830
21
387.709370
0
LINE
8
Layer 1
10
51.577830
20
387.709370
11
50.328810
21
385.543611
0
LINE
8
Layer 1
10
50.328810
20
385.543611
11
47.828710
21
385.542611
0
LINE
8
Layer 1
10
47.828710
20
385.542611
11
46.578140
21
387.707336
0
LINE
8
Layer 1
10
46.578140
20
387.707336
11
47.827160
21
389.873096
0
LINE
8
Layer 1
10
47.827160
20
389.873096
11
50.327260
21
389.874096
0
LINE
8
Layer 1
10
66.062740
20
387.233947
11
67.313820
21
385.069221
0
LINE
8
Layer 1
10
67.313820
20
385.069221
11
66.064800
21
382.903979
0
LINE
8
Layer 1
10
66.064800
20
382.903979
11
63.564700
21
382.902979
0
LINE
8
Layer 1
10
63.564700
20
382.902979
11
62.313610
21
385.067188
0
LINE
8
Layer 1
10
62.313610
20
385.067188
11
63.562630
21
387.232948
0
LINE
8
Layer 1
10
63.562630
20
387.232948
11
66.062740
21
387.233947
0
LINE
8
Layer 1
10
45.307930
20
387.152297
11
46.558500
21
384.988088
0
LINE
8
Layer 1
10
46.558500
20
384.988088
11
45.309480
21
382.822329
0
LINE
8
Layer 1
10
45.309480
20
382.822329
11
42.809380
21
382.821329
0
LINE
8
Layer 1
10
42.809380
20
382.821329
11
41.558810
21
384.986054
0
LINE
8
Layer 1
10
41.558810
20
384.986054
11
42.807830
21
387.151297
0
LINE
8
Layer 1
10
42.807830
20
387.151297
11
45.307930
21
387.152297
0
LINE
8
Layer 1
10
55.569840
20
387.143997
11
56.820410
21
384.979788
0
LINE
8
Layer 1
10
56.820410
20
384.979788
11
55.571390
21
382.814029
0
LINE
8
Layer 1
10
55.571390
20
382.814029
11
53.071800
21
382.813029
0
LINE
8
Layer 1
10
53.071800
20
382.813029
11
51.820710
21
384.977755
0
LINE
8
Layer 1
10
51.820710
20
384.977755
11
53.069730
21
387.142998
0
LINE
8
Layer 1
10
53.069730
20
387.142998
11
55.569840
21
387.143997
0
LINE
8
Layer 1
10
60.908530
20
384.457856
11
62.159620
21
382.293131
0
LINE
8
Layer 1
10
62.159620
20
382.293131
11
60.910600
21
380.127371
0
LINE
8
Layer 1
10
60.910600
20
380.127371
11
58.410490
21
380.126371
0
LINE
8
Layer 1
10
58.410490
20
380.126371
11
57.159920
21
382.291096
0
LINE
8
Layer 1
10
57.159920
20
382.291096
11
58.408940
21
384.456856
0
LINE
8
Layer 1
10
58.408940
20
384.456856
11
60.908530
21
384.457856
0
LINE
8
Layer 1
10
50.327260
20
384.374136
11
51.577830
21
382.209411
0
LINE
8
Layer 1
10
51.577830
20
382.209411
11
50.328810
21
380.043651
0
LINE
8
Layer 1
10
50.328810
20
380.043651
11
47.828710
21
380.042651
0
LINE
8
Layer 1
10
47.828710
20
380.042651
11
46.578140
21
382.207377
0
LINE
8
Layer 1
10
46.578140
20
382.207377
11
47.827160
21
384.373136
0
LINE
8
Layer 1
10
47.827160
20
384.373136
11
50.327260
21
384.374136
0
LINE
8
Layer 1
10
40.089130
20
384.144176
11
41.340220
21
381.979451
0
LINE
8
Layer 1
10
41.340220
20
381.979451
11
40.091200
21
379.814208
0
LINE
8
Layer 1
10
40.091200
20
379.814208
11
37.591090
21
379.813208
0
LINE
8
Layer 1
10
37.591090
20
379.813208
11
36.340000
21
381.977417
0
LINE
8
Layer 1
10
36.340000
20
381.977417
11
37.589020
21
384.143176
0
LINE
8
Layer 1
10
37.589020
20
384.143176
11
40.089130
21
384.144176
0
LINE
8
Layer 1
10
71.024710
20
384.144176
11
72.275280
21
381.979451
0
LINE
8
Layer 1
10
72.275280
20
381.979451
11
71.026260
21
379.814208
0
LINE
8
Layer 1
10
71.026260
20
379.814208
11
68.526670
21
379.813208
0
LINE
8
Layer 1
10
68.526670
20
379.813208
11
67.275580
21
381.977417
0
LINE
8
Layer 1
10
67.275580
20
381.977417
11
68.524600
21
384.143176
0
LINE
8
Layer 1
10
68.524600
20
384.143176
11
71.024710
21
384.144176
0
LINE
8
Layer 1
10
66.062740
20
381.733988
11
67.313820
21
379.569262
0
LINE
8
Layer 1
10
67.313820
20
379.569262
11
66.064800
21
377.403503
0
LINE
8
Layer 1
10
66.064800
20
377.403503
11
63.564700
21
377.402503
0
LINE
8
Layer 1
10
63.564700
20
377.402503
11
62.313610
21
379.567229
0
LINE
8
Layer 1
10
62.313610
20
379.567229
11
63.562630
21
381.732988
0
LINE
8
Layer 1
10
63.562630
20
381.732988
11
66.062740
21
381.733988
0
LINE
8
Layer 1
10
45.307930
20
381.652338
11
46.558500
21
379.488129
0
LINE
8
Layer 1
10
46.558500
20
379.488129
11
45.309480
21
377.322370
0
LINE
8
Layer 1
10
45.309480
20
377.322370
11
42.809380
21
377.321370
0
LINE
8
Layer 1
10
42.809380
20
377.321370
11
41.558810
21
379.485579
0
LINE
8
Layer 1
10
41.558810
20
379.485579
11
42.807830
21
381.651338
0
LINE
8
Layer 1
10
42.807830
20
381.651338
11
45.307930
21
381.652338
0
LINE
8
Layer 1
10
55.569840
20
381.644038
11
56.820410
21
379.479829
0
LINE
8
Layer 1
10
56.820410
20
379.479829
11
55.571390
21
377.314069
0
LINE
8
Layer 1
10
55.571390
20
377.314069
11
53.071800
21
377.313069
0
LINE
8
Layer 1
10
53.071800
20
377.313069
11
51.820710
21
379.477278
0
LINE
8
Layer 1
10
51.820710
20
379.477278
11
53.069730
21
381.643037
0
LINE
8
Layer 1
10
53.069730
20
381.643037
11
55.569840
21
381.644038
0
LINE
8
Layer 1
10
35.094600
20
381.543785
11
36.345170
21
379.379060
0
LINE
8
Layer 1
10
36.345170
20
379.379060
11
35.096150
21
377.213300
0
LINE
8
Layer 1
10
35.096150
20
377.213300
11
32.596050
21
377.212300
0
LINE
8
Layer 1
10
32.596050
20
377.212300
11
31.345480
21
379.377025
0
LINE
8
Layer 1
10
31.345480
20
379.377025
11
32.594500
21
381.542268
0
LINE
8
Layer 1
10
32.594500
20
381.542268
11
35.094600
21
381.543785
0
LINE
8
Layer 1
10
76.032155
20
381.451285
11
77.282725
21
379.286560
0
LINE
8
Layer 1
10
77.282725
20
379.286560
11
76.033705
21
377.121317
0
LINE
8
Layer 1
10
76.033705
20
377.121317
11
73.533600
21
377.120317
0
LINE
8
Layer 1
10
73.533600
20
377.120317
11
72.283030
21
379.284526
0
LINE
8
Layer 1
10
72.283030
20
379.284526
11
73.532050
21
381.450285
0
LINE
8
Layer 1
10
73.532050
20
381.450285
11
76.032155
21
381.451285
0
LINE
8
Layer 1
10
60.908530
20
378.957898
11
62.159620
21
376.793172
0
LINE
8
Layer 1
10
62.159620
20
376.793172
11
60.910600
21
374.627413
0
LINE
8
Layer 1
10
60.910600
20
374.627413
11
58.410490
21
374.626413
0
LINE
8
Layer 1
10
58.410490
20
374.626413
11
57.159920
21
376.791139
0
LINE
8
Layer 1
10
57.159920
20
376.791139
11
58.408940
21
378.956381
0
LINE
8
Layer 1
10
58.408940
20
378.956381
11
60.908530
21
378.957898
0
LINE
8
Layer 1
10
50.327260
20
378.873668
11
51.577830
21
376.709459
0
LINE
8
Layer 1
10
51.577830
20
376.709459
11
50.328810
21
374.543700
0
LINE
8
Layer 1
10
50.328810
20
374.543700
11
47.828710
21
374.542700
0
LINE
8
Layer 1
10
47.828710
20
374.542700
11
46.578140
21
376.707426
0
LINE
8
Layer 1
10
46.578140
20
376.707426
11
47.827160
21
378.872668
0
LINE
8
Layer 1
10
47.827160
20
378.872668
11
50.327260
21
378.873668
0
LINE
8
Layer 1
10
40.089130
20
378.644225
11
41.340220
21
376.479499
0
LINE
8
Layer 1
10
41.340220
20
376.479499
11
40.091200
21
374.313740
0
LINE
8
Layer 1
10
40.091200
20
374.313740
11
37.591090
21
374.312740
0
LINE
8
Layer 1
10
37.591090
20
374.312740
11
36.340000
21
376.477466
0
LINE
8
Layer 1
10
36.340000
20
376.477466
11
37.589020
21
378.643225
0
LINE
8
Layer 1
10
37.589020
20
378.643225
11
40.089130
21
378.644225
0
LINE
8
Layer 1
10
71.024710
20
378.644225
11
72.275280
21
376.479499
0
LINE
8
Layer 1
10
72.275280
20
376.479499
11
71.026260
21
374.313740
0
LINE
8
Layer 1
10
71.026260
20
374.313740
11
68.526670
21
374.312740
0
LINE
8
Layer 1
10
68.526670
20
374.312740
11
67.275580
21
376.477466
0
LINE
8
Layer 1
10
67.275580
20
376.477466
11
68.524600
21
378.643225
0
LINE
8
Layer 1
10
68.524600
20
378.643225
11
71.024710
21
378.644225
0
LINE
8
Layer 1
10
66.062740
20
376.234036
11
67.313820
21
374.069310
0
LINE
8
Layer 1
10
67.313820
20
374.069310
11
66.064800
21
371.903551
0
LINE
8
Layer 1
10
66.064800
20
371.903551
11
63.564700
21
371.902551
0
LINE
8
Layer 1
10
63.564700
20
371.902551
11
62.313610
21
374.067277
0
LINE
8
Layer 1
10
62.313610
20
374.067277
11
63.562630
21
376.233036
0
LINE
8
Layer 1
10
63.562630
20
376.233036
11
66.062740
21
376.234036
0
LINE
8
Layer 1
10
45.307930
20
376.152386
11
46.558500
21
373.987660
0
LINE
8
Layer 1
10
46.558500
20
373.987660
11
45.309480
21
371.822418
0
LINE
8
Layer 1
10
45.309480
20
371.822418
11
42.809380
21
371.821418
0
LINE
8
Layer 1
10
42.809380
20
371.821418
11
41.558810
21
373.985627
0
LINE
8
Layer 1
10
41.558810
20
373.985627
11
42.807830
21
376.151387
0
LINE
8
Layer 1
10
42.807830
20
376.151387
11
45.307930
21
376.152386
0
LINE
8
Layer 1
10
55.569840
20
376.144086
11
56.820410
21
373.979360
0
LINE
8
Layer 1
10
56.820410
20
373.979360
11
55.571390
21
371.814118
0
LINE
8
Layer 1
10
55.571390
20
371.814118
11
53.071800
21
371.813118
0
LINE
8
Layer 1
10
53.071800
20
371.813118
11
51.820710
21
373.977327
0
LINE
8
Layer 1
10
51.820710
20
373.977327
11
53.069730
21
376.143086
0
LINE
8
Layer 1
10
53.069730
20
376.143086
11
55.569840
21
376.144086
0
LINE
8
Layer 1
10
35.094600
20
376.043317
11
36.345170
21
373.879108
0
LINE
8
Layer 1
10
36.345170
20
373.879108
11
35.096150
21
371.713349
0
LINE
8
Layer 1
10
35.096150
20
371.713349
11
32.596050
21
371.712349
0
LINE
8
Layer 1
10
32.596050
20
371.712349
11
31.345480
21
373.877075
0
LINE
8
Layer 1
10
31.345480
20
373.877075
11
32.594500
21
376.042317
0
LINE
8
Layer 1
10
32.594500
20
376.042317
11
35.094600
21
376.043317
0
LINE
8
Layer 1
10
76.032155
20
375.951337
11
77.282725
21
373.786611
0
LINE
8
Layer 1
10
77.282725
20
373.786611
11
76.033705
21
371.621369
0
LINE
8
Layer 1
10
76.033705
20
371.621369
11
73.533600
21
371.619769
0
LINE
8
Layer 1
10
73.533600
20
371.619769
11
72.283030
21
373.784495
0
LINE
8
Layer 1
10
72.283030
20
373.784495
11
73.532050
21
375.950254
0
LINE
8
Layer 1
10
73.532050
20
375.950254
11
76.032155
21
375.951337
0
LINE
8
Layer 1
10
60.908530
20
373.457432
11
62.159620
21
371.293223
0
LINE
8
Layer 1
10
62.159620
20
371.293223
11
60.910600
21
369.127464
0
LINE
8
Layer 1
10
60.910600
20
369.127464
11
58.410490
21
369.126464
0
LINE
8
Layer 1
10
58.410490
20
369.126464
11
57.159920
21
371.291190
0
LINE
8
Layer 1
10
57.159920
20
371.291190
11
58.408940
21
373.456433
0
LINE
8
Layer 1
10
58.408940
20
373.456433
11
60.908530
21
373.457432
0
LINE
8
Layer 1
10
50.327260
20
373.373712
11
51.577830
21
371.209503
0
LINE
8
Layer 1
10
51.577830
20
371.209503
11
50.328810
21
369.043744
0
LINE
8
Layer 1
10
50.328810
20
369.043744
11
47.828710
21
369.042744
0
LINE
8
Layer 1
10
47.828710
20
369.042744
11
46.578140
21
371.207469
0
LINE
8
Layer 1
10
46.578140
20
371.207469
11
47.827160
21
373.372712
0
LINE
8
Layer 1
10
47.827160
20
373.372712
11
50.327260
21
373.373712
0
LINE
8
Layer 1
10
40.089130
20
373.144269
11
41.340220
21
370.979543
0
LINE
8
Layer 1
10
41.340220
20
370.979543
11
40.091200
21
368.813784
0
LINE
8
Layer 1
10
40.091200
20
368.813784
11
37.591090
21
368.812784
0
LINE
8
Layer 1
10
37.591090
20
368.812784
11
36.340000
21
370.977510
0
LINE
8
Layer 1
10
36.340000
20
370.977510
11
37.589020
21
373.143269
0
LINE
8
Layer 1
10
37.589020
20
373.143269
11
40.089130
21
373.144269
0
LINE
8
Layer 1
10
71.024710
20
373.144269
11
72.275280
21
370.979543
0
LINE
8
Layer 1
10
72.275280
20
370.979543
11
71.026260
21
368.813784
0
LINE
8
Layer 1
10
71.026260
20
368.813784
11
68.526670
21
368.812784
0
LINE
8
Layer 1
10
68.526670
20
368.812784
11
67.275580
21
370.977510
0
LINE
8
Layer 1
10
67.275580
20
370.977510
11
68.524600
21
373.143269
0
LINE
8
Layer 1
10
68.524600
20
373.143269
11
71.024710
21
373.144269
0
LINE
8
Layer 1
10
66.062740
20
370.733563
11
67.313820
21
368.569354
0
LINE
8
Layer 1
10
67.313820
20
368.569354
11
66.064800
21
366.403595
0
LINE
8
Layer 1
10
66.064800
20
366.403595
11
63.564700
21
366.402595
0
LINE
8
Layer 1
10
63.564700
20
366.402595
11
62.313610
21
368.567320
0
LINE
8
Layer 1
10
62.313610
20
368.567320
11
63.562630
21
370.732563
0
LINE
8
Layer 1
10
63.562630
20
370.732563
11
66.062740
21
370.733563
0
LINE
8
Layer 1
10
45.307930
20
370.652433
11
46.558500
21
368.487708
0
LINE
8
Layer 1
10
46.558500
20
368.487708
11
45.309480
21
366.322465
0
LINE
8
Layer 1
10
45.309480
20
366.322465
11
42.809380
21
366.320965
0
LINE
8
Layer 1
10
42.809380
20
366.320965
11
41.558810
21
368.485691
0
LINE
8
Layer 1
10
41.558810
20
368.485691
11
42.807830
21
370.651450
0
LINE
8
Layer 1
10
42.807830
20
370.651450
11
45.307930
21
370.652433
0
LINE
8
Layer 1
10
55.569840
20
370.644133
11
56.820410
21
368.479407
0
LINE
8
Layer 1
10
56.820410
20
368.479407
11
55.571390
21
366.314165
0
LINE
8
Layer 1
10
55.571390
20
366.314165
11
53.071800
21
366.312665
0
LINE
8
Layer 1
10
53.071800
20
366.312665
11
51.820710
21
368.477390
0
LINE
8
Layer 1
10
51.820710
20
368.477390
11
53.069730
21
370.643150
0
LINE
8
Layer 1
10
53.069730
20
370.643150
11
55.569840
21
370.644133
0
LINE
8
Layer 1
10
35.094600
20
370.543364
11
36.345170
21
368.379155
0
LINE
8
Layer 1
10
36.345170
20
368.379155
11
35.096150
21
366.213396
0
LINE
8
Layer 1
10
35.096150
20
366.213396
11
32.596050
21
366.212396
0
LINE
8
Layer 1
10
32.596050
20
366.212396
11
31.345480
21
368.377122
0
LINE
8
Layer 1
10
31.345480
20
368.377122
11
32.594500
21
370.542365
0
LINE
8
Layer 1
10
32.594500
20
370.542365
11
35.094600
21
370.543364
0
LINE
8
Layer 1
10
76.032155
20
370.451384
11
77.282725
21
368.286658
0
LINE
8
Layer 1
10
77.282725
20
368.286658
11
76.033705
21
366.120899
0
LINE
8
Layer 1
10
76.033705
20
366.120899
11
73.533600
21
366.119899
0
LINE
8
Layer 1
10
73.533600
20
366.119899
11
72.283030
21
368.284624
0
LINE
8
Layer 1
10
72.283030
20
368.284624
11
73.532050
21
370.450384
0
LINE
8
Layer 1
10
73.532050
20
370.450384
11
76.032155
21
370.451384
0
LINE
8
Layer 1
10
60.908530
20
367.957479
11
62.159620
21
365.793270
0
LINE
8
Layer 1
10
62.159620
20
365.793270
11
60.910600
21
363.627511
0
LINE
8
Layer 1
10
60.910600
20
363.627511
11
58.410490
21
363.626511
0
LINE
8
Layer 1
10
58.410490
20
363.626511
11
57.159920
21
365.790720
0
LINE
8
Layer 1
10
57.159920
20
365.790720
11
58.408940
21
367.956479
0
LINE
8
Layer 1
10
58.408940
20
367.956479
11
60.908530
21
367.957479
0
LINE
8
Layer 1
10
50.327260
20
367.873769
11
51.577830
21
365.709560
0
LINE
8
Layer 1
10
51.577830
20
365.709560
11
50.328810
21
363.543800
0
LINE
8
Layer 1
10
50.328810
20
363.543800
11
47.828710
21
363.542800
0
LINE
8
Layer 1
10
47.828710
20
363.542800
11
46.578140
21
365.707009
0
LINE
8
Layer 1
10
46.578140
20
365.707009
11
47.827160
21
367.872768
0
LINE
8
Layer 1
10
47.827160
20
367.872768
11
50.327260
21
367.873769
0
LINE
8
Layer 1
10
40.089130
20
367.643809
11
41.340220
21
365.479600
0
LINE
8
Layer 1
10
41.340220
20
365.479600
11
40.091200
21
363.313840
0
LINE
8
Layer 1
10
40.091200
20
363.313840
11
37.591090
21
363.312840
0
LINE
8
Layer 1
10
37.591090
20
363.312840
11
36.340000
21
365.477565
0
LINE
8
Layer 1
10
36.340000
20
365.477565
11
37.589020
21
367.642808
0
LINE
8
Layer 1
10
37.589020
20
367.642808
11
40.089130
21
367.643809
0
LINE
8
Layer 1
10
71.024710
20
367.643809
11
72.275280
21
365.479600
0
LINE
8
Layer 1
10
72.275280
20
365.479600
11
71.026260
21
363.313840
0
LINE
8
Layer 1
10
71.026260
20
363.313840
11
68.526670
21
363.312840
0
LINE
8
Layer 1
10
68.526670
20
363.312840
11
67.275580
21
365.477565
0
LINE
8
Layer 1
10
67.275580
20
365.477565
11
68.524600
21
367.642808
0
LINE
8
Layer 1
10
68.524600
20
367.642808
11
71.024710
21
367.643809
0
LINE
8
Layer 1
10
66.062740
20
365.233620
11
67.313820
21
363.069411
0
LINE
8
Layer 1
10
67.313820
20
363.069411
11
66.064800
21
360.903651
0
LINE
8
Layer 1
10
66.064800
20
360.903651
11
63.564700
21
360.902651
0
LINE
8
Layer 1
10
63.564700
20
360.902651
11
62.313610
21
363.067377
0
LINE
8
Layer 1
10
62.313610
20
363.067377
11
63.562630
21
365.232619
0
LINE
8
Layer 1
10
63.562630
20
365.232619
11
66.062740
21
365.233620
0
LINE
8
Layer 1
10
45.307930
20
365.152490
11
46.558500
21
362.987764
0
LINE
8
Layer 1
10
46.558500
20
362.987764
11
45.309480
21
360.822005
0
LINE
8
Layer 1
10
45.309480
20
360.822005
11
42.809380
21
360.821005
0
LINE
8
Layer 1
10
42.809380
20
360.821005
11
41.558810
21
362.985731
0
LINE
8
Layer 1
10
41.558810
20
362.985731
11
42.807830
21
365.151490
0
LINE
8
Layer 1
10
42.807830
20
365.151490
11
45.307930
21
365.152490
0
LINE
8
Layer 1
10
55.569840
20
365.144190
11
56.820410
21
362.979465
0
LINE
8
Layer 1
10
56.820410
20
362.979465
11
55.571390
21
360.813705
0
LINE
8
Layer 1
10
55.571390
20
360.813705
11
53.071800
21
360.812705
0
LINE
8
Layer 1
10
53.071800
20
360.812705
11
51.820710
21
362.977431
0
LINE
8
Layer 1
10
51.820710
20
362.977431
11
53.069730
21
365.143190
0
LINE
8
Layer 1
10
53.069730
20
365.143190
11
55.569840
21
365.144190
0
LINE
8
Layer 1
10
35.094600
20
365.043421
11
36.345170
21
362.878696
0
LINE
8
Layer 1
10
36.345170
20
362.878696
11
35.096150
21
360.713453
0
LINE
8
Layer 1
10
35.096150
20
360.713453
11
32.596050
21
360.712453
0
LINE
8
Layer 1
10
32.596050
20
360.712453
11
31.345480
21
362.876662
0
LINE
8
Layer 1
10
31.345480
20
362.876662
11
32.594500
21
365.042421
0
LINE
8
Layer 1
10
32.594500
20
365.042421
11
35.094600
21
365.043421
0
LINE
8
Layer 1
10
76.032155
20
364.951441
11
77.282725
21
362.786716
0
LINE
8
Layer 1
10
77.282725
20
362.786716
11
76.033705
21
360.620956
0
LINE
8
Layer 1
10
76.033705
20
360.620956
11
73.533600
21
360.619956
0
LINE
8
Layer 1
10
73.533600
20
360.619956
11
72.283030
21
362.784682
0
LINE
8
Layer 1
10
72.283030
20
362.784682
11
73.532050
21
364.949924
0
LINE
8
Layer 1
10
73.532050
20
364.949924
11
76.032155
21
364.951441
0
LINE
8
Layer 1
10
60.908530
20
362.457537
11
62.159620
21
360.292811
0
LINE
8
Layer 1
10
62.159620
20
360.292811
11
60.910600
21
358.127569
0
LINE
8
Layer 1
10
60.910600
20
358.127569
11
58.410490
21
358.126569
0
LINE
8
Layer 1
10
58.410490
20
358.126569
11
57.159920
21
360.290778
0
LINE
8
Layer 1
10
57.159920
20
360.290778
11
58.408940
21
362.456537
0
LINE
8
Layer 1
10
58.408940
20
362.456537
11
60.908530
21
362.457537
0
LINE
8
Layer 1
10
50.327260
20
362.373817
11
51.577830
21
360.209091
0
LINE
8
Layer 1
10
51.577830
20
360.209091
11
50.328810
21
358.043849
0
LINE
8
Layer 1
10
50.328810
20
358.043849
11
47.828710
21
358.042849
0
LINE
8
Layer 1
10
47.828710
20
358.042849
11
46.578140
21
360.207058
0
LINE
8
Layer 1
10
46.578140
20
360.207058
11
47.827160
21
362.372817
0
LINE
8
Layer 1
10
47.827160
20
362.372817
11
50.327260
21
362.373817
0
LINE
8
Layer 1
10
40.089130
20
362.143857
11
41.340220
21
359.979648
0
LINE
8
Layer 1
10
41.340220
20
359.979648
11
40.091200
21
357.813889
0
LINE
8
Layer 1
10
40.091200
20
357.813889
11
37.591090
21
357.812889
0
LINE
8
Layer 1
10
37.591090
20
357.812889
11
36.340000
21
359.977615
0
LINE
8
Layer 1
10
36.340000
20
359.977615
11
37.589020
21
362.142857
0
LINE
8
Layer 1
10
37.589020
20
362.142857
11
40.089130
21
362.143857
0
LINE
8
Layer 1
10
71.024710
20
362.143857
11
72.275280
21
359.979648
0
LINE
8
Layer 1
10
72.275280
20
359.979648
11
71.026260
21
357.813889
0
LINE
8
Layer 1
10
71.026260
20
357.813889
11
68.526670
21
357.812889
0
LINE
8
Layer 1
10
68.526670
20
357.812889
11
67.275580
21
359.977615
0
LINE
8
Layer 1
10
67.275580
20
359.977615
11
68.524600
21
362.142857
0
LINE
8
Layer 1
10
68.524600
20
362.142857
11
71.024710
21
362.143857
0
LINE
8
Layer 1
10
66.062740
20
359.733668
11
67.313820
21
357.569459
0
LINE
8
Layer 1
10
67.313820
20
357.569459
11
66.064800
21
355.403700
0
LINE
8
Layer 1
10
66.064800
20
355.403700
11
63.564700
21
355.402700
0
LINE
8
Layer 1
10
63.564700
20
355.402700
11
62.313610
21
357.566909
0
LINE
8
Layer 1
10
62.313610
20
357.566909
11
63.562630
21
359.732669
0
LINE
8
Layer 1
10
63.562630
20
359.732669
11
66.062740
21
359.733668
0
LINE
8
Layer 1
10
45.307930
20
359.652538
11
46.558500
21
357.487812
0
LINE
8
Layer 1
10
46.558500
20
357.487812
11
45.309480
21
355.322053
0
LINE
8
Layer 1
10
45.309480
20
355.322053
11
42.809380
21
355.321053
0
LINE
8
Layer 1
10
42.809380
20
355.321053
11
41.558810
21
357.485779
0
LINE
8
Layer 1
10
41.558810
20
357.485779
11
42.807830
21
359.651022
0
LINE
8
Layer 1
10
42.807830
20
359.651022
11
45.307930
21
359.652538
0
LINE
8
Layer 1
10
55.569840
20
359.644238
11
56.820410
21
357.479512
0
LINE
8
Layer 1
10
56.820410
20
357.479512
11
55.571390
21
355.313753
0
LINE
8
Layer 1
10
55.571390
20
355.313753
11
53.071800
21
355.312753
0
LINE
8
Layer 1
10
53.071800
20
355.312753
11
51.820710
21
357.477479
0
LINE
8
Layer 1
10
51.820710
20
357.477479
11
53.069730
21
359.642722
0
LINE
8
Layer 1
10
53.069730
20
359.642722
11
55.569840
21
359.644238
0
LINE
8
Layer 1
10
35.094600
20
359.543469
11
36.345170
21
357.378743
0
LINE
8
Layer 1
10
36.345170
20
357.378743
11
35.096150
21
355.213501
0
LINE
8
Layer 1
10
35.096150
20
355.213501
11
32.596050
21
355.212501
0
LINE
8
Layer 1
10
32.596050
20
355.212501
11
31.345480
21
357.376710
0
LINE
8
Layer 1
10
31.345480
20
357.376710
11
32.594500
21
359.542469
0
LINE
8
Layer 1
10
32.594500
20
359.542469
11
35.094600
21
359.543469
0
LINE
8
Layer 1
10
76.032155
20
359.450969
11
77.282725
21
357.286760
0
LINE
8
Layer 1
10
77.282725
20
357.286760
11
76.033705
21
355.121001
0
LINE
8
Layer 1
10
76.033705
20
355.121001
11
73.533600
21
355.120001
0
LINE
8
Layer 1
10
73.533600
20
355.120001
11
72.283030
21
357.284727
0
LINE
8
Layer 1
10
72.283030
20
357.284727
11
73.532050
21
359.449969
0
LINE
8
Layer 1
10
73.532050
20
359.449969
11
76.032155
21
359.450969
0
LINE
8
Layer 1
10
60.908530
20
356.957581
11
62.159620
21
354.792855
0
LINE
8
Layer 1
10
62.159620
20
354.792855
11
60.910600
21
352.627613
0
LINE
8
Layer 1
10
60.910600
20
352.627613
11
58.410490
21
352.626613
0
LINE
8
Layer 1
10
58.410490
20
352.626613
11
57.159920
21
354.790822
0
LINE
8
Layer 1
10
57.159920
20
354.790822
11
58.408940
21
356.956582
0
LINE
8
Layer 1
10
58.408940
20
356.956582
11
60.908530
21
356.957581
0
LINE
8
Layer 1
10
50.327260
20
356.873861
11
51.577830
21
354.709136
0
LINE
8
Layer 1
10
51.577830
20
354.709136
11
50.328810
21
352.543893
0
LINE
8
Layer 1
10
50.328810
20
352.543893
11
47.828710
21
352.542293
0
LINE
8
Layer 1
10
47.828710
20
352.542293
11
46.578140
21
354.707018
0
LINE
8
Layer 1
10
46.578140
20
354.707018
11
47.827160
21
356.872778
0
LINE
8
Layer 1
10
47.827160
20
356.872778
11
50.327260
21
356.873861
0
LINE
8
Layer 1
10
40.089130
20
356.643901
11
41.340220
21
354.479692
0
LINE
8
Layer 1
10
41.340220
20
354.479692
11
40.091200
21
352.313933
0
LINE
8
Layer 1
10
40.091200
20
352.313933
11
37.591090
21
352.312933
0
LINE
8
Layer 1
10
37.591090
20
352.312933
11
36.340000
21
354.477142
0
LINE
8
Layer 1
10
36.340000
20
354.477142
11
37.589020
21
356.642902
0
LINE
8
Layer 1
10
37.589020
20
356.642902
11
40.089130
21
356.643901
0
LINE
8
Layer 1
10
71.024710
20
356.643901
11
72.275280
21
354.479692
0
LINE
8
Layer 1
10
72.275280
20
354.479692
11
71.026260
21
352.313933
0
LINE
8
Layer 1
10
71.026260
20
352.313933
11
68.526670
21
352.312933
0
LINE
8
Layer 1
10
68.526670
20
352.312933
11
67.275580
21
354.477142
0
LINE
8
Layer 1
10
67.275580
20
354.477142
11
68.524600
21
356.642902
0
LINE
8
Layer 1
10
68.524600
20
356.642902
11
71.024710
21
356.643901
0
LINE
8
Layer 1
10
66.062740
20
354.233712
11
67.313820
21
352.068987
0
LINE
8
Layer 1
10
67.313820
20
352.068987
11
66.064800
21
349.903744
0
LINE
8
Layer 1
10
66.064800
20
349.903744
11
63.564700
21
349.902744
0
LINE
8
Layer 1
10
63.564700
20
349.902744
11
62.313610
21
352.066953
0
LINE
8
Layer 1
10
62.313610
20
352.066953
11
63.562630
21
354.232712
0
LINE
8
Layer 1
10
63.562630
20
354.232712
11
66.062740
21
354.233712
0
LINE
8
Layer 1
10
45.307930
20
354.152062
11
46.558500
21
351.987853
0
LINE
8
Layer 1
10
46.558500
20
351.987853
11
45.309480
21
349.822093
0
LINE
8
Layer 1
10
45.309480
20
349.822093
11
42.809380
21
349.821093
0
LINE
8
Layer 1
10
42.809380
20
349.821093
11
41.558810
21
351.985819
0
LINE
8
Layer 1
10
41.558810
20
351.985819
11
42.807830
21
354.151061
0
LINE
8
Layer 1
10
42.807830
20
354.151061
11
45.307930
21
354.152062
0
LINE
8
Layer 1
10
55.569840
20
354.143762
11
56.820410
21
351.979553
0
LINE
8
Layer 1
10
56.820410
20
351.979553
11
55.571390
21
349.813794
0
LINE
8
Layer 1
10
55.571390
20
349.813794
11
53.071800
21
349.812794
0
LINE
8
Layer 1
10
53.071800
20
349.812794
11
51.820710
21
351.977519
0
LINE
8
Layer 1
10
51.820710
20
351.977519
11
53.069730
21
354.142762
0
LINE
8
Layer 1
10
53.069730
20
354.142762
11
55.569840
21
354.143762
0
LINE
8
Layer 1
10
35.094600
20
354.043510
11
36.345170
21
351.878784
0
LINE
8
Layer 1
10
36.345170
20
351.878784
11
35.096150
21
349.713542
0
LINE
8
Layer 1
10
35.096150
20
349.713542
11
32.596050
21
349.712042
0
LINE
8
Layer 1
10
32.596050
20
349.712042
11
31.345480
21
351.876767
0
LINE
8
Layer 1
10
31.345480
20
351.876767
11
32.594500
21
354.042527
0
LINE
8
Layer 1
10
32.594500
20
354.042527
11
35.094600
21
354.043510
0
LINE
8
Layer 1
10
76.032155
20
353.951010
11
77.282725
21
351.786801
0
LINE
8
Layer 1
10
77.282725
20
351.786801
11
76.033705
21
349.621042
0
LINE
8
Layer 1
10
76.033705
20
349.621042
11
73.533600
21
349.620042
0
LINE
8
Layer 1
10
73.533600
20
349.620042
11
72.283030
21
351.784251
0
LINE
8
Layer 1
10
72.283030
20
351.784251
11
73.532050
21
353.950011
0
LINE
8
Layer 1
10
73.532050
20
353.950011
11
76.032155
21
353.951010
0
LINE
8
Layer 1
10
60.908530
20
351.457622
11
62.159620
21
349.292897
0
LINE
8
Layer 1
10
62.159620
20
349.292897
11
60.910600
21
347.127137
0
LINE
8
Layer 1
10
60.910600
20
347.127137
11
58.410490
21
347.126137
0
LINE
8
Layer 1
10
58.410490
20
347.126137
11
57.159920
21
349.290863
0
LINE
8
Layer 1
10
57.159920
20
349.290863
11
58.408940
21
351.456622
0
LINE
8
Layer 1
10
58.408940
20
351.456622
11
60.908530
21
351.457622
0
LINE
8
Layer 1
10
50.327260
20
351.373902
11
51.577830
21
349.209176
0
LINE
8
Layer 1
10
51.577830
20
349.209176
11
50.328810
21
347.043417
0
LINE
8
Layer 1
10
50.328810
20
347.043417
11
47.828710
21
347.042417
0
LINE
8
Layer 1
10
47.828710
20
347.042417
11
46.578140
21
349.207143
0
LINE
8
Layer 1
10
46.578140
20
349.207143
11
47.827160
21
351.372902
0
LINE
8
Layer 1
10
47.827160
20
351.372902
11
50.327260
21
351.373902
0
LINE
8
Layer 1
10
40.089130
20
351.143941
11
41.340220
21
348.979216
0
LINE
8
Layer 1
10
41.340220
20
348.979216
11
40.091200
21
346.813973
0
LINE
8
Layer 1
10
40.091200
20
346.813973
11
37.591090
21
346.812973
0
LINE
8
Layer 1
10
37.591090
20
346.812973
11
36.340000
21
348.977182
0
LINE
8
Layer 1
10
36.340000
20
348.977182
11
37.589020
21
351.142941
0
LINE
8
Layer 1
10
37.589020
20
351.142941
11
40.089130
21
351.143941
0
LINE
8
Layer 1
10
71.024710
20
351.143941
11
72.275280
21
348.979216
0
LINE
8
Layer 1
10
72.275280
20
348.979216
11
71.026260
21
346.813973
0
LINE
8
Layer 1
10
71.026260
20
346.813973
11
68.526670
21
346.812973
0
LINE
8
Layer 1
10
68.526670
20
346.812973
11
67.275580
21
348.977182
0
LINE
8
Layer 1
10
67.275580
20
348.977182
11
68.524600
21
351.142941
0
LINE
8
Layer 1
10
68.524600
20
351.142941
11
71.024710
21
351.143941
0
LINE
8
Layer 1
10
66.062740
20
348.733753
11
67.313820
21
346.569027
0
LINE
8
Layer 1
10
67.313820
20
346.569027
11
66.064800
21
344.403784
0
LINE
8
Layer 1
10
66.064800
20
344.403784
11
63.564700
21
344.402184
0
LINE
8
Layer 1
10
63.564700
20
344.402184
11
62.313610
21
346.566910
0
LINE
8
Layer 1
10
62.313610
20
346.566910
11
63.562630
21
348.732669
0
LINE
8
Layer 1
10
63.562630
20
348.732669
11
66.062740
21
348.733753
0
LINE
8
Layer 1
10
45.307930
20
348.652103
11
46.558500
21
346.487894
0
LINE
8
Layer 1
10
46.558500
20
346.487894
11
45.309480
21
344.322135
0
LINE
8
Layer 1
10
45.309480
20
344.322135
11
42.809380
21
344.321135
0
LINE
8
Layer 1
10
42.809380
20
344.321135
11
41.558810
21
346.485344
0
LINE
8
Layer 1
10
41.558810
20
346.485344
11
42.807830
21
348.651103
0
LINE
8
Layer 1
10
42.807830
20
348.651103
11
45.307930
21
348.652103
0
LINE
8
Layer 1
10
55.569840
20
348.643803
11
56.820410
21
346.479594
0
LINE
8
Layer 1
10
56.820410
20
346.479594
11
55.571390
21
344.313834
0
LINE
8
Layer 1
10
55.571390
20
344.313834
11
53.071800
21
344.312834
0
LINE
8
Layer 1
10
53.071800
20
344.312834
11
51.820710
21
346.477043
0
LINE
8
Layer 1
10
51.820710
20
346.477043
11
53.069730
21
348.642802
0
LINE
8
Layer 1
10
53.069730
20
348.642802
11
55.569840
21
348.643803
0
LINE
8
Layer 1
10
60.908530
20
345.957662
11
62.159620
21
343.792936
0
LINE
8
Layer 1
10
62.159620
20
343.792936
11
60.910600
21
341.627177
0
LINE
8
Layer 1
10
60.910600
20
341.627177
11
58.410490
21
341.626177
0
LINE
8
Layer 1
10
58.410490
20
341.626177
11
57.159920
21
343.790903
0
LINE
8
Layer 1
10
57.159920
20
343.790903
11
58.408940
21
345.956662
0
LINE
8
Layer 1
10
58.408940
20
345.956662
11
60.908530
21
345.957662
0
LINE
8
Layer 1
10
50.327260
20
345.873942
11
51.577830
21
343.709216
0
LINE
8
Layer 1
10
51.577830
20
343.709216
11
50.328810
21
341.543457
0
LINE
8
Layer 1
10
50.328810
20
341.543457
11
47.828710
21
341.542457
0
LINE
8
Layer 1
10
47.828710
20
341.542457
11
46.578140
21
343.707183
0
LINE
8
Layer 1
10
46.578140
20
343.707183
11
47.827160
21
345.872426
0
LINE
8
Layer 1
10
47.827160
20
345.872426
11
50.327260
21
345.873942
0
LINE
8
Layer 1
10
55.569840
20
343.143876
11
56.820410
21
340.979150
0
LINE
8
Layer 1
10
56.820410
20
340.979150
11
55.571390
21
338.813908
0
LINE
8
Layer 1
10
55.571390
20
338.813908
11
53.071800
21
338.812908
0
LINE
8
Layer 1
10
53.071800
20
338.812908
11
51.820710
21
340.977117
0
LINE
8
Layer 1
10
51.820710
20
340.977117
11
53.069730
21
343.142876
0
LINE
8
Layer 1
10
53.069730
20
343.142876
11
55.569840
21
343.143876
0
LINE
8
Layer 1
10
240.737490
20
249.777830
11
225.737370
21
249.777830
0
LINE
8
Layer 1
10
225.737370
20
249.777830
11
225.737370
21
169.777550
0
LINE
8
Layer 1
10
225.737370
20
169.777550
11
240.737490
21
169.777550
0
LINE
8
Layer 1
10
240.737490
20
169.777550
11
240.737490
21
249.777830
0
LINE
8
Layer 1
10
236.285050
20
226.601470
11
236.285050
21
210.601410
0
LINE
8
Layer 1
10
236.285050
20
210.601410
11
233.284710
21
210.601410
0
LINE
8
Layer 1
10
233.284710
20
210.601410
11
233.284710
21
226.601470
0
LINE
8
Layer 1
10
233.284710
20
226.601470
11
236.285050
21
226.601470
0
LINE
8
Layer 1
10
236.285050
20
207.118420
11
236.285050
21
195.118640
0
LINE
8
Layer 1
10
236.285050
20
195.118640
11
233.284710
21
195.118640
0
LINE
8
Layer 1
10
233.284710
20
195.118640
11
233.284710
21
207.118420
0
LINE
8
Layer 1
10
233.284710
20
207.118420
11
236.285050
21
207.118420
0
LINE
8
Layer 1
10
236.251450
20
239.270460
11
236.251450
21
229.270560
0
LINE
8
Layer 1
10
236.251450
20
229.270560
11
233.251110
21
229.270560
0
LINE
8
Layer 1
10
233.251110
20
229.270560
11
233.251110
21
239.270460
0
LINE
8
Layer 1
10
233.251110
20
239.270460
11
236.251450
21
239.270460
0
LINE
8
Layer 1
10
236.237550
20
246.777500
11
236.237550
21
240.777860
0
LINE
8
Layer 1
10
236.237550
20
240.777860
11
233.237210
21
240.777860
0
LINE
8
Layer 1
10
233.237210
20
240.777860
11
233.237210
21
246.777500
0
LINE
8
Layer 1
10
233.237210
20
246.777500
11
236.237550
21
246.777500
0
LINE
8
Layer 1
10
268.780810
20
133.605490
11
268.792710
21
132.599350
0
LINE
8
Layer 1
10
268.792710
20
132.599350
11
271.908290
21
129.603150
0
LINE
8
Layer 1
10
271.908290
20
129.603150
11
271.902290
21
131.597350
0
LINE
8
Layer 1
10
271.902290
20
131.597350
11
275.001330
21
131.597350
0
LINE
8
Layer 1
10
275.001330
20
131.597350
11
274.982330
21
114.104560
0
LINE
8
Layer 1
10
274.982330
20
114.104560
11
288.265630
21
114.060960
0
LINE
8
Layer 1
10
288.265630
20
114.060960
11
293.265840
21
114.060960
0
LINE
8
Layer 1
10
293.265840
20
114.060960
11
293.265840
21
158.061390
0
LINE
8
Layer 1
10
293.265840
20
158.061390
11
288.265630
21
158.061390
0
LINE
8
Layer 1
10
288.265630
20
158.061390
11
274.935560
21
157.901810
0
LINE
8
Layer 1
10
274.935560
20
157.901810
11
274.935170
21
137.635760
0
LINE
8
Layer 1
10
274.935170
20
137.635760
11
271.902800
21
137.602660
0
LINE
8
Layer 1
10
271.902800
20
137.602660
11
271.908800
21
139.603050
0
LINE
8
Layer 1
10
271.908800
20
139.603050
11
268.793230
21
136.606850
0
LINE
8
Layer 1
10
268.793230
20
136.606850
11
268.781330
21
135.600190
0
LINE
8
Layer 1
10
268.781330
20
135.600190
11
271.891740
21
135.600190
0
LINE
8
Layer 1
10
271.891740
20
135.600190
11
271.896740
21
135.600190
0
LINE
8
Layer 1
10
271.896740
20
135.600190
11
275.001460
21
135.600190
0
LINE
8
Layer 1
10
275.001460
20
135.600190
11
275.001460
21
133.598790
0
LINE
8
Layer 1
10
275.001460
20
133.598790
11
271.896220
21
133.598790
0
LINE
8
Layer 1
10
271.896220
20
133.598790
11
271.896220
21
133.605790
0
LINE
8
Layer 1
10
271.896220
20
133.605790
11
268.780810
21
133.605490
0
LINE
8
Layer 1
10
245.799100
20
116.630010
11
246.930810
21
116.642410
0
LINE
8
Layer 1
10
246.930810
20
116.642410
11
250.299080
21
119.757990
0
LINE
8
Layer 1
10
250.299080
20
119.757990
11
248.299200
21
119.752990
0
LINE
8
Layer 1
10
248.299200
20
119.752990
11
248.299200
21
122.850790
0
LINE
8
Layer 1
10
248.299200
20
122.850790
11
267.241930
21
122.926090
0
LINE
8
Layer 1
10
267.241930
20
122.926090
11
267.299130
21
136.630330
0
LINE
8
Layer 1
10
267.299130
20
136.630330
11
267.299130
21
141.630020
0
LINE
8
Layer 1
10
267.299130
20
141.630020
11
223.298700
21
141.630020
0
LINE
8
Layer 1
10
223.298700
20
141.630020
11
223.298700
21
136.630330
0
LINE
8
Layer 1
10
223.298700
20
136.630330
11
223.262800
21
122.832540
0
LINE
8
Layer 1
10
223.262800
20
122.832540
11
242.299070
21
122.850840
0
LINE
8
Layer 1
10
242.299070
20
122.850840
11
242.299070
21
119.753350
0
LINE
8
Layer 1
10
242.299070
20
119.753350
11
240.299200
21
119.758350
0
LINE
8
Layer 1
10
240.299200
20
119.758350
11
243.667470
21
116.643300
0
LINE
8
Layer 1
10
243.667470
20
116.643300
11
244.799180
21
116.630900
0
LINE
8
Layer 1
10
244.799180
20
116.630900
11
244.799180
21
119.740790
0
LINE
8
Layer 1
10
244.799180
20
119.740790
11
244.799180
21
119.746790
0
LINE
8
Layer 1
10
244.799180
20
119.746790
11
244.799180
21
122.850480
0
LINE
8
Layer 1
10
244.799180
20
122.850480
11
245.799120
21
122.850480
0
LINE
8
Layer 1
10
245.799120
20
122.850480
11
245.799120
21
119.746280
0
LINE
8
Layer 1
10
245.799120
20
119.746280
11
245.799120
21
119.741280
0
LINE
8
Layer 1
10
245.799120
20
119.741280
11
245.799100
21
116.630010
0
LINE
8
Layer 1
10
271.500850
20
181.632870
11
268.813290
21
181.635870
0
LINE
8
Layer 1
10
268.813290
20
181.635870
11
268.821290
21
180.131570
0
LINE
8
Layer 1
10
268.821290
20
180.131570
11
271.504850
21
175.635720
0
LINE
8
Layer 1
10
271.504850
20
175.635720
11
271.505110
21
177.635460
0
LINE
8
Layer 1
10
271.505110
20
177.635460
11
274.639280
21
177.618960
0
LINE
8
Layer 1
10
274.639280
20
177.618960
11
274.594880
21
161.732960
0
LINE
8
Layer 1
10
274.594880
20
161.732960
11
288.813630
21
161.635960
0
LINE
8
Layer 1
10
288.813630
20
161.635960
11
293.813310
21
161.635960
0
LINE
8
Layer 1
10
293.813310
20
161.635960
11
293.813310
21
205.635860
0
LINE
8
Layer 1
10
293.813310
20
205.635860
11
288.813630
21
205.635860
0
LINE
8
Layer 1
10
288.813630
20
205.635860
11
274.501350
21
205.642860
0
LINE
8
Layer 1
10
274.501350
20
205.642860
11
274.457450
21
187.635580
0
LINE
8
Layer 1
10
274.457450
20
187.635580
11
271.458400
21
187.612080
0
LINE
8
Layer 1
10
271.458400
20
187.612080
11
271.506000
21
189.635800
0
LINE
8
Layer 1
10
271.506000
20
189.635800
11
268.822440
21
185.139950
0
LINE
8
Layer 1
10
268.822440
20
185.139950
11
268.813440
21
183.635750
0
LINE
8
Layer 1
10
268.813440
20
183.635750
11
271.502160
21
183.638750
0
LINE
8
Layer 1
10
271.505160
20
183.635750
11
275.725649
21
183.635750
0
LINE
8
Layer 1
10
275.725649
20
183.635750
11
276.888290
21
183.635750
0
LINE
8
Layer 1
10
276.888290
20
183.635750
11
276.888290
21
181.635870
0
LINE
8
Layer 1
10
276.888290
20
181.635870
11
271.505160
21
181.635870
0
LINE
8
Layer 1
10
267.212890
20
167.866200
11
270.209430
21
167.863200
0
LINE
8
Layer 1
10
270.209430
20
167.863200
11
270.200430
21
169.367500
0
LINE
8
Layer 1
10
270.200430
20
169.367500
11
267.208890
21
173.863350
0
LINE
8
Layer 1
10
267.208890
20
173.863350
11
267.209610
21
171.862950
0
LINE
8
Layer 1
10
267.209610
20
171.862950
11
264.342460
21
171.886350
0
LINE
8
Layer 1
10
264.342460
20
171.886350
11
264.223030
21
188.909720
0
LINE
8
Layer 1
10
264.223030
20
188.909720
11
244.208950
21
188.862920
0
LINE
8
Layer 1
10
244.208950
20
188.862920
11
244.208950
21
144.863020
0
LINE
8
Layer 1
10
244.208950
20
144.863020
11
264.223030
21
144.769520
0
LINE
8
Layer 1
10
264.223030
20
144.769520
11
264.365810
21
161.863050
0
LINE
8
Layer 1
10
264.365810
20
161.863050
11
267.209580
21
161.863050
0
LINE
8
Layer 1
10
267.209580
20
161.863050
11
267.209230
21
159.863270
0
LINE
8
Layer 1
10
267.209230
20
159.863270
11
270.200780
21
164.359120
0
LINE
8
Layer 1
10
270.200780
20
164.359120
11
270.209780
21
165.863320
0
LINE
8
Layer 1
10
270.209780
20
165.863320
11
268.123090
21
165.876820
0
LINE
8
Layer 1
10
268.123090
20
165.876820
11
267.209580
21
165.863320
0
LINE
8
Layer 1
10
267.209580
20
165.863320
11
257.209670
21
165.863320
0
LINE
8
Layer 1
10
257.209670
20
165.863320
11
257.209670
21
167.863200
0
LINE
8
Layer 1
10
257.209670
20
167.863200
11
265.423640
21
167.863200
0
LINE
8
Layer 1
10
265.423640
20
167.863200
11
267.212890
21
167.866200
0
LINE
8
Layer 1
10
270.328760
20
213.589380
11
270.319760
21
215.595460
0
LINE
8
Layer 1
10
270.319760
20
215.595460
11
267.328730
21
221.591990
0
LINE
8
Layer 1
10
267.328730
20
221.591990
11
267.329250
21
219.594700
0
LINE
8
Layer 1
10
267.329250
20
219.594700
11
264.556810
21
219.611200
0
LINE
8
Layer 1
10
264.556810
20
219.611200
11
264.576510
21
235.076290
0
LINE
8
Layer 1
10
264.576510
20
235.076290
11
249.328780
21
235.091990
0
LINE
8
Layer 1
10
249.328780
20
235.091990
11
244.329080
21
235.091990
0
LINE
8
Layer 1
10
244.329080
20
235.091990
11
244.329080
21
191.092090
0
LINE
8
Layer 1
10
244.329080
20
191.092090
11
249.328780
21
191.092090
0
LINE
8
Layer 1
10
249.328780
20
191.092090
11
264.342650
21
191.101090
0
LINE
8
Layer 1
10
264.342650
20
191.101090
11
264.449300
21
203.542490
0
LINE
8
Layer 1
10
264.449300
20
203.542490
11
267.329750
21
203.589290
0
LINE
8
Layer 1
10
267.329750
20
203.589290
11
267.327750
21
200.591540
0
LINE
8
Layer 1
10
267.327750
20
200.591540
11
270.318780
21
206.588590
0
LINE
8
Layer 1
10
270.318780
20
206.588590
11
270.327780
21
208.594670
0
LINE
8
Layer 1
10
270.327780
20
208.594670
11
257.329090
21
208.591670
0
LINE
8
Layer 1
10
257.329090
20
208.591670
11
257.345590
21
213.576380
0
LINE
8
Layer 1
10
257.345590
20
213.576380
11
270.328720
21
213.589380
0
LINE
8
Layer 1
10
270.328720
20
213.589380
11
270.328760
21
213.589380
0
LINE
8
Layer 1
10
139.019600
20
177.586540
11
139.019600
21
180.579640
0
LINE
8
Layer 1
10
139.019600
20
180.579640
11
140.129611
21
181.283470
0
LINE
8
Layer 1
10
140.129611
20
181.283470
11
140.320394
21
181.404441
0
LINE
8
Layer 1
10
140.320394
20
181.404441
11
140.268363
21
181.371449
0
LINE
8
Layer 1
10
140.268363
20
181.371449
11
139.019600
21
180.579640
0
LINE
8
Layer 1
10
267.506370
20
230.697940
11
271.442040
21
230.764040
0
LINE
8
Layer 1
10
271.442040
20
230.764040
11
271.442040
21
230.765040
0
LINE
8
Layer 1
10
271.442040
20
230.765040
11
289.436810
21
230.765040
0
LINE
8
Layer 1
10
289.436810
20
230.765040
11
289.436810
21
228.765170
0
LINE
8
Layer 1
10
289.436810
20
228.765170
11
271.445660
21
228.765170
0
LINE
8
Layer 1
10
271.445660
20
228.765170
11
271.445660
21
228.766170
0
LINE
8
Layer 1
10
271.445660
20
228.766170
11
267.509980
21
228.832270
0
LINE
8
Layer 1
10
267.509980
20
228.832270
11
267.509980
21
223.772120
0
LINE
8
Layer 1
10
267.509980
20
223.772120
11
271.478730
21
219.902590
0
LINE
8
Layer 1
10
271.478730
20
219.902590
11
271.464230
21
223.764880
0
LINE
8
Layer 1
10
271.464230
20
223.764880
11
274.235830
21
223.811680
0
LINE
8
Layer 1
10
274.235830
20
223.811680
11
274.235830
21
207.764860
0
LINE
8
Layer 1
10
274.235830
20
207.764860
11
294.436480
21
207.764860
0
LINE
8
Layer 1
10
294.436480
20
207.764860
11
294.436480
21
251.765270
0
LINE
8
Layer 1
10
294.436480
20
251.765270
11
274.189050
21
251.671770
0
LINE
8
Layer 1
10
274.189050
20
251.671770
11
274.189050
21
235.765250
0
LINE
8
Layer 1
10
274.189050
20
235.765250
11
271.460620
21
235.765250
0
LINE
8
Layer 1
10
271.460620
20
235.765250
11
271.475120
21
239.627550
0
LINE
8
Layer 1
10
271.475120
20
239.627550
11
267.506370
21
235.758020
0
LINE
8
Layer 1
10
267.506370
20
235.758020
11
267.506370
21
230.697940
 0 
ENDSEC
 0 
EOF