%TF.GenerationSoftware,KiCad,Pcbnew,7.0.9*%
%TF.CreationDate,2024-01-26T12:36:02+01:00*%
%TF.ProjectId,maglev26,6d61676c-6576-4323-962e-6b696361645f,1.0*%
%TF.SameCoordinates,Original*%
%TF.FileFunction,Legend,Bot*%
%TF.FilePolarity,Positive*%
%FSLAX46Y46*%
G04 Gerber Fmt 4.6, Leading zero omitted, Abs format (unit mm)*
G04 Created by KiCad (PCBNEW 7.0.9) date 2024-01-26 12:36:02*
%MOMM*%
%LPD*%
G01*
G04 APERTURE LIST*
G04 Aperture macros list*
%AMRoundRect*
0 Rectangle with rounded corners*
0 $1 Rounding radius*
0 $2 $3 $4 $5 $6 $7 $8 $9 X,Y pos of 4 corners*
0 Add a 4 corners polygon primitive as box body*
4,1,4,$2,$3,$4,$5,$6,$7,$8,$9,$2,$3,0*
0 Add four circle primitives for the rounded corners*
1,1,$1+$1,$2,$3*
1,1,$1+$1,$4,$5*
1,1,$1+$1,$6,$7*
1,1,$1+$1,$8,$9*
0 Add four rect primitives between the rounded corners*
20,1,$1+$1,$2,$3,$4,$5,0*
20,1,$1+$1,$4,$5,$6,$7,0*
20,1,$1+$1,$6,$7,$8,$9,0*
20,1,$1+$1,$8,$9,$2,$3,0*%
G04 Aperture macros list end*
%ADD10C,0.150000*%
%ADD11C,0.202000*%
%ADD12C,0.329000*%
%ADD13C,0.200000*%
%ADD14C,0.250000*%
%ADD15C,0.080000*%
%ADD16C,0.350000*%
%ADD17C,0.100000*%
%ADD18C,0.120000*%
%ADD19C,10.000000*%
%ADD20RoundRect,0.250000X-0.250000X-0.475000X0.250000X-0.475000X0.250000X0.475000X-0.250000X0.475000X0*%
%ADD21RoundRect,0.250000X-0.450000X0.262500X-0.450000X-0.262500X0.450000X-0.262500X0.450000X0.262500X0*%
%ADD22RoundRect,0.250000X-0.550000X1.500000X-0.550000X-1.500000X0.550000X-1.500000X0.550000X1.500000X0*%
%ADD23C,1.500000*%
%ADD24C,3.200000*%
%ADD25RoundRect,0.250000X-0.625000X0.400000X-0.625000X-0.400000X0.625000X-0.400000X0.625000X0.400000X0*%
%ADD26RoundRect,0.225000X-0.225000X-0.250000X0.225000X-0.250000X0.225000X0.250000X-0.225000X0.250000X0*%
%ADD27RoundRect,0.150000X0.150000X-0.825000X0.150000X0.825000X-0.150000X0.825000X-0.150000X-0.825000X0*%
%ADD28R,3.300000X2.410000*%
%ADD29RoundRect,0.225000X0.225000X0.250000X-0.225000X0.250000X-0.225000X-0.250000X0.225000X-0.250000X0*%
%ADD30R,1.500000X2.000000*%
%ADD31R,3.800000X2.000000*%
%ADD32RoundRect,0.250000X-1.500000X-0.550000X1.500000X-0.550000X1.500000X0.550000X-1.500000X0.550000X0*%
%ADD33R,1.900000X1.000000*%
%ADD34RoundRect,0.250000X0.250000X0.475000X-0.250000X0.475000X-0.250000X-0.475000X0.250000X-0.475000X0*%
%ADD35C,2.000000*%
%ADD36R,3.300000X4.400000*%
%ADD37R,3.900000X6.200000*%
%ADD38RoundRect,0.225000X-0.250000X0.225000X-0.250000X-0.225000X0.250000X-0.225000X0.250000X0.225000X0*%
%ADD39RoundRect,0.250000X0.450000X-0.262500X0.450000X0.262500X-0.450000X0.262500X-0.450000X-0.262500X0*%
%ADD40RoundRect,0.250000X0.400000X0.625000X-0.400000X0.625000X-0.400000X-0.625000X0.400000X-0.625000X0*%
G04 APERTURE END LIST*
D10*
X156514800Y-55245000D02*
X156514800Y-54102000D01*
D11*
X129285400Y-90297000D02*
G75*
G03*
X129285400Y-90297000I-101000J0D01*
G01*
D10*
X156065787Y-55430987D02*
G75*
G03*
X156963813Y-55430987I449013J-449013D01*
G01*
X137250000Y-132000000D02*
X136250000Y-132000000D01*
D12*
X156679300Y-55880000D02*
G75*
G03*
X156679300Y-55880000I-164500J0D01*
G01*
D10*
X159639000Y-55626000D02*
X159639000Y-55880000D01*
X194310000Y-95758000D02*
X193802000Y-94742000D01*
X194818000Y-94742000D01*
X194310000Y-95758000D01*
G36*
X194310000Y-95758000D02*
G01*
X193802000Y-94742000D01*
X194818000Y-94742000D01*
X194310000Y-95758000D01*
G37*
X137250000Y-137000000D02*
X136250000Y-137000000D01*
X194310000Y-95758000D02*
X194310000Y-91694000D01*
X157149800Y-58293000D02*
G75*
G03*
X157149800Y-58293000I-635000J0D01*
G01*
X156750000Y-124250000D02*
X155750000Y-124250000D01*
X128750000Y-67750000D02*
X130400000Y-67750000D01*
X131000000Y-67750000D02*
X132650000Y-67750000D01*
X133250000Y-67750000D02*
X134900000Y-67750000D01*
X135500000Y-67750000D02*
X137150000Y-67750000D01*
X137750000Y-67750000D02*
X139400000Y-67750000D01*
X140000000Y-67750000D02*
X141650000Y-67750000D01*
X142250000Y-67750000D02*
X142750000Y-67750000D01*
X142750000Y-67750000D02*
X142750000Y-69400000D01*
X142750000Y-70000000D02*
X142750000Y-71650000D01*
X142750000Y-72250000D02*
X142750000Y-73900000D01*
X142750000Y-74500000D02*
X142750000Y-76150000D01*
X142750000Y-76750000D02*
X142750000Y-78400000D01*
X142750000Y-79000000D02*
X142750000Y-80650000D01*
X142750000Y-81250000D02*
X142750000Y-82000000D01*
X142750000Y-82000000D02*
X141100000Y-82000000D01*
X140500000Y-82000000D02*
X138850000Y-82000000D01*
X138250000Y-82000000D02*
X136600000Y-82000000D01*
X136000000Y-82000000D02*
X134350000Y-82000000D01*
X133750000Y-82000000D02*
X132100000Y-82000000D01*
X131500000Y-82000000D02*
X129850000Y-82000000D01*
X129250000Y-82000000D02*
X128750000Y-82000000D01*
X128750000Y-82000000D02*
X128750000Y-80350000D01*
X128750000Y-79750000D02*
X128750000Y-78100000D01*
X128750000Y-77500000D02*
X128750000Y-75850000D01*
X128750000Y-75250000D02*
X128750000Y-73600000D01*
X128750000Y-73000000D02*
X128750000Y-71350000D01*
X128750000Y-70750000D02*
X128750000Y-69100000D01*
X128750000Y-68500000D02*
X128750000Y-67750000D01*
X159258000Y-56388000D02*
X159258000Y-55372000D01*
D11*
X177443800Y-116560600D02*
G75*
G03*
X177443800Y-116560600I-101000J0D01*
G01*
D10*
X159639000Y-55118000D02*
X159639000Y-55372000D01*
X156260800Y-53467000D02*
X156768800Y-53467000D01*
X156514800Y-55245000D02*
X156514800Y-55880000D01*
X156750000Y-144500000D02*
X155750000Y-144500000D01*
X137250000Y-121750000D02*
X136250000Y-121750000D01*
X159258000Y-55372000D02*
X159258000Y-55118000D01*
X156750000Y-109000000D02*
X155750000Y-109000000D01*
X156514800Y-57658000D02*
X156514800Y-56515000D01*
D11*
X163321400Y-89331800D02*
G75*
G03*
X163321400Y-89331800I-101000J0D01*
G01*
D10*
X157149800Y-53467000D02*
G75*
G03*
X157149800Y-53467000I-635000J0D01*
G01*
X156514800Y-53721000D02*
X156514800Y-53213000D01*
X159639000Y-56134000D02*
X159639000Y-56388000D01*
D11*
X133044600Y-136372600D02*
G75*
G03*
X133044600Y-136372600I-101000J0D01*
G01*
D10*
X137250000Y-126750000D02*
X136250000Y-126750000D01*
X156514800Y-58547000D02*
X156514800Y-58039000D01*
X149750000Y-67750000D02*
X151400000Y-67750000D01*
X152000000Y-67750000D02*
X153650000Y-67750000D01*
X154250000Y-67750000D02*
X155900000Y-67750000D01*
X156500000Y-67750000D02*
X158150000Y-67750000D01*
X158750000Y-67750000D02*
X160400000Y-67750000D01*
X161000000Y-67750000D02*
X162650000Y-67750000D01*
X163250000Y-67750000D02*
X164000000Y-67750000D01*
X164000000Y-67750000D02*
X164000000Y-69400000D01*
X164000000Y-70000000D02*
X164000000Y-71650000D01*
X164000000Y-72250000D02*
X164000000Y-73900000D01*
X164000000Y-74500000D02*
X164000000Y-76150000D01*
X164000000Y-76750000D02*
X164000000Y-78400000D01*
X164000000Y-79000000D02*
X164000000Y-80650000D01*
X164000000Y-81250000D02*
X164000000Y-81500000D01*
X164000000Y-81500000D02*
X162350000Y-81500000D01*
X161750000Y-81500000D02*
X160100000Y-81500000D01*
X159500000Y-81500000D02*
X157850000Y-81500000D01*
X157250000Y-81500000D02*
X155600000Y-81500000D01*
X155000000Y-81500000D02*
X153350000Y-81500000D01*
X152750000Y-81500000D02*
X151100000Y-81500000D01*
X150500000Y-81500000D02*
X149750000Y-81500000D01*
X149750000Y-81500000D02*
X149750000Y-79850000D01*
X149750000Y-79250000D02*
X149750000Y-77600000D01*
X149750000Y-77000000D02*
X149750000Y-75350000D01*
X149750000Y-74750000D02*
X149750000Y-73100000D01*
X149750000Y-72500000D02*
X149750000Y-70850000D01*
X149750000Y-70250000D02*
X149750000Y-68600000D01*
X149750000Y-68000000D02*
X149750000Y-67750000D01*
X135761904Y-123704819D02*
X135142857Y-123704819D01*
X135142857Y-123704819D02*
X135476190Y-124085771D01*
X135476190Y-124085771D02*
X135333333Y-124085771D01*
X135333333Y-124085771D02*
X135238095Y-124133390D01*
X135238095Y-124133390D02*
X135190476Y-124181009D01*
X135190476Y-124181009D02*
X135142857Y-124276247D01*
X135142857Y-124276247D02*
X135142857Y-124514342D01*
X135142857Y-124514342D02*
X135190476Y-124609580D01*
X135190476Y-124609580D02*
X135238095Y-124657200D01*
X135238095Y-124657200D02*
X135333333Y-124704819D01*
X135333333Y-124704819D02*
X135619047Y-124704819D01*
X135619047Y-124704819D02*
X135714285Y-124657200D01*
X135714285Y-124657200D02*
X135761904Y-124609580D01*
X134761904Y-124419104D02*
X134285714Y-124419104D01*
X134857142Y-124704819D02*
X134523809Y-123704819D01*
X134523809Y-123704819D02*
X134190476Y-124704819D01*
X135238095Y-119038152D02*
X135238095Y-119704819D01*
X135476190Y-118657200D02*
X135714285Y-119371485D01*
X135714285Y-119371485D02*
X135095238Y-119371485D01*
X134761904Y-119419104D02*
X134285714Y-119419104D01*
X134857142Y-119704819D02*
X134523809Y-118704819D01*
X134523809Y-118704819D02*
X134190476Y-119704819D01*
X135142857Y-134954819D02*
X135714285Y-134954819D01*
X135428571Y-134954819D02*
X135428571Y-133954819D01*
X135428571Y-133954819D02*
X135523809Y-134097676D01*
X135523809Y-134097676D02*
X135619047Y-134192914D01*
X135619047Y-134192914D02*
X135714285Y-134240533D01*
X134761904Y-134669104D02*
X134285714Y-134669104D01*
X134857142Y-134954819D02*
X134523809Y-133954819D01*
X134523809Y-133954819D02*
X134190476Y-134954819D01*
X135214285Y-137454819D02*
X135785713Y-137454819D01*
X135499999Y-137454819D02*
X135499999Y-136454819D01*
X135499999Y-136454819D02*
X135595237Y-136597676D01*
X135595237Y-136597676D02*
X135690475Y-136692914D01*
X135690475Y-136692914D02*
X135785713Y-136740533D01*
X134452380Y-136931009D02*
X134309523Y-136978628D01*
X134309523Y-136978628D02*
X134261904Y-137026247D01*
X134261904Y-137026247D02*
X134214285Y-137121485D01*
X134214285Y-137121485D02*
X134214285Y-137264342D01*
X134214285Y-137264342D02*
X134261904Y-137359580D01*
X134261904Y-137359580D02*
X134309523Y-137407200D01*
X134309523Y-137407200D02*
X134404761Y-137454819D01*
X134404761Y-137454819D02*
X134785713Y-137454819D01*
X134785713Y-137454819D02*
X134785713Y-136454819D01*
X134785713Y-136454819D02*
X134452380Y-136454819D01*
X134452380Y-136454819D02*
X134357142Y-136502438D01*
X134357142Y-136502438D02*
X134309523Y-136550057D01*
X134309523Y-136550057D02*
X134261904Y-136645295D01*
X134261904Y-136645295D02*
X134261904Y-136740533D01*
X134261904Y-136740533D02*
X134309523Y-136835771D01*
X134309523Y-136835771D02*
X134357142Y-136883390D01*
X134357142Y-136883390D02*
X134452380Y-136931009D01*
X134452380Y-136931009D02*
X134785713Y-136931009D01*
X135309523Y-121538152D02*
X135309523Y-122204819D01*
X135547618Y-121157200D02*
X135785713Y-121871485D01*
X135785713Y-121871485D02*
X135166666Y-121871485D01*
X134452380Y-121681009D02*
X134309523Y-121728628D01*
X134309523Y-121728628D02*
X134261904Y-121776247D01*
X134261904Y-121776247D02*
X134214285Y-121871485D01*
X134214285Y-121871485D02*
X134214285Y-122014342D01*
X134214285Y-122014342D02*
X134261904Y-122109580D01*
X134261904Y-122109580D02*
X134309523Y-122157200D01*
X134309523Y-122157200D02*
X134404761Y-122204819D01*
X134404761Y-122204819D02*
X134785713Y-122204819D01*
X134785713Y-122204819D02*
X134785713Y-121204819D01*
X134785713Y-121204819D02*
X134452380Y-121204819D01*
X134452380Y-121204819D02*
X134357142Y-121252438D01*
X134357142Y-121252438D02*
X134309523Y-121300057D01*
X134309523Y-121300057D02*
X134261904Y-121395295D01*
X134261904Y-121395295D02*
X134261904Y-121490533D01*
X134261904Y-121490533D02*
X134309523Y-121585771D01*
X134309523Y-121585771D02*
X134357142Y-121633390D01*
X134357142Y-121633390D02*
X134452380Y-121681009D01*
X134452380Y-121681009D02*
X134785713Y-121681009D01*
D13*
X159835495Y-52938101D02*
X159835495Y-52480958D01*
X159835495Y-52709530D02*
X159035495Y-52709530D01*
X159035495Y-52709530D02*
X159149780Y-52633339D01*
X159149780Y-52633339D02*
X159225971Y-52557149D01*
X159225971Y-52557149D02*
X159264066Y-52480958D01*
X159111685Y-53242863D02*
X159073590Y-53280959D01*
X159073590Y-53280959D02*
X159035495Y-53357149D01*
X159035495Y-53357149D02*
X159035495Y-53547625D01*
X159035495Y-53547625D02*
X159073590Y-53623816D01*
X159073590Y-53623816D02*
X159111685Y-53661911D01*
X159111685Y-53661911D02*
X159187876Y-53700006D01*
X159187876Y-53700006D02*
X159264066Y-53700006D01*
X159264066Y-53700006D02*
X159378352Y-53661911D01*
X159378352Y-53661911D02*
X159835495Y-53204768D01*
X159835495Y-53204768D02*
X159835495Y-53700006D01*
X159035495Y-53928578D02*
X159835495Y-54195245D01*
X159835495Y-54195245D02*
X159035495Y-54461911D01*
X159035495Y-57090483D02*
X159035495Y-57585721D01*
X159035495Y-57585721D02*
X159340257Y-57319055D01*
X159340257Y-57319055D02*
X159340257Y-57433340D01*
X159340257Y-57433340D02*
X159378352Y-57509531D01*
X159378352Y-57509531D02*
X159416447Y-57547626D01*
X159416447Y-57547626D02*
X159492638Y-57585721D01*
X159492638Y-57585721D02*
X159683114Y-57585721D01*
X159683114Y-57585721D02*
X159759304Y-57547626D01*
X159759304Y-57547626D02*
X159797400Y-57509531D01*
X159797400Y-57509531D02*
X159835495Y-57433340D01*
X159835495Y-57433340D02*
X159835495Y-57204769D01*
X159835495Y-57204769D02*
X159797400Y-57128578D01*
X159797400Y-57128578D02*
X159759304Y-57090483D01*
X159759304Y-57928579D02*
X159797400Y-57966674D01*
X159797400Y-57966674D02*
X159835495Y-57928579D01*
X159835495Y-57928579D02*
X159797400Y-57890483D01*
X159797400Y-57890483D02*
X159759304Y-57928579D01*
X159759304Y-57928579D02*
X159835495Y-57928579D01*
X159035495Y-58461912D02*
X159035495Y-58538102D01*
X159035495Y-58538102D02*
X159073590Y-58614293D01*
X159073590Y-58614293D02*
X159111685Y-58652388D01*
X159111685Y-58652388D02*
X159187876Y-58690483D01*
X159187876Y-58690483D02*
X159340257Y-58728578D01*
X159340257Y-58728578D02*
X159530733Y-58728578D01*
X159530733Y-58728578D02*
X159683114Y-58690483D01*
X159683114Y-58690483D02*
X159759304Y-58652388D01*
X159759304Y-58652388D02*
X159797400Y-58614293D01*
X159797400Y-58614293D02*
X159835495Y-58538102D01*
X159835495Y-58538102D02*
X159835495Y-58461912D01*
X159835495Y-58461912D02*
X159797400Y-58385721D01*
X159797400Y-58385721D02*
X159759304Y-58347626D01*
X159759304Y-58347626D02*
X159683114Y-58309531D01*
X159683114Y-58309531D02*
X159530733Y-58271435D01*
X159530733Y-58271435D02*
X159340257Y-58271435D01*
X159340257Y-58271435D02*
X159187876Y-58309531D01*
X159187876Y-58309531D02*
X159111685Y-58347626D01*
X159111685Y-58347626D02*
X159073590Y-58385721D01*
X159073590Y-58385721D02*
X159035495Y-58461912D01*
X159606923Y-59033340D02*
X159606923Y-59414293D01*
X159835495Y-58957150D02*
X159035495Y-59223817D01*
X159035495Y-59223817D02*
X159835495Y-59490483D01*
D10*
X187804398Y-72357438D02*
X187899636Y-72309819D01*
X187899636Y-72309819D02*
X188042493Y-72309819D01*
X188042493Y-72309819D02*
X188185350Y-72357438D01*
X188185350Y-72357438D02*
X188280588Y-72452676D01*
X188280588Y-72452676D02*
X188328207Y-72547914D01*
X188328207Y-72547914D02*
X188375826Y-72738390D01*
X188375826Y-72738390D02*
X188375826Y-72881247D01*
X188375826Y-72881247D02*
X188328207Y-73071723D01*
X188328207Y-73071723D02*
X188280588Y-73166961D01*
X188280588Y-73166961D02*
X188185350Y-73262200D01*
X188185350Y-73262200D02*
X188042493Y-73309819D01*
X188042493Y-73309819D02*
X187947255Y-73309819D01*
X187947255Y-73309819D02*
X187804398Y-73262200D01*
X187804398Y-73262200D02*
X187756779Y-73214580D01*
X187756779Y-73214580D02*
X187756779Y-72881247D01*
X187756779Y-72881247D02*
X187947255Y-72881247D01*
X187328207Y-73309819D02*
X187328207Y-72309819D01*
X187328207Y-72309819D02*
X186756779Y-73309819D01*
X186756779Y-73309819D02*
X186756779Y-72309819D01*
X186280588Y-73309819D02*
X186280588Y-72309819D01*
X186280588Y-72309819D02*
X186042493Y-72309819D01*
X186042493Y-72309819D02*
X185899636Y-72357438D01*
X185899636Y-72357438D02*
X185804398Y-72452676D01*
X185804398Y-72452676D02*
X185756779Y-72547914D01*
X185756779Y-72547914D02*
X185709160Y-72738390D01*
X185709160Y-72738390D02*
X185709160Y-72881247D01*
X185709160Y-72881247D02*
X185756779Y-73071723D01*
X185756779Y-73071723D02*
X185804398Y-73166961D01*
X185804398Y-73166961D02*
X185899636Y-73262200D01*
X185899636Y-73262200D02*
X186042493Y-73309819D01*
X186042493Y-73309819D02*
X186280588Y-73309819D01*
X189899636Y-74919819D02*
X189899636Y-73919819D01*
X189899636Y-73919819D02*
X189518684Y-73919819D01*
X189518684Y-73919819D02*
X189423446Y-73967438D01*
X189423446Y-73967438D02*
X189375827Y-74015057D01*
X189375827Y-74015057D02*
X189328208Y-74110295D01*
X189328208Y-74110295D02*
X189328208Y-74253152D01*
X189328208Y-74253152D02*
X189375827Y-74348390D01*
X189375827Y-74348390D02*
X189423446Y-74396009D01*
X189423446Y-74396009D02*
X189518684Y-74443628D01*
X189518684Y-74443628D02*
X189899636Y-74443628D01*
X188423446Y-74919819D02*
X188899636Y-74919819D01*
X188899636Y-74919819D02*
X188899636Y-73919819D01*
X188137731Y-74634104D02*
X187661541Y-74634104D01*
X188232969Y-74919819D02*
X187899636Y-73919819D01*
X187899636Y-73919819D02*
X187566303Y-74919819D01*
X187232969Y-74919819D02*
X187232969Y-73919819D01*
X187232969Y-73919819D02*
X186661541Y-74919819D01*
X186661541Y-74919819D02*
X186661541Y-73919819D01*
X186185350Y-74396009D02*
X185852017Y-74396009D01*
X185709160Y-74919819D02*
X186185350Y-74919819D01*
X186185350Y-74919819D02*
X186185350Y-73919819D01*
X186185350Y-73919819D02*
X185709160Y-73919819D01*
X160214285Y-124657200D02*
X160071428Y-124704819D01*
X160071428Y-124704819D02*
X159833333Y-124704819D01*
X159833333Y-124704819D02*
X159738095Y-124657200D01*
X159738095Y-124657200D02*
X159690476Y-124609580D01*
X159690476Y-124609580D02*
X159642857Y-124514342D01*
X159642857Y-124514342D02*
X159642857Y-124419104D01*
X159642857Y-124419104D02*
X159690476Y-124323866D01*
X159690476Y-124323866D02*
X159738095Y-124276247D01*
X159738095Y-124276247D02*
X159833333Y-124228628D01*
X159833333Y-124228628D02*
X160023809Y-124181009D01*
X160023809Y-124181009D02*
X160119047Y-124133390D01*
X160119047Y-124133390D02*
X160166666Y-124085771D01*
X160166666Y-124085771D02*
X160214285Y-123990533D01*
X160214285Y-123990533D02*
X160214285Y-123895295D01*
X160214285Y-123895295D02*
X160166666Y-123800057D01*
X160166666Y-123800057D02*
X160119047Y-123752438D01*
X160119047Y-123752438D02*
X160023809Y-123704819D01*
X160023809Y-123704819D02*
X159785714Y-123704819D01*
X159785714Y-123704819D02*
X159642857Y-123752438D01*
X159214285Y-124704819D02*
X159214285Y-123704819D01*
X159214285Y-123704819D02*
X158976190Y-123704819D01*
X158976190Y-123704819D02*
X158833333Y-123752438D01*
X158833333Y-123752438D02*
X158738095Y-123847676D01*
X158738095Y-123847676D02*
X158690476Y-123942914D01*
X158690476Y-123942914D02*
X158642857Y-124133390D01*
X158642857Y-124133390D02*
X158642857Y-124276247D01*
X158642857Y-124276247D02*
X158690476Y-124466723D01*
X158690476Y-124466723D02*
X158738095Y-124561961D01*
X158738095Y-124561961D02*
X158833333Y-124657200D01*
X158833333Y-124657200D02*
X158976190Y-124704819D01*
X158976190Y-124704819D02*
X159214285Y-124704819D01*
X158261904Y-124419104D02*
X157785714Y-124419104D01*
X158357142Y-124704819D02*
X158023809Y-123704819D01*
X158023809Y-123704819D02*
X157690476Y-124704819D01*
X160535713Y-144573866D02*
X159773809Y-144573866D01*
X160154761Y-144954819D02*
X160154761Y-144192914D01*
X158821428Y-143954819D02*
X159297618Y-143954819D01*
X159297618Y-143954819D02*
X159345237Y-144431009D01*
X159345237Y-144431009D02*
X159297618Y-144383390D01*
X159297618Y-144383390D02*
X159202380Y-144335771D01*
X159202380Y-144335771D02*
X158964285Y-144335771D01*
X158964285Y-144335771D02*
X158869047Y-144383390D01*
X158869047Y-144383390D02*
X158821428Y-144431009D01*
X158821428Y-144431009D02*
X158773809Y-144526247D01*
X158773809Y-144526247D02*
X158773809Y-144764342D01*
X158773809Y-144764342D02*
X158821428Y-144859580D01*
X158821428Y-144859580D02*
X158869047Y-144907200D01*
X158869047Y-144907200D02*
X158964285Y-144954819D01*
X158964285Y-144954819D02*
X159202380Y-144954819D01*
X159202380Y-144954819D02*
X159297618Y-144907200D01*
X159297618Y-144907200D02*
X159345237Y-144859580D01*
X158488094Y-143954819D02*
X158154761Y-144954819D01*
X158154761Y-144954819D02*
X157821428Y-143954819D01*
D14*
X192272384Y-92413714D02*
X192058098Y-92485142D01*
X192058098Y-92485142D02*
X191986669Y-92556571D01*
X191986669Y-92556571D02*
X191915241Y-92699428D01*
X191915241Y-92699428D02*
X191915241Y-92913714D01*
X191915241Y-92913714D02*
X191986669Y-93056571D01*
X191986669Y-93056571D02*
X192058098Y-93128000D01*
X192058098Y-93128000D02*
X192200955Y-93199428D01*
X192200955Y-93199428D02*
X192772384Y-93199428D01*
X192772384Y-93199428D02*
X192772384Y-91699428D01*
X192772384Y-91699428D02*
X192272384Y-91699428D01*
X192272384Y-91699428D02*
X192129527Y-91770857D01*
X192129527Y-91770857D02*
X192058098Y-91842285D01*
X192058098Y-91842285D02*
X191986669Y-91985142D01*
X191986669Y-91985142D02*
X191986669Y-92128000D01*
X191986669Y-92128000D02*
X192058098Y-92270857D01*
X192058098Y-92270857D02*
X192129527Y-92342285D01*
X192129527Y-92342285D02*
X192272384Y-92413714D01*
X192272384Y-92413714D02*
X192772384Y-92413714D01*
X190986669Y-91699428D02*
X190700955Y-91699428D01*
X190700955Y-91699428D02*
X190558098Y-91770857D01*
X190558098Y-91770857D02*
X190415241Y-91913714D01*
X190415241Y-91913714D02*
X190343812Y-92199428D01*
X190343812Y-92199428D02*
X190343812Y-92699428D01*
X190343812Y-92699428D02*
X190415241Y-92985142D01*
X190415241Y-92985142D02*
X190558098Y-93128000D01*
X190558098Y-93128000D02*
X190700955Y-93199428D01*
X190700955Y-93199428D02*
X190986669Y-93199428D01*
X190986669Y-93199428D02*
X191129527Y-93128000D01*
X191129527Y-93128000D02*
X191272384Y-92985142D01*
X191272384Y-92985142D02*
X191343812Y-92699428D01*
X191343812Y-92699428D02*
X191343812Y-92199428D01*
X191343812Y-92199428D02*
X191272384Y-91913714D01*
X191272384Y-91913714D02*
X191129527Y-91770857D01*
X191129527Y-91770857D02*
X190986669Y-91699428D01*
X189915240Y-91699428D02*
X189058098Y-91699428D01*
X189486669Y-93199428D02*
X189486669Y-91699428D01*
X188772383Y-91699428D02*
X187915241Y-91699428D01*
X188343812Y-93199428D02*
X188343812Y-91699428D01*
X187129526Y-91699428D02*
X186843812Y-91699428D01*
X186843812Y-91699428D02*
X186700955Y-91770857D01*
X186700955Y-91770857D02*
X186558098Y-91913714D01*
X186558098Y-91913714D02*
X186486669Y-92199428D01*
X186486669Y-92199428D02*
X186486669Y-92699428D01*
X186486669Y-92699428D02*
X186558098Y-92985142D01*
X186558098Y-92985142D02*
X186700955Y-93128000D01*
X186700955Y-93128000D02*
X186843812Y-93199428D01*
X186843812Y-93199428D02*
X187129526Y-93199428D01*
X187129526Y-93199428D02*
X187272384Y-93128000D01*
X187272384Y-93128000D02*
X187415241Y-92985142D01*
X187415241Y-92985142D02*
X187486669Y-92699428D01*
X187486669Y-92699428D02*
X187486669Y-92199428D01*
X187486669Y-92199428D02*
X187415241Y-91913714D01*
X187415241Y-91913714D02*
X187272384Y-91770857D01*
X187272384Y-91770857D02*
X187129526Y-91699428D01*
X185843812Y-93199428D02*
X185843812Y-91699428D01*
X185843812Y-91699428D02*
X185343812Y-92770857D01*
X185343812Y-92770857D02*
X184843812Y-91699428D01*
X184843812Y-91699428D02*
X184843812Y-93199428D01*
X192843812Y-95543000D02*
X192629527Y-95614428D01*
X192629527Y-95614428D02*
X192272384Y-95614428D01*
X192272384Y-95614428D02*
X192129527Y-95543000D01*
X192129527Y-95543000D02*
X192058098Y-95471571D01*
X192058098Y-95471571D02*
X191986669Y-95328714D01*
X191986669Y-95328714D02*
X191986669Y-95185857D01*
X191986669Y-95185857D02*
X192058098Y-95043000D01*
X192058098Y-95043000D02*
X192129527Y-94971571D01*
X192129527Y-94971571D02*
X192272384Y-94900142D01*
X192272384Y-94900142D02*
X192558098Y-94828714D01*
X192558098Y-94828714D02*
X192700955Y-94757285D01*
X192700955Y-94757285D02*
X192772384Y-94685857D01*
X192772384Y-94685857D02*
X192843812Y-94543000D01*
X192843812Y-94543000D02*
X192843812Y-94400142D01*
X192843812Y-94400142D02*
X192772384Y-94257285D01*
X192772384Y-94257285D02*
X192700955Y-94185857D01*
X192700955Y-94185857D02*
X192558098Y-94114428D01*
X192558098Y-94114428D02*
X192200955Y-94114428D01*
X192200955Y-94114428D02*
X191986669Y-94185857D01*
X191343813Y-95614428D02*
X191343813Y-94114428D01*
X190629527Y-95614428D02*
X190629527Y-94114428D01*
X190629527Y-94114428D02*
X190272384Y-94114428D01*
X190272384Y-94114428D02*
X190058098Y-94185857D01*
X190058098Y-94185857D02*
X189915241Y-94328714D01*
X189915241Y-94328714D02*
X189843812Y-94471571D01*
X189843812Y-94471571D02*
X189772384Y-94757285D01*
X189772384Y-94757285D02*
X189772384Y-94971571D01*
X189772384Y-94971571D02*
X189843812Y-95257285D01*
X189843812Y-95257285D02*
X189915241Y-95400142D01*
X189915241Y-95400142D02*
X190058098Y-95543000D01*
X190058098Y-95543000D02*
X190272384Y-95614428D01*
X190272384Y-95614428D02*
X190629527Y-95614428D01*
X189129527Y-94828714D02*
X188629527Y-94828714D01*
X188415241Y-95614428D02*
X189129527Y-95614428D01*
X189129527Y-95614428D02*
X189129527Y-94114428D01*
X189129527Y-94114428D02*
X188415241Y-94114428D01*
D15*
X157912211Y-52365715D02*
X158512211Y-52365715D01*
X157940782Y-52365715D02*
X157912211Y-52422858D01*
X157912211Y-52422858D02*
X157912211Y-52537143D01*
X157912211Y-52537143D02*
X157940782Y-52594286D01*
X157940782Y-52594286D02*
X157969354Y-52622858D01*
X157969354Y-52622858D02*
X158026497Y-52651429D01*
X158026497Y-52651429D02*
X158197925Y-52651429D01*
X158197925Y-52651429D02*
X158255068Y-52622858D01*
X158255068Y-52622858D02*
X158283640Y-52594286D01*
X158283640Y-52594286D02*
X158312211Y-52537143D01*
X158312211Y-52537143D02*
X158312211Y-52422858D01*
X158312211Y-52422858D02*
X158283640Y-52365715D01*
X158312211Y-52994286D02*
X158283640Y-52937143D01*
X158283640Y-52937143D02*
X158255068Y-52908572D01*
X158255068Y-52908572D02*
X158197925Y-52880000D01*
X158197925Y-52880000D02*
X158026497Y-52880000D01*
X158026497Y-52880000D02*
X157969354Y-52908572D01*
X157969354Y-52908572D02*
X157940782Y-52937143D01*
X157940782Y-52937143D02*
X157912211Y-52994286D01*
X157912211Y-52994286D02*
X157912211Y-53080000D01*
X157912211Y-53080000D02*
X157940782Y-53137143D01*
X157940782Y-53137143D02*
X157969354Y-53165715D01*
X157969354Y-53165715D02*
X158026497Y-53194286D01*
X158026497Y-53194286D02*
X158197925Y-53194286D01*
X158197925Y-53194286D02*
X158255068Y-53165715D01*
X158255068Y-53165715D02*
X158283640Y-53137143D01*
X158283640Y-53137143D02*
X158312211Y-53080000D01*
X158312211Y-53080000D02*
X158312211Y-52994286D01*
X158283640Y-53422857D02*
X158312211Y-53480000D01*
X158312211Y-53480000D02*
X158312211Y-53594286D01*
X158312211Y-53594286D02*
X158283640Y-53651429D01*
X158283640Y-53651429D02*
X158226497Y-53680000D01*
X158226497Y-53680000D02*
X158197925Y-53680000D01*
X158197925Y-53680000D02*
X158140782Y-53651429D01*
X158140782Y-53651429D02*
X158112211Y-53594286D01*
X158112211Y-53594286D02*
X158112211Y-53508572D01*
X158112211Y-53508572D02*
X158083640Y-53451429D01*
X158083640Y-53451429D02*
X158026497Y-53422857D01*
X158026497Y-53422857D02*
X157997925Y-53422857D01*
X157997925Y-53422857D02*
X157940782Y-53451429D01*
X157940782Y-53451429D02*
X157912211Y-53508572D01*
X157912211Y-53508572D02*
X157912211Y-53594286D01*
X157912211Y-53594286D02*
X157940782Y-53651429D01*
X158312211Y-53937143D02*
X157912211Y-53937143D01*
X157712211Y-53937143D02*
X157740782Y-53908571D01*
X157740782Y-53908571D02*
X157769354Y-53937143D01*
X157769354Y-53937143D02*
X157740782Y-53965714D01*
X157740782Y-53965714D02*
X157712211Y-53937143D01*
X157712211Y-53937143D02*
X157769354Y-53937143D01*
X157912211Y-54137142D02*
X157912211Y-54365714D01*
X157712211Y-54222857D02*
X158226497Y-54222857D01*
X158226497Y-54222857D02*
X158283640Y-54251428D01*
X158283640Y-54251428D02*
X158312211Y-54308571D01*
X158312211Y-54308571D02*
X158312211Y-54365714D01*
X158312211Y-54565714D02*
X157912211Y-54565714D01*
X157712211Y-54565714D02*
X157740782Y-54537142D01*
X157740782Y-54537142D02*
X157769354Y-54565714D01*
X157769354Y-54565714D02*
X157740782Y-54594285D01*
X157740782Y-54594285D02*
X157712211Y-54565714D01*
X157712211Y-54565714D02*
X157769354Y-54565714D01*
X157912211Y-54794285D02*
X158312211Y-54937142D01*
X158312211Y-54937142D02*
X157912211Y-55079999D01*
X158283640Y-55537142D02*
X158312211Y-55479999D01*
X158312211Y-55479999D02*
X158312211Y-55365714D01*
X158312211Y-55365714D02*
X158283640Y-55308571D01*
X158283640Y-55308571D02*
X158226497Y-55279999D01*
X158226497Y-55279999D02*
X157997925Y-55279999D01*
X157997925Y-55279999D02*
X157940782Y-55308571D01*
X157940782Y-55308571D02*
X157912211Y-55365714D01*
X157912211Y-55365714D02*
X157912211Y-55479999D01*
X157912211Y-55479999D02*
X157940782Y-55537142D01*
X157940782Y-55537142D02*
X157997925Y-55565714D01*
X157997925Y-55565714D02*
X158055068Y-55565714D01*
X158055068Y-55565714D02*
X158112211Y-55279999D01*
X157912211Y-56280000D02*
X158512211Y-56280000D01*
X157940782Y-56280000D02*
X157912211Y-56337143D01*
X157912211Y-56337143D02*
X157912211Y-56451428D01*
X157912211Y-56451428D02*
X157940782Y-56508571D01*
X157940782Y-56508571D02*
X157969354Y-56537143D01*
X157969354Y-56537143D02*
X158026497Y-56565714D01*
X158026497Y-56565714D02*
X158197925Y-56565714D01*
X158197925Y-56565714D02*
X158255068Y-56537143D01*
X158255068Y-56537143D02*
X158283640Y-56508571D01*
X158283640Y-56508571D02*
X158312211Y-56451428D01*
X158312211Y-56451428D02*
X158312211Y-56337143D01*
X158312211Y-56337143D02*
X158283640Y-56280000D01*
X158312211Y-56908571D02*
X158283640Y-56851428D01*
X158283640Y-56851428D02*
X158255068Y-56822857D01*
X158255068Y-56822857D02*
X158197925Y-56794285D01*
X158197925Y-56794285D02*
X158026497Y-56794285D01*
X158026497Y-56794285D02*
X157969354Y-56822857D01*
X157969354Y-56822857D02*
X157940782Y-56851428D01*
X157940782Y-56851428D02*
X157912211Y-56908571D01*
X157912211Y-56908571D02*
X157912211Y-56994285D01*
X157912211Y-56994285D02*
X157940782Y-57051428D01*
X157940782Y-57051428D02*
X157969354Y-57080000D01*
X157969354Y-57080000D02*
X158026497Y-57108571D01*
X158026497Y-57108571D02*
X158197925Y-57108571D01*
X158197925Y-57108571D02*
X158255068Y-57080000D01*
X158255068Y-57080000D02*
X158283640Y-57051428D01*
X158283640Y-57051428D02*
X158312211Y-56994285D01*
X158312211Y-56994285D02*
X158312211Y-56908571D01*
X158312211Y-57451428D02*
X158283640Y-57394285D01*
X158283640Y-57394285D02*
X158226497Y-57365714D01*
X158226497Y-57365714D02*
X157712211Y-57365714D01*
X158312211Y-57937143D02*
X157997925Y-57937143D01*
X157997925Y-57937143D02*
X157940782Y-57908571D01*
X157940782Y-57908571D02*
X157912211Y-57851428D01*
X157912211Y-57851428D02*
X157912211Y-57737143D01*
X157912211Y-57737143D02*
X157940782Y-57680000D01*
X158283640Y-57937143D02*
X158312211Y-57880000D01*
X158312211Y-57880000D02*
X158312211Y-57737143D01*
X158312211Y-57737143D02*
X158283640Y-57680000D01*
X158283640Y-57680000D02*
X158226497Y-57651428D01*
X158226497Y-57651428D02*
X158169354Y-57651428D01*
X158169354Y-57651428D02*
X158112211Y-57680000D01*
X158112211Y-57680000D02*
X158083640Y-57737143D01*
X158083640Y-57737143D02*
X158083640Y-57880000D01*
X158083640Y-57880000D02*
X158055068Y-57937143D01*
X158312211Y-58222857D02*
X157912211Y-58222857D01*
X158026497Y-58222857D02*
X157969354Y-58251428D01*
X157969354Y-58251428D02*
X157940782Y-58280000D01*
X157940782Y-58280000D02*
X157912211Y-58337142D01*
X157912211Y-58337142D02*
X157912211Y-58394285D01*
X158312211Y-58594286D02*
X157912211Y-58594286D01*
X157712211Y-58594286D02*
X157740782Y-58565714D01*
X157740782Y-58565714D02*
X157769354Y-58594286D01*
X157769354Y-58594286D02*
X157740782Y-58622857D01*
X157740782Y-58622857D02*
X157712211Y-58594286D01*
X157712211Y-58594286D02*
X157769354Y-58594286D01*
X157912211Y-58794285D02*
X157912211Y-59022857D01*
X157712211Y-58880000D02*
X158226497Y-58880000D01*
X158226497Y-58880000D02*
X158283640Y-58908571D01*
X158283640Y-58908571D02*
X158312211Y-58965714D01*
X158312211Y-58965714D02*
X158312211Y-59022857D01*
X157912211Y-59165714D02*
X158312211Y-59308571D01*
X157912211Y-59451428D02*
X158312211Y-59308571D01*
X158312211Y-59308571D02*
X158455068Y-59251428D01*
X158455068Y-59251428D02*
X158483640Y-59222857D01*
X158483640Y-59222857D02*
X158512211Y-59165714D01*
D10*
X135714285Y-128800057D02*
X135666666Y-128752438D01*
X135666666Y-128752438D02*
X135571428Y-128704819D01*
X135571428Y-128704819D02*
X135333333Y-128704819D01*
X135333333Y-128704819D02*
X135238095Y-128752438D01*
X135238095Y-128752438D02*
X135190476Y-128800057D01*
X135190476Y-128800057D02*
X135142857Y-128895295D01*
X135142857Y-128895295D02*
X135142857Y-128990533D01*
X135142857Y-128990533D02*
X135190476Y-129133390D01*
X135190476Y-129133390D02*
X135761904Y-129704819D01*
X135761904Y-129704819D02*
X135142857Y-129704819D01*
X134761904Y-129419104D02*
X134285714Y-129419104D01*
X134857142Y-129704819D02*
X134523809Y-128704819D01*
X134523809Y-128704819D02*
X134190476Y-129704819D01*
X135785713Y-131550057D02*
X135738094Y-131502438D01*
X135738094Y-131502438D02*
X135642856Y-131454819D01*
X135642856Y-131454819D02*
X135404761Y-131454819D01*
X135404761Y-131454819D02*
X135309523Y-131502438D01*
X135309523Y-131502438D02*
X135261904Y-131550057D01*
X135261904Y-131550057D02*
X135214285Y-131645295D01*
X135214285Y-131645295D02*
X135214285Y-131740533D01*
X135214285Y-131740533D02*
X135261904Y-131883390D01*
X135261904Y-131883390D02*
X135833332Y-132454819D01*
X135833332Y-132454819D02*
X135214285Y-132454819D01*
X134452380Y-131931009D02*
X134309523Y-131978628D01*
X134309523Y-131978628D02*
X134261904Y-132026247D01*
X134261904Y-132026247D02*
X134214285Y-132121485D01*
X134214285Y-132121485D02*
X134214285Y-132264342D01*
X134214285Y-132264342D02*
X134261904Y-132359580D01*
X134261904Y-132359580D02*
X134309523Y-132407200D01*
X134309523Y-132407200D02*
X134404761Y-132454819D01*
X134404761Y-132454819D02*
X134785713Y-132454819D01*
X134785713Y-132454819D02*
X134785713Y-131454819D01*
X134785713Y-131454819D02*
X134452380Y-131454819D01*
X134452380Y-131454819D02*
X134357142Y-131502438D01*
X134357142Y-131502438D02*
X134309523Y-131550057D01*
X134309523Y-131550057D02*
X134261904Y-131645295D01*
X134261904Y-131645295D02*
X134261904Y-131740533D01*
X134261904Y-131740533D02*
X134309523Y-131835771D01*
X134309523Y-131835771D02*
X134357142Y-131883390D01*
X134357142Y-131883390D02*
X134452380Y-131931009D01*
X134452380Y-131931009D02*
X134785713Y-131931009D01*
D16*
X108913485Y-110885428D02*
X110713485Y-110885428D01*
X110713485Y-110885428D02*
X109427771Y-110285428D01*
X109427771Y-110285428D02*
X110713485Y-109685428D01*
X110713485Y-109685428D02*
X108913485Y-109685428D01*
X108913485Y-108056857D02*
X109856342Y-108056857D01*
X109856342Y-108056857D02*
X110027771Y-108142571D01*
X110027771Y-108142571D02*
X110113485Y-108313999D01*
X110113485Y-108313999D02*
X110113485Y-108656857D01*
X110113485Y-108656857D02*
X110027771Y-108828285D01*
X108999200Y-108056857D02*
X108913485Y-108228285D01*
X108913485Y-108228285D02*
X108913485Y-108656857D01*
X108913485Y-108656857D02*
X108999200Y-108828285D01*
X108999200Y-108828285D02*
X109170628Y-108913999D01*
X109170628Y-108913999D02*
X109342057Y-108913999D01*
X109342057Y-108913999D02*
X109513485Y-108828285D01*
X109513485Y-108828285D02*
X109599200Y-108656857D01*
X109599200Y-108656857D02*
X109599200Y-108228285D01*
X109599200Y-108228285D02*
X109684914Y-108056857D01*
X110113485Y-106428286D02*
X108656342Y-106428286D01*
X108656342Y-106428286D02*
X108484914Y-106514000D01*
X108484914Y-106514000D02*
X108399200Y-106599714D01*
X108399200Y-106599714D02*
X108313485Y-106771143D01*
X108313485Y-106771143D02*
X108313485Y-107028286D01*
X108313485Y-107028286D02*
X108399200Y-107199714D01*
X108999200Y-106428286D02*
X108913485Y-106599714D01*
X108913485Y-106599714D02*
X108913485Y-106942571D01*
X108913485Y-106942571D02*
X108999200Y-107114000D01*
X108999200Y-107114000D02*
X109084914Y-107199714D01*
X109084914Y-107199714D02*
X109256342Y-107285428D01*
X109256342Y-107285428D02*
X109770628Y-107285428D01*
X109770628Y-107285428D02*
X109942057Y-107199714D01*
X109942057Y-107199714D02*
X110027771Y-107114000D01*
X110027771Y-107114000D02*
X110113485Y-106942571D01*
X110113485Y-106942571D02*
X110113485Y-106599714D01*
X110113485Y-106599714D02*
X110027771Y-106428286D01*
X108913485Y-105314000D02*
X108999200Y-105485429D01*
X108999200Y-105485429D02*
X109170628Y-105571143D01*
X109170628Y-105571143D02*
X110713485Y-105571143D01*
X108999200Y-103942572D02*
X108913485Y-104114000D01*
X108913485Y-104114000D02*
X108913485Y-104456858D01*
X108913485Y-104456858D02*
X108999200Y-104628286D01*
X108999200Y-104628286D02*
X109170628Y-104714000D01*
X109170628Y-104714000D02*
X109856342Y-104714000D01*
X109856342Y-104714000D02*
X110027771Y-104628286D01*
X110027771Y-104628286D02*
X110113485Y-104456858D01*
X110113485Y-104456858D02*
X110113485Y-104114000D01*
X110113485Y-104114000D02*
X110027771Y-103942572D01*
X110027771Y-103942572D02*
X109856342Y-103856858D01*
X109856342Y-103856858D02*
X109684914Y-103856858D01*
X109684914Y-103856858D02*
X109513485Y-104714000D01*
X110113485Y-103256858D02*
X108913485Y-102828286D01*
X108913485Y-102828286D02*
X110113485Y-102399715D01*
X109856342Y-99742571D02*
X109770628Y-99485428D01*
X109770628Y-99485428D02*
X109684914Y-99399714D01*
X109684914Y-99399714D02*
X109513485Y-99314000D01*
X109513485Y-99314000D02*
X109256342Y-99314000D01*
X109256342Y-99314000D02*
X109084914Y-99399714D01*
X109084914Y-99399714D02*
X108999200Y-99485428D01*
X108999200Y-99485428D02*
X108913485Y-99656857D01*
X108913485Y-99656857D02*
X108913485Y-100342571D01*
X108913485Y-100342571D02*
X110713485Y-100342571D01*
X110713485Y-100342571D02*
X110713485Y-99742571D01*
X110713485Y-99742571D02*
X110627771Y-99571143D01*
X110627771Y-99571143D02*
X110542057Y-99485428D01*
X110542057Y-99485428D02*
X110370628Y-99399714D01*
X110370628Y-99399714D02*
X110199200Y-99399714D01*
X110199200Y-99399714D02*
X110027771Y-99485428D01*
X110027771Y-99485428D02*
X109942057Y-99571143D01*
X109942057Y-99571143D02*
X109856342Y-99742571D01*
X109856342Y-99742571D02*
X109856342Y-100342571D01*
X108913485Y-98285428D02*
X108999200Y-98456857D01*
X108999200Y-98456857D02*
X109084914Y-98542571D01*
X109084914Y-98542571D02*
X109256342Y-98628285D01*
X109256342Y-98628285D02*
X109770628Y-98628285D01*
X109770628Y-98628285D02*
X109942057Y-98542571D01*
X109942057Y-98542571D02*
X110027771Y-98456857D01*
X110027771Y-98456857D02*
X110113485Y-98285428D01*
X110113485Y-98285428D02*
X110113485Y-98028285D01*
X110113485Y-98028285D02*
X110027771Y-97856857D01*
X110027771Y-97856857D02*
X109942057Y-97771143D01*
X109942057Y-97771143D02*
X109770628Y-97685428D01*
X109770628Y-97685428D02*
X109256342Y-97685428D01*
X109256342Y-97685428D02*
X109084914Y-97771143D01*
X109084914Y-97771143D02*
X108999200Y-97856857D01*
X108999200Y-97856857D02*
X108913485Y-98028285D01*
X108913485Y-98028285D02*
X108913485Y-98285428D01*
X108913485Y-96142572D02*
X109856342Y-96142572D01*
X109856342Y-96142572D02*
X110027771Y-96228286D01*
X110027771Y-96228286D02*
X110113485Y-96399714D01*
X110113485Y-96399714D02*
X110113485Y-96742572D01*
X110113485Y-96742572D02*
X110027771Y-96914000D01*
X108999200Y-96142572D02*
X108913485Y-96314000D01*
X108913485Y-96314000D02*
X108913485Y-96742572D01*
X108913485Y-96742572D02*
X108999200Y-96914000D01*
X108999200Y-96914000D02*
X109170628Y-96999714D01*
X109170628Y-96999714D02*
X109342057Y-96999714D01*
X109342057Y-96999714D02*
X109513485Y-96914000D01*
X109513485Y-96914000D02*
X109599200Y-96742572D01*
X109599200Y-96742572D02*
X109599200Y-96314000D01*
X109599200Y-96314000D02*
X109684914Y-96142572D01*
X108913485Y-95285429D02*
X110113485Y-95285429D01*
X109770628Y-95285429D02*
X109942057Y-95199715D01*
X109942057Y-95199715D02*
X110027771Y-95114001D01*
X110027771Y-95114001D02*
X110113485Y-94942572D01*
X110113485Y-94942572D02*
X110113485Y-94771143D01*
X108913485Y-93399715D02*
X110713485Y-93399715D01*
X108999200Y-93399715D02*
X108913485Y-93571143D01*
X108913485Y-93571143D02*
X108913485Y-93914000D01*
X108913485Y-93914000D02*
X108999200Y-94085429D01*
X108999200Y-94085429D02*
X109084914Y-94171143D01*
X109084914Y-94171143D02*
X109256342Y-94256857D01*
X109256342Y-94256857D02*
X109770628Y-94256857D01*
X109770628Y-94256857D02*
X109942057Y-94171143D01*
X109942057Y-94171143D02*
X110027771Y-94085429D01*
X110027771Y-94085429D02*
X110113485Y-93914000D01*
X110113485Y-93914000D02*
X110113485Y-93571143D01*
X110113485Y-93571143D02*
X110027771Y-93399715D01*
X110542057Y-91256857D02*
X110627771Y-91171143D01*
X110627771Y-91171143D02*
X110713485Y-90999715D01*
X110713485Y-90999715D02*
X110713485Y-90571143D01*
X110713485Y-90571143D02*
X110627771Y-90399715D01*
X110627771Y-90399715D02*
X110542057Y-90314000D01*
X110542057Y-90314000D02*
X110370628Y-90228286D01*
X110370628Y-90228286D02*
X110199200Y-90228286D01*
X110199200Y-90228286D02*
X109942057Y-90314000D01*
X109942057Y-90314000D02*
X108913485Y-91342572D01*
X108913485Y-91342572D02*
X108913485Y-90228286D01*
X109084914Y-89456857D02*
X108999200Y-89371143D01*
X108999200Y-89371143D02*
X108913485Y-89456857D01*
X108913485Y-89456857D02*
X108999200Y-89542571D01*
X108999200Y-89542571D02*
X109084914Y-89456857D01*
X109084914Y-89456857D02*
X108913485Y-89456857D01*
X110713485Y-87828286D02*
X110713485Y-88171143D01*
X110713485Y-88171143D02*
X110627771Y-88342571D01*
X110627771Y-88342571D02*
X110542057Y-88428286D01*
X110542057Y-88428286D02*
X110284914Y-88599714D01*
X110284914Y-88599714D02*
X109942057Y-88685428D01*
X109942057Y-88685428D02*
X109256342Y-88685428D01*
X109256342Y-88685428D02*
X109084914Y-88599714D01*
X109084914Y-88599714D02*
X108999200Y-88514000D01*
X108999200Y-88514000D02*
X108913485Y-88342571D01*
X108913485Y-88342571D02*
X108913485Y-87999714D01*
X108913485Y-87999714D02*
X108999200Y-87828286D01*
X108999200Y-87828286D02*
X109084914Y-87742571D01*
X109084914Y-87742571D02*
X109256342Y-87656857D01*
X109256342Y-87656857D02*
X109684914Y-87656857D01*
X109684914Y-87656857D02*
X109856342Y-87742571D01*
X109856342Y-87742571D02*
X109942057Y-87828286D01*
X109942057Y-87828286D02*
X110027771Y-87999714D01*
X110027771Y-87999714D02*
X110027771Y-88342571D01*
X110027771Y-88342571D02*
X109942057Y-88514000D01*
X109942057Y-88514000D02*
X109856342Y-88599714D01*
X109856342Y-88599714D02*
X109684914Y-88685428D01*
D10*
X159761904Y-108502438D02*
X159857142Y-108454819D01*
X159857142Y-108454819D02*
X159999999Y-108454819D01*
X159999999Y-108454819D02*
X160142856Y-108502438D01*
X160142856Y-108502438D02*
X160238094Y-108597676D01*
X160238094Y-108597676D02*
X160285713Y-108692914D01*
X160285713Y-108692914D02*
X160333332Y-108883390D01*
X160333332Y-108883390D02*
X160333332Y-109026247D01*
X160333332Y-109026247D02*
X160285713Y-109216723D01*
X160285713Y-109216723D02*
X160238094Y-109311961D01*
X160238094Y-109311961D02*
X160142856Y-109407200D01*
X160142856Y-109407200D02*
X159999999Y-109454819D01*
X159999999Y-109454819D02*
X159904761Y-109454819D01*
X159904761Y-109454819D02*
X159761904Y-109407200D01*
X159761904Y-109407200D02*
X159714285Y-109359580D01*
X159714285Y-109359580D02*
X159714285Y-109026247D01*
X159714285Y-109026247D02*
X159904761Y-109026247D01*
X159285713Y-109454819D02*
X159285713Y-108454819D01*
X159285713Y-108454819D02*
X158714285Y-109454819D01*
X158714285Y-109454819D02*
X158714285Y-108454819D01*
X158238094Y-109454819D02*
X158238094Y-108454819D01*
X158238094Y-108454819D02*
X157999999Y-108454819D01*
X157999999Y-108454819D02*
X157857142Y-108502438D01*
X157857142Y-108502438D02*
X157761904Y-108597676D01*
X157761904Y-108597676D02*
X157714285Y-108692914D01*
X157714285Y-108692914D02*
X157666666Y-108883390D01*
X157666666Y-108883390D02*
X157666666Y-109026247D01*
X157666666Y-109026247D02*
X157714285Y-109216723D01*
X157714285Y-109216723D02*
X157761904Y-109311961D01*
X157761904Y-109311961D02*
X157857142Y-109407200D01*
X157857142Y-109407200D02*
X157999999Y-109454819D01*
X157999999Y-109454819D02*
X158238094Y-109454819D01*
X134761904Y-144002438D02*
X134857142Y-143954819D01*
X134857142Y-143954819D02*
X134999999Y-143954819D01*
X134999999Y-143954819D02*
X135142856Y-144002438D01*
X135142856Y-144002438D02*
X135238094Y-144097676D01*
X135238094Y-144097676D02*
X135285713Y-144192914D01*
X135285713Y-144192914D02*
X135333332Y-144383390D01*
X135333332Y-144383390D02*
X135333332Y-144526247D01*
X135333332Y-144526247D02*
X135285713Y-144716723D01*
X135285713Y-144716723D02*
X135238094Y-144811961D01*
X135238094Y-144811961D02*
X135142856Y-144907200D01*
X135142856Y-144907200D02*
X134999999Y-144954819D01*
X134999999Y-144954819D02*
X134904761Y-144954819D01*
X134904761Y-144954819D02*
X134761904Y-144907200D01*
X134761904Y-144907200D02*
X134714285Y-144859580D01*
X134714285Y-144859580D02*
X134714285Y-144526247D01*
X134714285Y-144526247D02*
X134904761Y-144526247D01*
X134285713Y-144954819D02*
X134285713Y-143954819D01*
X134285713Y-143954819D02*
X133714285Y-144954819D01*
X133714285Y-144954819D02*
X133714285Y-143954819D01*
X133238094Y-144954819D02*
X133238094Y-143954819D01*
X133238094Y-143954819D02*
X132999999Y-143954819D01*
X132999999Y-143954819D02*
X132857142Y-144002438D01*
X132857142Y-144002438D02*
X132761904Y-144097676D01*
X132761904Y-144097676D02*
X132714285Y-144192914D01*
X132714285Y-144192914D02*
X132666666Y-144383390D01*
X132666666Y-144383390D02*
X132666666Y-144526247D01*
X132666666Y-144526247D02*
X132714285Y-144716723D01*
X132714285Y-144716723D02*
X132761904Y-144811961D01*
X132761904Y-144811961D02*
X132857142Y-144907200D01*
X132857142Y-144907200D02*
X132999999Y-144954819D01*
X132999999Y-144954819D02*
X133238094Y-144954819D01*
X159761904Y-141502438D02*
X159857142Y-141454819D01*
X159857142Y-141454819D02*
X159999999Y-141454819D01*
X159999999Y-141454819D02*
X160142856Y-141502438D01*
X160142856Y-141502438D02*
X160238094Y-141597676D01*
X160238094Y-141597676D02*
X160285713Y-141692914D01*
X160285713Y-141692914D02*
X160333332Y-141883390D01*
X160333332Y-141883390D02*
X160333332Y-142026247D01*
X160333332Y-142026247D02*
X160285713Y-142216723D01*
X160285713Y-142216723D02*
X160238094Y-142311961D01*
X160238094Y-142311961D02*
X160142856Y-142407200D01*
X160142856Y-142407200D02*
X159999999Y-142454819D01*
X159999999Y-142454819D02*
X159904761Y-142454819D01*
X159904761Y-142454819D02*
X159761904Y-142407200D01*
X159761904Y-142407200D02*
X159714285Y-142359580D01*
X159714285Y-142359580D02*
X159714285Y-142026247D01*
X159714285Y-142026247D02*
X159904761Y-142026247D01*
X159285713Y-142454819D02*
X159285713Y-141454819D01*
X159285713Y-141454819D02*
X158714285Y-142454819D01*
X158714285Y-142454819D02*
X158714285Y-141454819D01*
X158238094Y-142454819D02*
X158238094Y-141454819D01*
X158238094Y-141454819D02*
X157999999Y-141454819D01*
X157999999Y-141454819D02*
X157857142Y-141502438D01*
X157857142Y-141502438D02*
X157761904Y-141597676D01*
X157761904Y-141597676D02*
X157714285Y-141692914D01*
X157714285Y-141692914D02*
X157666666Y-141883390D01*
X157666666Y-141883390D02*
X157666666Y-142026247D01*
X157666666Y-142026247D02*
X157714285Y-142216723D01*
X157714285Y-142216723D02*
X157761904Y-142311961D01*
X157761904Y-142311961D02*
X157857142Y-142407200D01*
X157857142Y-142407200D02*
X157999999Y-142454819D01*
X157999999Y-142454819D02*
X158238094Y-142454819D01*
D17*
X107174914Y-106122115D02*
X107213009Y-106079258D01*
X107213009Y-106079258D02*
X107251104Y-105998306D01*
X107251104Y-105998306D02*
X107251104Y-105807830D01*
X107251104Y-105807830D02*
X107213009Y-105736401D01*
X107213009Y-105736401D02*
X107174914Y-105703068D01*
X107174914Y-105703068D02*
X107098723Y-105674496D01*
X107098723Y-105674496D02*
X107022533Y-105684020D01*
X107022533Y-105684020D02*
X106908247Y-105736401D01*
X106908247Y-105736401D02*
X106451104Y-106250687D01*
X106451104Y-106250687D02*
X106451104Y-105755449D01*
X107251104Y-105160210D02*
X107251104Y-105084020D01*
X107251104Y-105084020D02*
X107213009Y-105012591D01*
X107213009Y-105012591D02*
X107174914Y-104979258D01*
X107174914Y-104979258D02*
X107098723Y-104950686D01*
X107098723Y-104950686D02*
X106946342Y-104931639D01*
X106946342Y-104931639D02*
X106755866Y-104955448D01*
X106755866Y-104955448D02*
X106603485Y-105012591D01*
X106603485Y-105012591D02*
X106527295Y-105060210D01*
X106527295Y-105060210D02*
X106489200Y-105103067D01*
X106489200Y-105103067D02*
X106451104Y-105184020D01*
X106451104Y-105184020D02*
X106451104Y-105260210D01*
X106451104Y-105260210D02*
X106489200Y-105331639D01*
X106489200Y-105331639D02*
X106527295Y-105364972D01*
X106527295Y-105364972D02*
X106603485Y-105393544D01*
X106603485Y-105393544D02*
X106755866Y-105412591D01*
X106755866Y-105412591D02*
X106946342Y-105388782D01*
X106946342Y-105388782D02*
X107098723Y-105331639D01*
X107098723Y-105331639D02*
X107174914Y-105284020D01*
X107174914Y-105284020D02*
X107213009Y-105241163D01*
X107213009Y-105241163D02*
X107251104Y-105160210D01*
X107174914Y-104598305D02*
X107213009Y-104555448D01*
X107213009Y-104555448D02*
X107251104Y-104474496D01*
X107251104Y-104474496D02*
X107251104Y-104284020D01*
X107251104Y-104284020D02*
X107213009Y-104212591D01*
X107213009Y-104212591D02*
X107174914Y-104179258D01*
X107174914Y-104179258D02*
X107098723Y-104150686D01*
X107098723Y-104150686D02*
X107022533Y-104160210D01*
X107022533Y-104160210D02*
X106908247Y-104212591D01*
X106908247Y-104212591D02*
X106451104Y-104726877D01*
X106451104Y-104726877D02*
X106451104Y-104231639D01*
X106984438Y-103479257D02*
X106451104Y-103545924D01*
X107289200Y-103631638D02*
X106717771Y-103893543D01*
X106717771Y-103893543D02*
X106717771Y-103398305D01*
X106755866Y-103088781D02*
X106755866Y-102479257D01*
X107251104Y-101884019D02*
X107251104Y-101807829D01*
X107251104Y-101807829D02*
X107213009Y-101736400D01*
X107213009Y-101736400D02*
X107174914Y-101703067D01*
X107174914Y-101703067D02*
X107098723Y-101674495D01*
X107098723Y-101674495D02*
X106946342Y-101655448D01*
X106946342Y-101655448D02*
X106755866Y-101679257D01*
X106755866Y-101679257D02*
X106603485Y-101736400D01*
X106603485Y-101736400D02*
X106527295Y-101784019D01*
X106527295Y-101784019D02*
X106489200Y-101826876D01*
X106489200Y-101826876D02*
X106451104Y-101907829D01*
X106451104Y-101907829D02*
X106451104Y-101984019D01*
X106451104Y-101984019D02*
X106489200Y-102055448D01*
X106489200Y-102055448D02*
X106527295Y-102088781D01*
X106527295Y-102088781D02*
X106603485Y-102117353D01*
X106603485Y-102117353D02*
X106755866Y-102136400D01*
X106755866Y-102136400D02*
X106946342Y-102112591D01*
X106946342Y-102112591D02*
X107098723Y-102055448D01*
X107098723Y-102055448D02*
X107174914Y-102007829D01*
X107174914Y-102007829D02*
X107213009Y-101964972D01*
X107213009Y-101964972D02*
X107251104Y-101884019D01*
X106451104Y-100955448D02*
X106451104Y-101412590D01*
X106451104Y-101184019D02*
X107251104Y-101084019D01*
X107251104Y-101084019D02*
X107136819Y-101174495D01*
X107136819Y-101174495D02*
X107060628Y-101260210D01*
X107060628Y-101260210D02*
X107022533Y-101341162D01*
X106489200Y-100569733D02*
X106451104Y-100574495D01*
X106451104Y-100574495D02*
X106374914Y-100622114D01*
X106374914Y-100622114D02*
X106336819Y-100664971D01*
X107251104Y-99293543D02*
X106679676Y-99364971D01*
X106679676Y-99364971D02*
X106565390Y-99417352D01*
X106565390Y-99417352D02*
X106489200Y-99503067D01*
X106489200Y-99503067D02*
X106451104Y-99622114D01*
X106451104Y-99622114D02*
X106451104Y-99698305D01*
X106451104Y-99012590D02*
X107251104Y-98912590D01*
X106451104Y-98669733D02*
X106870152Y-98617352D01*
X106870152Y-98617352D02*
X106946342Y-98645924D01*
X106946342Y-98645924D02*
X106984438Y-98717352D01*
X106984438Y-98717352D02*
X106984438Y-98831638D01*
X106984438Y-98831638D02*
X106946342Y-98912590D01*
X106946342Y-98912590D02*
X106908247Y-98955447D01*
X107251104Y-97693542D02*
X107251104Y-97236399D01*
X106451104Y-97564971D02*
X107251104Y-97464971D01*
X106489200Y-96760208D02*
X106451104Y-96841161D01*
X106451104Y-96841161D02*
X106451104Y-96993542D01*
X106451104Y-96993542D02*
X106489200Y-97064970D01*
X106489200Y-97064970D02*
X106565390Y-97093542D01*
X106565390Y-97093542D02*
X106870152Y-97055447D01*
X106870152Y-97055447D02*
X106946342Y-97007827D01*
X106946342Y-97007827D02*
X106984438Y-96926875D01*
X106984438Y-96926875D02*
X106984438Y-96774494D01*
X106984438Y-96774494D02*
X106946342Y-96703066D01*
X106946342Y-96703066D02*
X106870152Y-96674494D01*
X106870152Y-96674494D02*
X106793961Y-96684018D01*
X106793961Y-96684018D02*
X106717771Y-97074494D01*
X106489200Y-96036399D02*
X106451104Y-96117352D01*
X106451104Y-96117352D02*
X106451104Y-96269733D01*
X106451104Y-96269733D02*
X106489200Y-96341161D01*
X106489200Y-96341161D02*
X106527295Y-96374494D01*
X106527295Y-96374494D02*
X106603485Y-96403066D01*
X106603485Y-96403066D02*
X106832057Y-96374494D01*
X106832057Y-96374494D02*
X106908247Y-96326875D01*
X106908247Y-96326875D02*
X106946342Y-96284018D01*
X106946342Y-96284018D02*
X106984438Y-96203066D01*
X106984438Y-96203066D02*
X106984438Y-96050685D01*
X106984438Y-96050685D02*
X106946342Y-95979256D01*
X106451104Y-95698304D02*
X107251104Y-95598304D01*
X106451104Y-95355447D02*
X106870152Y-95303066D01*
X106870152Y-95303066D02*
X106946342Y-95331638D01*
X106946342Y-95331638D02*
X106984438Y-95403066D01*
X106984438Y-95403066D02*
X106984438Y-95517352D01*
X106984438Y-95517352D02*
X106946342Y-95598304D01*
X106946342Y-95598304D02*
X106908247Y-95641161D01*
X106984438Y-94907828D02*
X106451104Y-94974494D01*
X106908247Y-94917351D02*
X106946342Y-94874494D01*
X106946342Y-94874494D02*
X106984438Y-94793542D01*
X106984438Y-94793542D02*
X106984438Y-94679256D01*
X106984438Y-94679256D02*
X106946342Y-94607828D01*
X106946342Y-94607828D02*
X106870152Y-94579256D01*
X106870152Y-94579256D02*
X106451104Y-94631637D01*
X106451104Y-94250684D02*
X106984438Y-94184018D01*
X107251104Y-94150684D02*
X107213009Y-94193541D01*
X107213009Y-94193541D02*
X107174914Y-94160208D01*
X107174914Y-94160208D02*
X107213009Y-94117351D01*
X107213009Y-94117351D02*
X107251104Y-94150684D01*
X107251104Y-94150684D02*
X107174914Y-94160208D01*
X106489200Y-93522113D02*
X106451104Y-93603066D01*
X106451104Y-93603066D02*
X106451104Y-93755447D01*
X106451104Y-93755447D02*
X106489200Y-93826875D01*
X106489200Y-93826875D02*
X106527295Y-93860208D01*
X106527295Y-93860208D02*
X106603485Y-93888780D01*
X106603485Y-93888780D02*
X106832057Y-93860208D01*
X106832057Y-93860208D02*
X106908247Y-93812589D01*
X106908247Y-93812589D02*
X106946342Y-93769732D01*
X106946342Y-93769732D02*
X106984438Y-93688780D01*
X106984438Y-93688780D02*
X106984438Y-93536399D01*
X106984438Y-93536399D02*
X106946342Y-93464970D01*
X106451104Y-92841161D02*
X106870152Y-92788780D01*
X106870152Y-92788780D02*
X106946342Y-92817352D01*
X106946342Y-92817352D02*
X106984438Y-92888780D01*
X106984438Y-92888780D02*
X106984438Y-93041161D01*
X106984438Y-93041161D02*
X106946342Y-93122113D01*
X106489200Y-92836399D02*
X106451104Y-92917352D01*
X106451104Y-92917352D02*
X106451104Y-93107828D01*
X106451104Y-93107828D02*
X106489200Y-93179256D01*
X106489200Y-93179256D02*
X106565390Y-93207828D01*
X106565390Y-93207828D02*
X106641580Y-93198304D01*
X106641580Y-93198304D02*
X106717771Y-93150685D01*
X106717771Y-93150685D02*
X106755866Y-93069733D01*
X106755866Y-93069733D02*
X106755866Y-92879256D01*
X106755866Y-92879256D02*
X106793961Y-92798304D01*
X106451104Y-92345923D02*
X106489200Y-92417351D01*
X106489200Y-92417351D02*
X106565390Y-92445923D01*
X106565390Y-92445923D02*
X107251104Y-92360208D01*
X106679676Y-91441160D02*
X106679676Y-91060208D01*
X106451104Y-91545922D02*
X107251104Y-91179255D01*
X107251104Y-91179255D02*
X106451104Y-91012589D01*
X106489200Y-90779256D02*
X106451104Y-90669732D01*
X106451104Y-90669732D02*
X106451104Y-90479256D01*
X106451104Y-90479256D02*
X106489200Y-90398303D01*
X106489200Y-90398303D02*
X106527295Y-90355446D01*
X106527295Y-90355446D02*
X106603485Y-90307827D01*
X106603485Y-90307827D02*
X106679676Y-90298303D01*
X106679676Y-90298303D02*
X106755866Y-90326875D01*
X106755866Y-90326875D02*
X106793961Y-90360208D01*
X106793961Y-90360208D02*
X106832057Y-90431637D01*
X106832057Y-90431637D02*
X106870152Y-90579256D01*
X106870152Y-90579256D02*
X106908247Y-90650684D01*
X106908247Y-90650684D02*
X106946342Y-90684017D01*
X106946342Y-90684017D02*
X107022533Y-90712589D01*
X107022533Y-90712589D02*
X107098723Y-90703065D01*
X107098723Y-90703065D02*
X107174914Y-90655446D01*
X107174914Y-90655446D02*
X107213009Y-90612589D01*
X107213009Y-90612589D02*
X107251104Y-90531637D01*
X107251104Y-90531637D02*
X107251104Y-90341160D01*
X107251104Y-90341160D02*
X107213009Y-90231637D01*
X105163104Y-106174496D02*
X105963104Y-106074496D01*
X105582152Y-106122115D02*
X105582152Y-105664972D01*
X105163104Y-105717353D02*
X105963104Y-105617353D01*
X105239295Y-105326877D02*
X105201200Y-105293544D01*
X105201200Y-105293544D02*
X105163104Y-105336401D01*
X105163104Y-105336401D02*
X105201200Y-105369735D01*
X105201200Y-105369735D02*
X105239295Y-105326877D01*
X105239295Y-105326877D02*
X105163104Y-105336401D01*
X105391676Y-104355449D02*
X105391676Y-103974497D01*
X105163104Y-104460211D02*
X105963104Y-104093544D01*
X105963104Y-104093544D02*
X105163104Y-103926878D01*
X105239295Y-103650687D02*
X105201200Y-103617354D01*
X105201200Y-103617354D02*
X105163104Y-103660211D01*
X105163104Y-103660211D02*
X105201200Y-103693545D01*
X105201200Y-103693545D02*
X105239295Y-103650687D01*
X105239295Y-103650687D02*
X105163104Y-103660211D01*
X105582152Y-102617354D02*
X105582152Y-102350688D01*
X105163104Y-102288783D02*
X105163104Y-102669735D01*
X105163104Y-102669735D02*
X105963104Y-102569735D01*
X105963104Y-102569735D02*
X105963104Y-102188783D01*
X105696438Y-101879259D02*
X105163104Y-101945925D01*
X105620247Y-101888782D02*
X105658342Y-101845925D01*
X105658342Y-101845925D02*
X105696438Y-101764973D01*
X105696438Y-101764973D02*
X105696438Y-101650687D01*
X105696438Y-101650687D02*
X105658342Y-101579259D01*
X105658342Y-101579259D02*
X105582152Y-101550687D01*
X105582152Y-101550687D02*
X105163104Y-101603068D01*
X105696438Y-100812591D02*
X105048819Y-100893544D01*
X105048819Y-100893544D02*
X104972628Y-100941163D01*
X104972628Y-100941163D02*
X104934533Y-100984020D01*
X104934533Y-100984020D02*
X104896438Y-101064972D01*
X104896438Y-101064972D02*
X104896438Y-101179258D01*
X104896438Y-101179258D02*
X104934533Y-101250687D01*
X105201200Y-100874496D02*
X105163104Y-100955449D01*
X105163104Y-100955449D02*
X105163104Y-101107830D01*
X105163104Y-101107830D02*
X105201200Y-101179258D01*
X105201200Y-101179258D02*
X105239295Y-101212591D01*
X105239295Y-101212591D02*
X105315485Y-101241163D01*
X105315485Y-101241163D02*
X105544057Y-101212591D01*
X105544057Y-101212591D02*
X105620247Y-101164972D01*
X105620247Y-101164972D02*
X105658342Y-101122115D01*
X105658342Y-101122115D02*
X105696438Y-101041163D01*
X105696438Y-101041163D02*
X105696438Y-100888782D01*
X105696438Y-100888782D02*
X105658342Y-100817353D01*
X105163104Y-100498305D02*
X105696438Y-100431639D01*
X105620247Y-100441162D02*
X105658342Y-100398305D01*
X105658342Y-100398305D02*
X105696438Y-100317353D01*
X105696438Y-100317353D02*
X105696438Y-100203067D01*
X105696438Y-100203067D02*
X105658342Y-100131639D01*
X105658342Y-100131639D02*
X105582152Y-100103067D01*
X105582152Y-100103067D02*
X105163104Y-100155448D01*
X105582152Y-100103067D02*
X105658342Y-100055448D01*
X105658342Y-100055448D02*
X105696438Y-99974496D01*
X105696438Y-99974496D02*
X105696438Y-99860210D01*
X105696438Y-99860210D02*
X105658342Y-99788781D01*
X105658342Y-99788781D02*
X105582152Y-99760210D01*
X105582152Y-99760210D02*
X105163104Y-99812591D01*
X105163104Y-99088781D02*
X105582152Y-99036400D01*
X105582152Y-99036400D02*
X105658342Y-99064972D01*
X105658342Y-99064972D02*
X105696438Y-99136400D01*
X105696438Y-99136400D02*
X105696438Y-99288781D01*
X105696438Y-99288781D02*
X105658342Y-99369733D01*
X105201200Y-99084019D02*
X105163104Y-99164972D01*
X105163104Y-99164972D02*
X105163104Y-99355448D01*
X105163104Y-99355448D02*
X105201200Y-99426876D01*
X105201200Y-99426876D02*
X105277390Y-99455448D01*
X105277390Y-99455448D02*
X105353580Y-99445924D01*
X105353580Y-99445924D02*
X105429771Y-99398305D01*
X105429771Y-99398305D02*
X105467866Y-99317353D01*
X105467866Y-99317353D02*
X105467866Y-99126876D01*
X105467866Y-99126876D02*
X105505961Y-99045924D01*
X105163104Y-98707828D02*
X105696438Y-98641162D01*
X105544057Y-98660209D02*
X105620247Y-98612590D01*
X105620247Y-98612590D02*
X105658342Y-98569733D01*
X105658342Y-98569733D02*
X105696438Y-98488781D01*
X105696438Y-98488781D02*
X105696438Y-98412590D01*
X105163104Y-98212590D02*
X105963104Y-98112590D01*
X105467866Y-98098305D02*
X105163104Y-97907828D01*
X105696438Y-97841162D02*
X105391676Y-98184019D01*
X105201200Y-97522114D02*
X105163104Y-97526876D01*
X105163104Y-97526876D02*
X105086914Y-97574495D01*
X105086914Y-97574495D02*
X105048819Y-97617352D01*
X105391676Y-96584019D02*
X105391676Y-96203067D01*
X105163104Y-96688781D02*
X105963104Y-96322114D01*
X105963104Y-96322114D02*
X105163104Y-96155448D01*
X105239295Y-95879257D02*
X105201200Y-95845924D01*
X105201200Y-95845924D02*
X105163104Y-95888781D01*
X105163104Y-95888781D02*
X105201200Y-95922115D01*
X105201200Y-95922115D02*
X105239295Y-95879257D01*
X105239295Y-95879257D02*
X105163104Y-95888781D01*
X105163104Y-94898305D02*
X105963104Y-94798305D01*
X105963104Y-94798305D02*
X105391676Y-94603067D01*
X105391676Y-94603067D02*
X105963104Y-94264972D01*
X105963104Y-94264972D02*
X105163104Y-94364972D01*
X105163104Y-93869734D02*
X105201200Y-93941162D01*
X105201200Y-93941162D02*
X105239295Y-93974495D01*
X105239295Y-93974495D02*
X105315485Y-94003067D01*
X105315485Y-94003067D02*
X105544057Y-93974495D01*
X105544057Y-93974495D02*
X105620247Y-93926876D01*
X105620247Y-93926876D02*
X105658342Y-93884019D01*
X105658342Y-93884019D02*
X105696438Y-93803067D01*
X105696438Y-93803067D02*
X105696438Y-93688781D01*
X105696438Y-93688781D02*
X105658342Y-93617353D01*
X105658342Y-93617353D02*
X105620247Y-93584019D01*
X105620247Y-93584019D02*
X105544057Y-93555448D01*
X105544057Y-93555448D02*
X105315485Y-93584019D01*
X105315485Y-93584019D02*
X105239295Y-93631638D01*
X105239295Y-93631638D02*
X105201200Y-93674495D01*
X105201200Y-93674495D02*
X105163104Y-93755448D01*
X105163104Y-93755448D02*
X105163104Y-93869734D01*
X105163104Y-93260209D02*
X105696438Y-93193543D01*
X105544057Y-93212590D02*
X105620247Y-93164971D01*
X105620247Y-93164971D02*
X105658342Y-93122114D01*
X105658342Y-93122114D02*
X105696438Y-93041162D01*
X105696438Y-93041162D02*
X105696438Y-92964971D01*
X105201200Y-92798305D02*
X105163104Y-92726876D01*
X105163104Y-92726876D02*
X105163104Y-92574495D01*
X105163104Y-92574495D02*
X105201200Y-92493543D01*
X105201200Y-92493543D02*
X105277390Y-92445924D01*
X105277390Y-92445924D02*
X105315485Y-92441162D01*
X105315485Y-92441162D02*
X105391676Y-92469733D01*
X105391676Y-92469733D02*
X105429771Y-92541162D01*
X105429771Y-92541162D02*
X105429771Y-92655447D01*
X105429771Y-92655447D02*
X105467866Y-92726876D01*
X105467866Y-92726876D02*
X105544057Y-92755447D01*
X105544057Y-92755447D02*
X105582152Y-92750686D01*
X105582152Y-92750686D02*
X105658342Y-92703066D01*
X105658342Y-92703066D02*
X105696438Y-92622114D01*
X105696438Y-92622114D02*
X105696438Y-92507828D01*
X105696438Y-92507828D02*
X105658342Y-92436400D01*
X105201200Y-91807828D02*
X105163104Y-91888781D01*
X105163104Y-91888781D02*
X105163104Y-92041162D01*
X105163104Y-92041162D02*
X105201200Y-92112590D01*
X105201200Y-92112590D02*
X105277390Y-92141162D01*
X105277390Y-92141162D02*
X105582152Y-92103067D01*
X105582152Y-92103067D02*
X105658342Y-92055447D01*
X105658342Y-92055447D02*
X105696438Y-91974495D01*
X105696438Y-91974495D02*
X105696438Y-91822114D01*
X105696438Y-91822114D02*
X105658342Y-91750686D01*
X105658342Y-91750686D02*
X105582152Y-91722114D01*
X105582152Y-91722114D02*
X105505961Y-91731638D01*
X105505961Y-91731638D02*
X105429771Y-92122114D01*
X105163104Y-91317353D02*
X105201200Y-91388781D01*
X105201200Y-91388781D02*
X105277390Y-91417353D01*
X105277390Y-91417353D02*
X105963104Y-91331638D01*
X105163104Y-90898305D02*
X105201200Y-90969733D01*
X105201200Y-90969733D02*
X105277390Y-90998305D01*
X105277390Y-90998305D02*
X105963104Y-90912590D01*
X105163104Y-90593542D02*
X105696438Y-90526876D01*
X105963104Y-90493542D02*
X105925009Y-90536399D01*
X105925009Y-90536399D02*
X105886914Y-90503066D01*
X105886914Y-90503066D02*
X105925009Y-90460209D01*
X105925009Y-90460209D02*
X105963104Y-90493542D01*
X105963104Y-90493542D02*
X105886914Y-90503066D01*
D10*
X160190475Y-127157200D02*
X160047618Y-127204819D01*
X160047618Y-127204819D02*
X159809523Y-127204819D01*
X159809523Y-127204819D02*
X159714285Y-127157200D01*
X159714285Y-127157200D02*
X159666666Y-127109580D01*
X159666666Y-127109580D02*
X159619047Y-127014342D01*
X159619047Y-127014342D02*
X159619047Y-126919104D01*
X159619047Y-126919104D02*
X159666666Y-126823866D01*
X159666666Y-126823866D02*
X159714285Y-126776247D01*
X159714285Y-126776247D02*
X159809523Y-126728628D01*
X159809523Y-126728628D02*
X159999999Y-126681009D01*
X159999999Y-126681009D02*
X160095237Y-126633390D01*
X160095237Y-126633390D02*
X160142856Y-126585771D01*
X160142856Y-126585771D02*
X160190475Y-126490533D01*
X160190475Y-126490533D02*
X160190475Y-126395295D01*
X160190475Y-126395295D02*
X160142856Y-126300057D01*
X160142856Y-126300057D02*
X160095237Y-126252438D01*
X160095237Y-126252438D02*
X159999999Y-126204819D01*
X159999999Y-126204819D02*
X159761904Y-126204819D01*
X159761904Y-126204819D02*
X159619047Y-126252438D01*
X158619047Y-127109580D02*
X158666666Y-127157200D01*
X158666666Y-127157200D02*
X158809523Y-127204819D01*
X158809523Y-127204819D02*
X158904761Y-127204819D01*
X158904761Y-127204819D02*
X159047618Y-127157200D01*
X159047618Y-127157200D02*
X159142856Y-127061961D01*
X159142856Y-127061961D02*
X159190475Y-126966723D01*
X159190475Y-126966723D02*
X159238094Y-126776247D01*
X159238094Y-126776247D02*
X159238094Y-126633390D01*
X159238094Y-126633390D02*
X159190475Y-126442914D01*
X159190475Y-126442914D02*
X159142856Y-126347676D01*
X159142856Y-126347676D02*
X159047618Y-126252438D01*
X159047618Y-126252438D02*
X158904761Y-126204819D01*
X158904761Y-126204819D02*
X158809523Y-126204819D01*
X158809523Y-126204819D02*
X158666666Y-126252438D01*
X158666666Y-126252438D02*
X158619047Y-126300057D01*
X157714285Y-127204819D02*
X158190475Y-127204819D01*
X158190475Y-127204819D02*
X158190475Y-126204819D01*
X135833332Y-126204819D02*
X135214285Y-126204819D01*
X135214285Y-126204819D02*
X135547618Y-126585771D01*
X135547618Y-126585771D02*
X135404761Y-126585771D01*
X135404761Y-126585771D02*
X135309523Y-126633390D01*
X135309523Y-126633390D02*
X135261904Y-126681009D01*
X135261904Y-126681009D02*
X135214285Y-126776247D01*
X135214285Y-126776247D02*
X135214285Y-127014342D01*
X135214285Y-127014342D02*
X135261904Y-127109580D01*
X135261904Y-127109580D02*
X135309523Y-127157200D01*
X135309523Y-127157200D02*
X135404761Y-127204819D01*
X135404761Y-127204819D02*
X135690475Y-127204819D01*
X135690475Y-127204819D02*
X135785713Y-127157200D01*
X135785713Y-127157200D02*
X135833332Y-127109580D01*
X134452380Y-126681009D02*
X134309523Y-126728628D01*
X134309523Y-126728628D02*
X134261904Y-126776247D01*
X134261904Y-126776247D02*
X134214285Y-126871485D01*
X134214285Y-126871485D02*
X134214285Y-127014342D01*
X134214285Y-127014342D02*
X134261904Y-127109580D01*
X134261904Y-127109580D02*
X134309523Y-127157200D01*
X134309523Y-127157200D02*
X134404761Y-127204819D01*
X134404761Y-127204819D02*
X134785713Y-127204819D01*
X134785713Y-127204819D02*
X134785713Y-126204819D01*
X134785713Y-126204819D02*
X134452380Y-126204819D01*
X134452380Y-126204819D02*
X134357142Y-126252438D01*
X134357142Y-126252438D02*
X134309523Y-126300057D01*
X134309523Y-126300057D02*
X134261904Y-126395295D01*
X134261904Y-126395295D02*
X134261904Y-126490533D01*
X134261904Y-126490533D02*
X134309523Y-126585771D01*
X134309523Y-126585771D02*
X134357142Y-126633390D01*
X134357142Y-126633390D02*
X134452380Y-126681009D01*
X134452380Y-126681009D02*
X134785713Y-126681009D01*
X140166666Y-69359580D02*
X140214285Y-69407200D01*
X140214285Y-69407200D02*
X140357142Y-69454819D01*
X140357142Y-69454819D02*
X140452380Y-69454819D01*
X140452380Y-69454819D02*
X140595237Y-69407200D01*
X140595237Y-69407200D02*
X140690475Y-69311961D01*
X140690475Y-69311961D02*
X140738094Y-69216723D01*
X140738094Y-69216723D02*
X140785713Y-69026247D01*
X140785713Y-69026247D02*
X140785713Y-68883390D01*
X140785713Y-68883390D02*
X140738094Y-68692914D01*
X140738094Y-68692914D02*
X140690475Y-68597676D01*
X140690475Y-68597676D02*
X140595237Y-68502438D01*
X140595237Y-68502438D02*
X140452380Y-68454819D01*
X140452380Y-68454819D02*
X140357142Y-68454819D01*
X140357142Y-68454819D02*
X140214285Y-68502438D01*
X140214285Y-68502438D02*
X140166666Y-68550057D01*
X139214285Y-69454819D02*
X139785713Y-69454819D01*
X139499999Y-69454819D02*
X139499999Y-68454819D01*
X139499999Y-68454819D02*
X139595237Y-68597676D01*
X139595237Y-68597676D02*
X139690475Y-68692914D01*
X139690475Y-68692914D02*
X139785713Y-68740533D01*
X148453066Y-92858619D02*
X148786399Y-92382428D01*
X149024494Y-92858619D02*
X149024494Y-91858619D01*
X149024494Y-91858619D02*
X148643542Y-91858619D01*
X148643542Y-91858619D02*
X148548304Y-91906238D01*
X148548304Y-91906238D02*
X148500685Y-91953857D01*
X148500685Y-91953857D02*
X148453066Y-92049095D01*
X148453066Y-92049095D02*
X148453066Y-92191952D01*
X148453066Y-92191952D02*
X148500685Y-92287190D01*
X148500685Y-92287190D02*
X148548304Y-92334809D01*
X148548304Y-92334809D02*
X148643542Y-92382428D01*
X148643542Y-92382428D02*
X149024494Y-92382428D01*
X147548304Y-91858619D02*
X148024494Y-91858619D01*
X148024494Y-91858619D02*
X148072113Y-92334809D01*
X148072113Y-92334809D02*
X148024494Y-92287190D01*
X148024494Y-92287190D02*
X147929256Y-92239571D01*
X147929256Y-92239571D02*
X147691161Y-92239571D01*
X147691161Y-92239571D02*
X147595923Y-92287190D01*
X147595923Y-92287190D02*
X147548304Y-92334809D01*
X147548304Y-92334809D02*
X147500685Y-92430047D01*
X147500685Y-92430047D02*
X147500685Y-92668142D01*
X147500685Y-92668142D02*
X147548304Y-92763380D01*
X147548304Y-92763380D02*
X147595923Y-92811000D01*
X147595923Y-92811000D02*
X147691161Y-92858619D01*
X147691161Y-92858619D02*
X147929256Y-92858619D01*
X147929256Y-92858619D02*
X148024494Y-92811000D01*
X148024494Y-92811000D02*
X148072113Y-92763380D01*
X176242857Y-90999980D02*
X176290476Y-91047600D01*
X176290476Y-91047600D02*
X176433333Y-91095219D01*
X176433333Y-91095219D02*
X176528571Y-91095219D01*
X176528571Y-91095219D02*
X176671428Y-91047600D01*
X176671428Y-91047600D02*
X176766666Y-90952361D01*
X176766666Y-90952361D02*
X176814285Y-90857123D01*
X176814285Y-90857123D02*
X176861904Y-90666647D01*
X176861904Y-90666647D02*
X176861904Y-90523790D01*
X176861904Y-90523790D02*
X176814285Y-90333314D01*
X176814285Y-90333314D02*
X176766666Y-90238076D01*
X176766666Y-90238076D02*
X176671428Y-90142838D01*
X176671428Y-90142838D02*
X176528571Y-90095219D01*
X176528571Y-90095219D02*
X176433333Y-90095219D01*
X176433333Y-90095219D02*
X176290476Y-90142838D01*
X176290476Y-90142838D02*
X176242857Y-90190457D01*
X175290476Y-91095219D02*
X175861904Y-91095219D01*
X175576190Y-91095219D02*
X175576190Y-90095219D01*
X175576190Y-90095219D02*
X175671428Y-90238076D01*
X175671428Y-90238076D02*
X175766666Y-90333314D01*
X175766666Y-90333314D02*
X175861904Y-90380933D01*
X174909523Y-90190457D02*
X174861904Y-90142838D01*
X174861904Y-90142838D02*
X174766666Y-90095219D01*
X174766666Y-90095219D02*
X174528571Y-90095219D01*
X174528571Y-90095219D02*
X174433333Y-90142838D01*
X174433333Y-90142838D02*
X174385714Y-90190457D01*
X174385714Y-90190457D02*
X174338095Y-90285695D01*
X174338095Y-90285695D02*
X174338095Y-90380933D01*
X174338095Y-90380933D02*
X174385714Y-90523790D01*
X174385714Y-90523790D02*
X174957142Y-91095219D01*
X174957142Y-91095219D02*
X174338095Y-91095219D01*
X145261904Y-146502438D02*
X145357142Y-146454819D01*
X145357142Y-146454819D02*
X145499999Y-146454819D01*
X145499999Y-146454819D02*
X145642856Y-146502438D01*
X145642856Y-146502438D02*
X145738094Y-146597676D01*
X145738094Y-146597676D02*
X145785713Y-146692914D01*
X145785713Y-146692914D02*
X145833332Y-146883390D01*
X145833332Y-146883390D02*
X145833332Y-147026247D01*
X145833332Y-147026247D02*
X145785713Y-147216723D01*
X145785713Y-147216723D02*
X145738094Y-147311961D01*
X145738094Y-147311961D02*
X145642856Y-147407200D01*
X145642856Y-147407200D02*
X145499999Y-147454819D01*
X145499999Y-147454819D02*
X145404761Y-147454819D01*
X145404761Y-147454819D02*
X145261904Y-147407200D01*
X145261904Y-147407200D02*
X145214285Y-147359580D01*
X145214285Y-147359580D02*
X145214285Y-147026247D01*
X145214285Y-147026247D02*
X145404761Y-147026247D01*
X144785713Y-147454819D02*
X144785713Y-146454819D01*
X144785713Y-146454819D02*
X144214285Y-147454819D01*
X144214285Y-147454819D02*
X144214285Y-146454819D01*
X143738094Y-147454819D02*
X143738094Y-146454819D01*
X143738094Y-146454819D02*
X143499999Y-146454819D01*
X143499999Y-146454819D02*
X143357142Y-146502438D01*
X143357142Y-146502438D02*
X143261904Y-146597676D01*
X143261904Y-146597676D02*
X143214285Y-146692914D01*
X143214285Y-146692914D02*
X143166666Y-146883390D01*
X143166666Y-146883390D02*
X143166666Y-147026247D01*
X143166666Y-147026247D02*
X143214285Y-147216723D01*
X143214285Y-147216723D02*
X143261904Y-147311961D01*
X143261904Y-147311961D02*
X143357142Y-147407200D01*
X143357142Y-147407200D02*
X143499999Y-147454819D01*
X143499999Y-147454819D02*
X143738094Y-147454819D01*
X181166666Y-115954819D02*
X181499999Y-115478628D01*
X181738094Y-115954819D02*
X181738094Y-114954819D01*
X181738094Y-114954819D02*
X181357142Y-114954819D01*
X181357142Y-114954819D02*
X181261904Y-115002438D01*
X181261904Y-115002438D02*
X181214285Y-115050057D01*
X181214285Y-115050057D02*
X181166666Y-115145295D01*
X181166666Y-115145295D02*
X181166666Y-115288152D01*
X181166666Y-115288152D02*
X181214285Y-115383390D01*
X181214285Y-115383390D02*
X181261904Y-115431009D01*
X181261904Y-115431009D02*
X181357142Y-115478628D01*
X181357142Y-115478628D02*
X181738094Y-115478628D01*
X180214285Y-115954819D02*
X180785713Y-115954819D01*
X180499999Y-115954819D02*
X180499999Y-114954819D01*
X180499999Y-114954819D02*
X180595237Y-115097676D01*
X180595237Y-115097676D02*
X180690475Y-115192914D01*
X180690475Y-115192914D02*
X180785713Y-115240533D01*
X161659866Y-121873180D02*
X161707485Y-121920800D01*
X161707485Y-121920800D02*
X161850342Y-121968419D01*
X161850342Y-121968419D02*
X161945580Y-121968419D01*
X161945580Y-121968419D02*
X162088437Y-121920800D01*
X162088437Y-121920800D02*
X162183675Y-121825561D01*
X162183675Y-121825561D02*
X162231294Y-121730323D01*
X162231294Y-121730323D02*
X162278913Y-121539847D01*
X162278913Y-121539847D02*
X162278913Y-121396990D01*
X162278913Y-121396990D02*
X162231294Y-121206514D01*
X162231294Y-121206514D02*
X162183675Y-121111276D01*
X162183675Y-121111276D02*
X162088437Y-121016038D01*
X162088437Y-121016038D02*
X161945580Y-120968419D01*
X161945580Y-120968419D02*
X161850342Y-120968419D01*
X161850342Y-120968419D02*
X161707485Y-121016038D01*
X161707485Y-121016038D02*
X161659866Y-121063657D01*
X161326532Y-120968419D02*
X160659866Y-120968419D01*
X160659866Y-120968419D02*
X161088437Y-121968419D01*
X128107142Y-95457200D02*
X127964285Y-95504819D01*
X127964285Y-95504819D02*
X127726190Y-95504819D01*
X127726190Y-95504819D02*
X127630952Y-95457200D01*
X127630952Y-95457200D02*
X127583333Y-95409580D01*
X127583333Y-95409580D02*
X127535714Y-95314342D01*
X127535714Y-95314342D02*
X127535714Y-95219104D01*
X127535714Y-95219104D02*
X127583333Y-95123866D01*
X127583333Y-95123866D02*
X127630952Y-95076247D01*
X127630952Y-95076247D02*
X127726190Y-95028628D01*
X127726190Y-95028628D02*
X127916666Y-94981009D01*
X127916666Y-94981009D02*
X128011904Y-94933390D01*
X128011904Y-94933390D02*
X128059523Y-94885771D01*
X128059523Y-94885771D02*
X128107142Y-94790533D01*
X128107142Y-94790533D02*
X128107142Y-94695295D01*
X128107142Y-94695295D02*
X128059523Y-94600057D01*
X128059523Y-94600057D02*
X128011904Y-94552438D01*
X128011904Y-94552438D02*
X127916666Y-94504819D01*
X127916666Y-94504819D02*
X127678571Y-94504819D01*
X127678571Y-94504819D02*
X127535714Y-94552438D01*
X126964285Y-95504819D02*
X127059523Y-95457200D01*
X127059523Y-95457200D02*
X127107142Y-95409580D01*
X127107142Y-95409580D02*
X127154761Y-95314342D01*
X127154761Y-95314342D02*
X127154761Y-95028628D01*
X127154761Y-95028628D02*
X127107142Y-94933390D01*
X127107142Y-94933390D02*
X127059523Y-94885771D01*
X127059523Y-94885771D02*
X126964285Y-94838152D01*
X126964285Y-94838152D02*
X126821428Y-94838152D01*
X126821428Y-94838152D02*
X126726190Y-94885771D01*
X126726190Y-94885771D02*
X126678571Y-94933390D01*
X126678571Y-94933390D02*
X126630952Y-95028628D01*
X126630952Y-95028628D02*
X126630952Y-95314342D01*
X126630952Y-95314342D02*
X126678571Y-95409580D01*
X126678571Y-95409580D02*
X126726190Y-95457200D01*
X126726190Y-95457200D02*
X126821428Y-95504819D01*
X126821428Y-95504819D02*
X126964285Y-95504819D01*
X126059523Y-95504819D02*
X126154761Y-95457200D01*
X126154761Y-95457200D02*
X126202380Y-95361961D01*
X126202380Y-95361961D02*
X126202380Y-94504819D01*
X125916666Y-95600057D02*
X125154761Y-95600057D01*
X124488094Y-94838152D02*
X124488094Y-95504819D01*
X124726189Y-94457200D02*
X124964284Y-95171485D01*
X124964284Y-95171485D02*
X124345237Y-95171485D01*
X135666666Y-69359580D02*
X135714285Y-69407200D01*
X135714285Y-69407200D02*
X135857142Y-69454819D01*
X135857142Y-69454819D02*
X135952380Y-69454819D01*
X135952380Y-69454819D02*
X136095237Y-69407200D01*
X136095237Y-69407200D02*
X136190475Y-69311961D01*
X136190475Y-69311961D02*
X136238094Y-69216723D01*
X136238094Y-69216723D02*
X136285713Y-69026247D01*
X136285713Y-69026247D02*
X136285713Y-68883390D01*
X136285713Y-68883390D02*
X136238094Y-68692914D01*
X136238094Y-68692914D02*
X136190475Y-68597676D01*
X136190475Y-68597676D02*
X136095237Y-68502438D01*
X136095237Y-68502438D02*
X135952380Y-68454819D01*
X135952380Y-68454819D02*
X135857142Y-68454819D01*
X135857142Y-68454819D02*
X135714285Y-68502438D01*
X135714285Y-68502438D02*
X135666666Y-68550057D01*
X134809523Y-68788152D02*
X134809523Y-69454819D01*
X135047618Y-68407200D02*
X135285713Y-69121485D01*
X135285713Y-69121485D02*
X134666666Y-69121485D01*
X127454819Y-132690476D02*
X126454819Y-132690476D01*
X126454819Y-132690476D02*
X127169104Y-133023809D01*
X127169104Y-133023809D02*
X126454819Y-133357142D01*
X126454819Y-133357142D02*
X127454819Y-133357142D01*
X126454819Y-133738095D02*
X126454819Y-134357142D01*
X126454819Y-134357142D02*
X126835771Y-134023809D01*
X126835771Y-134023809D02*
X126835771Y-134166666D01*
X126835771Y-134166666D02*
X126883390Y-134261904D01*
X126883390Y-134261904D02*
X126931009Y-134309523D01*
X126931009Y-134309523D02*
X127026247Y-134357142D01*
X127026247Y-134357142D02*
X127264342Y-134357142D01*
X127264342Y-134357142D02*
X127359580Y-134309523D01*
X127359580Y-134309523D02*
X127407200Y-134261904D01*
X127407200Y-134261904D02*
X127454819Y-134166666D01*
X127454819Y-134166666D02*
X127454819Y-133880952D01*
X127454819Y-133880952D02*
X127407200Y-133785714D01*
X127407200Y-133785714D02*
X127359580Y-133738095D01*
X132209523Y-89795219D02*
X132209523Y-88795219D01*
X132209523Y-88795219D02*
X131876190Y-89509504D01*
X131876190Y-89509504D02*
X131542857Y-88795219D01*
X131542857Y-88795219D02*
X131542857Y-89795219D01*
X130638095Y-89128552D02*
X130638095Y-89795219D01*
X130876190Y-88747600D02*
X131114285Y-89461885D01*
X131114285Y-89461885D02*
X130495238Y-89461885D01*
X132285713Y-73925866D02*
X131523809Y-73925866D01*
X131904761Y-74306819D02*
X131904761Y-73544914D01*
X130571428Y-73306819D02*
X131047618Y-73306819D01*
X131047618Y-73306819D02*
X131095237Y-73783009D01*
X131095237Y-73783009D02*
X131047618Y-73735390D01*
X131047618Y-73735390D02*
X130952380Y-73687771D01*
X130952380Y-73687771D02*
X130714285Y-73687771D01*
X130714285Y-73687771D02*
X130619047Y-73735390D01*
X130619047Y-73735390D02*
X130571428Y-73783009D01*
X130571428Y-73783009D02*
X130523809Y-73878247D01*
X130523809Y-73878247D02*
X130523809Y-74116342D01*
X130523809Y-74116342D02*
X130571428Y-74211580D01*
X130571428Y-74211580D02*
X130619047Y-74259200D01*
X130619047Y-74259200D02*
X130714285Y-74306819D01*
X130714285Y-74306819D02*
X130952380Y-74306819D01*
X130952380Y-74306819D02*
X131047618Y-74259200D01*
X131047618Y-74259200D02*
X131095237Y-74211580D01*
X130238094Y-73306819D02*
X129904761Y-74306819D01*
X129904761Y-74306819D02*
X129571428Y-73306819D01*
X147994666Y-102467580D02*
X148042285Y-102515200D01*
X148042285Y-102515200D02*
X148185142Y-102562819D01*
X148185142Y-102562819D02*
X148280380Y-102562819D01*
X148280380Y-102562819D02*
X148423237Y-102515200D01*
X148423237Y-102515200D02*
X148518475Y-102419961D01*
X148518475Y-102419961D02*
X148566094Y-102324723D01*
X148566094Y-102324723D02*
X148613713Y-102134247D01*
X148613713Y-102134247D02*
X148613713Y-101991390D01*
X148613713Y-101991390D02*
X148566094Y-101800914D01*
X148566094Y-101800914D02*
X148518475Y-101705676D01*
X148518475Y-101705676D02*
X148423237Y-101610438D01*
X148423237Y-101610438D02*
X148280380Y-101562819D01*
X148280380Y-101562819D02*
X148185142Y-101562819D01*
X148185142Y-101562819D02*
X148042285Y-101610438D01*
X148042285Y-101610438D02*
X147994666Y-101658057D01*
X147089904Y-101562819D02*
X147566094Y-101562819D01*
X147566094Y-101562819D02*
X147613713Y-102039009D01*
X147613713Y-102039009D02*
X147566094Y-101991390D01*
X147566094Y-101991390D02*
X147470856Y-101943771D01*
X147470856Y-101943771D02*
X147232761Y-101943771D01*
X147232761Y-101943771D02*
X147137523Y-101991390D01*
X147137523Y-101991390D02*
X147089904Y-102039009D01*
X147089904Y-102039009D02*
X147042285Y-102134247D01*
X147042285Y-102134247D02*
X147042285Y-102372342D01*
X147042285Y-102372342D02*
X147089904Y-102467580D01*
X147089904Y-102467580D02*
X147137523Y-102515200D01*
X147137523Y-102515200D02*
X147232761Y-102562819D01*
X147232761Y-102562819D02*
X147470856Y-102562819D01*
X147470856Y-102562819D02*
X147566094Y-102515200D01*
X147566094Y-102515200D02*
X147613713Y-102467580D01*
X119761904Y-67254819D02*
X119761904Y-66254819D01*
X119761904Y-66254819D02*
X119380952Y-66254819D01*
X119380952Y-66254819D02*
X119285714Y-66302438D01*
X119285714Y-66302438D02*
X119238095Y-66350057D01*
X119238095Y-66350057D02*
X119190476Y-66445295D01*
X119190476Y-66445295D02*
X119190476Y-66588152D01*
X119190476Y-66588152D02*
X119238095Y-66683390D01*
X119238095Y-66683390D02*
X119285714Y-66731009D01*
X119285714Y-66731009D02*
X119380952Y-66778628D01*
X119380952Y-66778628D02*
X119761904Y-66778628D01*
X118761904Y-67254819D02*
X118761904Y-66254819D01*
X118761904Y-66254819D02*
X118428571Y-66969104D01*
X118428571Y-66969104D02*
X118095238Y-66254819D01*
X118095238Y-66254819D02*
X118095238Y-67254819D01*
X117666666Y-66969104D02*
X117190476Y-66969104D01*
X117761904Y-67254819D02*
X117428571Y-66254819D01*
X117428571Y-66254819D02*
X117095238Y-67254819D01*
X116238095Y-66302438D02*
X116333333Y-66254819D01*
X116333333Y-66254819D02*
X116476190Y-66254819D01*
X116476190Y-66254819D02*
X116619047Y-66302438D01*
X116619047Y-66302438D02*
X116714285Y-66397676D01*
X116714285Y-66397676D02*
X116761904Y-66492914D01*
X116761904Y-66492914D02*
X116809523Y-66683390D01*
X116809523Y-66683390D02*
X116809523Y-66826247D01*
X116809523Y-66826247D02*
X116761904Y-67016723D01*
X116761904Y-67016723D02*
X116714285Y-67111961D01*
X116714285Y-67111961D02*
X116619047Y-67207200D01*
X116619047Y-67207200D02*
X116476190Y-67254819D01*
X116476190Y-67254819D02*
X116380952Y-67254819D01*
X116380952Y-67254819D02*
X116238095Y-67207200D01*
X116238095Y-67207200D02*
X116190476Y-67159580D01*
X116190476Y-67159580D02*
X116190476Y-66826247D01*
X116190476Y-66826247D02*
X116380952Y-66826247D01*
X116466666Y-91399980D02*
X116514285Y-91447600D01*
X116514285Y-91447600D02*
X116657142Y-91495219D01*
X116657142Y-91495219D02*
X116752380Y-91495219D01*
X116752380Y-91495219D02*
X116895237Y-91447600D01*
X116895237Y-91447600D02*
X116990475Y-91352361D01*
X116990475Y-91352361D02*
X117038094Y-91257123D01*
X117038094Y-91257123D02*
X117085713Y-91066647D01*
X117085713Y-91066647D02*
X117085713Y-90923790D01*
X117085713Y-90923790D02*
X117038094Y-90733314D01*
X117038094Y-90733314D02*
X116990475Y-90638076D01*
X116990475Y-90638076D02*
X116895237Y-90542838D01*
X116895237Y-90542838D02*
X116752380Y-90495219D01*
X116752380Y-90495219D02*
X116657142Y-90495219D01*
X116657142Y-90495219D02*
X116514285Y-90542838D01*
X116514285Y-90542838D02*
X116466666Y-90590457D01*
X115895237Y-90923790D02*
X115990475Y-90876171D01*
X115990475Y-90876171D02*
X116038094Y-90828552D01*
X116038094Y-90828552D02*
X116085713Y-90733314D01*
X116085713Y-90733314D02*
X116085713Y-90685695D01*
X116085713Y-90685695D02*
X116038094Y-90590457D01*
X116038094Y-90590457D02*
X115990475Y-90542838D01*
X115990475Y-90542838D02*
X115895237Y-90495219D01*
X115895237Y-90495219D02*
X115704761Y-90495219D01*
X115704761Y-90495219D02*
X115609523Y-90542838D01*
X115609523Y-90542838D02*
X115561904Y-90590457D01*
X115561904Y-90590457D02*
X115514285Y-90685695D01*
X115514285Y-90685695D02*
X115514285Y-90733314D01*
X115514285Y-90733314D02*
X115561904Y-90828552D01*
X115561904Y-90828552D02*
X115609523Y-90876171D01*
X115609523Y-90876171D02*
X115704761Y-90923790D01*
X115704761Y-90923790D02*
X115895237Y-90923790D01*
X115895237Y-90923790D02*
X115990475Y-90971409D01*
X115990475Y-90971409D02*
X116038094Y-91019028D01*
X116038094Y-91019028D02*
X116085713Y-91114266D01*
X116085713Y-91114266D02*
X116085713Y-91304742D01*
X116085713Y-91304742D02*
X116038094Y-91399980D01*
X116038094Y-91399980D02*
X115990475Y-91447600D01*
X115990475Y-91447600D02*
X115895237Y-91495219D01*
X115895237Y-91495219D02*
X115704761Y-91495219D01*
X115704761Y-91495219D02*
X115609523Y-91447600D01*
X115609523Y-91447600D02*
X115561904Y-91399980D01*
X115561904Y-91399980D02*
X115514285Y-91304742D01*
X115514285Y-91304742D02*
X115514285Y-91114266D01*
X115514285Y-91114266D02*
X115561904Y-91019028D01*
X115561904Y-91019028D02*
X115609523Y-90971409D01*
X115609523Y-90971409D02*
X115704761Y-90923790D01*
X188042857Y-115799980D02*
X188090476Y-115847600D01*
X188090476Y-115847600D02*
X188233333Y-115895219D01*
X188233333Y-115895219D02*
X188328571Y-115895219D01*
X188328571Y-115895219D02*
X188471428Y-115847600D01*
X188471428Y-115847600D02*
X188566666Y-115752361D01*
X188566666Y-115752361D02*
X188614285Y-115657123D01*
X188614285Y-115657123D02*
X188661904Y-115466647D01*
X188661904Y-115466647D02*
X188661904Y-115323790D01*
X188661904Y-115323790D02*
X188614285Y-115133314D01*
X188614285Y-115133314D02*
X188566666Y-115038076D01*
X188566666Y-115038076D02*
X188471428Y-114942838D01*
X188471428Y-114942838D02*
X188328571Y-114895219D01*
X188328571Y-114895219D02*
X188233333Y-114895219D01*
X188233333Y-114895219D02*
X188090476Y-114942838D01*
X188090476Y-114942838D02*
X188042857Y-114990457D01*
X187090476Y-115895219D02*
X187661904Y-115895219D01*
X187376190Y-115895219D02*
X187376190Y-114895219D01*
X187376190Y-114895219D02*
X187471428Y-115038076D01*
X187471428Y-115038076D02*
X187566666Y-115133314D01*
X187566666Y-115133314D02*
X187661904Y-115180933D01*
X186233333Y-115228552D02*
X186233333Y-115895219D01*
X186471428Y-114847600D02*
X186709523Y-115561885D01*
X186709523Y-115561885D02*
X186090476Y-115561885D01*
X148066093Y-75453047D02*
X147923236Y-75500666D01*
X147923236Y-75500666D02*
X147685141Y-75500666D01*
X147685141Y-75500666D02*
X147589903Y-75453047D01*
X147589903Y-75453047D02*
X147542284Y-75405427D01*
X147542284Y-75405427D02*
X147494665Y-75310189D01*
X147494665Y-75310189D02*
X147494665Y-75214951D01*
X147494665Y-75214951D02*
X147542284Y-75119713D01*
X147542284Y-75119713D02*
X147589903Y-75072094D01*
X147589903Y-75072094D02*
X147685141Y-75024475D01*
X147685141Y-75024475D02*
X147875617Y-74976856D01*
X147875617Y-74976856D02*
X147970855Y-74929237D01*
X147970855Y-74929237D02*
X148018474Y-74881618D01*
X148018474Y-74881618D02*
X148066093Y-74786380D01*
X148066093Y-74786380D02*
X148066093Y-74691142D01*
X148066093Y-74691142D02*
X148018474Y-74595904D01*
X148018474Y-74595904D02*
X147970855Y-74548285D01*
X147970855Y-74548285D02*
X147875617Y-74500666D01*
X147875617Y-74500666D02*
X147637522Y-74500666D01*
X147637522Y-74500666D02*
X147494665Y-74548285D01*
X146923236Y-75500666D02*
X147018474Y-75453047D01*
X147018474Y-75453047D02*
X147066093Y-75405427D01*
X147066093Y-75405427D02*
X147113712Y-75310189D01*
X147113712Y-75310189D02*
X147113712Y-75024475D01*
X147113712Y-75024475D02*
X147066093Y-74929237D01*
X147066093Y-74929237D02*
X147018474Y-74881618D01*
X147018474Y-74881618D02*
X146923236Y-74833999D01*
X146923236Y-74833999D02*
X146780379Y-74833999D01*
X146780379Y-74833999D02*
X146685141Y-74881618D01*
X146685141Y-74881618D02*
X146637522Y-74929237D01*
X146637522Y-74929237D02*
X146589903Y-75024475D01*
X146589903Y-75024475D02*
X146589903Y-75310189D01*
X146589903Y-75310189D02*
X146637522Y-75405427D01*
X146637522Y-75405427D02*
X146685141Y-75453047D01*
X146685141Y-75453047D02*
X146780379Y-75500666D01*
X146780379Y-75500666D02*
X146923236Y-75500666D01*
X146018474Y-75500666D02*
X146113712Y-75453047D01*
X146113712Y-75453047D02*
X146161331Y-75357808D01*
X146161331Y-75357808D02*
X146161331Y-74500666D01*
X145875617Y-75595904D02*
X145113712Y-75595904D01*
X144923235Y-74595904D02*
X144875616Y-74548285D01*
X144875616Y-74548285D02*
X144780378Y-74500666D01*
X144780378Y-74500666D02*
X144542283Y-74500666D01*
X144542283Y-74500666D02*
X144447045Y-74548285D01*
X144447045Y-74548285D02*
X144399426Y-74595904D01*
X144399426Y-74595904D02*
X144351807Y-74691142D01*
X144351807Y-74691142D02*
X144351807Y-74786380D01*
X144351807Y-74786380D02*
X144399426Y-74929237D01*
X144399426Y-74929237D02*
X144970854Y-75500666D01*
X144970854Y-75500666D02*
X144351807Y-75500666D01*
X131544819Y-76168495D02*
X132354342Y-76168495D01*
X132354342Y-76168495D02*
X132449580Y-76216114D01*
X132449580Y-76216114D02*
X132497200Y-76263733D01*
X132497200Y-76263733D02*
X132544819Y-76358971D01*
X132544819Y-76358971D02*
X132544819Y-76549447D01*
X132544819Y-76549447D02*
X132497200Y-76644685D01*
X132497200Y-76644685D02*
X132449580Y-76692304D01*
X132449580Y-76692304D02*
X132354342Y-76739923D01*
X132354342Y-76739923D02*
X131544819Y-76739923D01*
X131640057Y-77168495D02*
X131592438Y-77216114D01*
X131592438Y-77216114D02*
X131544819Y-77311352D01*
X131544819Y-77311352D02*
X131544819Y-77549447D01*
X131544819Y-77549447D02*
X131592438Y-77644685D01*
X131592438Y-77644685D02*
X131640057Y-77692304D01*
X131640057Y-77692304D02*
X131735295Y-77739923D01*
X131735295Y-77739923D02*
X131830533Y-77739923D01*
X131830533Y-77739923D02*
X131973390Y-77692304D01*
X131973390Y-77692304D02*
X132544819Y-77120876D01*
X132544819Y-77120876D02*
X132544819Y-77739923D01*
X123942857Y-117299980D02*
X123990476Y-117347600D01*
X123990476Y-117347600D02*
X124133333Y-117395219D01*
X124133333Y-117395219D02*
X124228571Y-117395219D01*
X124228571Y-117395219D02*
X124371428Y-117347600D01*
X124371428Y-117347600D02*
X124466666Y-117252361D01*
X124466666Y-117252361D02*
X124514285Y-117157123D01*
X124514285Y-117157123D02*
X124561904Y-116966647D01*
X124561904Y-116966647D02*
X124561904Y-116823790D01*
X124561904Y-116823790D02*
X124514285Y-116633314D01*
X124514285Y-116633314D02*
X124466666Y-116538076D01*
X124466666Y-116538076D02*
X124371428Y-116442838D01*
X124371428Y-116442838D02*
X124228571Y-116395219D01*
X124228571Y-116395219D02*
X124133333Y-116395219D01*
X124133333Y-116395219D02*
X123990476Y-116442838D01*
X123990476Y-116442838D02*
X123942857Y-116490457D01*
X122990476Y-117395219D02*
X123561904Y-117395219D01*
X123276190Y-117395219D02*
X123276190Y-116395219D01*
X123276190Y-116395219D02*
X123371428Y-116538076D01*
X123371428Y-116538076D02*
X123466666Y-116633314D01*
X123466666Y-116633314D02*
X123561904Y-116680933D01*
X122371428Y-116395219D02*
X122276190Y-116395219D01*
X122276190Y-116395219D02*
X122180952Y-116442838D01*
X122180952Y-116442838D02*
X122133333Y-116490457D01*
X122133333Y-116490457D02*
X122085714Y-116585695D01*
X122085714Y-116585695D02*
X122038095Y-116776171D01*
X122038095Y-116776171D02*
X122038095Y-117014266D01*
X122038095Y-117014266D02*
X122085714Y-117204742D01*
X122085714Y-117204742D02*
X122133333Y-117299980D01*
X122133333Y-117299980D02*
X122180952Y-117347600D01*
X122180952Y-117347600D02*
X122276190Y-117395219D01*
X122276190Y-117395219D02*
X122371428Y-117395219D01*
X122371428Y-117395219D02*
X122466666Y-117347600D01*
X122466666Y-117347600D02*
X122514285Y-117299980D01*
X122514285Y-117299980D02*
X122561904Y-117204742D01*
X122561904Y-117204742D02*
X122609523Y-117014266D01*
X122609523Y-117014266D02*
X122609523Y-116776171D01*
X122609523Y-116776171D02*
X122561904Y-116585695D01*
X122561904Y-116585695D02*
X122514285Y-116490457D01*
X122514285Y-116490457D02*
X122466666Y-116442838D01*
X122466666Y-116442838D02*
X122371428Y-116395219D01*
X154503333Y-146841969D02*
X154503333Y-147556254D01*
X154503333Y-147556254D02*
X154550952Y-147699111D01*
X154550952Y-147699111D02*
X154646190Y-147794350D01*
X154646190Y-147794350D02*
X154789047Y-147841969D01*
X154789047Y-147841969D02*
X154884285Y-147841969D01*
X154122380Y-146841969D02*
X153503333Y-146841969D01*
X153503333Y-146841969D02*
X153836666Y-147222921D01*
X153836666Y-147222921D02*
X153693809Y-147222921D01*
X153693809Y-147222921D02*
X153598571Y-147270540D01*
X153598571Y-147270540D02*
X153550952Y-147318159D01*
X153550952Y-147318159D02*
X153503333Y-147413397D01*
X153503333Y-147413397D02*
X153503333Y-147651492D01*
X153503333Y-147651492D02*
X153550952Y-147746730D01*
X153550952Y-147746730D02*
X153598571Y-147794350D01*
X153598571Y-147794350D02*
X153693809Y-147841969D01*
X153693809Y-147841969D02*
X153979523Y-147841969D01*
X153979523Y-147841969D02*
X154074761Y-147794350D01*
X154074761Y-147794350D02*
X154122380Y-147746730D01*
X162238094Y-73306819D02*
X161619047Y-73306819D01*
X161619047Y-73306819D02*
X161952380Y-73687771D01*
X161952380Y-73687771D02*
X161809523Y-73687771D01*
X161809523Y-73687771D02*
X161714285Y-73735390D01*
X161714285Y-73735390D02*
X161666666Y-73783009D01*
X161666666Y-73783009D02*
X161619047Y-73878247D01*
X161619047Y-73878247D02*
X161619047Y-74116342D01*
X161619047Y-74116342D02*
X161666666Y-74211580D01*
X161666666Y-74211580D02*
X161714285Y-74259200D01*
X161714285Y-74259200D02*
X161809523Y-74306819D01*
X161809523Y-74306819D02*
X162095237Y-74306819D01*
X162095237Y-74306819D02*
X162190475Y-74259200D01*
X162190475Y-74259200D02*
X162238094Y-74211580D01*
X161333332Y-73306819D02*
X160999999Y-74306819D01*
X160999999Y-74306819D02*
X160666666Y-73306819D01*
X160428570Y-73306819D02*
X159809523Y-73306819D01*
X159809523Y-73306819D02*
X160142856Y-73687771D01*
X160142856Y-73687771D02*
X159999999Y-73687771D01*
X159999999Y-73687771D02*
X159904761Y-73735390D01*
X159904761Y-73735390D02*
X159857142Y-73783009D01*
X159857142Y-73783009D02*
X159809523Y-73878247D01*
X159809523Y-73878247D02*
X159809523Y-74116342D01*
X159809523Y-74116342D02*
X159857142Y-74211580D01*
X159857142Y-74211580D02*
X159904761Y-74259200D01*
X159904761Y-74259200D02*
X159999999Y-74306819D01*
X159999999Y-74306819D02*
X160285713Y-74306819D01*
X160285713Y-74306819D02*
X160380951Y-74259200D01*
X160380951Y-74259200D02*
X160428570Y-74211580D01*
X134477047Y-58454819D02*
X135048475Y-58454819D01*
X134762761Y-58454819D02*
X134762761Y-57454819D01*
X134762761Y-57454819D02*
X134857999Y-57597676D01*
X134857999Y-57597676D02*
X134953237Y-57692914D01*
X134953237Y-57692914D02*
X135048475Y-57740533D01*
X134096094Y-57550057D02*
X134048475Y-57502438D01*
X134048475Y-57502438D02*
X133953237Y-57454819D01*
X133953237Y-57454819D02*
X133715142Y-57454819D01*
X133715142Y-57454819D02*
X133619904Y-57502438D01*
X133619904Y-57502438D02*
X133572285Y-57550057D01*
X133572285Y-57550057D02*
X133524666Y-57645295D01*
X133524666Y-57645295D02*
X133524666Y-57740533D01*
X133524666Y-57740533D02*
X133572285Y-57883390D01*
X133572285Y-57883390D02*
X134143713Y-58454819D01*
X134143713Y-58454819D02*
X133524666Y-58454819D01*
X133238951Y-57454819D02*
X132905618Y-58454819D01*
X132905618Y-58454819D02*
X132572285Y-57454819D01*
X176261904Y-123454819D02*
X176261904Y-122454819D01*
X176261904Y-122454819D02*
X175880952Y-122454819D01*
X175880952Y-122454819D02*
X175785714Y-122502438D01*
X175785714Y-122502438D02*
X175738095Y-122550057D01*
X175738095Y-122550057D02*
X175690476Y-122645295D01*
X175690476Y-122645295D02*
X175690476Y-122788152D01*
X175690476Y-122788152D02*
X175738095Y-122883390D01*
X175738095Y-122883390D02*
X175785714Y-122931009D01*
X175785714Y-122931009D02*
X175880952Y-122978628D01*
X175880952Y-122978628D02*
X176261904Y-122978628D01*
X175261904Y-123454819D02*
X175261904Y-122454819D01*
X175261904Y-122454819D02*
X174928571Y-123169104D01*
X174928571Y-123169104D02*
X174595238Y-122454819D01*
X174595238Y-122454819D02*
X174595238Y-123454819D01*
X174166666Y-123169104D02*
X173690476Y-123169104D01*
X174261904Y-123454819D02*
X173928571Y-122454819D01*
X173928571Y-122454819D02*
X173595238Y-123454819D01*
X172738095Y-122502438D02*
X172833333Y-122454819D01*
X172833333Y-122454819D02*
X172976190Y-122454819D01*
X172976190Y-122454819D02*
X173119047Y-122502438D01*
X173119047Y-122502438D02*
X173214285Y-122597676D01*
X173214285Y-122597676D02*
X173261904Y-122692914D01*
X173261904Y-122692914D02*
X173309523Y-122883390D01*
X173309523Y-122883390D02*
X173309523Y-123026247D01*
X173309523Y-123026247D02*
X173261904Y-123216723D01*
X173261904Y-123216723D02*
X173214285Y-123311961D01*
X173214285Y-123311961D02*
X173119047Y-123407200D01*
X173119047Y-123407200D02*
X172976190Y-123454819D01*
X172976190Y-123454819D02*
X172880952Y-123454819D01*
X172880952Y-123454819D02*
X172738095Y-123407200D01*
X172738095Y-123407200D02*
X172690476Y-123359580D01*
X172690476Y-123359580D02*
X172690476Y-123026247D01*
X172690476Y-123026247D02*
X172880952Y-123026247D01*
X149785713Y-147073866D02*
X149023809Y-147073866D01*
X149404761Y-147454819D02*
X149404761Y-146692914D01*
X148071428Y-146454819D02*
X148547618Y-146454819D01*
X148547618Y-146454819D02*
X148595237Y-146931009D01*
X148595237Y-146931009D02*
X148547618Y-146883390D01*
X148547618Y-146883390D02*
X148452380Y-146835771D01*
X148452380Y-146835771D02*
X148214285Y-146835771D01*
X148214285Y-146835771D02*
X148119047Y-146883390D01*
X148119047Y-146883390D02*
X148071428Y-146931009D01*
X148071428Y-146931009D02*
X148023809Y-147026247D01*
X148023809Y-147026247D02*
X148023809Y-147264342D01*
X148023809Y-147264342D02*
X148071428Y-147359580D01*
X148071428Y-147359580D02*
X148119047Y-147407200D01*
X148119047Y-147407200D02*
X148214285Y-147454819D01*
X148214285Y-147454819D02*
X148452380Y-147454819D01*
X148452380Y-147454819D02*
X148547618Y-147407200D01*
X148547618Y-147407200D02*
X148595237Y-147359580D01*
X147738094Y-146454819D02*
X147404761Y-147454819D01*
X147404761Y-147454819D02*
X147071428Y-146454819D01*
X134166666Y-85454819D02*
X134499999Y-84978628D01*
X134738094Y-85454819D02*
X134738094Y-84454819D01*
X134738094Y-84454819D02*
X134357142Y-84454819D01*
X134357142Y-84454819D02*
X134261904Y-84502438D01*
X134261904Y-84502438D02*
X134214285Y-84550057D01*
X134214285Y-84550057D02*
X134166666Y-84645295D01*
X134166666Y-84645295D02*
X134166666Y-84788152D01*
X134166666Y-84788152D02*
X134214285Y-84883390D01*
X134214285Y-84883390D02*
X134261904Y-84931009D01*
X134261904Y-84931009D02*
X134357142Y-84978628D01*
X134357142Y-84978628D02*
X134738094Y-84978628D01*
X133309523Y-84788152D02*
X133309523Y-85454819D01*
X133547618Y-84407200D02*
X133785713Y-85121485D01*
X133785713Y-85121485D02*
X133166666Y-85121485D01*
X162166666Y-70999980D02*
X162214285Y-71047600D01*
X162214285Y-71047600D02*
X162357142Y-71095219D01*
X162357142Y-71095219D02*
X162452380Y-71095219D01*
X162452380Y-71095219D02*
X162595237Y-71047600D01*
X162595237Y-71047600D02*
X162690475Y-70952361D01*
X162690475Y-70952361D02*
X162738094Y-70857123D01*
X162738094Y-70857123D02*
X162785713Y-70666647D01*
X162785713Y-70666647D02*
X162785713Y-70523790D01*
X162785713Y-70523790D02*
X162738094Y-70333314D01*
X162738094Y-70333314D02*
X162690475Y-70238076D01*
X162690475Y-70238076D02*
X162595237Y-70142838D01*
X162595237Y-70142838D02*
X162452380Y-70095219D01*
X162452380Y-70095219D02*
X162357142Y-70095219D01*
X162357142Y-70095219D02*
X162214285Y-70142838D01*
X162214285Y-70142838D02*
X162166666Y-70190457D01*
X161833332Y-70095219D02*
X161214285Y-70095219D01*
X161214285Y-70095219D02*
X161547618Y-70476171D01*
X161547618Y-70476171D02*
X161404761Y-70476171D01*
X161404761Y-70476171D02*
X161309523Y-70523790D01*
X161309523Y-70523790D02*
X161261904Y-70571409D01*
X161261904Y-70571409D02*
X161214285Y-70666647D01*
X161214285Y-70666647D02*
X161214285Y-70904742D01*
X161214285Y-70904742D02*
X161261904Y-70999980D01*
X161261904Y-70999980D02*
X161309523Y-71047600D01*
X161309523Y-71047600D02*
X161404761Y-71095219D01*
X161404761Y-71095219D02*
X161690475Y-71095219D01*
X161690475Y-71095219D02*
X161785713Y-71047600D01*
X161785713Y-71047600D02*
X161833332Y-70999980D01*
X168107142Y-95457200D02*
X167964285Y-95504819D01*
X167964285Y-95504819D02*
X167726190Y-95504819D01*
X167726190Y-95504819D02*
X167630952Y-95457200D01*
X167630952Y-95457200D02*
X167583333Y-95409580D01*
X167583333Y-95409580D02*
X167535714Y-95314342D01*
X167535714Y-95314342D02*
X167535714Y-95219104D01*
X167535714Y-95219104D02*
X167583333Y-95123866D01*
X167583333Y-95123866D02*
X167630952Y-95076247D01*
X167630952Y-95076247D02*
X167726190Y-95028628D01*
X167726190Y-95028628D02*
X167916666Y-94981009D01*
X167916666Y-94981009D02*
X168011904Y-94933390D01*
X168011904Y-94933390D02*
X168059523Y-94885771D01*
X168059523Y-94885771D02*
X168107142Y-94790533D01*
X168107142Y-94790533D02*
X168107142Y-94695295D01*
X168107142Y-94695295D02*
X168059523Y-94600057D01*
X168059523Y-94600057D02*
X168011904Y-94552438D01*
X168011904Y-94552438D02*
X167916666Y-94504819D01*
X167916666Y-94504819D02*
X167678571Y-94504819D01*
X167678571Y-94504819D02*
X167535714Y-94552438D01*
X166964285Y-95504819D02*
X167059523Y-95457200D01*
X167059523Y-95457200D02*
X167107142Y-95409580D01*
X167107142Y-95409580D02*
X167154761Y-95314342D01*
X167154761Y-95314342D02*
X167154761Y-95028628D01*
X167154761Y-95028628D02*
X167107142Y-94933390D01*
X167107142Y-94933390D02*
X167059523Y-94885771D01*
X167059523Y-94885771D02*
X166964285Y-94838152D01*
X166964285Y-94838152D02*
X166821428Y-94838152D01*
X166821428Y-94838152D02*
X166726190Y-94885771D01*
X166726190Y-94885771D02*
X166678571Y-94933390D01*
X166678571Y-94933390D02*
X166630952Y-95028628D01*
X166630952Y-95028628D02*
X166630952Y-95314342D01*
X166630952Y-95314342D02*
X166678571Y-95409580D01*
X166678571Y-95409580D02*
X166726190Y-95457200D01*
X166726190Y-95457200D02*
X166821428Y-95504819D01*
X166821428Y-95504819D02*
X166964285Y-95504819D01*
X166059523Y-95504819D02*
X166154761Y-95457200D01*
X166154761Y-95457200D02*
X166202380Y-95361961D01*
X166202380Y-95361961D02*
X166202380Y-94504819D01*
X165916666Y-95600057D02*
X165154761Y-95600057D01*
X164392856Y-95504819D02*
X164964284Y-95504819D01*
X164678570Y-95504819D02*
X164678570Y-94504819D01*
X164678570Y-94504819D02*
X164773808Y-94647676D01*
X164773808Y-94647676D02*
X164869046Y-94742914D01*
X164869046Y-94742914D02*
X164964284Y-94790533D01*
X141633333Y-64404819D02*
X141633333Y-65119104D01*
X141633333Y-65119104D02*
X141680952Y-65261961D01*
X141680952Y-65261961D02*
X141776190Y-65357200D01*
X141776190Y-65357200D02*
X141919047Y-65404819D01*
X141919047Y-65404819D02*
X142014285Y-65404819D01*
X140633333Y-65404819D02*
X141204761Y-65404819D01*
X140919047Y-65404819D02*
X140919047Y-64404819D01*
X140919047Y-64404819D02*
X141014285Y-64547676D01*
X141014285Y-64547676D02*
X141109523Y-64642914D01*
X141109523Y-64642914D02*
X141204761Y-64690533D01*
X157954819Y-84190476D02*
X156954819Y-84190476D01*
X156954819Y-84190476D02*
X157669104Y-84523809D01*
X157669104Y-84523809D02*
X156954819Y-84857142D01*
X156954819Y-84857142D02*
X157954819Y-84857142D01*
X157050057Y-85285714D02*
X157002438Y-85333333D01*
X157002438Y-85333333D02*
X156954819Y-85428571D01*
X156954819Y-85428571D02*
X156954819Y-85666666D01*
X156954819Y-85666666D02*
X157002438Y-85761904D01*
X157002438Y-85761904D02*
X157050057Y-85809523D01*
X157050057Y-85809523D02*
X157145295Y-85857142D01*
X157145295Y-85857142D02*
X157240533Y-85857142D01*
X157240533Y-85857142D02*
X157383390Y-85809523D01*
X157383390Y-85809523D02*
X157954819Y-85238095D01*
X157954819Y-85238095D02*
X157954819Y-85857142D01*
X127166666Y-128299980D02*
X127214285Y-128347600D01*
X127214285Y-128347600D02*
X127357142Y-128395219D01*
X127357142Y-128395219D02*
X127452380Y-128395219D01*
X127452380Y-128395219D02*
X127595237Y-128347600D01*
X127595237Y-128347600D02*
X127690475Y-128252361D01*
X127690475Y-128252361D02*
X127738094Y-128157123D01*
X127738094Y-128157123D02*
X127785713Y-127966647D01*
X127785713Y-127966647D02*
X127785713Y-127823790D01*
X127785713Y-127823790D02*
X127738094Y-127633314D01*
X127738094Y-127633314D02*
X127690475Y-127538076D01*
X127690475Y-127538076D02*
X127595237Y-127442838D01*
X127595237Y-127442838D02*
X127452380Y-127395219D01*
X127452380Y-127395219D02*
X127357142Y-127395219D01*
X127357142Y-127395219D02*
X127214285Y-127442838D01*
X127214285Y-127442838D02*
X127166666Y-127490457D01*
X126690475Y-128395219D02*
X126499999Y-128395219D01*
X126499999Y-128395219D02*
X126404761Y-128347600D01*
X126404761Y-128347600D02*
X126357142Y-128299980D01*
X126357142Y-128299980D02*
X126261904Y-128157123D01*
X126261904Y-128157123D02*
X126214285Y-127966647D01*
X126214285Y-127966647D02*
X126214285Y-127585695D01*
X126214285Y-127585695D02*
X126261904Y-127490457D01*
X126261904Y-127490457D02*
X126309523Y-127442838D01*
X126309523Y-127442838D02*
X126404761Y-127395219D01*
X126404761Y-127395219D02*
X126595237Y-127395219D01*
X126595237Y-127395219D02*
X126690475Y-127442838D01*
X126690475Y-127442838D02*
X126738094Y-127490457D01*
X126738094Y-127490457D02*
X126785713Y-127585695D01*
X126785713Y-127585695D02*
X126785713Y-127823790D01*
X126785713Y-127823790D02*
X126738094Y-127919028D01*
X126738094Y-127919028D02*
X126690475Y-127966647D01*
X126690475Y-127966647D02*
X126595237Y-128014266D01*
X126595237Y-128014266D02*
X126404761Y-128014266D01*
X126404761Y-128014266D02*
X126309523Y-127966647D01*
X126309523Y-127966647D02*
X126261904Y-127919028D01*
X126261904Y-127919028D02*
X126214285Y-127823790D01*
X148027142Y-115467600D02*
X147884285Y-115515219D01*
X147884285Y-115515219D02*
X147646190Y-115515219D01*
X147646190Y-115515219D02*
X147550952Y-115467600D01*
X147550952Y-115467600D02*
X147503333Y-115419980D01*
X147503333Y-115419980D02*
X147455714Y-115324742D01*
X147455714Y-115324742D02*
X147455714Y-115229504D01*
X147455714Y-115229504D02*
X147503333Y-115134266D01*
X147503333Y-115134266D02*
X147550952Y-115086647D01*
X147550952Y-115086647D02*
X147646190Y-115039028D01*
X147646190Y-115039028D02*
X147836666Y-114991409D01*
X147836666Y-114991409D02*
X147931904Y-114943790D01*
X147931904Y-114943790D02*
X147979523Y-114896171D01*
X147979523Y-114896171D02*
X148027142Y-114800933D01*
X148027142Y-114800933D02*
X148027142Y-114705695D01*
X148027142Y-114705695D02*
X147979523Y-114610457D01*
X147979523Y-114610457D02*
X147931904Y-114562838D01*
X147931904Y-114562838D02*
X147836666Y-114515219D01*
X147836666Y-114515219D02*
X147598571Y-114515219D01*
X147598571Y-114515219D02*
X147455714Y-114562838D01*
X146884285Y-115515219D02*
X146979523Y-115467600D01*
X146979523Y-115467600D02*
X147027142Y-115419980D01*
X147027142Y-115419980D02*
X147074761Y-115324742D01*
X147074761Y-115324742D02*
X147074761Y-115039028D01*
X147074761Y-115039028D02*
X147027142Y-114943790D01*
X147027142Y-114943790D02*
X146979523Y-114896171D01*
X146979523Y-114896171D02*
X146884285Y-114848552D01*
X146884285Y-114848552D02*
X146741428Y-114848552D01*
X146741428Y-114848552D02*
X146646190Y-114896171D01*
X146646190Y-114896171D02*
X146598571Y-114943790D01*
X146598571Y-114943790D02*
X146550952Y-115039028D01*
X146550952Y-115039028D02*
X146550952Y-115324742D01*
X146550952Y-115324742D02*
X146598571Y-115419980D01*
X146598571Y-115419980D02*
X146646190Y-115467600D01*
X146646190Y-115467600D02*
X146741428Y-115515219D01*
X146741428Y-115515219D02*
X146884285Y-115515219D01*
X145979523Y-115515219D02*
X146074761Y-115467600D01*
X146074761Y-115467600D02*
X146122380Y-115372361D01*
X146122380Y-115372361D02*
X146122380Y-114515219D01*
X145836666Y-115610457D02*
X145074761Y-115610457D01*
X144931903Y-114515219D02*
X144312856Y-114515219D01*
X144312856Y-114515219D02*
X144646189Y-114896171D01*
X144646189Y-114896171D02*
X144503332Y-114896171D01*
X144503332Y-114896171D02*
X144408094Y-114943790D01*
X144408094Y-114943790D02*
X144360475Y-114991409D01*
X144360475Y-114991409D02*
X144312856Y-115086647D01*
X144312856Y-115086647D02*
X144312856Y-115324742D01*
X144312856Y-115324742D02*
X144360475Y-115419980D01*
X144360475Y-115419980D02*
X144408094Y-115467600D01*
X144408094Y-115467600D02*
X144503332Y-115515219D01*
X144503332Y-115515219D02*
X144789046Y-115515219D01*
X144789046Y-115515219D02*
X144884284Y-115467600D01*
X144884284Y-115467600D02*
X144931903Y-115419980D01*
X165666666Y-82495219D02*
X165999999Y-82019028D01*
X166238094Y-82495219D02*
X166238094Y-81495219D01*
X166238094Y-81495219D02*
X165857142Y-81495219D01*
X165857142Y-81495219D02*
X165761904Y-81542838D01*
X165761904Y-81542838D02*
X165714285Y-81590457D01*
X165714285Y-81590457D02*
X165666666Y-81685695D01*
X165666666Y-81685695D02*
X165666666Y-81828552D01*
X165666666Y-81828552D02*
X165714285Y-81923790D01*
X165714285Y-81923790D02*
X165761904Y-81971409D01*
X165761904Y-81971409D02*
X165857142Y-82019028D01*
X165857142Y-82019028D02*
X166238094Y-82019028D01*
X165285713Y-81590457D02*
X165238094Y-81542838D01*
X165238094Y-81542838D02*
X165142856Y-81495219D01*
X165142856Y-81495219D02*
X164904761Y-81495219D01*
X164904761Y-81495219D02*
X164809523Y-81542838D01*
X164809523Y-81542838D02*
X164761904Y-81590457D01*
X164761904Y-81590457D02*
X164714285Y-81685695D01*
X164714285Y-81685695D02*
X164714285Y-81780933D01*
X164714285Y-81780933D02*
X164761904Y-81923790D01*
X164761904Y-81923790D02*
X165333332Y-82495219D01*
X165333332Y-82495219D02*
X164714285Y-82495219D01*
X150464819Y-75628495D02*
X151274342Y-75628495D01*
X151274342Y-75628495D02*
X151369580Y-75676114D01*
X151369580Y-75676114D02*
X151417200Y-75723733D01*
X151417200Y-75723733D02*
X151464819Y-75818971D01*
X151464819Y-75818971D02*
X151464819Y-76009447D01*
X151464819Y-76009447D02*
X151417200Y-76104685D01*
X151417200Y-76104685D02*
X151369580Y-76152304D01*
X151369580Y-76152304D02*
X151274342Y-76199923D01*
X151274342Y-76199923D02*
X150464819Y-76199923D01*
X151464819Y-77199923D02*
X151464819Y-76628495D01*
X151464819Y-76914209D02*
X150464819Y-76914209D01*
X150464819Y-76914209D02*
X150607676Y-76818971D01*
X150607676Y-76818971D02*
X150702914Y-76723733D01*
X150702914Y-76723733D02*
X150750533Y-76628495D01*
X144266066Y-92809419D02*
X144599399Y-92333228D01*
X144837494Y-92809419D02*
X144837494Y-91809419D01*
X144837494Y-91809419D02*
X144456542Y-91809419D01*
X144456542Y-91809419D02*
X144361304Y-91857038D01*
X144361304Y-91857038D02*
X144313685Y-91904657D01*
X144313685Y-91904657D02*
X144266066Y-91999895D01*
X144266066Y-91999895D02*
X144266066Y-92142752D01*
X144266066Y-92142752D02*
X144313685Y-92237990D01*
X144313685Y-92237990D02*
X144361304Y-92285609D01*
X144361304Y-92285609D02*
X144456542Y-92333228D01*
X144456542Y-92333228D02*
X144837494Y-92333228D01*
X143408923Y-91809419D02*
X143599399Y-91809419D01*
X143599399Y-91809419D02*
X143694637Y-91857038D01*
X143694637Y-91857038D02*
X143742256Y-91904657D01*
X143742256Y-91904657D02*
X143837494Y-92047514D01*
X143837494Y-92047514D02*
X143885113Y-92237990D01*
X143885113Y-92237990D02*
X143885113Y-92618942D01*
X143885113Y-92618942D02*
X143837494Y-92714180D01*
X143837494Y-92714180D02*
X143789875Y-92761800D01*
X143789875Y-92761800D02*
X143694637Y-92809419D01*
X143694637Y-92809419D02*
X143504161Y-92809419D01*
X143504161Y-92809419D02*
X143408923Y-92761800D01*
X143408923Y-92761800D02*
X143361304Y-92714180D01*
X143361304Y-92714180D02*
X143313685Y-92618942D01*
X143313685Y-92618942D02*
X143313685Y-92380847D01*
X143313685Y-92380847D02*
X143361304Y-92285609D01*
X143361304Y-92285609D02*
X143408923Y-92237990D01*
X143408923Y-92237990D02*
X143504161Y-92190371D01*
X143504161Y-92190371D02*
X143694637Y-92190371D01*
X143694637Y-92190371D02*
X143789875Y-92237990D01*
X143789875Y-92237990D02*
X143837494Y-92285609D01*
X143837494Y-92285609D02*
X143885113Y-92380847D01*
X171954819Y-111690476D02*
X170954819Y-111690476D01*
X170954819Y-111690476D02*
X171669104Y-112023809D01*
X171669104Y-112023809D02*
X170954819Y-112357142D01*
X170954819Y-112357142D02*
X171954819Y-112357142D01*
X171954819Y-113357142D02*
X171954819Y-112785714D01*
X171954819Y-113071428D02*
X170954819Y-113071428D01*
X170954819Y-113071428D02*
X171097676Y-112976190D01*
X171097676Y-112976190D02*
X171192914Y-112880952D01*
X171192914Y-112880952D02*
X171240533Y-112785714D01*
X133155666Y-115931980D02*
X133203285Y-115979600D01*
X133203285Y-115979600D02*
X133346142Y-116027219D01*
X133346142Y-116027219D02*
X133441380Y-116027219D01*
X133441380Y-116027219D02*
X133584237Y-115979600D01*
X133584237Y-115979600D02*
X133679475Y-115884361D01*
X133679475Y-115884361D02*
X133727094Y-115789123D01*
X133727094Y-115789123D02*
X133774713Y-115598647D01*
X133774713Y-115598647D02*
X133774713Y-115455790D01*
X133774713Y-115455790D02*
X133727094Y-115265314D01*
X133727094Y-115265314D02*
X133679475Y-115170076D01*
X133679475Y-115170076D02*
X133584237Y-115074838D01*
X133584237Y-115074838D02*
X133441380Y-115027219D01*
X133441380Y-115027219D02*
X133346142Y-115027219D01*
X133346142Y-115027219D02*
X133203285Y-115074838D01*
X133203285Y-115074838D02*
X133155666Y-115122457D01*
X132298523Y-115027219D02*
X132488999Y-115027219D01*
X132488999Y-115027219D02*
X132584237Y-115074838D01*
X132584237Y-115074838D02*
X132631856Y-115122457D01*
X132631856Y-115122457D02*
X132727094Y-115265314D01*
X132727094Y-115265314D02*
X132774713Y-115455790D01*
X132774713Y-115455790D02*
X132774713Y-115836742D01*
X132774713Y-115836742D02*
X132727094Y-115931980D01*
X132727094Y-115931980D02*
X132679475Y-115979600D01*
X132679475Y-115979600D02*
X132584237Y-116027219D01*
X132584237Y-116027219D02*
X132393761Y-116027219D01*
X132393761Y-116027219D02*
X132298523Y-115979600D01*
X132298523Y-115979600D02*
X132250904Y-115931980D01*
X132250904Y-115931980D02*
X132203285Y-115836742D01*
X132203285Y-115836742D02*
X132203285Y-115598647D01*
X132203285Y-115598647D02*
X132250904Y-115503409D01*
X132250904Y-115503409D02*
X132298523Y-115455790D01*
X132298523Y-115455790D02*
X132393761Y-115408171D01*
X132393761Y-115408171D02*
X132584237Y-115408171D01*
X132584237Y-115408171D02*
X132679475Y-115455790D01*
X132679475Y-115455790D02*
X132727094Y-115503409D01*
X132727094Y-115503409D02*
X132774713Y-115598647D01*
X176261904Y-67254819D02*
X176261904Y-66254819D01*
X176261904Y-66254819D02*
X175880952Y-66254819D01*
X175880952Y-66254819D02*
X175785714Y-66302438D01*
X175785714Y-66302438D02*
X175738095Y-66350057D01*
X175738095Y-66350057D02*
X175690476Y-66445295D01*
X175690476Y-66445295D02*
X175690476Y-66588152D01*
X175690476Y-66588152D02*
X175738095Y-66683390D01*
X175738095Y-66683390D02*
X175785714Y-66731009D01*
X175785714Y-66731009D02*
X175880952Y-66778628D01*
X175880952Y-66778628D02*
X176261904Y-66778628D01*
X175261904Y-67254819D02*
X175261904Y-66254819D01*
X175261904Y-66254819D02*
X174928571Y-66969104D01*
X174928571Y-66969104D02*
X174595238Y-66254819D01*
X174595238Y-66254819D02*
X174595238Y-67254819D01*
X174166666Y-66969104D02*
X173690476Y-66969104D01*
X174261904Y-67254819D02*
X173928571Y-66254819D01*
X173928571Y-66254819D02*
X173595238Y-67254819D01*
X172738095Y-66302438D02*
X172833333Y-66254819D01*
X172833333Y-66254819D02*
X172976190Y-66254819D01*
X172976190Y-66254819D02*
X173119047Y-66302438D01*
X173119047Y-66302438D02*
X173214285Y-66397676D01*
X173214285Y-66397676D02*
X173261904Y-66492914D01*
X173261904Y-66492914D02*
X173309523Y-66683390D01*
X173309523Y-66683390D02*
X173309523Y-66826247D01*
X173309523Y-66826247D02*
X173261904Y-67016723D01*
X173261904Y-67016723D02*
X173214285Y-67111961D01*
X173214285Y-67111961D02*
X173119047Y-67207200D01*
X173119047Y-67207200D02*
X172976190Y-67254819D01*
X172976190Y-67254819D02*
X172880952Y-67254819D01*
X172880952Y-67254819D02*
X172738095Y-67207200D01*
X172738095Y-67207200D02*
X172690476Y-67159580D01*
X172690476Y-67159580D02*
X172690476Y-66826247D01*
X172690476Y-66826247D02*
X172880952Y-66826247D01*
X151666666Y-70899980D02*
X151714285Y-70947600D01*
X151714285Y-70947600D02*
X151857142Y-70995219D01*
X151857142Y-70995219D02*
X151952380Y-70995219D01*
X151952380Y-70995219D02*
X152095237Y-70947600D01*
X152095237Y-70947600D02*
X152190475Y-70852361D01*
X152190475Y-70852361D02*
X152238094Y-70757123D01*
X152238094Y-70757123D02*
X152285713Y-70566647D01*
X152285713Y-70566647D02*
X152285713Y-70423790D01*
X152285713Y-70423790D02*
X152238094Y-70233314D01*
X152238094Y-70233314D02*
X152190475Y-70138076D01*
X152190475Y-70138076D02*
X152095237Y-70042838D01*
X152095237Y-70042838D02*
X151952380Y-69995219D01*
X151952380Y-69995219D02*
X151857142Y-69995219D01*
X151857142Y-69995219D02*
X151714285Y-70042838D01*
X151714285Y-70042838D02*
X151666666Y-70090457D01*
X151285713Y-70090457D02*
X151238094Y-70042838D01*
X151238094Y-70042838D02*
X151142856Y-69995219D01*
X151142856Y-69995219D02*
X150904761Y-69995219D01*
X150904761Y-69995219D02*
X150809523Y-70042838D01*
X150809523Y-70042838D02*
X150761904Y-70090457D01*
X150761904Y-70090457D02*
X150714285Y-70185695D01*
X150714285Y-70185695D02*
X150714285Y-70280933D01*
X150714285Y-70280933D02*
X150761904Y-70423790D01*
X150761904Y-70423790D02*
X151333332Y-70995219D01*
X151333332Y-70995219D02*
X150714285Y-70995219D01*
X124042857Y-80699980D02*
X124090476Y-80747600D01*
X124090476Y-80747600D02*
X124233333Y-80795219D01*
X124233333Y-80795219D02*
X124328571Y-80795219D01*
X124328571Y-80795219D02*
X124471428Y-80747600D01*
X124471428Y-80747600D02*
X124566666Y-80652361D01*
X124566666Y-80652361D02*
X124614285Y-80557123D01*
X124614285Y-80557123D02*
X124661904Y-80366647D01*
X124661904Y-80366647D02*
X124661904Y-80223790D01*
X124661904Y-80223790D02*
X124614285Y-80033314D01*
X124614285Y-80033314D02*
X124566666Y-79938076D01*
X124566666Y-79938076D02*
X124471428Y-79842838D01*
X124471428Y-79842838D02*
X124328571Y-79795219D01*
X124328571Y-79795219D02*
X124233333Y-79795219D01*
X124233333Y-79795219D02*
X124090476Y-79842838D01*
X124090476Y-79842838D02*
X124042857Y-79890457D01*
X123090476Y-80795219D02*
X123661904Y-80795219D01*
X123376190Y-80795219D02*
X123376190Y-79795219D01*
X123376190Y-79795219D02*
X123471428Y-79938076D01*
X123471428Y-79938076D02*
X123566666Y-80033314D01*
X123566666Y-80033314D02*
X123661904Y-80080933D01*
X122138095Y-80795219D02*
X122709523Y-80795219D01*
X122423809Y-80795219D02*
X122423809Y-79795219D01*
X122423809Y-79795219D02*
X122519047Y-79938076D01*
X122519047Y-79938076D02*
X122614285Y-80033314D01*
X122614285Y-80033314D02*
X122709523Y-80080933D01*
X139263333Y-146841969D02*
X139263333Y-147556254D01*
X139263333Y-147556254D02*
X139310952Y-147699111D01*
X139310952Y-147699111D02*
X139406190Y-147794350D01*
X139406190Y-147794350D02*
X139549047Y-147841969D01*
X139549047Y-147841969D02*
X139644285Y-147841969D01*
X138834761Y-146937207D02*
X138787142Y-146889588D01*
X138787142Y-146889588D02*
X138691904Y-146841969D01*
X138691904Y-146841969D02*
X138453809Y-146841969D01*
X138453809Y-146841969D02*
X138358571Y-146889588D01*
X138358571Y-146889588D02*
X138310952Y-146937207D01*
X138310952Y-146937207D02*
X138263333Y-147032445D01*
X138263333Y-147032445D02*
X138263333Y-147127683D01*
X138263333Y-147127683D02*
X138310952Y-147270540D01*
X138310952Y-147270540D02*
X138882380Y-147841969D01*
X138882380Y-147841969D02*
X138263333Y-147841969D01*
X132766666Y-123895219D02*
X133099999Y-123419028D01*
X133338094Y-123895219D02*
X133338094Y-122895219D01*
X133338094Y-122895219D02*
X132957142Y-122895219D01*
X132957142Y-122895219D02*
X132861904Y-122942838D01*
X132861904Y-122942838D02*
X132814285Y-122990457D01*
X132814285Y-122990457D02*
X132766666Y-123085695D01*
X132766666Y-123085695D02*
X132766666Y-123228552D01*
X132766666Y-123228552D02*
X132814285Y-123323790D01*
X132814285Y-123323790D02*
X132861904Y-123371409D01*
X132861904Y-123371409D02*
X132957142Y-123419028D01*
X132957142Y-123419028D02*
X133338094Y-123419028D01*
X132433332Y-122895219D02*
X131814285Y-122895219D01*
X131814285Y-122895219D02*
X132147618Y-123276171D01*
X132147618Y-123276171D02*
X132004761Y-123276171D01*
X132004761Y-123276171D02*
X131909523Y-123323790D01*
X131909523Y-123323790D02*
X131861904Y-123371409D01*
X131861904Y-123371409D02*
X131814285Y-123466647D01*
X131814285Y-123466647D02*
X131814285Y-123704742D01*
X131814285Y-123704742D02*
X131861904Y-123799980D01*
X131861904Y-123799980D02*
X131909523Y-123847600D01*
X131909523Y-123847600D02*
X132004761Y-123895219D01*
X132004761Y-123895219D02*
X132290475Y-123895219D01*
X132290475Y-123895219D02*
X132385713Y-123847600D01*
X132385713Y-123847600D02*
X132433332Y-123799980D01*
X169242857Y-82099980D02*
X169290476Y-82147600D01*
X169290476Y-82147600D02*
X169433333Y-82195219D01*
X169433333Y-82195219D02*
X169528571Y-82195219D01*
X169528571Y-82195219D02*
X169671428Y-82147600D01*
X169671428Y-82147600D02*
X169766666Y-82052361D01*
X169766666Y-82052361D02*
X169814285Y-81957123D01*
X169814285Y-81957123D02*
X169861904Y-81766647D01*
X169861904Y-81766647D02*
X169861904Y-81623790D01*
X169861904Y-81623790D02*
X169814285Y-81433314D01*
X169814285Y-81433314D02*
X169766666Y-81338076D01*
X169766666Y-81338076D02*
X169671428Y-81242838D01*
X169671428Y-81242838D02*
X169528571Y-81195219D01*
X169528571Y-81195219D02*
X169433333Y-81195219D01*
X169433333Y-81195219D02*
X169290476Y-81242838D01*
X169290476Y-81242838D02*
X169242857Y-81290457D01*
X168290476Y-82195219D02*
X168861904Y-82195219D01*
X168576190Y-82195219D02*
X168576190Y-81195219D01*
X168576190Y-81195219D02*
X168671428Y-81338076D01*
X168671428Y-81338076D02*
X168766666Y-81433314D01*
X168766666Y-81433314D02*
X168861904Y-81480933D01*
X167957142Y-81195219D02*
X167338095Y-81195219D01*
X167338095Y-81195219D02*
X167671428Y-81576171D01*
X167671428Y-81576171D02*
X167528571Y-81576171D01*
X167528571Y-81576171D02*
X167433333Y-81623790D01*
X167433333Y-81623790D02*
X167385714Y-81671409D01*
X167385714Y-81671409D02*
X167338095Y-81766647D01*
X167338095Y-81766647D02*
X167338095Y-82004742D01*
X167338095Y-82004742D02*
X167385714Y-82099980D01*
X167385714Y-82099980D02*
X167433333Y-82147600D01*
X167433333Y-82147600D02*
X167528571Y-82195219D01*
X167528571Y-82195219D02*
X167814285Y-82195219D01*
X167814285Y-82195219D02*
X167909523Y-82147600D01*
X167909523Y-82147600D02*
X167957142Y-82099980D01*
X119511904Y-123454819D02*
X119511904Y-122454819D01*
X119511904Y-122454819D02*
X119130952Y-122454819D01*
X119130952Y-122454819D02*
X119035714Y-122502438D01*
X119035714Y-122502438D02*
X118988095Y-122550057D01*
X118988095Y-122550057D02*
X118940476Y-122645295D01*
X118940476Y-122645295D02*
X118940476Y-122788152D01*
X118940476Y-122788152D02*
X118988095Y-122883390D01*
X118988095Y-122883390D02*
X119035714Y-122931009D01*
X119035714Y-122931009D02*
X119130952Y-122978628D01*
X119130952Y-122978628D02*
X119511904Y-122978628D01*
X118511904Y-123454819D02*
X118511904Y-122454819D01*
X118511904Y-122454819D02*
X118178571Y-123169104D01*
X118178571Y-123169104D02*
X117845238Y-122454819D01*
X117845238Y-122454819D02*
X117845238Y-123454819D01*
X117416666Y-123169104D02*
X116940476Y-123169104D01*
X117511904Y-123454819D02*
X117178571Y-122454819D01*
X117178571Y-122454819D02*
X116845238Y-123454819D01*
X115988095Y-122502438D02*
X116083333Y-122454819D01*
X116083333Y-122454819D02*
X116226190Y-122454819D01*
X116226190Y-122454819D02*
X116369047Y-122502438D01*
X116369047Y-122502438D02*
X116464285Y-122597676D01*
X116464285Y-122597676D02*
X116511904Y-122692914D01*
X116511904Y-122692914D02*
X116559523Y-122883390D01*
X116559523Y-122883390D02*
X116559523Y-123026247D01*
X116559523Y-123026247D02*
X116511904Y-123216723D01*
X116511904Y-123216723D02*
X116464285Y-123311961D01*
X116464285Y-123311961D02*
X116369047Y-123407200D01*
X116369047Y-123407200D02*
X116226190Y-123454819D01*
X116226190Y-123454819D02*
X116130952Y-123454819D01*
X116130952Y-123454819D02*
X115988095Y-123407200D01*
X115988095Y-123407200D02*
X115940476Y-123359580D01*
X115940476Y-123359580D02*
X115940476Y-123026247D01*
X115940476Y-123026247D02*
X116130952Y-123026247D01*
X180742857Y-104499980D02*
X180790476Y-104547600D01*
X180790476Y-104547600D02*
X180933333Y-104595219D01*
X180933333Y-104595219D02*
X181028571Y-104595219D01*
X181028571Y-104595219D02*
X181171428Y-104547600D01*
X181171428Y-104547600D02*
X181266666Y-104452361D01*
X181266666Y-104452361D02*
X181314285Y-104357123D01*
X181314285Y-104357123D02*
X181361904Y-104166647D01*
X181361904Y-104166647D02*
X181361904Y-104023790D01*
X181361904Y-104023790D02*
X181314285Y-103833314D01*
X181314285Y-103833314D02*
X181266666Y-103738076D01*
X181266666Y-103738076D02*
X181171428Y-103642838D01*
X181171428Y-103642838D02*
X181028571Y-103595219D01*
X181028571Y-103595219D02*
X180933333Y-103595219D01*
X180933333Y-103595219D02*
X180790476Y-103642838D01*
X180790476Y-103642838D02*
X180742857Y-103690457D01*
X179790476Y-104595219D02*
X180361904Y-104595219D01*
X180076190Y-104595219D02*
X180076190Y-103595219D01*
X180076190Y-103595219D02*
X180171428Y-103738076D01*
X180171428Y-103738076D02*
X180266666Y-103833314D01*
X180266666Y-103833314D02*
X180361904Y-103880933D01*
X178885714Y-103595219D02*
X179361904Y-103595219D01*
X179361904Y-103595219D02*
X179409523Y-104071409D01*
X179409523Y-104071409D02*
X179361904Y-104023790D01*
X179361904Y-104023790D02*
X179266666Y-103976171D01*
X179266666Y-103976171D02*
X179028571Y-103976171D01*
X179028571Y-103976171D02*
X178933333Y-104023790D01*
X178933333Y-104023790D02*
X178885714Y-104071409D01*
X178885714Y-104071409D02*
X178838095Y-104166647D01*
X178838095Y-104166647D02*
X178838095Y-104404742D01*
X178838095Y-104404742D02*
X178885714Y-104499980D01*
X178885714Y-104499980D02*
X178933333Y-104547600D01*
X178933333Y-104547600D02*
X179028571Y-104595219D01*
X179028571Y-104595219D02*
X179266666Y-104595219D01*
X179266666Y-104595219D02*
X179361904Y-104547600D01*
X179361904Y-104547600D02*
X179409523Y-104499980D01*
D18*
X139708748Y-70195400D02*
X140231252Y-70195400D01*
X139708748Y-71665400D02*
X140231252Y-71665400D01*
X149071000Y-94895936D02*
X149071000Y-95350064D01*
X147601000Y-94895936D02*
X147601000Y-95350064D01*
X170852500Y-81632900D02*
X170852500Y-82420400D01*
X170458750Y-82026650D02*
X171246250Y-82026650D01*
X175045563Y-82660400D02*
X173760000Y-82660400D01*
X175045563Y-82660400D02*
X176110000Y-83724837D01*
X170354437Y-82660400D02*
X171640000Y-82660400D01*
X170354437Y-82660400D02*
X169290000Y-83724837D01*
X176110000Y-83724837D02*
X176110000Y-89480400D01*
X169290000Y-83724837D02*
X169290000Y-89480400D01*
X176110000Y-89480400D02*
X173760000Y-89480400D01*
X169290000Y-89480400D02*
X171640000Y-89480400D01*
X145450000Y-149000000D02*
G75*
G03*
X145450000Y-149000000I-950000J0D01*
G01*
X180361000Y-111256936D02*
X180361000Y-112711064D01*
X178541000Y-111256936D02*
X178541000Y-112711064D01*
X164400620Y-120902000D02*
X164681780Y-120902000D01*
X164400620Y-121922000D02*
X164681780Y-121922000D01*
X135068748Y-70165400D02*
X135591252Y-70165400D01*
X135068748Y-71635400D02*
X135591252Y-71635400D01*
X128504000Y-132496000D02*
X128504000Y-134446000D01*
X128504000Y-132496000D02*
X128504000Y-130546000D01*
X133624000Y-132496000D02*
X133624000Y-135946000D01*
X133624000Y-132496000D02*
X133624000Y-130546000D01*
X124757000Y-86452000D02*
X124757000Y-88402000D01*
X124757000Y-86452000D02*
X124757000Y-84502000D01*
X129877000Y-86452000D02*
X129877000Y-89902000D01*
X129877000Y-86452000D02*
X129877000Y-84502000D01*
X131950000Y-75500000D02*
G75*
G03*
X131950000Y-75500000I-950000J0D01*
G01*
X145428580Y-102618000D02*
X145147420Y-102618000D01*
X145428580Y-101598000D02*
X145147420Y-101598000D01*
X116962500Y-81932900D02*
X116962500Y-82720400D01*
X116568750Y-82326650D02*
X117356250Y-82326650D01*
X121155563Y-82960400D02*
X119870000Y-82960400D01*
X121155563Y-82960400D02*
X122220000Y-84024837D01*
X116464437Y-82960400D02*
X117750000Y-82960400D01*
X116464437Y-82960400D02*
X115400000Y-84024837D01*
X122220000Y-84024837D02*
X122220000Y-89780400D01*
X115400000Y-84024837D02*
X115400000Y-89780400D01*
X122220000Y-89780400D02*
X119870000Y-89780400D01*
X115400000Y-89780400D02*
X117750000Y-89780400D01*
X182692500Y-106522900D02*
X182692500Y-107310400D01*
X182298750Y-106916650D02*
X183086250Y-106916650D01*
X186885563Y-107550400D02*
X185600000Y-107550400D01*
X186885563Y-107550400D02*
X187950000Y-108614837D01*
X182194437Y-107550400D02*
X183480000Y-107550400D01*
X182194437Y-107550400D02*
X181130000Y-108614837D01*
X187950000Y-108614837D02*
X187950000Y-114370400D01*
X181130000Y-108614837D02*
X181130000Y-114370400D01*
X187950000Y-114370400D02*
X185600000Y-114370400D01*
X181130000Y-114370400D02*
X183480000Y-114370400D01*
X133180000Y-72830400D02*
X133180000Y-78840400D01*
X140000000Y-75080400D02*
X140000000Y-78840400D01*
X140000000Y-78840400D02*
X138740000Y-78840400D01*
X133180000Y-78840400D02*
X134440000Y-78840400D01*
X119892500Y-123207900D02*
X120680000Y-123207900D01*
X120286250Y-123601650D02*
X120286250Y-122814150D01*
X120920000Y-119014837D02*
X120920000Y-120300400D01*
X120920000Y-119014837D02*
X121984437Y-117950400D01*
X120920000Y-123705963D02*
X120920000Y-122420400D01*
X120920000Y-123705963D02*
X121984437Y-124770400D01*
X121984437Y-117950400D02*
X127740000Y-117950400D01*
X121984437Y-124770400D02*
X127740000Y-124770400D01*
X127740000Y-117950400D02*
X127740000Y-120300400D01*
X127740000Y-124770400D02*
X127740000Y-122420400D01*
X151630000Y-145277150D02*
X152840000Y-145277150D01*
X152840000Y-84667150D02*
X155500000Y-84667150D01*
X152840000Y-87877150D02*
X152840000Y-84667150D01*
X152840000Y-92957150D02*
X152840000Y-89397150D01*
X152840000Y-98037150D02*
X152840000Y-94477150D01*
X152840000Y-103117150D02*
X152840000Y-99557150D01*
X152840000Y-108197150D02*
X152840000Y-104637150D01*
X152840000Y-113277150D02*
X152840000Y-109717150D01*
X152840000Y-118357150D02*
X152840000Y-114797150D01*
X152840000Y-123437150D02*
X152840000Y-119877150D01*
X152840000Y-128517150D02*
X152840000Y-124957150D01*
X152840000Y-133597150D02*
X152840000Y-130037150D01*
X152840000Y-138677150D02*
X152840000Y-135117150D01*
X152840000Y-143757150D02*
X152840000Y-140197150D01*
X152840000Y-145947150D02*
X152840000Y-145277150D01*
X152840000Y-145947150D02*
X155500000Y-145947150D01*
X155500000Y-85337150D02*
X155500000Y-84667150D01*
X155500000Y-90417150D02*
X155500000Y-86857150D01*
X155500000Y-95497150D02*
X155500000Y-91937150D01*
X155500000Y-100577150D02*
X155500000Y-97017150D01*
X155500000Y-105657150D02*
X155500000Y-102097150D01*
X155500000Y-110737150D02*
X155500000Y-107177150D01*
X155500000Y-115817150D02*
X155500000Y-112257150D01*
X155500000Y-120897150D02*
X155500000Y-117337150D01*
X155500000Y-125977150D02*
X155500000Y-122417150D01*
X155500000Y-131057150D02*
X155500000Y-127497150D01*
X155500000Y-136137150D02*
X155500000Y-132577150D01*
X155500000Y-141217150D02*
X155500000Y-137657150D01*
X155500000Y-145947150D02*
X155500000Y-142737150D01*
X161950000Y-75500000D02*
G75*
G03*
X161950000Y-75500000I-950000J0D01*
G01*
X134808000Y-60000000D02*
G75*
G03*
X134808000Y-60000000I-950000J0D01*
G01*
X148950000Y-149000000D02*
G75*
G03*
X148950000Y-149000000I-950000J0D01*
G01*
X132482000Y-84419936D02*
X132482000Y-85874064D01*
X130662000Y-84419936D02*
X130662000Y-85874064D01*
X159061252Y-71305400D02*
X158538748Y-71305400D01*
X159061252Y-69835400D02*
X158538748Y-69835400D01*
X141200000Y-49100000D02*
X141200000Y-52650000D01*
X141200000Y-59350000D02*
X141200000Y-61800000D01*
X141200000Y-61800000D02*
X141600000Y-61800000D01*
X141600000Y-61800000D02*
X141600000Y-63800000D01*
X141600000Y-63800000D02*
X144600000Y-63800000D01*
X144610000Y-65700000D02*
X144610000Y-67440000D01*
X144610000Y-67440000D02*
X146350000Y-67440000D01*
X148400000Y-63800000D02*
X150000000Y-63800000D01*
X150000000Y-61800000D02*
X150400000Y-61800000D01*
X150000000Y-63800000D02*
X150000000Y-61800000D01*
X150400000Y-49100000D02*
X141200000Y-49100000D01*
X150400000Y-52650000D02*
X150400000Y-49100000D01*
X150400000Y-61800000D02*
X150400000Y-59350000D01*
X158755000Y-85460400D02*
X158755000Y-87410400D01*
X158755000Y-85460400D02*
X158755000Y-83510400D01*
X163875000Y-85460400D02*
X163875000Y-88910400D01*
X163875000Y-85460400D02*
X163875000Y-83510400D01*
X127510000Y-130415420D02*
X127510000Y-130696580D01*
X126490000Y-130415420D02*
X126490000Y-130696580D01*
X166480000Y-84768336D02*
X166480000Y-86222464D01*
X164660000Y-84768336D02*
X164660000Y-86222464D01*
X152100000Y-72290400D02*
X152100000Y-78300400D01*
X158920000Y-74540400D02*
X158920000Y-78300400D01*
X158920000Y-78300400D02*
X157660000Y-78300400D01*
X152100000Y-78300400D02*
X153360000Y-78300400D01*
X143410000Y-95350064D02*
X143410000Y-94895936D01*
X144880000Y-95350064D02*
X144880000Y-94895936D01*
X172891000Y-112684000D02*
X172891000Y-114634000D01*
X172891000Y-112684000D02*
X172891000Y-110734000D01*
X178011000Y-112684000D02*
X178011000Y-116134000D01*
X178011000Y-112684000D02*
X178011000Y-110734000D01*
X133479000Y-117855420D02*
X133479000Y-118136580D01*
X132459000Y-117855420D02*
X132459000Y-118136580D01*
X154441252Y-71315400D02*
X153918748Y-71315400D01*
X154441252Y-69845400D02*
X153918748Y-69845400D01*
X124000000Y-82669820D02*
X124000000Y-82950980D01*
X122980000Y-82669820D02*
X122980000Y-82950980D01*
X136390000Y-145277150D02*
X137600000Y-145277150D01*
X137600000Y-84667150D02*
X140260000Y-84667150D01*
X137600000Y-87877150D02*
X137600000Y-84667150D01*
X137600000Y-92957150D02*
X137600000Y-89397150D01*
X137600000Y-98037150D02*
X137600000Y-94477150D01*
X137600000Y-103117150D02*
X137600000Y-99557150D01*
X137600000Y-108197150D02*
X137600000Y-104637150D01*
X137600000Y-113277150D02*
X137600000Y-109717150D01*
X137600000Y-118357150D02*
X137600000Y-114797150D01*
X137600000Y-123437150D02*
X137600000Y-119877150D01*
X137600000Y-128517150D02*
X137600000Y-124957150D01*
X137600000Y-133597150D02*
X137600000Y-130037150D01*
X137600000Y-138677150D02*
X137600000Y-135117150D01*
X137600000Y-143757150D02*
X137600000Y-140197150D01*
X137600000Y-145947150D02*
X137600000Y-145277150D01*
X137600000Y-145947150D02*
X140260000Y-145947150D01*
X140260000Y-85337150D02*
X140260000Y-84667150D01*
X140260000Y-90417150D02*
X140260000Y-86857150D01*
X140260000Y-95497150D02*
X140260000Y-91937150D01*
X140260000Y-100577150D02*
X140260000Y-97017150D01*
X140260000Y-105657150D02*
X140260000Y-102097150D01*
X140260000Y-110737150D02*
X140260000Y-107177150D01*
X140260000Y-115817150D02*
X140260000Y-112257150D01*
X140260000Y-120897150D02*
X140260000Y-117337150D01*
X140260000Y-125977150D02*
X140260000Y-122417150D01*
X140260000Y-131057150D02*
X140260000Y-127497150D01*
X140260000Y-136137150D02*
X140260000Y-132577150D01*
X140260000Y-141217150D02*
X140260000Y-137657150D01*
X140260000Y-145947150D02*
X140260000Y-142737150D01*
X131857064Y-126410400D02*
X130402936Y-126410400D01*
X131857064Y-124590400D02*
X130402936Y-124590400D01*
X168620000Y-84084820D02*
X168620000Y-84365980D01*
X167600000Y-84084820D02*
X167600000Y-84365980D01*
X180660000Y-106529820D02*
X180660000Y-106810980D01*
X179640000Y-106529820D02*
X179640000Y-106810980D01*
%LPC*%
D19*
D20*
X139020000Y-70930400D03*
X140920000Y-70930400D03*
D21*
X148336000Y-94210500D03*
X148336000Y-96035500D03*
D22*
X172700000Y-83370400D03*
X172700000Y-88770400D03*
D23*
X144500000Y-149000000D03*
D24*
X129077025Y-140852859D03*
D25*
X179451000Y-110434000D03*
X179451000Y-113534000D03*
D26*
X163766200Y-121412000D03*
X165316200Y-121412000D03*
D24*
X126250000Y-99250000D03*
D20*
X134380000Y-70900400D03*
X136280000Y-70900400D03*
D27*
X132969000Y-134971000D03*
X131699000Y-134971000D03*
X130429000Y-134971000D03*
X129159000Y-134971000D03*
X129159000Y-130021000D03*
X130429000Y-130021000D03*
X131699000Y-130021000D03*
X132969000Y-130021000D03*
D28*
X131064000Y-132496000D03*
D27*
X129222000Y-88927000D03*
X127952000Y-88927000D03*
X126682000Y-88927000D03*
X125412000Y-88927000D03*
X125412000Y-83977000D03*
X126682000Y-83977000D03*
X127952000Y-83977000D03*
X129222000Y-83977000D03*
D28*
X127317000Y-86452000D03*
D24*
X100750000Y-99250000D03*
D23*
X131000000Y-75500000D03*
D29*
X146063000Y-102108000D03*
X144513000Y-102108000D03*
D24*
X118000000Y-71000000D03*
D22*
X118810000Y-83670400D03*
X118810000Y-89070400D03*
X184540000Y-108260400D03*
X184540000Y-113660400D03*
D24*
X146208951Y-79245847D03*
D30*
X134290000Y-73780400D03*
X136590000Y-73780400D03*
D31*
X136590000Y-80080400D03*
D30*
X138890000Y-73780400D03*
D24*
X191250000Y-99250000D03*
D32*
X121630000Y-121360400D03*
X127030000Y-121360400D03*
D33*
X152520000Y-144517150D03*
X155820000Y-141977150D03*
X152520000Y-139437150D03*
X155820000Y-136897150D03*
X152520000Y-134357150D03*
X155820000Y-131817150D03*
X152520000Y-129277150D03*
X155820000Y-126737150D03*
X152520000Y-124197150D03*
X155820000Y-121657150D03*
X152520000Y-119117150D03*
X155820000Y-116577150D03*
X152520000Y-114037150D03*
X155820000Y-111497150D03*
X152520000Y-108957150D03*
X155820000Y-106417150D03*
X152520000Y-103877150D03*
X155820000Y-101337150D03*
X152520000Y-98797150D03*
X155820000Y-96257150D03*
X152520000Y-93717150D03*
X155820000Y-91177150D03*
X152520000Y-88637150D03*
X155820000Y-86097150D03*
D23*
X161000000Y-75500000D03*
X133858000Y-60000000D03*
D24*
X174500000Y-127500000D03*
D23*
X148000000Y-149000000D03*
D25*
X131572000Y-83597000D03*
X131572000Y-86697000D03*
D34*
X159750000Y-70570400D03*
X157850000Y-70570400D03*
D24*
X166250000Y-99250000D03*
D35*
X145800000Y-52200000D03*
D36*
X146500000Y-65000000D03*
D37*
X139350000Y-56000000D03*
X152250000Y-56000000D03*
D27*
X163220000Y-87935400D03*
X161950000Y-87935400D03*
X160680000Y-87935400D03*
X159410000Y-87935400D03*
X159410000Y-82985400D03*
X160680000Y-82985400D03*
X161950000Y-82985400D03*
X163220000Y-82985400D03*
D28*
X161315000Y-85460400D03*
D24*
X129000000Y-57500000D03*
D38*
X127000000Y-129781000D03*
X127000000Y-131331000D03*
D24*
X163412036Y-140678157D03*
X146198475Y-119261890D03*
D25*
X165570000Y-83945400D03*
X165570000Y-87045400D03*
D30*
X153210000Y-73240400D03*
X155510000Y-73240400D03*
D31*
X155510000Y-79540400D03*
D30*
X157810000Y-73240400D03*
D39*
X144145000Y-96035500D03*
X144145000Y-94210500D03*
D27*
X177356000Y-115159000D03*
X176086000Y-115159000D03*
X174816000Y-115159000D03*
X173546000Y-115159000D03*
X173546000Y-110209000D03*
X174816000Y-110209000D03*
X176086000Y-110209000D03*
X177356000Y-110209000D03*
D28*
X175451000Y-112684000D03*
D38*
X132969000Y-117221000D03*
X132969000Y-118771000D03*
D24*
X174500000Y-71000000D03*
D34*
X155130000Y-70580400D03*
X153230000Y-70580400D03*
D24*
X163500000Y-57500000D03*
D38*
X123490000Y-82035400D03*
X123490000Y-83585400D03*
D33*
X137280000Y-144517150D03*
X140580000Y-141977150D03*
X137280000Y-139437150D03*
X140580000Y-136897150D03*
X137280000Y-134357150D03*
X140580000Y-131817150D03*
X137280000Y-129277150D03*
X140580000Y-126737150D03*
X137280000Y-124197150D03*
X140580000Y-121657150D03*
X137280000Y-119117150D03*
X140580000Y-116577150D03*
X137280000Y-114037150D03*
X140580000Y-111497150D03*
X137280000Y-108957150D03*
X140580000Y-106417150D03*
X137280000Y-103877150D03*
X140580000Y-101337150D03*
X137280000Y-98797150D03*
X140580000Y-96257150D03*
X137280000Y-93717150D03*
X140580000Y-91177150D03*
X137280000Y-88637150D03*
X140580000Y-86097150D03*
D40*
X132680000Y-125500400D03*
X129580000Y-125500400D03*
D38*
X168110000Y-83450400D03*
X168110000Y-85000400D03*
D24*
X118000000Y-127500000D03*
D38*
X180150000Y-105895400D03*
X180150000Y-107445400D03*
%LPD*%
M02*
