%TF.GenerationSoftware,KiCad,Pcbnew,7.0.9*%
%TF.CreationDate,2024-01-26T12:36:04+01:00*%
%TF.ProjectId,maglev26,6d61676c-6576-4323-962e-6b696361645f,1.0*%
%TF.SameCoordinates,Original*%
%TF.FileFunction,Drillmap*%
%TF.FilePolarity,Positive*%
%FSLAX45Y45*%
G04 Gerber Fmt 4.5, Leading zero omitted, Abs format (unit mm)*
G04 Created by KiCad (PCBNEW 7.0.9) date 2024-01-26 12:36:04*
%MOMM*%
%LPD*%
G01*
G04 APERTURE LIST*
%ADD10C,0.100000*%
%ADD11C,0.200000*%
%ADD12C,0.320000*%
G04 APERTURE END LIST*
D10*
X19818250Y-9925000D02*
G75*
G03*
X19818250Y-9925000I-5200000J0D01*
G01*
D11*
X14480000Y-5120000D02*
X14680000Y-5320000D01*
X14680000Y-5120000D02*
X14480000Y-5320000D01*
D12*
X10235000Y-9925000D02*
G75*
G03*
X10235000Y-9925000I-160000J0D01*
G01*
X11960000Y-7100000D02*
G75*
G03*
X11960000Y-7100000I-160000J0D01*
G01*
X11960000Y-12750000D02*
G75*
G03*
X11960000Y-12750000I-160000J0D01*
G01*
X12785000Y-9925000D02*
G75*
G03*
X12785000Y-9925000I-160000J0D01*
G01*
X13060000Y-5750000D02*
G75*
G03*
X13060000Y-5750000I-160000J0D01*
G01*
X13067702Y-14085286D02*
G75*
G03*
X13067702Y-14085286I-160000J0D01*
G01*
X14779847Y-11926189D02*
G75*
G03*
X14779847Y-11926189I-160000J0D01*
G01*
X14780895Y-7924585D02*
G75*
G03*
X14780895Y-7924585I-160000J0D01*
G01*
X16501204Y-14067816D02*
G75*
G03*
X16501204Y-14067816I-160000J0D01*
G01*
X16510000Y-5750000D02*
G75*
G03*
X16510000Y-5750000I-160000J0D01*
G01*
X16785000Y-9925000D02*
G75*
G03*
X16785000Y-9925000I-160000J0D01*
G01*
X17610000Y-7100000D02*
G75*
G03*
X17610000Y-7100000I-160000J0D01*
G01*
X17610000Y-12750000D02*
G75*
G03*
X17610000Y-12750000I-160000J0D01*
G01*
X19285000Y-9925000D02*
G75*
G03*
X19285000Y-9925000I-160000J0D01*
G01*
D11*
X9674027Y-15441484D02*
X9674027Y-15241484D01*
X9674027Y-15241484D02*
X9721646Y-15241484D01*
X9721646Y-15241484D02*
X9750217Y-15251008D01*
X9750217Y-15251008D02*
X9769265Y-15270055D01*
X9769265Y-15270055D02*
X9778789Y-15289103D01*
X9778789Y-15289103D02*
X9788313Y-15327198D01*
X9788313Y-15327198D02*
X9788313Y-15355769D01*
X9788313Y-15355769D02*
X9778789Y-15393865D01*
X9778789Y-15393865D02*
X9769265Y-15412912D01*
X9769265Y-15412912D02*
X9750217Y-15431960D01*
X9750217Y-15431960D02*
X9721646Y-15441484D01*
X9721646Y-15441484D02*
X9674027Y-15441484D01*
X9874027Y-15441484D02*
X9874027Y-15308150D01*
X9874027Y-15346246D02*
X9883551Y-15327198D01*
X9883551Y-15327198D02*
X9893074Y-15317674D01*
X9893074Y-15317674D02*
X9912122Y-15308150D01*
X9912122Y-15308150D02*
X9931170Y-15308150D01*
X9997836Y-15441484D02*
X9997836Y-15308150D01*
X9997836Y-15241484D02*
X9988313Y-15251008D01*
X9988313Y-15251008D02*
X9997836Y-15260531D01*
X9997836Y-15260531D02*
X10007360Y-15251008D01*
X10007360Y-15251008D02*
X9997836Y-15241484D01*
X9997836Y-15241484D02*
X9997836Y-15260531D01*
X10121646Y-15441484D02*
X10102598Y-15431960D01*
X10102598Y-15431960D02*
X10093074Y-15412912D01*
X10093074Y-15412912D02*
X10093074Y-15241484D01*
X10226408Y-15441484D02*
X10207360Y-15431960D01*
X10207360Y-15431960D02*
X10197836Y-15412912D01*
X10197836Y-15412912D02*
X10197836Y-15241484D01*
X10454979Y-15441484D02*
X10454979Y-15241484D01*
X10454979Y-15241484D02*
X10521646Y-15384341D01*
X10521646Y-15384341D02*
X10588313Y-15241484D01*
X10588313Y-15241484D02*
X10588313Y-15441484D01*
X10769265Y-15441484D02*
X10769265Y-15336722D01*
X10769265Y-15336722D02*
X10759741Y-15317674D01*
X10759741Y-15317674D02*
X10740694Y-15308150D01*
X10740694Y-15308150D02*
X10702598Y-15308150D01*
X10702598Y-15308150D02*
X10683551Y-15317674D01*
X10769265Y-15431960D02*
X10750217Y-15441484D01*
X10750217Y-15441484D02*
X10702598Y-15441484D01*
X10702598Y-15441484D02*
X10683551Y-15431960D01*
X10683551Y-15431960D02*
X10674027Y-15412912D01*
X10674027Y-15412912D02*
X10674027Y-15393865D01*
X10674027Y-15393865D02*
X10683551Y-15374817D01*
X10683551Y-15374817D02*
X10702598Y-15365293D01*
X10702598Y-15365293D02*
X10750217Y-15365293D01*
X10750217Y-15365293D02*
X10769265Y-15355769D01*
X10864503Y-15308150D02*
X10864503Y-15508150D01*
X10864503Y-15317674D02*
X10883551Y-15308150D01*
X10883551Y-15308150D02*
X10921646Y-15308150D01*
X10921646Y-15308150D02*
X10940694Y-15317674D01*
X10940694Y-15317674D02*
X10950217Y-15327198D01*
X10950217Y-15327198D02*
X10959741Y-15346246D01*
X10959741Y-15346246D02*
X10959741Y-15403388D01*
X10959741Y-15403388D02*
X10950217Y-15422436D01*
X10950217Y-15422436D02*
X10940694Y-15431960D01*
X10940694Y-15431960D02*
X10921646Y-15441484D01*
X10921646Y-15441484D02*
X10883551Y-15441484D01*
X10883551Y-15441484D02*
X10864503Y-15431960D01*
X11045455Y-15422436D02*
X11054979Y-15431960D01*
X11054979Y-15431960D02*
X11045455Y-15441484D01*
X11045455Y-15441484D02*
X11035932Y-15431960D01*
X11035932Y-15431960D02*
X11045455Y-15422436D01*
X11045455Y-15422436D02*
X11045455Y-15441484D01*
X11045455Y-15317674D02*
X11054979Y-15327198D01*
X11054979Y-15327198D02*
X11045455Y-15336722D01*
X11045455Y-15336722D02*
X11035932Y-15327198D01*
X11035932Y-15327198D02*
X11045455Y-15317674D01*
X11045455Y-15317674D02*
X11045455Y-15336722D01*
X9213250Y-15670000D02*
X9413250Y-15870000D01*
X9413250Y-15670000D02*
X9213250Y-15870000D01*
X9664503Y-15680531D02*
X9674027Y-15671008D01*
X9674027Y-15671008D02*
X9693074Y-15661484D01*
X9693074Y-15661484D02*
X9740694Y-15661484D01*
X9740694Y-15661484D02*
X9759741Y-15671008D01*
X9759741Y-15671008D02*
X9769265Y-15680531D01*
X9769265Y-15680531D02*
X9778789Y-15699579D01*
X9778789Y-15699579D02*
X9778789Y-15718627D01*
X9778789Y-15718627D02*
X9769265Y-15747198D01*
X9769265Y-15747198D02*
X9654979Y-15861484D01*
X9654979Y-15861484D02*
X9778789Y-15861484D01*
X9864503Y-15842436D02*
X9874027Y-15851960D01*
X9874027Y-15851960D02*
X9864503Y-15861484D01*
X9864503Y-15861484D02*
X9854979Y-15851960D01*
X9854979Y-15851960D02*
X9864503Y-15842436D01*
X9864503Y-15842436D02*
X9864503Y-15861484D01*
X9997836Y-15661484D02*
X10016884Y-15661484D01*
X10016884Y-15661484D02*
X10035932Y-15671008D01*
X10035932Y-15671008D02*
X10045455Y-15680531D01*
X10045455Y-15680531D02*
X10054979Y-15699579D01*
X10054979Y-15699579D02*
X10064503Y-15737674D01*
X10064503Y-15737674D02*
X10064503Y-15785293D01*
X10064503Y-15785293D02*
X10054979Y-15823388D01*
X10054979Y-15823388D02*
X10045455Y-15842436D01*
X10045455Y-15842436D02*
X10035932Y-15851960D01*
X10035932Y-15851960D02*
X10016884Y-15861484D01*
X10016884Y-15861484D02*
X9997836Y-15861484D01*
X9997836Y-15861484D02*
X9978789Y-15851960D01*
X9978789Y-15851960D02*
X9969265Y-15842436D01*
X9969265Y-15842436D02*
X9959741Y-15823388D01*
X9959741Y-15823388D02*
X9950217Y-15785293D01*
X9950217Y-15785293D02*
X9950217Y-15737674D01*
X9950217Y-15737674D02*
X9959741Y-15699579D01*
X9959741Y-15699579D02*
X9969265Y-15680531D01*
X9969265Y-15680531D02*
X9978789Y-15671008D01*
X9978789Y-15671008D02*
X9997836Y-15661484D01*
X10188313Y-15661484D02*
X10207360Y-15661484D01*
X10207360Y-15661484D02*
X10226408Y-15671008D01*
X10226408Y-15671008D02*
X10235932Y-15680531D01*
X10235932Y-15680531D02*
X10245455Y-15699579D01*
X10245455Y-15699579D02*
X10254979Y-15737674D01*
X10254979Y-15737674D02*
X10254979Y-15785293D01*
X10254979Y-15785293D02*
X10245455Y-15823388D01*
X10245455Y-15823388D02*
X10235932Y-15842436D01*
X10235932Y-15842436D02*
X10226408Y-15851960D01*
X10226408Y-15851960D02*
X10207360Y-15861484D01*
X10207360Y-15861484D02*
X10188313Y-15861484D01*
X10188313Y-15861484D02*
X10169265Y-15851960D01*
X10169265Y-15851960D02*
X10159741Y-15842436D01*
X10159741Y-15842436D02*
X10150217Y-15823388D01*
X10150217Y-15823388D02*
X10140694Y-15785293D01*
X10140694Y-15785293D02*
X10140694Y-15737674D01*
X10140694Y-15737674D02*
X10150217Y-15699579D01*
X10150217Y-15699579D02*
X10159741Y-15680531D01*
X10159741Y-15680531D02*
X10169265Y-15671008D01*
X10169265Y-15671008D02*
X10188313Y-15661484D01*
X10378789Y-15661484D02*
X10397836Y-15661484D01*
X10397836Y-15661484D02*
X10416884Y-15671008D01*
X10416884Y-15671008D02*
X10426408Y-15680531D01*
X10426408Y-15680531D02*
X10435932Y-15699579D01*
X10435932Y-15699579D02*
X10445455Y-15737674D01*
X10445455Y-15737674D02*
X10445455Y-15785293D01*
X10445455Y-15785293D02*
X10435932Y-15823388D01*
X10435932Y-15823388D02*
X10426408Y-15842436D01*
X10426408Y-15842436D02*
X10416884Y-15851960D01*
X10416884Y-15851960D02*
X10397836Y-15861484D01*
X10397836Y-15861484D02*
X10378789Y-15861484D01*
X10378789Y-15861484D02*
X10359741Y-15851960D01*
X10359741Y-15851960D02*
X10350217Y-15842436D01*
X10350217Y-15842436D02*
X10340694Y-15823388D01*
X10340694Y-15823388D02*
X10331170Y-15785293D01*
X10331170Y-15785293D02*
X10331170Y-15737674D01*
X10331170Y-15737674D02*
X10340694Y-15699579D01*
X10340694Y-15699579D02*
X10350217Y-15680531D01*
X10350217Y-15680531D02*
X10359741Y-15671008D01*
X10359741Y-15671008D02*
X10378789Y-15661484D01*
X10531170Y-15861484D02*
X10531170Y-15728150D01*
X10531170Y-15747198D02*
X10540694Y-15737674D01*
X10540694Y-15737674D02*
X10559741Y-15728150D01*
X10559741Y-15728150D02*
X10588313Y-15728150D01*
X10588313Y-15728150D02*
X10607360Y-15737674D01*
X10607360Y-15737674D02*
X10616884Y-15756722D01*
X10616884Y-15756722D02*
X10616884Y-15861484D01*
X10616884Y-15756722D02*
X10626408Y-15737674D01*
X10626408Y-15737674D02*
X10645455Y-15728150D01*
X10645455Y-15728150D02*
X10674027Y-15728150D01*
X10674027Y-15728150D02*
X10693075Y-15737674D01*
X10693075Y-15737674D02*
X10702598Y-15756722D01*
X10702598Y-15756722D02*
X10702598Y-15861484D01*
X10797836Y-15861484D02*
X10797836Y-15728150D01*
X10797836Y-15747198D02*
X10807360Y-15737674D01*
X10807360Y-15737674D02*
X10826408Y-15728150D01*
X10826408Y-15728150D02*
X10854979Y-15728150D01*
X10854979Y-15728150D02*
X10874027Y-15737674D01*
X10874027Y-15737674D02*
X10883551Y-15756722D01*
X10883551Y-15756722D02*
X10883551Y-15861484D01*
X10883551Y-15756722D02*
X10893075Y-15737674D01*
X10893075Y-15737674D02*
X10912122Y-15728150D01*
X10912122Y-15728150D02*
X10940694Y-15728150D01*
X10940694Y-15728150D02*
X10959741Y-15737674D01*
X10959741Y-15737674D02*
X10969265Y-15756722D01*
X10969265Y-15756722D02*
X10969265Y-15861484D01*
X11359741Y-15651960D02*
X11188313Y-15909103D01*
X11616884Y-15661484D02*
X11635932Y-15661484D01*
X11635932Y-15661484D02*
X11654979Y-15671008D01*
X11654979Y-15671008D02*
X11664503Y-15680531D01*
X11664503Y-15680531D02*
X11674027Y-15699579D01*
X11674027Y-15699579D02*
X11683551Y-15737674D01*
X11683551Y-15737674D02*
X11683551Y-15785293D01*
X11683551Y-15785293D02*
X11674027Y-15823388D01*
X11674027Y-15823388D02*
X11664503Y-15842436D01*
X11664503Y-15842436D02*
X11654979Y-15851960D01*
X11654979Y-15851960D02*
X11635932Y-15861484D01*
X11635932Y-15861484D02*
X11616884Y-15861484D01*
X11616884Y-15861484D02*
X11597836Y-15851960D01*
X11597836Y-15851960D02*
X11588313Y-15842436D01*
X11588313Y-15842436D02*
X11578789Y-15823388D01*
X11578789Y-15823388D02*
X11569265Y-15785293D01*
X11569265Y-15785293D02*
X11569265Y-15737674D01*
X11569265Y-15737674D02*
X11578789Y-15699579D01*
X11578789Y-15699579D02*
X11588313Y-15680531D01*
X11588313Y-15680531D02*
X11597836Y-15671008D01*
X11597836Y-15671008D02*
X11616884Y-15661484D01*
X11769265Y-15842436D02*
X11778789Y-15851960D01*
X11778789Y-15851960D02*
X11769265Y-15861484D01*
X11769265Y-15861484D02*
X11759741Y-15851960D01*
X11759741Y-15851960D02*
X11769265Y-15842436D01*
X11769265Y-15842436D02*
X11769265Y-15861484D01*
X11902598Y-15661484D02*
X11921646Y-15661484D01*
X11921646Y-15661484D02*
X11940694Y-15671008D01*
X11940694Y-15671008D02*
X11950217Y-15680531D01*
X11950217Y-15680531D02*
X11959741Y-15699579D01*
X11959741Y-15699579D02*
X11969265Y-15737674D01*
X11969265Y-15737674D02*
X11969265Y-15785293D01*
X11969265Y-15785293D02*
X11959741Y-15823388D01*
X11959741Y-15823388D02*
X11950217Y-15842436D01*
X11950217Y-15842436D02*
X11940694Y-15851960D01*
X11940694Y-15851960D02*
X11921646Y-15861484D01*
X11921646Y-15861484D02*
X11902598Y-15861484D01*
X11902598Y-15861484D02*
X11883551Y-15851960D01*
X11883551Y-15851960D02*
X11874027Y-15842436D01*
X11874027Y-15842436D02*
X11864503Y-15823388D01*
X11864503Y-15823388D02*
X11854979Y-15785293D01*
X11854979Y-15785293D02*
X11854979Y-15737674D01*
X11854979Y-15737674D02*
X11864503Y-15699579D01*
X11864503Y-15699579D02*
X11874027Y-15680531D01*
X11874027Y-15680531D02*
X11883551Y-15671008D01*
X11883551Y-15671008D02*
X11902598Y-15661484D01*
X12035932Y-15661484D02*
X12169265Y-15661484D01*
X12169265Y-15661484D02*
X12083551Y-15861484D01*
X12274027Y-15747198D02*
X12254979Y-15737674D01*
X12254979Y-15737674D02*
X12245456Y-15728150D01*
X12245456Y-15728150D02*
X12235932Y-15709103D01*
X12235932Y-15709103D02*
X12235932Y-15699579D01*
X12235932Y-15699579D02*
X12245456Y-15680531D01*
X12245456Y-15680531D02*
X12254979Y-15671008D01*
X12254979Y-15671008D02*
X12274027Y-15661484D01*
X12274027Y-15661484D02*
X12312122Y-15661484D01*
X12312122Y-15661484D02*
X12331170Y-15671008D01*
X12331170Y-15671008D02*
X12340694Y-15680531D01*
X12340694Y-15680531D02*
X12350217Y-15699579D01*
X12350217Y-15699579D02*
X12350217Y-15709103D01*
X12350217Y-15709103D02*
X12340694Y-15728150D01*
X12340694Y-15728150D02*
X12331170Y-15737674D01*
X12331170Y-15737674D02*
X12312122Y-15747198D01*
X12312122Y-15747198D02*
X12274027Y-15747198D01*
X12274027Y-15747198D02*
X12254979Y-15756722D01*
X12254979Y-15756722D02*
X12245456Y-15766246D01*
X12245456Y-15766246D02*
X12235932Y-15785293D01*
X12235932Y-15785293D02*
X12235932Y-15823388D01*
X12235932Y-15823388D02*
X12245456Y-15842436D01*
X12245456Y-15842436D02*
X12254979Y-15851960D01*
X12254979Y-15851960D02*
X12274027Y-15861484D01*
X12274027Y-15861484D02*
X12312122Y-15861484D01*
X12312122Y-15861484D02*
X12331170Y-15851960D01*
X12331170Y-15851960D02*
X12340694Y-15842436D01*
X12340694Y-15842436D02*
X12350217Y-15823388D01*
X12350217Y-15823388D02*
X12350217Y-15785293D01*
X12350217Y-15785293D02*
X12340694Y-15766246D01*
X12340694Y-15766246D02*
X12331170Y-15756722D01*
X12331170Y-15756722D02*
X12312122Y-15747198D01*
X12416884Y-15661484D02*
X12550217Y-15661484D01*
X12550217Y-15661484D02*
X12464503Y-15861484D01*
X12616884Y-15661484D02*
X12616884Y-15699579D01*
X12693075Y-15661484D02*
X12693075Y-15699579D01*
X12988313Y-15937674D02*
X12978789Y-15928150D01*
X12978789Y-15928150D02*
X12959741Y-15899579D01*
X12959741Y-15899579D02*
X12950218Y-15880531D01*
X12950218Y-15880531D02*
X12940694Y-15851960D01*
X12940694Y-15851960D02*
X12931170Y-15804341D01*
X12931170Y-15804341D02*
X12931170Y-15766246D01*
X12931170Y-15766246D02*
X12940694Y-15718627D01*
X12940694Y-15718627D02*
X12950218Y-15690055D01*
X12950218Y-15690055D02*
X12959741Y-15671008D01*
X12959741Y-15671008D02*
X12978789Y-15642436D01*
X12978789Y-15642436D02*
X12988313Y-15632912D01*
X13169265Y-15861484D02*
X13054979Y-15861484D01*
X13112122Y-15861484D02*
X13112122Y-15661484D01*
X13112122Y-15661484D02*
X13093075Y-15690055D01*
X13093075Y-15690055D02*
X13074027Y-15709103D01*
X13074027Y-15709103D02*
X13054979Y-15718627D01*
X13407360Y-15861484D02*
X13407360Y-15661484D01*
X13493075Y-15861484D02*
X13493075Y-15756722D01*
X13493075Y-15756722D02*
X13483551Y-15737674D01*
X13483551Y-15737674D02*
X13464503Y-15728150D01*
X13464503Y-15728150D02*
X13435932Y-15728150D01*
X13435932Y-15728150D02*
X13416884Y-15737674D01*
X13416884Y-15737674D02*
X13407360Y-15747198D01*
X13616884Y-15861484D02*
X13597837Y-15851960D01*
X13597837Y-15851960D02*
X13588313Y-15842436D01*
X13588313Y-15842436D02*
X13578789Y-15823388D01*
X13578789Y-15823388D02*
X13578789Y-15766246D01*
X13578789Y-15766246D02*
X13588313Y-15747198D01*
X13588313Y-15747198D02*
X13597837Y-15737674D01*
X13597837Y-15737674D02*
X13616884Y-15728150D01*
X13616884Y-15728150D02*
X13645456Y-15728150D01*
X13645456Y-15728150D02*
X13664503Y-15737674D01*
X13664503Y-15737674D02*
X13674027Y-15747198D01*
X13674027Y-15747198D02*
X13683551Y-15766246D01*
X13683551Y-15766246D02*
X13683551Y-15823388D01*
X13683551Y-15823388D02*
X13674027Y-15842436D01*
X13674027Y-15842436D02*
X13664503Y-15851960D01*
X13664503Y-15851960D02*
X13645456Y-15861484D01*
X13645456Y-15861484D02*
X13616884Y-15861484D01*
X13797837Y-15861484D02*
X13778789Y-15851960D01*
X13778789Y-15851960D02*
X13769265Y-15832912D01*
X13769265Y-15832912D02*
X13769265Y-15661484D01*
X13950218Y-15851960D02*
X13931170Y-15861484D01*
X13931170Y-15861484D02*
X13893075Y-15861484D01*
X13893075Y-15861484D02*
X13874027Y-15851960D01*
X13874027Y-15851960D02*
X13864503Y-15832912D01*
X13864503Y-15832912D02*
X13864503Y-15756722D01*
X13864503Y-15756722D02*
X13874027Y-15737674D01*
X13874027Y-15737674D02*
X13893075Y-15728150D01*
X13893075Y-15728150D02*
X13931170Y-15728150D01*
X13931170Y-15728150D02*
X13950218Y-15737674D01*
X13950218Y-15737674D02*
X13959741Y-15756722D01*
X13959741Y-15756722D02*
X13959741Y-15775769D01*
X13959741Y-15775769D02*
X13864503Y-15794817D01*
X14026408Y-15937674D02*
X14035932Y-15928150D01*
X14035932Y-15928150D02*
X14054980Y-15899579D01*
X14054980Y-15899579D02*
X14064503Y-15880531D01*
X14064503Y-15880531D02*
X14074027Y-15851960D01*
X14074027Y-15851960D02*
X14083551Y-15804341D01*
X14083551Y-15804341D02*
X14083551Y-15766246D01*
X14083551Y-15766246D02*
X14074027Y-15718627D01*
X14074027Y-15718627D02*
X14064503Y-15690055D01*
X14064503Y-15690055D02*
X14054980Y-15671008D01*
X14054980Y-15671008D02*
X14035932Y-15642436D01*
X14035932Y-15642436D02*
X14026408Y-15632912D01*
X14388313Y-15937674D02*
X14378789Y-15928150D01*
X14378789Y-15928150D02*
X14359741Y-15899579D01*
X14359741Y-15899579D02*
X14350218Y-15880531D01*
X14350218Y-15880531D02*
X14340694Y-15851960D01*
X14340694Y-15851960D02*
X14331170Y-15804341D01*
X14331170Y-15804341D02*
X14331170Y-15766246D01*
X14331170Y-15766246D02*
X14340694Y-15718627D01*
X14340694Y-15718627D02*
X14350218Y-15690055D01*
X14350218Y-15690055D02*
X14359741Y-15671008D01*
X14359741Y-15671008D02*
X14378789Y-15642436D01*
X14378789Y-15642436D02*
X14388313Y-15632912D01*
X14464503Y-15728150D02*
X14464503Y-15861484D01*
X14464503Y-15747198D02*
X14474027Y-15737674D01*
X14474027Y-15737674D02*
X14493075Y-15728150D01*
X14493075Y-15728150D02*
X14521646Y-15728150D01*
X14521646Y-15728150D02*
X14540694Y-15737674D01*
X14540694Y-15737674D02*
X14550218Y-15756722D01*
X14550218Y-15756722D02*
X14550218Y-15861484D01*
X14674027Y-15861484D02*
X14654980Y-15851960D01*
X14654980Y-15851960D02*
X14645456Y-15842436D01*
X14645456Y-15842436D02*
X14635932Y-15823388D01*
X14635932Y-15823388D02*
X14635932Y-15766246D01*
X14635932Y-15766246D02*
X14645456Y-15747198D01*
X14645456Y-15747198D02*
X14654980Y-15737674D01*
X14654980Y-15737674D02*
X14674027Y-15728150D01*
X14674027Y-15728150D02*
X14702599Y-15728150D01*
X14702599Y-15728150D02*
X14721646Y-15737674D01*
X14721646Y-15737674D02*
X14731170Y-15747198D01*
X14731170Y-15747198D02*
X14740694Y-15766246D01*
X14740694Y-15766246D02*
X14740694Y-15823388D01*
X14740694Y-15823388D02*
X14731170Y-15842436D01*
X14731170Y-15842436D02*
X14721646Y-15851960D01*
X14721646Y-15851960D02*
X14702599Y-15861484D01*
X14702599Y-15861484D02*
X14674027Y-15861484D01*
X14797837Y-15728150D02*
X14874027Y-15728150D01*
X14826408Y-15661484D02*
X14826408Y-15832912D01*
X14826408Y-15832912D02*
X14835932Y-15851960D01*
X14835932Y-15851960D02*
X14854980Y-15861484D01*
X14854980Y-15861484D02*
X14874027Y-15861484D01*
X15093075Y-15728150D02*
X15093075Y-15928150D01*
X15093075Y-15737674D02*
X15112122Y-15728150D01*
X15112122Y-15728150D02*
X15150218Y-15728150D01*
X15150218Y-15728150D02*
X15169265Y-15737674D01*
X15169265Y-15737674D02*
X15178789Y-15747198D01*
X15178789Y-15747198D02*
X15188313Y-15766246D01*
X15188313Y-15766246D02*
X15188313Y-15823388D01*
X15188313Y-15823388D02*
X15178789Y-15842436D01*
X15178789Y-15842436D02*
X15169265Y-15851960D01*
X15169265Y-15851960D02*
X15150218Y-15861484D01*
X15150218Y-15861484D02*
X15112122Y-15861484D01*
X15112122Y-15861484D02*
X15093075Y-15851960D01*
X15302599Y-15861484D02*
X15283551Y-15851960D01*
X15283551Y-15851960D02*
X15274027Y-15832912D01*
X15274027Y-15832912D02*
X15274027Y-15661484D01*
X15464503Y-15861484D02*
X15464503Y-15756722D01*
X15464503Y-15756722D02*
X15454980Y-15737674D01*
X15454980Y-15737674D02*
X15435932Y-15728150D01*
X15435932Y-15728150D02*
X15397837Y-15728150D01*
X15397837Y-15728150D02*
X15378789Y-15737674D01*
X15464503Y-15851960D02*
X15445456Y-15861484D01*
X15445456Y-15861484D02*
X15397837Y-15861484D01*
X15397837Y-15861484D02*
X15378789Y-15851960D01*
X15378789Y-15851960D02*
X15369265Y-15832912D01*
X15369265Y-15832912D02*
X15369265Y-15813865D01*
X15369265Y-15813865D02*
X15378789Y-15794817D01*
X15378789Y-15794817D02*
X15397837Y-15785293D01*
X15397837Y-15785293D02*
X15445456Y-15785293D01*
X15445456Y-15785293D02*
X15464503Y-15775769D01*
X15531170Y-15728150D02*
X15607361Y-15728150D01*
X15559742Y-15661484D02*
X15559742Y-15832912D01*
X15559742Y-15832912D02*
X15569265Y-15851960D01*
X15569265Y-15851960D02*
X15588313Y-15861484D01*
X15588313Y-15861484D02*
X15607361Y-15861484D01*
X15750218Y-15851960D02*
X15731170Y-15861484D01*
X15731170Y-15861484D02*
X15693075Y-15861484D01*
X15693075Y-15861484D02*
X15674027Y-15851960D01*
X15674027Y-15851960D02*
X15664503Y-15832912D01*
X15664503Y-15832912D02*
X15664503Y-15756722D01*
X15664503Y-15756722D02*
X15674027Y-15737674D01*
X15674027Y-15737674D02*
X15693075Y-15728150D01*
X15693075Y-15728150D02*
X15731170Y-15728150D01*
X15731170Y-15728150D02*
X15750218Y-15737674D01*
X15750218Y-15737674D02*
X15759742Y-15756722D01*
X15759742Y-15756722D02*
X15759742Y-15775769D01*
X15759742Y-15775769D02*
X15664503Y-15794817D01*
X15931170Y-15861484D02*
X15931170Y-15661484D01*
X15931170Y-15851960D02*
X15912123Y-15861484D01*
X15912123Y-15861484D02*
X15874027Y-15861484D01*
X15874027Y-15861484D02*
X15854980Y-15851960D01*
X15854980Y-15851960D02*
X15845456Y-15842436D01*
X15845456Y-15842436D02*
X15835932Y-15823388D01*
X15835932Y-15823388D02*
X15835932Y-15766246D01*
X15835932Y-15766246D02*
X15845456Y-15747198D01*
X15845456Y-15747198D02*
X15854980Y-15737674D01*
X15854980Y-15737674D02*
X15874027Y-15728150D01*
X15874027Y-15728150D02*
X15912123Y-15728150D01*
X15912123Y-15728150D02*
X15931170Y-15737674D01*
X16007361Y-15937674D02*
X16016884Y-15928150D01*
X16016884Y-15928150D02*
X16035932Y-15899579D01*
X16035932Y-15899579D02*
X16045456Y-15880531D01*
X16045456Y-15880531D02*
X16054980Y-15851960D01*
X16054980Y-15851960D02*
X16064503Y-15804341D01*
X16064503Y-15804341D02*
X16064503Y-15766246D01*
X16064503Y-15766246D02*
X16054980Y-15718627D01*
X16054980Y-15718627D02*
X16045456Y-15690055D01*
X16045456Y-15690055D02*
X16035932Y-15671008D01*
X16035932Y-15671008D02*
X16016884Y-15642436D01*
X16016884Y-15642436D02*
X16007361Y-15632912D01*
X9413250Y-16090000D02*
G75*
G03*
X9413250Y-16090000I-100000J0D01*
G01*
X9654979Y-15981484D02*
X9778789Y-15981484D01*
X9778789Y-15981484D02*
X9712122Y-16057674D01*
X9712122Y-16057674D02*
X9740694Y-16057674D01*
X9740694Y-16057674D02*
X9759741Y-16067198D01*
X9759741Y-16067198D02*
X9769265Y-16076722D01*
X9769265Y-16076722D02*
X9778789Y-16095769D01*
X9778789Y-16095769D02*
X9778789Y-16143388D01*
X9778789Y-16143388D02*
X9769265Y-16162436D01*
X9769265Y-16162436D02*
X9759741Y-16171960D01*
X9759741Y-16171960D02*
X9740694Y-16181484D01*
X9740694Y-16181484D02*
X9683551Y-16181484D01*
X9683551Y-16181484D02*
X9664503Y-16171960D01*
X9664503Y-16171960D02*
X9654979Y-16162436D01*
X9864503Y-16162436D02*
X9874027Y-16171960D01*
X9874027Y-16171960D02*
X9864503Y-16181484D01*
X9864503Y-16181484D02*
X9854979Y-16171960D01*
X9854979Y-16171960D02*
X9864503Y-16162436D01*
X9864503Y-16162436D02*
X9864503Y-16181484D01*
X9950217Y-16000531D02*
X9959741Y-15991008D01*
X9959741Y-15991008D02*
X9978789Y-15981484D01*
X9978789Y-15981484D02*
X10026408Y-15981484D01*
X10026408Y-15981484D02*
X10045455Y-15991008D01*
X10045455Y-15991008D02*
X10054979Y-16000531D01*
X10054979Y-16000531D02*
X10064503Y-16019579D01*
X10064503Y-16019579D02*
X10064503Y-16038627D01*
X10064503Y-16038627D02*
X10054979Y-16067198D01*
X10054979Y-16067198D02*
X9940694Y-16181484D01*
X9940694Y-16181484D02*
X10064503Y-16181484D01*
X10188313Y-15981484D02*
X10207360Y-15981484D01*
X10207360Y-15981484D02*
X10226408Y-15991008D01*
X10226408Y-15991008D02*
X10235932Y-16000531D01*
X10235932Y-16000531D02*
X10245455Y-16019579D01*
X10245455Y-16019579D02*
X10254979Y-16057674D01*
X10254979Y-16057674D02*
X10254979Y-16105293D01*
X10254979Y-16105293D02*
X10245455Y-16143388D01*
X10245455Y-16143388D02*
X10235932Y-16162436D01*
X10235932Y-16162436D02*
X10226408Y-16171960D01*
X10226408Y-16171960D02*
X10207360Y-16181484D01*
X10207360Y-16181484D02*
X10188313Y-16181484D01*
X10188313Y-16181484D02*
X10169265Y-16171960D01*
X10169265Y-16171960D02*
X10159741Y-16162436D01*
X10159741Y-16162436D02*
X10150217Y-16143388D01*
X10150217Y-16143388D02*
X10140694Y-16105293D01*
X10140694Y-16105293D02*
X10140694Y-16057674D01*
X10140694Y-16057674D02*
X10150217Y-16019579D01*
X10150217Y-16019579D02*
X10159741Y-16000531D01*
X10159741Y-16000531D02*
X10169265Y-15991008D01*
X10169265Y-15991008D02*
X10188313Y-15981484D01*
X10378789Y-15981484D02*
X10397836Y-15981484D01*
X10397836Y-15981484D02*
X10416884Y-15991008D01*
X10416884Y-15991008D02*
X10426408Y-16000531D01*
X10426408Y-16000531D02*
X10435932Y-16019579D01*
X10435932Y-16019579D02*
X10445455Y-16057674D01*
X10445455Y-16057674D02*
X10445455Y-16105293D01*
X10445455Y-16105293D02*
X10435932Y-16143388D01*
X10435932Y-16143388D02*
X10426408Y-16162436D01*
X10426408Y-16162436D02*
X10416884Y-16171960D01*
X10416884Y-16171960D02*
X10397836Y-16181484D01*
X10397836Y-16181484D02*
X10378789Y-16181484D01*
X10378789Y-16181484D02*
X10359741Y-16171960D01*
X10359741Y-16171960D02*
X10350217Y-16162436D01*
X10350217Y-16162436D02*
X10340694Y-16143388D01*
X10340694Y-16143388D02*
X10331170Y-16105293D01*
X10331170Y-16105293D02*
X10331170Y-16057674D01*
X10331170Y-16057674D02*
X10340694Y-16019579D01*
X10340694Y-16019579D02*
X10350217Y-16000531D01*
X10350217Y-16000531D02*
X10359741Y-15991008D01*
X10359741Y-15991008D02*
X10378789Y-15981484D01*
X10531170Y-16181484D02*
X10531170Y-16048150D01*
X10531170Y-16067198D02*
X10540694Y-16057674D01*
X10540694Y-16057674D02*
X10559741Y-16048150D01*
X10559741Y-16048150D02*
X10588313Y-16048150D01*
X10588313Y-16048150D02*
X10607360Y-16057674D01*
X10607360Y-16057674D02*
X10616884Y-16076722D01*
X10616884Y-16076722D02*
X10616884Y-16181484D01*
X10616884Y-16076722D02*
X10626408Y-16057674D01*
X10626408Y-16057674D02*
X10645455Y-16048150D01*
X10645455Y-16048150D02*
X10674027Y-16048150D01*
X10674027Y-16048150D02*
X10693075Y-16057674D01*
X10693075Y-16057674D02*
X10702598Y-16076722D01*
X10702598Y-16076722D02*
X10702598Y-16181484D01*
X10797836Y-16181484D02*
X10797836Y-16048150D01*
X10797836Y-16067198D02*
X10807360Y-16057674D01*
X10807360Y-16057674D02*
X10826408Y-16048150D01*
X10826408Y-16048150D02*
X10854979Y-16048150D01*
X10854979Y-16048150D02*
X10874027Y-16057674D01*
X10874027Y-16057674D02*
X10883551Y-16076722D01*
X10883551Y-16076722D02*
X10883551Y-16181484D01*
X10883551Y-16076722D02*
X10893075Y-16057674D01*
X10893075Y-16057674D02*
X10912122Y-16048150D01*
X10912122Y-16048150D02*
X10940694Y-16048150D01*
X10940694Y-16048150D02*
X10959741Y-16057674D01*
X10959741Y-16057674D02*
X10969265Y-16076722D01*
X10969265Y-16076722D02*
X10969265Y-16181484D01*
X11359741Y-15971960D02*
X11188313Y-16229103D01*
X11616884Y-15981484D02*
X11635932Y-15981484D01*
X11635932Y-15981484D02*
X11654979Y-15991008D01*
X11654979Y-15991008D02*
X11664503Y-16000531D01*
X11664503Y-16000531D02*
X11674027Y-16019579D01*
X11674027Y-16019579D02*
X11683551Y-16057674D01*
X11683551Y-16057674D02*
X11683551Y-16105293D01*
X11683551Y-16105293D02*
X11674027Y-16143388D01*
X11674027Y-16143388D02*
X11664503Y-16162436D01*
X11664503Y-16162436D02*
X11654979Y-16171960D01*
X11654979Y-16171960D02*
X11635932Y-16181484D01*
X11635932Y-16181484D02*
X11616884Y-16181484D01*
X11616884Y-16181484D02*
X11597836Y-16171960D01*
X11597836Y-16171960D02*
X11588313Y-16162436D01*
X11588313Y-16162436D02*
X11578789Y-16143388D01*
X11578789Y-16143388D02*
X11569265Y-16105293D01*
X11569265Y-16105293D02*
X11569265Y-16057674D01*
X11569265Y-16057674D02*
X11578789Y-16019579D01*
X11578789Y-16019579D02*
X11588313Y-16000531D01*
X11588313Y-16000531D02*
X11597836Y-15991008D01*
X11597836Y-15991008D02*
X11616884Y-15981484D01*
X11769265Y-16162436D02*
X11778789Y-16171960D01*
X11778789Y-16171960D02*
X11769265Y-16181484D01*
X11769265Y-16181484D02*
X11759741Y-16171960D01*
X11759741Y-16171960D02*
X11769265Y-16162436D01*
X11769265Y-16162436D02*
X11769265Y-16181484D01*
X11969265Y-16181484D02*
X11854979Y-16181484D01*
X11912122Y-16181484D02*
X11912122Y-15981484D01*
X11912122Y-15981484D02*
X11893075Y-16010055D01*
X11893075Y-16010055D02*
X11874027Y-16029103D01*
X11874027Y-16029103D02*
X11854979Y-16038627D01*
X12045456Y-16000531D02*
X12054979Y-15991008D01*
X12054979Y-15991008D02*
X12074027Y-15981484D01*
X12074027Y-15981484D02*
X12121646Y-15981484D01*
X12121646Y-15981484D02*
X12140694Y-15991008D01*
X12140694Y-15991008D02*
X12150217Y-16000531D01*
X12150217Y-16000531D02*
X12159741Y-16019579D01*
X12159741Y-16019579D02*
X12159741Y-16038627D01*
X12159741Y-16038627D02*
X12150217Y-16067198D01*
X12150217Y-16067198D02*
X12035932Y-16181484D01*
X12035932Y-16181484D02*
X12159741Y-16181484D01*
X12331170Y-15981484D02*
X12293075Y-15981484D01*
X12293075Y-15981484D02*
X12274027Y-15991008D01*
X12274027Y-15991008D02*
X12264503Y-16000531D01*
X12264503Y-16000531D02*
X12245456Y-16029103D01*
X12245456Y-16029103D02*
X12235932Y-16067198D01*
X12235932Y-16067198D02*
X12235932Y-16143388D01*
X12235932Y-16143388D02*
X12245456Y-16162436D01*
X12245456Y-16162436D02*
X12254979Y-16171960D01*
X12254979Y-16171960D02*
X12274027Y-16181484D01*
X12274027Y-16181484D02*
X12312122Y-16181484D01*
X12312122Y-16181484D02*
X12331170Y-16171960D01*
X12331170Y-16171960D02*
X12340694Y-16162436D01*
X12340694Y-16162436D02*
X12350217Y-16143388D01*
X12350217Y-16143388D02*
X12350217Y-16095769D01*
X12350217Y-16095769D02*
X12340694Y-16076722D01*
X12340694Y-16076722D02*
X12331170Y-16067198D01*
X12331170Y-16067198D02*
X12312122Y-16057674D01*
X12312122Y-16057674D02*
X12274027Y-16057674D01*
X12274027Y-16057674D02*
X12254979Y-16067198D01*
X12254979Y-16067198D02*
X12245456Y-16076722D01*
X12245456Y-16076722D02*
X12235932Y-16095769D01*
X12474027Y-15981484D02*
X12493075Y-15981484D01*
X12493075Y-15981484D02*
X12512122Y-15991008D01*
X12512122Y-15991008D02*
X12521646Y-16000531D01*
X12521646Y-16000531D02*
X12531170Y-16019579D01*
X12531170Y-16019579D02*
X12540694Y-16057674D01*
X12540694Y-16057674D02*
X12540694Y-16105293D01*
X12540694Y-16105293D02*
X12531170Y-16143388D01*
X12531170Y-16143388D02*
X12521646Y-16162436D01*
X12521646Y-16162436D02*
X12512122Y-16171960D01*
X12512122Y-16171960D02*
X12493075Y-16181484D01*
X12493075Y-16181484D02*
X12474027Y-16181484D01*
X12474027Y-16181484D02*
X12454979Y-16171960D01*
X12454979Y-16171960D02*
X12445456Y-16162436D01*
X12445456Y-16162436D02*
X12435932Y-16143388D01*
X12435932Y-16143388D02*
X12426408Y-16105293D01*
X12426408Y-16105293D02*
X12426408Y-16057674D01*
X12426408Y-16057674D02*
X12435932Y-16019579D01*
X12435932Y-16019579D02*
X12445456Y-16000531D01*
X12445456Y-16000531D02*
X12454979Y-15991008D01*
X12454979Y-15991008D02*
X12474027Y-15981484D01*
X12616884Y-15981484D02*
X12616884Y-16019579D01*
X12693075Y-15981484D02*
X12693075Y-16019579D01*
X12988313Y-16257674D02*
X12978789Y-16248150D01*
X12978789Y-16248150D02*
X12959741Y-16219579D01*
X12959741Y-16219579D02*
X12950218Y-16200531D01*
X12950218Y-16200531D02*
X12940694Y-16171960D01*
X12940694Y-16171960D02*
X12931170Y-16124341D01*
X12931170Y-16124341D02*
X12931170Y-16086246D01*
X12931170Y-16086246D02*
X12940694Y-16038627D01*
X12940694Y-16038627D02*
X12950218Y-16010055D01*
X12950218Y-16010055D02*
X12959741Y-15991008D01*
X12959741Y-15991008D02*
X12978789Y-15962436D01*
X12978789Y-15962436D02*
X12988313Y-15952912D01*
X13169265Y-16181484D02*
X13054979Y-16181484D01*
X13112122Y-16181484D02*
X13112122Y-15981484D01*
X13112122Y-15981484D02*
X13093075Y-16010055D01*
X13093075Y-16010055D02*
X13074027Y-16029103D01*
X13074027Y-16029103D02*
X13054979Y-16038627D01*
X13340694Y-16048150D02*
X13340694Y-16181484D01*
X13293075Y-15971960D02*
X13245456Y-16114817D01*
X13245456Y-16114817D02*
X13369265Y-16114817D01*
X13597837Y-16181484D02*
X13597837Y-15981484D01*
X13683551Y-16181484D02*
X13683551Y-16076722D01*
X13683551Y-16076722D02*
X13674027Y-16057674D01*
X13674027Y-16057674D02*
X13654980Y-16048150D01*
X13654980Y-16048150D02*
X13626408Y-16048150D01*
X13626408Y-16048150D02*
X13607360Y-16057674D01*
X13607360Y-16057674D02*
X13597837Y-16067198D01*
X13807360Y-16181484D02*
X13788313Y-16171960D01*
X13788313Y-16171960D02*
X13778789Y-16162436D01*
X13778789Y-16162436D02*
X13769265Y-16143388D01*
X13769265Y-16143388D02*
X13769265Y-16086246D01*
X13769265Y-16086246D02*
X13778789Y-16067198D01*
X13778789Y-16067198D02*
X13788313Y-16057674D01*
X13788313Y-16057674D02*
X13807360Y-16048150D01*
X13807360Y-16048150D02*
X13835932Y-16048150D01*
X13835932Y-16048150D02*
X13854980Y-16057674D01*
X13854980Y-16057674D02*
X13864503Y-16067198D01*
X13864503Y-16067198D02*
X13874027Y-16086246D01*
X13874027Y-16086246D02*
X13874027Y-16143388D01*
X13874027Y-16143388D02*
X13864503Y-16162436D01*
X13864503Y-16162436D02*
X13854980Y-16171960D01*
X13854980Y-16171960D02*
X13835932Y-16181484D01*
X13835932Y-16181484D02*
X13807360Y-16181484D01*
X13988313Y-16181484D02*
X13969265Y-16171960D01*
X13969265Y-16171960D02*
X13959741Y-16152912D01*
X13959741Y-16152912D02*
X13959741Y-15981484D01*
X14140694Y-16171960D02*
X14121646Y-16181484D01*
X14121646Y-16181484D02*
X14083551Y-16181484D01*
X14083551Y-16181484D02*
X14064503Y-16171960D01*
X14064503Y-16171960D02*
X14054980Y-16152912D01*
X14054980Y-16152912D02*
X14054980Y-16076722D01*
X14054980Y-16076722D02*
X14064503Y-16057674D01*
X14064503Y-16057674D02*
X14083551Y-16048150D01*
X14083551Y-16048150D02*
X14121646Y-16048150D01*
X14121646Y-16048150D02*
X14140694Y-16057674D01*
X14140694Y-16057674D02*
X14150218Y-16076722D01*
X14150218Y-16076722D02*
X14150218Y-16095769D01*
X14150218Y-16095769D02*
X14054980Y-16114817D01*
X14226408Y-16171960D02*
X14245456Y-16181484D01*
X14245456Y-16181484D02*
X14283551Y-16181484D01*
X14283551Y-16181484D02*
X14302599Y-16171960D01*
X14302599Y-16171960D02*
X14312122Y-16152912D01*
X14312122Y-16152912D02*
X14312122Y-16143388D01*
X14312122Y-16143388D02*
X14302599Y-16124341D01*
X14302599Y-16124341D02*
X14283551Y-16114817D01*
X14283551Y-16114817D02*
X14254980Y-16114817D01*
X14254980Y-16114817D02*
X14235932Y-16105293D01*
X14235932Y-16105293D02*
X14226408Y-16086246D01*
X14226408Y-16086246D02*
X14226408Y-16076722D01*
X14226408Y-16076722D02*
X14235932Y-16057674D01*
X14235932Y-16057674D02*
X14254980Y-16048150D01*
X14254980Y-16048150D02*
X14283551Y-16048150D01*
X14283551Y-16048150D02*
X14302599Y-16057674D01*
X14378789Y-16257674D02*
X14388313Y-16248150D01*
X14388313Y-16248150D02*
X14407361Y-16219579D01*
X14407361Y-16219579D02*
X14416884Y-16200531D01*
X14416884Y-16200531D02*
X14426408Y-16171960D01*
X14426408Y-16171960D02*
X14435932Y-16124341D01*
X14435932Y-16124341D02*
X14435932Y-16086246D01*
X14435932Y-16086246D02*
X14426408Y-16038627D01*
X14426408Y-16038627D02*
X14416884Y-16010055D01*
X14416884Y-16010055D02*
X14407361Y-15991008D01*
X14407361Y-15991008D02*
X14388313Y-15962436D01*
X14388313Y-15962436D02*
X14378789Y-15952912D01*
X14740694Y-16257674D02*
X14731170Y-16248150D01*
X14731170Y-16248150D02*
X14712122Y-16219579D01*
X14712122Y-16219579D02*
X14702599Y-16200531D01*
X14702599Y-16200531D02*
X14693075Y-16171960D01*
X14693075Y-16171960D02*
X14683551Y-16124341D01*
X14683551Y-16124341D02*
X14683551Y-16086246D01*
X14683551Y-16086246D02*
X14693075Y-16038627D01*
X14693075Y-16038627D02*
X14702599Y-16010055D01*
X14702599Y-16010055D02*
X14712122Y-15991008D01*
X14712122Y-15991008D02*
X14731170Y-15962436D01*
X14731170Y-15962436D02*
X14740694Y-15952912D01*
X14816884Y-16048150D02*
X14816884Y-16181484D01*
X14816884Y-16067198D02*
X14826408Y-16057674D01*
X14826408Y-16057674D02*
X14845456Y-16048150D01*
X14845456Y-16048150D02*
X14874027Y-16048150D01*
X14874027Y-16048150D02*
X14893075Y-16057674D01*
X14893075Y-16057674D02*
X14902599Y-16076722D01*
X14902599Y-16076722D02*
X14902599Y-16181484D01*
X15026408Y-16181484D02*
X15007361Y-16171960D01*
X15007361Y-16171960D02*
X14997837Y-16162436D01*
X14997837Y-16162436D02*
X14988313Y-16143388D01*
X14988313Y-16143388D02*
X14988313Y-16086246D01*
X14988313Y-16086246D02*
X14997837Y-16067198D01*
X14997837Y-16067198D02*
X15007361Y-16057674D01*
X15007361Y-16057674D02*
X15026408Y-16048150D01*
X15026408Y-16048150D02*
X15054980Y-16048150D01*
X15054980Y-16048150D02*
X15074027Y-16057674D01*
X15074027Y-16057674D02*
X15083551Y-16067198D01*
X15083551Y-16067198D02*
X15093075Y-16086246D01*
X15093075Y-16086246D02*
X15093075Y-16143388D01*
X15093075Y-16143388D02*
X15083551Y-16162436D01*
X15083551Y-16162436D02*
X15074027Y-16171960D01*
X15074027Y-16171960D02*
X15054980Y-16181484D01*
X15054980Y-16181484D02*
X15026408Y-16181484D01*
X15150218Y-16048150D02*
X15226408Y-16048150D01*
X15178789Y-15981484D02*
X15178789Y-16152912D01*
X15178789Y-16152912D02*
X15188313Y-16171960D01*
X15188313Y-16171960D02*
X15207361Y-16181484D01*
X15207361Y-16181484D02*
X15226408Y-16181484D01*
X15445456Y-16048150D02*
X15445456Y-16248150D01*
X15445456Y-16057674D02*
X15464503Y-16048150D01*
X15464503Y-16048150D02*
X15502599Y-16048150D01*
X15502599Y-16048150D02*
X15521646Y-16057674D01*
X15521646Y-16057674D02*
X15531170Y-16067198D01*
X15531170Y-16067198D02*
X15540694Y-16086246D01*
X15540694Y-16086246D02*
X15540694Y-16143388D01*
X15540694Y-16143388D02*
X15531170Y-16162436D01*
X15531170Y-16162436D02*
X15521646Y-16171960D01*
X15521646Y-16171960D02*
X15502599Y-16181484D01*
X15502599Y-16181484D02*
X15464503Y-16181484D01*
X15464503Y-16181484D02*
X15445456Y-16171960D01*
X15654980Y-16181484D02*
X15635932Y-16171960D01*
X15635932Y-16171960D02*
X15626408Y-16152912D01*
X15626408Y-16152912D02*
X15626408Y-15981484D01*
X15816884Y-16181484D02*
X15816884Y-16076722D01*
X15816884Y-16076722D02*
X15807361Y-16057674D01*
X15807361Y-16057674D02*
X15788313Y-16048150D01*
X15788313Y-16048150D02*
X15750218Y-16048150D01*
X15750218Y-16048150D02*
X15731170Y-16057674D01*
X15816884Y-16171960D02*
X15797837Y-16181484D01*
X15797837Y-16181484D02*
X15750218Y-16181484D01*
X15750218Y-16181484D02*
X15731170Y-16171960D01*
X15731170Y-16171960D02*
X15721646Y-16152912D01*
X15721646Y-16152912D02*
X15721646Y-16133865D01*
X15721646Y-16133865D02*
X15731170Y-16114817D01*
X15731170Y-16114817D02*
X15750218Y-16105293D01*
X15750218Y-16105293D02*
X15797837Y-16105293D01*
X15797837Y-16105293D02*
X15816884Y-16095769D01*
X15883551Y-16048150D02*
X15959742Y-16048150D01*
X15912123Y-15981484D02*
X15912123Y-16152912D01*
X15912123Y-16152912D02*
X15921646Y-16171960D01*
X15921646Y-16171960D02*
X15940694Y-16181484D01*
X15940694Y-16181484D02*
X15959742Y-16181484D01*
X16102599Y-16171960D02*
X16083551Y-16181484D01*
X16083551Y-16181484D02*
X16045456Y-16181484D01*
X16045456Y-16181484D02*
X16026408Y-16171960D01*
X16026408Y-16171960D02*
X16016884Y-16152912D01*
X16016884Y-16152912D02*
X16016884Y-16076722D01*
X16016884Y-16076722D02*
X16026408Y-16057674D01*
X16026408Y-16057674D02*
X16045456Y-16048150D01*
X16045456Y-16048150D02*
X16083551Y-16048150D01*
X16083551Y-16048150D02*
X16102599Y-16057674D01*
X16102599Y-16057674D02*
X16112123Y-16076722D01*
X16112123Y-16076722D02*
X16112123Y-16095769D01*
X16112123Y-16095769D02*
X16016884Y-16114817D01*
X16283551Y-16181484D02*
X16283551Y-15981484D01*
X16283551Y-16171960D02*
X16264504Y-16181484D01*
X16264504Y-16181484D02*
X16226408Y-16181484D01*
X16226408Y-16181484D02*
X16207361Y-16171960D01*
X16207361Y-16171960D02*
X16197837Y-16162436D01*
X16197837Y-16162436D02*
X16188313Y-16143388D01*
X16188313Y-16143388D02*
X16188313Y-16086246D01*
X16188313Y-16086246D02*
X16197837Y-16067198D01*
X16197837Y-16067198D02*
X16207361Y-16057674D01*
X16207361Y-16057674D02*
X16226408Y-16048150D01*
X16226408Y-16048150D02*
X16264504Y-16048150D01*
X16264504Y-16048150D02*
X16283551Y-16057674D01*
X16359742Y-16257674D02*
X16369265Y-16248150D01*
X16369265Y-16248150D02*
X16388313Y-16219579D01*
X16388313Y-16219579D02*
X16397837Y-16200531D01*
X16397837Y-16200531D02*
X16407361Y-16171960D01*
X16407361Y-16171960D02*
X16416884Y-16124341D01*
X16416884Y-16124341D02*
X16416884Y-16086246D01*
X16416884Y-16086246D02*
X16407361Y-16038627D01*
X16407361Y-16038627D02*
X16397837Y-16010055D01*
X16397837Y-16010055D02*
X16388313Y-15991008D01*
X16388313Y-15991008D02*
X16369265Y-15962436D01*
X16369265Y-15962436D02*
X16359742Y-15952912D01*
M02*
