M48
; DRILL file {KiCad 7.0.9} date Fri Jan 26 12:36:04 2024
; FORMAT={-:-/ absolute / metric / decimal}
; #@! TF.CreationDate,2024-01-26T12:36:04+01:00
; #@! TF.GenerationSoftware,Kicad,Pcbnew,7.0.9
; #@! TF.FileFunction,Plated,1,2,PTH
FMAT,2
METRIC
; #@! TA.AperFunction,Plated,PTH,ViaDrill
T1C0.400
%
G90
G05
T1
X117.0Y-89.04
X120.5Y-89.04
X124.574Y-131.331
X126.2Y-123.74
X126.746Y-81.94
X130.0Y-81.0
X130.048Y-121.412
X130.429Y-127.787
X130.5Y-112.0
X130.5Y-119.888
X132.08Y-115.57
X132.969Y-127.737
X133.604Y-68.834
X134.0Y-109.728
X134.0Y-111.506
X134.5Y-108.204
X134.62Y-146.05
X135.0Y-113.0
X136.5Y-56.44
X139.4Y-51.94
X139.4Y-60.94
X141.732Y-68.961
X142.5Y-56.44
X143.154Y-99.846
X144.0Y-131.5
X144.0Y-133.0
X144.272Y-104.648
X147.0Y-131.5
X147.0Y-133.0
X147.574Y-104.14
X149.0Y-68.5
X149.225Y-107.315
X149.336Y-101.6
X149.5Y-56.44
X149.86Y-141.977
X152.5Y-51.94
X152.5Y-60.94
X153.21Y-68.89
X155.5Y-62.0
X158.877Y-115.951
X159.0Y-122.0
X160.0Y-114.0
X160.655Y-118.11
X160.68Y-110.76
X160.75Y-80.0
X161.0Y-125.0
X161.0Y-129.94
X161.0Y-135.44
X161.544Y-72.263
X162.0Y-113.94
X162.75Y-110.75
X163.0Y-80.5
X163.779Y-120.142
X165.316Y-120.18
X170.4Y-88.74
X174.803Y-107.44
X174.9Y-88.74
X177.394Y-107.44
X179.451Y-115.441
X182.5Y-113.74
X186.9Y-113.74
T0
M30
