<?xml version="1.0" standalone="no"?>
 <!DOCTYPE svg PUBLIC "-//W3C//DTD SVG 1.1//EN" 
 "http://www.w3.org/Graphics/SVG/1.1/DTD/svg11.dtd"> 
<svg
  xmlns:svg="http://www.w3.org/2000/svg"
  xmlns="http://www.w3.org/2000/svg"
  xmlns:xlink="http://www.w3.org/1999/xlink"
  version="1.1"
  width="297.0022mm" height="210.0072mm" viewBox="0.0000 0.0000 297.0022 210.0072">
<title>SVG Image created as maglev26-F_Paste.svg date 2024/10/17 17:31:25 </title>
  <desc>Image generated by PCBNEW </desc>
<g style="fill:#000000; fill-opacity:1.0000;stroke:#000000; stroke-opacity:1.0000;
stroke-linecap:round; stroke-linejoin:round;"
 transform="translate(0 0) scale(1 1)">
</g>
<g style="fill:#000000; fill-opacity:0.0; 
stroke:#000000; stroke-width:0.0000; stroke-opacity:1; 
stroke-linecap:round; stroke-linejoin:round;">
<g >
</g>
<g >
</g>
<g >
</g>
<g >
</g>
<g style="fill:#000000; fill-opacity:0.0; 
stroke:#000000; stroke-width:0.0000; stroke-opacity:1; 
stroke-linecap:round; stroke-linejoin:round;">
</g>
<g style="fill:#000000; fill-opacity:0.0; 
stroke:#000000; stroke-width:0.0000; stroke-opacity:1; 
stroke-linecap:round; stroke-linejoin:round;">
</g>
<g style="fill:#000000; fill-opacity:1.0000; 
stroke:#000000; stroke-width:0.0000; stroke-opacity:1; 
stroke-linecap:round; stroke-linejoin:round;">
<path style="fill:#000000; fill-opacity:1.0000; 
stroke:#000000; stroke-width:0.0000; stroke-opacity:1; 
stroke-linecap:round; stroke-linejoin:round;fill-rule:evenodd;"
d="M 125.7080,116.7560
125.7194,116.6986
125.7519,116.6499
125.8006,116.6174
125.8580,116.6060
126.8830,116.6060
126.9404,116.6174
126.9891,116.6499
127.0216,116.6986
127.0330,116.7560
127.0330,117.0560
127.0216,117.1134
126.9891,117.1621
126.9404,117.1946
126.8830,117.2060
125.8580,117.2060
125.8006,117.1946
125.7519,117.1621
125.7194,117.1134
125.7080,117.0560
Z" /> 
<path style="fill:#000000; fill-opacity:1.0000; 
stroke:#000000; stroke-width:0.0000; stroke-opacity:1; 
stroke-linecap:round; stroke-linejoin:round;fill-rule:evenodd;"
d="M 125.7080,117.7060
125.7194,117.6486
125.7519,117.5999
125.8006,117.5674
125.8580,117.5560
126.8830,117.5560
126.9404,117.5674
126.9891,117.5999
127.0216,117.6486
127.0330,117.7060
127.0330,118.0060
127.0216,118.0634
126.9891,118.1121
126.9404,118.1446
126.8830,118.1560
125.8580,118.1560
125.8006,118.1446
125.7519,118.1121
125.7194,118.0634
125.7080,118.0060
Z" /> 
<path style="fill:#000000; fill-opacity:1.0000; 
stroke:#000000; stroke-width:0.0000; stroke-opacity:1; 
stroke-linecap:round; stroke-linejoin:round;fill-rule:evenodd;"
d="M 125.7080,118.6560
125.7194,118.5986
125.7519,118.5499
125.8006,118.5174
125.8580,118.5060
126.8830,118.5060
126.9404,118.5174
126.9891,118.5499
127.0216,118.5986
127.0330,118.6560
127.0330,118.9560
127.0216,119.0134
126.9891,119.0621
126.9404,119.0946
126.8830,119.1060
125.8580,119.1060
125.8006,119.0946
125.7519,119.0621
125.7194,119.0134
125.7080,118.9560
Z" /> 
<path style="fill:#000000; fill-opacity:1.0000; 
stroke:#000000; stroke-width:0.0000; stroke-opacity:1; 
stroke-linecap:round; stroke-linejoin:round;fill-rule:evenodd;"
d="M 127.9830,118.6560
127.9944,118.5986
128.0269,118.5499
128.0756,118.5174
128.1330,118.5060
129.1580,118.5060
129.2154,118.5174
129.2641,118.5499
129.2966,118.5986
129.3080,118.6560
129.3080,118.9560
129.2966,119.0134
129.2641,119.0621
129.2154,119.0946
129.1580,119.1060
128.1330,119.1060
128.0756,119.0946
128.0269,119.0621
127.9944,119.0134
127.9830,118.9560
Z" /> 
<path style="fill:#000000; fill-opacity:1.0000; 
stroke:#000000; stroke-width:0.0000; stroke-opacity:1; 
stroke-linecap:round; stroke-linejoin:round;fill-rule:evenodd;"
d="M 127.9830,117.7060
127.9944,117.6486
128.0269,117.5999
128.0756,117.5674
128.1330,117.5560
129.1580,117.5560
129.2154,117.5674
129.2641,117.5999
129.2966,117.6486
129.3080,117.7060
129.3080,118.0060
129.2966,118.0634
129.2641,118.1121
129.2154,118.1446
129.1580,118.1560
128.1330,118.1560
128.0756,118.1446
128.0269,118.1121
127.9944,118.0634
127.9830,118.0060
Z" /> 
<path style="fill:#000000; fill-opacity:1.0000; 
stroke:#000000; stroke-width:0.0000; stroke-opacity:1; 
stroke-linecap:round; stroke-linejoin:round;fill-rule:evenodd;"
d="M 127.9830,116.7560
127.9944,116.6986
128.0269,116.6499
128.0756,116.6174
128.1330,116.6060
129.1580,116.6060
129.2154,116.6174
129.2641,116.6499
129.2966,116.6986
129.3080,116.7560
129.3080,117.0560
129.2966,117.1134
129.2641,117.1621
129.2154,117.1946
129.1580,117.2060
128.1330,117.2060
128.0756,117.1946
128.0269,117.1621
127.9944,117.1134
127.9830,117.0560
Z" /> 
</g>
<g >
</g>
<g style="fill:#000000; fill-opacity:1.0000; 
stroke:#000000; stroke-width:0.0000; stroke-opacity:1; 
stroke-linecap:round; stroke-linejoin:round;">
<path style="fill:#000000; fill-opacity:1.0000; 
stroke:#000000; stroke-width:0.0000; stroke-opacity:1; 
stroke-linecap:round; stroke-linejoin:round;fill-rule:evenodd;"
d="M 162.9135,116.8220
162.9249,116.7646
162.9574,116.7159
163.0061,116.6834
163.0635,116.6720
164.0885,116.6720
164.1459,116.6834
164.1946,116.7159
164.2271,116.7646
164.2385,116.8220
164.2385,117.1220
164.2271,117.1794
164.1946,117.2281
164.1459,117.2606
164.0885,117.2720
163.0635,117.2720
163.0061,117.2606
162.9574,117.2281
162.9249,117.1794
162.9135,117.1220
Z" /> 
<path style="fill:#000000; fill-opacity:1.0000; 
stroke:#000000; stroke-width:0.0000; stroke-opacity:1; 
stroke-linecap:round; stroke-linejoin:round;fill-rule:evenodd;"
d="M 162.9135,117.7720
162.9249,117.7146
162.9574,117.6659
163.0061,117.6334
163.0635,117.6220
164.0885,117.6220
164.1459,117.6334
164.1946,117.6659
164.2271,117.7146
164.2385,117.7720
164.2385,118.0720
164.2271,118.1294
164.1946,118.1781
164.1459,118.2106
164.0885,118.2220
163.0635,118.2220
163.0061,118.2106
162.9574,118.1781
162.9249,118.1294
162.9135,118.0720
Z" /> 
<path style="fill:#000000; fill-opacity:1.0000; 
stroke:#000000; stroke-width:0.0000; stroke-opacity:1; 
stroke-linecap:round; stroke-linejoin:round;fill-rule:evenodd;"
d="M 162.9135,118.7220
162.9249,118.6646
162.9574,118.6159
163.0061,118.5834
163.0635,118.5720
164.0885,118.5720
164.1459,118.5834
164.1946,118.6159
164.2271,118.6646
164.2385,118.7220
164.2385,119.0220
164.2271,119.0794
164.1946,119.1281
164.1459,119.1606
164.0885,119.1720
163.0635,119.1720
163.0061,119.1606
162.9574,119.1281
162.9249,119.0794
162.9135,119.0220
Z" /> 
<path style="fill:#000000; fill-opacity:1.0000; 
stroke:#000000; stroke-width:0.0000; stroke-opacity:1; 
stroke-linecap:round; stroke-linejoin:round;fill-rule:evenodd;"
d="M 165.1885,118.7220
165.1999,118.6646
165.2324,118.6159
165.2811,118.5834
165.3385,118.5720
166.3635,118.5720
166.4209,118.5834
166.4696,118.6159
166.5021,118.6646
166.5135,118.7220
166.5135,119.0220
166.5021,119.0794
166.4696,119.1281
166.4209,119.1606
166.3635,119.1720
165.3385,119.1720
165.2811,119.1606
165.2324,119.1281
165.1999,119.0794
165.1885,119.0220
Z" /> 
<path style="fill:#000000; fill-opacity:1.0000; 
stroke:#000000; stroke-width:0.0000; stroke-opacity:1; 
stroke-linecap:round; stroke-linejoin:round;fill-rule:evenodd;"
d="M 165.1885,117.7720
165.1999,117.7146
165.2324,117.6659
165.2811,117.6334
165.3385,117.6220
166.3635,117.6220
166.4209,117.6334
166.4696,117.6659
166.5021,117.7146
166.5135,117.7720
166.5135,118.0720
166.5021,118.1294
166.4696,118.1781
166.4209,118.2106
166.3635,118.2220
165.3385,118.2220
165.2811,118.2106
165.2324,118.1781
165.1999,118.1294
165.1885,118.0720
Z" /> 
<path style="fill:#000000; fill-opacity:1.0000; 
stroke:#000000; stroke-width:0.0000; stroke-opacity:1; 
stroke-linecap:round; stroke-linejoin:round;fill-rule:evenodd;"
d="M 165.1885,116.8220
165.1999,116.7646
165.2324,116.7159
165.2811,116.6834
165.3385,116.6720
166.3635,116.6720
166.4209,116.6834
166.4696,116.7159
166.5021,116.7646
166.5135,116.8220
166.5135,117.1220
166.5021,117.1794
166.4696,117.2281
166.4209,117.2606
166.3635,117.2720
165.3385,117.2720
165.2811,117.2606
165.2324,117.2281
165.1999,117.1794
165.1885,117.1220
Z" /> 
</g>
<g >
</g>
<g >
</g>
<g >
</g>
<g >
</g>
<g >
</g>
<g >
</g>
<g style="fill:#000000; fill-opacity:1.0000; 
stroke:#000000; stroke-width:0.0000; stroke-opacity:1; 
stroke-linecap:round; stroke-linejoin:round;">
<path style="fill:#000000; fill-opacity:1.0000; 
stroke:#000000; stroke-width:0.0000; stroke-opacity:1; 
stroke-linecap:round; stroke-linejoin:round;fill-rule:evenodd;"
d="M 144.4011,98.1500
144.4126,98.0926
144.4451,98.0439
144.4937,98.0114
144.5511,98.0000
145.5761,98.0000
145.6335,98.0114
145.6822,98.0439
145.7147,98.0926
145.7261,98.1500
145.7261,98.4500
145.7147,98.5074
145.6822,98.5561
145.6335,98.5886
145.5761,98.6000
144.5511,98.6000
144.4937,98.5886
144.4451,98.5561
144.4126,98.5074
144.4011,98.4500
Z" /> 
<path style="fill:#000000; fill-opacity:1.0000; 
stroke:#000000; stroke-width:0.0000; stroke-opacity:1; 
stroke-linecap:round; stroke-linejoin:round;fill-rule:evenodd;"
d="M 144.4011,99.1000
144.4126,99.0426
144.4451,98.9939
144.4937,98.9614
144.5511,98.9500
145.5761,98.9500
145.6335,98.9614
145.6822,98.9939
145.7147,99.0426
145.7261,99.1000
145.7261,99.4000
145.7147,99.4574
145.6822,99.5061
145.6335,99.5386
145.5761,99.5500
144.5511,99.5500
144.4937,99.5386
144.4451,99.5061
144.4126,99.4574
144.4011,99.4000
Z" /> 
<path style="fill:#000000; fill-opacity:1.0000; 
stroke:#000000; stroke-width:0.0000; stroke-opacity:1; 
stroke-linecap:round; stroke-linejoin:round;fill-rule:evenodd;"
d="M 144.4011,100.0500
144.4126,99.9926
144.4451,99.9439
144.4937,99.9114
144.5511,99.9000
145.5761,99.9000
145.6335,99.9114
145.6822,99.9439
145.7147,99.9926
145.7261,100.0500
145.7261,100.3500
145.7147,100.4074
145.6822,100.4561
145.6335,100.4886
145.5761,100.5000
144.5511,100.5000
144.4937,100.4886
144.4451,100.4561
144.4126,100.4074
144.4011,100.3500
Z" /> 
<path style="fill:#000000; fill-opacity:1.0000; 
stroke:#000000; stroke-width:0.0000; stroke-opacity:1; 
stroke-linecap:round; stroke-linejoin:round;fill-rule:evenodd;"
d="M 146.6761,100.0500
146.6876,99.9926
146.7201,99.9439
146.7687,99.9114
146.8261,99.9000
147.8511,99.9000
147.9085,99.9114
147.9572,99.9439
147.9897,99.9926
148.0011,100.0500
148.0011,100.3500
147.9897,100.4074
147.9572,100.4561
147.9085,100.4886
147.8511,100.5000
146.8261,100.5000
146.7687,100.4886
146.7201,100.4561
146.6876,100.4074
146.6761,100.3500
Z" /> 
<path style="fill:#000000; fill-opacity:1.0000; 
stroke:#000000; stroke-width:0.0000; stroke-opacity:1; 
stroke-linecap:round; stroke-linejoin:round;fill-rule:evenodd;"
d="M 146.6761,99.1000
146.6876,99.0426
146.7201,98.9939
146.7687,98.9614
146.8261,98.9500
147.8511,98.9500
147.9085,98.9614
147.9572,98.9939
147.9897,99.0426
148.0011,99.1000
148.0011,99.4000
147.9897,99.4574
147.9572,99.5061
147.9085,99.5386
147.8511,99.5500
146.8261,99.5500
146.7687,99.5386
146.7201,99.5061
146.6876,99.4574
146.6761,99.4000
Z" /> 
<path style="fill:#000000; fill-opacity:1.0000; 
stroke:#000000; stroke-width:0.0000; stroke-opacity:1; 
stroke-linecap:round; stroke-linejoin:round;fill-rule:evenodd;"
d="M 146.6761,98.1500
146.6876,98.0926
146.7201,98.0439
146.7687,98.0114
146.8261,98.0000
147.8511,98.0000
147.9085,98.0114
147.9572,98.0439
147.9897,98.0926
148.0011,98.1500
148.0011,98.4500
147.9897,98.5074
147.9572,98.5561
147.9085,98.5886
147.8511,98.6000
146.8261,98.6000
146.7687,98.5886
146.7201,98.5561
146.6876,98.5074
146.6761,98.4500
Z" /> 
</g>
<g >
</g>
<g >
</g>
<g >
</g>
<g >
</g>
<g >
</g>
<g >
</g>
<g >
</g>
<g >
</g>
<g >
</g>
<g >
</g>
<g >
</g>
<g >
</g>
<g >
</g>
<g >
</g>
<g >
</g>
<g >
</g>
<g >
</g>
<g >
</g>
<g >
</g>
<g >
</g>
<g >
</g>
<g >
</g>
<g >
</g>
<g >
</g>
<g >
</g>
<g >
</g>
<g >
</g>
<g >
</g>
<g >
</g>
<g >
</g>
<g >
</g>
<g >
</g>
<g >
</g>
<g >
</g>
<g >
</g>
<g >
</g>
<g >
</g>
<g >
</g>
<g >
</g>
<g >
</g>
<g >
</g>
<g >
</g>
<g >
</g>
<g >
</g>
<g >
</g>
<g >
</g>
<g >
</g>
<g >
</g>
<g >
</g>
<g >
</g>
<g >
</g>
<g >
</g>
</g> 
</svg>
