<?xml version="1.0" standalone="no"?>
 <!DOCTYPE svg PUBLIC "-//W3C//DTD SVG 1.1//EN" 
 "http://www.w3.org/Graphics/SVG/1.1/DTD/svg11.dtd"> 
<svg
  xmlns:svg="http://www.w3.org/2000/svg"
  xmlns="http://www.w3.org/2000/svg"
  xmlns:xlink="http://www.w3.org/1999/xlink"
  version="1.1"
  width="297.0022mm" height="210.0072mm" viewBox="0.0000 0.0000 297.0022 210.0072">
<title>SVG Image created as maglev26-B_Paste.svg date 2024/10/17 17:31:25 </title>
  <desc>Image generated by PCBNEW </desc>
<g style="fill:#000000; fill-opacity:1.0000;stroke:#000000; stroke-opacity:1.0000;
stroke-linecap:round; stroke-linejoin:round;"
 transform="translate(0 0) scale(1 1)">
</g>
<g style="fill:#000000; fill-opacity:0.0; 
stroke:#000000; stroke-width:0.0000; stroke-opacity:1; 
stroke-linecap:round; stroke-linejoin:round;">
<g >
</g>
<g >
</g>
<g >
</g>
<g >
</g>
<g >
</g>
<g >
</g>
<g >
</g>
<g >
</g>
<g >
</g>
<g >
</g>
<g >
</g>
<g >
</g>
<g style="fill:#000000; fill-opacity:0.0; 
stroke:#000000; stroke-width:0.0000; stroke-opacity:1; 
stroke-linecap:round; stroke-linejoin:round;">
</g>
<g style="fill:#000000; fill-opacity:0.0; 
stroke:#000000; stroke-width:0.0000; stroke-opacity:1; 
stroke-linecap:round; stroke-linejoin:round;">
</g>
<g style="fill:#000000; fill-opacity:1.0000; 
stroke:#000000; stroke-width:0.0000; stroke-opacity:1; 
stroke-linecap:round; stroke-linejoin:round;">
<path style="fill:#000000; fill-opacity:1.0000; 
stroke:#000000; stroke-width:0.0000; stroke-opacity:1; 
stroke-linecap:round; stroke-linejoin:round;fill-rule:evenodd;"
d="M 138.5200,70.4554
138.5390,70.3597
138.5932,70.2786
138.6743,70.2244
138.7700,70.2054
139.2700,70.2054
139.3657,70.2244
139.4468,70.2786
139.5010,70.3597
139.5200,70.4554
139.5200,71.4054
139.5010,71.5011
139.4468,71.5822
139.3657,71.6364
139.2700,71.6554
138.7700,71.6554
138.6743,71.6364
138.5932,71.5822
138.5390,71.5011
138.5200,71.4054
Z" /> 
<path style="fill:#000000; fill-opacity:1.0000; 
stroke:#000000; stroke-width:0.0000; stroke-opacity:1; 
stroke-linecap:round; stroke-linejoin:round;fill-rule:evenodd;"
d="M 140.4200,70.4554
140.4390,70.3597
140.4932,70.2786
140.5743,70.2244
140.6700,70.2054
141.1700,70.2054
141.2657,70.2244
141.3468,70.2786
141.4010,70.3597
141.4200,70.4554
141.4200,71.4054
141.4010,71.5011
141.3468,71.5822
141.2657,71.6364
141.1700,71.6554
140.6700,71.6554
140.5743,71.6364
140.4932,71.5822
140.4390,71.5011
140.4200,71.4054
Z" /> 
</g>
<g >
</g>
<g style="fill:#000000; fill-opacity:1.0000; 
stroke:#000000; stroke-width:0.0000; stroke-opacity:1; 
stroke-linecap:round; stroke-linejoin:round;">
<path style="fill:#000000; fill-opacity:1.0000; 
stroke:#000000; stroke-width:0.0000; stroke-opacity:1; 
stroke-linecap:round; stroke-linejoin:round;fill-rule:evenodd;"
d="M 148.7860,93.6980
148.8817,93.7170
148.9628,93.7712
149.0170,93.8523
149.0360,93.9480
149.0360,94.4730
149.0170,94.5687
148.9628,94.6498
148.8817,94.7040
148.7860,94.7230
147.8860,94.7230
147.7903,94.7040
147.7092,94.6498
147.6550,94.5687
147.6360,94.4730
147.6360,93.9480
147.6550,93.8523
147.7092,93.7712
147.7903,93.7170
147.8860,93.6980
Z" /> 
<path style="fill:#000000; fill-opacity:1.0000; 
stroke:#000000; stroke-width:0.0000; stroke-opacity:1; 
stroke-linecap:round; stroke-linejoin:round;fill-rule:evenodd;"
d="M 148.7860,95.5230
148.8817,95.5420
148.9628,95.5962
149.0170,95.6773
149.0360,95.7730
149.0360,96.2980
149.0170,96.3937
148.9628,96.4748
148.8817,96.5290
148.7860,96.5480
147.8860,96.5480
147.7903,96.5290
147.7092,96.4748
147.6550,96.3937
147.6360,96.2980
147.6360,95.7730
147.6550,95.6773
147.7092,95.5962
147.7903,95.5420
147.8860,95.5230
Z" /> 
</g>
<g >
</g>
<g style="fill:#000000; fill-opacity:1.0000; 
stroke:#000000; stroke-width:0.0000; stroke-opacity:1; 
stroke-linecap:round; stroke-linejoin:round;">
<path style="fill:#000000; fill-opacity:1.0000; 
stroke:#000000; stroke-width:0.0000; stroke-opacity:1; 
stroke-linecap:round; stroke-linejoin:round;fill-rule:evenodd;"
d="M 173.2500,81.6204
173.3457,81.6394
173.4268,81.6936
173.4810,81.7747
173.5000,81.8704
173.5000,84.8704
173.4810,84.9661
173.4268,85.0472
173.3457,85.1014
173.2500,85.1204
172.1500,85.1204
172.0543,85.1014
171.9732,85.0472
171.9190,84.9661
171.9000,84.8704
171.9000,81.8704
171.9190,81.7747
171.9732,81.6936
172.0543,81.6394
172.1500,81.6204
Z" /> 
<path style="fill:#000000; fill-opacity:1.0000; 
stroke:#000000; stroke-width:0.0000; stroke-opacity:1; 
stroke-linecap:round; stroke-linejoin:round;fill-rule:evenodd;"
d="M 173.2500,87.0204
173.3457,87.0394
173.4268,87.0936
173.4810,87.1747
173.5000,87.2704
173.5000,90.2704
173.4810,90.3661
173.4268,90.4472
173.3457,90.5014
173.2500,90.5204
172.1500,90.5204
172.0543,90.5014
171.9732,90.4472
171.9190,90.3661
171.9000,90.2704
171.9000,87.2704
171.9190,87.1747
171.9732,87.0936
172.0543,87.0394
172.1500,87.0204
Z" /> 
</g>
<g >
</g>
<g >
</g>
<g >
</g>
<g style="fill:#000000; fill-opacity:1.0000; 
stroke:#000000; stroke-width:0.0000; stroke-opacity:1; 
stroke-linecap:round; stroke-linejoin:round;">
<path style="fill:#000000; fill-opacity:1.0000; 
stroke:#000000; stroke-width:0.0000; stroke-opacity:1; 
stroke-linecap:round; stroke-linejoin:round;fill-rule:evenodd;"
d="M 180.0760,109.7840
180.1717,109.8030
180.2528,109.8572
180.3070,109.9383
180.3260,110.0340
180.3260,110.8340
180.3070,110.9297
180.2528,111.0108
180.1717,111.0650
180.0760,111.0840
178.8260,111.0840
178.7303,111.0650
178.6492,111.0108
178.5950,110.9297
178.5760,110.8340
178.5760,110.0340
178.5950,109.9383
178.6492,109.8572
178.7303,109.8030
178.8260,109.7840
Z" /> 
<path style="fill:#000000; fill-opacity:1.0000; 
stroke:#000000; stroke-width:0.0000; stroke-opacity:1; 
stroke-linecap:round; stroke-linejoin:round;fill-rule:evenodd;"
d="M 180.0760,112.8840
180.1717,112.9030
180.2528,112.9572
180.3070,113.0383
180.3260,113.1340
180.3260,113.9340
180.3070,114.0297
180.2528,114.1108
180.1717,114.1650
180.0760,114.1840
178.8260,114.1840
178.7303,114.1650
178.6492,114.1108
178.5950,114.0297
178.5760,113.9340
178.5760,113.1340
178.5950,113.0383
178.6492,112.9572
178.7303,112.9030
178.8260,112.8840
Z" /> 
</g>
<g >
</g>
<g style="fill:#000000; fill-opacity:1.0000; 
stroke:#000000; stroke-width:0.0000; stroke-opacity:1; 
stroke-linecap:round; stroke-linejoin:round;">
<path style="fill:#000000; fill-opacity:1.0000; 
stroke:#000000; stroke-width:0.0000; stroke-opacity:1; 
stroke-linecap:round; stroke-linejoin:round;fill-rule:evenodd;"
d="M 163.3162,121.1620
163.3333,121.0759
163.3821,121.0029
163.4551,120.9541
163.5412,120.9370
163.9912,120.9370
164.0773,120.9541
164.1503,121.0029
164.1991,121.0759
164.2162,121.1620
164.2162,121.6620
164.1991,121.7481
164.1503,121.8211
164.0773,121.8699
163.9912,121.8870
163.5412,121.8870
163.4551,121.8699
163.3821,121.8211
163.3333,121.7481
163.3162,121.6620
Z" /> 
<path style="fill:#000000; fill-opacity:1.0000; 
stroke:#000000; stroke-width:0.0000; stroke-opacity:1; 
stroke-linecap:round; stroke-linejoin:round;fill-rule:evenodd;"
d="M 164.8662,121.1620
164.8833,121.0759
164.9321,121.0029
165.0051,120.9541
165.0912,120.9370
165.5412,120.9370
165.6273,120.9541
165.7003,121.0029
165.7491,121.0759
165.7662,121.1620
165.7662,121.6620
165.7491,121.7481
165.7003,121.8211
165.6273,121.8699
165.5412,121.8870
165.0912,121.8870
165.0051,121.8699
164.9321,121.8211
164.8833,121.7481
164.8662,121.6620
Z" /> 
</g>
<g >
</g>
<g >
</g>
<g style="fill:#000000; fill-opacity:1.0000; 
stroke:#000000; stroke-width:0.0000; stroke-opacity:1; 
stroke-linecap:round; stroke-linejoin:round;">
<path style="fill:#000000; fill-opacity:1.0000; 
stroke:#000000; stroke-width:0.0000; stroke-opacity:1; 
stroke-linecap:round; stroke-linejoin:round;fill-rule:evenodd;"
d="M 133.8800,70.4254
133.8990,70.3297
133.9532,70.2486
134.0343,70.1944
134.1300,70.1754
134.6300,70.1754
134.7257,70.1944
134.8068,70.2486
134.8610,70.3297
134.8800,70.4254
134.8800,71.3754
134.8610,71.4711
134.8068,71.5522
134.7257,71.6064
134.6300,71.6254
134.1300,71.6254
134.0343,71.6064
133.9532,71.5522
133.8990,71.4711
133.8800,71.3754
Z" /> 
<path style="fill:#000000; fill-opacity:1.0000; 
stroke:#000000; stroke-width:0.0000; stroke-opacity:1; 
stroke-linecap:round; stroke-linejoin:round;fill-rule:evenodd;"
d="M 135.7800,70.4254
135.7990,70.3297
135.8532,70.2486
135.9343,70.1944
136.0300,70.1754
136.5300,70.1754
136.6257,70.1944
136.7068,70.2486
136.7610,70.3297
136.7800,70.4254
136.7800,71.3754
136.7610,71.4711
136.7068,71.5522
136.6257,71.6064
136.5300,71.6254
136.0300,71.6254
135.9343,71.6064
135.8532,71.5522
135.7990,71.4711
135.7800,71.3754
Z" /> 
</g>
<g >
</g>
<g style="fill:#000000; fill-opacity:1.0000; 
stroke:#000000; stroke-width:0.0000; stroke-opacity:1; 
stroke-linecap:round; stroke-linejoin:round;">
<path style="fill:#000000; fill-opacity:1.0000; 
stroke:#000000; stroke-width:0.0000; stroke-opacity:1; 
stroke-linecap:round; stroke-linejoin:round;fill-rule:evenodd;"
d="M 129.8165,133.5810
129.7237,133.5625
129.6450,133.5100
129.5925,133.4313
129.5740,133.3385
129.5740,132.8535
129.5925,132.7607
129.6450,132.6820
129.7237,132.6295
129.8165,132.6110
130.6615,132.6110
130.7543,132.6295
130.8330,132.6820
130.8855,132.7607
130.9040,132.8535
130.9040,133.3385
130.8855,133.4313
130.8330,133.5100
130.7543,133.5625
130.6615,133.5810
Z" /> 
<path style="fill:#000000; fill-opacity:1.0000; 
stroke:#000000; stroke-width:0.0000; stroke-opacity:1; 
stroke-linecap:round; stroke-linejoin:round;fill-rule:evenodd;"
d="M 131.4665,133.5810
131.3737,133.5625
131.2950,133.5100
131.2425,133.4313
131.2240,133.3385
131.2240,132.8535
131.2425,132.7607
131.2950,132.6820
131.3737,132.6295
131.4665,132.6110
132.3115,132.6110
132.4043,132.6295
132.4830,132.6820
132.5355,132.7607
132.5540,132.8535
132.5540,133.3385
132.5355,133.4313
132.4830,133.5100
132.4043,133.5625
132.3115,133.5810
Z" /> 
<path style="fill:#000000; fill-opacity:1.0000; 
stroke:#000000; stroke-width:0.0000; stroke-opacity:1; 
stroke-linecap:round; stroke-linejoin:round;fill-rule:evenodd;"
d="M 129.8165,132.3810
129.7237,132.3625
129.6450,132.3100
129.5925,132.2313
129.5740,132.1385
129.5740,131.6535
129.5925,131.5607
129.6450,131.4820
129.7237,131.4295
129.8165,131.4110
130.6615,131.4110
130.7543,131.4295
130.8330,131.4820
130.8855,131.5607
130.9040,131.6535
130.9040,132.1385
130.8855,132.2313
130.8330,132.3100
130.7543,132.3625
130.6615,132.3810
Z" /> 
<path style="fill:#000000; fill-opacity:1.0000; 
stroke:#000000; stroke-width:0.0000; stroke-opacity:1; 
stroke-linecap:round; stroke-linejoin:round;fill-rule:evenodd;"
d="M 131.4665,132.3810
131.3737,132.3625
131.2950,132.3100
131.2425,132.2313
131.2240,132.1385
131.2240,131.6535
131.2425,131.5607
131.2950,131.4820
131.3737,131.4295
131.4665,131.4110
132.3115,131.4110
132.4043,131.4295
132.4830,131.4820
132.5355,131.5607
132.5540,131.6535
132.5540,132.1385
132.5355,132.2313
132.4830,132.3100
132.4043,132.3625
132.3115,132.3810
Z" /> 
<path style="fill:#000000; fill-opacity:1.0000; 
stroke:#000000; stroke-width:0.0000; stroke-opacity:1; 
stroke-linecap:round; stroke-linejoin:round;fill-rule:evenodd;"
d="M 132.8190,135.9460
132.7616,135.9346
132.7129,135.9021
132.6804,135.8534
132.6690,135.7960
132.6690,134.1460
132.6804,134.0886
132.7129,134.0399
132.7616,134.0074
132.8190,133.9960
133.1190,133.9960
133.1764,134.0074
133.2251,134.0399
133.2576,134.0886
133.2690,134.1460
133.2690,135.7960
133.2576,135.8534
133.2251,135.9021
133.1764,135.9346
133.1190,135.9460
Z" /> 
<path style="fill:#000000; fill-opacity:1.0000; 
stroke:#000000; stroke-width:0.0000; stroke-opacity:1; 
stroke-linecap:round; stroke-linejoin:round;fill-rule:evenodd;"
d="M 131.5490,135.9460
131.4916,135.9346
131.4429,135.9021
131.4104,135.8534
131.3990,135.7960
131.3990,134.1460
131.4104,134.0886
131.4429,134.0399
131.4916,134.0074
131.5490,133.9960
131.8490,133.9960
131.9064,134.0074
131.9551,134.0399
131.9876,134.0886
131.9990,134.1460
131.9990,135.7960
131.9876,135.8534
131.9551,135.9021
131.9064,135.9346
131.8490,135.9460
Z" /> 
<path style="fill:#000000; fill-opacity:1.0000; 
stroke:#000000; stroke-width:0.0000; stroke-opacity:1; 
stroke-linecap:round; stroke-linejoin:round;fill-rule:evenodd;"
d="M 130.2790,135.9460
130.2216,135.9346
130.1729,135.9021
130.1404,135.8534
130.1290,135.7960
130.1290,134.1460
130.1404,134.0886
130.1729,134.0399
130.2216,134.0074
130.2790,133.9960
130.5790,133.9960
130.6364,134.0074
130.6851,134.0399
130.7176,134.0886
130.7290,134.1460
130.7290,135.7960
130.7176,135.8534
130.6851,135.9021
130.6364,135.9346
130.5790,135.9460
Z" /> 
<path style="fill:#000000; fill-opacity:1.0000; 
stroke:#000000; stroke-width:0.0000; stroke-opacity:1; 
stroke-linecap:round; stroke-linejoin:round;fill-rule:evenodd;"
d="M 129.0090,135.9460
128.9516,135.9346
128.9029,135.9021
128.8704,135.8534
128.8590,135.7960
128.8590,134.1460
128.8704,134.0886
128.9029,134.0399
128.9516,134.0074
129.0090,133.9960
129.3090,133.9960
129.3664,134.0074
129.4151,134.0399
129.4476,134.0886
129.4590,134.1460
129.4590,135.7960
129.4476,135.8534
129.4151,135.9021
129.3664,135.9346
129.3090,135.9460
Z" /> 
<path style="fill:#000000; fill-opacity:1.0000; 
stroke:#000000; stroke-width:0.0000; stroke-opacity:1; 
stroke-linecap:round; stroke-linejoin:round;fill-rule:evenodd;"
d="M 129.0090,130.9960
128.9516,130.9846
128.9029,130.9521
128.8704,130.9034
128.8590,130.8460
128.8590,129.1960
128.8704,129.1386
128.9029,129.0899
128.9516,129.0574
129.0090,129.0460
129.3090,129.0460
129.3664,129.0574
129.4151,129.0899
129.4476,129.1386
129.4590,129.1960
129.4590,130.8460
129.4476,130.9034
129.4151,130.9521
129.3664,130.9846
129.3090,130.9960
Z" /> 
<path style="fill:#000000; fill-opacity:1.0000; 
stroke:#000000; stroke-width:0.0000; stroke-opacity:1; 
stroke-linecap:round; stroke-linejoin:round;fill-rule:evenodd;"
d="M 130.2790,130.9960
130.2216,130.9846
130.1729,130.9521
130.1404,130.9034
130.1290,130.8460
130.1290,129.1960
130.1404,129.1386
130.1729,129.0899
130.2216,129.0574
130.2790,129.0460
130.5790,129.0460
130.6364,129.0574
130.6851,129.0899
130.7176,129.1386
130.7290,129.1960
130.7290,130.8460
130.7176,130.9034
130.6851,130.9521
130.6364,130.9846
130.5790,130.9960
Z" /> 
<path style="fill:#000000; fill-opacity:1.0000; 
stroke:#000000; stroke-width:0.0000; stroke-opacity:1; 
stroke-linecap:round; stroke-linejoin:round;fill-rule:evenodd;"
d="M 131.5490,130.9960
131.4916,130.9846
131.4429,130.9521
131.4104,130.9034
131.3990,130.8460
131.3990,129.1960
131.4104,129.1386
131.4429,129.0899
131.4916,129.0574
131.5490,129.0460
131.8490,129.0460
131.9064,129.0574
131.9551,129.0899
131.9876,129.1386
131.9990,129.1960
131.9990,130.8460
131.9876,130.9034
131.9551,130.9521
131.9064,130.9846
131.8490,130.9960
Z" /> 
<path style="fill:#000000; fill-opacity:1.0000; 
stroke:#000000; stroke-width:0.0000; stroke-opacity:1; 
stroke-linecap:round; stroke-linejoin:round;fill-rule:evenodd;"
d="M 132.8190,130.9960
132.7616,130.9846
132.7129,130.9521
132.6804,130.9034
132.6690,130.8460
132.6690,129.1960
132.6804,129.1386
132.7129,129.0899
132.7616,129.0574
132.8190,129.0460
133.1190,129.0460
133.1764,129.0574
133.2251,129.0899
133.2576,129.1386
133.2690,129.1960
133.2690,130.8460
133.2576,130.9034
133.2251,130.9521
133.1764,130.9846
133.1190,130.9960
Z" /> 
</g>
<g >
</g>
<g style="fill:#000000; fill-opacity:1.0000; 
stroke:#000000; stroke-width:0.0000; stroke-opacity:1; 
stroke-linecap:round; stroke-linejoin:round;">
<path style="fill:#000000; fill-opacity:1.0000; 
stroke:#000000; stroke-width:0.0000; stroke-opacity:1; 
stroke-linecap:round; stroke-linejoin:round;fill-rule:evenodd;"
d="M 126.0695,87.5370
125.9767,87.5185
125.8980,87.4660
125.8455,87.3873
125.8270,87.2945
125.8270,86.8095
125.8455,86.7167
125.8980,86.6380
125.9767,86.5855
126.0695,86.5670
126.9145,86.5670
127.0073,86.5855
127.0860,86.6380
127.1385,86.7167
127.1570,86.8095
127.1570,87.2945
127.1385,87.3873
127.0860,87.4660
127.0073,87.5185
126.9145,87.5370
Z" /> 
<path style="fill:#000000; fill-opacity:1.0000; 
stroke:#000000; stroke-width:0.0000; stroke-opacity:1; 
stroke-linecap:round; stroke-linejoin:round;fill-rule:evenodd;"
d="M 127.7195,87.5370
127.6267,87.5185
127.5480,87.4660
127.4955,87.3873
127.4770,87.2945
127.4770,86.8095
127.4955,86.7167
127.5480,86.6380
127.6267,86.5855
127.7195,86.5670
128.5645,86.5670
128.6573,86.5855
128.7360,86.6380
128.7885,86.7167
128.8070,86.8095
128.8070,87.2945
128.7885,87.3873
128.7360,87.4660
128.6573,87.5185
128.5645,87.5370
Z" /> 
<path style="fill:#000000; fill-opacity:1.0000; 
stroke:#000000; stroke-width:0.0000; stroke-opacity:1; 
stroke-linecap:round; stroke-linejoin:round;fill-rule:evenodd;"
d="M 126.0695,86.3370
125.9767,86.3185
125.8980,86.2660
125.8455,86.1873
125.8270,86.0945
125.8270,85.6095
125.8455,85.5167
125.8980,85.4380
125.9767,85.3855
126.0695,85.3670
126.9145,85.3670
127.0073,85.3855
127.0860,85.4380
127.1385,85.5167
127.1570,85.6095
127.1570,86.0945
127.1385,86.1873
127.0860,86.2660
127.0073,86.3185
126.9145,86.3370
Z" /> 
<path style="fill:#000000; fill-opacity:1.0000; 
stroke:#000000; stroke-width:0.0000; stroke-opacity:1; 
stroke-linecap:round; stroke-linejoin:round;fill-rule:evenodd;"
d="M 127.7195,86.3370
127.6267,86.3185
127.5480,86.2660
127.4955,86.1873
127.4770,86.0945
127.4770,85.6095
127.4955,85.5167
127.5480,85.4380
127.6267,85.3855
127.7195,85.3670
128.5645,85.3670
128.6573,85.3855
128.7360,85.4380
128.7885,85.5167
128.8070,85.6095
128.8070,86.0945
128.7885,86.1873
128.7360,86.2660
128.6573,86.3185
128.5645,86.3370
Z" /> 
<path style="fill:#000000; fill-opacity:1.0000; 
stroke:#000000; stroke-width:0.0000; stroke-opacity:1; 
stroke-linecap:round; stroke-linejoin:round;fill-rule:evenodd;"
d="M 129.0720,89.9020
129.0146,89.8906
128.9659,89.8581
128.9334,89.8094
128.9220,89.7520
128.9220,88.1020
128.9334,88.0446
128.9659,87.9959
129.0146,87.9634
129.0720,87.9520
129.3720,87.9520
129.4294,87.9634
129.4781,87.9959
129.5106,88.0446
129.5220,88.1020
129.5220,89.7520
129.5106,89.8094
129.4781,89.8581
129.4294,89.8906
129.3720,89.9020
Z" /> 
<path style="fill:#000000; fill-opacity:1.0000; 
stroke:#000000; stroke-width:0.0000; stroke-opacity:1; 
stroke-linecap:round; stroke-linejoin:round;fill-rule:evenodd;"
d="M 127.8020,89.9020
127.7446,89.8906
127.6959,89.8581
127.6634,89.8094
127.6520,89.7520
127.6520,88.1020
127.6634,88.0446
127.6959,87.9959
127.7446,87.9634
127.8020,87.9520
128.1020,87.9520
128.1594,87.9634
128.2081,87.9959
128.2406,88.0446
128.2520,88.1020
128.2520,89.7520
128.2406,89.8094
128.2081,89.8581
128.1594,89.8906
128.1020,89.9020
Z" /> 
<path style="fill:#000000; fill-opacity:1.0000; 
stroke:#000000; stroke-width:0.0000; stroke-opacity:1; 
stroke-linecap:round; stroke-linejoin:round;fill-rule:evenodd;"
d="M 126.5320,89.9020
126.4746,89.8906
126.4259,89.8581
126.3934,89.8094
126.3820,89.7520
126.3820,88.1020
126.3934,88.0446
126.4259,87.9959
126.4746,87.9634
126.5320,87.9520
126.8320,87.9520
126.8894,87.9634
126.9381,87.9959
126.9706,88.0446
126.9820,88.1020
126.9820,89.7520
126.9706,89.8094
126.9381,89.8581
126.8894,89.8906
126.8320,89.9020
Z" /> 
<path style="fill:#000000; fill-opacity:1.0000; 
stroke:#000000; stroke-width:0.0000; stroke-opacity:1; 
stroke-linecap:round; stroke-linejoin:round;fill-rule:evenodd;"
d="M 125.2620,89.9020
125.2046,89.8906
125.1559,89.8581
125.1234,89.8094
125.1120,89.7520
125.1120,88.1020
125.1234,88.0446
125.1559,87.9959
125.2046,87.9634
125.2620,87.9520
125.5620,87.9520
125.6194,87.9634
125.6681,87.9959
125.7006,88.0446
125.7120,88.1020
125.7120,89.7520
125.7006,89.8094
125.6681,89.8581
125.6194,89.8906
125.5620,89.9020
Z" /> 
<path style="fill:#000000; fill-opacity:1.0000; 
stroke:#000000; stroke-width:0.0000; stroke-opacity:1; 
stroke-linecap:round; stroke-linejoin:round;fill-rule:evenodd;"
d="M 125.2620,84.9520
125.2046,84.9406
125.1559,84.9081
125.1234,84.8594
125.1120,84.8020
125.1120,83.1520
125.1234,83.0946
125.1559,83.0459
125.2046,83.0134
125.2620,83.0020
125.5620,83.0020
125.6194,83.0134
125.6681,83.0459
125.7006,83.0946
125.7120,83.1520
125.7120,84.8020
125.7006,84.8594
125.6681,84.9081
125.6194,84.9406
125.5620,84.9520
Z" /> 
<path style="fill:#000000; fill-opacity:1.0000; 
stroke:#000000; stroke-width:0.0000; stroke-opacity:1; 
stroke-linecap:round; stroke-linejoin:round;fill-rule:evenodd;"
d="M 126.5320,84.9520
126.4746,84.9406
126.4259,84.9081
126.3934,84.8594
126.3820,84.8020
126.3820,83.1520
126.3934,83.0946
126.4259,83.0459
126.4746,83.0134
126.5320,83.0020
126.8320,83.0020
126.8894,83.0134
126.9381,83.0459
126.9706,83.0946
126.9820,83.1520
126.9820,84.8020
126.9706,84.8594
126.9381,84.9081
126.8894,84.9406
126.8320,84.9520
Z" /> 
<path style="fill:#000000; fill-opacity:1.0000; 
stroke:#000000; stroke-width:0.0000; stroke-opacity:1; 
stroke-linecap:round; stroke-linejoin:round;fill-rule:evenodd;"
d="M 127.8020,84.9520
127.7446,84.9406
127.6959,84.9081
127.6634,84.8594
127.6520,84.8020
127.6520,83.1520
127.6634,83.0946
127.6959,83.0459
127.7446,83.0134
127.8020,83.0020
128.1020,83.0020
128.1594,83.0134
128.2081,83.0459
128.2406,83.0946
128.2520,83.1520
128.2520,84.8020
128.2406,84.8594
128.2081,84.9081
128.1594,84.9406
128.1020,84.9520
Z" /> 
<path style="fill:#000000; fill-opacity:1.0000; 
stroke:#000000; stroke-width:0.0000; stroke-opacity:1; 
stroke-linecap:round; stroke-linejoin:round;fill-rule:evenodd;"
d="M 129.0720,84.9520
129.0146,84.9406
128.9659,84.9081
128.9334,84.8594
128.9220,84.8020
128.9220,83.1520
128.9334,83.0946
128.9659,83.0459
129.0146,83.0134
129.0720,83.0020
129.3720,83.0020
129.4294,83.0134
129.4781,83.0459
129.5106,83.0946
129.5220,83.1520
129.5220,84.8020
129.5106,84.8594
129.4781,84.9081
129.4294,84.9406
129.3720,84.9520
Z" /> 
</g>
<g >
</g>
<g >
</g>
<g >
</g>
<g style="fill:#000000; fill-opacity:1.0000; 
stroke:#000000; stroke-width:0.0000; stroke-opacity:1; 
stroke-linecap:round; stroke-linejoin:round;">
<path style="fill:#000000; fill-opacity:1.0000; 
stroke:#000000; stroke-width:0.0000; stroke-opacity:1; 
stroke-linecap:round; stroke-linejoin:round;fill-rule:evenodd;"
d="M 146.5130,102.3580
146.4959,102.4441
146.4471,102.5171
146.3741,102.5659
146.2880,102.5830
145.8380,102.5830
145.7519,102.5659
145.6789,102.5171
145.6301,102.4441
145.6130,102.3580
145.6130,101.8580
145.6301,101.7719
145.6789,101.6989
145.7519,101.6501
145.8380,101.6330
146.2880,101.6330
146.3741,101.6501
146.4471,101.6989
146.4959,101.7719
146.5130,101.8580
Z" /> 
<path style="fill:#000000; fill-opacity:1.0000; 
stroke:#000000; stroke-width:0.0000; stroke-opacity:1; 
stroke-linecap:round; stroke-linejoin:round;fill-rule:evenodd;"
d="M 144.9630,102.3580
144.9459,102.4441
144.8971,102.5171
144.8241,102.5659
144.7380,102.5830
144.2880,102.5830
144.2019,102.5659
144.1289,102.5171
144.0801,102.4441
144.0630,102.3580
144.0630,101.8580
144.0801,101.7719
144.1289,101.6989
144.2019,101.6501
144.2880,101.6330
144.7380,101.6330
144.8241,101.6501
144.8971,101.6989
144.9459,101.7719
144.9630,101.8580
Z" /> 
</g>
<g >
</g>
<g >
</g>
<g style="fill:#000000; fill-opacity:1.0000; 
stroke:#000000; stroke-width:0.0000; stroke-opacity:1; 
stroke-linecap:round; stroke-linejoin:round;">
<path style="fill:#000000; fill-opacity:1.0000; 
stroke:#000000; stroke-width:0.0000; stroke-opacity:1; 
stroke-linecap:round; stroke-linejoin:round;fill-rule:evenodd;"
d="M 119.3600,81.9204
119.4557,81.9394
119.5368,81.9936
119.5910,82.0747
119.6100,82.1704
119.6100,85.1704
119.5910,85.2661
119.5368,85.3472
119.4557,85.4014
119.3600,85.4204
118.2600,85.4204
118.1643,85.4014
118.0832,85.3472
118.0290,85.2661
118.0100,85.1704
118.0100,82.1704
118.0290,82.0747
118.0832,81.9936
118.1643,81.9394
118.2600,81.9204
Z" /> 
<path style="fill:#000000; fill-opacity:1.0000; 
stroke:#000000; stroke-width:0.0000; stroke-opacity:1; 
stroke-linecap:round; stroke-linejoin:round;fill-rule:evenodd;"
d="M 119.3600,87.3204
119.4557,87.3394
119.5368,87.3936
119.5910,87.4747
119.6100,87.5704
119.6100,90.5704
119.5910,90.6661
119.5368,90.7472
119.4557,90.8014
119.3600,90.8204
118.2600,90.8204
118.1643,90.8014
118.0832,90.7472
118.0290,90.6661
118.0100,90.5704
118.0100,87.5704
118.0290,87.4747
118.0832,87.3936
118.1643,87.3394
118.2600,87.3204
Z" /> 
</g>
<g >
</g>
<g style="fill:#000000; fill-opacity:1.0000; 
stroke:#000000; stroke-width:0.0000; stroke-opacity:1; 
stroke-linecap:round; stroke-linejoin:round;">
<path style="fill:#000000; fill-opacity:1.0000; 
stroke:#000000; stroke-width:0.0000; stroke-opacity:1; 
stroke-linecap:round; stroke-linejoin:round;fill-rule:evenodd;"
d="M 185.0900,106.5104
185.1857,106.5294
185.2668,106.5836
185.3210,106.6647
185.3400,106.7604
185.3400,109.7604
185.3210,109.8561
185.2668,109.9372
185.1857,109.9914
185.0900,110.0104
183.9900,110.0104
183.8943,109.9914
183.8132,109.9372
183.7590,109.8561
183.7400,109.7604
183.7400,106.7604
183.7590,106.6647
183.8132,106.5836
183.8943,106.5294
183.9900,106.5104
Z" /> 
<path style="fill:#000000; fill-opacity:1.0000; 
stroke:#000000; stroke-width:0.0000; stroke-opacity:1; 
stroke-linecap:round; stroke-linejoin:round;fill-rule:evenodd;"
d="M 185.0900,111.9104
185.1857,111.9294
185.2668,111.9836
185.3210,112.0647
185.3400,112.1604
185.3400,115.1604
185.3210,115.2561
185.2668,115.3372
185.1857,115.3914
185.0900,115.4104
183.9900,115.4104
183.8943,115.3914
183.8132,115.3372
183.7590,115.2561
183.7400,115.1604
183.7400,112.1604
183.7590,112.0647
183.8132,111.9836
183.8943,111.9294
183.9900,111.9104
Z" /> 
</g>
<g >
</g>
<g >
</g>
<g style="fill:#000000; fill-opacity:1.0000; 
stroke:#000000; stroke-width:0.0000; stroke-opacity:1; 
stroke-linecap:round; stroke-linejoin:round;">
<path style="fill:#000000; fill-opacity:1.0000; 
stroke:#000000; stroke-width:0.0000; stroke-opacity:1; 
stroke-linecap:round; stroke-linejoin:round;fill-rule:evenodd;"
d="M 133.5400,72.7804
135.0400,72.7804
135.0400,74.7804
133.5400,74.7804
Z" /> 
<path style="fill:#000000; fill-opacity:1.0000; 
stroke:#000000; stroke-width:0.0000; stroke-opacity:1; 
stroke-linecap:round; stroke-linejoin:round;fill-rule:evenodd;"
d="M 135.8400,72.7804
137.3400,72.7804
137.3400,74.7804
135.8400,74.7804
Z" /> 
<path style="fill:#000000; fill-opacity:1.0000; 
stroke:#000000; stroke-width:0.0000; stroke-opacity:1; 
stroke-linecap:round; stroke-linejoin:round;fill-rule:evenodd;"
d="M 134.6900,79.0804
138.4900,79.0804
138.4900,81.0804
134.6900,81.0804
Z" /> 
<path style="fill:#000000; fill-opacity:1.0000; 
stroke:#000000; stroke-width:0.0000; stroke-opacity:1; 
stroke-linecap:round; stroke-linejoin:round;fill-rule:evenodd;"
d="M 138.1400,72.7804
139.6400,72.7804
139.6400,74.7804
138.1400,74.7804
Z" /> 
</g>
<g >
</g>
<g >
</g>
<g style="fill:#000000; fill-opacity:1.0000; 
stroke:#000000; stroke-width:0.0000; stroke-opacity:1; 
stroke-linecap:round; stroke-linejoin:round;">
<path style="fill:#000000; fill-opacity:1.0000; 
stroke:#000000; stroke-width:0.0000; stroke-opacity:1; 
stroke-linecap:round; stroke-linejoin:round;fill-rule:evenodd;"
d="M 119.8800,120.8104
119.8990,120.7147
119.9532,120.6336
120.0343,120.5794
120.1300,120.5604
123.1300,120.5604
123.2257,120.5794
123.3068,120.6336
123.3610,120.7147
123.3800,120.8104
123.3800,121.9104
123.3610,122.0061
123.3068,122.0872
123.2257,122.1414
123.1300,122.1604
120.1300,122.1604
120.0343,122.1414
119.9532,122.0872
119.8990,122.0061
119.8800,121.9104
Z" /> 
<path style="fill:#000000; fill-opacity:1.0000; 
stroke:#000000; stroke-width:0.0000; stroke-opacity:1; 
stroke-linecap:round; stroke-linejoin:round;fill-rule:evenodd;"
d="M 125.2800,120.8104
125.2990,120.7147
125.3532,120.6336
125.4343,120.5794
125.5300,120.5604
128.5300,120.5604
128.6257,120.5794
128.7068,120.6336
128.7610,120.7147
128.7800,120.8104
128.7800,121.9104
128.7610,122.0061
128.7068,122.0872
128.6257,122.1414
128.5300,122.1604
125.5300,122.1604
125.4343,122.1414
125.3532,122.0872
125.2990,122.0061
125.2800,121.9104
Z" /> 
</g>
<g >
</g>
<g style="fill:#000000; fill-opacity:1.0000; 
stroke:#000000; stroke-width:0.0000; stroke-opacity:1; 
stroke-linecap:round; stroke-linejoin:round;">
<path style="fill:#000000; fill-opacity:1.0000; 
stroke:#000000; stroke-width:0.0000; stroke-opacity:1; 
stroke-linecap:round; stroke-linejoin:round;fill-rule:evenodd;"
d="M 151.5700,145.0171
151.5700,144.0171
153.4700,144.0171
153.4700,145.0171
Z" /> 
<path style="fill:#000000; fill-opacity:1.0000; 
stroke:#000000; stroke-width:0.0000; stroke-opacity:1; 
stroke-linecap:round; stroke-linejoin:round;fill-rule:evenodd;"
d="M 154.8700,142.4771
154.8700,141.4771
156.7700,141.4771
156.7700,142.4771
Z" /> 
<path style="fill:#000000; fill-opacity:1.0000; 
stroke:#000000; stroke-width:0.0000; stroke-opacity:1; 
stroke-linecap:round; stroke-linejoin:round;fill-rule:evenodd;"
d="M 151.5700,139.9372
151.5700,138.9372
153.4700,138.9372
153.4700,139.9372
Z" /> 
<path style="fill:#000000; fill-opacity:1.0000; 
stroke:#000000; stroke-width:0.0000; stroke-opacity:1; 
stroke-linecap:round; stroke-linejoin:round;fill-rule:evenodd;"
d="M 154.8700,137.3971
154.8700,136.3971
156.7700,136.3971
156.7700,137.3971
Z" /> 
<path style="fill:#000000; fill-opacity:1.0000; 
stroke:#000000; stroke-width:0.0000; stroke-opacity:1; 
stroke-linecap:round; stroke-linejoin:round;fill-rule:evenodd;"
d="M 151.5700,134.8571
151.5700,133.8571
153.4700,133.8571
153.4700,134.8571
Z" /> 
<path style="fill:#000000; fill-opacity:1.0000; 
stroke:#000000; stroke-width:0.0000; stroke-opacity:1; 
stroke-linecap:round; stroke-linejoin:round;fill-rule:evenodd;"
d="M 154.8700,132.3171
154.8700,131.3171
156.7700,131.3171
156.7700,132.3171
Z" /> 
<path style="fill:#000000; fill-opacity:1.0000; 
stroke:#000000; stroke-width:0.0000; stroke-opacity:1; 
stroke-linecap:round; stroke-linejoin:round;fill-rule:evenodd;"
d="M 151.5700,129.7772
151.5700,128.7772
153.4700,128.7772
153.4700,129.7772
Z" /> 
<path style="fill:#000000; fill-opacity:1.0000; 
stroke:#000000; stroke-width:0.0000; stroke-opacity:1; 
stroke-linecap:round; stroke-linejoin:round;fill-rule:evenodd;"
d="M 154.8700,127.2371
154.8700,126.2371
156.7700,126.2371
156.7700,127.2371
Z" /> 
<path style="fill:#000000; fill-opacity:1.0000; 
stroke:#000000; stroke-width:0.0000; stroke-opacity:1; 
stroke-linecap:round; stroke-linejoin:round;fill-rule:evenodd;"
d="M 151.5700,124.6971
151.5700,123.6971
153.4700,123.6971
153.4700,124.6971
Z" /> 
<path style="fill:#000000; fill-opacity:1.0000; 
stroke:#000000; stroke-width:0.0000; stroke-opacity:1; 
stroke-linecap:round; stroke-linejoin:round;fill-rule:evenodd;"
d="M 154.8700,122.1572
154.8700,121.1572
156.7700,121.1572
156.7700,122.1572
Z" /> 
<path style="fill:#000000; fill-opacity:1.0000; 
stroke:#000000; stroke-width:0.0000; stroke-opacity:1; 
stroke-linecap:round; stroke-linejoin:round;fill-rule:evenodd;"
d="M 151.5700,119.6171
151.5700,118.6171
153.4700,118.6171
153.4700,119.6171
Z" /> 
<path style="fill:#000000; fill-opacity:1.0000; 
stroke:#000000; stroke-width:0.0000; stroke-opacity:1; 
stroke-linecap:round; stroke-linejoin:round;fill-rule:evenodd;"
d="M 154.8700,117.0771
154.8700,116.0771
156.7700,116.0771
156.7700,117.0771
Z" /> 
<path style="fill:#000000; fill-opacity:1.0000; 
stroke:#000000; stroke-width:0.0000; stroke-opacity:1; 
stroke-linecap:round; stroke-linejoin:round;fill-rule:evenodd;"
d="M 151.5700,114.5371
151.5700,113.5371
153.4700,113.5371
153.4700,114.5371
Z" /> 
<path style="fill:#000000; fill-opacity:1.0000; 
stroke:#000000; stroke-width:0.0000; stroke-opacity:1; 
stroke-linecap:round; stroke-linejoin:round;fill-rule:evenodd;"
d="M 154.8700,111.9971
154.8700,110.9971
156.7700,110.9971
156.7700,111.9971
Z" /> 
<path style="fill:#000000; fill-opacity:1.0000; 
stroke:#000000; stroke-width:0.0000; stroke-opacity:1; 
stroke-linecap:round; stroke-linejoin:round;fill-rule:evenodd;"
d="M 151.5700,109.4571
151.5700,108.4571
153.4700,108.4571
153.4700,109.4571
Z" /> 
<path style="fill:#000000; fill-opacity:1.0000; 
stroke:#000000; stroke-width:0.0000; stroke-opacity:1; 
stroke-linecap:round; stroke-linejoin:round;fill-rule:evenodd;"
d="M 154.8700,106.9171
154.8700,105.9171
156.7700,105.9171
156.7700,106.9171
Z" /> 
<path style="fill:#000000; fill-opacity:1.0000; 
stroke:#000000; stroke-width:0.0000; stroke-opacity:1; 
stroke-linecap:round; stroke-linejoin:round;fill-rule:evenodd;"
d="M 151.5700,104.3772
151.5700,103.3772
153.4700,103.3772
153.4700,104.3772
Z" /> 
<path style="fill:#000000; fill-opacity:1.0000; 
stroke:#000000; stroke-width:0.0000; stroke-opacity:1; 
stroke-linecap:round; stroke-linejoin:round;fill-rule:evenodd;"
d="M 154.8700,101.8371
154.8700,100.8371
156.7700,100.8371
156.7700,101.8371
Z" /> 
<path style="fill:#000000; fill-opacity:1.0000; 
stroke:#000000; stroke-width:0.0000; stroke-opacity:1; 
stroke-linecap:round; stroke-linejoin:round;fill-rule:evenodd;"
d="M 151.5700,99.2972
151.5700,98.2972
153.4700,98.2972
153.4700,99.2972
Z" /> 
<path style="fill:#000000; fill-opacity:1.0000; 
stroke:#000000; stroke-width:0.0000; stroke-opacity:1; 
stroke-linecap:round; stroke-linejoin:round;fill-rule:evenodd;"
d="M 154.8700,96.7571
154.8700,95.7571
156.7700,95.7571
156.7700,96.7571
Z" /> 
<path style="fill:#000000; fill-opacity:1.0000; 
stroke:#000000; stroke-width:0.0000; stroke-opacity:1; 
stroke-linecap:round; stroke-linejoin:round;fill-rule:evenodd;"
d="M 151.5700,94.2171
151.5700,93.2171
153.4700,93.2171
153.4700,94.2171
Z" /> 
<path style="fill:#000000; fill-opacity:1.0000; 
stroke:#000000; stroke-width:0.0000; stroke-opacity:1; 
stroke-linecap:round; stroke-linejoin:round;fill-rule:evenodd;"
d="M 154.8700,91.6771
154.8700,90.6771
156.7700,90.6771
156.7700,91.6771
Z" /> 
<path style="fill:#000000; fill-opacity:1.0000; 
stroke:#000000; stroke-width:0.0000; stroke-opacity:1; 
stroke-linecap:round; stroke-linejoin:round;fill-rule:evenodd;"
d="M 151.5700,89.1371
151.5700,88.1371
153.4700,88.1371
153.4700,89.1371
Z" /> 
<path style="fill:#000000; fill-opacity:1.0000; 
stroke:#000000; stroke-width:0.0000; stroke-opacity:1; 
stroke-linecap:round; stroke-linejoin:round;fill-rule:evenodd;"
d="M 154.8700,86.5971
154.8700,85.5971
156.7700,85.5971
156.7700,86.5971
Z" /> 
</g>
<g >
</g>
<g >
</g>
<g >
</g>
<g >
</g>
<g >
</g>
<g style="fill:#000000; fill-opacity:1.0000; 
stroke:#000000; stroke-width:0.0000; stroke-opacity:1; 
stroke-linecap:round; stroke-linejoin:round;">
<path style="fill:#000000; fill-opacity:1.0000; 
stroke:#000000; stroke-width:0.0000; stroke-opacity:1; 
stroke-linecap:round; stroke-linejoin:round;fill-rule:evenodd;"
d="M 132.1970,82.9470
132.2927,82.9660
132.3738,83.0202
132.4280,83.1013
132.4470,83.1970
132.4470,83.9970
132.4280,84.0927
132.3738,84.1738
132.2927,84.2280
132.1970,84.2470
130.9470,84.2470
130.8513,84.2280
130.7702,84.1738
130.7160,84.0927
130.6970,83.9970
130.6970,83.1970
130.7160,83.1013
130.7702,83.0202
130.8513,82.9660
130.9470,82.9470
Z" /> 
<path style="fill:#000000; fill-opacity:1.0000; 
stroke:#000000; stroke-width:0.0000; stroke-opacity:1; 
stroke-linecap:round; stroke-linejoin:round;fill-rule:evenodd;"
d="M 132.1970,86.0470
132.2927,86.0660
132.3738,86.1202
132.4280,86.2013
132.4470,86.2970
132.4470,87.0970
132.4280,87.1927
132.3738,87.2738
132.2927,87.3280
132.1970,87.3470
130.9470,87.3470
130.8513,87.3280
130.7702,87.2738
130.7160,87.1927
130.6970,87.0970
130.6970,86.2970
130.7160,86.2013
130.7702,86.1202
130.8513,86.0660
130.9470,86.0470
Z" /> 
</g>
<g >
</g>
<g style="fill:#000000; fill-opacity:1.0000; 
stroke:#000000; stroke-width:0.0000; stroke-opacity:1; 
stroke-linecap:round; stroke-linejoin:round;">
<path style="fill:#000000; fill-opacity:1.0000; 
stroke:#000000; stroke-width:0.0000; stroke-opacity:1; 
stroke-linecap:round; stroke-linejoin:round;fill-rule:evenodd;"
d="M 160.2500,71.0454
160.2310,71.1411
160.1768,71.2222
160.0957,71.2764
160.0000,71.2954
159.5000,71.2954
159.4043,71.2764
159.3232,71.2222
159.2690,71.1411
159.2500,71.0454
159.2500,70.0954
159.2690,69.9997
159.3232,69.9186
159.4043,69.8644
159.5000,69.8454
160.0000,69.8454
160.0957,69.8644
160.1768,69.9186
160.2310,69.9997
160.2500,70.0954
Z" /> 
<path style="fill:#000000; fill-opacity:1.0000; 
stroke:#000000; stroke-width:0.0000; stroke-opacity:1; 
stroke-linecap:round; stroke-linejoin:round;fill-rule:evenodd;"
d="M 158.3500,71.0454
158.3310,71.1411
158.2768,71.2222
158.1957,71.2764
158.1000,71.2954
157.6000,71.2954
157.5043,71.2764
157.4232,71.2222
157.3690,71.1411
157.3500,71.0454
157.3500,70.0954
157.3690,69.9997
157.4232,69.9186
157.5043,69.8644
157.6000,69.8454
158.1000,69.8454
158.1957,69.8644
158.2768,69.9186
158.3310,69.9997
158.3500,70.0954
Z" /> 
</g>
<g >
</g>
<g >
</g>
<g style="fill:#000000; fill-opacity:1.0000; 
stroke:#000000; stroke-width:0.0000; stroke-opacity:1; 
stroke-linecap:round; stroke-linejoin:round;">
<path style="fill:#000000; fill-opacity:1.0000; 
stroke:#000000; stroke-width:0.0000; stroke-opacity:1; 
stroke-linecap:round; stroke-linejoin:round;fill-rule:evenodd;"
d="M 144.8500,67.2000
144.8500,62.8000
148.1500,62.8000
148.1500,67.2000
Z" /> 
<path style="fill:#000000; fill-opacity:1.0000; 
stroke:#000000; stroke-width:0.0000; stroke-opacity:1; 
stroke-linecap:round; stroke-linejoin:round;fill-rule:evenodd;"
d="M 137.4000,59.1000
137.4000,52.9000
141.3000,52.9000
141.3000,59.1000
Z" /> 
<path style="fill:#000000; fill-opacity:1.0000; 
stroke:#000000; stroke-width:0.0000; stroke-opacity:1; 
stroke-linecap:round; stroke-linejoin:round;fill-rule:evenodd;"
d="M 150.3000,59.1000
150.3000,52.9000
154.2000,52.9000
154.2000,59.1000
Z" /> 
</g>
<g >
</g>
<g style="fill:#000000; fill-opacity:1.0000; 
stroke:#000000; stroke-width:0.0000; stroke-opacity:1; 
stroke-linecap:round; stroke-linejoin:round;">
<path style="fill:#000000; fill-opacity:1.0000; 
stroke:#000000; stroke-width:0.0000; stroke-opacity:1; 
stroke-linecap:round; stroke-linejoin:round;fill-rule:evenodd;"
d="M 160.0675,86.5454
159.9747,86.5269
159.8960,86.4744
159.8435,86.3957
159.8250,86.3029
159.8250,85.8179
159.8435,85.7251
159.8960,85.6464
159.9747,85.5939
160.0675,85.5754
160.9125,85.5754
161.0053,85.5939
161.0840,85.6464
161.1365,85.7251
161.1550,85.8179
161.1550,86.3029
161.1365,86.3957
161.0840,86.4744
161.0053,86.5269
160.9125,86.5454
Z" /> 
<path style="fill:#000000; fill-opacity:1.0000; 
stroke:#000000; stroke-width:0.0000; stroke-opacity:1; 
stroke-linecap:round; stroke-linejoin:round;fill-rule:evenodd;"
d="M 161.7175,86.5454
161.6247,86.5269
161.5460,86.4744
161.4935,86.3957
161.4750,86.3029
161.4750,85.8179
161.4935,85.7251
161.5460,85.6464
161.6247,85.5939
161.7175,85.5754
162.5625,85.5754
162.6553,85.5939
162.7340,85.6464
162.7865,85.7251
162.8050,85.8179
162.8050,86.3029
162.7865,86.3957
162.7340,86.4744
162.6553,86.5269
162.5625,86.5454
Z" /> 
<path style="fill:#000000; fill-opacity:1.0000; 
stroke:#000000; stroke-width:0.0000; stroke-opacity:1; 
stroke-linecap:round; stroke-linejoin:round;fill-rule:evenodd;"
d="M 160.0675,85.3454
159.9747,85.3269
159.8960,85.2744
159.8435,85.1957
159.8250,85.1029
159.8250,84.6179
159.8435,84.5251
159.8960,84.4464
159.9747,84.3939
160.0675,84.3754
160.9125,84.3754
161.0053,84.3939
161.0840,84.4464
161.1365,84.5251
161.1550,84.6179
161.1550,85.1029
161.1365,85.1957
161.0840,85.2744
161.0053,85.3269
160.9125,85.3454
Z" /> 
<path style="fill:#000000; fill-opacity:1.0000; 
stroke:#000000; stroke-width:0.0000; stroke-opacity:1; 
stroke-linecap:round; stroke-linejoin:round;fill-rule:evenodd;"
d="M 161.7175,85.3454
161.6247,85.3269
161.5460,85.2744
161.4935,85.1957
161.4750,85.1029
161.4750,84.6179
161.4935,84.5251
161.5460,84.4464
161.6247,84.3939
161.7175,84.3754
162.5625,84.3754
162.6553,84.3939
162.7340,84.4464
162.7865,84.5251
162.8050,84.6179
162.8050,85.1029
162.7865,85.1957
162.7340,85.2744
162.6553,85.3269
162.5625,85.3454
Z" /> 
<path style="fill:#000000; fill-opacity:1.0000; 
stroke:#000000; stroke-width:0.0000; stroke-opacity:1; 
stroke-linecap:round; stroke-linejoin:round;fill-rule:evenodd;"
d="M 163.0700,88.9104
163.0126,88.8990
162.9639,88.8665
162.9314,88.8178
162.9200,88.7604
162.9200,87.1104
162.9314,87.0530
162.9639,87.0043
163.0126,86.9718
163.0700,86.9604
163.3700,86.9604
163.4274,86.9718
163.4761,87.0043
163.5086,87.0530
163.5200,87.1104
163.5200,88.7604
163.5086,88.8178
163.4761,88.8665
163.4274,88.8990
163.3700,88.9104
Z" /> 
<path style="fill:#000000; fill-opacity:1.0000; 
stroke:#000000; stroke-width:0.0000; stroke-opacity:1; 
stroke-linecap:round; stroke-linejoin:round;fill-rule:evenodd;"
d="M 161.8000,88.9104
161.7426,88.8990
161.6939,88.8665
161.6614,88.8178
161.6500,88.7604
161.6500,87.1104
161.6614,87.0530
161.6939,87.0043
161.7426,86.9718
161.8000,86.9604
162.1000,86.9604
162.1574,86.9718
162.2061,87.0043
162.2386,87.0530
162.2500,87.1104
162.2500,88.7604
162.2386,88.8178
162.2061,88.8665
162.1574,88.8990
162.1000,88.9104
Z" /> 
<path style="fill:#000000; fill-opacity:1.0000; 
stroke:#000000; stroke-width:0.0000; stroke-opacity:1; 
stroke-linecap:round; stroke-linejoin:round;fill-rule:evenodd;"
d="M 160.5300,88.9104
160.4726,88.8990
160.4239,88.8665
160.3914,88.8178
160.3800,88.7604
160.3800,87.1104
160.3914,87.0530
160.4239,87.0043
160.4726,86.9718
160.5300,86.9604
160.8300,86.9604
160.8874,86.9718
160.9361,87.0043
160.9686,87.0530
160.9800,87.1104
160.9800,88.7604
160.9686,88.8178
160.9361,88.8665
160.8874,88.8990
160.8300,88.9104
Z" /> 
<path style="fill:#000000; fill-opacity:1.0000; 
stroke:#000000; stroke-width:0.0000; stroke-opacity:1; 
stroke-linecap:round; stroke-linejoin:round;fill-rule:evenodd;"
d="M 159.2600,88.9104
159.2026,88.8990
159.1539,88.8665
159.1214,88.8178
159.1100,88.7604
159.1100,87.1104
159.1214,87.0530
159.1539,87.0043
159.2026,86.9718
159.2600,86.9604
159.5600,86.9604
159.6174,86.9718
159.6661,87.0043
159.6986,87.0530
159.7100,87.1104
159.7100,88.7604
159.6986,88.8178
159.6661,88.8665
159.6174,88.8990
159.5600,88.9104
Z" /> 
<path style="fill:#000000; fill-opacity:1.0000; 
stroke:#000000; stroke-width:0.0000; stroke-opacity:1; 
stroke-linecap:round; stroke-linejoin:round;fill-rule:evenodd;"
d="M 159.2600,83.9604
159.2026,83.9490
159.1539,83.9165
159.1214,83.8678
159.1100,83.8104
159.1100,82.1604
159.1214,82.1030
159.1539,82.0543
159.2026,82.0218
159.2600,82.0104
159.5600,82.0104
159.6174,82.0218
159.6661,82.0543
159.6986,82.1030
159.7100,82.1604
159.7100,83.8104
159.6986,83.8678
159.6661,83.9165
159.6174,83.9490
159.5600,83.9604
Z" /> 
<path style="fill:#000000; fill-opacity:1.0000; 
stroke:#000000; stroke-width:0.0000; stroke-opacity:1; 
stroke-linecap:round; stroke-linejoin:round;fill-rule:evenodd;"
d="M 160.5300,83.9604
160.4726,83.9490
160.4239,83.9165
160.3914,83.8678
160.3800,83.8104
160.3800,82.1604
160.3914,82.1030
160.4239,82.0543
160.4726,82.0218
160.5300,82.0104
160.8300,82.0104
160.8874,82.0218
160.9361,82.0543
160.9686,82.1030
160.9800,82.1604
160.9800,83.8104
160.9686,83.8678
160.9361,83.9165
160.8874,83.9490
160.8300,83.9604
Z" /> 
<path style="fill:#000000; fill-opacity:1.0000; 
stroke:#000000; stroke-width:0.0000; stroke-opacity:1; 
stroke-linecap:round; stroke-linejoin:round;fill-rule:evenodd;"
d="M 161.8000,83.9604
161.7426,83.9490
161.6939,83.9165
161.6614,83.8678
161.6500,83.8104
161.6500,82.1604
161.6614,82.1030
161.6939,82.0543
161.7426,82.0218
161.8000,82.0104
162.1000,82.0104
162.1574,82.0218
162.2061,82.0543
162.2386,82.1030
162.2500,82.1604
162.2500,83.8104
162.2386,83.8678
162.2061,83.9165
162.1574,83.9490
162.1000,83.9604
Z" /> 
<path style="fill:#000000; fill-opacity:1.0000; 
stroke:#000000; stroke-width:0.0000; stroke-opacity:1; 
stroke-linecap:round; stroke-linejoin:round;fill-rule:evenodd;"
d="M 163.0700,83.9604
163.0126,83.9490
162.9639,83.9165
162.9314,83.8678
162.9200,83.8104
162.9200,82.1604
162.9314,82.1030
162.9639,82.0543
163.0126,82.0218
163.0700,82.0104
163.3700,82.0104
163.4274,82.0218
163.4761,82.0543
163.5086,82.1030
163.5200,82.1604
163.5200,83.8104
163.5086,83.8678
163.4761,83.9165
163.4274,83.9490
163.3700,83.9604
Z" /> 
</g>
<g >
</g>
<g >
</g>
<g style="fill:#000000; fill-opacity:1.0000; 
stroke:#000000; stroke-width:0.0000; stroke-opacity:1; 
stroke-linecap:round; stroke-linejoin:round;">
<path style="fill:#000000; fill-opacity:1.0000; 
stroke:#000000; stroke-width:0.0000; stroke-opacity:1; 
stroke-linecap:round; stroke-linejoin:round;fill-rule:evenodd;"
d="M 127.2500,129.3310
127.3361,129.3481
127.4091,129.3969
127.4579,129.4699
127.4750,129.5560
127.4750,130.0060
127.4579,130.0921
127.4091,130.1651
127.3361,130.2139
127.2500,130.2310
126.7500,130.2310
126.6639,130.2139
126.5909,130.1651
126.5421,130.0921
126.5250,130.0060
126.5250,129.5560
126.5421,129.4699
126.5909,129.3969
126.6639,129.3481
126.7500,129.3310
Z" /> 
<path style="fill:#000000; fill-opacity:1.0000; 
stroke:#000000; stroke-width:0.0000; stroke-opacity:1; 
stroke-linecap:round; stroke-linejoin:round;fill-rule:evenodd;"
d="M 127.2500,130.8810
127.3361,130.8981
127.4091,130.9469
127.4579,131.0199
127.4750,131.1060
127.4750,131.5560
127.4579,131.6421
127.4091,131.7151
127.3361,131.7639
127.2500,131.7810
126.7500,131.7810
126.6639,131.7639
126.5909,131.7151
126.5421,131.6421
126.5250,131.5560
126.5250,131.1060
126.5421,131.0199
126.5909,130.9469
126.6639,130.8981
126.7500,130.8810
Z" /> 
</g>
<g >
</g>
<g >
</g>
<g >
</g>
<g style="fill:#000000; fill-opacity:1.0000; 
stroke:#000000; stroke-width:0.0000; stroke-opacity:1; 
stroke-linecap:round; stroke-linejoin:round;">
<path style="fill:#000000; fill-opacity:1.0000; 
stroke:#000000; stroke-width:0.0000; stroke-opacity:1; 
stroke-linecap:round; stroke-linejoin:round;fill-rule:evenodd;"
d="M 166.1950,83.2954
166.2907,83.3144
166.3718,83.3686
166.4260,83.4497
166.4450,83.5454
166.4450,84.3454
166.4260,84.4411
166.3718,84.5222
166.2907,84.5764
166.1950,84.5954
164.9450,84.5954
164.8493,84.5764
164.7682,84.5222
164.7140,84.4411
164.6950,84.3454
164.6950,83.5454
164.7140,83.4497
164.7682,83.3686
164.8493,83.3144
164.9450,83.2954
Z" /> 
<path style="fill:#000000; fill-opacity:1.0000; 
stroke:#000000; stroke-width:0.0000; stroke-opacity:1; 
stroke-linecap:round; stroke-linejoin:round;fill-rule:evenodd;"
d="M 166.1950,86.3954
166.2907,86.4144
166.3718,86.4686
166.4260,86.5497
166.4450,86.6454
166.4450,87.4454
166.4260,87.5411
166.3718,87.6222
166.2907,87.6764
166.1950,87.6954
164.9450,87.6954
164.8493,87.6764
164.7682,87.6222
164.7140,87.5411
164.6950,87.4454
164.6950,86.6454
164.7140,86.5497
164.7682,86.4686
164.8493,86.4144
164.9450,86.3954
Z" /> 
</g>
<g >
</g>
<g style="fill:#000000; fill-opacity:1.0000; 
stroke:#000000; stroke-width:0.0000; stroke-opacity:1; 
stroke-linecap:round; stroke-linejoin:round;">
<path style="fill:#000000; fill-opacity:1.0000; 
stroke:#000000; stroke-width:0.0000; stroke-opacity:1; 
stroke-linecap:round; stroke-linejoin:round;fill-rule:evenodd;"
d="M 152.4600,72.2404
153.9600,72.2404
153.9600,74.2404
152.4600,74.2404
Z" /> 
<path style="fill:#000000; fill-opacity:1.0000; 
stroke:#000000; stroke-width:0.0000; stroke-opacity:1; 
stroke-linecap:round; stroke-linejoin:round;fill-rule:evenodd;"
d="M 154.7600,72.2404
156.2600,72.2404
156.2600,74.2404
154.7600,74.2404
Z" /> 
<path style="fill:#000000; fill-opacity:1.0000; 
stroke:#000000; stroke-width:0.0000; stroke-opacity:1; 
stroke-linecap:round; stroke-linejoin:round;fill-rule:evenodd;"
d="M 153.6100,78.5404
157.4100,78.5404
157.4100,80.5404
153.6100,80.5404
Z" /> 
<path style="fill:#000000; fill-opacity:1.0000; 
stroke:#000000; stroke-width:0.0000; stroke-opacity:1; 
stroke-linecap:round; stroke-linejoin:round;fill-rule:evenodd;"
d="M 157.0600,72.2404
158.5600,72.2404
158.5600,74.2404
157.0600,74.2404
Z" /> 
</g>
<g >
</g>
<g style="fill:#000000; fill-opacity:1.0000; 
stroke:#000000; stroke-width:0.0000; stroke-opacity:1; 
stroke-linecap:round; stroke-linejoin:round;">
<path style="fill:#000000; fill-opacity:1.0000; 
stroke:#000000; stroke-width:0.0000; stroke-opacity:1; 
stroke-linecap:round; stroke-linejoin:round;fill-rule:evenodd;"
d="M 143.6950,96.5480
143.5993,96.5290
143.5182,96.4748
143.4640,96.3937
143.4450,96.2980
143.4450,95.7730
143.4640,95.6773
143.5182,95.5962
143.5993,95.5420
143.6950,95.5230
144.5950,95.5230
144.6907,95.5420
144.7718,95.5962
144.8260,95.6773
144.8450,95.7730
144.8450,96.2980
144.8260,96.3937
144.7718,96.4748
144.6907,96.5290
144.5950,96.5480
Z" /> 
<path style="fill:#000000; fill-opacity:1.0000; 
stroke:#000000; stroke-width:0.0000; stroke-opacity:1; 
stroke-linecap:round; stroke-linejoin:round;fill-rule:evenodd;"
d="M 143.6950,94.7230
143.5993,94.7040
143.5182,94.6498
143.4640,94.5687
143.4450,94.4730
143.4450,93.9480
143.4640,93.8523
143.5182,93.7712
143.5993,93.7170
143.6950,93.6980
144.5950,93.6980
144.6907,93.7170
144.7718,93.7712
144.8260,93.8523
144.8450,93.9480
144.8450,94.4730
144.8260,94.5687
144.7718,94.6498
144.6907,94.7040
144.5950,94.7230
Z" /> 
</g>
<g >
</g>
<g style="fill:#000000; fill-opacity:1.0000; 
stroke:#000000; stroke-width:0.0000; stroke-opacity:1; 
stroke-linecap:round; stroke-linejoin:round;">
<path style="fill:#000000; fill-opacity:1.0000; 
stroke:#000000; stroke-width:0.0000; stroke-opacity:1; 
stroke-linecap:round; stroke-linejoin:round;fill-rule:evenodd;"
d="M 174.2035,113.7690
174.1107,113.7505
174.0320,113.6980
173.9795,113.6193
173.9610,113.5265
173.9610,113.0415
173.9795,112.9487
174.0320,112.8700
174.1107,112.8175
174.2035,112.7990
175.0485,112.7990
175.1413,112.8175
175.2200,112.8700
175.2725,112.9487
175.2910,113.0415
175.2910,113.5265
175.2725,113.6193
175.2200,113.6980
175.1413,113.7505
175.0485,113.7690
Z" /> 
<path style="fill:#000000; fill-opacity:1.0000; 
stroke:#000000; stroke-width:0.0000; stroke-opacity:1; 
stroke-linecap:round; stroke-linejoin:round;fill-rule:evenodd;"
d="M 175.8535,113.7690
175.7607,113.7505
175.6820,113.6980
175.6295,113.6193
175.6110,113.5265
175.6110,113.0415
175.6295,112.9487
175.6820,112.8700
175.7607,112.8175
175.8535,112.7990
176.6985,112.7990
176.7913,112.8175
176.8700,112.8700
176.9225,112.9487
176.9410,113.0415
176.9410,113.5265
176.9225,113.6193
176.8700,113.6980
176.7913,113.7505
176.6985,113.7690
Z" /> 
<path style="fill:#000000; fill-opacity:1.0000; 
stroke:#000000; stroke-width:0.0000; stroke-opacity:1; 
stroke-linecap:round; stroke-linejoin:round;fill-rule:evenodd;"
d="M 174.2035,112.5690
174.1107,112.5505
174.0320,112.4980
173.9795,112.4193
173.9610,112.3265
173.9610,111.8415
173.9795,111.7487
174.0320,111.6700
174.1107,111.6175
174.2035,111.5990
175.0485,111.5990
175.1413,111.6175
175.2200,111.6700
175.2725,111.7487
175.2910,111.8415
175.2910,112.3265
175.2725,112.4193
175.2200,112.4980
175.1413,112.5505
175.0485,112.5690
Z" /> 
<path style="fill:#000000; fill-opacity:1.0000; 
stroke:#000000; stroke-width:0.0000; stroke-opacity:1; 
stroke-linecap:round; stroke-linejoin:round;fill-rule:evenodd;"
d="M 175.8535,112.5690
175.7607,112.5505
175.6820,112.4980
175.6295,112.4193
175.6110,112.3265
175.6110,111.8415
175.6295,111.7487
175.6820,111.6700
175.7607,111.6175
175.8535,111.5990
176.6985,111.5990
176.7913,111.6175
176.8700,111.6700
176.9225,111.7487
176.9410,111.8415
176.9410,112.3265
176.9225,112.4193
176.8700,112.4980
176.7913,112.5505
176.6985,112.5690
Z" /> 
<path style="fill:#000000; fill-opacity:1.0000; 
stroke:#000000; stroke-width:0.0000; stroke-opacity:1; 
stroke-linecap:round; stroke-linejoin:round;fill-rule:evenodd;"
d="M 177.2060,116.1340
177.1486,116.1226
177.0999,116.0901
177.0674,116.0414
177.0560,115.9840
177.0560,114.3340
177.0674,114.2766
177.0999,114.2279
177.1486,114.1954
177.2060,114.1840
177.5060,114.1840
177.5634,114.1954
177.6121,114.2279
177.6446,114.2766
177.6560,114.3340
177.6560,115.9840
177.6446,116.0414
177.6121,116.0901
177.5634,116.1226
177.5060,116.1340
Z" /> 
<path style="fill:#000000; fill-opacity:1.0000; 
stroke:#000000; stroke-width:0.0000; stroke-opacity:1; 
stroke-linecap:round; stroke-linejoin:round;fill-rule:evenodd;"
d="M 175.9360,116.1340
175.8786,116.1226
175.8299,116.0901
175.7974,116.0414
175.7860,115.9840
175.7860,114.3340
175.7974,114.2766
175.8299,114.2279
175.8786,114.1954
175.9360,114.1840
176.2360,114.1840
176.2934,114.1954
176.3421,114.2279
176.3746,114.2766
176.3860,114.3340
176.3860,115.9840
176.3746,116.0414
176.3421,116.0901
176.2934,116.1226
176.2360,116.1340
Z" /> 
<path style="fill:#000000; fill-opacity:1.0000; 
stroke:#000000; stroke-width:0.0000; stroke-opacity:1; 
stroke-linecap:round; stroke-linejoin:round;fill-rule:evenodd;"
d="M 174.6660,116.1340
174.6086,116.1226
174.5599,116.0901
174.5274,116.0414
174.5160,115.9840
174.5160,114.3340
174.5274,114.2766
174.5599,114.2279
174.6086,114.1954
174.6660,114.1840
174.9660,114.1840
175.0234,114.1954
175.0721,114.2279
175.1046,114.2766
175.1160,114.3340
175.1160,115.9840
175.1046,116.0414
175.0721,116.0901
175.0234,116.1226
174.9660,116.1340
Z" /> 
<path style="fill:#000000; fill-opacity:1.0000; 
stroke:#000000; stroke-width:0.0000; stroke-opacity:1; 
stroke-linecap:round; stroke-linejoin:round;fill-rule:evenodd;"
d="M 173.3960,116.1340
173.3386,116.1226
173.2899,116.0901
173.2574,116.0414
173.2460,115.9840
173.2460,114.3340
173.2574,114.2766
173.2899,114.2279
173.3386,114.1954
173.3960,114.1840
173.6960,114.1840
173.7534,114.1954
173.8021,114.2279
173.8346,114.2766
173.8460,114.3340
173.8460,115.9840
173.8346,116.0414
173.8021,116.0901
173.7534,116.1226
173.6960,116.1340
Z" /> 
<path style="fill:#000000; fill-opacity:1.0000; 
stroke:#000000; stroke-width:0.0000; stroke-opacity:1; 
stroke-linecap:round; stroke-linejoin:round;fill-rule:evenodd;"
d="M 173.3960,111.1840
173.3386,111.1726
173.2899,111.1401
173.2574,111.0914
173.2460,111.0340
173.2460,109.3840
173.2574,109.3266
173.2899,109.2779
173.3386,109.2454
173.3960,109.2340
173.6960,109.2340
173.7534,109.2454
173.8021,109.2779
173.8346,109.3266
173.8460,109.3840
173.8460,111.0340
173.8346,111.0914
173.8021,111.1401
173.7534,111.1726
173.6960,111.1840
Z" /> 
<path style="fill:#000000; fill-opacity:1.0000; 
stroke:#000000; stroke-width:0.0000; stroke-opacity:1; 
stroke-linecap:round; stroke-linejoin:round;fill-rule:evenodd;"
d="M 174.6660,111.1840
174.6086,111.1726
174.5599,111.1401
174.5274,111.0914
174.5160,111.0340
174.5160,109.3840
174.5274,109.3266
174.5599,109.2779
174.6086,109.2454
174.6660,109.2340
174.9660,109.2340
175.0234,109.2454
175.0721,109.2779
175.1046,109.3266
175.1160,109.3840
175.1160,111.0340
175.1046,111.0914
175.0721,111.1401
175.0234,111.1726
174.9660,111.1840
Z" /> 
<path style="fill:#000000; fill-opacity:1.0000; 
stroke:#000000; stroke-width:0.0000; stroke-opacity:1; 
stroke-linecap:round; stroke-linejoin:round;fill-rule:evenodd;"
d="M 175.9360,111.1840
175.8786,111.1726
175.8299,111.1401
175.7974,111.0914
175.7860,111.0340
175.7860,109.3840
175.7974,109.3266
175.8299,109.2779
175.8786,109.2454
175.9360,109.2340
176.2360,109.2340
176.2934,109.2454
176.3421,109.2779
176.3746,109.3266
176.3860,109.3840
176.3860,111.0340
176.3746,111.0914
176.3421,111.1401
176.2934,111.1726
176.2360,111.1840
Z" /> 
<path style="fill:#000000; fill-opacity:1.0000; 
stroke:#000000; stroke-width:0.0000; stroke-opacity:1; 
stroke-linecap:round; stroke-linejoin:round;fill-rule:evenodd;"
d="M 177.2060,111.1840
177.1486,111.1726
177.0999,111.1401
177.0674,111.0914
177.0560,111.0340
177.0560,109.3840
177.0674,109.3266
177.0999,109.2779
177.1486,109.2454
177.2060,109.2340
177.5060,109.2340
177.5634,109.2454
177.6121,109.2779
177.6446,109.3266
177.6560,109.3840
177.6560,111.0340
177.6446,111.0914
177.6121,111.1401
177.5634,111.1726
177.5060,111.1840
Z" /> 
</g>
<g >
</g>
<g style="fill:#000000; fill-opacity:1.0000; 
stroke:#000000; stroke-width:0.0000; stroke-opacity:1; 
stroke-linecap:round; stroke-linejoin:round;">
<path style="fill:#000000; fill-opacity:1.0000; 
stroke:#000000; stroke-width:0.0000; stroke-opacity:1; 
stroke-linecap:round; stroke-linejoin:round;fill-rule:evenodd;"
d="M 133.2190,116.7710
133.3051,116.7881
133.3781,116.8369
133.4269,116.9099
133.4440,116.9960
133.4440,117.4460
133.4269,117.5321
133.3781,117.6051
133.3051,117.6539
133.2190,117.6710
132.7190,117.6710
132.6329,117.6539
132.5599,117.6051
132.5111,117.5321
132.4940,117.4460
132.4940,116.9960
132.5111,116.9099
132.5599,116.8369
132.6329,116.7881
132.7190,116.7710
Z" /> 
<path style="fill:#000000; fill-opacity:1.0000; 
stroke:#000000; stroke-width:0.0000; stroke-opacity:1; 
stroke-linecap:round; stroke-linejoin:round;fill-rule:evenodd;"
d="M 133.2190,118.3210
133.3051,118.3381
133.3781,118.3869
133.4269,118.4599
133.4440,118.5460
133.4440,118.9960
133.4269,119.0821
133.3781,119.1551
133.3051,119.2039
133.2190,119.2210
132.7190,119.2210
132.6329,119.2039
132.5599,119.1551
132.5111,119.0821
132.4940,118.9960
132.4940,118.5460
132.5111,118.4599
132.5599,118.3869
132.6329,118.3381
132.7190,118.3210
Z" /> 
</g>
<g >
</g>
<g >
</g>
<g style="fill:#000000; fill-opacity:1.0000; 
stroke:#000000; stroke-width:0.0000; stroke-opacity:1; 
stroke-linecap:round; stroke-linejoin:round;">
<path style="fill:#000000; fill-opacity:1.0000; 
stroke:#000000; stroke-width:0.0000; stroke-opacity:1; 
stroke-linecap:round; stroke-linejoin:round;fill-rule:evenodd;"
d="M 155.6300,71.0554
155.6110,71.1511
155.5568,71.2322
155.4757,71.2864
155.3800,71.3054
154.8800,71.3054
154.7843,71.2864
154.7032,71.2322
154.6490,71.1511
154.6300,71.0554
154.6300,70.1054
154.6490,70.0097
154.7032,69.9286
154.7843,69.8744
154.8800,69.8554
155.3800,69.8554
155.4757,69.8744
155.5568,69.9286
155.6110,70.0097
155.6300,70.1054
Z" /> 
<path style="fill:#000000; fill-opacity:1.0000; 
stroke:#000000; stroke-width:0.0000; stroke-opacity:1; 
stroke-linecap:round; stroke-linejoin:round;fill-rule:evenodd;"
d="M 153.7300,71.0554
153.7110,71.1511
153.6568,71.2322
153.5757,71.2864
153.4800,71.3054
152.9800,71.3054
152.8843,71.2864
152.8032,71.2322
152.7490,71.1511
152.7300,71.0554
152.7300,70.1054
152.7490,70.0097
152.8032,69.9286
152.8843,69.8744
152.9800,69.8554
153.4800,69.8554
153.5757,69.8744
153.6568,69.9286
153.7110,70.0097
153.7300,70.1054
Z" /> 
</g>
<g >
</g>
<g >
</g>
<g style="fill:#000000; fill-opacity:1.0000; 
stroke:#000000; stroke-width:0.0000; stroke-opacity:1; 
stroke-linecap:round; stroke-linejoin:round;">
<path style="fill:#000000; fill-opacity:1.0000; 
stroke:#000000; stroke-width:0.0000; stroke-opacity:1; 
stroke-linecap:round; stroke-linejoin:round;fill-rule:evenodd;"
d="M 123.7400,81.5854
123.8261,81.6025
123.8991,81.6513
123.9479,81.7243
123.9650,81.8104
123.9650,82.2604
123.9479,82.3465
123.8991,82.4195
123.8261,82.4683
123.7400,82.4854
123.2400,82.4854
123.1539,82.4683
123.0809,82.4195
123.0321,82.3465
123.0150,82.2604
123.0150,81.8104
123.0321,81.7243
123.0809,81.6513
123.1539,81.6025
123.2400,81.5854
Z" /> 
<path style="fill:#000000; fill-opacity:1.0000; 
stroke:#000000; stroke-width:0.0000; stroke-opacity:1; 
stroke-linecap:round; stroke-linejoin:round;fill-rule:evenodd;"
d="M 123.7400,83.1354
123.8261,83.1525
123.8991,83.2013
123.9479,83.2743
123.9650,83.3604
123.9650,83.8104
123.9479,83.8965
123.8991,83.9695
123.8261,84.0183
123.7400,84.0354
123.2400,84.0354
123.1539,84.0183
123.0809,83.9695
123.0321,83.8965
123.0150,83.8104
123.0150,83.3604
123.0321,83.2743
123.0809,83.2013
123.1539,83.1525
123.2400,83.1354
Z" /> 
</g>
<g >
</g>
<g style="fill:#000000; fill-opacity:1.0000; 
stroke:#000000; stroke-width:0.0000; stroke-opacity:1; 
stroke-linecap:round; stroke-linejoin:round;">
<path style="fill:#000000; fill-opacity:1.0000; 
stroke:#000000; stroke-width:0.0000; stroke-opacity:1; 
stroke-linecap:round; stroke-linejoin:round;fill-rule:evenodd;"
d="M 136.3300,145.0171
136.3300,144.0171
138.2300,144.0171
138.2300,145.0171
Z" /> 
<path style="fill:#000000; fill-opacity:1.0000; 
stroke:#000000; stroke-width:0.0000; stroke-opacity:1; 
stroke-linecap:round; stroke-linejoin:round;fill-rule:evenodd;"
d="M 139.6300,142.4771
139.6300,141.4771
141.5300,141.4771
141.5300,142.4771
Z" /> 
<path style="fill:#000000; fill-opacity:1.0000; 
stroke:#000000; stroke-width:0.0000; stroke-opacity:1; 
stroke-linecap:round; stroke-linejoin:round;fill-rule:evenodd;"
d="M 136.3300,139.9372
136.3300,138.9372
138.2300,138.9372
138.2300,139.9372
Z" /> 
<path style="fill:#000000; fill-opacity:1.0000; 
stroke:#000000; stroke-width:0.0000; stroke-opacity:1; 
stroke-linecap:round; stroke-linejoin:round;fill-rule:evenodd;"
d="M 139.6300,137.3971
139.6300,136.3971
141.5300,136.3971
141.5300,137.3971
Z" /> 
<path style="fill:#000000; fill-opacity:1.0000; 
stroke:#000000; stroke-width:0.0000; stroke-opacity:1; 
stroke-linecap:round; stroke-linejoin:round;fill-rule:evenodd;"
d="M 136.3300,134.8571
136.3300,133.8571
138.2300,133.8571
138.2300,134.8571
Z" /> 
<path style="fill:#000000; fill-opacity:1.0000; 
stroke:#000000; stroke-width:0.0000; stroke-opacity:1; 
stroke-linecap:round; stroke-linejoin:round;fill-rule:evenodd;"
d="M 139.6300,132.3171
139.6300,131.3171
141.5300,131.3171
141.5300,132.3171
Z" /> 
<path style="fill:#000000; fill-opacity:1.0000; 
stroke:#000000; stroke-width:0.0000; stroke-opacity:1; 
stroke-linecap:round; stroke-linejoin:round;fill-rule:evenodd;"
d="M 136.3300,129.7772
136.3300,128.7772
138.2300,128.7772
138.2300,129.7772
Z" /> 
<path style="fill:#000000; fill-opacity:1.0000; 
stroke:#000000; stroke-width:0.0000; stroke-opacity:1; 
stroke-linecap:round; stroke-linejoin:round;fill-rule:evenodd;"
d="M 139.6300,127.2371
139.6300,126.2371
141.5300,126.2371
141.5300,127.2371
Z" /> 
<path style="fill:#000000; fill-opacity:1.0000; 
stroke:#000000; stroke-width:0.0000; stroke-opacity:1; 
stroke-linecap:round; stroke-linejoin:round;fill-rule:evenodd;"
d="M 136.3300,124.6971
136.3300,123.6971
138.2300,123.6971
138.2300,124.6971
Z" /> 
<path style="fill:#000000; fill-opacity:1.0000; 
stroke:#000000; stroke-width:0.0000; stroke-opacity:1; 
stroke-linecap:round; stroke-linejoin:round;fill-rule:evenodd;"
d="M 139.6300,122.1572
139.6300,121.1572
141.5300,121.1572
141.5300,122.1572
Z" /> 
<path style="fill:#000000; fill-opacity:1.0000; 
stroke:#000000; stroke-width:0.0000; stroke-opacity:1; 
stroke-linecap:round; stroke-linejoin:round;fill-rule:evenodd;"
d="M 136.3300,119.6171
136.3300,118.6171
138.2300,118.6171
138.2300,119.6171
Z" /> 
<path style="fill:#000000; fill-opacity:1.0000; 
stroke:#000000; stroke-width:0.0000; stroke-opacity:1; 
stroke-linecap:round; stroke-linejoin:round;fill-rule:evenodd;"
d="M 139.6300,117.0771
139.6300,116.0771
141.5300,116.0771
141.5300,117.0771
Z" /> 
<path style="fill:#000000; fill-opacity:1.0000; 
stroke:#000000; stroke-width:0.0000; stroke-opacity:1; 
stroke-linecap:round; stroke-linejoin:round;fill-rule:evenodd;"
d="M 136.3300,114.5371
136.3300,113.5371
138.2300,113.5371
138.2300,114.5371
Z" /> 
<path style="fill:#000000; fill-opacity:1.0000; 
stroke:#000000; stroke-width:0.0000; stroke-opacity:1; 
stroke-linecap:round; stroke-linejoin:round;fill-rule:evenodd;"
d="M 139.6300,111.9971
139.6300,110.9971
141.5300,110.9971
141.5300,111.9971
Z" /> 
<path style="fill:#000000; fill-opacity:1.0000; 
stroke:#000000; stroke-width:0.0000; stroke-opacity:1; 
stroke-linecap:round; stroke-linejoin:round;fill-rule:evenodd;"
d="M 136.3300,109.4571
136.3300,108.4571
138.2300,108.4571
138.2300,109.4571
Z" /> 
<path style="fill:#000000; fill-opacity:1.0000; 
stroke:#000000; stroke-width:0.0000; stroke-opacity:1; 
stroke-linecap:round; stroke-linejoin:round;fill-rule:evenodd;"
d="M 139.6300,106.9171
139.6300,105.9171
141.5300,105.9171
141.5300,106.9171
Z" /> 
<path style="fill:#000000; fill-opacity:1.0000; 
stroke:#000000; stroke-width:0.0000; stroke-opacity:1; 
stroke-linecap:round; stroke-linejoin:round;fill-rule:evenodd;"
d="M 136.3300,104.3772
136.3300,103.3772
138.2300,103.3772
138.2300,104.3772
Z" /> 
<path style="fill:#000000; fill-opacity:1.0000; 
stroke:#000000; stroke-width:0.0000; stroke-opacity:1; 
stroke-linecap:round; stroke-linejoin:round;fill-rule:evenodd;"
d="M 139.6300,101.8371
139.6300,100.8371
141.5300,100.8371
141.5300,101.8371
Z" /> 
<path style="fill:#000000; fill-opacity:1.0000; 
stroke:#000000; stroke-width:0.0000; stroke-opacity:1; 
stroke-linecap:round; stroke-linejoin:round;fill-rule:evenodd;"
d="M 136.3300,99.2972
136.3300,98.2972
138.2300,98.2972
138.2300,99.2972
Z" /> 
<path style="fill:#000000; fill-opacity:1.0000; 
stroke:#000000; stroke-width:0.0000; stroke-opacity:1; 
stroke-linecap:round; stroke-linejoin:round;fill-rule:evenodd;"
d="M 139.6300,96.7571
139.6300,95.7571
141.5300,95.7571
141.5300,96.7571
Z" /> 
<path style="fill:#000000; fill-opacity:1.0000; 
stroke:#000000; stroke-width:0.0000; stroke-opacity:1; 
stroke-linecap:round; stroke-linejoin:round;fill-rule:evenodd;"
d="M 136.3300,94.2171
136.3300,93.2171
138.2300,93.2171
138.2300,94.2171
Z" /> 
<path style="fill:#000000; fill-opacity:1.0000; 
stroke:#000000; stroke-width:0.0000; stroke-opacity:1; 
stroke-linecap:round; stroke-linejoin:round;fill-rule:evenodd;"
d="M 139.6300,91.6771
139.6300,90.6771
141.5300,90.6771
141.5300,91.6771
Z" /> 
<path style="fill:#000000; fill-opacity:1.0000; 
stroke:#000000; stroke-width:0.0000; stroke-opacity:1; 
stroke-linecap:round; stroke-linejoin:round;fill-rule:evenodd;"
d="M 136.3300,89.1371
136.3300,88.1371
138.2300,88.1371
138.2300,89.1371
Z" /> 
<path style="fill:#000000; fill-opacity:1.0000; 
stroke:#000000; stroke-width:0.0000; stroke-opacity:1; 
stroke-linecap:round; stroke-linejoin:round;fill-rule:evenodd;"
d="M 139.6300,86.5971
139.6300,85.5971
141.5300,85.5971
141.5300,86.5971
Z" /> 
</g>
<g >
</g>
<g style="fill:#000000; fill-opacity:1.0000; 
stroke:#000000; stroke-width:0.0000; stroke-opacity:1; 
stroke-linecap:round; stroke-linejoin:round;">
<path style="fill:#000000; fill-opacity:1.0000; 
stroke:#000000; stroke-width:0.0000; stroke-opacity:1; 
stroke-linecap:round; stroke-linejoin:round;fill-rule:evenodd;"
d="M 133.3300,126.1254
133.3110,126.2211
133.2568,126.3022
133.1757,126.3564
133.0800,126.3754
132.2800,126.3754
132.1843,126.3564
132.1032,126.3022
132.0490,126.2211
132.0300,126.1254
132.0300,124.8754
132.0490,124.7797
132.1032,124.6986
132.1843,124.6444
132.2800,124.6254
133.0800,124.6254
133.1757,124.6444
133.2568,124.6986
133.3110,124.7797
133.3300,124.8754
Z" /> 
<path style="fill:#000000; fill-opacity:1.0000; 
stroke:#000000; stroke-width:0.0000; stroke-opacity:1; 
stroke-linecap:round; stroke-linejoin:round;fill-rule:evenodd;"
d="M 130.2300,126.1254
130.2110,126.2211
130.1568,126.3022
130.0757,126.3564
129.9800,126.3754
129.1800,126.3754
129.0843,126.3564
129.0032,126.3022
128.9490,126.2211
128.9300,126.1254
128.9300,124.8754
128.9490,124.7797
129.0032,124.6986
129.0843,124.6444
129.1800,124.6254
129.9800,124.6254
130.0757,124.6444
130.1568,124.6986
130.2110,124.7797
130.2300,124.8754
Z" /> 
</g>
<g >
</g>
<g style="fill:#000000; fill-opacity:1.0000; 
stroke:#000000; stroke-width:0.0000; stroke-opacity:1; 
stroke-linecap:round; stroke-linejoin:round;">
<path style="fill:#000000; fill-opacity:1.0000; 
stroke:#000000; stroke-width:0.0000; stroke-opacity:1; 
stroke-linecap:round; stroke-linejoin:round;fill-rule:evenodd;"
d="M 168.3600,83.0004
168.4461,83.0175
168.5191,83.0663
168.5679,83.1393
168.5850,83.2254
168.5850,83.6754
168.5679,83.7615
168.5191,83.8345
168.4461,83.8833
168.3600,83.9004
167.8600,83.9004
167.7739,83.8833
167.7009,83.8345
167.6521,83.7615
167.6350,83.6754
167.6350,83.2254
167.6521,83.1393
167.7009,83.0663
167.7739,83.0175
167.8600,83.0004
Z" /> 
<path style="fill:#000000; fill-opacity:1.0000; 
stroke:#000000; stroke-width:0.0000; stroke-opacity:1; 
stroke-linecap:round; stroke-linejoin:round;fill-rule:evenodd;"
d="M 168.3600,84.5504
168.4461,84.5675
168.5191,84.6163
168.5679,84.6893
168.5850,84.7754
168.5850,85.2254
168.5679,85.3115
168.5191,85.3845
168.4461,85.4333
168.3600,85.4504
167.8600,85.4504
167.7739,85.4333
167.7009,85.3845
167.6521,85.3115
167.6350,85.2254
167.6350,84.7754
167.6521,84.6893
167.7009,84.6163
167.7739,84.5675
167.8600,84.5504
Z" /> 
</g>
<g >
</g>
<g >
</g>
<g style="fill:#000000; fill-opacity:1.0000; 
stroke:#000000; stroke-width:0.0000; stroke-opacity:1; 
stroke-linecap:round; stroke-linejoin:round;">
<path style="fill:#000000; fill-opacity:1.0000; 
stroke:#000000; stroke-width:0.0000; stroke-opacity:1; 
stroke-linecap:round; stroke-linejoin:round;fill-rule:evenodd;"
d="M 180.4000,105.4454
180.4861,105.4625
180.5591,105.5113
180.6079,105.5843
180.6250,105.6704
180.6250,106.1204
180.6079,106.2065
180.5591,106.2795
180.4861,106.3283
180.4000,106.3454
179.9000,106.3454
179.8139,106.3283
179.7409,106.2795
179.6921,106.2065
179.6750,106.1204
179.6750,105.6704
179.6921,105.5843
179.7409,105.5113
179.8139,105.4625
179.9000,105.4454
Z" /> 
<path style="fill:#000000; fill-opacity:1.0000; 
stroke:#000000; stroke-width:0.0000; stroke-opacity:1; 
stroke-linecap:round; stroke-linejoin:round;fill-rule:evenodd;"
d="M 180.4000,106.9954
180.4861,107.0125
180.5591,107.0613
180.6079,107.1343
180.6250,107.2204
180.6250,107.6704
180.6079,107.7565
180.5591,107.8295
180.4861,107.8783
180.4000,107.8954
179.9000,107.8954
179.8139,107.8783
179.7409,107.8295
179.6921,107.7565
179.6750,107.6704
179.6750,107.2204
179.6921,107.1343
179.7409,107.0613
179.8139,107.0125
179.9000,106.9954
Z" /> 
</g>
<g >
</g>
<g >
</g>
<g >
</g>
</g> 
</svg>
