%TF.GenerationSoftware,KiCad,Pcbnew,7.0.9*%
%TF.CreationDate,2024-01-26T12:36:02+01:00*%
%TF.ProjectId,maglev26,6d61676c-6576-4323-962e-6b696361645f,1.0*%
%TF.SameCoordinates,Original*%
%TF.FileFunction,Legend,Top*%
%TF.FilePolarity,Positive*%
%FSLAX46Y46*%
G04 Gerber Fmt 4.6, Leading zero omitted, Abs format (unit mm)*
G04 Created by KiCad (PCBNEW 7.0.9) date 2024-01-26 12:36:02*
%MOMM*%
%LPD*%
G01*
G04 APERTURE LIST*
G04 Aperture macros list*
%AMRoundRect*
0 Rectangle with rounded corners*
0 $1 Rounding radius*
0 $2 $3 $4 $5 $6 $7 $8 $9 X,Y pos of 4 corners*
0 Add a 4 corners polygon primitive as box body*
4,1,4,$2,$3,$4,$5,$6,$7,$8,$9,$2,$3,0*
0 Add four circle primitives for the rounded corners*
1,1,$1+$1,$2,$3*
1,1,$1+$1,$4,$5*
1,1,$1+$1,$6,$7*
1,1,$1+$1,$8,$9*
0 Add four rect primitives between the rounded corners*
20,1,$1+$1,$2,$3,$4,$5,0*
20,1,$1+$1,$4,$5,$6,$7,0*
20,1,$1+$1,$6,$7,$8,$9,0*
20,1,$1+$1,$8,$9,$2,$3,0*%
G04 Aperture macros list end*
%ADD10C,0.150000*%
%ADD11C,0.202000*%
%ADD12C,0.100000*%
%ADD13C,0.160000*%
%ADD14C,0.350000*%
%ADD15C,0.250000*%
%ADD16C,0.120000*%
%ADD17C,10.000000*%
%ADD18R,1.500000X1.500000*%
%ADD19RoundRect,0.150000X-0.512500X-0.150000X0.512500X-0.150000X0.512500X0.150000X-0.512500X0.150000X0*%
%ADD20C,3.200000*%
%ADD21C,2.000000*%
G04 APERTURE END LIST*
D10*
X174250000Y-132000000D02*
G75*
G03*
X174750000Y-132000000I250000J0D01*
G01*
X165862000Y-113157000D02*
X165608000Y-113411000D01*
X174750000Y-74500000D02*
X174750000Y-75250000D01*
X126625000Y-103500000D02*
X127125000Y-103500000D01*
X147125000Y-123250000D02*
X147375000Y-122500000D01*
X174750000Y-131000000D02*
X175250000Y-131000000D01*
X175250000Y-131500000D01*
X174750000Y-131500000D01*
X174750000Y-131000000D01*
X145500000Y-82250000D02*
X144750000Y-83250000D01*
X117750000Y-75250000D02*
X117750000Y-75500000D01*
X124841000Y-113919000D02*
G75*
G03*
X124841000Y-113919000I-381000J0D01*
G01*
X144750000Y-83250000D02*
X145250000Y-83250000D01*
X174250000Y-131000000D02*
X174250000Y-131750000D01*
X173750000Y-74500000D02*
X174250000Y-74500000D01*
X118250000Y-74500000D02*
X118750000Y-74500000D01*
X118750000Y-75000000D01*
X118250000Y-75000000D01*
X118250000Y-74500000D01*
X167640000Y-114046000D02*
X167640000Y-114554000D01*
X167625000Y-103250000D02*
X167125000Y-103250000D01*
X117250000Y-75500000D02*
X117250000Y-74500000D01*
X124714000Y-113665000D02*
X124206000Y-114173000D01*
X144399000Y-93980000D02*
X144653000Y-94234000D01*
X173750000Y-131000000D02*
X174250000Y-131000000D01*
X175250000Y-75500000D02*
X175250000Y-74500000D01*
X146431000Y-91948000D02*
X146685000Y-92202000D01*
X168021000Y-113411000D02*
G75*
G03*
X168021000Y-113411000I-381000J0D01*
G01*
X174750000Y-75500000D02*
X174750000Y-75250000D01*
X145250000Y-124250000D02*
X146000000Y-123250000D01*
X117250000Y-132000000D02*
X117250000Y-131000000D01*
X136250000Y-99250000D02*
G75*
G03*
X136250000Y-99250000I-10000000J0D01*
G01*
X117750000Y-74500000D02*
X117750000Y-75250000D01*
X118750000Y-131500000D02*
X118250000Y-131500000D01*
X166000000Y-103250000D02*
X165500000Y-103250000D01*
X145250000Y-83250000D02*
X145000000Y-84000000D01*
X173750000Y-75500000D02*
X173750000Y-74500000D01*
X156250000Y-79250000D02*
G75*
G03*
X156250000Y-79250000I-10000000J0D01*
G01*
X118250000Y-131000000D02*
X118250000Y-131750000D01*
X146431000Y-93345000D02*
X146431000Y-91948000D01*
X146875000Y-124250000D02*
X147625000Y-123250000D01*
X175250000Y-131000000D02*
X174750000Y-131000000D01*
X117750000Y-131500000D02*
X117250000Y-131500000D01*
X167894000Y-113157000D02*
X167386000Y-113665000D01*
X155750000Y-79250000D02*
G75*
G03*
X155750000Y-79250000I-9500000J0D01*
G01*
X167640000Y-111379000D02*
X167894000Y-111633000D01*
X128000000Y-71000000D02*
G75*
G03*
X128000000Y-71000000I-10000000J0D01*
G01*
X145750000Y-122500000D02*
X145000000Y-123500000D01*
X146000000Y-123250000D02*
X145500000Y-123250000D01*
X167125000Y-103500000D02*
X166875000Y-104250000D01*
X174750000Y-131000000D02*
X174750000Y-131750000D01*
X127375000Y-102500000D02*
X126625000Y-103500000D01*
X165250000Y-104250000D02*
X166000000Y-103250000D01*
X122682000Y-113665000D02*
X122428000Y-113919000D01*
X145500000Y-123500000D02*
X145250000Y-124250000D01*
X166625000Y-103500000D02*
X167125000Y-103500000D01*
X146625000Y-84000000D02*
X147375000Y-83000000D01*
X167640000Y-112776000D02*
X167640000Y-111379000D01*
X125750000Y-102500000D02*
X125000000Y-103500000D01*
X126875000Y-104250000D02*
X127625000Y-103250000D01*
X146431000Y-94615000D02*
X146431000Y-95123000D01*
X165000000Y-103500000D02*
X165500000Y-103500000D01*
X173750000Y-132000000D02*
G75*
G03*
X175250000Y-132000000I750000J0D01*
G01*
X166875000Y-104250000D02*
X167625000Y-103250000D01*
X127125000Y-103500000D02*
X126875000Y-104250000D01*
X145750000Y-83000000D02*
X145250000Y-83000000D01*
X155750000Y-119250000D02*
G75*
G03*
X155750000Y-119250000I-9500000J0D01*
G01*
X146431000Y-91948000D02*
X146177000Y-92202000D01*
X135750000Y-99250000D02*
G75*
G03*
X135750000Y-99250000I-9500000J0D01*
G01*
X165500000Y-103250000D02*
X165750000Y-102500000D01*
X117750000Y-75000000D02*
X117250000Y-75000000D01*
X174750000Y-132000000D02*
X174750000Y-131750000D01*
X174250000Y-75000000D02*
X173750000Y-75000000D01*
X175250000Y-132000000D02*
X175250000Y-131000000D01*
X175250000Y-74500000D02*
X174750000Y-74500000D01*
X165750000Y-102500000D02*
X165000000Y-103500000D01*
X184500000Y-71000000D02*
G75*
G03*
X184500000Y-71000000I-10000000J0D01*
G01*
X127625000Y-103250000D02*
X127125000Y-103250000D01*
X117750000Y-132000000D02*
G75*
G03*
X118250000Y-132000000I250000J0D01*
G01*
X175250000Y-75000000D02*
X174750000Y-75000000D01*
X117250000Y-131000000D02*
X117750000Y-131000000D01*
D11*
X144068200Y-98298000D02*
G75*
G03*
X144068200Y-98298000I-101000J0D01*
G01*
D10*
X122428000Y-113919000D02*
X122682000Y-113665000D01*
X118750000Y-75000000D02*
X118250000Y-75000000D01*
X174250000Y-75250000D02*
X174250000Y-75500000D01*
X117250000Y-74500000D02*
X117750000Y-74500000D01*
X118750000Y-131000000D02*
X118250000Y-131000000D01*
X146875000Y-83000000D02*
X147125000Y-82250000D01*
X124460000Y-114554000D02*
X124460000Y-115062000D01*
D11*
X162584800Y-116941600D02*
G75*
G03*
X162584800Y-116941600I-101000J0D01*
G01*
D10*
X118250000Y-132000000D02*
X118250000Y-131750000D01*
X118750000Y-74500000D02*
X118250000Y-74500000D01*
X167005000Y-113411000D02*
X165608000Y-113411000D01*
X145796000Y-93980000D02*
X144399000Y-93980000D01*
X145000000Y-123500000D02*
X145500000Y-123500000D01*
X147375000Y-122500000D02*
X146625000Y-123500000D01*
X146177000Y-93726000D02*
X146685000Y-94234000D01*
X173750000Y-75500000D02*
G75*
G03*
X175250000Y-75500000I750000J0D01*
G01*
X124460000Y-111887000D02*
X124714000Y-112141000D01*
X167125000Y-103250000D02*
X167375000Y-102500000D01*
X127125000Y-103250000D02*
X127375000Y-102500000D01*
X165608000Y-113411000D02*
X165862000Y-113665000D01*
X174250000Y-75500000D02*
G75*
G03*
X174750000Y-75500000I250000J0D01*
G01*
X146812000Y-93980000D02*
G75*
G03*
X146812000Y-93980000I-381000J0D01*
G01*
X174250000Y-131500000D02*
X173750000Y-131500000D01*
X126000000Y-103250000D02*
X125500000Y-103250000D01*
X173750000Y-132000000D02*
X173750000Y-131000000D01*
X175750000Y-99250000D02*
G75*
G03*
X175750000Y-99250000I-9500000J0D01*
G01*
X184500000Y-127500000D02*
G75*
G03*
X184500000Y-127500000I-10000000J0D01*
G01*
X146685000Y-93726000D02*
X146177000Y-94234000D01*
X117250000Y-132000000D02*
G75*
G03*
X118750000Y-132000000I750000J0D01*
G01*
X118750000Y-132000000D02*
X118750000Y-131000000D01*
X147375000Y-83000000D02*
X146875000Y-83000000D01*
X167375000Y-102500000D02*
X166625000Y-103500000D01*
X118250000Y-74500000D02*
X118250000Y-75250000D01*
X146375000Y-83250000D02*
X146875000Y-83250000D01*
X167386000Y-113157000D02*
X167894000Y-113665000D01*
X118250000Y-131000000D02*
X118750000Y-131000000D01*
X118750000Y-131500000D01*
X118250000Y-131500000D01*
X118250000Y-131000000D01*
X123825000Y-113919000D02*
X122428000Y-113919000D01*
X128000000Y-127500000D02*
G75*
G03*
X128000000Y-127500000I-10000000J0D01*
G01*
X194818000Y-103886000D02*
X193802000Y-103886000D01*
X194310000Y-102870000D01*
X194818000Y-103886000D01*
G36*
X194818000Y-103886000D02*
G01*
X193802000Y-103886000D01*
X194310000Y-102870000D01*
X194818000Y-103886000D01*
G37*
X165608000Y-113411000D02*
X165862000Y-113157000D01*
X176250000Y-99250000D02*
G75*
G03*
X176250000Y-99250000I-10000000J0D01*
G01*
X175250000Y-131500000D02*
X174750000Y-131500000D01*
X117750000Y-131750000D02*
X117750000Y-132000000D01*
X194310000Y-106934000D02*
X194310000Y-102870000D01*
X144399000Y-93980000D02*
X144653000Y-93726000D01*
X147125000Y-82250000D02*
X146375000Y-83250000D01*
X144653000Y-93726000D02*
X144399000Y-93980000D01*
X125500000Y-103250000D02*
X125750000Y-102500000D01*
X167640000Y-111379000D02*
X167386000Y-111633000D01*
X125000000Y-103500000D02*
X125500000Y-103500000D01*
D11*
X125373800Y-116890800D02*
G75*
G03*
X125373800Y-116890800I-101000J0D01*
G01*
D10*
X145000000Y-84000000D02*
X145750000Y-83000000D01*
X124206000Y-113665000D02*
X124714000Y-114173000D01*
X124460000Y-113284000D02*
X124460000Y-111887000D01*
X117750000Y-75500000D02*
G75*
G03*
X118250000Y-75500000I250000J0D01*
G01*
X165500000Y-103500000D02*
X165250000Y-104250000D01*
X174250000Y-74500000D02*
X174250000Y-75250000D01*
X124460000Y-111887000D02*
X124206000Y-112141000D01*
X122428000Y-113919000D02*
X122682000Y-114173000D01*
X118750000Y-75500000D02*
X118750000Y-74500000D01*
X145500000Y-123250000D02*
X145750000Y-122500000D01*
X147625000Y-123250000D02*
X147125000Y-123250000D01*
X118250000Y-75500000D02*
X118250000Y-75250000D01*
X117250000Y-75500000D02*
G75*
G03*
X118750000Y-75500000I750000J0D01*
G01*
X117750000Y-131000000D02*
X117750000Y-131750000D01*
X174250000Y-131750000D02*
X174250000Y-132000000D01*
X125500000Y-103500000D02*
X125250000Y-104250000D01*
X145250000Y-83000000D02*
X145500000Y-82250000D01*
X147125000Y-123500000D02*
X146875000Y-124250000D01*
X146625000Y-123500000D02*
X147125000Y-123500000D01*
X156250000Y-119250000D02*
G75*
G03*
X156250000Y-119250000I-10000000J0D01*
G01*
X146875000Y-83250000D02*
X146625000Y-84000000D01*
X174750000Y-74500000D02*
X175250000Y-74500000D01*
X175250000Y-75000000D01*
X174750000Y-75000000D01*
X174750000Y-74500000D01*
X125250000Y-104250000D02*
X126000000Y-103250000D01*
D12*
X147119074Y-93724561D02*
X147538122Y-93724561D01*
X147538122Y-93724561D02*
X147119074Y-94257895D01*
X147119074Y-94257895D02*
X147538122Y-94257895D01*
D10*
X133731048Y-124533866D02*
X134492953Y-124533866D01*
X172738095Y-123714419D02*
X172738095Y-122714419D01*
X172738095Y-122714419D02*
X173119047Y-122714419D01*
X173119047Y-122714419D02*
X173214285Y-122762038D01*
X173214285Y-122762038D02*
X173261904Y-122809657D01*
X173261904Y-122809657D02*
X173309523Y-122904895D01*
X173309523Y-122904895D02*
X173309523Y-123047752D01*
X173309523Y-123047752D02*
X173261904Y-123142990D01*
X173261904Y-123142990D02*
X173214285Y-123190609D01*
X173214285Y-123190609D02*
X173119047Y-123238228D01*
X173119047Y-123238228D02*
X172738095Y-123238228D01*
X173738095Y-123714419D02*
X173738095Y-122714419D01*
X173738095Y-122714419D02*
X174071428Y-123428704D01*
X174071428Y-123428704D02*
X174404761Y-122714419D01*
X174404761Y-122714419D02*
X174404761Y-123714419D01*
X174833333Y-123428704D02*
X175309523Y-123428704D01*
X174738095Y-123714419D02*
X175071428Y-122714419D01*
X175071428Y-122714419D02*
X175404761Y-123714419D01*
X176261904Y-122762038D02*
X176166666Y-122714419D01*
X176166666Y-122714419D02*
X176023809Y-122714419D01*
X176023809Y-122714419D02*
X175880952Y-122762038D01*
X175880952Y-122762038D02*
X175785714Y-122857276D01*
X175785714Y-122857276D02*
X175738095Y-122952514D01*
X175738095Y-122952514D02*
X175690476Y-123142990D01*
X175690476Y-123142990D02*
X175690476Y-123285847D01*
X175690476Y-123285847D02*
X175738095Y-123476323D01*
X175738095Y-123476323D02*
X175785714Y-123571561D01*
X175785714Y-123571561D02*
X175880952Y-123666800D01*
X175880952Y-123666800D02*
X176023809Y-123714419D01*
X176023809Y-123714419D02*
X176119047Y-123714419D01*
X176119047Y-123714419D02*
X176261904Y-123666800D01*
X176261904Y-123666800D02*
X176309523Y-123619180D01*
X176309523Y-123619180D02*
X176309523Y-123285847D01*
X176309523Y-123285847D02*
X176119047Y-123285847D01*
D13*
X129984571Y-117249203D02*
X130365524Y-117249203D01*
X129908381Y-117477775D02*
X130175048Y-116677775D01*
X130175048Y-116677775D02*
X130441714Y-117477775D01*
X131127428Y-117477775D02*
X130670285Y-117477775D01*
X130898857Y-117477775D02*
X130898857Y-116677775D01*
X130898857Y-116677775D02*
X130822666Y-116792060D01*
X130822666Y-116792060D02*
X130746476Y-116868251D01*
X130746476Y-116868251D02*
X130670285Y-116906346D01*
X129984571Y-118346727D02*
X130251237Y-118346727D01*
X130365523Y-118765775D02*
X129984571Y-118765775D01*
X129984571Y-118765775D02*
X129984571Y-117965775D01*
X129984571Y-117965775D02*
X130365523Y-117965775D01*
X130708381Y-118765775D02*
X130708381Y-117965775D01*
X130708381Y-117965775D02*
X130898857Y-117965775D01*
X130898857Y-117965775D02*
X131013143Y-118003870D01*
X131013143Y-118003870D02*
X131089333Y-118080060D01*
X131089333Y-118080060D02*
X131127428Y-118156251D01*
X131127428Y-118156251D02*
X131165524Y-118308632D01*
X131165524Y-118308632D02*
X131165524Y-118422918D01*
X131165524Y-118422918D02*
X131127428Y-118575299D01*
X131127428Y-118575299D02*
X131089333Y-118651489D01*
X131089333Y-118651489D02*
X131013143Y-118727680D01*
X131013143Y-118727680D02*
X130898857Y-118765775D01*
X130898857Y-118765775D02*
X130708381Y-118765775D01*
D10*
X144142857Y-75407200D02*
X144285714Y-75454819D01*
X144285714Y-75454819D02*
X144523809Y-75454819D01*
X144523809Y-75454819D02*
X144619047Y-75407200D01*
X144619047Y-75407200D02*
X144666666Y-75359580D01*
X144666666Y-75359580D02*
X144714285Y-75264342D01*
X144714285Y-75264342D02*
X144714285Y-75169104D01*
X144714285Y-75169104D02*
X144666666Y-75073866D01*
X144666666Y-75073866D02*
X144619047Y-75026247D01*
X144619047Y-75026247D02*
X144523809Y-74978628D01*
X144523809Y-74978628D02*
X144333333Y-74931009D01*
X144333333Y-74931009D02*
X144238095Y-74883390D01*
X144238095Y-74883390D02*
X144190476Y-74835771D01*
X144190476Y-74835771D02*
X144142857Y-74740533D01*
X144142857Y-74740533D02*
X144142857Y-74645295D01*
X144142857Y-74645295D02*
X144190476Y-74550057D01*
X144190476Y-74550057D02*
X144238095Y-74502438D01*
X144238095Y-74502438D02*
X144333333Y-74454819D01*
X144333333Y-74454819D02*
X144571428Y-74454819D01*
X144571428Y-74454819D02*
X144714285Y-74502438D01*
X145285714Y-75454819D02*
X145190476Y-75407200D01*
X145190476Y-75407200D02*
X145142857Y-75359580D01*
X145142857Y-75359580D02*
X145095238Y-75264342D01*
X145095238Y-75264342D02*
X145095238Y-74978628D01*
X145095238Y-74978628D02*
X145142857Y-74883390D01*
X145142857Y-74883390D02*
X145190476Y-74835771D01*
X145190476Y-74835771D02*
X145285714Y-74788152D01*
X145285714Y-74788152D02*
X145428571Y-74788152D01*
X145428571Y-74788152D02*
X145523809Y-74835771D01*
X145523809Y-74835771D02*
X145571428Y-74883390D01*
X145571428Y-74883390D02*
X145619047Y-74978628D01*
X145619047Y-74978628D02*
X145619047Y-75264342D01*
X145619047Y-75264342D02*
X145571428Y-75359580D01*
X145571428Y-75359580D02*
X145523809Y-75407200D01*
X145523809Y-75407200D02*
X145428571Y-75454819D01*
X145428571Y-75454819D02*
X145285714Y-75454819D01*
X146190476Y-75454819D02*
X146095238Y-75407200D01*
X146095238Y-75407200D02*
X146047619Y-75311961D01*
X146047619Y-75311961D02*
X146047619Y-74454819D01*
X146333334Y-75550057D02*
X147095238Y-75550057D01*
X147285715Y-74550057D02*
X147333334Y-74502438D01*
X147333334Y-74502438D02*
X147428572Y-74454819D01*
X147428572Y-74454819D02*
X147666667Y-74454819D01*
X147666667Y-74454819D02*
X147761905Y-74502438D01*
X147761905Y-74502438D02*
X147809524Y-74550057D01*
X147809524Y-74550057D02*
X147857143Y-74645295D01*
X147857143Y-74645295D02*
X147857143Y-74740533D01*
X147857143Y-74740533D02*
X147809524Y-74883390D01*
X147809524Y-74883390D02*
X147238096Y-75454819D01*
X147238096Y-75454819D02*
X147857143Y-75454819D01*
X172738095Y-67454819D02*
X172738095Y-66454819D01*
X172738095Y-66454819D02*
X173119047Y-66454819D01*
X173119047Y-66454819D02*
X173214285Y-66502438D01*
X173214285Y-66502438D02*
X173261904Y-66550057D01*
X173261904Y-66550057D02*
X173309523Y-66645295D01*
X173309523Y-66645295D02*
X173309523Y-66788152D01*
X173309523Y-66788152D02*
X173261904Y-66883390D01*
X173261904Y-66883390D02*
X173214285Y-66931009D01*
X173214285Y-66931009D02*
X173119047Y-66978628D01*
X173119047Y-66978628D02*
X172738095Y-66978628D01*
X173738095Y-67454819D02*
X173738095Y-66454819D01*
X173738095Y-66454819D02*
X174071428Y-67169104D01*
X174071428Y-67169104D02*
X174404761Y-66454819D01*
X174404761Y-66454819D02*
X174404761Y-67454819D01*
X174833333Y-67169104D02*
X175309523Y-67169104D01*
X174738095Y-67454819D02*
X175071428Y-66454819D01*
X175071428Y-66454819D02*
X175404761Y-67454819D01*
X176261904Y-66502438D02*
X176166666Y-66454819D01*
X176166666Y-66454819D02*
X176023809Y-66454819D01*
X176023809Y-66454819D02*
X175880952Y-66502438D01*
X175880952Y-66502438D02*
X175785714Y-66597676D01*
X175785714Y-66597676D02*
X175738095Y-66692914D01*
X175738095Y-66692914D02*
X175690476Y-66883390D01*
X175690476Y-66883390D02*
X175690476Y-67026247D01*
X175690476Y-67026247D02*
X175738095Y-67216723D01*
X175738095Y-67216723D02*
X175785714Y-67311961D01*
X175785714Y-67311961D02*
X175880952Y-67407200D01*
X175880952Y-67407200D02*
X176023809Y-67454819D01*
X176023809Y-67454819D02*
X176119047Y-67454819D01*
X176119047Y-67454819D02*
X176261904Y-67407200D01*
X176261904Y-67407200D02*
X176309523Y-67359580D01*
X176309523Y-67359580D02*
X176309523Y-67026247D01*
X176309523Y-67026247D02*
X176119047Y-67026247D01*
D13*
X148526571Y-98707203D02*
X148907524Y-98707203D01*
X148450381Y-98935775D02*
X148717048Y-98135775D01*
X148717048Y-98135775D02*
X148983714Y-98935775D01*
X149402762Y-98135775D02*
X149478952Y-98135775D01*
X149478952Y-98135775D02*
X149555143Y-98173870D01*
X149555143Y-98173870D02*
X149593238Y-98211965D01*
X149593238Y-98211965D02*
X149631333Y-98288156D01*
X149631333Y-98288156D02*
X149669428Y-98440537D01*
X149669428Y-98440537D02*
X149669428Y-98631013D01*
X149669428Y-98631013D02*
X149631333Y-98783394D01*
X149631333Y-98783394D02*
X149593238Y-98859584D01*
X149593238Y-98859584D02*
X149555143Y-98897680D01*
X149555143Y-98897680D02*
X149478952Y-98935775D01*
X149478952Y-98935775D02*
X149402762Y-98935775D01*
X149402762Y-98935775D02*
X149326571Y-98897680D01*
X149326571Y-98897680D02*
X149288476Y-98859584D01*
X149288476Y-98859584D02*
X149250381Y-98783394D01*
X149250381Y-98783394D02*
X149212285Y-98631013D01*
X149212285Y-98631013D02*
X149212285Y-98440537D01*
X149212285Y-98440537D02*
X149250381Y-98288156D01*
X149250381Y-98288156D02*
X149288476Y-98211965D01*
X149288476Y-98211965D02*
X149326571Y-98173870D01*
X149326571Y-98173870D02*
X149402762Y-98135775D01*
X148526571Y-99804727D02*
X148793237Y-99804727D01*
X148907523Y-100223775D02*
X148526571Y-100223775D01*
X148526571Y-100223775D02*
X148526571Y-99423775D01*
X148526571Y-99423775D02*
X148907523Y-99423775D01*
X149707524Y-100147584D02*
X149669428Y-100185680D01*
X149669428Y-100185680D02*
X149555143Y-100223775D01*
X149555143Y-100223775D02*
X149478952Y-100223775D01*
X149478952Y-100223775D02*
X149364666Y-100185680D01*
X149364666Y-100185680D02*
X149288476Y-100109489D01*
X149288476Y-100109489D02*
X149250381Y-100033299D01*
X149250381Y-100033299D02*
X149212285Y-99880918D01*
X149212285Y-99880918D02*
X149212285Y-99766632D01*
X149212285Y-99766632D02*
X149250381Y-99614251D01*
X149250381Y-99614251D02*
X149288476Y-99538060D01*
X149288476Y-99538060D02*
X149364666Y-99461870D01*
X149364666Y-99461870D02*
X149478952Y-99423775D01*
X149478952Y-99423775D02*
X149555143Y-99423775D01*
X149555143Y-99423775D02*
X149669428Y-99461870D01*
X149669428Y-99461870D02*
X149707524Y-99499965D01*
D12*
X124259074Y-111656895D02*
X124678122Y-111123561D01*
X124259074Y-111123561D02*
X124678122Y-111656895D01*
D10*
X131273779Y-87372866D02*
X132035684Y-87372866D01*
X133731048Y-119453866D02*
X134492953Y-119453866D01*
X134112000Y-119834819D02*
X134112000Y-119072914D01*
X159639048Y-80845866D02*
X160400953Y-80845866D01*
X160020000Y-81226819D02*
X160020000Y-80464914D01*
D12*
X146230074Y-91717895D02*
X146649122Y-91184561D01*
X146230074Y-91184561D02*
X146649122Y-91717895D01*
D14*
X108913485Y-87742571D02*
X110713485Y-87742571D01*
X110713485Y-87742571D02*
X109427771Y-88342571D01*
X109427771Y-88342571D02*
X110713485Y-88942571D01*
X110713485Y-88942571D02*
X108913485Y-88942571D01*
X108913485Y-90571143D02*
X109856342Y-90571143D01*
X109856342Y-90571143D02*
X110027771Y-90485428D01*
X110027771Y-90485428D02*
X110113485Y-90314000D01*
X110113485Y-90314000D02*
X110113485Y-89971143D01*
X110113485Y-89971143D02*
X110027771Y-89799714D01*
X108999200Y-90571143D02*
X108913485Y-90399714D01*
X108913485Y-90399714D02*
X108913485Y-89971143D01*
X108913485Y-89971143D02*
X108999200Y-89799714D01*
X108999200Y-89799714D02*
X109170628Y-89714000D01*
X109170628Y-89714000D02*
X109342057Y-89714000D01*
X109342057Y-89714000D02*
X109513485Y-89799714D01*
X109513485Y-89799714D02*
X109599200Y-89971143D01*
X109599200Y-89971143D02*
X109599200Y-90399714D01*
X109599200Y-90399714D02*
X109684914Y-90571143D01*
X110113485Y-92199714D02*
X108656342Y-92199714D01*
X108656342Y-92199714D02*
X108484914Y-92113999D01*
X108484914Y-92113999D02*
X108399200Y-92028285D01*
X108399200Y-92028285D02*
X108313485Y-91856856D01*
X108313485Y-91856856D02*
X108313485Y-91599714D01*
X108313485Y-91599714D02*
X108399200Y-91428285D01*
X108999200Y-92199714D02*
X108913485Y-92028285D01*
X108913485Y-92028285D02*
X108913485Y-91685428D01*
X108913485Y-91685428D02*
X108999200Y-91513999D01*
X108999200Y-91513999D02*
X109084914Y-91428285D01*
X109084914Y-91428285D02*
X109256342Y-91342571D01*
X109256342Y-91342571D02*
X109770628Y-91342571D01*
X109770628Y-91342571D02*
X109942057Y-91428285D01*
X109942057Y-91428285D02*
X110027771Y-91513999D01*
X110027771Y-91513999D02*
X110113485Y-91685428D01*
X110113485Y-91685428D02*
X110113485Y-92028285D01*
X110113485Y-92028285D02*
X110027771Y-92199714D01*
X108913485Y-93313999D02*
X108999200Y-93142570D01*
X108999200Y-93142570D02*
X109170628Y-93056856D01*
X109170628Y-93056856D02*
X110713485Y-93056856D01*
X108999200Y-94685427D02*
X108913485Y-94513999D01*
X108913485Y-94513999D02*
X108913485Y-94171142D01*
X108913485Y-94171142D02*
X108999200Y-93999713D01*
X108999200Y-93999713D02*
X109170628Y-93913999D01*
X109170628Y-93913999D02*
X109856342Y-93913999D01*
X109856342Y-93913999D02*
X110027771Y-93999713D01*
X110027771Y-93999713D02*
X110113485Y-94171142D01*
X110113485Y-94171142D02*
X110113485Y-94513999D01*
X110113485Y-94513999D02*
X110027771Y-94685427D01*
X110027771Y-94685427D02*
X109856342Y-94771142D01*
X109856342Y-94771142D02*
X109684914Y-94771142D01*
X109684914Y-94771142D02*
X109513485Y-93913999D01*
X110113485Y-95371141D02*
X108913485Y-95799713D01*
X108913485Y-95799713D02*
X110113485Y-96228284D01*
X109856342Y-98885428D02*
X109770628Y-99142571D01*
X109770628Y-99142571D02*
X109684914Y-99228285D01*
X109684914Y-99228285D02*
X109513485Y-99313999D01*
X109513485Y-99313999D02*
X109256342Y-99313999D01*
X109256342Y-99313999D02*
X109084914Y-99228285D01*
X109084914Y-99228285D02*
X108999200Y-99142571D01*
X108999200Y-99142571D02*
X108913485Y-98971142D01*
X108913485Y-98971142D02*
X108913485Y-98285428D01*
X108913485Y-98285428D02*
X110713485Y-98285428D01*
X110713485Y-98285428D02*
X110713485Y-98885428D01*
X110713485Y-98885428D02*
X110627771Y-99056857D01*
X110627771Y-99056857D02*
X110542057Y-99142571D01*
X110542057Y-99142571D02*
X110370628Y-99228285D01*
X110370628Y-99228285D02*
X110199200Y-99228285D01*
X110199200Y-99228285D02*
X110027771Y-99142571D01*
X110027771Y-99142571D02*
X109942057Y-99056857D01*
X109942057Y-99056857D02*
X109856342Y-98885428D01*
X109856342Y-98885428D02*
X109856342Y-98285428D01*
X108913485Y-100342571D02*
X108999200Y-100171142D01*
X108999200Y-100171142D02*
X109084914Y-100085428D01*
X109084914Y-100085428D02*
X109256342Y-99999714D01*
X109256342Y-99999714D02*
X109770628Y-99999714D01*
X109770628Y-99999714D02*
X109942057Y-100085428D01*
X109942057Y-100085428D02*
X110027771Y-100171142D01*
X110027771Y-100171142D02*
X110113485Y-100342571D01*
X110113485Y-100342571D02*
X110113485Y-100599714D01*
X110113485Y-100599714D02*
X110027771Y-100771142D01*
X110027771Y-100771142D02*
X109942057Y-100856857D01*
X109942057Y-100856857D02*
X109770628Y-100942571D01*
X109770628Y-100942571D02*
X109256342Y-100942571D01*
X109256342Y-100942571D02*
X109084914Y-100856857D01*
X109084914Y-100856857D02*
X108999200Y-100771142D01*
X108999200Y-100771142D02*
X108913485Y-100599714D01*
X108913485Y-100599714D02*
X108913485Y-100342571D01*
X108913485Y-102485428D02*
X109856342Y-102485428D01*
X109856342Y-102485428D02*
X110027771Y-102399713D01*
X110027771Y-102399713D02*
X110113485Y-102228285D01*
X110113485Y-102228285D02*
X110113485Y-101885428D01*
X110113485Y-101885428D02*
X110027771Y-101713999D01*
X108999200Y-102485428D02*
X108913485Y-102313999D01*
X108913485Y-102313999D02*
X108913485Y-101885428D01*
X108913485Y-101885428D02*
X108999200Y-101713999D01*
X108999200Y-101713999D02*
X109170628Y-101628285D01*
X109170628Y-101628285D02*
X109342057Y-101628285D01*
X109342057Y-101628285D02*
X109513485Y-101713999D01*
X109513485Y-101713999D02*
X109599200Y-101885428D01*
X109599200Y-101885428D02*
X109599200Y-102313999D01*
X109599200Y-102313999D02*
X109684914Y-102485428D01*
X108913485Y-103342570D02*
X110113485Y-103342570D01*
X109770628Y-103342570D02*
X109942057Y-103428284D01*
X109942057Y-103428284D02*
X110027771Y-103513999D01*
X110027771Y-103513999D02*
X110113485Y-103685427D01*
X110113485Y-103685427D02*
X110113485Y-103856856D01*
X108913485Y-105228285D02*
X110713485Y-105228285D01*
X108999200Y-105228285D02*
X108913485Y-105056856D01*
X108913485Y-105056856D02*
X108913485Y-104713999D01*
X108913485Y-104713999D02*
X108999200Y-104542570D01*
X108999200Y-104542570D02*
X109084914Y-104456856D01*
X109084914Y-104456856D02*
X109256342Y-104371142D01*
X109256342Y-104371142D02*
X109770628Y-104371142D01*
X109770628Y-104371142D02*
X109942057Y-104456856D01*
X109942057Y-104456856D02*
X110027771Y-104542570D01*
X110027771Y-104542570D02*
X110113485Y-104713999D01*
X110113485Y-104713999D02*
X110113485Y-105056856D01*
X110113485Y-105056856D02*
X110027771Y-105228285D01*
X110542057Y-107371142D02*
X110627771Y-107456856D01*
X110627771Y-107456856D02*
X110713485Y-107628285D01*
X110713485Y-107628285D02*
X110713485Y-108056856D01*
X110713485Y-108056856D02*
X110627771Y-108228285D01*
X110627771Y-108228285D02*
X110542057Y-108313999D01*
X110542057Y-108313999D02*
X110370628Y-108399713D01*
X110370628Y-108399713D02*
X110199200Y-108399713D01*
X110199200Y-108399713D02*
X109942057Y-108313999D01*
X109942057Y-108313999D02*
X108913485Y-107285427D01*
X108913485Y-107285427D02*
X108913485Y-108399713D01*
X109084914Y-109171142D02*
X108999200Y-109256856D01*
X108999200Y-109256856D02*
X108913485Y-109171142D01*
X108913485Y-109171142D02*
X108999200Y-109085428D01*
X108999200Y-109085428D02*
X109084914Y-109171142D01*
X109084914Y-109171142D02*
X108913485Y-109171142D01*
X110713485Y-110799714D02*
X110713485Y-110456856D01*
X110713485Y-110456856D02*
X110627771Y-110285428D01*
X110627771Y-110285428D02*
X110542057Y-110199714D01*
X110542057Y-110199714D02*
X110284914Y-110028285D01*
X110284914Y-110028285D02*
X109942057Y-109942571D01*
X109942057Y-109942571D02*
X109256342Y-109942571D01*
X109256342Y-109942571D02*
X109084914Y-110028285D01*
X109084914Y-110028285D02*
X108999200Y-110113999D01*
X108999200Y-110113999D02*
X108913485Y-110285428D01*
X108913485Y-110285428D02*
X108913485Y-110628285D01*
X108913485Y-110628285D02*
X108999200Y-110799714D01*
X108999200Y-110799714D02*
X109084914Y-110885428D01*
X109084914Y-110885428D02*
X109256342Y-110971142D01*
X109256342Y-110971142D02*
X109684914Y-110971142D01*
X109684914Y-110971142D02*
X109856342Y-110885428D01*
X109856342Y-110885428D02*
X109942057Y-110799714D01*
X109942057Y-110799714D02*
X110027771Y-110628285D01*
X110027771Y-110628285D02*
X110027771Y-110285428D01*
X110027771Y-110285428D02*
X109942057Y-110113999D01*
X109942057Y-110113999D02*
X109856342Y-110028285D01*
X109856342Y-110028285D02*
X109684914Y-109942571D01*
D12*
X167439074Y-111148895D02*
X167858122Y-110615561D01*
X167439074Y-110615561D02*
X167858122Y-111148895D01*
X165026074Y-113028561D02*
X165216550Y-113561895D01*
X165407027Y-113028561D02*
X165216550Y-113561895D01*
X165216550Y-113561895D02*
X165140360Y-113752371D01*
X165140360Y-113752371D02*
X165102265Y-113790466D01*
X165102265Y-113790466D02*
X165026074Y-113828561D01*
D10*
X144142857Y-115407200D02*
X144285714Y-115454819D01*
X144285714Y-115454819D02*
X144523809Y-115454819D01*
X144523809Y-115454819D02*
X144619047Y-115407200D01*
X144619047Y-115407200D02*
X144666666Y-115359580D01*
X144666666Y-115359580D02*
X144714285Y-115264342D01*
X144714285Y-115264342D02*
X144714285Y-115169104D01*
X144714285Y-115169104D02*
X144666666Y-115073866D01*
X144666666Y-115073866D02*
X144619047Y-115026247D01*
X144619047Y-115026247D02*
X144523809Y-114978628D01*
X144523809Y-114978628D02*
X144333333Y-114931009D01*
X144333333Y-114931009D02*
X144238095Y-114883390D01*
X144238095Y-114883390D02*
X144190476Y-114835771D01*
X144190476Y-114835771D02*
X144142857Y-114740533D01*
X144142857Y-114740533D02*
X144142857Y-114645295D01*
X144142857Y-114645295D02*
X144190476Y-114550057D01*
X144190476Y-114550057D02*
X144238095Y-114502438D01*
X144238095Y-114502438D02*
X144333333Y-114454819D01*
X144333333Y-114454819D02*
X144571428Y-114454819D01*
X144571428Y-114454819D02*
X144714285Y-114502438D01*
X145285714Y-115454819D02*
X145190476Y-115407200D01*
X145190476Y-115407200D02*
X145142857Y-115359580D01*
X145142857Y-115359580D02*
X145095238Y-115264342D01*
X145095238Y-115264342D02*
X145095238Y-114978628D01*
X145095238Y-114978628D02*
X145142857Y-114883390D01*
X145142857Y-114883390D02*
X145190476Y-114835771D01*
X145190476Y-114835771D02*
X145285714Y-114788152D01*
X145285714Y-114788152D02*
X145428571Y-114788152D01*
X145428571Y-114788152D02*
X145523809Y-114835771D01*
X145523809Y-114835771D02*
X145571428Y-114883390D01*
X145571428Y-114883390D02*
X145619047Y-114978628D01*
X145619047Y-114978628D02*
X145619047Y-115264342D01*
X145619047Y-115264342D02*
X145571428Y-115359580D01*
X145571428Y-115359580D02*
X145523809Y-115407200D01*
X145523809Y-115407200D02*
X145428571Y-115454819D01*
X145428571Y-115454819D02*
X145285714Y-115454819D01*
X146190476Y-115454819D02*
X146095238Y-115407200D01*
X146095238Y-115407200D02*
X146047619Y-115311961D01*
X146047619Y-115311961D02*
X146047619Y-114454819D01*
X146333334Y-115550057D02*
X147095238Y-115550057D01*
X147238096Y-114454819D02*
X147857143Y-114454819D01*
X147857143Y-114454819D02*
X147523810Y-114835771D01*
X147523810Y-114835771D02*
X147666667Y-114835771D01*
X147666667Y-114835771D02*
X147761905Y-114883390D01*
X147761905Y-114883390D02*
X147809524Y-114931009D01*
X147809524Y-114931009D02*
X147857143Y-115026247D01*
X147857143Y-115026247D02*
X147857143Y-115264342D01*
X147857143Y-115264342D02*
X147809524Y-115359580D01*
X147809524Y-115359580D02*
X147761905Y-115407200D01*
X147761905Y-115407200D02*
X147666667Y-115454819D01*
X147666667Y-115454819D02*
X147380953Y-115454819D01*
X147380953Y-115454819D02*
X147285715Y-115407200D01*
X147285715Y-115407200D02*
X147238096Y-115359580D01*
X179451048Y-97101866D02*
X180212953Y-97101866D01*
D12*
X168328074Y-113155561D02*
X168747122Y-113155561D01*
X168747122Y-113155561D02*
X168328074Y-113688895D01*
X168328074Y-113688895D02*
X168747122Y-113688895D01*
D10*
X115988095Y-123714419D02*
X115988095Y-122714419D01*
X115988095Y-122714419D02*
X116369047Y-122714419D01*
X116369047Y-122714419D02*
X116464285Y-122762038D01*
X116464285Y-122762038D02*
X116511904Y-122809657D01*
X116511904Y-122809657D02*
X116559523Y-122904895D01*
X116559523Y-122904895D02*
X116559523Y-123047752D01*
X116559523Y-123047752D02*
X116511904Y-123142990D01*
X116511904Y-123142990D02*
X116464285Y-123190609D01*
X116464285Y-123190609D02*
X116369047Y-123238228D01*
X116369047Y-123238228D02*
X115988095Y-123238228D01*
X116988095Y-123714419D02*
X116988095Y-122714419D01*
X116988095Y-122714419D02*
X117321428Y-123428704D01*
X117321428Y-123428704D02*
X117654761Y-122714419D01*
X117654761Y-122714419D02*
X117654761Y-123714419D01*
X118083333Y-123428704D02*
X118559523Y-123428704D01*
X117988095Y-123714419D02*
X118321428Y-122714419D01*
X118321428Y-122714419D02*
X118654761Y-123714419D01*
X119511904Y-122762038D02*
X119416666Y-122714419D01*
X119416666Y-122714419D02*
X119273809Y-122714419D01*
X119273809Y-122714419D02*
X119130952Y-122762038D01*
X119130952Y-122762038D02*
X119035714Y-122857276D01*
X119035714Y-122857276D02*
X118988095Y-122952514D01*
X118988095Y-122952514D02*
X118940476Y-123142990D01*
X118940476Y-123142990D02*
X118940476Y-123285847D01*
X118940476Y-123285847D02*
X118988095Y-123476323D01*
X118988095Y-123476323D02*
X119035714Y-123571561D01*
X119035714Y-123571561D02*
X119130952Y-123666800D01*
X119130952Y-123666800D02*
X119273809Y-123714419D01*
X119273809Y-123714419D02*
X119369047Y-123714419D01*
X119369047Y-123714419D02*
X119511904Y-123666800D01*
X119511904Y-123666800D02*
X119559523Y-123619180D01*
X119559523Y-123619180D02*
X119559523Y-123285847D01*
X119559523Y-123285847D02*
X119369047Y-123285847D01*
D12*
X107174914Y-92505884D02*
X107213009Y-92548741D01*
X107213009Y-92548741D02*
X107251104Y-92629693D01*
X107251104Y-92629693D02*
X107251104Y-92820169D01*
X107251104Y-92820169D02*
X107213009Y-92891598D01*
X107213009Y-92891598D02*
X107174914Y-92924931D01*
X107174914Y-92924931D02*
X107098723Y-92953503D01*
X107098723Y-92953503D02*
X107022533Y-92943979D01*
X107022533Y-92943979D02*
X106908247Y-92891598D01*
X106908247Y-92891598D02*
X106451104Y-92377312D01*
X106451104Y-92377312D02*
X106451104Y-92872550D01*
X107251104Y-93467789D02*
X107251104Y-93543979D01*
X107251104Y-93543979D02*
X107213009Y-93615408D01*
X107213009Y-93615408D02*
X107174914Y-93648741D01*
X107174914Y-93648741D02*
X107098723Y-93677313D01*
X107098723Y-93677313D02*
X106946342Y-93696360D01*
X106946342Y-93696360D02*
X106755866Y-93672551D01*
X106755866Y-93672551D02*
X106603485Y-93615408D01*
X106603485Y-93615408D02*
X106527295Y-93567789D01*
X106527295Y-93567789D02*
X106489200Y-93524932D01*
X106489200Y-93524932D02*
X106451104Y-93443979D01*
X106451104Y-93443979D02*
X106451104Y-93367789D01*
X106451104Y-93367789D02*
X106489200Y-93296360D01*
X106489200Y-93296360D02*
X106527295Y-93263027D01*
X106527295Y-93263027D02*
X106603485Y-93234455D01*
X106603485Y-93234455D02*
X106755866Y-93215408D01*
X106755866Y-93215408D02*
X106946342Y-93239217D01*
X106946342Y-93239217D02*
X107098723Y-93296360D01*
X107098723Y-93296360D02*
X107174914Y-93343979D01*
X107174914Y-93343979D02*
X107213009Y-93386836D01*
X107213009Y-93386836D02*
X107251104Y-93467789D01*
X107174914Y-94029694D02*
X107213009Y-94072551D01*
X107213009Y-94072551D02*
X107251104Y-94153503D01*
X107251104Y-94153503D02*
X107251104Y-94343979D01*
X107251104Y-94343979D02*
X107213009Y-94415408D01*
X107213009Y-94415408D02*
X107174914Y-94448741D01*
X107174914Y-94448741D02*
X107098723Y-94477313D01*
X107098723Y-94477313D02*
X107022533Y-94467789D01*
X107022533Y-94467789D02*
X106908247Y-94415408D01*
X106908247Y-94415408D02*
X106451104Y-93901122D01*
X106451104Y-93901122D02*
X106451104Y-94396360D01*
X106984438Y-95148742D02*
X106451104Y-95082075D01*
X107289200Y-94996361D02*
X106717771Y-94734456D01*
X106717771Y-94734456D02*
X106717771Y-95229694D01*
X106755866Y-95539218D02*
X106755866Y-96148742D01*
X107251104Y-96743980D02*
X107251104Y-96820170D01*
X107251104Y-96820170D02*
X107213009Y-96891599D01*
X107213009Y-96891599D02*
X107174914Y-96924932D01*
X107174914Y-96924932D02*
X107098723Y-96953504D01*
X107098723Y-96953504D02*
X106946342Y-96972551D01*
X106946342Y-96972551D02*
X106755866Y-96948742D01*
X106755866Y-96948742D02*
X106603485Y-96891599D01*
X106603485Y-96891599D02*
X106527295Y-96843980D01*
X106527295Y-96843980D02*
X106489200Y-96801123D01*
X106489200Y-96801123D02*
X106451104Y-96720170D01*
X106451104Y-96720170D02*
X106451104Y-96643980D01*
X106451104Y-96643980D02*
X106489200Y-96572551D01*
X106489200Y-96572551D02*
X106527295Y-96539218D01*
X106527295Y-96539218D02*
X106603485Y-96510646D01*
X106603485Y-96510646D02*
X106755866Y-96491599D01*
X106755866Y-96491599D02*
X106946342Y-96515408D01*
X106946342Y-96515408D02*
X107098723Y-96572551D01*
X107098723Y-96572551D02*
X107174914Y-96620170D01*
X107174914Y-96620170D02*
X107213009Y-96663027D01*
X107213009Y-96663027D02*
X107251104Y-96743980D01*
X106451104Y-97672551D02*
X106451104Y-97215409D01*
X106451104Y-97443980D02*
X107251104Y-97543980D01*
X107251104Y-97543980D02*
X107136819Y-97453504D01*
X107136819Y-97453504D02*
X107060628Y-97367790D01*
X107060628Y-97367790D02*
X107022533Y-97286837D01*
X106489200Y-98058266D02*
X106451104Y-98053504D01*
X106451104Y-98053504D02*
X106374914Y-98005885D01*
X106374914Y-98005885D02*
X106336819Y-97963028D01*
X107251104Y-99334456D02*
X106679676Y-99263028D01*
X106679676Y-99263028D02*
X106565390Y-99210647D01*
X106565390Y-99210647D02*
X106489200Y-99124932D01*
X106489200Y-99124932D02*
X106451104Y-99005885D01*
X106451104Y-99005885D02*
X106451104Y-98929694D01*
X106451104Y-99615409D02*
X107251104Y-99715409D01*
X106451104Y-99958266D02*
X106870152Y-100010647D01*
X106870152Y-100010647D02*
X106946342Y-99982075D01*
X106946342Y-99982075D02*
X106984438Y-99910647D01*
X106984438Y-99910647D02*
X106984438Y-99796361D01*
X106984438Y-99796361D02*
X106946342Y-99715409D01*
X106946342Y-99715409D02*
X106908247Y-99672552D01*
X107251104Y-100934457D02*
X107251104Y-101391600D01*
X106451104Y-101063029D02*
X107251104Y-101163029D01*
X106489200Y-101867791D02*
X106451104Y-101786838D01*
X106451104Y-101786838D02*
X106451104Y-101634457D01*
X106451104Y-101634457D02*
X106489200Y-101563029D01*
X106489200Y-101563029D02*
X106565390Y-101534457D01*
X106565390Y-101534457D02*
X106870152Y-101572553D01*
X106870152Y-101572553D02*
X106946342Y-101620172D01*
X106946342Y-101620172D02*
X106984438Y-101701124D01*
X106984438Y-101701124D02*
X106984438Y-101853505D01*
X106984438Y-101853505D02*
X106946342Y-101924933D01*
X106946342Y-101924933D02*
X106870152Y-101953505D01*
X106870152Y-101953505D02*
X106793961Y-101943981D01*
X106793961Y-101943981D02*
X106717771Y-101553505D01*
X106489200Y-102591600D02*
X106451104Y-102510647D01*
X106451104Y-102510647D02*
X106451104Y-102358267D01*
X106451104Y-102358267D02*
X106489200Y-102286838D01*
X106489200Y-102286838D02*
X106527295Y-102253505D01*
X106527295Y-102253505D02*
X106603485Y-102224933D01*
X106603485Y-102224933D02*
X106832057Y-102253505D01*
X106832057Y-102253505D02*
X106908247Y-102301124D01*
X106908247Y-102301124D02*
X106946342Y-102343981D01*
X106946342Y-102343981D02*
X106984438Y-102424933D01*
X106984438Y-102424933D02*
X106984438Y-102577314D01*
X106984438Y-102577314D02*
X106946342Y-102648743D01*
X106451104Y-102929695D02*
X107251104Y-103029695D01*
X106451104Y-103272552D02*
X106870152Y-103324933D01*
X106870152Y-103324933D02*
X106946342Y-103296361D01*
X106946342Y-103296361D02*
X106984438Y-103224933D01*
X106984438Y-103224933D02*
X106984438Y-103110647D01*
X106984438Y-103110647D02*
X106946342Y-103029695D01*
X106946342Y-103029695D02*
X106908247Y-102986838D01*
X106984438Y-103720171D02*
X106451104Y-103653505D01*
X106908247Y-103710648D02*
X106946342Y-103753505D01*
X106946342Y-103753505D02*
X106984438Y-103834457D01*
X106984438Y-103834457D02*
X106984438Y-103948743D01*
X106984438Y-103948743D02*
X106946342Y-104020171D01*
X106946342Y-104020171D02*
X106870152Y-104048743D01*
X106870152Y-104048743D02*
X106451104Y-103996362D01*
X106451104Y-104377315D02*
X106984438Y-104443981D01*
X107251104Y-104477315D02*
X107213009Y-104434458D01*
X107213009Y-104434458D02*
X107174914Y-104467791D01*
X107174914Y-104467791D02*
X107213009Y-104510648D01*
X107213009Y-104510648D02*
X107251104Y-104477315D01*
X107251104Y-104477315D02*
X107174914Y-104467791D01*
X106489200Y-105105886D02*
X106451104Y-105024933D01*
X106451104Y-105024933D02*
X106451104Y-104872553D01*
X106451104Y-104872553D02*
X106489200Y-104801124D01*
X106489200Y-104801124D02*
X106527295Y-104767791D01*
X106527295Y-104767791D02*
X106603485Y-104739219D01*
X106603485Y-104739219D02*
X106832057Y-104767791D01*
X106832057Y-104767791D02*
X106908247Y-104815410D01*
X106908247Y-104815410D02*
X106946342Y-104858267D01*
X106946342Y-104858267D02*
X106984438Y-104939219D01*
X106984438Y-104939219D02*
X106984438Y-105091600D01*
X106984438Y-105091600D02*
X106946342Y-105163029D01*
X106451104Y-105786838D02*
X106870152Y-105839219D01*
X106870152Y-105839219D02*
X106946342Y-105810647D01*
X106946342Y-105810647D02*
X106984438Y-105739219D01*
X106984438Y-105739219D02*
X106984438Y-105586838D01*
X106984438Y-105586838D02*
X106946342Y-105505886D01*
X106489200Y-105791600D02*
X106451104Y-105710647D01*
X106451104Y-105710647D02*
X106451104Y-105520171D01*
X106451104Y-105520171D02*
X106489200Y-105448743D01*
X106489200Y-105448743D02*
X106565390Y-105420171D01*
X106565390Y-105420171D02*
X106641580Y-105429695D01*
X106641580Y-105429695D02*
X106717771Y-105477314D01*
X106717771Y-105477314D02*
X106755866Y-105558267D01*
X106755866Y-105558267D02*
X106755866Y-105748743D01*
X106755866Y-105748743D02*
X106793961Y-105829695D01*
X106451104Y-106282077D02*
X106489200Y-106210648D01*
X106489200Y-106210648D02*
X106565390Y-106182077D01*
X106565390Y-106182077D02*
X107251104Y-106267791D01*
X106679676Y-107186839D02*
X106679676Y-107567791D01*
X106451104Y-107082077D02*
X107251104Y-107448744D01*
X107251104Y-107448744D02*
X106451104Y-107615410D01*
X106489200Y-107848743D02*
X106451104Y-107958267D01*
X106451104Y-107958267D02*
X106451104Y-108148743D01*
X106451104Y-108148743D02*
X106489200Y-108229696D01*
X106489200Y-108229696D02*
X106527295Y-108272553D01*
X106527295Y-108272553D02*
X106603485Y-108320172D01*
X106603485Y-108320172D02*
X106679676Y-108329696D01*
X106679676Y-108329696D02*
X106755866Y-108301124D01*
X106755866Y-108301124D02*
X106793961Y-108267791D01*
X106793961Y-108267791D02*
X106832057Y-108196363D01*
X106832057Y-108196363D02*
X106870152Y-108048743D01*
X106870152Y-108048743D02*
X106908247Y-107977315D01*
X106908247Y-107977315D02*
X106946342Y-107943982D01*
X106946342Y-107943982D02*
X107022533Y-107915410D01*
X107022533Y-107915410D02*
X107098723Y-107924934D01*
X107098723Y-107924934D02*
X107174914Y-107972553D01*
X107174914Y-107972553D02*
X107213009Y-108015410D01*
X107213009Y-108015410D02*
X107251104Y-108096363D01*
X107251104Y-108096363D02*
X107251104Y-108286839D01*
X107251104Y-108286839D02*
X107213009Y-108396363D01*
X105163104Y-92453503D02*
X105963104Y-92553503D01*
X105582152Y-92505884D02*
X105582152Y-92963027D01*
X105163104Y-92910646D02*
X105963104Y-93010646D01*
X105239295Y-93301122D02*
X105201200Y-93334455D01*
X105201200Y-93334455D02*
X105163104Y-93291598D01*
X105163104Y-93291598D02*
X105201200Y-93258264D01*
X105201200Y-93258264D02*
X105239295Y-93301122D01*
X105239295Y-93301122D02*
X105163104Y-93291598D01*
X105391676Y-94272550D02*
X105391676Y-94653502D01*
X105163104Y-94167788D02*
X105963104Y-94534455D01*
X105963104Y-94534455D02*
X105163104Y-94701121D01*
X105239295Y-94977312D02*
X105201200Y-95010645D01*
X105201200Y-95010645D02*
X105163104Y-94967788D01*
X105163104Y-94967788D02*
X105201200Y-94934454D01*
X105201200Y-94934454D02*
X105239295Y-94977312D01*
X105239295Y-94977312D02*
X105163104Y-94967788D01*
X105582152Y-96010645D02*
X105582152Y-96277311D01*
X105163104Y-96339216D02*
X105163104Y-95958264D01*
X105163104Y-95958264D02*
X105963104Y-96058264D01*
X105963104Y-96058264D02*
X105963104Y-96439216D01*
X105696438Y-96748740D02*
X105163104Y-96682074D01*
X105620247Y-96739217D02*
X105658342Y-96782074D01*
X105658342Y-96782074D02*
X105696438Y-96863026D01*
X105696438Y-96863026D02*
X105696438Y-96977312D01*
X105696438Y-96977312D02*
X105658342Y-97048740D01*
X105658342Y-97048740D02*
X105582152Y-97077312D01*
X105582152Y-97077312D02*
X105163104Y-97024931D01*
X105696438Y-97815408D02*
X105048819Y-97734455D01*
X105048819Y-97734455D02*
X104972628Y-97686836D01*
X104972628Y-97686836D02*
X104934533Y-97643979D01*
X104934533Y-97643979D02*
X104896438Y-97563027D01*
X104896438Y-97563027D02*
X104896438Y-97448741D01*
X104896438Y-97448741D02*
X104934533Y-97377312D01*
X105201200Y-97753503D02*
X105163104Y-97672550D01*
X105163104Y-97672550D02*
X105163104Y-97520170D01*
X105163104Y-97520170D02*
X105201200Y-97448741D01*
X105201200Y-97448741D02*
X105239295Y-97415408D01*
X105239295Y-97415408D02*
X105315485Y-97386836D01*
X105315485Y-97386836D02*
X105544057Y-97415408D01*
X105544057Y-97415408D02*
X105620247Y-97463027D01*
X105620247Y-97463027D02*
X105658342Y-97505884D01*
X105658342Y-97505884D02*
X105696438Y-97586836D01*
X105696438Y-97586836D02*
X105696438Y-97739217D01*
X105696438Y-97739217D02*
X105658342Y-97810646D01*
X105163104Y-98129694D02*
X105696438Y-98196360D01*
X105620247Y-98186837D02*
X105658342Y-98229694D01*
X105658342Y-98229694D02*
X105696438Y-98310646D01*
X105696438Y-98310646D02*
X105696438Y-98424932D01*
X105696438Y-98424932D02*
X105658342Y-98496360D01*
X105658342Y-98496360D02*
X105582152Y-98524932D01*
X105582152Y-98524932D02*
X105163104Y-98472551D01*
X105582152Y-98524932D02*
X105658342Y-98572551D01*
X105658342Y-98572551D02*
X105696438Y-98653503D01*
X105696438Y-98653503D02*
X105696438Y-98767789D01*
X105696438Y-98767789D02*
X105658342Y-98839218D01*
X105658342Y-98839218D02*
X105582152Y-98867789D01*
X105582152Y-98867789D02*
X105163104Y-98815408D01*
X105163104Y-99539218D02*
X105582152Y-99591599D01*
X105582152Y-99591599D02*
X105658342Y-99563027D01*
X105658342Y-99563027D02*
X105696438Y-99491599D01*
X105696438Y-99491599D02*
X105696438Y-99339218D01*
X105696438Y-99339218D02*
X105658342Y-99258266D01*
X105201200Y-99543980D02*
X105163104Y-99463027D01*
X105163104Y-99463027D02*
X105163104Y-99272551D01*
X105163104Y-99272551D02*
X105201200Y-99201123D01*
X105201200Y-99201123D02*
X105277390Y-99172551D01*
X105277390Y-99172551D02*
X105353580Y-99182075D01*
X105353580Y-99182075D02*
X105429771Y-99229694D01*
X105429771Y-99229694D02*
X105467866Y-99310647D01*
X105467866Y-99310647D02*
X105467866Y-99501123D01*
X105467866Y-99501123D02*
X105505961Y-99582075D01*
X105163104Y-99920171D02*
X105696438Y-99986837D01*
X105544057Y-99967790D02*
X105620247Y-100015409D01*
X105620247Y-100015409D02*
X105658342Y-100058266D01*
X105658342Y-100058266D02*
X105696438Y-100139218D01*
X105696438Y-100139218D02*
X105696438Y-100215409D01*
X105163104Y-100415409D02*
X105963104Y-100515409D01*
X105467866Y-100529695D02*
X105163104Y-100720171D01*
X105696438Y-100786837D02*
X105391676Y-100443980D01*
X105201200Y-101105885D02*
X105163104Y-101101123D01*
X105163104Y-101101123D02*
X105086914Y-101053504D01*
X105086914Y-101053504D02*
X105048819Y-101010647D01*
X105391676Y-102043980D02*
X105391676Y-102424932D01*
X105163104Y-101939218D02*
X105963104Y-102305885D01*
X105963104Y-102305885D02*
X105163104Y-102472551D01*
X105239295Y-102748742D02*
X105201200Y-102782075D01*
X105201200Y-102782075D02*
X105163104Y-102739218D01*
X105163104Y-102739218D02*
X105201200Y-102705884D01*
X105201200Y-102705884D02*
X105239295Y-102748742D01*
X105239295Y-102748742D02*
X105163104Y-102739218D01*
X105163104Y-103729694D02*
X105963104Y-103829694D01*
X105963104Y-103829694D02*
X105391676Y-104024932D01*
X105391676Y-104024932D02*
X105963104Y-104363027D01*
X105963104Y-104363027D02*
X105163104Y-104263027D01*
X105163104Y-104758266D02*
X105201200Y-104686837D01*
X105201200Y-104686837D02*
X105239295Y-104653504D01*
X105239295Y-104653504D02*
X105315485Y-104624932D01*
X105315485Y-104624932D02*
X105544057Y-104653504D01*
X105544057Y-104653504D02*
X105620247Y-104701123D01*
X105620247Y-104701123D02*
X105658342Y-104743980D01*
X105658342Y-104743980D02*
X105696438Y-104824932D01*
X105696438Y-104824932D02*
X105696438Y-104939218D01*
X105696438Y-104939218D02*
X105658342Y-105010646D01*
X105658342Y-105010646D02*
X105620247Y-105043980D01*
X105620247Y-105043980D02*
X105544057Y-105072551D01*
X105544057Y-105072551D02*
X105315485Y-105043980D01*
X105315485Y-105043980D02*
X105239295Y-104996361D01*
X105239295Y-104996361D02*
X105201200Y-104953504D01*
X105201200Y-104953504D02*
X105163104Y-104872551D01*
X105163104Y-104872551D02*
X105163104Y-104758266D01*
X105163104Y-105367790D02*
X105696438Y-105434456D01*
X105544057Y-105415409D02*
X105620247Y-105463028D01*
X105620247Y-105463028D02*
X105658342Y-105505885D01*
X105658342Y-105505885D02*
X105696438Y-105586837D01*
X105696438Y-105586837D02*
X105696438Y-105663028D01*
X105201200Y-105829694D02*
X105163104Y-105901123D01*
X105163104Y-105901123D02*
X105163104Y-106053504D01*
X105163104Y-106053504D02*
X105201200Y-106134456D01*
X105201200Y-106134456D02*
X105277390Y-106182075D01*
X105277390Y-106182075D02*
X105315485Y-106186837D01*
X105315485Y-106186837D02*
X105391676Y-106158266D01*
X105391676Y-106158266D02*
X105429771Y-106086837D01*
X105429771Y-106086837D02*
X105429771Y-105972552D01*
X105429771Y-105972552D02*
X105467866Y-105901123D01*
X105467866Y-105901123D02*
X105544057Y-105872552D01*
X105544057Y-105872552D02*
X105582152Y-105877314D01*
X105582152Y-105877314D02*
X105658342Y-105924933D01*
X105658342Y-105924933D02*
X105696438Y-106005885D01*
X105696438Y-106005885D02*
X105696438Y-106120171D01*
X105696438Y-106120171D02*
X105658342Y-106191599D01*
X105201200Y-106820171D02*
X105163104Y-106739218D01*
X105163104Y-106739218D02*
X105163104Y-106586837D01*
X105163104Y-106586837D02*
X105201200Y-106515409D01*
X105201200Y-106515409D02*
X105277390Y-106486837D01*
X105277390Y-106486837D02*
X105582152Y-106524933D01*
X105582152Y-106524933D02*
X105658342Y-106572552D01*
X105658342Y-106572552D02*
X105696438Y-106653504D01*
X105696438Y-106653504D02*
X105696438Y-106805885D01*
X105696438Y-106805885D02*
X105658342Y-106877313D01*
X105658342Y-106877313D02*
X105582152Y-106905885D01*
X105582152Y-106905885D02*
X105505961Y-106896361D01*
X105505961Y-106896361D02*
X105429771Y-106505885D01*
X105163104Y-107310647D02*
X105201200Y-107239218D01*
X105201200Y-107239218D02*
X105277390Y-107210647D01*
X105277390Y-107210647D02*
X105963104Y-107296361D01*
X105163104Y-107729695D02*
X105201200Y-107658266D01*
X105201200Y-107658266D02*
X105277390Y-107629695D01*
X105277390Y-107629695D02*
X105963104Y-107715409D01*
X105163104Y-108034457D02*
X105696438Y-108101123D01*
X105963104Y-108134457D02*
X105925009Y-108091600D01*
X105925009Y-108091600D02*
X105886914Y-108124933D01*
X105886914Y-108124933D02*
X105925009Y-108167790D01*
X105925009Y-108167790D02*
X105963104Y-108134457D01*
X105963104Y-108134457D02*
X105886914Y-108124933D01*
D15*
X189058098Y-102875428D02*
X189915241Y-102875428D01*
X189486669Y-104375428D02*
X189486669Y-102875428D01*
X190700955Y-102875428D02*
X190986669Y-102875428D01*
X190986669Y-102875428D02*
X191129526Y-102946857D01*
X191129526Y-102946857D02*
X191272383Y-103089714D01*
X191272383Y-103089714D02*
X191343812Y-103375428D01*
X191343812Y-103375428D02*
X191343812Y-103875428D01*
X191343812Y-103875428D02*
X191272383Y-104161142D01*
X191272383Y-104161142D02*
X191129526Y-104304000D01*
X191129526Y-104304000D02*
X190986669Y-104375428D01*
X190986669Y-104375428D02*
X190700955Y-104375428D01*
X190700955Y-104375428D02*
X190558098Y-104304000D01*
X190558098Y-104304000D02*
X190415240Y-104161142D01*
X190415240Y-104161142D02*
X190343812Y-103875428D01*
X190343812Y-103875428D02*
X190343812Y-103375428D01*
X190343812Y-103375428D02*
X190415240Y-103089714D01*
X190415240Y-103089714D02*
X190558098Y-102946857D01*
X190558098Y-102946857D02*
X190700955Y-102875428D01*
X191986669Y-104375428D02*
X191986669Y-102875428D01*
X191986669Y-102875428D02*
X192558098Y-102875428D01*
X192558098Y-102875428D02*
X192700955Y-102946857D01*
X192700955Y-102946857D02*
X192772384Y-103018285D01*
X192772384Y-103018285D02*
X192843812Y-103161142D01*
X192843812Y-103161142D02*
X192843812Y-103375428D01*
X192843812Y-103375428D02*
X192772384Y-103518285D01*
X192772384Y-103518285D02*
X192700955Y-103589714D01*
X192700955Y-103589714D02*
X192558098Y-103661142D01*
X192558098Y-103661142D02*
X191986669Y-103661142D01*
X188415241Y-106719000D02*
X188629527Y-106790428D01*
X188629527Y-106790428D02*
X188986669Y-106790428D01*
X188986669Y-106790428D02*
X189129527Y-106719000D01*
X189129527Y-106719000D02*
X189200955Y-106647571D01*
X189200955Y-106647571D02*
X189272384Y-106504714D01*
X189272384Y-106504714D02*
X189272384Y-106361857D01*
X189272384Y-106361857D02*
X189200955Y-106219000D01*
X189200955Y-106219000D02*
X189129527Y-106147571D01*
X189129527Y-106147571D02*
X188986669Y-106076142D01*
X188986669Y-106076142D02*
X188700955Y-106004714D01*
X188700955Y-106004714D02*
X188558098Y-105933285D01*
X188558098Y-105933285D02*
X188486669Y-105861857D01*
X188486669Y-105861857D02*
X188415241Y-105719000D01*
X188415241Y-105719000D02*
X188415241Y-105576142D01*
X188415241Y-105576142D02*
X188486669Y-105433285D01*
X188486669Y-105433285D02*
X188558098Y-105361857D01*
X188558098Y-105361857D02*
X188700955Y-105290428D01*
X188700955Y-105290428D02*
X189058098Y-105290428D01*
X189058098Y-105290428D02*
X189272384Y-105361857D01*
X189915240Y-106790428D02*
X189915240Y-105290428D01*
X190629526Y-106790428D02*
X190629526Y-105290428D01*
X190629526Y-105290428D02*
X190986669Y-105290428D01*
X190986669Y-105290428D02*
X191200955Y-105361857D01*
X191200955Y-105361857D02*
X191343812Y-105504714D01*
X191343812Y-105504714D02*
X191415241Y-105647571D01*
X191415241Y-105647571D02*
X191486669Y-105933285D01*
X191486669Y-105933285D02*
X191486669Y-106147571D01*
X191486669Y-106147571D02*
X191415241Y-106433285D01*
X191415241Y-106433285D02*
X191343812Y-106576142D01*
X191343812Y-106576142D02*
X191200955Y-106719000D01*
X191200955Y-106719000D02*
X190986669Y-106790428D01*
X190986669Y-106790428D02*
X190629526Y-106790428D01*
X192129526Y-106004714D02*
X192629526Y-106004714D01*
X192843812Y-106790428D02*
X192129526Y-106790428D01*
X192129526Y-106790428D02*
X192129526Y-105290428D01*
X192129526Y-105290428D02*
X192843812Y-105290428D01*
D10*
X124642857Y-95407200D02*
X124785714Y-95454819D01*
X124785714Y-95454819D02*
X125023809Y-95454819D01*
X125023809Y-95454819D02*
X125119047Y-95407200D01*
X125119047Y-95407200D02*
X125166666Y-95359580D01*
X125166666Y-95359580D02*
X125214285Y-95264342D01*
X125214285Y-95264342D02*
X125214285Y-95169104D01*
X125214285Y-95169104D02*
X125166666Y-95073866D01*
X125166666Y-95073866D02*
X125119047Y-95026247D01*
X125119047Y-95026247D02*
X125023809Y-94978628D01*
X125023809Y-94978628D02*
X124833333Y-94931009D01*
X124833333Y-94931009D02*
X124738095Y-94883390D01*
X124738095Y-94883390D02*
X124690476Y-94835771D01*
X124690476Y-94835771D02*
X124642857Y-94740533D01*
X124642857Y-94740533D02*
X124642857Y-94645295D01*
X124642857Y-94645295D02*
X124690476Y-94550057D01*
X124690476Y-94550057D02*
X124738095Y-94502438D01*
X124738095Y-94502438D02*
X124833333Y-94454819D01*
X124833333Y-94454819D02*
X125071428Y-94454819D01*
X125071428Y-94454819D02*
X125214285Y-94502438D01*
X125785714Y-95454819D02*
X125690476Y-95407200D01*
X125690476Y-95407200D02*
X125642857Y-95359580D01*
X125642857Y-95359580D02*
X125595238Y-95264342D01*
X125595238Y-95264342D02*
X125595238Y-94978628D01*
X125595238Y-94978628D02*
X125642857Y-94883390D01*
X125642857Y-94883390D02*
X125690476Y-94835771D01*
X125690476Y-94835771D02*
X125785714Y-94788152D01*
X125785714Y-94788152D02*
X125928571Y-94788152D01*
X125928571Y-94788152D02*
X126023809Y-94835771D01*
X126023809Y-94835771D02*
X126071428Y-94883390D01*
X126071428Y-94883390D02*
X126119047Y-94978628D01*
X126119047Y-94978628D02*
X126119047Y-95264342D01*
X126119047Y-95264342D02*
X126071428Y-95359580D01*
X126071428Y-95359580D02*
X126023809Y-95407200D01*
X126023809Y-95407200D02*
X125928571Y-95454819D01*
X125928571Y-95454819D02*
X125785714Y-95454819D01*
X126690476Y-95454819D02*
X126595238Y-95407200D01*
X126595238Y-95407200D02*
X126547619Y-95311961D01*
X126547619Y-95311961D02*
X126547619Y-94454819D01*
X126833334Y-95550057D02*
X127595238Y-95550057D01*
X128261905Y-94788152D02*
X128261905Y-95454819D01*
X128023810Y-94407200D02*
X127785715Y-95121485D01*
X127785715Y-95121485D02*
X128404762Y-95121485D01*
X179451048Y-101673866D02*
X180212953Y-101673866D01*
X179832000Y-102054819D02*
X179832000Y-101292914D01*
D13*
X167068571Y-117503203D02*
X167449524Y-117503203D01*
X166992381Y-117731775D02*
X167259048Y-116931775D01*
X167259048Y-116931775D02*
X167525714Y-117731775D01*
X167754285Y-117007965D02*
X167792381Y-116969870D01*
X167792381Y-116969870D02*
X167868571Y-116931775D01*
X167868571Y-116931775D02*
X168059047Y-116931775D01*
X168059047Y-116931775D02*
X168135238Y-116969870D01*
X168135238Y-116969870D02*
X168173333Y-117007965D01*
X168173333Y-117007965D02*
X168211428Y-117084156D01*
X168211428Y-117084156D02*
X168211428Y-117160346D01*
X168211428Y-117160346D02*
X168173333Y-117274632D01*
X168173333Y-117274632D02*
X167716190Y-117731775D01*
X167716190Y-117731775D02*
X168211428Y-117731775D01*
X167106666Y-118600727D02*
X167373332Y-118600727D01*
X167487618Y-119019775D02*
X167106666Y-119019775D01*
X167106666Y-119019775D02*
X167106666Y-118219775D01*
X167106666Y-118219775D02*
X167487618Y-118219775D01*
X167830476Y-118600727D02*
X168097142Y-118600727D01*
X168211428Y-119019775D02*
X167830476Y-119019775D01*
X167830476Y-119019775D02*
X167830476Y-118219775D01*
X167830476Y-118219775D02*
X168211428Y-118219775D01*
D12*
X121846074Y-113536561D02*
X122036550Y-114069895D01*
X122227027Y-113536561D02*
X122036550Y-114069895D01*
X122036550Y-114069895D02*
X121960360Y-114260371D01*
X121960360Y-114260371D02*
X121922265Y-114298466D01*
X121922265Y-114298466D02*
X121846074Y-114336561D01*
X125148074Y-113663561D02*
X125567122Y-113663561D01*
X125567122Y-113663561D02*
X125148074Y-114196895D01*
X125148074Y-114196895D02*
X125567122Y-114196895D01*
X143817074Y-93597561D02*
X144007550Y-94130895D01*
X144198027Y-93597561D02*
X144007550Y-94130895D01*
X144007550Y-94130895D02*
X143931360Y-94321371D01*
X143931360Y-94321371D02*
X143893265Y-94359466D01*
X143893265Y-94359466D02*
X143817074Y-94397561D01*
D10*
X164642857Y-95407200D02*
X164785714Y-95454819D01*
X164785714Y-95454819D02*
X165023809Y-95454819D01*
X165023809Y-95454819D02*
X165119047Y-95407200D01*
X165119047Y-95407200D02*
X165166666Y-95359580D01*
X165166666Y-95359580D02*
X165214285Y-95264342D01*
X165214285Y-95264342D02*
X165214285Y-95169104D01*
X165214285Y-95169104D02*
X165166666Y-95073866D01*
X165166666Y-95073866D02*
X165119047Y-95026247D01*
X165119047Y-95026247D02*
X165023809Y-94978628D01*
X165023809Y-94978628D02*
X164833333Y-94931009D01*
X164833333Y-94931009D02*
X164738095Y-94883390D01*
X164738095Y-94883390D02*
X164690476Y-94835771D01*
X164690476Y-94835771D02*
X164642857Y-94740533D01*
X164642857Y-94740533D02*
X164642857Y-94645295D01*
X164642857Y-94645295D02*
X164690476Y-94550057D01*
X164690476Y-94550057D02*
X164738095Y-94502438D01*
X164738095Y-94502438D02*
X164833333Y-94454819D01*
X164833333Y-94454819D02*
X165071428Y-94454819D01*
X165071428Y-94454819D02*
X165214285Y-94502438D01*
X165785714Y-95454819D02*
X165690476Y-95407200D01*
X165690476Y-95407200D02*
X165642857Y-95359580D01*
X165642857Y-95359580D02*
X165595238Y-95264342D01*
X165595238Y-95264342D02*
X165595238Y-94978628D01*
X165595238Y-94978628D02*
X165642857Y-94883390D01*
X165642857Y-94883390D02*
X165690476Y-94835771D01*
X165690476Y-94835771D02*
X165785714Y-94788152D01*
X165785714Y-94788152D02*
X165928571Y-94788152D01*
X165928571Y-94788152D02*
X166023809Y-94835771D01*
X166023809Y-94835771D02*
X166071428Y-94883390D01*
X166071428Y-94883390D02*
X166119047Y-94978628D01*
X166119047Y-94978628D02*
X166119047Y-95264342D01*
X166119047Y-95264342D02*
X166071428Y-95359580D01*
X166071428Y-95359580D02*
X166023809Y-95407200D01*
X166023809Y-95407200D02*
X165928571Y-95454819D01*
X165928571Y-95454819D02*
X165785714Y-95454819D01*
X166690476Y-95454819D02*
X166595238Y-95407200D01*
X166595238Y-95407200D02*
X166547619Y-95311961D01*
X166547619Y-95311961D02*
X166547619Y-94454819D01*
X166833334Y-95550057D02*
X167595238Y-95550057D01*
X168357143Y-95454819D02*
X167785715Y-95454819D01*
X168071429Y-95454819D02*
X168071429Y-94454819D01*
X168071429Y-94454819D02*
X167976191Y-94597676D01*
X167976191Y-94597676D02*
X167880953Y-94692914D01*
X167880953Y-94692914D02*
X167785715Y-94740533D01*
X193195601Y-87089438D02*
X193100363Y-87041819D01*
X193100363Y-87041819D02*
X192957506Y-87041819D01*
X192957506Y-87041819D02*
X192814649Y-87089438D01*
X192814649Y-87089438D02*
X192719411Y-87184676D01*
X192719411Y-87184676D02*
X192671792Y-87279914D01*
X192671792Y-87279914D02*
X192624173Y-87470390D01*
X192624173Y-87470390D02*
X192624173Y-87613247D01*
X192624173Y-87613247D02*
X192671792Y-87803723D01*
X192671792Y-87803723D02*
X192719411Y-87898961D01*
X192719411Y-87898961D02*
X192814649Y-87994200D01*
X192814649Y-87994200D02*
X192957506Y-88041819D01*
X192957506Y-88041819D02*
X193052744Y-88041819D01*
X193052744Y-88041819D02*
X193195601Y-87994200D01*
X193195601Y-87994200D02*
X193243220Y-87946580D01*
X193243220Y-87946580D02*
X193243220Y-87613247D01*
X193243220Y-87613247D02*
X193052744Y-87613247D01*
X193671792Y-88041819D02*
X193671792Y-87041819D01*
X193671792Y-87041819D02*
X194243220Y-88041819D01*
X194243220Y-88041819D02*
X194243220Y-87041819D01*
X194719411Y-88041819D02*
X194719411Y-87041819D01*
X194719411Y-87041819D02*
X194957506Y-87041819D01*
X194957506Y-87041819D02*
X195100363Y-87089438D01*
X195100363Y-87089438D02*
X195195601Y-87184676D01*
X195195601Y-87184676D02*
X195243220Y-87279914D01*
X195243220Y-87279914D02*
X195290839Y-87470390D01*
X195290839Y-87470390D02*
X195290839Y-87613247D01*
X195290839Y-87613247D02*
X195243220Y-87803723D01*
X195243220Y-87803723D02*
X195195601Y-87898961D01*
X195195601Y-87898961D02*
X195100363Y-87994200D01*
X195100363Y-87994200D02*
X194957506Y-88041819D01*
X194957506Y-88041819D02*
X194719411Y-88041819D01*
X191100363Y-89651819D02*
X191100363Y-88651819D01*
X191100363Y-88651819D02*
X191481315Y-88651819D01*
X191481315Y-88651819D02*
X191576553Y-88699438D01*
X191576553Y-88699438D02*
X191624172Y-88747057D01*
X191624172Y-88747057D02*
X191671791Y-88842295D01*
X191671791Y-88842295D02*
X191671791Y-88985152D01*
X191671791Y-88985152D02*
X191624172Y-89080390D01*
X191624172Y-89080390D02*
X191576553Y-89128009D01*
X191576553Y-89128009D02*
X191481315Y-89175628D01*
X191481315Y-89175628D02*
X191100363Y-89175628D01*
X192576553Y-89651819D02*
X192100363Y-89651819D01*
X192100363Y-89651819D02*
X192100363Y-88651819D01*
X192862268Y-89366104D02*
X193338458Y-89366104D01*
X192767030Y-89651819D02*
X193100363Y-88651819D01*
X193100363Y-88651819D02*
X193433696Y-89651819D01*
X193767030Y-89651819D02*
X193767030Y-88651819D01*
X193767030Y-88651819D02*
X194338458Y-89651819D01*
X194338458Y-89651819D02*
X194338458Y-88651819D01*
X194814649Y-89128009D02*
X195147982Y-89128009D01*
X195290839Y-89651819D02*
X194814649Y-89651819D01*
X194814649Y-89651819D02*
X194814649Y-88651819D01*
X194814649Y-88651819D02*
X195290839Y-88651819D01*
X125910133Y-86995048D02*
X125910133Y-87756953D01*
X125529180Y-87376000D02*
X126291085Y-87376000D01*
X116238095Y-67454819D02*
X116238095Y-66454819D01*
X116238095Y-66454819D02*
X116619047Y-66454819D01*
X116619047Y-66454819D02*
X116714285Y-66502438D01*
X116714285Y-66502438D02*
X116761904Y-66550057D01*
X116761904Y-66550057D02*
X116809523Y-66645295D01*
X116809523Y-66645295D02*
X116809523Y-66788152D01*
X116809523Y-66788152D02*
X116761904Y-66883390D01*
X116761904Y-66883390D02*
X116714285Y-66931009D01*
X116714285Y-66931009D02*
X116619047Y-66978628D01*
X116619047Y-66978628D02*
X116238095Y-66978628D01*
X117238095Y-67454819D02*
X117238095Y-66454819D01*
X117238095Y-66454819D02*
X117571428Y-67169104D01*
X117571428Y-67169104D02*
X117904761Y-66454819D01*
X117904761Y-66454819D02*
X117904761Y-67454819D01*
X118333333Y-67169104D02*
X118809523Y-67169104D01*
X118238095Y-67454819D02*
X118571428Y-66454819D01*
X118571428Y-66454819D02*
X118904761Y-67454819D01*
X119761904Y-66502438D02*
X119666666Y-66454819D01*
X119666666Y-66454819D02*
X119523809Y-66454819D01*
X119523809Y-66454819D02*
X119380952Y-66502438D01*
X119380952Y-66502438D02*
X119285714Y-66597676D01*
X119285714Y-66597676D02*
X119238095Y-66692914D01*
X119238095Y-66692914D02*
X119190476Y-66883390D01*
X119190476Y-66883390D02*
X119190476Y-67026247D01*
X119190476Y-67026247D02*
X119238095Y-67216723D01*
X119238095Y-67216723D02*
X119285714Y-67311961D01*
X119285714Y-67311961D02*
X119380952Y-67407200D01*
X119380952Y-67407200D02*
X119523809Y-67454819D01*
X119523809Y-67454819D02*
X119619047Y-67454819D01*
X119619047Y-67454819D02*
X119761904Y-67407200D01*
X119761904Y-67407200D02*
X119809523Y-67359580D01*
X119809523Y-67359580D02*
X119809523Y-67026247D01*
X119809523Y-67026247D02*
X119619047Y-67026247D01*
X159594779Y-76323866D02*
X160356684Y-76323866D01*
X132921524Y-120450419D02*
X133540571Y-120450419D01*
X133540571Y-120450419D02*
X133207238Y-120831371D01*
X133207238Y-120831371D02*
X133350095Y-120831371D01*
X133350095Y-120831371D02*
X133445333Y-120878990D01*
X133445333Y-120878990D02*
X133492952Y-120926609D01*
X133492952Y-120926609D02*
X133540571Y-121021847D01*
X133540571Y-121021847D02*
X133540571Y-121259942D01*
X133540571Y-121259942D02*
X133492952Y-121355180D01*
X133492952Y-121355180D02*
X133445333Y-121402800D01*
X133445333Y-121402800D02*
X133350095Y-121450419D01*
X133350095Y-121450419D02*
X133064381Y-121450419D01*
X133064381Y-121450419D02*
X132969143Y-121402800D01*
X132969143Y-121402800D02*
X132921524Y-121355180D01*
X133731048Y-121545657D02*
X134492952Y-121545657D01*
X134683429Y-120545657D02*
X134731048Y-120498038D01*
X134731048Y-120498038D02*
X134826286Y-120450419D01*
X134826286Y-120450419D02*
X135064381Y-120450419D01*
X135064381Y-120450419D02*
X135159619Y-120498038D01*
X135159619Y-120498038D02*
X135207238Y-120545657D01*
X135207238Y-120545657D02*
X135254857Y-120640895D01*
X135254857Y-120640895D02*
X135254857Y-120736133D01*
X135254857Y-120736133D02*
X135207238Y-120878990D01*
X135207238Y-120878990D02*
X134635810Y-121450419D01*
X134635810Y-121450419D02*
X135254857Y-121450419D01*
X123333333Y-85288152D02*
X123333333Y-85954819D01*
X123095238Y-84907200D02*
X122857143Y-85621485D01*
X122857143Y-85621485D02*
X123476190Y-85621485D01*
X123619048Y-86050057D02*
X124380952Y-86050057D01*
X125142857Y-85954819D02*
X124571429Y-85954819D01*
X124857143Y-85954819D02*
X124857143Y-84954819D01*
X124857143Y-84954819D02*
X124761905Y-85097676D01*
X124761905Y-85097676D02*
X124666667Y-85192914D01*
X124666667Y-85192914D02*
X124571429Y-85240533D01*
X177228571Y-95582819D02*
X176657143Y-95582819D01*
X176942857Y-95582819D02*
X176942857Y-94582819D01*
X176942857Y-94582819D02*
X176847619Y-94725676D01*
X176847619Y-94725676D02*
X176752381Y-94820914D01*
X176752381Y-94820914D02*
X176657143Y-94868533D01*
X177419048Y-95678057D02*
X178180952Y-95678057D01*
X178371429Y-94678057D02*
X178419048Y-94630438D01*
X178419048Y-94630438D02*
X178514286Y-94582819D01*
X178514286Y-94582819D02*
X178752381Y-94582819D01*
X178752381Y-94582819D02*
X178847619Y-94630438D01*
X178847619Y-94630438D02*
X178895238Y-94678057D01*
X178895238Y-94678057D02*
X178942857Y-94773295D01*
X178942857Y-94773295D02*
X178942857Y-94868533D01*
X178942857Y-94868533D02*
X178895238Y-95011390D01*
X178895238Y-95011390D02*
X178323810Y-95582819D01*
X178323810Y-95582819D02*
X178942857Y-95582819D01*
X126738095Y-115907200D02*
X126880952Y-115954819D01*
X126880952Y-115954819D02*
X127119047Y-115954819D01*
X127119047Y-115954819D02*
X127214285Y-115907200D01*
X127214285Y-115907200D02*
X127261904Y-115859580D01*
X127261904Y-115859580D02*
X127309523Y-115764342D01*
X127309523Y-115764342D02*
X127309523Y-115669104D01*
X127309523Y-115669104D02*
X127261904Y-115573866D01*
X127261904Y-115573866D02*
X127214285Y-115526247D01*
X127214285Y-115526247D02*
X127119047Y-115478628D01*
X127119047Y-115478628D02*
X126928571Y-115431009D01*
X126928571Y-115431009D02*
X126833333Y-115383390D01*
X126833333Y-115383390D02*
X126785714Y-115335771D01*
X126785714Y-115335771D02*
X126738095Y-115240533D01*
X126738095Y-115240533D02*
X126738095Y-115145295D01*
X126738095Y-115145295D02*
X126785714Y-115050057D01*
X126785714Y-115050057D02*
X126833333Y-115002438D01*
X126833333Y-115002438D02*
X126928571Y-114954819D01*
X126928571Y-114954819D02*
X127166666Y-114954819D01*
X127166666Y-114954819D02*
X127309523Y-115002438D01*
X127690476Y-115050057D02*
X127738095Y-115002438D01*
X127738095Y-115002438D02*
X127833333Y-114954819D01*
X127833333Y-114954819D02*
X128071428Y-114954819D01*
X128071428Y-114954819D02*
X128166666Y-115002438D01*
X128166666Y-115002438D02*
X128214285Y-115050057D01*
X128214285Y-115050057D02*
X128261904Y-115145295D01*
X128261904Y-115145295D02*
X128261904Y-115240533D01*
X128261904Y-115240533D02*
X128214285Y-115383390D01*
X128214285Y-115383390D02*
X127642857Y-115954819D01*
X127642857Y-115954819D02*
X128261904Y-115954819D01*
X163738095Y-115907200D02*
X163880952Y-115954819D01*
X163880952Y-115954819D02*
X164119047Y-115954819D01*
X164119047Y-115954819D02*
X164214285Y-115907200D01*
X164214285Y-115907200D02*
X164261904Y-115859580D01*
X164261904Y-115859580D02*
X164309523Y-115764342D01*
X164309523Y-115764342D02*
X164309523Y-115669104D01*
X164309523Y-115669104D02*
X164261904Y-115573866D01*
X164261904Y-115573866D02*
X164214285Y-115526247D01*
X164214285Y-115526247D02*
X164119047Y-115478628D01*
X164119047Y-115478628D02*
X163928571Y-115431009D01*
X163928571Y-115431009D02*
X163833333Y-115383390D01*
X163833333Y-115383390D02*
X163785714Y-115335771D01*
X163785714Y-115335771D02*
X163738095Y-115240533D01*
X163738095Y-115240533D02*
X163738095Y-115145295D01*
X163738095Y-115145295D02*
X163785714Y-115050057D01*
X163785714Y-115050057D02*
X163833333Y-115002438D01*
X163833333Y-115002438D02*
X163928571Y-114954819D01*
X163928571Y-114954819D02*
X164166666Y-114954819D01*
X164166666Y-114954819D02*
X164309523Y-115002438D01*
X164642857Y-114954819D02*
X165261904Y-114954819D01*
X165261904Y-114954819D02*
X164928571Y-115335771D01*
X164928571Y-115335771D02*
X165071428Y-115335771D01*
X165071428Y-115335771D02*
X165166666Y-115383390D01*
X165166666Y-115383390D02*
X165214285Y-115431009D01*
X165214285Y-115431009D02*
X165261904Y-115526247D01*
X165261904Y-115526247D02*
X165261904Y-115764342D01*
X165261904Y-115764342D02*
X165214285Y-115859580D01*
X165214285Y-115859580D02*
X165166666Y-115907200D01*
X165166666Y-115907200D02*
X165071428Y-115954819D01*
X165071428Y-115954819D02*
X164785714Y-115954819D01*
X164785714Y-115954819D02*
X164690476Y-115907200D01*
X164690476Y-115907200D02*
X164642857Y-115859580D01*
X177228571Y-100154819D02*
X176657143Y-100154819D01*
X176942857Y-100154819D02*
X176942857Y-99154819D01*
X176942857Y-99154819D02*
X176847619Y-99297676D01*
X176847619Y-99297676D02*
X176752381Y-99392914D01*
X176752381Y-99392914D02*
X176657143Y-99440533D01*
X177419048Y-100250057D02*
X178180952Y-100250057D01*
X178942857Y-100154819D02*
X178371429Y-100154819D01*
X178657143Y-100154819D02*
X178657143Y-99154819D01*
X178657143Y-99154819D02*
X178561905Y-99297676D01*
X178561905Y-99297676D02*
X178466667Y-99392914D01*
X178466667Y-99392914D02*
X178371429Y-99440533D01*
X156857143Y-73890457D02*
X156904762Y-73842838D01*
X156904762Y-73842838D02*
X157000000Y-73795219D01*
X157000000Y-73795219D02*
X157238095Y-73795219D01*
X157238095Y-73795219D02*
X157333333Y-73842838D01*
X157333333Y-73842838D02*
X157380952Y-73890457D01*
X157380952Y-73890457D02*
X157428571Y-73985695D01*
X157428571Y-73985695D02*
X157428571Y-74080933D01*
X157428571Y-74080933D02*
X157380952Y-74223790D01*
X157380952Y-74223790D02*
X156809524Y-74795219D01*
X156809524Y-74795219D02*
X157428571Y-74795219D01*
X157619048Y-74890457D02*
X158380952Y-74890457D01*
X158571429Y-73890457D02*
X158619048Y-73842838D01*
X158619048Y-73842838D02*
X158714286Y-73795219D01*
X158714286Y-73795219D02*
X158952381Y-73795219D01*
X158952381Y-73795219D02*
X159047619Y-73842838D01*
X159047619Y-73842838D02*
X159095238Y-73890457D01*
X159095238Y-73890457D02*
X159142857Y-73985695D01*
X159142857Y-73985695D02*
X159142857Y-74080933D01*
X159142857Y-74080933D02*
X159095238Y-74223790D01*
X159095238Y-74223790D02*
X158523810Y-74795219D01*
X158523810Y-74795219D02*
X159142857Y-74795219D01*
X132809524Y-115192819D02*
X133428571Y-115192819D01*
X133428571Y-115192819D02*
X133095238Y-115573771D01*
X133095238Y-115573771D02*
X133238095Y-115573771D01*
X133238095Y-115573771D02*
X133333333Y-115621390D01*
X133333333Y-115621390D02*
X133380952Y-115669009D01*
X133380952Y-115669009D02*
X133428571Y-115764247D01*
X133428571Y-115764247D02*
X133428571Y-116002342D01*
X133428571Y-116002342D02*
X133380952Y-116097580D01*
X133380952Y-116097580D02*
X133333333Y-116145200D01*
X133333333Y-116145200D02*
X133238095Y-116192819D01*
X133238095Y-116192819D02*
X132952381Y-116192819D01*
X132952381Y-116192819D02*
X132857143Y-116145200D01*
X132857143Y-116145200D02*
X132809524Y-116097580D01*
X133619048Y-116288057D02*
X134380952Y-116288057D01*
X135142857Y-116192819D02*
X134571429Y-116192819D01*
X134857143Y-116192819D02*
X134857143Y-115192819D01*
X134857143Y-115192819D02*
X134761905Y-115335676D01*
X134761905Y-115335676D02*
X134666667Y-115430914D01*
X134666667Y-115430914D02*
X134571429Y-115478533D01*
X156857143Y-78490457D02*
X156904762Y-78442838D01*
X156904762Y-78442838D02*
X157000000Y-78395219D01*
X157000000Y-78395219D02*
X157238095Y-78395219D01*
X157238095Y-78395219D02*
X157333333Y-78442838D01*
X157333333Y-78442838D02*
X157380952Y-78490457D01*
X157380952Y-78490457D02*
X157428571Y-78585695D01*
X157428571Y-78585695D02*
X157428571Y-78680933D01*
X157428571Y-78680933D02*
X157380952Y-78823790D01*
X157380952Y-78823790D02*
X156809524Y-79395219D01*
X156809524Y-79395219D02*
X157428571Y-79395219D01*
X157619048Y-79490457D02*
X158380952Y-79490457D01*
X159142857Y-79395219D02*
X158571429Y-79395219D01*
X158857143Y-79395219D02*
X158857143Y-78395219D01*
X158857143Y-78395219D02*
X158761905Y-78538076D01*
X158761905Y-78538076D02*
X158666667Y-78633314D01*
X158666667Y-78633314D02*
X158571429Y-78680933D01*
X128733333Y-85228552D02*
X128733333Y-85895219D01*
X128495238Y-84847600D02*
X128257143Y-85561885D01*
X128257143Y-85561885D02*
X128876190Y-85561885D01*
X129019048Y-85990457D02*
X129780952Y-85990457D01*
X129971429Y-84990457D02*
X130019048Y-84942838D01*
X130019048Y-84942838D02*
X130114286Y-84895219D01*
X130114286Y-84895219D02*
X130352381Y-84895219D01*
X130352381Y-84895219D02*
X130447619Y-84942838D01*
X130447619Y-84942838D02*
X130495238Y-84990457D01*
X130495238Y-84990457D02*
X130542857Y-85085695D01*
X130542857Y-85085695D02*
X130542857Y-85180933D01*
X130542857Y-85180933D02*
X130495238Y-85323790D01*
X130495238Y-85323790D02*
X129923810Y-85895219D01*
X129923810Y-85895219D02*
X130542857Y-85895219D01*
X145238095Y-97407200D02*
X145380952Y-97454819D01*
X145380952Y-97454819D02*
X145619047Y-97454819D01*
X145619047Y-97454819D02*
X145714285Y-97407200D01*
X145714285Y-97407200D02*
X145761904Y-97359580D01*
X145761904Y-97359580D02*
X145809523Y-97264342D01*
X145809523Y-97264342D02*
X145809523Y-97169104D01*
X145809523Y-97169104D02*
X145761904Y-97073866D01*
X145761904Y-97073866D02*
X145714285Y-97026247D01*
X145714285Y-97026247D02*
X145619047Y-96978628D01*
X145619047Y-96978628D02*
X145428571Y-96931009D01*
X145428571Y-96931009D02*
X145333333Y-96883390D01*
X145333333Y-96883390D02*
X145285714Y-96835771D01*
X145285714Y-96835771D02*
X145238095Y-96740533D01*
X145238095Y-96740533D02*
X145238095Y-96645295D01*
X145238095Y-96645295D02*
X145285714Y-96550057D01*
X145285714Y-96550057D02*
X145333333Y-96502438D01*
X145333333Y-96502438D02*
X145428571Y-96454819D01*
X145428571Y-96454819D02*
X145666666Y-96454819D01*
X145666666Y-96454819D02*
X145809523Y-96502438D01*
X146761904Y-97454819D02*
X146190476Y-97454819D01*
X146476190Y-97454819D02*
X146476190Y-96454819D01*
X146476190Y-96454819D02*
X146380952Y-96597676D01*
X146380952Y-96597676D02*
X146285714Y-96692914D01*
X146285714Y-96692914D02*
X146190476Y-96740533D01*
D16*
X133162000Y-121986000D02*
X135062000Y-121986000D01*
X133162000Y-123886000D02*
X133162000Y-121986000D01*
X135062000Y-121986000D02*
X135062000Y-123886000D01*
X135062000Y-123886000D02*
X133162000Y-123886000D01*
X123050000Y-86490400D02*
X124950000Y-86490400D01*
X123050000Y-88390400D02*
X123050000Y-86490400D01*
X124950000Y-86490400D02*
X124950000Y-88390400D01*
X124950000Y-88390400D02*
X123050000Y-88390400D01*
X176850000Y-96078000D02*
X178750000Y-96078000D01*
X176850000Y-97978000D02*
X176850000Y-96078000D01*
X178750000Y-96078000D02*
X178750000Y-97978000D01*
X178750000Y-97978000D02*
X176850000Y-97978000D01*
X127508000Y-116296000D02*
X125708000Y-116296000D01*
X127508000Y-116296000D02*
X128308000Y-116296000D01*
X127508000Y-119416000D02*
X126708000Y-119416000D01*
X127508000Y-119416000D02*
X128308000Y-119416000D01*
X164713500Y-116362000D02*
X162913500Y-116362000D01*
X164713500Y-116362000D02*
X165513500Y-116362000D01*
X164713500Y-119482000D02*
X163913500Y-119482000D01*
X164713500Y-119482000D02*
X165513500Y-119482000D01*
X176850000Y-100650000D02*
X178750000Y-100650000D01*
X176850000Y-102550000D02*
X176850000Y-100650000D01*
X178750000Y-100650000D02*
X178750000Y-102550000D01*
X178750000Y-102550000D02*
X176850000Y-102550000D01*
X157050000Y-75390400D02*
X158950000Y-75390400D01*
X157050000Y-77290400D02*
X157050000Y-75390400D01*
X158950000Y-75390400D02*
X158950000Y-77290400D01*
X158950000Y-77290400D02*
X157050000Y-77290400D01*
X133050000Y-116906000D02*
X134950000Y-116906000D01*
X133050000Y-118806000D02*
X133050000Y-116906000D01*
X134950000Y-116906000D02*
X134950000Y-118806000D01*
X134950000Y-118806000D02*
X133050000Y-118806000D01*
X157050000Y-79990400D02*
X158950000Y-79990400D01*
X157050000Y-81890400D02*
X157050000Y-79990400D01*
X158950000Y-79990400D02*
X158950000Y-81890400D01*
X158950000Y-81890400D02*
X157050000Y-81890400D01*
X128450000Y-86490400D02*
X130350000Y-86490400D01*
X128450000Y-88390400D02*
X128450000Y-86490400D01*
X130350000Y-86490400D02*
X130350000Y-88390400D01*
X130350000Y-88390400D02*
X128450000Y-88390400D01*
X146201140Y-97690000D02*
X144401140Y-97690000D01*
X146201140Y-97690000D02*
X147001140Y-97690000D01*
X146201140Y-100810000D02*
X145401140Y-100810000D01*
X146201140Y-100810000D02*
X147001140Y-100810000D01*
%LPC*%
D17*
D18*
X134112000Y-122936000D03*
X124000000Y-87440400D03*
X177800000Y-97028000D03*
D19*
X126370500Y-116906000D03*
X126370500Y-117856000D03*
X126370500Y-118806000D03*
X128645500Y-118806000D03*
X128645500Y-117856000D03*
X128645500Y-116906000D03*
X163576000Y-116972000D03*
X163576000Y-117922000D03*
X163576000Y-118872000D03*
X165851000Y-118872000D03*
X165851000Y-117922000D03*
X165851000Y-116972000D03*
D18*
X177800000Y-101600000D03*
X158000000Y-76340400D03*
X134000000Y-117856000D03*
X158000000Y-80940400D03*
X129400000Y-87440400D03*
D19*
X145063640Y-98300000D03*
X145063640Y-99250000D03*
X145063640Y-100200000D03*
X147338640Y-100200000D03*
X147338640Y-99250000D03*
X147338640Y-98300000D03*
D20*
X129077025Y-140852859D03*
X126250000Y-99250000D03*
X100750000Y-99250000D03*
X118000000Y-71000000D03*
X146208951Y-79245847D03*
X191250000Y-99250000D03*
X174500000Y-127500000D03*
X166250000Y-99250000D03*
D21*
X145800000Y-52200000D03*
D20*
X129000000Y-57500000D03*
X163412036Y-140678157D03*
X146198475Y-119261890D03*
X174500000Y-71000000D03*
X163500000Y-57500000D03*
X118000000Y-127500000D03*
%LPD*%
M02*
