<?xml version="1.0" standalone="no"?>
 <!DOCTYPE svg PUBLIC "-//W3C//DTD SVG 1.1//EN" 
 "http://www.w3.org/Graphics/SVG/1.1/DTD/svg11.dtd"> 
<svg
  xmlns:svg="http://www.w3.org/2000/svg"
  xmlns="http://www.w3.org/2000/svg"
  xmlns:xlink="http://www.w3.org/1999/xlink"
  version="1.1"
  width="297.0022mm" height="210.0072mm" viewBox="0.0000 0.0000 297.0022 210.0072">
<title>SVG Image created as maglev26-F_Cu.svg date 2024/10/17 17:31:25 </title>
  <desc>Image generated by PCBNEW </desc>
<g style="fill:#000000; fill-opacity:1.0000;stroke:#000000; stroke-opacity:1.0000;
stroke-linecap:round; stroke-linejoin:round;"
 transform="translate(0 0) scale(1 1)">
</g>
<g style="fill:#000000; fill-opacity:0.0; 
stroke:#000000; stroke-width:0.0000; stroke-opacity:1; 
stroke-linecap:round; stroke-linejoin:round;">
<g >
</g>
<g style="fill:#000000; fill-opacity:0.0; 
stroke:#000000; stroke-width:0.0000; stroke-opacity:1; 
stroke-linecap:round; stroke-linejoin:round;">
</g>
<g style="fill:#000000; fill-opacity:1.0000; 
stroke:#000000; stroke-width:0.0000; stroke-opacity:1; 
stroke-linecap:round; stroke-linejoin:round;">
<path style="fill:#000000; fill-opacity:1.0000; 
stroke:#000000; stroke-width:0.0000; stroke-opacity:1; 
stroke-linecap:round; stroke-linejoin:round;fill-rule:evenodd;"
d="M 133.3620,123.6860
133.3620,122.1860
134.8620,122.1860
134.8620,123.6860
Z" /> 
</g>
<g >
</g>
<g style="fill:#000000; fill-opacity:1.0000; 
stroke:#000000; stroke-width:0.0000; stroke-opacity:1; 
stroke-linecap:round; stroke-linejoin:round;">
<path style="fill:#000000; fill-opacity:1.0000; 
stroke:#000000; stroke-width:0.0000; stroke-opacity:1; 
stroke-linecap:round; stroke-linejoin:round;fill-rule:evenodd;"
d="M 123.2500,88.1904
123.2500,86.6904
124.7500,86.6904
124.7500,88.1904
Z" /> 
</g>
<g >
</g>
<g style="fill:#000000; fill-opacity:1.0000; 
stroke:#000000; stroke-width:0.0000; stroke-opacity:1; 
stroke-linecap:round; stroke-linejoin:round;">
<path style="fill:#000000; fill-opacity:1.0000; 
stroke:#000000; stroke-width:0.0000; stroke-opacity:1; 
stroke-linecap:round; stroke-linejoin:round;fill-rule:evenodd;"
d="M 177.0500,97.7780
177.0500,96.2780
178.5500,96.2780
178.5500,97.7780
Z" /> 
</g>
<g >
</g>
<g style="fill:#000000; fill-opacity:1.0000; 
stroke:#000000; stroke-width:0.0000; stroke-opacity:1; 
stroke-linecap:round; stroke-linejoin:round;">
<path style="fill:#000000; fill-opacity:1.0000; 
stroke:#000000; stroke-width:0.0000; stroke-opacity:1; 
stroke-linecap:round; stroke-linejoin:round;fill-rule:evenodd;"
d="M 125.7080,116.7560
125.7194,116.6986
125.7519,116.6499
125.8006,116.6174
125.8580,116.6060
126.8830,116.6060
126.9404,116.6174
126.9891,116.6499
127.0216,116.6986
127.0330,116.7560
127.0330,117.0560
127.0216,117.1134
126.9891,117.1621
126.9404,117.1946
126.8830,117.2060
125.8580,117.2060
125.8006,117.1946
125.7519,117.1621
125.7194,117.1134
125.7080,117.0560
Z" /> 
<path style="fill:#000000; fill-opacity:1.0000; 
stroke:#000000; stroke-width:0.0000; stroke-opacity:1; 
stroke-linecap:round; stroke-linejoin:round;fill-rule:evenodd;"
d="M 125.7080,117.7060
125.7194,117.6486
125.7519,117.5999
125.8006,117.5674
125.8580,117.5560
126.8830,117.5560
126.9404,117.5674
126.9891,117.5999
127.0216,117.6486
127.0330,117.7060
127.0330,118.0060
127.0216,118.0634
126.9891,118.1121
126.9404,118.1446
126.8830,118.1560
125.8580,118.1560
125.8006,118.1446
125.7519,118.1121
125.7194,118.0634
125.7080,118.0060
Z" /> 
<path style="fill:#000000; fill-opacity:1.0000; 
stroke:#000000; stroke-width:0.0000; stroke-opacity:1; 
stroke-linecap:round; stroke-linejoin:round;fill-rule:evenodd;"
d="M 125.7080,118.6560
125.7194,118.5986
125.7519,118.5499
125.8006,118.5174
125.8580,118.5060
126.8830,118.5060
126.9404,118.5174
126.9891,118.5499
127.0216,118.5986
127.0330,118.6560
127.0330,118.9560
127.0216,119.0134
126.9891,119.0621
126.9404,119.0946
126.8830,119.1060
125.8580,119.1060
125.8006,119.0946
125.7519,119.0621
125.7194,119.0134
125.7080,118.9560
Z" /> 
<path style="fill:#000000; fill-opacity:1.0000; 
stroke:#000000; stroke-width:0.0000; stroke-opacity:1; 
stroke-linecap:round; stroke-linejoin:round;fill-rule:evenodd;"
d="M 127.9830,118.6560
127.9944,118.5986
128.0269,118.5499
128.0756,118.5174
128.1330,118.5060
129.1580,118.5060
129.2154,118.5174
129.2641,118.5499
129.2966,118.5986
129.3080,118.6560
129.3080,118.9560
129.2966,119.0134
129.2641,119.0621
129.2154,119.0946
129.1580,119.1060
128.1330,119.1060
128.0756,119.0946
128.0269,119.0621
127.9944,119.0134
127.9830,118.9560
Z" /> 
<path style="fill:#000000; fill-opacity:1.0000; 
stroke:#000000; stroke-width:0.0000; stroke-opacity:1; 
stroke-linecap:round; stroke-linejoin:round;fill-rule:evenodd;"
d="M 127.9830,117.7060
127.9944,117.6486
128.0269,117.5999
128.0756,117.5674
128.1330,117.5560
129.1580,117.5560
129.2154,117.5674
129.2641,117.5999
129.2966,117.6486
129.3080,117.7060
129.3080,118.0060
129.2966,118.0634
129.2641,118.1121
129.2154,118.1446
129.1580,118.1560
128.1330,118.1560
128.0756,118.1446
128.0269,118.1121
127.9944,118.0634
127.9830,118.0060
Z" /> 
<path style="fill:#000000; fill-opacity:1.0000; 
stroke:#000000; stroke-width:0.0000; stroke-opacity:1; 
stroke-linecap:round; stroke-linejoin:round;fill-rule:evenodd;"
d="M 127.9830,116.7560
127.9944,116.6986
128.0269,116.6499
128.0756,116.6174
128.1330,116.6060
129.1580,116.6060
129.2154,116.6174
129.2641,116.6499
129.2966,116.6986
129.3080,116.7560
129.3080,117.0560
129.2966,117.1134
129.2641,117.1621
129.2154,117.1946
129.1580,117.2060
128.1330,117.2060
128.0756,117.1946
128.0269,117.1621
127.9944,117.1134
127.9830,117.0560
Z" /> 
</g>
<g >
</g>
<g style="fill:#000000; fill-opacity:1.0000; 
stroke:#000000; stroke-width:0.0000; stroke-opacity:1; 
stroke-linecap:round; stroke-linejoin:round;">
<path style="fill:#000000; fill-opacity:1.0000; 
stroke:#000000; stroke-width:0.0000; stroke-opacity:1; 
stroke-linecap:round; stroke-linejoin:round;fill-rule:evenodd;"
d="M 162.9135,116.8220
162.9249,116.7646
162.9574,116.7159
163.0061,116.6834
163.0635,116.6720
164.0885,116.6720
164.1459,116.6834
164.1946,116.7159
164.2271,116.7646
164.2385,116.8220
164.2385,117.1220
164.2271,117.1794
164.1946,117.2281
164.1459,117.2606
164.0885,117.2720
163.0635,117.2720
163.0061,117.2606
162.9574,117.2281
162.9249,117.1794
162.9135,117.1220
Z" /> 
<path style="fill:#000000; fill-opacity:1.0000; 
stroke:#000000; stroke-width:0.0000; stroke-opacity:1; 
stroke-linecap:round; stroke-linejoin:round;fill-rule:evenodd;"
d="M 162.9135,117.7720
162.9249,117.7146
162.9574,117.6659
163.0061,117.6334
163.0635,117.6220
164.0885,117.6220
164.1459,117.6334
164.1946,117.6659
164.2271,117.7146
164.2385,117.7720
164.2385,118.0720
164.2271,118.1294
164.1946,118.1781
164.1459,118.2106
164.0885,118.2220
163.0635,118.2220
163.0061,118.2106
162.9574,118.1781
162.9249,118.1294
162.9135,118.0720
Z" /> 
<path style="fill:#000000; fill-opacity:1.0000; 
stroke:#000000; stroke-width:0.0000; stroke-opacity:1; 
stroke-linecap:round; stroke-linejoin:round;fill-rule:evenodd;"
d="M 162.9135,118.7220
162.9249,118.6646
162.9574,118.6159
163.0061,118.5834
163.0635,118.5720
164.0885,118.5720
164.1459,118.5834
164.1946,118.6159
164.2271,118.6646
164.2385,118.7220
164.2385,119.0220
164.2271,119.0794
164.1946,119.1281
164.1459,119.1606
164.0885,119.1720
163.0635,119.1720
163.0061,119.1606
162.9574,119.1281
162.9249,119.0794
162.9135,119.0220
Z" /> 
<path style="fill:#000000; fill-opacity:1.0000; 
stroke:#000000; stroke-width:0.0000; stroke-opacity:1; 
stroke-linecap:round; stroke-linejoin:round;fill-rule:evenodd;"
d="M 165.1885,118.7220
165.1999,118.6646
165.2324,118.6159
165.2811,118.5834
165.3385,118.5720
166.3635,118.5720
166.4209,118.5834
166.4696,118.6159
166.5021,118.6646
166.5135,118.7220
166.5135,119.0220
166.5021,119.0794
166.4696,119.1281
166.4209,119.1606
166.3635,119.1720
165.3385,119.1720
165.2811,119.1606
165.2324,119.1281
165.1999,119.0794
165.1885,119.0220
Z" /> 
<path style="fill:#000000; fill-opacity:1.0000; 
stroke:#000000; stroke-width:0.0000; stroke-opacity:1; 
stroke-linecap:round; stroke-linejoin:round;fill-rule:evenodd;"
d="M 165.1885,117.7720
165.1999,117.7146
165.2324,117.6659
165.2811,117.6334
165.3385,117.6220
166.3635,117.6220
166.4209,117.6334
166.4696,117.6659
166.5021,117.7146
166.5135,117.7720
166.5135,118.0720
166.5021,118.1294
166.4696,118.1781
166.4209,118.2106
166.3635,118.2220
165.3385,118.2220
165.2811,118.2106
165.2324,118.1781
165.1999,118.1294
165.1885,118.0720
Z" /> 
<path style="fill:#000000; fill-opacity:1.0000; 
stroke:#000000; stroke-width:0.0000; stroke-opacity:1; 
stroke-linecap:round; stroke-linejoin:round;fill-rule:evenodd;"
d="M 165.1885,116.8220
165.1999,116.7646
165.2324,116.7159
165.2811,116.6834
165.3385,116.6720
166.3635,116.6720
166.4209,116.6834
166.4696,116.7159
166.5021,116.7646
166.5135,116.8220
166.5135,117.1220
166.5021,117.1794
166.4696,117.2281
166.4209,117.2606
166.3635,117.2720
165.3385,117.2720
165.2811,117.2606
165.2324,117.2281
165.1999,117.1794
165.1885,117.1220
Z" /> 
</g>
<g >
</g>
<g style="fill:#000000; fill-opacity:1.0000; 
stroke:#000000; stroke-width:0.0000; stroke-opacity:1; 
stroke-linecap:round; stroke-linejoin:round;">
<path style="fill:#000000; fill-opacity:1.0000; 
stroke:#000000; stroke-width:0.0000; stroke-opacity:1; 
stroke-linecap:round; stroke-linejoin:round;fill-rule:evenodd;"
d="M 177.0500,102.3500
177.0500,100.8500
178.5500,100.8500
178.5500,102.3500
Z" /> 
</g>
<g >
</g>
<g style="fill:#000000; fill-opacity:1.0000; 
stroke:#000000; stroke-width:0.0000; stroke-opacity:1; 
stroke-linecap:round; stroke-linejoin:round;">
<path style="fill:#000000; fill-opacity:1.0000; 
stroke:#000000; stroke-width:0.0000; stroke-opacity:1; 
stroke-linecap:round; stroke-linejoin:round;fill-rule:evenodd;"
d="M 157.2500,77.0904
157.2500,75.5904
158.7500,75.5904
158.7500,77.0904
Z" /> 
</g>
<g >
</g>
<g style="fill:#000000; fill-opacity:1.0000; 
stroke:#000000; stroke-width:0.0000; stroke-opacity:1; 
stroke-linecap:round; stroke-linejoin:round;">
<path style="fill:#000000; fill-opacity:1.0000; 
stroke:#000000; stroke-width:0.0000; stroke-opacity:1; 
stroke-linecap:round; stroke-linejoin:round;fill-rule:evenodd;"
d="M 133.2500,118.6060
133.2500,117.1060
134.7500,117.1060
134.7500,118.6060
Z" /> 
</g>
<g >
</g>
<g style="fill:#000000; fill-opacity:1.0000; 
stroke:#000000; stroke-width:0.0000; stroke-opacity:1; 
stroke-linecap:round; stroke-linejoin:round;">
<path style="fill:#000000; fill-opacity:1.0000; 
stroke:#000000; stroke-width:0.0000; stroke-opacity:1; 
stroke-linecap:round; stroke-linejoin:round;fill-rule:evenodd;"
d="M 157.2500,81.6904
157.2500,80.1904
158.7500,80.1904
158.7500,81.6904
Z" /> 
</g>
<g >
</g>
<g style="fill:#000000; fill-opacity:1.0000; 
stroke:#000000; stroke-width:0.0000; stroke-opacity:1; 
stroke-linecap:round; stroke-linejoin:round;">
<path style="fill:#000000; fill-opacity:1.0000; 
stroke:#000000; stroke-width:0.0000; stroke-opacity:1; 
stroke-linecap:round; stroke-linejoin:round;fill-rule:evenodd;"
d="M 128.6500,88.1904
128.6500,86.6904
130.1500,86.6904
130.1500,88.1904
Z" /> 
</g>
<g >
</g>
<g style="fill:#000000; fill-opacity:1.0000; 
stroke:#000000; stroke-width:0.0000; stroke-opacity:1; 
stroke-linecap:round; stroke-linejoin:round;">
<path style="fill:#000000; fill-opacity:1.0000; 
stroke:#000000; stroke-width:0.0000; stroke-opacity:1; 
stroke-linecap:round; stroke-linejoin:round;fill-rule:evenodd;"
d="M 144.4011,98.1500
144.4126,98.0926
144.4451,98.0439
144.4937,98.0114
144.5511,98.0000
145.5761,98.0000
145.6335,98.0114
145.6822,98.0439
145.7147,98.0926
145.7261,98.1500
145.7261,98.4500
145.7147,98.5074
145.6822,98.5561
145.6335,98.5886
145.5761,98.6000
144.5511,98.6000
144.4937,98.5886
144.4451,98.5561
144.4126,98.5074
144.4011,98.4500
Z" /> 
<path style="fill:#000000; fill-opacity:1.0000; 
stroke:#000000; stroke-width:0.0000; stroke-opacity:1; 
stroke-linecap:round; stroke-linejoin:round;fill-rule:evenodd;"
d="M 144.4011,99.1000
144.4126,99.0426
144.4451,98.9939
144.4937,98.9614
144.5511,98.9500
145.5761,98.9500
145.6335,98.9614
145.6822,98.9939
145.7147,99.0426
145.7261,99.1000
145.7261,99.4000
145.7147,99.4574
145.6822,99.5061
145.6335,99.5386
145.5761,99.5500
144.5511,99.5500
144.4937,99.5386
144.4451,99.5061
144.4126,99.4574
144.4011,99.4000
Z" /> 
<path style="fill:#000000; fill-opacity:1.0000; 
stroke:#000000; stroke-width:0.0000; stroke-opacity:1; 
stroke-linecap:round; stroke-linejoin:round;fill-rule:evenodd;"
d="M 144.4011,100.0500
144.4126,99.9926
144.4451,99.9439
144.4937,99.9114
144.5511,99.9000
145.5761,99.9000
145.6335,99.9114
145.6822,99.9439
145.7147,99.9926
145.7261,100.0500
145.7261,100.3500
145.7147,100.4074
145.6822,100.4561
145.6335,100.4886
145.5761,100.5000
144.5511,100.5000
144.4937,100.4886
144.4451,100.4561
144.4126,100.4074
144.4011,100.3500
Z" /> 
<path style="fill:#000000; fill-opacity:1.0000; 
stroke:#000000; stroke-width:0.0000; stroke-opacity:1; 
stroke-linecap:round; stroke-linejoin:round;fill-rule:evenodd;"
d="M 146.6761,100.0500
146.6876,99.9926
146.7201,99.9439
146.7687,99.9114
146.8261,99.9000
147.8511,99.9000
147.9085,99.9114
147.9572,99.9439
147.9897,99.9926
148.0011,100.0500
148.0011,100.3500
147.9897,100.4074
147.9572,100.4561
147.9085,100.4886
147.8511,100.5000
146.8261,100.5000
146.7687,100.4886
146.7201,100.4561
146.6876,100.4074
146.6761,100.3500
Z" /> 
<path style="fill:#000000; fill-opacity:1.0000; 
stroke:#000000; stroke-width:0.0000; stroke-opacity:1; 
stroke-linecap:round; stroke-linejoin:round;fill-rule:evenodd;"
d="M 146.6761,99.1000
146.6876,99.0426
146.7201,98.9939
146.7687,98.9614
146.8261,98.9500
147.8511,98.9500
147.9085,98.9614
147.9572,98.9939
147.9897,99.0426
148.0011,99.1000
148.0011,99.4000
147.9897,99.4574
147.9572,99.5061
147.9085,99.5386
147.8511,99.5500
146.8261,99.5500
146.7687,99.5386
146.7201,99.5061
146.6876,99.4574
146.6761,99.4000
Z" /> 
<path style="fill:#000000; fill-opacity:1.0000; 
stroke:#000000; stroke-width:0.0000; stroke-opacity:1; 
stroke-linecap:round; stroke-linejoin:round;fill-rule:evenodd;"
d="M 146.6761,98.1500
146.6876,98.0926
146.7201,98.0439
146.7687,98.0114
146.8261,98.0000
147.8511,98.0000
147.9085,98.0114
147.9572,98.0439
147.9897,98.0926
148.0011,98.1500
148.0011,98.4500
147.9897,98.5074
147.9572,98.5561
147.9085,98.5886
147.8511,98.6000
146.8261,98.6000
146.7687,98.5886
146.7201,98.5561
146.6876,98.5074
146.6761,98.4500
Z" /> 
</g>
<g >
</g>
<g >
</g>
<g >
</g>
<g >
</g>
<g >
</g>
<g >
</g>
<g >
</g>
<g >
</g>
<g >
</g>
<g >
</g>
<g >
</g>
<g >
</g>
<g >
</g>
<g >
</g>
<g >
</g>
<g >
</g>
<g >
</g>
<g >
</g>
<g >
</g>
<g >
</g>
<g >
</g>
<g >
</g>
<g >
</g>
<g >
</g>
<g >
</g>
<g >
</g>
<g >
</g>
<g >
</g>
<g >
</g>
<g >
</g>
<g >
</g>
<g >
</g>
<g >
</g>
<g >
</g>
<g >
</g>
<g >
</g>
<g >
</g>
<g >
</g>
<g >
</g>
<g >
</g>
<g >
</g>
<g >
</g>
<g >
</g>
<g >
</g>
<g >
</g>
<g >
</g>
<g >
</g>
<g >
</g>
<g >
</g>
<g >
</g>
<g style="fill:#000000; fill-opacity:1.0000; 
stroke:#000000; stroke-width:0.0000; stroke-opacity:1; 
stroke-linecap:round; stroke-linejoin:round;">
<circle cx="186.9000" cy="113.7404" r="0.4000" /> 
</g>
<g style="fill:#000000; fill-opacity:1.0000; 
stroke:#000000; stroke-width:0.0212; stroke-opacity:1; 
stroke-linecap:round; stroke-linejoin:round;">
</g>
<g style="fill:#000000; fill-opacity:1.0000; 
stroke:#000000; stroke-width:0.0000; stroke-opacity:1; 
stroke-linecap:round; stroke-linejoin:round;">
<circle cx="179.4510" cy="115.4414" r="0.4000" /> 
</g>
<g style="fill:#000000; fill-opacity:1.0000; 
stroke:#000000; stroke-width:0.0212; stroke-opacity:1; 
stroke-linecap:round; stroke-linejoin:round;">
</g>
<g style="fill:#000000; fill-opacity:1.0000; 
stroke:#000000; stroke-width:0.0000; stroke-opacity:1; 
stroke-linecap:round; stroke-linejoin:round;">
<circle cx="170.4000" cy="88.7404" r="0.4000" /> 
</g>
<g style="fill:#000000; fill-opacity:1.0000; 
stroke:#000000; stroke-width:0.0212; stroke-opacity:1; 
stroke-linecap:round; stroke-linejoin:round;">
</g>
<g style="fill:#000000; fill-opacity:1.0000; 
stroke:#000000; stroke-width:0.0000; stroke-opacity:1; 
stroke-linecap:round; stroke-linejoin:round;">
<circle cx="139.4000" cy="60.9404" r="0.4000" /> 
</g>
<g style="fill:#000000; fill-opacity:1.0000; 
stroke:#000000; stroke-width:0.0212; stroke-opacity:1; 
stroke-linecap:round; stroke-linejoin:round;">
</g>
<g style="fill:#000000; fill-opacity:1.0000; 
stroke:#000000; stroke-width:0.0000; stroke-opacity:1; 
stroke-linecap:round; stroke-linejoin:round;">
<circle cx="124.5740" cy="131.3310" r="0.4000" /> 
</g>
<g style="fill:#000000; fill-opacity:1.0000; 
stroke:#000000; stroke-width:0.0212; stroke-opacity:1; 
stroke-linecap:round; stroke-linejoin:round;">
</g>
<g style="fill:#000000; fill-opacity:1.0000; 
stroke:#000000; stroke-width:0.0000; stroke-opacity:1; 
stroke-linecap:round; stroke-linejoin:round;">
<circle cx="133.6040" cy="68.8340" r="0.4000" /> 
</g>
<g style="fill:#000000; fill-opacity:1.0000; 
stroke:#000000; stroke-width:0.0212; stroke-opacity:1; 
stroke-linecap:round; stroke-linejoin:round;">
</g>
<g style="fill:#000000; fill-opacity:1.0000; 
stroke:#000000; stroke-width:0.0000; stroke-opacity:1; 
stroke-linecap:round; stroke-linejoin:round;">
<circle cx="174.9000" cy="88.7404" r="0.4000" /> 
</g>
<g style="fill:#000000; fill-opacity:1.0000; 
stroke:#000000; stroke-width:0.0212; stroke-opacity:1; 
stroke-linecap:round; stroke-linejoin:round;">
</g>
<g style="fill:#000000; fill-opacity:1.0000; 
stroke:#000000; stroke-width:0.0000; stroke-opacity:1; 
stroke-linecap:round; stroke-linejoin:round;">
<circle cx="182.5000" cy="113.7404" r="0.4000" /> 
</g>
<g style="fill:#000000; fill-opacity:1.0000; 
stroke:#000000; stroke-width:0.0212; stroke-opacity:1; 
stroke-linecap:round; stroke-linejoin:round;">
</g>
<g style="fill:#000000; fill-opacity:1.0000; 
stroke:#000000; stroke-width:0.0000; stroke-opacity:1; 
stroke-linecap:round; stroke-linejoin:round;">
<circle cx="161.5440" cy="72.2630" r="0.4000" /> 
</g>
<g style="fill:#000000; fill-opacity:1.0000; 
stroke:#000000; stroke-width:0.0212; stroke-opacity:1; 
stroke-linecap:round; stroke-linejoin:round;">
</g>
<g style="fill:#000000; fill-opacity:1.0000; 
stroke:#000000; stroke-width:0.0000; stroke-opacity:1; 
stroke-linecap:round; stroke-linejoin:round;">
<circle cx="130.0480" cy="121.4120" r="0.4000" /> 
</g>
<g style="fill:#000000; fill-opacity:1.0000; 
stroke:#000000; stroke-width:0.0212; stroke-opacity:1; 
stroke-linecap:round; stroke-linejoin:round;">
</g>
<g style="fill:#000000; fill-opacity:1.0000; 
stroke:#000000; stroke-width:0.0000; stroke-opacity:1; 
stroke-linecap:round; stroke-linejoin:round;">
<circle cx="136.5000" cy="56.4404" r="0.4000" /> 
</g>
<g style="fill:#000000; fill-opacity:1.0000; 
stroke:#000000; stroke-width:0.0212; stroke-opacity:1; 
stroke-linecap:round; stroke-linejoin:round;">
</g>
<g style="fill:#000000; fill-opacity:1.0000; 
stroke:#000000; stroke-width:0.0000; stroke-opacity:1; 
stroke-linecap:round; stroke-linejoin:round;">
<circle cx="117.0000" cy="89.0404" r="0.4000" /> 
</g>
<g style="fill:#000000; fill-opacity:1.0000; 
stroke:#000000; stroke-width:0.0212; stroke-opacity:1; 
stroke-linecap:round; stroke-linejoin:round;">
</g>
<g style="fill:#000000; fill-opacity:1.0000; 
stroke:#000000; stroke-width:0.0000; stroke-opacity:1; 
stroke-linecap:round; stroke-linejoin:round;">
<circle cx="152.5000" cy="51.9404" r="0.4000" /> 
</g>
<g style="fill:#000000; fill-opacity:1.0000; 
stroke:#000000; stroke-width:0.0212; stroke-opacity:1; 
stroke-linecap:round; stroke-linejoin:round;">
</g>
<g style="fill:#000000; fill-opacity:1.0000; 
stroke:#000000; stroke-width:0.0000; stroke-opacity:1; 
stroke-linecap:round; stroke-linejoin:round;">
<circle cx="149.2250" cy="107.3150" r="0.4000" /> 
</g>
<g style="fill:#000000; fill-opacity:1.0000; 
stroke:#000000; stroke-width:0.0212; stroke-opacity:1; 
stroke-linecap:round; stroke-linejoin:round;">
</g>
<g style="fill:#000000; fill-opacity:1.0000; 
stroke:#000000; stroke-width:0.0000; stroke-opacity:1; 
stroke-linecap:round; stroke-linejoin:round;">
<circle cx="153.2100" cy="68.8904" r="0.4000" /> 
</g>
<g style="fill:#000000; fill-opacity:1.0000; 
stroke:#000000; stroke-width:0.0212; stroke-opacity:1; 
stroke-linecap:round; stroke-linejoin:round;">
</g>
<g style="fill:#000000; fill-opacity:1.0000; 
stroke:#000000; stroke-width:0.0000; stroke-opacity:1; 
stroke-linecap:round; stroke-linejoin:round;">
<circle cx="152.5000" cy="60.9404" r="0.4000" /> 
</g>
<g style="fill:#000000; fill-opacity:1.0000; 
stroke:#000000; stroke-width:0.0212; stroke-opacity:1; 
stroke-linecap:round; stroke-linejoin:round;">
</g>
<g style="fill:#000000; fill-opacity:1.0000; 
stroke:#000000; stroke-width:0.0000; stroke-opacity:1; 
stroke-linecap:round; stroke-linejoin:round;">
<circle cx="126.2000" cy="123.7404" r="0.4000" /> 
</g>
<g style="fill:#000000; fill-opacity:1.0000; 
stroke:#000000; stroke-width:0.0212; stroke-opacity:1; 
stroke-linecap:round; stroke-linejoin:round;">
</g>
<g style="fill:#000000; fill-opacity:1.0000; 
stroke:#000000; stroke-width:0.0000; stroke-opacity:1; 
stroke-linecap:round; stroke-linejoin:round;">
<circle cx="144.2720" cy="104.6480" r="0.4000" /> 
</g>
<g style="fill:#000000; fill-opacity:1.0000; 
stroke:#000000; stroke-width:0.0212; stroke-opacity:1; 
stroke-linecap:round; stroke-linejoin:round;">
</g>
<g style="fill:#000000; fill-opacity:1.0000; 
stroke:#000000; stroke-width:0.0000; stroke-opacity:1; 
stroke-linecap:round; stroke-linejoin:round;">
<circle cx="139.4000" cy="51.9404" r="0.4000" /> 
</g>
<g style="fill:#000000; fill-opacity:1.0000; 
stroke:#000000; stroke-width:0.0212; stroke-opacity:1; 
stroke-linecap:round; stroke-linejoin:round;">
</g>
<g style="fill:#000000; fill-opacity:1.0000; 
stroke:#000000; stroke-width:0.0000; stroke-opacity:1; 
stroke-linecap:round; stroke-linejoin:round;">
<circle cx="142.5000" cy="56.4404" r="0.4000" /> 
</g>
<g style="fill:#000000; fill-opacity:1.0000; 
stroke:#000000; stroke-width:0.0212; stroke-opacity:1; 
stroke-linecap:round; stroke-linejoin:round;">
</g>
<g style="fill:#000000; fill-opacity:1.0000; 
stroke:#000000; stroke-width:0.0000; stroke-opacity:1; 
stroke-linecap:round; stroke-linejoin:round;">
<circle cx="132.0800" cy="115.5700" r="0.4000" /> 
</g>
<g style="fill:#000000; fill-opacity:1.0000; 
stroke:#000000; stroke-width:0.0212; stroke-opacity:1; 
stroke-linecap:round; stroke-linejoin:round;">
</g>
<g style="fill:#000000; fill-opacity:1.0000; 
stroke:#000000; stroke-width:0.0000; stroke-opacity:1; 
stroke-linecap:round; stroke-linejoin:round;">
<circle cx="134.6200" cy="146.0500" r="0.4000" /> 
</g>
<g style="fill:#000000; fill-opacity:1.0000; 
stroke:#000000; stroke-width:0.0212; stroke-opacity:1; 
stroke-linecap:round; stroke-linejoin:round;">
</g>
<g style="fill:#000000; fill-opacity:1.0000; 
stroke:#000000; stroke-width:0.0000; stroke-opacity:1; 
stroke-linecap:round; stroke-linejoin:round;">
<circle cx="163.7792" cy="120.1420" r="0.4000" /> 
</g>
<g style="fill:#000000; fill-opacity:1.0000; 
stroke:#000000; stroke-width:0.0212; stroke-opacity:1; 
stroke-linecap:round; stroke-linejoin:round;">
</g>
<g style="fill:#000000; fill-opacity:1.0000; 
stroke:#000000; stroke-width:0.0000; stroke-opacity:1; 
stroke-linecap:round; stroke-linejoin:round;">
<circle cx="149.8600" cy="141.9771" r="0.4000" /> 
</g>
<g style="fill:#000000; fill-opacity:1.0000; 
stroke:#000000; stroke-width:0.0212; stroke-opacity:1; 
stroke-linecap:round; stroke-linejoin:round;">
</g>
<g style="fill:#000000; fill-opacity:1.0000; 
stroke:#000000; stroke-width:0.0000; stroke-opacity:1; 
stroke-linecap:round; stroke-linejoin:round;">
<circle cx="149.5000" cy="56.4404" r="0.4000" /> 
</g>
<g style="fill:#000000; fill-opacity:1.0000; 
stroke:#000000; stroke-width:0.0212; stroke-opacity:1; 
stroke-linecap:round; stroke-linejoin:round;">
</g>
<g style="fill:#000000; fill-opacity:1.0000; 
stroke:#000000; stroke-width:0.0000; stroke-opacity:1; 
stroke-linecap:round; stroke-linejoin:round;">
<circle cx="141.7320" cy="68.9610" r="0.4000" /> 
</g>
<g style="fill:#000000; fill-opacity:1.0000; 
stroke:#000000; stroke-width:0.0212; stroke-opacity:1; 
stroke-linecap:round; stroke-linejoin:round;">
</g>
<g style="fill:#000000; fill-opacity:1.0000; 
stroke:#000000; stroke-width:0.0000; stroke-opacity:1; 
stroke-linecap:round; stroke-linejoin:round;">
<circle cx="120.5000" cy="89.0404" r="0.4000" /> 
</g>
<g style="fill:#000000; fill-opacity:1.0000; 
stroke:#000000; stroke-width:0.0212; stroke-opacity:1; 
stroke-linecap:round; stroke-linejoin:round;">
</g>
<g style="fill:#000000; fill-opacity:1.0000; 
stroke:#000000; stroke-width:0.0000; stroke-opacity:1; 
stroke-linecap:round; stroke-linejoin:round;">
<circle cx="130.5000" cy="119.8880" r="0.4000" /> 
</g>
<g style="fill:#000000; fill-opacity:1.0000; 
stroke:#000000; stroke-width:0.0212; stroke-opacity:1; 
stroke-linecap:round; stroke-linejoin:round;">
</g>
<g style="fill:#000000; fill-opacity:1.0000; 
stroke:#000000; stroke-width:0.0000; stroke-opacity:1; 
stroke-linecap:round; stroke-linejoin:round;">
<circle cx="130.5000" cy="112.0000" r="0.4000" /> 
</g>
<g style="fill:#000000; fill-opacity:1.0000; 
stroke:#000000; stroke-width:0.0212; stroke-opacity:1; 
stroke-linecap:round; stroke-linejoin:round;">
</g>
<g style="fill:#000000; fill-opacity:1.0000; 
stroke:#000000; stroke-width:0.0000; stroke-opacity:1; 
stroke-linecap:round; stroke-linejoin:round;">
<circle cx="134.0000" cy="109.7280" r="0.4000" /> 
</g>
<g style="fill:#000000; fill-opacity:1.0000; 
stroke:#000000; stroke-width:0.0212; stroke-opacity:1; 
stroke-linecap:round; stroke-linejoin:round;">
</g>
<g style="fill:#000000; fill-opacity:1.0000; 
stroke:#000000; stroke-width:0.0000; stroke-opacity:1; 
stroke-linecap:round; stroke-linejoin:round;">
<circle cx="161.0000" cy="129.9404" r="0.4000" /> 
</g>
<g style="fill:#000000; fill-opacity:1.0000; 
stroke:#000000; stroke-width:0.0212; stroke-opacity:1; 
stroke-linecap:round; stroke-linejoin:round;">
</g>
<g style="fill:#000000; fill-opacity:1.0000; 
stroke:#000000; stroke-width:0.0000; stroke-opacity:1; 
stroke-linecap:round; stroke-linejoin:round;">
<circle cx="161.0000" cy="135.4404" r="0.4000" /> 
</g>
<g style="fill:#000000; fill-opacity:1.0000; 
stroke:#000000; stroke-width:0.0212; stroke-opacity:1; 
stroke-linecap:round; stroke-linejoin:round;">
</g>
<g style="fill:#000000; fill-opacity:1.0000; 
stroke:#000000; stroke-width:0.0000; stroke-opacity:1; 
stroke-linecap:round; stroke-linejoin:round;">
<circle cx="165.3162" cy="120.1798" r="0.4000" /> 
</g>
<g style="fill:#000000; fill-opacity:1.0000; 
stroke:#000000; stroke-width:0.0212; stroke-opacity:1; 
stroke-linecap:round; stroke-linejoin:round;">
</g>
<g style="fill:#000000; fill-opacity:1.0000; 
stroke:#000000; stroke-width:0.0000; stroke-opacity:1; 
stroke-linecap:round; stroke-linejoin:round;">
<circle cx="147.5740" cy="104.1400" r="0.4000" /> 
</g>
<g style="fill:#000000; fill-opacity:1.0000; 
stroke:#000000; stroke-width:0.0212; stroke-opacity:1; 
stroke-linecap:round; stroke-linejoin:round;">
</g>
<g style="fill:#000000; fill-opacity:1.0000; 
stroke:#000000; stroke-width:0.0000; stroke-opacity:1; 
stroke-linecap:round; stroke-linejoin:round;">
<circle cx="155.5000" cy="62.0000" r="0.4000" /> 
</g>
<g style="fill:#000000; fill-opacity:1.0000; 
stroke:#000000; stroke-width:0.0212; stroke-opacity:1; 
stroke-linecap:round; stroke-linejoin:round;">
</g>
<g style="fill:#000000; fill-opacity:1.0000; 
stroke:#000000; stroke-width:0.0000; stroke-opacity:1; 
stroke-linecap:round; stroke-linejoin:round;">
<circle cx="149.0000" cy="68.5000" r="0.4000" /> 
</g>
<g style="fill:#000000; fill-opacity:1.0000; 
stroke:#000000; stroke-width:0.0212; stroke-opacity:1; 
stroke-linecap:round; stroke-linejoin:round;">
</g>
<g style="fill:#000000; fill-opacity:1.0000; 
stroke:#000000; stroke-width:0.0000; stroke-opacity:1; 
stroke-linecap:round; stroke-linejoin:round;">
<circle cx="130.4290" cy="127.7874" r="0.4000" /> 
</g>
<g style="fill:#000000; fill-opacity:1.0000; 
stroke:#000000; stroke-width:0.0212; stroke-opacity:1; 
stroke-linecap:round; stroke-linejoin:round;">
</g>
<g style="fill:#000000; fill-opacity:1.0000; 
stroke:#000000; stroke-width:0.0000; stroke-opacity:1; 
stroke-linecap:round; stroke-linejoin:round;">
<circle cx="132.9690" cy="127.7366" r="0.4000" /> 
</g>
<g style="fill:#000000; fill-opacity:1.0000; 
stroke:#000000; stroke-width:0.0212; stroke-opacity:1; 
stroke-linecap:round; stroke-linejoin:round;">
</g>
<g style="fill:#000000; fill-opacity:1.0000; 
stroke:#000000; stroke-width:0.0000; stroke-opacity:1; 
stroke-linecap:round; stroke-linejoin:round;">
<circle cx="126.7460" cy="81.9404" r="0.4000" /> 
</g>
<g style="fill:#000000; fill-opacity:1.0000; 
stroke:#000000; stroke-width:0.0212; stroke-opacity:1; 
stroke-linecap:round; stroke-linejoin:round;">
</g>
<g style="fill:#000000; fill-opacity:1.0000; 
stroke:#000000; stroke-width:0.0000; stroke-opacity:1; 
stroke-linecap:round; stroke-linejoin:round;">
<circle cx="130.0000" cy="81.0000" r="0.4000" /> 
</g>
<g style="fill:#000000; fill-opacity:1.0000; 
stroke:#000000; stroke-width:0.0212; stroke-opacity:1; 
stroke-linecap:round; stroke-linejoin:round;">
</g>
<g style="fill:#000000; fill-opacity:1.0000; 
stroke:#000000; stroke-width:0.0000; stroke-opacity:1; 
stroke-linecap:round; stroke-linejoin:round;">
<circle cx="174.8028" cy="107.4404" r="0.4000" /> 
</g>
<g style="fill:#000000; fill-opacity:1.0000; 
stroke:#000000; stroke-width:0.0212; stroke-opacity:1; 
stroke-linecap:round; stroke-linejoin:round;">
</g>
<g style="fill:#000000; fill-opacity:1.0000; 
stroke:#000000; stroke-width:0.0000; stroke-opacity:1; 
stroke-linecap:round; stroke-linejoin:round;">
<circle cx="177.3936" cy="107.4404" r="0.4000" /> 
</g>
<g style="fill:#000000; fill-opacity:1.0000; 
stroke:#000000; stroke-width:0.0212; stroke-opacity:1; 
stroke-linecap:round; stroke-linejoin:round;">
</g>
<g style="fill:#000000; fill-opacity:1.0000; 
stroke:#000000; stroke-width:0.0000; stroke-opacity:1; 
stroke-linecap:round; stroke-linejoin:round;">
<circle cx="160.7500" cy="80.0000" r="0.4000" /> 
</g>
<g style="fill:#000000; fill-opacity:1.0000; 
stroke:#000000; stroke-width:0.0212; stroke-opacity:1; 
stroke-linecap:round; stroke-linejoin:round;">
</g>
<g style="fill:#000000; fill-opacity:1.0000; 
stroke:#000000; stroke-width:0.0000; stroke-opacity:1; 
stroke-linecap:round; stroke-linejoin:round;">
<circle cx="163.0000" cy="80.5000" r="0.4000" /> 
</g>
<g style="fill:#000000; fill-opacity:1.0000; 
stroke:#000000; stroke-width:0.0212; stroke-opacity:1; 
stroke-linecap:round; stroke-linejoin:round;">
</g>
<g style="fill:#000000; fill-opacity:1.0000; 
stroke:#000000; stroke-width:0.0000; stroke-opacity:1; 
stroke-linecap:round; stroke-linejoin:round;">
<circle cx="144.0000" cy="133.0000" r="0.4000" /> 
</g>
<g style="fill:#000000; fill-opacity:1.0000; 
stroke:#000000; stroke-width:0.0212; stroke-opacity:1; 
stroke-linecap:round; stroke-linejoin:round;">
</g>
<g style="fill:#000000; fill-opacity:1.0000; 
stroke:#000000; stroke-width:0.0000; stroke-opacity:1; 
stroke-linecap:round; stroke-linejoin:round;">
<circle cx="162.7500" cy="110.7500" r="0.4000" /> 
</g>
<g style="fill:#000000; fill-opacity:1.0000; 
stroke:#000000; stroke-width:0.0212; stroke-opacity:1; 
stroke-linecap:round; stroke-linejoin:round;">
</g>
<g style="fill:#000000; fill-opacity:1.0000; 
stroke:#000000; stroke-width:0.0000; stroke-opacity:1; 
stroke-linecap:round; stroke-linejoin:round;">
<circle cx="147.0000" cy="133.0000" r="0.4000" /> 
</g>
<g style="fill:#000000; fill-opacity:1.0000; 
stroke:#000000; stroke-width:0.0212; stroke-opacity:1; 
stroke-linecap:round; stroke-linejoin:round;">
</g>
<g style="fill:#000000; fill-opacity:1.0000; 
stroke:#000000; stroke-width:0.0000; stroke-opacity:1; 
stroke-linecap:round; stroke-linejoin:round;">
<circle cx="162.0000" cy="113.9404" r="0.4000" /> 
</g>
<g style="fill:#000000; fill-opacity:1.0000; 
stroke:#000000; stroke-width:0.0212; stroke-opacity:1; 
stroke-linecap:round; stroke-linejoin:round;">
</g>
<g style="fill:#000000; fill-opacity:1.0000; 
stroke:#000000; stroke-width:0.0000; stroke-opacity:1; 
stroke-linecap:round; stroke-linejoin:round;">
<circle cx="160.6800" cy="110.7604" r="0.4000" /> 
</g>
<g style="fill:#000000; fill-opacity:1.0000; 
stroke:#000000; stroke-width:0.0212; stroke-opacity:1; 
stroke-linecap:round; stroke-linejoin:round;">
</g>
<g style="fill:#000000; fill-opacity:1.0000; 
stroke:#000000; stroke-width:0.0000; stroke-opacity:1; 
stroke-linecap:round; stroke-linejoin:round;">
<circle cx="159.0000" cy="122.0000" r="0.4000" /> 
</g>
<g style="fill:#000000; fill-opacity:1.0000; 
stroke:#000000; stroke-width:0.0212; stroke-opacity:1; 
stroke-linecap:round; stroke-linejoin:round;">
</g>
<g style="fill:#000000; fill-opacity:1.0000; 
stroke:#000000; stroke-width:0.0000; stroke-opacity:1; 
stroke-linecap:round; stroke-linejoin:round;">
<circle cx="160.0000" cy="114.0000" r="0.4000" /> 
</g>
<g style="fill:#000000; fill-opacity:1.0000; 
stroke:#000000; stroke-width:0.0212; stroke-opacity:1; 
stroke-linecap:round; stroke-linejoin:round;">
</g>
<g style="fill:#000000; fill-opacity:1.0000; 
stroke:#000000; stroke-width:0.0000; stroke-opacity:1; 
stroke-linecap:round; stroke-linejoin:round;">
<circle cx="161.0000" cy="125.0000" r="0.4000" /> 
</g>
<g style="fill:#000000; fill-opacity:1.0000; 
stroke:#000000; stroke-width:0.0212; stroke-opacity:1; 
stroke-linecap:round; stroke-linejoin:round;">
</g>
<g style="fill:#000000; fill-opacity:1.0000; 
stroke:#000000; stroke-width:0.0000; stroke-opacity:1; 
stroke-linecap:round; stroke-linejoin:round;">
<circle cx="144.0000" cy="131.5000" r="0.4000" /> 
</g>
<g style="fill:#000000; fill-opacity:1.0000; 
stroke:#000000; stroke-width:0.0212; stroke-opacity:1; 
stroke-linecap:round; stroke-linejoin:round;">
</g>
<g style="fill:#000000; fill-opacity:1.0000; 
stroke:#000000; stroke-width:0.0000; stroke-opacity:1; 
stroke-linecap:round; stroke-linejoin:round;">
<circle cx="147.0000" cy="131.5000" r="0.4000" /> 
</g>
<g style="fill:#000000; fill-opacity:1.0000; 
stroke:#000000; stroke-width:0.0212; stroke-opacity:1; 
stroke-linecap:round; stroke-linejoin:round;">
</g>
<g style="fill:#000000; fill-opacity:1.0000; 
stroke:#000000; stroke-width:0.0000; stroke-opacity:1; 
stroke-linecap:round; stroke-linejoin:round;">
<circle cx="134.0000" cy="111.5060" r="0.4000" /> 
</g>
<g style="fill:#000000; fill-opacity:1.0000; 
stroke:#000000; stroke-width:0.0212; stroke-opacity:1; 
stroke-linecap:round; stroke-linejoin:round;">
</g>
<g style="fill:#000000; fill-opacity:1.0000; 
stroke:#000000; stroke-width:0.0000; stroke-opacity:1; 
stroke-linecap:round; stroke-linejoin:round;">
<circle cx="158.8770" cy="115.9510" r="0.4000" /> 
</g>
<g style="fill:#000000; fill-opacity:1.0000; 
stroke:#000000; stroke-width:0.0212; stroke-opacity:1; 
stroke-linecap:round; stroke-linejoin:round;">
</g>
<g style="fill:#000000; fill-opacity:1.0000; 
stroke:#000000; stroke-width:0.0000; stroke-opacity:1; 
stroke-linecap:round; stroke-linejoin:round;">
<circle cx="149.3360" cy="101.6000" r="0.4000" /> 
</g>
<g style="fill:#000000; fill-opacity:1.0000; 
stroke:#000000; stroke-width:0.0212; stroke-opacity:1; 
stroke-linecap:round; stroke-linejoin:round;">
</g>
<g style="fill:#000000; fill-opacity:1.0000; 
stroke:#000000; stroke-width:0.0000; stroke-opacity:1; 
stroke-linecap:round; stroke-linejoin:round;">
<circle cx="143.1544" cy="99.8456" r="0.4000" /> 
</g>
<g style="fill:#000000; fill-opacity:1.0000; 
stroke:#000000; stroke-width:0.0212; stroke-opacity:1; 
stroke-linecap:round; stroke-linejoin:round;">
</g>
<g style="fill:#000000; fill-opacity:1.0000; 
stroke:#000000; stroke-width:0.0000; stroke-opacity:1; 
stroke-linecap:round; stroke-linejoin:round;">
<circle cx="160.6550" cy="118.1100" r="0.4000" /> 
</g>
<g style="fill:#000000; fill-opacity:1.0000; 
stroke:#000000; stroke-width:0.0212; stroke-opacity:1; 
stroke-linecap:round; stroke-linejoin:round;">
</g>
<g style="fill:#000000; fill-opacity:1.0000; 
stroke:#000000; stroke-width:0.0000; stroke-opacity:1; 
stroke-linecap:round; stroke-linejoin:round;">
<circle cx="135.0000" cy="113.0000" r="0.4000" /> 
</g>
<g style="fill:#000000; fill-opacity:1.0000; 
stroke:#000000; stroke-width:0.0212; stroke-opacity:1; 
stroke-linecap:round; stroke-linejoin:round;">
</g>
<g style="fill:#000000; fill-opacity:1.0000; 
stroke:#000000; stroke-width:0.0000; stroke-opacity:1; 
stroke-linecap:round; stroke-linejoin:round;">
<circle cx="134.5000" cy="108.2040" r="0.4000" /> 
</g>
<g style="fill:#000000; fill-opacity:1.0000; 
stroke:#000000; stroke-width:0.0212; stroke-opacity:1; 
stroke-linecap:round; stroke-linejoin:round;">
</g>
<g >
</g>
<g style="fill:#000000; fill-opacity:1.0000; 
stroke:#000000; stroke-width:0.0212; stroke-opacity:1; 
stroke-linecap:round; stroke-linejoin:round;">
</g>
<g style="fill:#000000; fill-opacity:1.0000; 
stroke:#000000; stroke-width:0.4000; stroke-opacity:1; 
stroke-linecap:round; stroke-linejoin:round;">
</g>
<g style="fill:#000000; fill-opacity:0.0; 
stroke:#000000; stroke-width:0.4000; stroke-opacity:1; 
stroke-linecap:round; stroke-linejoin:round;">
<path d="M163.7792 120.1420
L163.7792 119.0752
" />
</g>
<g style="fill:#000000; fill-opacity:0.0; 
stroke:#000000; stroke-width:0.3000; stroke-opacity:1; 
stroke-linecap:round; stroke-linejoin:round;">
<path d="M145.0636 103.8564
L144.2720 104.6480
" />
<path d="M145.0636 100.2000
L145.0636 103.8564
" />
<path d="M145.0636 99.2500
L147.3386 99.2500
" />
</g>
<g style="fill:#000000; fill-opacity:0.0; 
stroke:#000000; stroke-width:0.4000; stroke-opacity:1; 
stroke-linecap:round; stroke-linejoin:round;">
<path d="M163.5760 118.8720
L163.5760 117.9220
" />
</g>
<g style="fill:#000000; fill-opacity:0.0; 
stroke:#000000; stroke-width:0.3000; stroke-opacity:1; 
stroke-linecap:round; stroke-linejoin:round;">
<path d="M145.0636 100.2000
L145.0636 99.2500
" />
</g>
<g style="fill:#000000; fill-opacity:0.0; 
stroke:#000000; stroke-width:0.4000; stroke-opacity:1; 
stroke-linecap:round; stroke-linejoin:round;">
<path d="M163.7792 119.0752
L163.5760 118.8720
" />
<path d="M163.5760 117.9220
L165.8510 117.9220
" />
</g>
<g style="fill:#000000; fill-opacity:0.0; 
stroke:#000000; stroke-width:0.3000; stroke-opacity:1; 
stroke-linecap:round; stroke-linejoin:round;">
<path d="M131.7280 112.0000
L134.0000 109.7280
" />
<path d="M129.0320 119.8880
L130.5000 119.8880
" />
<path d="M130.5000 112.0000
L131.7280 112.0000
" />
</g>
<g style="fill:#000000; fill-opacity:0.0; 
stroke:#000000; stroke-width:0.4000; stroke-opacity:1; 
stroke-linecap:round; stroke-linejoin:round;">
<path d="M161.0000 135.4404
L161.0000 129.9404
" />
</g>
<g style="fill:#000000; fill-opacity:0.0; 
stroke:#000000; stroke-width:0.3000; stroke-opacity:1; 
stroke-linecap:round; stroke-linejoin:round;">
<path d="M128.6455 118.8060
L128.6455 119.5015
" />
<path d="M128.6455 119.5015
L129.0320 119.8880
" />
<path d="M147.5740 100.4354
L147.3386 100.2000
" />
</g>
<g style="fill:#000000; fill-opacity:0.0; 
stroke:#000000; stroke-width:0.4000; stroke-opacity:1; 
stroke-linecap:round; stroke-linejoin:round;">
<path d="M147.5740 104.1400
L147.5740 100.4354
" />
<path d="M165.3162 120.1798
L165.8510 119.6450
" />
<path d="M165.8510 119.6450
L165.8510 118.8720
" />
<path d="M128.6455 118.8060
L128.6515 118.8000
" />
<path d="M149.0000 68.5000
L155.5000 62.0000
" />
</g>
<g style="fill:#000000; fill-opacity:0.0; 
stroke:#000000; stroke-width:0.7000; stroke-opacity:1; 
stroke-linecap:round; stroke-linejoin:round;">
<path d="M130.4290 127.7874
L130.4290 123.0630
" />
<path d="M134.0000 119.4920
L134.0000 117.8560
" />
<path d="M130.4290 123.0630
L134.0000 119.4920
" />
<path d="M132.9690 124.0790
L134.1120 122.9360
" />
<path d="M132.9690 127.7366
L132.9690 124.0790
" />
<path d="M126.7460 84.6944
L124.0000 87.4404
" />
<path d="M126.7460 81.9404
L126.7460 84.6944
" />
</g>
<g style="fill:#000000; fill-opacity:0.0; 
stroke:#000000; stroke-width:1.0000; stroke-opacity:1; 
stroke-linecap:round; stroke-linejoin:round;">
<path d="M129.2860 87.3264
L129.4000 87.4404
" />
</g>
<g style="fill:#000000; fill-opacity:0.0; 
stroke:#000000; stroke-width:0.7000; stroke-opacity:1; 
stroke-linecap:round; stroke-linejoin:round;">
<path d="M130.0000 81.0000
L129.2860 81.7140
" />
<path d="M129.2860 81.7140
L129.2860 87.3264
" />
<path d="M174.8028 107.4404
L177.8000 104.4432
" />
<path d="M177.8000 104.4432
L177.8000 101.6000
" />
<path d="M177.3936 107.4404
L181.3560 103.4780
" />
<path d="M179.3240 97.0280
L177.8000 97.0280
" />
<path d="M181.3560 99.0600
L179.3240 97.0280
" />
<path d="M181.3560 103.4780
L181.3560 99.0600
" />
<path d="M160.7500 80.0000
L159.9028 80.8472
" />
<path d="M159.9028 80.8472
L158.1068 80.8472
" />
</g>
<g style="fill:#000000; fill-opacity:0.0; 
stroke:#000000; stroke-width:1.0000; stroke-opacity:1; 
stroke-linecap:round; stroke-linejoin:round;">
<path d="M158.1068 80.8472
L158.0000 80.7404
" />
</g>
<g style="fill:#000000; fill-opacity:0.0; 
stroke:#000000; stroke-width:0.7000; stroke-opacity:1; 
stroke-linecap:round; stroke-linejoin:round;">
<path d="M161.4000 76.3404
L158.0000 76.3404
" />
<path d="M163.0000 80.5000
L163.0000 77.9404
" />
<path d="M163.0000 77.9404
L161.4000 76.3404
" />
</g>
<g style="fill:#000000; fill-opacity:0.0; 
stroke:#000000; stroke-width:0.3000; stroke-opacity:1; 
stroke-linecap:round; stroke-linejoin:round;">
<path d="M162.0000 113.9404
L162.0000 112.8625
" />
<path d="M162.7500 112.1125
L162.7500 110.7500
" />
<path d="M162.0000 112.8625
L162.7500 112.1125
" />
<path d="M147.0000 133.0000
L144.0000 133.0000
" />
<path d="M160.6800 112.3700
L160.0000 113.0500
" />
<path d="M161.0000 125.0000
L161.0000 124.0000
" />
<path d="M161.0000 124.0000
L159.0000 122.0000
" />
<path d="M144.0000 131.5000
L147.0000 131.5000
" />
<path d="M160.6800 110.7604
L160.6800 112.3700
" />
<path d="M160.0000 113.0500
L160.0000 114.0000
" />
<path d="M131.4600 114.0460
L134.0000 111.5060
" />
<path d="M165.8510 116.3510
L165.8510 116.9720
" />
<path d="M165.0000 115.5000
L165.8510 116.3510
" />
<path d="M147.3386 98.3000
L148.4650 98.3000
" />
<path d="M158.8770 115.9510
L159.3280 115.5000
" />
<path d="M149.3360 99.1710
L149.3360 101.6000
" />
<path d="M128.6455 115.1945
L129.7940 114.0460
" />
<path d="M128.6455 116.9060
L128.6455 115.1945
" />
<path d="M148.4650 98.3000
L149.3360 99.1710
" />
<path d="M159.3280 115.5000
L165.0000 115.5000
" />
<path d="M129.7940 114.0460
L131.4600 114.0460
" />
<path d="M143.1544 98.9076
L143.7620 98.3000
" />
<path d="M143.1544 99.8456
L143.1544 98.9076
" />
<path d="M135.5000 109.2040
L135.5000 112.5000
" />
<path d="M126.3705 114.4215
L132.5880 108.2040
" />
<path d="M135.5000 112.5000
L135.0000 113.0000
" />
<path d="M134.5000 108.2040
L135.5000 109.2040
" />
<path d="M163.5760 116.9720
L161.7930 116.9720
" />
<path d="M143.7620 98.3000
L145.0636 98.3000
" />
<path d="M161.7930 116.9720
L160.6550 118.1100
" />
<path d="M132.5880 108.2040
L134.5000 108.2040
" />
<path d="M126.3705 116.9060
L126.3705 114.4215
" />
</g>
<g >
</g>
<g style="fill:#000000; fill-opacity:0.0; 
stroke:#000000; stroke-width:0.3000; stroke-opacity:1; 
stroke-linecap:round; stroke-linejoin:round;">
<g >
</g>
<g style="fill:#000000; fill-opacity:1.0000; 
stroke:#000000; stroke-width:0.0000; stroke-opacity:1; 
stroke-linecap:round; stroke-linejoin:round;">
<path style="fill:#000000; fill-opacity:1.0000; 
stroke:#000000; stroke-width:0.0000; stroke-opacity:1; 
stroke-linecap:round; stroke-linejoin:round;fill-rule:evenodd;"
d="M 149.9792,47.5904
152.0058,47.7099
154.0261,47.9089
156.0371,48.1870
158.0356,48.5439
160.0185,48.9790
161.9828,49.4915
163.9255,50.0809
165.8436,50.7460
167.7340,51.4859
169.5940,52.2995
171.4206,53.1854
173.2110,54.1424
174.9624,55.1689
176.6722,56.2634
178.3377,57.4242
179.9563,58.6495
181.5256,59.9374
183.0432,61.2859
184.5066,62.6929
185.9136,64.1563
187.2621,65.6739
188.5500,67.2432
189.7753,68.8618
190.9361,70.5273
192.0306,72.2371
193.0571,73.9885
194.0141,75.7789
194.9000,77.6055
195.7136,79.4655
196.4535,81.3559
197.1186,83.2740
197.7080,85.2167
198.2205,87.1810
198.6556,89.1639
199.0125,91.1624
199.2906,93.1734
199.4896,95.1937
199.6091,97.2203
199.6490,99.2500
199.6091,101.2797
199.4896,103.3063
199.2906,105.3266
199.0125,107.3376
198.6556,109.3361
198.2205,111.3190
197.7080,113.2833
197.1186,115.2260
196.4535,117.1441
195.7136,119.0345
194.9000,120.8945
194.0141,122.7211
193.0571,124.5115
192.0306,126.2629
190.9361,127.9727
189.7753,129.6382
188.5500,131.2568
187.2621,132.8261
185.9136,134.3437
184.5066,135.8071
183.0432,137.2141
181.5256,138.5626
179.9563,139.8505
178.3377,141.0758
176.6722,142.2366
174.9624,143.3311
173.2110,144.3576
171.4206,145.3146
169.5940,146.2005
167.7340,147.0141
165.8436,147.7540
163.9255,148.4191
161.9828,149.0085
160.0185,149.5210
158.0356,149.9561
156.0371,150.3130
154.0261,150.5911
152.0058,150.7901
149.9792,150.9096
147.9495,150.9495
145.9198,150.9096
143.8932,150.7901
141.8729,150.5911
139.8619,150.3130
137.8634,149.9561
135.8805,149.5210
133.9162,149.0085
131.9735,148.4191
130.0554,147.7540
128.1650,147.0141
126.3050,146.2005
124.4784,145.3146
122.6880,144.3576
120.9366,143.3311
119.2268,142.2366
117.5613,141.0758
117.5238,141.0474
127.2265,141.0474
127.3074,141.4278
127.3074,141.4278
127.4656,141.7832
127.4656,141.7832
127.6943,142.0979
127.6943,142.0979
127.8483,142.2366
127.9833,142.3582
128.3202,142.5527
128.6902,142.6729
128.9800,142.7034
128.9801,142.7034
129.1740,142.7034
129.1740,142.7034
129.4639,142.6729
129.8338,142.5527
130.1707,142.3582
130.3972,142.1543
130.4598,142.0979
130.4598,142.0979
130.4598,142.0979
130.6884,141.7832
130.8466,141.4278
130.9275,141.0474
130.9275,140.8727
161.5615,140.8727
161.6424,141.2531
161.6424,141.2531
161.8006,141.6085
161.8006,141.6085
162.0293,141.9232
162.0293,141.9232
162.2051,142.0815
162.3183,142.1835
162.6552,142.3780
163.0252,142.4982
163.3151,142.5287
163.3151,142.5287
163.5090,142.5287
163.5090,142.5287
163.7989,142.4982
164.1688,142.3780
164.5057,142.1835
164.7322,141.9796
164.7948,141.9232
164.7948,141.9232
164.7948,141.9232
165.0234,141.6085
165.1817,141.2531
165.2625,140.8727
165.2625,140.4837
165.1817,140.1032
165.0234,139.7478
165.0234,139.7478
165.0234,139.7478
164.7948,139.4331
164.7948,139.4331
164.6064,139.2635
164.5057,139.1728
164.1688,138.9783
164.1688,138.9783
164.1688,138.9783
163.7989,138.8581
163.7506,138.8530
163.5090,138.8277
163.3151,138.8277
163.1080,138.8494
163.0252,138.8581
162.6552,138.9783
162.3183,139.1728
162.0293,139.4331
162.0293,139.4331
161.8006,139.7478
161.8006,139.7478
161.8006,139.7478
161.7228,139.9225
161.6424,140.1032
161.5615,140.4837
161.5615,140.8727
130.9275,140.8727
130.9275,140.6584
130.8466,140.2779
130.6884,139.9225
130.6884,139.9225
130.6884,139.9225
130.4598,139.6078
130.4598,139.6078
130.2658,139.4331
130.1707,139.3475
129.8338,139.1530
129.8338,139.1530
129.8338,139.1530
129.4639,139.0328
129.4156,139.0277
129.1740,139.0024
128.9800,139.0024
128.7730,139.0241
128.6902,139.0328
128.3202,139.1530
127.9833,139.3475
127.6943,139.6078
127.6943,139.6078
127.4656,139.9225
127.4656,139.9225
127.4656,139.9225
127.3470,140.1890
127.3074,140.2779
127.2265,140.6584
127.2265,141.0474
117.5238,141.0474
115.9427,139.8505
114.3734,138.5626
112.8558,137.2141
111.3924,135.8071
111.0399,135.4404
160.0902,135.4404
160.1271,135.6967
160.1271,135.6967
160.2347,135.9322
160.2347,135.9323
160.2347,135.9323
160.4042,136.1280
160.4042,136.1280
160.4042,136.1280
160.6221,136.2679
160.6221,136.2679
160.8705,136.3409
160.8705,136.3409
161.1295,136.3409
161.3779,136.2679
161.5958,136.1280
161.7653,135.9323
161.8729,135.6967
161.9098,135.4404
161.8729,135.1841
161.7653,134.9485
161.7308,134.9087
161.7005,134.8275
161.7005,130.5533
161.7308,130.4721
161.7653,130.4323
161.8729,130.1967
161.9098,129.9404
161.8729,129.6841
161.8656,129.6680
161.7653,129.4485
161.7653,129.4485
161.7653,129.4485
161.5958,129.2528
161.5958,129.2528
161.5958,129.2528
161.3779,129.1129
161.3779,129.1129
161.1295,129.0399
161.1295,129.0399
160.8705,129.0399
160.8705,129.0399
160.6221,129.1129
160.6221,129.1129
160.4042,129.2528
160.4042,129.2528
160.2347,129.4485
160.2347,129.4485
160.1271,129.6841
160.1271,129.6841
160.0902,129.9404
160.1271,130.1967
160.1271,130.1967
160.2347,130.4322
160.2347,130.4323
160.2692,130.4721
160.2995,130.5533
160.2995,134.8275
160.2692,134.9087
160.2347,134.9485
160.2347,134.9485
160.1271,135.1841
160.0902,135.4404
111.0399,135.4404
109.9854,134.3437
108.7914,133.0000
143.0902,133.0000
143.1271,133.2563
143.1271,133.2563
143.2347,133.4918
143.2347,133.4919
143.2347,133.4919
143.4042,133.6876
143.4042,133.6876
143.4042,133.6876
143.6221,133.8275
143.6221,133.8275
143.8705,133.9005
143.8705,133.9005
144.1295,133.9005
144.3779,133.8275
144.5958,133.6876
144.5958,133.6875
144.6025,133.6817
144.6059,133.6857
144.6756,133.6508
144.6845,133.6505
146.3155,133.6505
146.3958,133.6838
146.3975,133.6817
146.4042,133.6875
146.4042,133.6876
146.4042,133.6876
146.4042,133.6876
146.6221,133.8275
146.6221,133.8275
146.8705,133.9005
146.8705,133.9005
147.1295,133.9005
147.3779,133.8275
147.5958,133.6876
147.7653,133.4919
147.8729,133.2563
147.9098,133.0000
147.8729,132.7437
147.8729,132.7437
147.7653,132.5082
147.7653,132.5081
147.7653,132.5081
147.6120,132.3312
147.5820,132.2412
147.6120,132.1688
147.7653,131.9919
147.8729,131.7563
147.9098,131.5000
147.8729,131.2437
147.8729,131.2437
147.7653,131.0082
147.7653,131.0081
147.7653,131.0081
147.5958,130.8124
147.5958,130.8124
147.5958,130.8124
147.3779,130.6725
147.3779,130.6725
147.1295,130.5995
147.1295,130.5995
146.8705,130.5995
146.8705,130.5995
146.6221,130.6725
146.6221,130.6725
146.4042,130.8124
146.3975,130.8183
146.3941,130.8143
146.3244,130.8492
146.3155,130.8495
144.6845,130.8495
144.6042,130.8162
144.6025,130.8183
144.5958,130.8124
144.3779,130.6725
144.3779,130.6725
144.1295,130.5995
144.1295,130.5995
143.8705,130.5995
143.8705,130.5995
143.6221,130.6725
143.6221,130.6725
143.4042,130.8124
143.4042,130.8124
143.4042,130.8124
143.4042,130.8124
143.3992,130.8183
143.2347,131.0081
143.2347,131.0082
143.1271,131.2437
143.1271,131.2437
143.0902,131.5000
143.1271,131.7563
143.1271,131.7563
143.2347,131.9918
143.2347,131.9919
143.2347,131.9919
143.3880,132.1688
143.4180,132.2588
143.3880,132.3312
143.2347,132.5081
143.2347,132.5082
143.1271,132.7437
143.1271,132.7437
143.0902,133.0000
108.7914,133.0000
108.6369,132.8261
107.3490,131.2568
106.1237,129.6382
104.9629,127.9727
104.7848,127.6945
116.1495,127.6945
116.2304,128.0750
116.2304,128.0750
116.2987,128.2285
116.3858,128.4242
116.3886,128.4303
116.3886,128.4304
116.6172,128.7450
116.6172,128.7451
116.7931,128.9034
116.9063,129.0053
117.2432,129.1998
117.6131,129.3200
117.9030,129.3505
117.9030,129.3505
118.0970,129.3505
118.0970,129.3505
118.3869,129.3200
118.7568,129.1998
119.0937,129.0053
119.3201,128.8014
119.3828,128.7451
119.3828,128.7450
119.3828,128.7450
119.6114,128.4303
119.7696,128.0750
119.8308,127.7874
129.5192,127.7874
129.5561,128.0437
129.5561,128.0437
129.6637,128.2792
129.6637,128.2793
129.6637,128.2793
129.8332,128.4750
129.8332,128.4750
129.8332,128.4750
130.0511,128.6149
130.0511,128.6149
130.2995,128.6879
130.2995,128.6879
130.5585,128.6879
130.8069,128.6149
131.0248,128.4750
131.1943,128.2793
131.3019,128.0437
131.3388,127.7874
131.3019,127.5311
131.3019,127.5311
131.3019,127.5311
131.2907,127.5066
131.2795,127.4550
131.2795,123.4667
131.3158,123.3790
132.6498,122.0450
132.7375,122.0086
132.8252,122.0450
132.8615,122.1326
132.8615,122.9323
132.8252,123.0200
132.4629,123.3824
132.2724,123.5729
132.2460,123.6245
132.2359,123.6411
132.2018,123.6881
132.2018,123.6881
132.2018,123.6881
132.1838,123.7432
132.1764,123.7612
132.1500,123.8129
132.1410,123.8702
132.1364,123.8891
132.1185,123.9443
132.1185,123.9443
132.1185,127.4042
132.1073,127.4558
132.0961,127.4803
132.0961,127.4803
132.0592,127.7366
132.0961,127.9929
132.0961,127.9929
132.2037,128.2284
132.2037,128.2285
132.2037,128.2285
132.3732,128.4242
132.3732,128.4242
132.3732,128.4242
132.5911,128.5641
132.5911,128.5641
132.8395,128.6371
132.8395,128.6371
133.0985,128.6371
133.3469,128.5641
133.5648,128.4242
133.7343,128.2285
133.8419,127.9929
133.8788,127.7366
133.8727,127.6945
172.6495,127.6945
172.7304,128.0750
172.7304,128.0750
172.7987,128.2285
172.8858,128.4242
172.8886,128.4303
172.8886,128.4304
173.1172,128.7450
173.1172,128.7451
173.2931,128.9034
173.4063,129.0053
173.7432,129.1998
174.1131,129.3200
174.4030,129.3505
174.4030,129.3505
174.5970,129.3505
174.5970,129.3505
174.8869,129.3200
175.2568,129.1998
175.5937,129.0053
175.8201,128.8014
175.8828,128.7451
175.8828,128.7450
175.8828,128.7450
176.1114,128.4303
176.2696,128.0750
176.3505,127.6945
176.3505,127.3055
176.2696,126.9250
176.1114,126.5697
176.1114,126.5696
176.1114,126.5696
175.8828,126.2550
175.8828,126.2549
175.6944,126.0853
175.5937,125.9947
175.2568,125.8002
175.2568,125.8002
175.2568,125.8002
174.8869,125.6800
174.8385,125.6749
174.5970,125.6495
174.4030,125.6495
174.1960,125.6713
174.1131,125.6800
173.7432,125.8002
173.4063,125.9947
173.1172,126.2549
173.1172,126.2550
172.8886,126.5696
172.7304,126.9250
172.6495,127.3055
172.6495,127.6945
133.8727,127.6945
133.8419,127.4803
133.8419,127.4803
133.8419,127.4803
133.8307,127.4558
133.8195,127.4042
133.8195,124.4826
133.8558,124.3950
134.0280,124.2228
134.1156,124.1865
134.9113,124.1865
134.9113,124.1865
135.0573,124.1575
135.0573,124.1575
135.0573,124.1575
135.0851,124.1389
135.2228,124.0468
135.3335,123.8813
135.3625,123.7353
135.3625,122.1367
135.3353,122.0000
158.0902,122.0000
158.1271,122.2563
158.1271,122.2563
158.2347,122.4918
158.2347,122.4919
158.2347,122.4919
158.4042,122.6876
158.4042,122.6876
158.4042,122.6876
158.6221,122.8275
158.6221,122.8275
158.8705,122.9005
158.8705,122.9005
158.9292,122.9005
159.0169,122.9368
160.3132,124.2331
160.3495,124.3208
160.3495,124.3294
160.3192,124.4106
160.2568,124.4826
160.2347,124.5081
160.2347,124.5082
160.1271,124.7437
160.1271,124.7437
160.0902,125.0000
160.1271,125.2563
160.1271,125.2563
160.2347,125.4918
160.2347,125.4919
160.2347,125.4919
160.4042,125.6876
160.4042,125.6876
160.4042,125.6876
160.6221,125.8275
160.6221,125.8275
160.8705,125.9005
160.8705,125.9005
161.1295,125.9005
161.3779,125.8275
161.4205,125.8002
161.5958,125.6876
161.5958,125.6876
161.5958,125.6876
161.7653,125.4919
161.8729,125.2563
161.9098,125.0000
161.8729,124.7437
161.7716,124.5218
161.7653,124.5082
161.7653,124.5081
161.7653,124.5081
161.6808,124.4106
161.6505,124.3294
161.6505,124.0311
161.6507,124.0257
161.6580,123.9424
161.6364,123.8617
161.6352,123.8564
161.6207,123.7741
161.6207,123.7741
161.6143,123.7631
161.6019,123.7331
161.5986,123.7208
161.5507,123.6524
161.5478,123.6478
161.5060,123.5754
161.5060,123.5754
161.5060,123.5754
161.4420,123.5217
161.4380,123.5180
159.9372,122.0173
159.9022,121.9473
159.8729,121.7437
159.8729,121.7437
159.8729,121.7437
159.7653,121.5082
159.7653,121.5081
159.7653,121.5081
159.5958,121.3124
159.5958,121.3124
159.5958,121.3124
159.3779,121.1725
159.3779,121.1725
159.1295,121.0995
159.1295,121.0995
158.8705,121.0995
158.8705,121.0995
158.6221,121.1725
158.6221,121.1725
158.4042,121.3124
158.4042,121.3124
158.2347,121.5081
158.2347,121.5082
158.1271,121.7437
158.1271,121.7437
158.0902,122.0000
135.3353,122.0000
135.3335,121.9907
135.3335,121.9907
135.3335,121.9907
135.2780,121.9077
135.2228,121.8252
135.0573,121.7145
135.0573,121.7145
135.0573,121.7145
134.9113,121.6855
133.3086,121.6855
133.2210,121.6492
133.1846,121.5615
133.2210,121.4738
134.6487,120.0461
134.6966,119.9981
134.7230,119.9464
134.7331,119.9299
134.7672,119.8829
134.7852,119.8278
134.7926,119.8098
134.8190,119.7581
134.8280,119.7008
134.8326,119.6819
134.8328,119.6813
134.8505,119.6267
134.8505,119.4564
144.3480,119.4564
144.4288,119.8369
144.4289,119.8369
144.5007,119.9981
144.5837,120.1847
144.5871,120.1922
144.5871,120.1922
144.8157,120.5069
144.8157,120.5069
144.9916,120.6653
145.1048,120.7672
145.4417,120.9617
145.8116,121.0819
146.1015,121.1124
146.1015,121.1124
146.2954,121.1124
146.2955,121.1124
146.5853,121.0819
146.9553,120.9617
147.2922,120.7672
147.5462,120.5385
147.5812,120.5069
147.5812,120.5069
147.5812,120.5069
147.8099,120.1922
147.9681,119.8369
148.0490,119.4564
148.0490,119.1220
162.4166,119.1220
162.4260,119.1928
162.5228,119.4006
162.6849,119.5627
162.8927,119.6595
162.8927,119.6595
162.9873,119.6720
162.9873,119.6720
163.3260,119.6720
163.8260,119.6720
164.1647,119.6720
164.1647,119.6720
164.2593,119.6595
164.3412,119.6213
164.4360,119.6172
164.5060,119.6813
164.5102,119.7761
164.5064,119.7852
164.4433,119.9235
164.4064,120.1798
164.4433,120.4361
164.4433,120.4361
164.5509,120.6716
164.5509,120.6717
164.5509,120.6717
164.7204,120.8674
164.7204,120.8674
164.7204,120.8674
164.9383,121.0073
164.9383,121.0073
165.1867,121.0803
165.1867,121.0803
165.4457,121.0803
165.6941,121.0073
165.9120,120.8674
166.0815,120.6717
166.1254,120.5756
166.1891,120.4361
166.1891,120.4361
166.1891,120.4361
166.2065,120.3151
166.2416,120.2451
166.2859,120.2008
166.3057,120.1847
166.3320,120.1675
166.3747,120.1126
166.3798,120.1069
166.3874,120.0993
166.4127,120.0638
166.4756,119.9830
166.4756,119.9830
166.4805,119.9740
166.4807,119.9741
166.4847,119.9663
166.4845,119.9661
166.4890,119.9569
166.4890,119.9569
166.4890,119.9569
166.5182,119.8588
166.5208,119.8513
166.5289,119.8278
166.5515,119.7619
166.5515,119.7619
166.5532,119.7518
166.5534,119.7518
166.5547,119.7431
166.5545,119.7430
166.5570,119.7227
166.5599,119.7230
166.5884,119.6451
166.6273,119.6167
166.7424,119.5631
166.9046,119.4009
167.0015,119.1930
167.0140,119.0982
167.0140,118.6458
167.0015,118.5510
166.9966,118.5405
166.9539,118.4488
166.9497,118.3540
166.9539,118.3440
167.0010,118.2428
167.0104,118.1720
166.7507,118.1720
166.6983,118.1604
166.5345,118.0840
166.5345,118.0840
166.4397,118.0715
166.4397,118.0715
166.4397,118.0715
165.2623,118.0715
165.2623,118.0715
165.2623,118.0715
165.1675,118.0840
165.1675,118.0840
165.0037,118.1604
164.9513,118.1720
163.8260,118.1720
163.8260,119.6720
163.3260,119.6720
163.3260,119.1220
162.4166,119.1220
148.0490,119.1220
148.0490,119.0674
147.9681,118.6869
147.9540,118.6553
147.9204,118.5798
147.8099,118.3315
147.8099,118.3315
147.8099,118.3315
147.5812,118.0168
147.5812,118.0168
147.3099,117.7725
147.2922,117.7566
146.9553,117.5621
146.9553,117.5621
146.9553,117.5621
146.5853,117.4419
146.5370,117.4368
146.2955,117.4114
146.1015,117.4114
145.8944,117.4332
145.8116,117.4419
145.4417,117.5621
145.1048,117.7566
144.8157,118.0168
144.8157,118.0168
144.5871,118.3315
144.5871,118.3315
144.5871,118.3315
144.4765,118.5798
144.4288,118.6869
144.3480,119.0674
144.3480,119.4564
134.8505,119.4564
134.8505,119.3573
134.8505,119.3531
134.8505,119.3531
134.8505,119.1981
134.8868,119.1104
134.9350,119.0846
134.9340,119.0821
134.9453,119.0775
134.9603,119.0674
135.1108,118.9668
135.2215,118.8013
135.2505,118.6553
135.2505,117.0567
135.2215,116.9107
135.2215,116.9107
135.2215,116.9107
135.1331,116.7785
135.1108,116.7452
134.9453,116.6345
134.9453,116.6345
134.9453,116.6345
134.7993,116.6055
133.2007,116.6055
133.0547,116.6345
132.8892,116.7452
132.7785,116.9107
132.7785,116.9107
132.7495,117.0567
132.7495,118.6553
132.7785,118.8013
132.8523,118.9117
132.8892,118.9668
133.0232,119.0564
133.0759,119.1353
133.0574,119.2284
133.0420,119.2472
129.9229,122.3664
129.9229,122.3664
129.7324,122.5569
129.7060,122.6085
129.6959,122.6251
129.6618,122.6721
129.6618,122.6721
129.6618,122.6721
129.6438,122.7272
129.6364,122.7452
129.6100,122.7969
129.6010,122.8542
129.5964,122.8731
129.5785,122.9283
129.5785,122.9283
129.5785,127.4550
129.5673,127.5066
129.5561,127.5311
129.5561,127.5311
129.5192,127.7874
119.8308,127.7874
119.8505,127.6945
119.8505,127.3055
119.7696,126.9250
119.6114,126.5697
119.6114,126.5696
119.6114,126.5696
119.3828,126.2550
119.3828,126.2549
119.1944,126.0853
119.0937,125.9947
118.7568,125.8002
118.7568,125.8002
118.7568,125.8002
118.3869,125.6800
118.3385,125.6749
118.0970,125.6495
117.9030,125.6495
117.6960,125.6713
117.6131,125.6800
117.2432,125.8002
116.9063,125.9947
116.6172,126.2549
116.6172,126.2550
116.3886,126.5696
116.2304,126.9250
116.1495,127.3055
116.1495,127.6945
104.7848,127.6945
103.8684,126.2629
102.8419,124.5115
101.8849,122.7211
100.9990,120.8945
100.1948,119.0560
125.2111,119.0560
125.2205,119.1268
125.3173,119.3346
125.4794,119.4967
125.6872,119.5935
125.6872,119.5935
125.7818,119.6060
125.7818,119.6060
126.1205,119.6060
126.6205,119.6060
126.9592,119.6060
126.9592,119.6060
127.0538,119.5935
127.2616,119.4967
127.4200,119.3383
127.5076,119.3020
127.5953,119.3383
127.7541,119.4971
127.9463,119.5867
128.0104,119.6567
128.0160,119.6775
128.0248,119.7274
128.0312,119.7384
128.0436,119.7683
128.0469,119.7806
128.0469,119.7807
128.0948,119.8491
128.0977,119.8537
128.1395,119.9261
128.1395,119.9261
128.2035,119.9798
128.2075,119.9835
128.3916,120.1675
128.5500,120.3260
128.5537,120.3300
128.5955,120.3799
128.6074,120.3940
128.6798,120.4358
128.6844,120.4387
128.7528,120.4866
128.7651,120.4899
128.7951,120.5023
128.8030,120.5069
128.8061,120.5087
128.8884,120.5232
128.8937,120.5244
128.9744,120.5460
129.0577,120.5387
129.0631,120.5385
129.8155,120.5385
129.8958,120.5718
129.8975,120.5697
129.9042,120.5755
129.9042,120.5756
129.9042,120.5756
129.9042,120.5756
130.1221,120.7155
130.1221,120.7155
130.3705,120.7885
130.3705,120.7885
130.6295,120.7885
130.8779,120.7155
130.9462,120.6717
131.0958,120.5756
131.0958,120.5756
131.0958,120.5756
131.2653,120.3799
131.3729,120.1443
131.4098,119.8880
131.3729,119.6317
131.3729,119.6317
131.2653,119.3961
131.2653,119.3961
131.2653,119.3961
131.0958,119.2004
131.0958,119.2004
131.0958,119.2004
130.8779,119.0605
130.8779,119.0605
130.6295,118.9875
130.6295,118.9875
130.3705,118.9875
130.3705,118.9875
130.1221,119.0605
129.9995,119.1392
129.9061,119.1560
129.8282,119.1019
129.8085,119.0349
129.8085,118.5798
129.8085,118.5798
129.7960,118.4850
129.7960,118.4850
129.7484,118.3828
129.7442,118.2880
129.7484,118.2780
129.7955,118.1768
129.8049,118.1060
129.5452,118.1060
129.4928,118.0944
129.3290,118.0180
129.3290,118.0180
129.2342,118.0055
129.2342,118.0055
129.2342,118.0055
128.0568,118.0055
128.0568,118.0055
128.0568,118.0055
127.9620,118.0180
127.9620,118.0180
127.7982,118.0944
127.7458,118.1060
126.6205,118.1060
126.6205,119.6060
126.1205,119.6060
126.1205,119.0560
125.2111,119.0560
100.1948,119.0560
100.1854,119.0345
99.9981,118.5560
125.2111,118.5560
125.2111,118.5560
126.1205,118.5560
126.1205,118.1060
125.2111,118.1060
125.2205,118.1768
125.2205,118.1768
125.2679,118.2786
125.2721,118.3734
125.2679,118.3834
125.2205,118.4852
125.2205,118.4852
125.2111,118.5560
99.9981,118.5560
99.4455,117.1441
99.4414,117.1322
125.2075,117.1322
125.2075,117.1322
125.2200,117.2270
125.2200,117.2270
125.2676,117.3292
125.2718,117.4240
125.2676,117.4340
125.2205,117.5352
125.2205,117.5352
125.2111,117.6060
125.2111,117.6060
125.4708,117.6060
125.5232,117.6176
125.6870,117.6940
125.6870,117.6940
125.7053,117.6964
125.7818,117.7065
125.7818,117.7065
126.9592,117.7065
126.9592,117.7065
127.0540,117.6940
127.2167,117.6181
127.2178,117.6176
127.2702,117.6060
127.7458,117.6060
127.7982,117.6176
127.9620,117.6940
127.9620,117.6940
127.9803,117.6964
128.0568,117.7065
128.0568,117.7065
129.2342,117.7065
129.2342,117.7065
129.3290,117.6940
129.4917,117.6181
129.4928,117.6176
129.5452,117.6060
129.8049,117.6060
129.8049,117.6060
129.7955,117.5352
129.7484,117.4340
129.7442,117.3392
129.7483,117.3292
129.7960,117.2270
129.8085,117.1322
129.8085,116.6798
129.7960,116.5850
129.6991,116.3771
129.5369,116.2149
129.4705,116.1840
129.3676,116.1360
129.3035,116.0660
129.2960,116.0236
129.2960,115.9510
157.9672,115.9510
158.0041,116.2073
158.0041,116.2073
158.1117,116.4428
158.1117,116.4429
158.1117,116.4429
158.2812,116.6386
158.2812,116.6386
158.2812,116.6386
158.4991,116.7785
158.4991,116.7785
158.7475,116.8515
158.7475,116.8515
159.0065,116.8515
159.2549,116.7785
159.3059,116.7458
159.4533,116.6510
159.4728,116.6386
159.6423,116.4429
159.6575,116.4097
159.7427,116.2230
159.8122,116.1583
159.8555,116.1505
161.4388,116.1505
161.5265,116.1868
161.5628,116.2745
161.5265,116.3622
161.5100,116.3761
161.4454,116.4213
161.4408,116.4242
161.3684,116.4660
161.3684,116.4660
161.3147,116.5300
161.3110,116.5340
160.6719,117.1732
160.5842,117.2095
160.5255,117.2095
160.2771,117.2825
160.2771,117.2825
160.0592,117.4224
160.0592,117.4224
160.0592,117.4224
160.0592,117.4224
159.9044,117.6012
159.8897,117.6181
159.8897,117.6181
159.7821,117.8537
159.7821,117.8537
159.7452,118.1100
159.7821,118.3663
159.7821,118.3663
159.8897,118.6018
159.8897,118.6019
159.8897,118.6019
160.0592,118.7976
160.0592,118.7976
160.0592,118.7976
160.2771,118.9375
160.2771,118.9375
160.5255,119.0105
160.5255,119.0105
160.7845,119.0105
161.0329,118.9375
161.2508,118.7976
161.4029,118.6220
162.4166,118.6220
162.4166,118.6220
163.3260,118.6220
163.3260,118.1720
162.4166,118.1720
162.4260,118.2428
162.4260,118.2428
162.4734,118.3446
162.4776,118.4394
162.4734,118.4494
162.4260,118.5512
162.4260,118.5512
162.4166,118.6220
161.4029,118.6220
161.4203,118.6019
161.4203,118.6018
161.5279,118.3663
161.5279,118.3663
161.5279,118.3663
161.5572,118.1627
161.5922,118.0927
162.0261,117.6588
162.1138,117.6225
162.3170,117.6225
162.4047,117.6588
162.4103,117.6647
162.4166,117.6720
162.6763,117.6720
162.7287,117.6836
162.8851,117.7566
162.8925,117.7600
162.8925,117.7600
162.9108,117.7624
162.9873,117.7725
162.9873,117.7725
164.1647,117.7725
164.1647,117.7725
164.2595,117.7600
164.4233,117.6836
164.4757,117.6720
164.9513,117.6720
165.0037,117.6836
165.1601,117.7566
165.1675,117.7600
165.1675,117.7600
165.1858,117.7624
165.2623,117.7725
165.2623,117.7725
166.4397,117.7725
166.4397,117.7725
166.5345,117.7600
166.6983,117.6836
166.7507,117.6720
167.0104,117.6720
167.0104,117.6720
167.0010,117.6012
166.9539,117.5000
166.9497,117.4052
166.9538,117.3952
167.0015,117.2930
167.0140,117.1982
167.0140,116.7458
167.0015,116.6510
166.9046,116.4431
166.7424,116.2809
166.6181,116.2230
166.5305,116.1821
166.4756,116.1318
166.4653,116.1141
166.4529,116.0841
166.4496,116.0718
166.4017,116.0034
166.3988,115.9988
166.3570,115.9264
166.3570,115.9264
166.3570,115.9264
166.2930,115.8727
166.2890,115.8690
165.4820,115.0620
165.4783,115.0580
165.4246,114.9940
165.4246,114.9940
165.3522,114.9522
165.3476,114.9493
165.2792,114.9014
165.2792,114.9014
165.2792,114.9013
165.2669,114.8981
165.2369,114.8857
165.2259,114.8793
165.1436,114.8648
165.1383,114.8636
165.0576,114.8420
164.9877,114.8481
164.9743,114.8493
164.9689,114.8495
162.6725,114.8495
162.5849,114.8132
162.5485,114.7255
162.5849,114.6378
162.5913,114.6318
162.5958,114.6280
162.5958,114.6280
162.7653,114.4323
162.8729,114.1967
162.9098,113.9404
162.8729,113.6841
162.8729,113.6841
162.7653,113.4485
162.7653,113.4485
162.7653,113.4485
162.6808,113.3510
162.6505,113.2698
162.6505,113.1833
162.6868,113.0956
163.1880,112.5945
163.1919,112.5908
163.2560,112.5371
163.2978,112.4647
163.3007,112.4601
163.3486,112.3917
163.3519,112.3794
163.3643,112.3494
163.3707,112.3384
163.3707,112.3384
163.3707,112.3384
163.3852,112.2561
163.3864,112.2508
163.4080,112.1701
163.4007,112.0868
163.4005,112.0814
163.4005,111.4206
163.4308,111.3394
163.5153,111.2419
163.6229,111.0063
163.6598,110.7500
163.6229,110.4937
163.6053,110.4552
163.5153,110.2582
163.5153,110.2581
163.5153,110.2581
163.3458,110.0624
163.3458,110.0624
163.3458,110.0624
163.1279,109.9225
163.1279,109.9225
162.8795,109.8495
162.8795,109.8495
162.6205,109.8495
162.6205,109.8495
162.3721,109.9225
162.3721,109.9225
162.1542,110.0624
162.1542,110.0624
162.1542,110.0624
162.1542,110.0624
162.0178,110.2199
161.9847,110.2581
161.9846,110.2582
161.8771,110.4937
161.8771,110.4937
161.8402,110.7500
161.8771,111.0063
161.8771,111.0063
161.9846,111.2418
161.9846,111.2419
161.9847,111.2419
162.0692,111.3394
162.0995,111.4206
162.0995,111.7917
162.0632,111.8794
161.5620,112.3805
161.5580,112.3842
161.5342,112.4042
161.4437,112.4327
161.3595,112.3889
161.3305,112.3092
161.3305,111.4310
161.3608,111.3498
161.4453,111.2523
161.5529,111.0167
161.5898,110.7604
161.5529,110.5041
161.5529,110.5041
161.4453,110.2685
161.4453,110.2685
161.4453,110.2685
161.2758,110.0728
161.2758,110.0728
161.2758,110.0728
161.0579,109.9329
161.0579,109.9329
160.8095,109.8599
160.8095,109.8599
160.5505,109.8599
160.5505,109.8599
160.3021,109.9329
160.3021,109.9329
160.0842,110.0728
160.0842,110.0728
159.9147,110.2685
159.9147,110.2685
159.8071,110.5041
159.8071,110.5041
159.7702,110.7604
159.8071,111.0167
159.8071,111.0167
159.9147,111.2522
159.9147,111.2523
159.9147,111.2523
159.9992,111.3498
160.0295,111.4310
160.0295,112.0492
159.9932,112.1369
159.5620,112.5680
159.5580,112.5717
159.4940,112.6254
159.4522,112.6978
159.4493,112.7024
159.4014,112.7708
159.4013,112.7708
159.3981,112.7832
159.3857,112.8130
159.3793,112.8241
159.3648,112.9064
159.3636,112.9117
159.3420,112.9924
159.3493,113.0757
159.3495,113.0811
159.3495,113.3294
159.3192,113.4106
159.2863,113.4485
159.2347,113.5081
159.2347,113.5082
159.1271,113.7437
159.1271,113.7437
159.0902,114.0000
159.1271,114.2563
159.1271,114.2563
159.2347,114.4918
159.2347,114.4919
159.3526,114.6280
159.3601,114.6367
159.3901,114.7267
159.3476,114.8116
159.2772,114.8414
159.2704,114.8420
159.1897,114.8636
159.1844,114.8648
159.1021,114.8793
159.0910,114.8857
159.0611,114.8981
159.0488,114.9013
159.0488,114.9013
158.9804,114.9493
158.9758,114.9522
158.9034,114.9940
158.8932,115.0062
158.8090,115.0500
158.7982,115.0505
158.7475,115.0505
158.4991,115.1235
158.4991,115.1235
158.2812,115.2634
158.2812,115.2634
158.1117,115.4591
158.1117,115.4591
158.0041,115.6947
158.0041,115.6947
157.9672,115.9510
129.2960,115.9510
129.2960,115.5153
129.3323,115.4276
130.0271,114.7328
130.1148,114.6965
131.4289,114.6965
131.4343,114.6967
131.5176,114.7040
131.5176,114.7040
131.5176,114.7040
131.5456,114.6965
131.5983,114.6824
131.6036,114.6812
131.6859,114.6667
131.6859,114.6667
131.6859,114.6667
131.6969,114.6603
131.7269,114.6479
131.7392,114.6446
131.8076,114.5967
131.8122,114.5938
131.8846,114.5520
131.9383,114.4879
131.9420,114.4840
133.9831,112.4428
134.0708,112.4065
134.0881,112.4065
134.1758,112.4428
134.2121,112.5305
134.2009,112.5820
134.1271,112.7437
134.0902,113.0000
134.1271,113.2563
134.1271,113.2563
134.2347,113.4918
134.2347,113.4919
134.2347,113.4919
134.4042,113.6876
134.4042,113.6876
134.4042,113.6876
134.6221,113.8275
134.6221,113.8275
134.8705,113.9005
134.8705,113.9005
135.1295,113.9005
135.3779,113.8275
135.3807,113.8258
135.5958,113.6876
135.5958,113.6876
135.5958,113.6876
135.7653,113.4919
135.8184,113.3756
135.8729,113.2563
135.8729,113.2563
135.8729,113.2563
135.9021,113.0530
135.9452,112.9756
136.0060,112.9246
136.0478,112.8522
136.0507,112.8476
136.0986,112.7792
136.1019,112.7669
136.1143,112.7369
136.1207,112.7259
136.1352,112.6436
136.1364,112.6383
136.1580,112.5576
136.1507,112.4743
136.1505,112.4689
136.1505,109.2351
136.1507,109.2297
136.1580,109.1464
136.1364,109.0657
136.1352,109.0604
136.1207,108.9781
136.1197,108.9763
136.1143,108.9670
136.1019,108.9371
136.0986,108.9248
136.0986,108.9248
136.0507,108.8564
136.0478,108.8518
136.0060,108.7794
136.0060,108.7794
136.0060,108.7794
135.9420,108.7257
135.9380,108.7220
135.4372,108.2213
135.4022,108.1512
135.3729,107.9477
135.3729,107.9477
135.2653,107.7121
135.2653,107.7121
135.2653,107.7121
135.0958,107.5164
135.0958,107.5164
135.0958,107.5164
134.9774,107.4404
173.8930,107.4404
173.9299,107.6967
173.9299,107.6967
174.0375,107.9322
174.0375,107.9323
174.0375,107.9323
174.2070,108.1280
174.2070,108.1280
174.2070,108.1280
174.4249,108.2679
174.4249,108.2679
174.6733,108.3409
174.6733,108.3409
174.9323,108.3409
175.1807,108.2679
175.3986,108.1280
175.5681,107.9323
175.6046,107.8525
175.6297,107.8163
176.3007,107.1453
176.3884,107.1090
176.4761,107.1453
176.5124,107.2330
176.5111,107.2506
176.4838,107.4404
176.5207,107.6967
176.5207,107.6967
176.6283,107.9322
176.6283,107.9323
176.6283,107.9323
176.7978,108.1280
176.7978,108.1280
176.7978,108.1280
177.0157,108.2679
177.0157,108.2679
177.2641,108.3409
177.2641,108.3409
177.5231,108.3409
177.7715,108.2679
177.9894,108.1280
178.1589,107.9323
178.1954,107.8525
178.2205,107.8163
181.8519,104.1849
181.8519,104.1848
181.8621,104.1746
181.8621,104.1746
182.0526,103.9841
182.0790,103.9325
182.0891,103.9159
182.1232,103.8689
182.1412,103.8138
182.1486,103.7958
182.1750,103.7441
182.1840,103.6868
182.1886,103.6679
182.2065,103.6127
182.2065,103.3433
182.2065,99.4445
189.3995,99.4445
189.4113,99.5000
189.4804,99.8250
189.4804,99.8250
189.5466,99.9738
189.6037,100.1019
189.6386,100.1803
189.6386,100.1803
189.8672,100.4950
189.8672,100.4951
190.0025,100.6168
190.1563,100.7553
190.4932,100.9498
190.8631,101.0700
191.1530,101.1005
191.1530,101.1005
191.3470,101.1005
191.3470,101.1005
191.6369,101.0700
192.0068,100.9498
192.3437,100.7553
192.5904,100.5332
192.6328,100.4951
192.6328,100.4950
192.6328,100.4950
192.8614,100.1803
193.0196,99.8250
193.1005,99.4445
193.1005,99.0555
193.0196,98.6750
192.8614,98.3197
192.8614,98.3196
192.8614,98.3196
192.6328,98.0050
192.6328,98.0049
192.4092,97.8037
192.3437,97.7447
192.0068,97.5502
192.0068,97.5502
192.0068,97.5502
191.6369,97.4300
191.5885,97.4249
191.3470,97.3995
191.1530,97.3995
190.9460,97.4213
190.8631,97.4300
190.4932,97.5502
190.1563,97.7447
189.8672,98.0049
189.8672,98.0050
189.6386,98.3196
189.6386,98.3197
189.6386,98.3197
189.5898,98.4293
189.4804,98.6750
189.4138,98.9880
189.3995,99.0555
189.3995,99.4445
182.2065,99.4445
182.2065,98.9931
182.2065,98.9253
182.1886,98.8701
182.1840,98.8512
182.1750,98.7939
182.1750,98.7939
182.1750,98.7939
182.1486,98.7422
182.1412,98.7242
182.1232,98.6691
182.1027,98.6408
182.0891,98.6221
182.0790,98.6055
182.0526,98.5539
182.0526,98.5539
182.0526,98.5539
181.8598,98.3610
181.8598,98.3610
180.0277,96.5289
180.0277,96.5289
179.8301,96.3314
179.8301,96.3314
179.8301,96.3314
179.8276,96.3301
179.7785,96.3050
179.7619,96.2949
179.7149,96.2608
179.6598,96.2428
179.6418,96.2354
179.5901,96.2090
179.5901,96.2090
179.5328,96.2000
179.5139,96.1954
179.4587,96.1775
179.4587,96.1775
179.4587,96.1775
179.4587,96.1775
179.1421,96.1775
179.0544,96.1412
179.0286,96.0930
179.0261,96.0940
179.0215,96.0827
178.9772,96.0164
178.9108,95.9172
178.7453,95.8065
178.7453,95.8065
178.7453,95.8065
178.5993,95.7775
177.0007,95.7775
176.8547,95.8065
176.6892,95.9172
176.5785,96.0827
176.5785,96.0827
176.5495,96.2287
176.5495,97.8273
176.5785,97.9733
176.6523,98.0837
176.6892,98.1388
176.8547,98.2495
176.8547,98.2495
176.8547,98.2495
176.9277,98.2640
177.0007,98.2785
178.5993,98.2785
178.7453,98.2495
178.7453,98.2495
178.7453,98.2495
178.7731,98.2309
178.9108,98.1388
178.9556,98.0719
179.0345,98.0192
179.1275,98.0377
179.1463,98.0531
180.4692,99.3760
180.5055,99.4637
180.5055,103.0743
180.4692,103.1620
178.8318,104.7994
178.7441,104.8357
178.6564,104.7994
178.6201,104.7117
178.6216,104.6923
178.6280,104.6520
178.6326,104.6331
178.6505,104.5779
178.6505,104.3085
178.6505,102.9421
178.6868,102.8544
178.7350,102.8286
178.7340,102.8261
178.7453,102.8215
178.7453,102.8215
178.9108,102.7108
179.0215,102.5453
179.0505,102.3993
179.0505,100.8007
179.0215,100.6547
179.0215,100.6547
179.0215,100.6547
178.9660,100.5717
178.9108,100.4892
178.7453,100.3785
178.7453,100.3785
178.7453,100.3785
178.5993,100.3495
177.0007,100.3495
176.8547,100.3785
176.6892,100.4892
176.5785,100.6547
176.5785,100.6547
176.5495,100.8007
176.5495,102.3993
176.5785,102.5453
176.6523,102.6557
176.6892,102.7108
176.8547,102.8215
176.8547,102.8215
176.8660,102.8261
176.8643,102.8302
176.9286,102.8732
176.9495,102.9421
176.9495,104.0395
176.9132,104.1272
174.4418,106.5986
174.4212,106.6152
174.2070,106.7528
174.0375,106.9485
174.0375,106.9485
173.9299,107.1841
173.9299,107.1841
173.8930,107.4404
134.9774,107.4404
134.8779,107.3764
134.8779,107.3764
134.6295,107.3035
134.6295,107.3035
134.3705,107.3035
134.3705,107.3035
134.1221,107.3764
134.1221,107.3764
133.9042,107.5164
133.8975,107.5223
133.8941,107.5183
133.8244,107.5532
133.8155,107.5535
132.6191,107.5535
132.6137,107.5533
132.5925,107.5514
132.5304,107.5460
132.5304,107.5460
132.4497,107.5676
132.4444,107.5688
132.3621,107.5833
132.3510,107.5897
132.3212,107.6020
132.3089,107.6053
132.2404,107.6533
132.2358,107.6562
132.1634,107.6980
132.1097,107.7620
132.1060,107.7660
125.9325,113.9395
125.9285,113.9432
125.8645,113.9969
125.8645,113.9969
125.8227,114.0693
125.8198,114.0739
125.7719,114.1423
125.7719,114.1423
125.7686,114.1547
125.7562,114.1845
125.7498,114.1956
125.7353,114.2779
125.7341,114.2832
125.7125,114.3639
125.7198,114.4472
125.7200,114.4526
125.7200,116.0236
125.6837,116.1113
125.6484,116.1360
125.4791,116.2149
125.3169,116.3771
125.2200,116.5850
125.2200,116.5850
125.2075,116.6798
125.2075,116.6798
125.2075,117.1322
99.4414,117.1322
98.7804,115.2260
98.1910,113.2833
97.6785,111.3190
97.2434,109.3361
96.8865,107.3376
96.6084,105.3266
96.4094,103.3063
96.2899,101.2797
96.2538,99.4445
98.8995,99.4445
98.9113,99.5000
98.9804,99.8250
98.9804,99.8250
99.0466,99.9738
99.1037,100.1019
99.1386,100.1803
99.1386,100.1803
99.3672,100.4950
99.3672,100.4951
99.5025,100.6168
99.6563,100.7553
99.9932,100.9498
100.3631,101.0700
100.6530,101.1005
100.6530,101.1005
100.8470,101.1005
100.8470,101.1005
101.1369,101.0700
101.5068,100.9498
101.8437,100.7553
102.0904,100.5332
102.1328,100.4951
102.1328,100.4950
102.1328,100.4950
102.3614,100.1803
102.5196,99.8250
102.6005,99.4445
124.3995,99.4445
124.4113,99.5000
124.4804,99.8250
124.4804,99.8250
124.5466,99.9738
124.6037,100.1019
124.6386,100.1803
124.6386,100.1803
124.8672,100.4950
124.8672,100.4951
125.0025,100.6168
125.1563,100.7553
125.4932,100.9498
125.8631,101.0700
126.1530,101.1005
126.1530,101.1005
126.3470,101.1005
126.3470,101.1005
126.6369,101.0700
127.0068,100.9498
127.3437,100.7553
127.5904,100.5332
127.6328,100.4951
127.6328,100.4950
127.6328,100.4950
127.8614,100.1803
128.0104,99.8456
142.2446,99.8456
142.2815,100.1019
142.2815,100.1019
142.3891,100.3374
142.3891,100.3375
142.3891,100.3375
142.5586,100.5332
142.5586,100.5332
142.5586,100.5332
142.7765,100.6731
142.7765,100.6731
143.0249,100.7461
143.0249,100.7461
143.2839,100.7461
143.5323,100.6731
143.5323,100.6731
143.7576,100.5284
143.7599,100.5319
143.8365,100.5063
143.9214,100.5488
143.9401,100.5776
144.0105,100.7286
144.1726,100.8907
144.3803,100.9875
144.3803,100.9875
144.4750,101.0000
144.4750,101.0000
144.8136,101.0000
144.8136,99.2245
144.8500,99.1368
144.9376,99.1005
145.6524,99.1005
145.6524,99.1005
145.7471,99.0880
145.9110,99.0116
145.9634,99.0000
146.4389,99.0000
146.4913,99.0116
146.6552,99.0880
146.6552,99.0880
146.6734,99.0904
146.7499,99.1005
146.7499,99.1005
147.4646,99.1005
147.5523,99.1368
147.5886,99.2245
147.5886,99.2755
147.5523,99.3632
147.4646,99.3995
146.7499,99.3995
146.7499,99.3995
146.7499,99.3995
146.6552,99.4120
146.6552,99.4120
146.4913,99.4884
146.4389,99.5000
145.3136,99.5000
145.3136,101.0000
145.6523,101.0000
145.6523,101.0000
145.7470,100.9875
145.9547,100.8907
146.1131,100.7323
146.2008,100.6960
146.2885,100.7323
146.4473,100.8911
146.6541,100.9875
146.6552,100.9880
146.6552,100.9880
146.6734,100.9904
146.7499,101.0005
146.7499,101.0005
146.7540,101.0008
146.7539,101.0023
146.8372,101.0368
146.8735,101.1245
146.8735,103.5271
146.8432,103.6083
146.8394,103.6127
146.8087,103.6481
146.8087,103.6481
146.7011,103.8837
146.6642,104.1400
146.7011,104.3963
146.7011,104.3963
146.8087,104.6318
146.8087,104.6319
146.8087,104.6319
146.9782,104.8276
146.9782,104.8276
146.9782,104.8276
147.1961,104.9675
147.1961,104.9675
147.4445,105.0405
147.4445,105.0405
147.7035,105.0405
147.9519,104.9675
148.1698,104.8276
148.3393,104.6319
148.4469,104.3963
148.4838,104.1400
148.4469,103.8837
148.3393,103.6481
148.3048,103.6083
148.2745,103.5271
148.2745,102.0134
148.3108,101.9257
148.3985,101.8894
148.4862,101.9257
148.5113,101.9619
148.5707,102.0918
148.5707,102.0918
148.5707,102.0918
148.7402,102.2875
148.7402,102.2875
148.7402,102.2875
148.9581,102.4275
148.9581,102.4275
149.2065,102.5005
149.2065,102.5005
149.4655,102.5005
149.7139,102.4275
149.7579,102.3993
149.9318,102.2875
149.9318,102.2875
149.9318,102.2875
150.1013,102.0918
150.2089,101.8563
150.2458,101.6000
150.2089,101.3437
150.2089,101.3437
150.1013,101.1081
150.1013,101.1081
150.1013,101.1081
150.0168,101.0106
149.9865,100.9294
149.9865,99.4445
164.3995,99.4445
164.4113,99.5000
164.4804,99.8250
164.4804,99.8250
164.5466,99.9738
164.6037,100.1019
164.6386,100.1803
164.6386,100.1803
164.8672,100.4950
164.8672,100.4951
165.0025,100.6168
165.1563,100.7553
165.4932,100.9498
165.8631,101.0700
166.1530,101.1005
166.1530,101.1005
166.3470,101.1005
166.3470,101.1005
166.6369,101.0700
167.0068,100.9498
167.3437,100.7553
167.5904,100.5332
167.6328,100.4951
167.6328,100.4950
167.6328,100.4950
167.8614,100.1803
168.0196,99.8250
168.1005,99.4445
168.1005,99.0555
168.0196,98.6750
167.8614,98.3197
167.8614,98.3196
167.8614,98.3196
167.6328,98.0050
167.6328,98.0049
167.4092,97.8037
167.3437,97.7447
167.0068,97.5502
167.0068,97.5502
167.0068,97.5502
166.6369,97.4300
166.5885,97.4249
166.3470,97.3995
166.1530,97.3995
165.9460,97.4213
165.8631,97.4300
165.4932,97.5502
165.1563,97.7447
164.8672,98.0049
164.8672,98.0050
164.6386,98.3196
164.6386,98.3197
164.6386,98.3197
164.5898,98.4293
164.4804,98.6750
164.4138,98.9880
164.3995,99.0555
164.3995,99.4445
149.9865,99.4445
149.9865,99.2021
149.9867,99.1967
149.9940,99.1134
149.9906,99.1005
149.9724,99.0327
149.9712,99.0274
149.9567,98.9451
149.9515,98.9360
149.9503,98.9340
149.9379,98.9041
149.9346,98.8918
149.8867,98.8234
149.8838,98.8188
149.8420,98.7464
149.8420,98.7464
149.8420,98.7464
149.7780,98.6927
149.7740,98.6890
148.9470,97.8620
148.9433,97.8580
148.9122,97.8210
148.8896,97.7940
148.8896,97.7940
148.8896,97.7940
148.8896,97.7940
148.8172,97.7522
148.8126,97.7493
148.7442,97.7014
148.7442,97.7014
148.7442,97.7013
148.7318,97.6981
148.7019,97.6857
148.6909,97.6793
148.6086,97.6648
148.6033,97.6636
148.5226,97.6420
148.4527,97.6481
148.4393,97.6493
148.4339,97.6495
148.3219,97.6495
148.2389,97.6151
148.2389,97.6151
148.2387,97.6150
148.2343,97.6132
148.2300,97.6089
148.0221,97.5120
148.0221,97.5120
147.9274,97.4995
147.9274,97.4995
147.9274,97.4995
146.7499,97.4995
146.7499,97.4995
146.7499,97.4995
146.6552,97.5120
146.6552,97.5120
146.4473,97.6089
146.2888,97.7674
146.2011,97.8037
146.1135,97.7674
145.9550,97.6089
145.7471,97.5120
145.7471,97.5120
145.6524,97.4995
145.6524,97.4995
145.6524,97.4995
144.4749,97.4995
144.4749,97.4995
144.4749,97.4995
144.3802,97.5120
144.3802,97.5120
144.1723,97.6089
144.1680,97.6132
144.1635,97.6150
144.1634,97.6151
144.1634,97.6151
144.0803,97.6495
143.7931,97.6495
143.7877,97.6493
143.7665,97.6474
143.7044,97.6420
143.7044,97.6420
143.6237,97.6636
143.6184,97.6648
143.5361,97.6793
143.5250,97.6857
143.4951,97.6981
143.4828,97.7013
143.4144,97.7493
143.4098,97.7522
143.3374,97.7940
143.2837,97.8580
143.2800,97.8620
142.7164,98.4256
142.7124,98.4293
142.6484,98.4830
142.6484,98.4830
142.6066,98.5554
142.6037,98.5600
142.5558,98.6284
142.5557,98.6284
142.5525,98.6408
142.5401,98.6706
142.5337,98.6817
142.5192,98.7640
142.5180,98.7693
142.4964,98.8500
142.5037,98.9333
142.5039,98.9387
142.5039,99.1750
142.4736,99.2562
142.3891,99.3537
142.3891,99.3537
142.2815,99.5893
142.2815,99.5893
142.2446,99.8456
128.0104,99.8456
128.0196,99.8250
128.1005,99.4445
128.1005,99.0555
128.0196,98.6750
127.8614,98.3197
127.8614,98.3196
127.8614,98.3196
127.6328,98.0050
127.6328,98.0049
127.4092,97.8037
127.3437,97.7447
127.0068,97.5502
127.0068,97.5502
127.0068,97.5502
126.6369,97.4300
126.5885,97.4249
126.3470,97.3995
126.1530,97.3995
125.9460,97.4213
125.8631,97.4300
125.4932,97.5502
125.1563,97.7447
124.8672,98.0049
124.8672,98.0050
124.6386,98.3196
124.6386,98.3197
124.6386,98.3197
124.5898,98.4293
124.4804,98.6750
124.4138,98.9880
124.3995,99.0555
124.3995,99.4445
102.6005,99.4445
102.6005,99.0555
102.5196,98.6750
102.3614,98.3197
102.3614,98.3196
102.3614,98.3196
102.1328,98.0050
102.1328,98.0049
101.9092,97.8037
101.8437,97.7447
101.5068,97.5502
101.5068,97.5502
101.5068,97.5502
101.1369,97.4300
101.0885,97.4249
100.8470,97.3995
100.6530,97.3995
100.4460,97.4213
100.3631,97.4300
99.9932,97.5502
99.6563,97.7447
99.3672,98.0049
99.3672,98.0050
99.1386,98.3196
99.1386,98.3197
99.1386,98.3197
99.0898,98.4293
98.9804,98.6750
98.9138,98.9880
98.8995,99.0555
98.8995,99.4445
96.2538,99.4445
96.2500,99.2500
96.2899,97.2203
96.4094,95.1937
96.6084,93.1734
96.8865,91.1624
97.2434,89.1639
97.4462,88.2397
122.7495,88.2397
122.7785,88.3857
122.8523,88.4961
122.8892,88.5512
123.0547,88.6619
123.0547,88.6619
123.0547,88.6619
123.1277,88.6764
123.2007,88.6909
124.7993,88.6909
124.9453,88.6619
124.9453,88.6619
124.9453,88.6619
124.9731,88.6433
125.1108,88.5512
125.2215,88.3857
125.2505,88.2397
125.2505,88.2397
128.1495,88.2397
128.1785,88.3857
128.2523,88.4961
128.2892,88.5512
128.4547,88.6619
128.4547,88.6619
128.4547,88.6619
128.5277,88.6764
128.6007,88.6909
130.1993,88.6909
130.3453,88.6619
130.3453,88.6619
130.3453,88.6619
130.3731,88.6433
130.5108,88.5512
130.6215,88.3857
130.6505,88.2397
130.6505,86.6411
130.6215,86.4951
130.6215,86.4951
130.6215,86.4951
130.5660,86.4121
130.5108,86.3296
130.3453,86.2189
130.3453,86.2189
130.3453,86.2189
130.2363,86.1973
130.1574,86.1445
130.1365,86.0756
130.1365,82.1176
130.1728,82.0300
130.2624,81.9404
130.3610,81.8418
130.3816,81.8252
130.5146,81.7397
156.7495,81.7397
156.7785,81.8857
156.8151,81.9404
156.8892,82.0512
157.0547,82.1619
157.0547,82.1619
157.0547,82.1619
157.1277,82.1764
157.2007,82.1909
158.7993,82.1909
158.9453,82.1619
158.9453,82.1619
158.9453,82.1619
158.9731,82.1433
159.1108,82.0512
159.2215,81.8857
159.2390,81.7975
159.2917,81.7186
159.3606,81.6977
160.0375,81.6977
160.0375,81.6977
160.0927,81.6798
160.1116,81.6752
160.1689,81.6662
160.2206,81.6398
160.2386,81.6324
160.2937,81.6144
160.3407,81.5803
160.3573,81.5702
160.4089,81.5438
160.5994,81.3533
160.5994,81.3533
160.6169,81.3359
160.6169,81.3359
161.1110,80.8418
161.1316,80.8252
161.3458,80.6876
161.5153,80.4919
161.6229,80.2563
161.6598,80.0000
161.6229,79.7437
161.5983,79.6899
161.5153,79.5082
161.5153,79.5081
161.5153,79.5081
161.3458,79.3124
161.3458,79.3124
161.3458,79.3124
161.1279,79.1725
161.1279,79.1725
160.8795,79.0995
160.8795,79.0995
160.6205,79.0995
160.6205,79.0995
160.3721,79.1725
160.3721,79.1725
160.1542,79.3124
160.1542,79.3124
159.9847,79.5081
159.9482,79.5879
159.9231,79.6241
159.5868,79.9604
159.4992,79.9967
159.2888,79.9967
159.2011,79.9604
159.1857,79.9416
159.1108,79.8296
159.0978,79.8208
158.9453,79.7189
158.9453,79.7189
158.9453,79.7189
158.7993,79.6899
157.2007,79.6899
157.0547,79.7189
156.8892,79.8296
156.7785,79.9951
156.7785,79.9951
156.7495,80.1411
156.7495,81.7397
130.5146,81.7397
130.5958,81.6876
130.7653,81.4919
130.8729,81.2563
130.9098,81.0000
130.8729,80.7437
130.8473,80.6876
130.7653,80.5082
130.7653,80.5081
130.7653,80.5081
130.5958,80.3124
130.5958,80.3124
130.5958,80.3124
130.3779,80.1725
130.3779,80.1725
130.1295,80.0995
130.1295,80.0995
129.8705,80.0995
129.8705,80.0995
129.6221,80.1725
129.6221,80.1725
129.4042,80.3124
129.4042,80.3124
129.2347,80.5081
129.1982,80.5879
129.1731,80.6241
128.7799,81.0174
128.7799,81.0174
128.5894,81.2079
128.5630,81.2595
128.5529,81.2761
128.5188,81.3231
128.5188,81.3231
128.5146,81.3359
128.5008,81.3782
128.4934,81.3962
128.4670,81.4479
128.4580,81.5052
128.4534,81.5241
128.4355,81.5793
128.4355,81.5793
128.4355,86.1655
128.3992,86.2532
128.3804,86.2686
128.2892,86.3296
128.1785,86.4951
128.1785,86.4951
128.1495,86.6411
128.1495,88.2397
125.2505,88.2397
125.2505,87.4440
125.2868,87.3564
127.3947,85.2485
127.4426,85.2005
127.4690,85.1488
127.4791,85.1323
127.5132,85.0853
127.5312,85.0302
127.5386,85.0122
127.5650,84.9605
127.5740,84.9032
127.5786,84.8843
127.5965,84.8291
127.5965,84.8291
127.5965,82.2727
127.6077,82.2212
127.6189,82.1967
127.6558,81.9404
127.6189,81.6841
127.6189,81.6841
127.5113,81.4485
127.5113,81.4485
127.5113,81.4485
127.3418,81.2528
127.3418,81.2528
127.3418,81.2528
127.1239,81.1129
127.1239,81.1129
126.8755,81.0399
126.8755,81.0399
126.6165,81.0399
126.6165,81.0399
126.3681,81.1129
126.3681,81.1129
126.1502,81.2528
126.1502,81.2528
126.1502,81.2528
126.1502,81.2528
126.1369,81.2682
125.9807,81.4485
125.9807,81.4485
125.8731,81.6841
125.8731,81.6841
125.8362,81.9404
125.8731,82.1967
125.8731,82.1967
125.8843,82.2212
125.8955,82.2727
125.8955,84.2907
125.8592,84.3784
124.0840,86.1536
123.9963,86.1899
123.2007,86.1899
123.0547,86.2189
122.8892,86.3296
122.7785,86.4951
122.7785,86.4951
122.7495,86.6411
122.7495,88.2397
97.4462,88.2397
97.6785,87.1810
98.1910,85.2167
98.7804,83.2740
99.4455,81.3559
100.1854,79.4655
100.1964,79.4403
144.3585,79.4403
144.3729,79.5081
144.4393,79.8208
144.4393,79.8208
144.5401,80.0472
144.5959,80.1725
144.5975,80.1762
144.5975,80.1762
144.8262,80.4909
144.8262,80.4909
144.9340,80.5879
145.1153,80.7512
145.4521,80.9457
145.8221,81.0659
146.1120,81.0963
146.1120,81.0963
146.3059,81.0963
146.3059,81.0963
146.5958,81.0659
146.9658,80.9457
147.3026,80.7512
147.5291,80.5473
147.5917,80.4909
147.5917,80.4909
147.5917,80.4909
147.8204,80.1762
147.9786,79.8208
148.0595,79.4403
148.0595,79.0514
147.9786,78.6709
147.8204,78.3155
147.8204,78.3155
147.8204,78.3155
147.5917,78.0008
147.5917,78.0008
147.4033,77.8312
147.3026,77.7405
146.9658,77.5460
146.9658,77.5460
146.9658,77.5460
146.5958,77.4258
146.5475,77.4207
146.3059,77.3953
146.1120,77.3953
145.9049,77.4171
145.8221,77.4258
145.4521,77.5460
145.1153,77.7405
144.8262,78.0008
144.8262,78.0008
144.5975,78.3155
144.4393,78.6709
144.3585,79.0514
144.3585,79.4403
100.1964,79.4403
100.9990,77.6055
101.2249,77.1397
156.7495,77.1397
156.7785,77.2857
156.8518,77.3953
156.8892,77.4512
157.0547,77.5619
157.0547,77.5619
157.0547,77.5619
157.1277,77.5764
157.2007,77.5909
158.7993,77.5909
158.9453,77.5619
158.9453,77.5619
158.9453,77.5619
158.9731,77.5433
159.1108,77.4512
159.2215,77.2857
159.2215,77.2857
159.2261,77.2744
159.2302,77.2761
159.2732,77.2118
159.3421,77.1909
160.9964,77.1909
161.0840,77.2272
162.1132,78.2564
162.1495,78.3440
162.1495,80.1676
162.1383,80.2192
162.1271,80.2437
162.1271,80.2437
162.0902,80.5000
162.1271,80.7563
162.1271,80.7563
162.2347,80.9918
162.2347,80.9919
162.2347,80.9919
162.4042,81.1876
162.4042,81.1876
162.4042,81.1876
162.6221,81.3275
162.6221,81.3275
162.8705,81.4005
162.8705,81.4005
163.1295,81.4005
163.3779,81.3275
163.3849,81.3231
163.5958,81.1876
163.5958,81.1876
163.5958,81.1876
163.7653,80.9919
163.8729,80.7563
163.9098,80.5000
163.8729,80.2437
163.8729,80.2437
163.8729,80.2437
163.8617,80.2192
163.8505,80.1676
163.8505,77.8057
163.8326,77.7505
163.8280,77.7316
163.8190,77.6743
163.8190,77.6743
163.8190,77.6743
163.7926,77.6226
163.7852,77.6046
163.7672,77.5495
163.7331,77.5025
163.7230,77.4859
163.6966,77.4343
163.5061,77.2438
163.5061,77.2438
162.1141,75.8517
161.9061,75.6438
161.9061,75.6438
161.9061,75.6438
161.9036,75.6425
161.8545,75.6174
161.8379,75.6073
161.7909,75.5732
161.7358,75.5552
161.7178,75.5478
161.6661,75.5214
161.6661,75.5214
161.6088,75.5124
161.5899,75.5078
161.5347,75.4899
161.5347,75.4899
161.5347,75.4899
161.5347,75.4899
159.3421,75.4899
159.2544,75.4536
159.2286,75.4054
159.2261,75.4064
159.2215,75.3951
159.1772,75.3288
159.1108,75.2296
158.9453,75.1189
158.9453,75.1189
158.9453,75.1189
158.7993,75.0899
157.2007,75.0899
157.0547,75.1189
156.8892,75.2296
156.7785,75.3951
156.7785,75.3951
156.7495,75.5411
156.7495,77.1397
101.2249,77.1397
101.8849,75.7789
102.8419,73.9885
103.8684,72.2371
104.5358,71.1945
116.1495,71.1945
116.2304,71.5750
116.2304,71.5750
116.3886,71.9303
116.3886,71.9303
116.6172,72.2450
116.6172,72.2451
116.7931,72.4034
116.9063,72.5053
117.2432,72.6998
117.6131,72.8200
117.9030,72.8505
117.9030,72.8505
118.0970,72.8505
118.0970,72.8505
118.3869,72.8200
118.7568,72.6998
119.0937,72.5053
119.3201,72.3014
119.3828,72.2451
119.3828,72.2450
119.3828,72.2450
119.6114,71.9303
119.7696,71.5750
119.8505,71.1945
119.8505,71.1945
172.6495,71.1945
172.7304,71.5750
172.7304,71.5750
172.8886,71.9303
172.8886,71.9303
173.1172,72.2450
173.1172,72.2451
173.2931,72.4034
173.4063,72.5053
173.7432,72.6998
174.1131,72.8200
174.4030,72.8505
174.4030,72.8505
174.5970,72.8505
174.5970,72.8505
174.8869,72.8200
175.2568,72.6998
175.5937,72.5053
175.8201,72.3014
175.8828,72.2451
175.8828,72.2450
175.8828,72.2450
176.1114,71.9303
176.2696,71.5750
176.3505,71.1945
176.3505,70.8055
176.2696,70.4250
176.1114,70.0697
176.1114,70.0696
176.1114,70.0696
175.8828,69.7550
175.8828,69.7549
175.6944,69.5853
175.5937,69.4947
175.2568,69.3002
175.2568,69.3002
175.2568,69.3002
174.8869,69.1800
174.8385,69.1749
174.5970,69.1495
174.4030,69.1495
174.1960,69.1713
174.1131,69.1800
173.7432,69.3002
173.4063,69.4947
173.1172,69.7549
173.1172,69.7550
172.8886,70.0696
172.7304,70.4250
172.6495,70.8055
172.6495,71.1945
119.8505,71.1945
119.8505,70.8055
119.7696,70.4250
119.6114,70.0697
119.6114,70.0696
119.6114,70.0696
119.3828,69.7550
119.3828,69.7549
119.1944,69.5853
119.0937,69.4947
118.7568,69.3002
118.7568,69.3002
118.7568,69.3002
118.3869,69.1800
118.3385,69.1749
118.0970,69.1495
117.9030,69.1495
117.6960,69.1713
117.6131,69.1800
117.2432,69.3002
116.9063,69.4947
116.6172,69.7549
116.6172,69.7550
116.3886,70.0696
116.2304,70.4250
116.1495,70.8055
116.1495,71.1945
104.5358,71.1945
104.9629,70.5273
106.1237,68.8618
106.3976,68.5000
148.0902,68.5000
148.1271,68.7563
148.1271,68.7563
148.2347,68.9918
148.2347,68.9919
148.2347,68.9919
148.4042,69.1876
148.4042,69.1876
148.4042,69.1876
148.6221,69.3275
148.6221,69.3275
148.8705,69.4005
148.8705,69.4005
149.1295,69.4005
149.3779,69.3275
149.4205,69.3002
149.5958,69.1876
149.5958,69.1876
149.5958,69.1876
149.7653,68.9919
149.8247,68.8618
149.8729,68.7563
149.8729,68.7563
149.8729,68.7563
149.8903,68.6353
149.9254,68.5653
155.5544,62.9363
155.6244,62.9012
155.6295,62.9005
155.6295,62.9005
155.8779,62.8275
156.0958,62.6876
156.2653,62.4919
156.3729,62.2563
156.4098,62.0000
156.3729,61.7437
156.3729,61.7437
156.2653,61.5082
156.2653,61.5081
156.2653,61.5081
156.0958,61.3124
156.0958,61.3124
156.0958,61.3124
155.8779,61.1725
155.8779,61.1725
155.6295,61.0995
155.6295,61.0995
155.3705,61.0995
155.3705,61.0995
155.1221,61.1725
155.1221,61.1725
154.9042,61.3124
154.9042,61.3124
154.7347,61.5081
154.7347,61.5082
154.6271,61.7437
154.6097,61.8647
154.5746,61.9347
148.9456,67.5637
148.8756,67.5988
148.8705,67.5995
148.6221,67.6725
148.6221,67.6725
148.4042,67.8124
148.4042,67.8124
148.2347,68.0081
148.2347,68.0082
148.1271,68.2437
148.1271,68.2437
148.0902,68.5000
106.3976,68.5000
107.3490,67.2432
108.6369,65.6739
109.9854,64.1563
111.3924,62.6929
112.8558,61.2859
114.3734,59.9374
115.9427,58.6495
117.2043,57.6945
127.1495,57.6945
127.2304,58.0750
127.2304,58.0750
127.3886,58.4303
127.3886,58.4303
127.6172,58.7450
127.6172,58.7451
127.7931,58.9034
127.9063,59.0053
128.2432,59.1998
128.6131,59.3200
128.9030,59.3505
128.9030,59.3505
129.0970,59.3505
129.0970,59.3505
129.3869,59.3200
129.7568,59.1998
130.0937,59.0053
130.3201,58.8014
130.3828,58.7451
130.3828,58.7450
130.3828,58.7450
130.6114,58.4303
130.7696,58.0750
130.8505,57.6945
130.8505,57.6945
161.6495,57.6945
161.7304,58.0750
161.7304,58.0750
161.8886,58.4303
161.8886,58.4303
162.1172,58.7450
162.1172,58.7451
162.2931,58.9034
162.4063,59.0053
162.7432,59.1998
163.1131,59.3200
163.4030,59.3505
163.4030,59.3505
163.5970,59.3505
163.5970,59.3505
163.8869,59.3200
164.2568,59.1998
164.5937,59.0053
164.8201,58.8014
164.8828,58.7451
164.8828,58.7450
164.8828,58.7450
165.1114,58.4303
165.2696,58.0750
165.3505,57.6945
165.3505,57.3055
165.2696,56.9250
165.1114,56.5697
165.1114,56.5696
165.1114,56.5696
164.8828,56.2550
164.8828,56.2549
164.6944,56.0853
164.5937,55.9947
164.2568,55.8002
164.2568,55.8002
164.2568,55.8002
163.8869,55.6800
163.8385,55.6749
163.5970,55.6495
163.4030,55.6495
163.1960,55.6713
163.1131,55.6800
162.7432,55.8002
162.4063,55.9947
162.1172,56.2549
162.1172,56.2550
161.8886,56.5696
161.7304,56.9250
161.6495,57.3055
161.6495,57.6945
130.8505,57.6945
130.8505,57.3055
130.7696,56.9250
130.6114,56.5697
130.6114,56.5696
130.6114,56.5696
130.3828,56.2550
130.3828,56.2549
130.1944,56.0853
130.0937,55.9947
129.7568,55.8002
129.7568,55.8002
129.7568,55.8002
129.3869,55.6800
129.3385,55.6749
129.0970,55.6495
128.9030,55.6495
128.6960,55.6713
128.6131,55.6800
128.2432,55.8002
127.9063,55.9947
127.6172,56.2549
127.6172,56.2550
127.3886,56.5696
127.2304,56.9250
127.1495,57.3055
127.1495,57.6945
117.2043,57.6945
117.5613,57.4242
119.2268,56.2634
120.9366,55.1689
122.6880,54.1424
124.4784,53.1854
126.3050,52.2995
126.7133,52.1209
144.5420,52.1209
144.5619,52.4362
144.5619,52.4362
144.6595,52.7367
144.6595,52.7367
144.8288,53.0034
144.8288,53.0034
144.8288,53.0034
145.0591,53.2197
145.0591,53.2197
145.3360,53.3719
145.3360,53.3719
145.6420,53.4505
145.6420,53.4505
145.8787,53.4505
145.8787,53.4505
145.8787,53.4505
145.8787,53.4505
145.9041,53.4473
146.1135,53.4208
146.4072,53.3045
146.6628,53.1188
146.8642,52.8754
146.9987,52.5895
147.0580,52.2791
147.0381,51.9638
146.9405,51.6633
146.7712,51.3966
146.7712,51.3966
146.5409,51.1803
146.5409,51.1803
146.2640,51.0281
146.2640,51.0281
145.9580,50.9495
145.9580,50.9495
145.7213,50.9495
145.7213,50.9495
145.4865,50.9792
145.4865,50.9792
145.1928,51.0955
145.1928,51.0955
144.9372,51.2812
144.7358,51.5246
144.6012,51.8105
144.5720,51.9638
144.5420,52.1209
144.5420,52.1209
144.5420,52.1209
126.7133,52.1209
128.1650,51.4859
130.0554,50.7460
131.9735,50.0809
133.9162,49.4915
135.8805,48.9790
137.8634,48.5439
139.8619,48.1870
141.8729,47.9089
143.8932,47.7099
145.9198,47.5904
147.9495,47.5505
Z" /> 
</g>
</g>
</g> 
</svg>
