%TF.GenerationSoftware,KiCad,Pcbnew,7.0.9*%
%TF.CreationDate,2024-01-26T12:36:02+01:00*%
%TF.ProjectId,maglev26,6d61676c-6576-4323-962e-6b696361645f,1.0*%
%TF.SameCoordinates,Original*%
%TF.FileFunction,Copper,L2,Bot*%
%TF.FilePolarity,Positive*%
%FSLAX46Y46*%
G04 Gerber Fmt 4.6, Leading zero omitted, Abs format (unit mm)*
G04 Created by KiCad (PCBNEW 7.0.9) date 2024-01-26 12:36:02*
%MOMM*%
%LPD*%
G01*
G04 APERTURE LIST*
G04 Aperture macros list*
%AMRoundRect*
0 Rectangle with rounded corners*
0 $1 Rounding radius*
0 $2 $3 $4 $5 $6 $7 $8 $9 X,Y pos of 4 corners*
0 Add a 4 corners polygon primitive as box body*
4,1,4,$2,$3,$4,$5,$6,$7,$8,$9,$2,$3,0*
0 Add four circle primitives for the rounded corners*
1,1,$1+$1,$2,$3*
1,1,$1+$1,$4,$5*
1,1,$1+$1,$6,$7*
1,1,$1+$1,$8,$9*
0 Add four rect primitives between the rounded corners*
20,1,$1+$1,$2,$3,$4,$5,0*
20,1,$1+$1,$4,$5,$6,$7,0*
20,1,$1+$1,$6,$7,$8,$9,0*
20,1,$1+$1,$8,$9,$2,$3,0*%
G04 Aperture macros list end*
%TA.AperFunction,SMDPad,CuDef*%
%ADD10RoundRect,0.250000X-0.250000X-0.475000X0.250000X-0.475000X0.250000X0.475000X-0.250000X0.475000X0*%
%TD*%
%TA.AperFunction,SMDPad,CuDef*%
%ADD11RoundRect,0.250000X-0.450000X0.262500X-0.450000X-0.262500X0.450000X-0.262500X0.450000X0.262500X0*%
%TD*%
%TA.AperFunction,SMDPad,CuDef*%
%ADD12RoundRect,0.250000X-0.550000X1.500000X-0.550000X-1.500000X0.550000X-1.500000X0.550000X1.500000X0*%
%TD*%
%TA.AperFunction,SMDPad,CuDef*%
%ADD13C,1.500000*%
%TD*%
%TA.AperFunction,SMDPad,CuDef*%
%ADD14RoundRect,0.250000X-0.625000X0.400000X-0.625000X-0.400000X0.625000X-0.400000X0.625000X0.400000X0*%
%TD*%
%TA.AperFunction,SMDPad,CuDef*%
%ADD15RoundRect,0.225000X-0.225000X-0.250000X0.225000X-0.250000X0.225000X0.250000X-0.225000X0.250000X0*%
%TD*%
%TA.AperFunction,SMDPad,CuDef*%
%ADD16RoundRect,0.150000X0.150000X-0.825000X0.150000X0.825000X-0.150000X0.825000X-0.150000X-0.825000X0*%
%TD*%
%TA.AperFunction,SMDPad,CuDef*%
%ADD17R,3.300000X2.410000*%
%TD*%
%TA.AperFunction,SMDPad,CuDef*%
%ADD18RoundRect,0.225000X0.225000X0.250000X-0.225000X0.250000X-0.225000X-0.250000X0.225000X-0.250000X0*%
%TD*%
%TA.AperFunction,SMDPad,CuDef*%
%ADD19R,1.500000X2.000000*%
%TD*%
%TA.AperFunction,SMDPad,CuDef*%
%ADD20R,3.800000X2.000000*%
%TD*%
%TA.AperFunction,SMDPad,CuDef*%
%ADD21RoundRect,0.250000X-1.500000X-0.550000X1.500000X-0.550000X1.500000X0.550000X-1.500000X0.550000X0*%
%TD*%
%TA.AperFunction,SMDPad,CuDef*%
%ADD22R,1.900000X1.000000*%
%TD*%
%TA.AperFunction,SMDPad,CuDef*%
%ADD23RoundRect,0.250000X0.250000X0.475000X-0.250000X0.475000X-0.250000X-0.475000X0.250000X-0.475000X0*%
%TD*%
%TA.AperFunction,SMDPad,CuDef*%
%ADD24R,3.300000X4.400000*%
%TD*%
%TA.AperFunction,SMDPad,CuDef*%
%ADD25R,3.900000X6.200000*%
%TD*%
%TA.AperFunction,SMDPad,CuDef*%
%ADD26RoundRect,0.225000X-0.250000X0.225000X-0.250000X-0.225000X0.250000X-0.225000X0.250000X0.225000X0*%
%TD*%
%TA.AperFunction,SMDPad,CuDef*%
%ADD27RoundRect,0.250000X0.450000X-0.262500X0.450000X0.262500X-0.450000X0.262500X-0.450000X-0.262500X0*%
%TD*%
%TA.AperFunction,SMDPad,CuDef*%
%ADD28RoundRect,0.250000X0.400000X0.625000X-0.400000X0.625000X-0.400000X-0.625000X0.400000X-0.625000X0*%
%TD*%
%TA.AperFunction,ViaPad*%
%ADD29C,0.800000*%
%TD*%
%TA.AperFunction,Conductor*%
%ADD30C,0.400000*%
%TD*%
%TA.AperFunction,Conductor*%
%ADD31C,0.300000*%
%TD*%
%TA.AperFunction,Conductor*%
%ADD32C,0.700000*%
%TD*%
%TA.AperFunction,Conductor*%
%ADD33C,0.500000*%
%TD*%
%TA.AperFunction,Conductor*%
%ADD34C,0.250000*%
%TD*%
%TA.AperFunction,Conductor*%
%ADD35C,1.400000*%
%TD*%
%TA.AperFunction,Conductor*%
%ADD36C,1.000000*%
%TD*%
G04 APERTURE END LIST*
D10*
X139020000Y-70930400D03*
X140920000Y-70930400D03*
D11*
X148336000Y-94210500D03*
X148336000Y-96035500D03*
D12*
X172700000Y-83370400D03*
X172700000Y-88770400D03*
D13*
X144500000Y-149000000D03*
D14*
X179451000Y-110434000D03*
X179451000Y-113534000D03*
D15*
X163766200Y-121412000D03*
X165316200Y-121412000D03*
D10*
X134380000Y-70900400D03*
X136280000Y-70900400D03*
D16*
X132969000Y-134971000D03*
X131699000Y-134971000D03*
X130429000Y-134971000D03*
X129159000Y-134971000D03*
X129159000Y-130021000D03*
X130429000Y-130021000D03*
X131699000Y-130021000D03*
X132969000Y-130021000D03*
D17*
X131064000Y-132496000D03*
D16*
X129222000Y-88927000D03*
X127952000Y-88927000D03*
X126682000Y-88927000D03*
X125412000Y-88927000D03*
X125412000Y-83977000D03*
X126682000Y-83977000D03*
X127952000Y-83977000D03*
X129222000Y-83977000D03*
D17*
X127317000Y-86452000D03*
D13*
X131000000Y-75500000D03*
D18*
X146063000Y-102108000D03*
X144513000Y-102108000D03*
D12*
X118810000Y-83670400D03*
X118810000Y-89070400D03*
X184540000Y-108260400D03*
X184540000Y-113660400D03*
D19*
X134290000Y-73780400D03*
X136590000Y-73780400D03*
D20*
X136590000Y-80080400D03*
D19*
X138890000Y-73780400D03*
D21*
X121630000Y-121360400D03*
X127030000Y-121360400D03*
D22*
X152520000Y-144517150D03*
X155820000Y-141977150D03*
X152520000Y-139437150D03*
X155820000Y-136897150D03*
X152520000Y-134357150D03*
X155820000Y-131817150D03*
X152520000Y-129277150D03*
X155820000Y-126737150D03*
X152520000Y-124197150D03*
X155820000Y-121657150D03*
X152520000Y-119117150D03*
X155820000Y-116577150D03*
X152520000Y-114037150D03*
X155820000Y-111497150D03*
X152520000Y-108957150D03*
X155820000Y-106417150D03*
X152520000Y-103877150D03*
X155820000Y-101337150D03*
X152520000Y-98797150D03*
X155820000Y-96257150D03*
X152520000Y-93717150D03*
X155820000Y-91177150D03*
X152520000Y-88637150D03*
X155820000Y-86097150D03*
D13*
X161000000Y-75500000D03*
X133858000Y-60000000D03*
X148000000Y-149000000D03*
D14*
X131572000Y-83597000D03*
X131572000Y-86697000D03*
D23*
X159750000Y-70570400D03*
X157850000Y-70570400D03*
D24*
X146500000Y-65000000D03*
D25*
X139350000Y-56000000D03*
X152250000Y-56000000D03*
D16*
X163220000Y-87935400D03*
X161950000Y-87935400D03*
X160680000Y-87935400D03*
X159410000Y-87935400D03*
X159410000Y-82985400D03*
X160680000Y-82985400D03*
X161950000Y-82985400D03*
X163220000Y-82985400D03*
D17*
X161315000Y-85460400D03*
D26*
X127000000Y-129781000D03*
X127000000Y-131331000D03*
D14*
X165570000Y-83945400D03*
X165570000Y-87045400D03*
D19*
X153210000Y-73240400D03*
X155510000Y-73240400D03*
D20*
X155510000Y-79540400D03*
D19*
X157810000Y-73240400D03*
D27*
X144145000Y-96035500D03*
X144145000Y-94210500D03*
D16*
X177356000Y-115159000D03*
X176086000Y-115159000D03*
X174816000Y-115159000D03*
X173546000Y-115159000D03*
X173546000Y-110209000D03*
X174816000Y-110209000D03*
X176086000Y-110209000D03*
X177356000Y-110209000D03*
D17*
X175451000Y-112684000D03*
D26*
X132969000Y-117221000D03*
X132969000Y-118771000D03*
D23*
X155130000Y-70580400D03*
X153230000Y-70580400D03*
D26*
X123490000Y-82035400D03*
X123490000Y-83585400D03*
D22*
X137280000Y-144517150D03*
X140580000Y-141977150D03*
X137280000Y-139437150D03*
X140580000Y-136897150D03*
X137280000Y-134357150D03*
X140580000Y-131817150D03*
X137280000Y-129277150D03*
X140580000Y-126737150D03*
X137280000Y-124197150D03*
X140580000Y-121657150D03*
X137280000Y-119117150D03*
X140580000Y-116577150D03*
X137280000Y-114037150D03*
X140580000Y-111497150D03*
X137280000Y-108957150D03*
X140580000Y-106417150D03*
X137280000Y-103877150D03*
X140580000Y-101337150D03*
X137280000Y-98797150D03*
X140580000Y-96257150D03*
X137280000Y-93717150D03*
X140580000Y-91177150D03*
X137280000Y-88637150D03*
X140580000Y-86097150D03*
D28*
X132680000Y-125500400D03*
X129580000Y-125500400D03*
D26*
X168110000Y-83450400D03*
X168110000Y-85000400D03*
X180150000Y-105895400D03*
X180150000Y-107445400D03*
D29*
X186900000Y-113740400D03*
X179451000Y-115441400D03*
X170400000Y-88740400D03*
X139400000Y-60940400D03*
X124574002Y-131331000D03*
X133604000Y-68834000D03*
X174900000Y-88740400D03*
X182500000Y-113740400D03*
X161544000Y-72263000D03*
X130048000Y-121412000D03*
X136500000Y-56440400D03*
X117000000Y-89040400D03*
X152500000Y-51940400D03*
X149224998Y-107315000D03*
X153210000Y-68890400D03*
X152500000Y-60940400D03*
X126200000Y-123740400D03*
X144272000Y-104648000D03*
X139400000Y-51940400D03*
X142500000Y-56440400D03*
X132080000Y-115570000D03*
X134620000Y-146050000D03*
X163779200Y-120142000D03*
X149860006Y-141977150D03*
X149500000Y-56440400D03*
X141732000Y-68961000D03*
X120500000Y-89040400D03*
X130500000Y-119888000D03*
X130500000Y-112000000D03*
X134000000Y-109728000D03*
X161000000Y-129940400D03*
X161000000Y-135440400D03*
X165316200Y-120179800D03*
X147574000Y-104140000D03*
X155500000Y-62000000D03*
X149000000Y-68500000D03*
X130429000Y-127787400D03*
X132969000Y-127736600D03*
X126746000Y-81940400D03*
X130000000Y-81000000D03*
X174802800Y-107440400D03*
X177393600Y-107440400D03*
X160750000Y-80000000D03*
X163000000Y-80500000D03*
X144000000Y-133000000D03*
X162749990Y-110750000D03*
X147000000Y-133000000D03*
X162000000Y-113940400D03*
X160680000Y-110760400D03*
X159000000Y-122000000D03*
X160000000Y-114000000D03*
X161000000Y-125000000D03*
X144000000Y-131500000D03*
X147000000Y-131500000D03*
X134000000Y-111506000D03*
X158877000Y-115951000D03*
X149336000Y-101599994D03*
X143154400Y-99845600D03*
X160655000Y-118110000D03*
X135000004Y-113000000D03*
X134500000Y-108203996D03*
D30*
X128165000Y-132496000D02*
X127000000Y-131331000D01*
D31*
X146063000Y-102108000D02*
X146063000Y-103873000D01*
X132969000Y-117221000D02*
X132969000Y-116459000D01*
D30*
X132969000Y-133604000D02*
X131861000Y-132496000D01*
D31*
X153210000Y-73240400D02*
X153210000Y-70600400D01*
D32*
X131064000Y-132496000D02*
X132055600Y-132496000D01*
X179450000Y-115440400D02*
X179451000Y-115441400D01*
D30*
X131861000Y-132496000D02*
X131064000Y-132496000D01*
X131559800Y-132496000D02*
X131064000Y-132496000D01*
X152250000Y-56750000D02*
X152250000Y-56000000D01*
D31*
X134380000Y-70900400D02*
X134380000Y-69610000D01*
X140920000Y-69773000D02*
X141732000Y-68961000D01*
X163220000Y-87935400D02*
X164135400Y-87935400D01*
X165062000Y-88392000D02*
X165570000Y-87884000D01*
X146063000Y-103873000D02*
X145288000Y-104648000D01*
D30*
X163766200Y-121412000D02*
X163766200Y-120155000D01*
D31*
X160486400Y-70570400D02*
X161544000Y-71628000D01*
X165570000Y-87884000D02*
X165570000Y-87045400D01*
X140920000Y-70930400D02*
X140920000Y-69773000D01*
D32*
X131119600Y-132440400D02*
X131064000Y-132496000D01*
D31*
X164135400Y-87935400D02*
X164592000Y-88392000D01*
X134290000Y-70990400D02*
X134380000Y-70900400D01*
X153230000Y-70580400D02*
X153230000Y-68910400D01*
X167462600Y-87045400D02*
X168110000Y-86398000D01*
X153230000Y-68910400D02*
X153210000Y-68890400D01*
D30*
X127000000Y-131331000D02*
X124574002Y-131331000D01*
D31*
X153210000Y-70600400D02*
X153230000Y-70580400D01*
D30*
X131064000Y-132496000D02*
X128165000Y-132496000D01*
D31*
X137280000Y-144517150D02*
X137280000Y-145541075D01*
D33*
X126805400Y-85940400D02*
X127317000Y-86452000D01*
D31*
X137280000Y-145541075D02*
X136771075Y-146050000D01*
X164592000Y-88392000D02*
X165062000Y-88392000D01*
X134380000Y-69610000D02*
X133604000Y-68834000D01*
D30*
X163766200Y-120155000D02*
X163779200Y-120142000D01*
D31*
X136771075Y-146050000D02*
X134620000Y-146050000D01*
X155820000Y-141977150D02*
X149860006Y-141977150D01*
X159750000Y-70570400D02*
X160486400Y-70570400D01*
D30*
X132969000Y-134971000D02*
X132969000Y-133604000D01*
D31*
X134290000Y-73780400D02*
X134290000Y-70990400D01*
X145288000Y-104648000D02*
X144272000Y-104648000D01*
D32*
X134380000Y-70900400D02*
X134320000Y-70840400D01*
D31*
X161544000Y-71628000D02*
X161544000Y-72263000D01*
X132969000Y-116459000D02*
X132080000Y-115570000D01*
X165570000Y-87045400D02*
X167462600Y-87045400D01*
X168110000Y-86398000D02*
X168110000Y-85000400D01*
X178000000Y-105940400D02*
X176500000Y-105940400D01*
X176086000Y-106354400D02*
X176086000Y-110209000D01*
X178500000Y-106440400D02*
X178000000Y-105940400D01*
X179451000Y-109391400D02*
X178500000Y-108440400D01*
X178500000Y-108440400D02*
X178500000Y-106440400D01*
X176500000Y-105940400D02*
X176086000Y-106354400D01*
X179451000Y-110434000D02*
X179451000Y-109391400D01*
X130500000Y-95690400D02*
X126250000Y-91440400D01*
D32*
X155510000Y-79540400D02*
X159550400Y-75500000D01*
X155510000Y-79540400D02*
X155510000Y-81940400D01*
X147155500Y-94210500D02*
X148336000Y-94210500D01*
D30*
X161000000Y-135440400D02*
X157500000Y-138940400D01*
D31*
X131852000Y-119888000D02*
X130500000Y-119888000D01*
X147574000Y-104140000D02*
X141214000Y-110500000D01*
D30*
X169500000Y-119440400D02*
X169500000Y-116940400D01*
X129159000Y-136599400D02*
X129159000Y-134971000D01*
D32*
X155130000Y-70580400D02*
X155130000Y-72860400D01*
D30*
X159410000Y-87935400D02*
X159410000Y-111660000D01*
D32*
X146290000Y-93345000D02*
X146290000Y-85650400D01*
X159550400Y-75500000D02*
X161000000Y-75500000D01*
D30*
X169218600Y-115159000D02*
X171500000Y-115159000D01*
X167528400Y-121412000D02*
X169500000Y-119440400D01*
X131500000Y-138940400D02*
X129159000Y-136599400D01*
X135500000Y-137940400D02*
X134500000Y-138940400D01*
X154000000Y-137940400D02*
X147000000Y-137940400D01*
X166500000Y-112440400D02*
X169218600Y-115159000D01*
X160190400Y-112440400D02*
X166500000Y-112440400D01*
D31*
X130500000Y-112000000D02*
X130500000Y-95690400D01*
D30*
X165316200Y-125624200D02*
X165316200Y-121412000D01*
D34*
X125412000Y-88927000D02*
X125412000Y-90602400D01*
X125412000Y-90602400D02*
X126250000Y-91440400D01*
D30*
X138500000Y-137940400D02*
X135500000Y-137940400D01*
D32*
X147574000Y-100838000D02*
X146290000Y-99554000D01*
D30*
X147000000Y-137940400D02*
X146000000Y-138940400D01*
D32*
X147574000Y-104140000D02*
X147574000Y-100838000D01*
X155510000Y-79540400D02*
X155510000Y-79490000D01*
D30*
X165316200Y-121412000D02*
X167528400Y-121412000D01*
X171281400Y-115159000D02*
X171500000Y-115159000D01*
D31*
X130500000Y-112000000D02*
X130500000Y-119888000D01*
D30*
X165316200Y-120179800D02*
X165316200Y-121412000D01*
D31*
X132969000Y-118771000D02*
X131852000Y-119888000D01*
D30*
X161000000Y-129940400D02*
X165316200Y-125624200D01*
D32*
X146290000Y-93345000D02*
X147155500Y-94210500D01*
D30*
X169500000Y-116940400D02*
X171281400Y-115159000D01*
D32*
X145424500Y-94210500D02*
X144145000Y-94210500D01*
D30*
X171500000Y-115159000D02*
X173546000Y-115159000D01*
X146000000Y-138940400D02*
X139500000Y-138940400D01*
D32*
X152400000Y-79540400D02*
X155510000Y-79540400D01*
D30*
X144513000Y-102108000D02*
X144513000Y-100343000D01*
X139500000Y-138940400D02*
X138500000Y-137940400D01*
D32*
X155510000Y-81940400D02*
X158000000Y-84430400D01*
X155510000Y-73240400D02*
X155510000Y-79540400D01*
D31*
X141214000Y-110500000D02*
X134772000Y-110500000D01*
D32*
X159410000Y-87935400D02*
X158000000Y-86525400D01*
D30*
X144513000Y-100343000D02*
X145302000Y-99554000D01*
X134500000Y-138940400D02*
X131500000Y-138940400D01*
D32*
X158000000Y-86525400D02*
X158000000Y-84430400D01*
D30*
X145302000Y-99554000D02*
X146290000Y-99554000D01*
D32*
X146290000Y-85650400D02*
X152400000Y-79540400D01*
D30*
X155000000Y-138940400D02*
X154000000Y-137940400D01*
D31*
X134772000Y-110500000D02*
X134000000Y-109728000D01*
D32*
X146290000Y-93345000D02*
X145424500Y-94210500D01*
D30*
X159410000Y-111660000D02*
X160190400Y-112440400D01*
D32*
X146290000Y-99554000D02*
X146290000Y-93345000D01*
D30*
X157500000Y-138940400D02*
X155000000Y-138940400D01*
D32*
X168110000Y-80360000D02*
X165500000Y-77750000D01*
D35*
X184540000Y-89540000D02*
X158430400Y-63430400D01*
D32*
X139020000Y-71190400D02*
X138890000Y-71060400D01*
D35*
X132610000Y-63430400D02*
X110860000Y-85180400D01*
D32*
X161050400Y-77750000D02*
X159410000Y-79390400D01*
D35*
X144430400Y-63430400D02*
X134500000Y-63430400D01*
D32*
X147940400Y-66940400D02*
X156500000Y-66940400D01*
X146500000Y-65500000D02*
X147940400Y-66940400D01*
X145000000Y-66940400D02*
X146440400Y-65500000D01*
X157810000Y-73240400D02*
X157810000Y-70610400D01*
X139020000Y-73650400D02*
X139020000Y-71190400D01*
D35*
X134500000Y-63430400D02*
X133858000Y-63430400D01*
X133858000Y-63430400D02*
X132610000Y-63430400D01*
X110860000Y-110640400D02*
X121580000Y-121360400D01*
D32*
X146440400Y-65500000D02*
X146500000Y-65500000D01*
X159410000Y-79390400D02*
X159410000Y-82985400D01*
X173546000Y-110209000D02*
X173546000Y-106394400D01*
X123490000Y-82035400D02*
X124595000Y-82035400D01*
X179195000Y-104940400D02*
X180150000Y-105895400D01*
X168110000Y-83450400D02*
X172620000Y-83450400D01*
D36*
X127000000Y-129781000D02*
X128919000Y-129781000D01*
D35*
X158430400Y-63430400D02*
X148569600Y-63430400D01*
D32*
X125412000Y-82852400D02*
X125412000Y-83977000D01*
X173546000Y-106394400D02*
X175000000Y-104940400D01*
D35*
X110860000Y-85180400D02*
X110860000Y-110640400D01*
D32*
X157850000Y-68290400D02*
X157850000Y-70570400D01*
X139020000Y-70930400D02*
X139020000Y-68420400D01*
X168110000Y-83450400D02*
X168110000Y-80360000D01*
D35*
X133565400Y-65500000D02*
X118810000Y-80255400D01*
D32*
X156500000Y-66940400D02*
X157850000Y-68290400D01*
X120445000Y-82035400D02*
X118810000Y-83670400D01*
D35*
X118810000Y-80255400D02*
X118810000Y-83214000D01*
X146500000Y-65500000D02*
X133565400Y-65500000D01*
X121580000Y-121360400D02*
X121630000Y-121360400D01*
D36*
X127000000Y-129781000D02*
X121630000Y-124411000D01*
D32*
X182175000Y-105895400D02*
X180150000Y-105895400D01*
D35*
X172700000Y-80200000D02*
X158000000Y-65500000D01*
D32*
X139020000Y-68420400D02*
X140500000Y-66940400D01*
X138890000Y-73780400D02*
X139020000Y-73650400D01*
X175000000Y-104940400D02*
X179195000Y-104940400D01*
X123490000Y-82035400D02*
X120445000Y-82035400D01*
D35*
X184540000Y-108260400D02*
X184540000Y-89540000D01*
D32*
X165500000Y-77750000D02*
X161050400Y-77750000D01*
D35*
X172700000Y-83370400D02*
X172700000Y-80200000D01*
D36*
X121630000Y-124411000D02*
X121630000Y-121360400D01*
D35*
X158000000Y-65500000D02*
X146500000Y-65500000D01*
D32*
X140500000Y-66940400D02*
X145000000Y-66940400D01*
X124595000Y-82035400D02*
X125412000Y-82852400D01*
X184540000Y-108260400D02*
X182175000Y-105895400D01*
D35*
X146500000Y-65500000D02*
X144430400Y-63430400D01*
D34*
X133858000Y-60000000D02*
X133858000Y-63430400D01*
D35*
X148569600Y-63430400D02*
X146500000Y-65500000D01*
D30*
X190754000Y-116332000D02*
X190754000Y-107254000D01*
X162500000Y-133283000D02*
X176276000Y-119507000D01*
X152520000Y-144517150D02*
X149482850Y-144517150D01*
X148000000Y-146000000D02*
X148000000Y-149000000D01*
X185928000Y-88963500D02*
X158964500Y-62000000D01*
X190754000Y-107254000D02*
X185928000Y-102428000D01*
X149482850Y-144517150D02*
X148000000Y-146000000D01*
X139919600Y-80080400D02*
X136590000Y-80080400D01*
X141000000Y-73500000D02*
X141000000Y-79000000D01*
X136509600Y-80000000D02*
X136590000Y-80080400D01*
X132580400Y-80080400D02*
X131000000Y-78500000D01*
D32*
X136280000Y-70900400D02*
X136280000Y-73470400D01*
D30*
X162500000Y-135500000D02*
X162500000Y-133283000D01*
X176276000Y-119507000D02*
X187579000Y-119507000D01*
X158964500Y-62000000D02*
X155500000Y-62000000D01*
X158500000Y-143000000D02*
X158500000Y-139500000D01*
X141000000Y-79000000D02*
X139919600Y-80080400D01*
X185928000Y-102428000D02*
X185928000Y-88963500D01*
X152520000Y-144517150D02*
X156982850Y-144517150D01*
X158500000Y-139500000D02*
X162500000Y-135500000D01*
X156982850Y-144517150D02*
X158500000Y-143000000D01*
D32*
X136590000Y-80080400D02*
X136590000Y-73780400D01*
D30*
X131000000Y-78500000D02*
X131000000Y-75500000D01*
X136590000Y-80080400D02*
X132580400Y-80080400D01*
X187579000Y-119507000D02*
X190754000Y-116332000D01*
X149000000Y-68500000D02*
X146000000Y-68500000D01*
X146000000Y-68500000D02*
X141000000Y-73500000D01*
D33*
X164500000Y-79000000D02*
X162500000Y-79000000D01*
X161950000Y-79550000D02*
X161950000Y-82985400D01*
X165570000Y-83945400D02*
X165570000Y-80070000D01*
X162500000Y-79000000D02*
X161950000Y-79550000D01*
X165570000Y-80070000D02*
X164500000Y-79000000D01*
D31*
X131699000Y-126741400D02*
X132680000Y-125760400D01*
X132680000Y-125760400D02*
X132680000Y-125500400D01*
X131699000Y-130021000D02*
X131699000Y-126741400D01*
D30*
X127952000Y-80548000D02*
X127952000Y-83977000D01*
X131572000Y-80572000D02*
X130500000Y-79500000D01*
X129000000Y-79500000D02*
X127952000Y-80548000D01*
X131572000Y-83597000D02*
X131572000Y-80572000D01*
X130500000Y-79500000D02*
X129000000Y-79500000D01*
D32*
X130429000Y-130021000D02*
X130429000Y-127787400D01*
D31*
X132969000Y-130021000D02*
X132994400Y-129995600D01*
D32*
X132969000Y-127736600D02*
X132969000Y-129970200D01*
X126746000Y-81940400D02*
X126746000Y-83913000D01*
D31*
X126746000Y-83913000D02*
X126682000Y-83977000D01*
D32*
X129286000Y-81714000D02*
X129286000Y-83913000D01*
X130000000Y-81000000D02*
X129286000Y-81714000D01*
D31*
X129286000Y-83913000D02*
X129222000Y-83977000D01*
D32*
X174802800Y-107440400D02*
X174802800Y-110195800D01*
X177393600Y-107440400D02*
X177356000Y-107478000D01*
X177356000Y-107478000D02*
X177356000Y-110209000D01*
D33*
X160750000Y-80000000D02*
X160680000Y-80070000D01*
X160680000Y-80070000D02*
X160680000Y-82985400D01*
X163220000Y-80720000D02*
X163220000Y-82985400D01*
X163000000Y-80500000D02*
X163220000Y-80720000D01*
D31*
X153168250Y-136897150D02*
X140580000Y-136897150D01*
X155125000Y-134940400D02*
X153168250Y-136897150D01*
X176086000Y-115159000D02*
X176086000Y-118354400D01*
X176086000Y-118354400D02*
X159500000Y-134940400D01*
X159500000Y-134940400D02*
X155125000Y-134940400D01*
X148000000Y-135500000D02*
X151059600Y-132440400D01*
X155000000Y-133940400D02*
X159000000Y-133940400D01*
X137280000Y-134357150D02*
X138422850Y-135500000D01*
X151059600Y-132440400D02*
X153500000Y-132440400D01*
X159000000Y-133940400D02*
X174816000Y-118124400D01*
X138422850Y-135500000D02*
X148000000Y-135500000D01*
X174816000Y-118124400D02*
X174816000Y-115159000D01*
X153500000Y-132440400D02*
X155000000Y-133940400D01*
X159500000Y-129440400D02*
X162000000Y-126940400D01*
X140580000Y-132580000D02*
X140580000Y-131817150D01*
X161950000Y-87935400D02*
X161950000Y-109950010D01*
X144000000Y-133000000D02*
X141000000Y-133000000D01*
X141000000Y-133000000D02*
X140580000Y-132580000D01*
X162000000Y-126940400D02*
X162000000Y-113940400D01*
X149500000Y-131000000D02*
X153440400Y-131000000D01*
X147500000Y-133000000D02*
X149500000Y-131000000D01*
X155000000Y-129440400D02*
X159500000Y-129440400D01*
X161950000Y-109950010D02*
X162749990Y-110750000D01*
X153440400Y-131000000D02*
X155000000Y-129440400D01*
X147000000Y-133000000D02*
X147500000Y-133000000D01*
X137280000Y-128220000D02*
X138000000Y-127500000D01*
X160655000Y-116205000D02*
X159766000Y-117094000D01*
X138000000Y-126500000D02*
X139500000Y-125000000D01*
X160000000Y-114000000D02*
X160655000Y-114655000D01*
X137500000Y-129057150D02*
X137280000Y-129277150D01*
X144000000Y-127000000D02*
X144000000Y-131500000D01*
X159000000Y-120500000D02*
X159000000Y-122000000D01*
X142000000Y-125000000D02*
X144000000Y-127000000D01*
X157500000Y-128500000D02*
X154500000Y-128500000D01*
X160680000Y-110760400D02*
X160680000Y-87935400D01*
X159766000Y-119734000D02*
X159000000Y-120500000D01*
X153500000Y-127500000D02*
X151000000Y-127500000D01*
X161000000Y-125000000D02*
X157500000Y-128500000D01*
X137280000Y-129277150D02*
X137280000Y-128220000D01*
X160655000Y-114655000D02*
X160655000Y-116205000D01*
X151000000Y-127500000D02*
X147000000Y-131500000D01*
X154500000Y-128500000D02*
X153500000Y-127500000D01*
X138000000Y-127500000D02*
X138000000Y-126500000D01*
X159766000Y-117094000D02*
X159766000Y-119734000D01*
X139500000Y-125000000D02*
X142000000Y-125000000D01*
X133500000Y-136940400D02*
X134500000Y-135940400D01*
X134500000Y-133190400D02*
X136750000Y-130940400D01*
X131699000Y-136639400D02*
X132000000Y-136940400D01*
X132000000Y-136940400D02*
X133500000Y-136940400D01*
X131699000Y-134971000D02*
X131699000Y-136639400D01*
D30*
X140500000Y-126817150D02*
X140580000Y-126737150D01*
X140500000Y-128940400D02*
X140500000Y-126817150D01*
X138500000Y-130940400D02*
X140500000Y-128940400D01*
D31*
X134500000Y-135940400D02*
X134500000Y-133190400D01*
D30*
X136750000Y-130940400D02*
X138500000Y-130940400D01*
D31*
X135500000Y-133440400D02*
X135940400Y-133000000D01*
X135500000Y-136440400D02*
X135500000Y-133440400D01*
X130429000Y-134971000D02*
X130429000Y-136619400D01*
X135940400Y-133000000D02*
X139000000Y-133000000D01*
X131750000Y-137940400D02*
X134000000Y-137940400D01*
X130429000Y-136619400D02*
X131750000Y-137940400D01*
X134000000Y-137940400D02*
X135500000Y-136440400D01*
X145500000Y-127500000D02*
X142197150Y-124197150D01*
X140500000Y-134500000D02*
X144500000Y-134500000D01*
X139000000Y-133000000D02*
X140500000Y-134500000D01*
X142197150Y-124197150D02*
X137280000Y-124197150D01*
X144500000Y-134500000D02*
X145500000Y-133500000D01*
X145500000Y-133500000D02*
X145500000Y-127500000D01*
X133000000Y-113000000D02*
X133000000Y-95750000D01*
X136000000Y-116000000D02*
X133000000Y-113000000D01*
X140580000Y-121657150D02*
X140500000Y-121577150D01*
X140500000Y-121577150D02*
X140500000Y-119500000D01*
X137000000Y-116000000D02*
X136000000Y-116000000D01*
X133000000Y-95750000D02*
X127952000Y-90702000D01*
X127952000Y-90702000D02*
X127952000Y-88927000D01*
X140500000Y-119500000D02*
X137000000Y-116000000D01*
X132000000Y-96000000D02*
X126682000Y-90682000D01*
X135500000Y-117000000D02*
X132000000Y-113500000D01*
X137280000Y-119117150D02*
X137280000Y-117780000D01*
X136500000Y-117000000D02*
X135500000Y-117000000D01*
X126682000Y-90682000D02*
X126682000Y-88927000D01*
X132000000Y-113500000D02*
X132000000Y-96000000D01*
X137280000Y-117780000D02*
X136500000Y-117000000D01*
X149250400Y-115250400D02*
X145000000Y-111000000D01*
X149250400Y-115250400D02*
X150500000Y-116500000D01*
X150500000Y-116500000D02*
X153059600Y-116500000D01*
X147000000Y-113000000D02*
X139500000Y-113000000D01*
X152500000Y-121940400D02*
X155000000Y-119440400D01*
X145000000Y-111000000D02*
X145000000Y-108190800D01*
X149336000Y-97035500D02*
X149336000Y-101599994D01*
X158877000Y-118063400D02*
X157500000Y-119440400D01*
X138006000Y-111506000D02*
X134000000Y-111506000D01*
X157500000Y-119440400D02*
X156000000Y-119440400D01*
X149250400Y-115250400D02*
X147000000Y-113000000D01*
X152500000Y-124177150D02*
X152500000Y-121940400D01*
X152520000Y-124197150D02*
X152500000Y-124177150D01*
X148336000Y-96035500D02*
X149336000Y-97035500D01*
X145000000Y-108190800D02*
X149336000Y-103854800D01*
X153059600Y-116500000D02*
X156000000Y-119440400D01*
X149336000Y-103854800D02*
X149336000Y-101599994D01*
X155000000Y-119440400D02*
X156000000Y-119440400D01*
X139500000Y-113000000D02*
X138006000Y-111506000D01*
X158877000Y-115951000D02*
X158877000Y-118063400D01*
X143000000Y-115000000D02*
X142000000Y-114000000D01*
X137828000Y-106172000D02*
X136531996Y-106172000D01*
X139500000Y-114000000D02*
X138022000Y-112522000D01*
X144145000Y-97155000D02*
X143154400Y-98145600D01*
X143154400Y-98145600D02*
X143154400Y-99845600D01*
X156270000Y-126737150D02*
X160655000Y-122352150D01*
X145737150Y-126737150D02*
X143000000Y-124000000D01*
X143154400Y-100845600D02*
X137828000Y-106172000D01*
X142000000Y-114000000D02*
X139500000Y-114000000D01*
X144145000Y-96035500D02*
X144145000Y-97155000D01*
X155820000Y-126737150D02*
X145737150Y-126737150D01*
X143154400Y-99845600D02*
X143154400Y-100845600D01*
X136531996Y-106172000D02*
X134500000Y-108203996D01*
X155820000Y-126737150D02*
X156270000Y-126737150D01*
X143000000Y-124000000D02*
X143000000Y-115000000D01*
X135478004Y-112522000D02*
X135000004Y-113000000D01*
X160655000Y-122352150D02*
X160655000Y-118110000D01*
X138022000Y-112522000D02*
X135478004Y-112522000D01*
%TA.AperFunction,Conductor*%
G36*
X166246163Y-113177219D02*
G01*
X168662804Y-115593860D01*
X168678929Y-115613715D01*
X168696099Y-115639996D01*
X168696100Y-115639997D01*
X168696103Y-115640000D01*
X168732821Y-115668578D01*
X168750993Y-115682721D01*
X168756748Y-115687804D01*
X168764316Y-115695372D01*
X168799764Y-115720681D01*
X168874982Y-115779226D01*
X168880592Y-115783592D01*
X168889628Y-115788482D01*
X168889506Y-115788706D01*
X168897346Y-115792740D01*
X168897458Y-115792512D01*
X168906689Y-115797025D01*
X169004844Y-115826246D01*
X169101707Y-115859500D01*
X169101708Y-115859500D01*
X169111845Y-115861192D01*
X169111803Y-115861442D01*
X169120528Y-115862713D01*
X169120560Y-115862461D01*
X169130753Y-115863731D01*
X169130755Y-115863732D01*
X169130756Y-115863731D01*
X169130757Y-115863732D01*
X169233077Y-115859500D01*
X169290882Y-115859500D01*
X169378563Y-115895819D01*
X169414882Y-115983500D01*
X169378563Y-116071180D01*
X169132221Y-116317522D01*
X169065138Y-116384605D01*
X169045282Y-116400729D01*
X169019007Y-116417896D01*
X169019004Y-116417899D01*
X168976283Y-116472784D01*
X168971198Y-116478542D01*
X168963633Y-116486108D01*
X168963627Y-116486116D01*
X168938317Y-116521564D01*
X168875409Y-116602389D01*
X168870517Y-116611429D01*
X168870295Y-116611309D01*
X168866260Y-116619147D01*
X168866488Y-116619259D01*
X168861974Y-116628490D01*
X168832753Y-116726645D01*
X168799499Y-116823506D01*
X168797809Y-116833640D01*
X168797558Y-116833598D01*
X168796286Y-116842330D01*
X168796539Y-116842362D01*
X168795267Y-116852559D01*
X168799500Y-116954877D01*
X168799500Y-119098881D01*
X168763181Y-119186562D01*
X167274563Y-120675181D01*
X167186882Y-120711500D01*
X166256289Y-120711500D01*
X166168608Y-120675181D01*
X166132289Y-120587500D01*
X166143495Y-120535988D01*
X166189108Y-120436109D01*
X166192079Y-120415446D01*
X166225960Y-120179800D01*
X166189108Y-119923491D01*
X166175953Y-119894685D01*
X166081541Y-119687950D01*
X166081539Y-119687948D01*
X166081539Y-119687947D01*
X165911966Y-119492249D01*
X165911963Y-119492247D01*
X165911961Y-119492245D01*
X165694130Y-119352253D01*
X165694127Y-119352252D01*
X165445673Y-119279300D01*
X165445672Y-119279300D01*
X165186728Y-119279300D01*
X165186727Y-119279300D01*
X164938272Y-119352252D01*
X164938269Y-119352253D01*
X164720438Y-119492245D01*
X164720436Y-119492247D01*
X164720434Y-119492248D01*
X164720434Y-119492249D01*
X164664073Y-119557293D01*
X164550861Y-119687947D01*
X164550858Y-119687950D01*
X164443292Y-119923488D01*
X164443292Y-119923489D01*
X164406440Y-120179800D01*
X164431574Y-120354613D01*
X164408103Y-120446571D01*
X164326483Y-120494998D01*
X164254375Y-120483660D01*
X164200928Y-120457531D01*
X164060008Y-120437000D01*
X164016200Y-120437000D01*
X164016200Y-122386999D01*
X164060000Y-122386999D01*
X164200930Y-122366467D01*
X164418307Y-122260198D01*
X164419645Y-122259243D01*
X164420814Y-122258972D01*
X164427537Y-122255686D01*
X164428297Y-122257241D01*
X164512108Y-122237850D01*
X164592616Y-122288104D01*
X164615700Y-122360159D01*
X164615700Y-125282682D01*
X164579381Y-125370363D01*
X162869687Y-127080056D01*
X162782006Y-127116375D01*
X162694325Y-127080056D01*
X162658478Y-127003182D01*
X162650736Y-126914692D01*
X162650500Y-126909286D01*
X162650500Y-122026765D01*
X162686819Y-121939084D01*
X162774500Y-121902765D01*
X162862181Y-121939084D01*
X162885901Y-121972305D01*
X162943002Y-122089108D01*
X163114091Y-122260197D01*
X163331470Y-122366467D01*
X163472398Y-122386999D01*
X163516199Y-122386999D01*
X163516200Y-122386998D01*
X163516200Y-120437000D01*
X163472399Y-120437000D01*
X163331469Y-120457532D01*
X163114091Y-120563802D01*
X162943001Y-120734892D01*
X162885900Y-120851695D01*
X162814763Y-120914515D01*
X162720039Y-120908634D01*
X162657219Y-120837497D01*
X162650500Y-120797234D01*
X162650500Y-114611033D01*
X162680786Y-114529831D01*
X162765339Y-114432253D01*
X162791107Y-114375830D01*
X162872907Y-114196711D01*
X162872908Y-114196709D01*
X162909760Y-113940400D01*
X162872908Y-113684091D01*
X162866124Y-113669236D01*
X162765341Y-113448550D01*
X162765339Y-113448548D01*
X162765339Y-113448547D01*
X162676569Y-113346101D01*
X162646599Y-113256054D01*
X162689080Y-113171187D01*
X162770283Y-113140900D01*
X166158482Y-113140900D01*
X166246163Y-113177219D01*
G37*
%TD.AperFunction*%
%TA.AperFunction,Conductor*%
G36*
X174112181Y-80809944D02*
G01*
X183303181Y-90000944D01*
X183339500Y-90088625D01*
X183339500Y-105557750D01*
X183303181Y-105645431D01*
X183215500Y-105681750D01*
X183127819Y-105645431D01*
X182878716Y-105396328D01*
X182878714Y-105396325D01*
X182681148Y-105198758D01*
X182681144Y-105198755D01*
X182681143Y-105198754D01*
X182678612Y-105197464D01*
X182629455Y-105172417D01*
X182612865Y-105162251D01*
X182565931Y-105128151D01*
X182510754Y-105110222D01*
X182492781Y-105102777D01*
X182441097Y-105076443D01*
X182441093Y-105076442D01*
X182383796Y-105067367D01*
X182364877Y-105062825D01*
X182309711Y-105044901D01*
X182309707Y-105044900D01*
X182309706Y-105044900D01*
X182309705Y-105044900D01*
X180801088Y-105044900D01*
X180746628Y-105032301D01*
X180683928Y-105001649D01*
X180609874Y-104965446D01*
X180468855Y-104944900D01*
X180468850Y-104944900D01*
X180453650Y-104944900D01*
X180365969Y-104908581D01*
X179898716Y-104441328D01*
X179898714Y-104441325D01*
X179701148Y-104243758D01*
X179701144Y-104243755D01*
X179701143Y-104243754D01*
X179698612Y-104242464D01*
X179649455Y-104217417D01*
X179632865Y-104207251D01*
X179585931Y-104173151D01*
X179530754Y-104155222D01*
X179512781Y-104147777D01*
X179461097Y-104121443D01*
X179461093Y-104121442D01*
X179403796Y-104112367D01*
X179384877Y-104107825D01*
X179329711Y-104089901D01*
X179329707Y-104089900D01*
X179329706Y-104089900D01*
X179329705Y-104089900D01*
X175144708Y-104089900D01*
X175144696Y-104089899D01*
X175134706Y-104089899D01*
X174865294Y-104089899D01*
X174810113Y-104107827D01*
X174791198Y-104112368D01*
X174733904Y-104121443D01*
X174682216Y-104147779D01*
X174664243Y-104155223D01*
X174609073Y-104173149D01*
X174609067Y-104173152D01*
X174562133Y-104207251D01*
X174545547Y-104217414D01*
X174493858Y-104243752D01*
X174493856Y-104243753D01*
X174461912Y-104275699D01*
X174445939Y-104291672D01*
X173735962Y-105001649D01*
X173039857Y-105697754D01*
X172849354Y-105888255D01*
X172823018Y-105939942D01*
X172812854Y-105956527D01*
X172778754Y-106003463D01*
X172778752Y-106003467D01*
X172774740Y-106015816D01*
X172760823Y-106058645D01*
X172753381Y-106076610D01*
X172727042Y-106128305D01*
X172717967Y-106185604D01*
X172713425Y-106204523D01*
X172695501Y-106259688D01*
X172695500Y-106259696D01*
X172695500Y-110275944D01*
X172727041Y-110475092D01*
X172727042Y-110475094D01*
X172731984Y-110484792D01*
X172745500Y-110541088D01*
X172745500Y-111110217D01*
X172745501Y-111110234D01*
X172757971Y-111204959D01*
X172757972Y-111204960D01*
X172824499Y-111347626D01*
X172854921Y-111412867D01*
X173017133Y-111575079D01*
X173136310Y-111630652D01*
X173229405Y-111674063D01*
X173293522Y-111744035D01*
X173301000Y-111786445D01*
X173301000Y-112434000D01*
X177601000Y-112434000D01*
X177601000Y-111786445D01*
X177637319Y-111698764D01*
X177672595Y-111674063D01*
X177723126Y-111650500D01*
X177884867Y-111575079D01*
X178047079Y-111412867D01*
X178066503Y-111371210D01*
X178136473Y-111307094D01*
X178231288Y-111311232D01*
X178266566Y-111335934D01*
X178383869Y-111453237D01*
X178383870Y-111453237D01*
X178383872Y-111453239D01*
X178608894Y-111563245D01*
X178681836Y-111573872D01*
X178754777Y-111584500D01*
X178754778Y-111584500D01*
X180147223Y-111584500D01*
X180215946Y-111574487D01*
X180293106Y-111563245D01*
X180518128Y-111453239D01*
X180695239Y-111276128D01*
X180805245Y-111051106D01*
X180826500Y-110905222D01*
X180826500Y-109962778D01*
X180821453Y-109928141D01*
X180805245Y-109816895D01*
X180805245Y-109816894D01*
X180695239Y-109591872D01*
X180695237Y-109591870D01*
X180695237Y-109591869D01*
X180518130Y-109414762D01*
X180293104Y-109304754D01*
X180179743Y-109288238D01*
X180098214Y-109239658D01*
X180075505Y-109187065D01*
X180071700Y-109165484D01*
X180065330Y-109154452D01*
X180052943Y-109124545D01*
X180049648Y-109112245D01*
X180001696Y-109043763D01*
X179998794Y-109039207D01*
X179957001Y-108966819D01*
X179957000Y-108966818D01*
X179956999Y-108966816D01*
X179892956Y-108913077D01*
X179888972Y-108909426D01*
X179558147Y-108578601D01*
X179521828Y-108490920D01*
X179558147Y-108403239D01*
X179645828Y-108366920D01*
X179682435Y-108372447D01*
X179690266Y-108374866D01*
X179831198Y-108395399D01*
X179899999Y-108395398D01*
X179900000Y-108395398D01*
X179900000Y-107695400D01*
X180400000Y-107695400D01*
X180400000Y-108395399D01*
X180468800Y-108395399D01*
X180609730Y-108374867D01*
X180827108Y-108268597D01*
X180998197Y-108097508D01*
X181104468Y-107880127D01*
X181125000Y-107739207D01*
X181125000Y-107695400D01*
X180400000Y-107695400D01*
X179900000Y-107695400D01*
X179900000Y-107319400D01*
X179936319Y-107231719D01*
X180024000Y-107195400D01*
X181124999Y-107195400D01*
X181124999Y-107151599D01*
X181104467Y-107010669D01*
X181062273Y-106924360D01*
X181056393Y-106829637D01*
X181119214Y-106758499D01*
X181173674Y-106745900D01*
X181771350Y-106745900D01*
X181859031Y-106782219D01*
X183203181Y-108126369D01*
X183239500Y-108214050D01*
X183239500Y-109831622D01*
X183260754Y-109977504D01*
X183370762Y-110202530D01*
X183547869Y-110379637D01*
X183547870Y-110379637D01*
X183547872Y-110379639D01*
X183772894Y-110489645D01*
X183800664Y-110493691D01*
X183918777Y-110510900D01*
X183918778Y-110510900D01*
X185161223Y-110510900D01*
X185209850Y-110503815D01*
X185307106Y-110489645D01*
X185532128Y-110379639D01*
X185709239Y-110202528D01*
X185819245Y-109977506D01*
X185840500Y-109831622D01*
X185840500Y-106689178D01*
X185819245Y-106543294D01*
X185782830Y-106468806D01*
X185753099Y-106407988D01*
X185740500Y-106353528D01*
X185740500Y-103530518D01*
X185776819Y-103442837D01*
X185864500Y-103406518D01*
X185952181Y-103442837D01*
X190017181Y-107507837D01*
X190053500Y-107595518D01*
X190053500Y-115990481D01*
X190017181Y-116078162D01*
X187325163Y-118770181D01*
X187237482Y-118806500D01*
X176798643Y-118806500D01*
X176710962Y-118770181D01*
X176674643Y-118682500D01*
X176683095Y-118644375D01*
X176681839Y-118644039D01*
X176684647Y-118633556D01*
X176684648Y-118633555D01*
X176687943Y-118621252D01*
X176700333Y-118591342D01*
X176706700Y-118580316D01*
X176721221Y-118497959D01*
X176722380Y-118492731D01*
X176744021Y-118411969D01*
X176736735Y-118328696D01*
X176736500Y-118323293D01*
X176736500Y-116676904D01*
X176772819Y-116589223D01*
X176860500Y-116552904D01*
X176912906Y-116564522D01*
X177035170Y-116621536D01*
X177035174Y-116621537D01*
X177105998Y-116630861D01*
X177106000Y-116630860D01*
X177106000Y-115409000D01*
X177606000Y-115409000D01*
X177606000Y-116630860D01*
X177606001Y-116630861D01*
X177676825Y-116621537D01*
X177676832Y-116621535D01*
X177884576Y-116524661D01*
X178046661Y-116362576D01*
X178143537Y-116154826D01*
X178155998Y-116060172D01*
X178156000Y-116060155D01*
X178156000Y-115409000D01*
X177606000Y-115409000D01*
X177106000Y-115409000D01*
X177106000Y-115033000D01*
X177142319Y-114945319D01*
X177230000Y-114909000D01*
X178156000Y-114909000D01*
X178156000Y-114624022D01*
X178192319Y-114536341D01*
X178280000Y-114500022D01*
X178367681Y-114536341D01*
X178384166Y-114552826D01*
X178384169Y-114552828D01*
X178609035Y-114662758D01*
X178754830Y-114684000D01*
X179201000Y-114684000D01*
X179201000Y-113784000D01*
X179701000Y-113784000D01*
X179701000Y-114684000D01*
X180147170Y-114684000D01*
X180292964Y-114662758D01*
X180517830Y-114552828D01*
X180517833Y-114552826D01*
X180694826Y-114375833D01*
X180694828Y-114375830D01*
X180804758Y-114150964D01*
X180826000Y-114005170D01*
X180826000Y-113910400D01*
X183240000Y-113910400D01*
X183240000Y-115231570D01*
X183261241Y-115377364D01*
X183371171Y-115602230D01*
X183371173Y-115602233D01*
X183548166Y-115779226D01*
X183548169Y-115779228D01*
X183773035Y-115889158D01*
X183918830Y-115910400D01*
X184290000Y-115910400D01*
X184290000Y-113910400D01*
X184790000Y-113910400D01*
X184790000Y-115910400D01*
X185161170Y-115910400D01*
X185306964Y-115889158D01*
X185531830Y-115779228D01*
X185531833Y-115779226D01*
X185708826Y-115602233D01*
X185708828Y-115602230D01*
X185818758Y-115377364D01*
X185840000Y-115231570D01*
X185840000Y-113910400D01*
X184790000Y-113910400D01*
X184290000Y-113910400D01*
X183240000Y-113910400D01*
X180826000Y-113910400D01*
X180826000Y-113784000D01*
X179701000Y-113784000D01*
X179201000Y-113784000D01*
X178076000Y-113784000D01*
X178063300Y-113796700D01*
X177975619Y-113833019D01*
X177893772Y-113799116D01*
X177893462Y-113799560D01*
X177891462Y-113798159D01*
X177887938Y-113796700D01*
X177884576Y-113793338D01*
X177672595Y-113694489D01*
X177608478Y-113624517D01*
X177601000Y-113582107D01*
X177601000Y-113410400D01*
X183240000Y-113410400D01*
X184290000Y-113410400D01*
X184290000Y-111410400D01*
X184790000Y-111410400D01*
X184790000Y-113410400D01*
X185840000Y-113410400D01*
X185840000Y-112089229D01*
X185818758Y-111943435D01*
X185708828Y-111718569D01*
X185708826Y-111718566D01*
X185531833Y-111541573D01*
X185531830Y-111541571D01*
X185306964Y-111431641D01*
X185161170Y-111410400D01*
X184790000Y-111410400D01*
X184290000Y-111410400D01*
X183918830Y-111410400D01*
X183773035Y-111431641D01*
X183548169Y-111541571D01*
X183548166Y-111541573D01*
X183371173Y-111718566D01*
X183371171Y-111718569D01*
X183261241Y-111943435D01*
X183240000Y-112089229D01*
X183240000Y-113410400D01*
X177601000Y-113410400D01*
X177601000Y-113284000D01*
X178076000Y-113284000D01*
X179201000Y-113284000D01*
X179201000Y-112384000D01*
X179701000Y-112384000D01*
X179701000Y-113284000D01*
X180826000Y-113284000D01*
X180826000Y-113062829D01*
X180804758Y-112917035D01*
X180694828Y-112692169D01*
X180694826Y-112692166D01*
X180517833Y-112515173D01*
X180517830Y-112515171D01*
X180292964Y-112405241D01*
X180147170Y-112384000D01*
X179701000Y-112384000D01*
X179201000Y-112384000D01*
X178754830Y-112384000D01*
X178609035Y-112405241D01*
X178384169Y-112515171D01*
X178384166Y-112515173D01*
X178207173Y-112692166D01*
X178207171Y-112692169D01*
X178097241Y-112917035D01*
X178076000Y-113062829D01*
X178076000Y-113284000D01*
X177601000Y-113284000D01*
X177601000Y-112934000D01*
X173301000Y-112934000D01*
X173301000Y-113581555D01*
X173264681Y-113669236D01*
X173229405Y-113693937D01*
X173017132Y-113792921D01*
X172854921Y-113955132D01*
X172757972Y-114163039D01*
X172757971Y-114163040D01*
X172745501Y-114257765D01*
X172745500Y-114257782D01*
X172745500Y-114334500D01*
X172709181Y-114422181D01*
X172621500Y-114458500D01*
X171366913Y-114458500D01*
X171341467Y-114455861D01*
X171312598Y-114449808D01*
X171310748Y-114449420D01*
X171310747Y-114449420D01*
X171310746Y-114449420D01*
X171241726Y-114458023D01*
X171234050Y-114458500D01*
X169560118Y-114458500D01*
X169472437Y-114422181D01*
X167055794Y-112005538D01*
X167039666Y-111985677D01*
X167022503Y-111959407D01*
X167022502Y-111959406D01*
X167022501Y-111959404D01*
X166992582Y-111936117D01*
X166967615Y-111916684D01*
X166961850Y-111911593D01*
X166954287Y-111904030D01*
X166918835Y-111878717D01*
X166838014Y-111815812D01*
X166838012Y-111815811D01*
X166838011Y-111815810D01*
X166838009Y-111815809D01*
X166828979Y-111810923D01*
X166829100Y-111810698D01*
X166821255Y-111806660D01*
X166821144Y-111806889D01*
X166811913Y-111802376D01*
X166811911Y-111802375D01*
X166713755Y-111773153D01*
X166678364Y-111761003D01*
X166616894Y-111739899D01*
X166606761Y-111738209D01*
X166606802Y-111737958D01*
X166598071Y-111736686D01*
X166598040Y-111736939D01*
X166587842Y-111735667D01*
X166485523Y-111739900D01*
X163297597Y-111739900D01*
X163209916Y-111703581D01*
X163173597Y-111615900D01*
X163209916Y-111528219D01*
X163230558Y-111511585D01*
X163321348Y-111453237D01*
X163345756Y-111437551D01*
X163515329Y-111241853D01*
X163532178Y-111204960D01*
X163622897Y-111006311D01*
X163622898Y-111006309D01*
X163659750Y-110750000D01*
X163622898Y-110493691D01*
X163622897Y-110493688D01*
X163515331Y-110258150D01*
X163515329Y-110258148D01*
X163515329Y-110258147D01*
X163345756Y-110062449D01*
X163345753Y-110062447D01*
X163345751Y-110062445D01*
X163127920Y-109922453D01*
X163127917Y-109922452D01*
X162879463Y-109849500D01*
X162879462Y-109849500D01*
X162820798Y-109849500D01*
X162733117Y-109813181D01*
X162636819Y-109716883D01*
X162600500Y-109629202D01*
X162600500Y-99444494D01*
X164399500Y-99444494D01*
X164480375Y-99824985D01*
X164480377Y-99824990D01*
X164581142Y-100051311D01*
X164603671Y-100101911D01*
X164638593Y-100180345D01*
X164638595Y-100180350D01*
X164867234Y-100495045D01*
X164867240Y-100495052D01*
X165016229Y-100629201D01*
X165156312Y-100755332D01*
X165493188Y-100949828D01*
X165863140Y-101070032D01*
X166153021Y-101100500D01*
X166153026Y-101100500D01*
X166346974Y-101100500D01*
X166346979Y-101100500D01*
X166636860Y-101070032D01*
X167006812Y-100949828D01*
X167343688Y-100755332D01*
X167614471Y-100511518D01*
X167632759Y-100495052D01*
X167632760Y-100495049D01*
X167632764Y-100495047D01*
X167861407Y-100180347D01*
X168019624Y-99824986D01*
X168100500Y-99444495D01*
X168100500Y-99055505D01*
X168019624Y-98675014D01*
X167861407Y-98319654D01*
X167861404Y-98319650D01*
X167861404Y-98319649D01*
X167632765Y-98004954D01*
X167632759Y-98004947D01*
X167401420Y-97796650D01*
X167343688Y-97744668D01*
X167006812Y-97550172D01*
X167006811Y-97550171D01*
X167006810Y-97550171D01*
X166636861Y-97429968D01*
X166559718Y-97421860D01*
X166346979Y-97399500D01*
X166153021Y-97399500D01*
X165945963Y-97421262D01*
X165863138Y-97429968D01*
X165493189Y-97550171D01*
X165156313Y-97744667D01*
X164867240Y-98004947D01*
X164867234Y-98004954D01*
X164638596Y-98319647D01*
X164480375Y-98675016D01*
X164399500Y-99055505D01*
X164399500Y-99444494D01*
X162600500Y-99444494D01*
X162600500Y-89453304D01*
X162636819Y-89365623D01*
X162724500Y-89329304D01*
X162776906Y-89340922D01*
X162899170Y-89397936D01*
X162899174Y-89397937D01*
X162969998Y-89407261D01*
X162970000Y-89407260D01*
X162970000Y-88185400D01*
X163470000Y-88185400D01*
X163470000Y-89407260D01*
X163470001Y-89407261D01*
X163540825Y-89397937D01*
X163540832Y-89397935D01*
X163748576Y-89301061D01*
X163910661Y-89138976D01*
X163965954Y-89020400D01*
X171400000Y-89020400D01*
X171400000Y-90341570D01*
X171421241Y-90487364D01*
X171531171Y-90712230D01*
X171531173Y-90712233D01*
X171708166Y-90889226D01*
X171708169Y-90889228D01*
X171933035Y-90999158D01*
X172078830Y-91020400D01*
X172450000Y-91020400D01*
X172450000Y-89020400D01*
X172950000Y-89020400D01*
X172950000Y-91020400D01*
X173321170Y-91020400D01*
X173466964Y-90999158D01*
X173691830Y-90889228D01*
X173691833Y-90889226D01*
X173868826Y-90712233D01*
X173868828Y-90712230D01*
X173978758Y-90487364D01*
X174000000Y-90341570D01*
X174000000Y-89020400D01*
X172950000Y-89020400D01*
X172450000Y-89020400D01*
X171400000Y-89020400D01*
X163965954Y-89020400D01*
X164007537Y-88931226D01*
X164019998Y-88836572D01*
X164020000Y-88836555D01*
X164020000Y-88520400D01*
X171400000Y-88520400D01*
X172450000Y-88520400D01*
X172450000Y-86520400D01*
X172950000Y-86520400D01*
X172950000Y-88520400D01*
X174000000Y-88520400D01*
X174000000Y-87199229D01*
X173978758Y-87053435D01*
X173868828Y-86828569D01*
X173868826Y-86828566D01*
X173691833Y-86651573D01*
X173691830Y-86651571D01*
X173466964Y-86541641D01*
X173321170Y-86520400D01*
X172950000Y-86520400D01*
X172450000Y-86520400D01*
X172078830Y-86520400D01*
X171933035Y-86541641D01*
X171708169Y-86651571D01*
X171708166Y-86651573D01*
X171531173Y-86828566D01*
X171531171Y-86828569D01*
X171421241Y-87053435D01*
X171400000Y-87199229D01*
X171400000Y-88520400D01*
X164020000Y-88520400D01*
X164020000Y-88185400D01*
X163470000Y-88185400D01*
X162970000Y-88185400D01*
X162970000Y-87809400D01*
X163006319Y-87721719D01*
X163094000Y-87685400D01*
X164019999Y-87685400D01*
X164036563Y-87668836D01*
X164124244Y-87632516D01*
X164211925Y-87668834D01*
X164235645Y-87702056D01*
X164326171Y-87887230D01*
X164326173Y-87887233D01*
X164503166Y-88064226D01*
X164503169Y-88064228D01*
X164728035Y-88174158D01*
X164873830Y-88195400D01*
X165320000Y-88195400D01*
X165320000Y-87295400D01*
X165820000Y-87295400D01*
X165820000Y-88195400D01*
X166266170Y-88195400D01*
X166411964Y-88174158D01*
X166636830Y-88064228D01*
X166636833Y-88064226D01*
X166813826Y-87887233D01*
X166813828Y-87887230D01*
X166923758Y-87662364D01*
X166945000Y-87516570D01*
X166945000Y-87295400D01*
X165820000Y-87295400D01*
X165320000Y-87295400D01*
X165320000Y-85895400D01*
X165820000Y-85895400D01*
X165820000Y-86795400D01*
X166945000Y-86795400D01*
X166945000Y-86574229D01*
X166923758Y-86428435D01*
X166813828Y-86203569D01*
X166813826Y-86203566D01*
X166636833Y-86026573D01*
X166636830Y-86026571D01*
X166411964Y-85916641D01*
X166266170Y-85895400D01*
X165820000Y-85895400D01*
X165320000Y-85895400D01*
X164873830Y-85895400D01*
X164728035Y-85916641D01*
X164503169Y-86026571D01*
X164503166Y-86026573D01*
X164326173Y-86203566D01*
X164326171Y-86203569D01*
X164216241Y-86428435D01*
X164195000Y-86574229D01*
X164195000Y-86782261D01*
X164158681Y-86869942D01*
X164071000Y-86906261D01*
X163983319Y-86869942D01*
X163958618Y-86834666D01*
X163910661Y-86731823D01*
X163748576Y-86569738D01*
X163536595Y-86470889D01*
X163472478Y-86400917D01*
X163465000Y-86358507D01*
X163465000Y-85710400D01*
X159165000Y-85710400D01*
X159165000Y-86188250D01*
X159128681Y-86275931D01*
X159041000Y-86312250D01*
X158953319Y-86275931D01*
X158886819Y-86209431D01*
X158850500Y-86121750D01*
X158850500Y-85250400D01*
X167135001Y-85250400D01*
X167135001Y-85294200D01*
X167155532Y-85435130D01*
X167261802Y-85652508D01*
X167432891Y-85823597D01*
X167650270Y-85929867D01*
X167791198Y-85950399D01*
X167859999Y-85950398D01*
X167860000Y-85950398D01*
X167860000Y-85250400D01*
X168360000Y-85250400D01*
X168360000Y-85950399D01*
X168428800Y-85950399D01*
X168569730Y-85929867D01*
X168787108Y-85823597D01*
X168958197Y-85652508D01*
X169064468Y-85435127D01*
X169085000Y-85294207D01*
X169085000Y-85250400D01*
X168360000Y-85250400D01*
X167860000Y-85250400D01*
X167135001Y-85250400D01*
X158850500Y-85250400D01*
X158850500Y-84531835D01*
X158886819Y-84444154D01*
X158974500Y-84407835D01*
X159026902Y-84419452D01*
X159089041Y-84448428D01*
X159093405Y-84450463D01*
X159157522Y-84520435D01*
X159165000Y-84562845D01*
X159165000Y-85210400D01*
X163465000Y-85210400D01*
X163465000Y-84562845D01*
X163501319Y-84475164D01*
X163536595Y-84450463D01*
X163550125Y-84444154D01*
X163748867Y-84351479D01*
X163911079Y-84189267D01*
X163958118Y-84088390D01*
X164028090Y-84024274D01*
X164122905Y-84028414D01*
X164187022Y-84098386D01*
X164194500Y-84140796D01*
X164194500Y-84416622D01*
X164215754Y-84562504D01*
X164325762Y-84787530D01*
X164502869Y-84964637D01*
X164502870Y-84964637D01*
X164502872Y-84964639D01*
X164727894Y-85074645D01*
X164800836Y-85085272D01*
X164873777Y-85095900D01*
X164873778Y-85095900D01*
X166266223Y-85095900D01*
X166323848Y-85087504D01*
X166412106Y-85074645D01*
X166637128Y-84964639D01*
X166814239Y-84787528D01*
X166905874Y-84600083D01*
X166970745Y-84542797D01*
X166945221Y-84513893D01*
X166939798Y-84455755D01*
X166945500Y-84416622D01*
X166945500Y-83992620D01*
X166981819Y-83904939D01*
X167069500Y-83868620D01*
X167157181Y-83904939D01*
X167180898Y-83938156D01*
X167254343Y-84088391D01*
X167261389Y-84102803D01*
X167296658Y-84138071D01*
X167332978Y-84225752D01*
X167296660Y-84313433D01*
X167261801Y-84348291D01*
X167261801Y-84348292D01*
X167173902Y-84528092D01*
X167109030Y-84585378D01*
X167134555Y-84614282D01*
X167139979Y-84672422D01*
X167135000Y-84706597D01*
X167135000Y-84750400D01*
X169084999Y-84750400D01*
X169084999Y-84706599D01*
X169064467Y-84565669D01*
X169022273Y-84479360D01*
X169016393Y-84384637D01*
X169079214Y-84313499D01*
X169133674Y-84300900D01*
X171275500Y-84300900D01*
X171363181Y-84337219D01*
X171399500Y-84424900D01*
X171399500Y-84941622D01*
X171420754Y-85087504D01*
X171530762Y-85312530D01*
X171707869Y-85489637D01*
X171707870Y-85489637D01*
X171707872Y-85489639D01*
X171932894Y-85599645D01*
X172005836Y-85610272D01*
X172078777Y-85620900D01*
X172078778Y-85620900D01*
X173321223Y-85620900D01*
X173369850Y-85613815D01*
X173467106Y-85599645D01*
X173692128Y-85489639D01*
X173869239Y-85312528D01*
X173979245Y-85087506D01*
X174000500Y-84941622D01*
X174000500Y-81799178D01*
X173979245Y-81653294D01*
X173929658Y-81551861D01*
X173913099Y-81517988D01*
X173900500Y-81463528D01*
X173900500Y-80897625D01*
X173936819Y-80809944D01*
X174024500Y-80773625D01*
X174112181Y-80809944D01*
G37*
%TD.AperFunction*%
%TA.AperFunction,Conductor*%
G36*
X153073182Y-80427219D02*
G01*
X153109501Y-80514900D01*
X153109501Y-80589692D01*
X153121976Y-80652411D01*
X153138540Y-80735687D01*
X153193019Y-80817219D01*
X153249160Y-80901240D01*
X153414715Y-81011860D01*
X153414718Y-81011860D01*
X153414719Y-81011861D01*
X153487711Y-81026380D01*
X153560707Y-81040900D01*
X154535500Y-81040899D01*
X154623181Y-81077218D01*
X154659500Y-81164899D01*
X154659500Y-82075104D01*
X154659501Y-82075111D01*
X154677425Y-82130277D01*
X154681967Y-82149196D01*
X154691042Y-82206493D01*
X154691043Y-82206497D01*
X154717377Y-82258181D01*
X154724822Y-82276154D01*
X154742751Y-82331331D01*
X154776851Y-82378265D01*
X154787017Y-82394855D01*
X154813353Y-82446541D01*
X154813358Y-82446548D01*
X155021297Y-82654486D01*
X155021299Y-82654487D01*
X157113181Y-84746369D01*
X157149500Y-84834050D01*
X157149500Y-85016791D01*
X157113181Y-85104472D01*
X157025500Y-85140791D01*
X156978189Y-85126442D01*
X156976565Y-85130363D01*
X156965280Y-85125688D01*
X156819296Y-85096650D01*
X154820710Y-85096650D01*
X154674712Y-85125690D01*
X154509160Y-85236310D01*
X154398540Y-85401865D01*
X154398538Y-85401869D01*
X154369500Y-85547852D01*
X154369500Y-86646439D01*
X154398540Y-86792437D01*
X154438258Y-86851878D01*
X154509160Y-86957990D01*
X154674715Y-87068610D01*
X154674718Y-87068610D01*
X154674719Y-87068611D01*
X154747711Y-87083130D01*
X154820707Y-87097650D01*
X156819292Y-87097649D01*
X156965285Y-87068610D01*
X156965286Y-87068609D01*
X156965287Y-87068609D01*
X157045506Y-87015008D01*
X157115555Y-86968202D01*
X157208636Y-86949688D01*
X157287547Y-87002414D01*
X157294928Y-87015006D01*
X157303354Y-87031543D01*
X157303356Y-87031545D01*
X157303358Y-87031548D01*
X157500922Y-87229111D01*
X157500928Y-87229116D01*
X158573181Y-88301369D01*
X158609500Y-88389050D01*
X158609500Y-88836617D01*
X158609501Y-88836634D01*
X158621971Y-88931357D01*
X158697882Y-89094148D01*
X158709500Y-89146553D01*
X158709500Y-111574487D01*
X158706861Y-111599933D01*
X158700420Y-111630652D01*
X158700420Y-111630653D01*
X158709023Y-111699672D01*
X158709500Y-111707348D01*
X158709500Y-111718045D01*
X158716668Y-111761003D01*
X158722359Y-111806660D01*
X158729338Y-111862641D01*
X158732269Y-111872486D01*
X158732027Y-111872557D01*
X158734720Y-111880961D01*
X158734958Y-111880880D01*
X158738294Y-111890598D01*
X158787037Y-111980667D01*
X158832013Y-112072670D01*
X158837985Y-112081033D01*
X158837778Y-112081180D01*
X158843055Y-112088254D01*
X158843255Y-112088099D01*
X158849560Y-112096201D01*
X158849563Y-112096205D01*
X158849566Y-112096207D01*
X158849567Y-112096209D01*
X158924920Y-112165576D01*
X159634604Y-112875260D01*
X159650729Y-112895115D01*
X159665050Y-112917035D01*
X159667900Y-112921397D01*
X159667902Y-112921399D01*
X159698565Y-112945264D01*
X159745452Y-113027778D01*
X159720260Y-113119279D01*
X159657342Y-113162095D01*
X159622076Y-113172450D01*
X159622069Y-113172453D01*
X159404238Y-113312445D01*
X159404236Y-113312447D01*
X159404234Y-113312448D01*
X159404234Y-113312449D01*
X159252240Y-113487860D01*
X159234661Y-113508147D01*
X159234658Y-113508150D01*
X159127092Y-113743688D01*
X159127092Y-113743689D01*
X159090240Y-114000000D01*
X159127092Y-114256310D01*
X159127092Y-114256311D01*
X159234658Y-114491849D01*
X159234660Y-114491851D01*
X159234661Y-114491853D01*
X159404234Y-114687551D01*
X159404236Y-114687552D01*
X159404238Y-114687554D01*
X159622069Y-114827546D01*
X159622072Y-114827547D01*
X159870527Y-114900500D01*
X159870528Y-114900500D01*
X159880500Y-114900500D01*
X159968181Y-114936819D01*
X160004500Y-115024500D01*
X160004500Y-115731668D01*
X159968181Y-115819349D01*
X159880500Y-115855668D01*
X159792819Y-115819349D01*
X159757762Y-115749315D01*
X159756147Y-115738088D01*
X159749908Y-115694691D01*
X159749907Y-115694688D01*
X159642341Y-115459150D01*
X159642339Y-115459148D01*
X159642339Y-115459147D01*
X159472766Y-115263449D01*
X159472763Y-115263447D01*
X159472761Y-115263445D01*
X159254930Y-115123453D01*
X159254927Y-115123452D01*
X159006473Y-115050500D01*
X159006472Y-115050500D01*
X158747528Y-115050500D01*
X158747527Y-115050500D01*
X158499072Y-115123452D01*
X158499069Y-115123453D01*
X158281238Y-115263445D01*
X158281236Y-115263447D01*
X158281234Y-115263448D01*
X158281234Y-115263449D01*
X158206875Y-115349264D01*
X158111661Y-115459147D01*
X158111658Y-115459150D01*
X158004092Y-115694688D01*
X158004092Y-115694689D01*
X157967240Y-115951000D01*
X158004092Y-116207310D01*
X158004092Y-116207311D01*
X158111658Y-116442849D01*
X158111660Y-116442851D01*
X158111661Y-116442853D01*
X158196213Y-116540431D01*
X158226500Y-116621633D01*
X158226500Y-117742592D01*
X158190181Y-117830273D01*
X157266873Y-118753581D01*
X157179192Y-118789900D01*
X156320807Y-118789900D01*
X156233126Y-118753581D01*
X155268876Y-117789330D01*
X155232557Y-117701649D01*
X155268876Y-117613968D01*
X155356557Y-117577649D01*
X156819290Y-117577649D01*
X156819292Y-117577649D01*
X156965285Y-117548610D01*
X156965286Y-117548609D01*
X156965287Y-117548609D01*
X156993066Y-117530047D01*
X157130840Y-117437990D01*
X157241460Y-117272435D01*
X157270500Y-117126443D01*
X157270499Y-116027858D01*
X157241460Y-115881865D01*
X157241459Y-115881864D01*
X157241459Y-115881862D01*
X157152893Y-115749315D01*
X157130840Y-115716310D01*
X156965285Y-115605690D01*
X156965283Y-115605689D01*
X156965280Y-115605688D01*
X156819296Y-115576650D01*
X154820710Y-115576650D01*
X154674712Y-115605690D01*
X154509160Y-115716310D01*
X154398540Y-115881865D01*
X154398538Y-115881869D01*
X154369500Y-116027852D01*
X154369500Y-116590592D01*
X154333181Y-116678273D01*
X154245500Y-116714592D01*
X154157819Y-116678273D01*
X153541571Y-116062025D01*
X153537915Y-116058035D01*
X153484182Y-115993999D01*
X153484181Y-115993998D01*
X153411789Y-115952203D01*
X153407232Y-115949300D01*
X153338754Y-115901352D01*
X153338753Y-115901351D01*
X153338751Y-115901350D01*
X153326450Y-115898054D01*
X153296544Y-115885667D01*
X153285516Y-115879300D01*
X153203197Y-115864784D01*
X153197915Y-115863613D01*
X153117167Y-115841977D01*
X153047251Y-115848095D01*
X153033888Y-115849264D01*
X153028487Y-115849500D01*
X150820808Y-115849500D01*
X150733127Y-115813181D01*
X149506385Y-114586439D01*
X151069500Y-114586439D01*
X151098540Y-114732437D01*
X151172286Y-114842805D01*
X151209160Y-114897990D01*
X151374715Y-115008610D01*
X151374718Y-115008610D01*
X151374719Y-115008611D01*
X151447711Y-115023130D01*
X151520707Y-115037650D01*
X153519292Y-115037649D01*
X153665285Y-115008610D01*
X153665286Y-115008609D01*
X153665287Y-115008609D01*
X153693066Y-114990047D01*
X153830840Y-114897990D01*
X153941460Y-114732435D01*
X153970500Y-114586443D01*
X153970499Y-113487858D01*
X153941460Y-113341865D01*
X153941459Y-113341864D01*
X153941459Y-113341862D01*
X153881982Y-113252849D01*
X153830840Y-113176310D01*
X153665285Y-113065690D01*
X153665283Y-113065689D01*
X153665280Y-113065688D01*
X153519296Y-113036650D01*
X151520710Y-113036650D01*
X151374712Y-113065690D01*
X151209160Y-113176310D01*
X151098540Y-113341865D01*
X151098538Y-113341869D01*
X151069500Y-113487852D01*
X151069500Y-114586439D01*
X149506385Y-114586439D01*
X149116655Y-114196709D01*
X147481959Y-112562013D01*
X147478320Y-112558042D01*
X147455210Y-112530500D01*
X147424585Y-112494001D01*
X147413548Y-112487629D01*
X147387871Y-112467925D01*
X146966385Y-112046439D01*
X154369500Y-112046439D01*
X154398540Y-112192437D01*
X154441220Y-112256311D01*
X154509160Y-112357990D01*
X154674715Y-112468610D01*
X154674718Y-112468610D01*
X154674719Y-112468611D01*
X154729311Y-112479470D01*
X154820707Y-112497650D01*
X156819292Y-112497649D01*
X156965285Y-112468610D01*
X156965286Y-112468609D01*
X156965287Y-112468609D01*
X157003884Y-112442819D01*
X157130840Y-112357990D01*
X157241460Y-112192435D01*
X157270500Y-112046443D01*
X157270499Y-110947858D01*
X157241460Y-110801865D01*
X157241459Y-110801864D01*
X157241459Y-110801862D01*
X157167957Y-110691860D01*
X157130840Y-110636310D01*
X156965285Y-110525690D01*
X156965283Y-110525689D01*
X156965280Y-110525688D01*
X156819296Y-110496650D01*
X154820710Y-110496650D01*
X154674712Y-110525690D01*
X154509160Y-110636310D01*
X154398540Y-110801865D01*
X154398538Y-110801869D01*
X154369500Y-110947852D01*
X154369500Y-112046439D01*
X146966385Y-112046439D01*
X145686819Y-110766873D01*
X145650500Y-110679192D01*
X145650500Y-109207150D01*
X151070000Y-109207150D01*
X151070000Y-109506402D01*
X151099008Y-109652235D01*
X151099010Y-109652239D01*
X151209520Y-109817629D01*
X151374910Y-109928139D01*
X151374914Y-109928141D01*
X151520747Y-109957149D01*
X151520750Y-109957150D01*
X152270000Y-109957150D01*
X152270000Y-109207150D01*
X152770000Y-109207150D01*
X152770000Y-109957150D01*
X153519250Y-109957150D01*
X153519252Y-109957149D01*
X153665085Y-109928141D01*
X153665089Y-109928139D01*
X153830479Y-109817629D01*
X153940989Y-109652239D01*
X153940991Y-109652235D01*
X153969999Y-109506402D01*
X153970000Y-109506400D01*
X153970000Y-109207150D01*
X152770000Y-109207150D01*
X152270000Y-109207150D01*
X151070000Y-109207150D01*
X145650500Y-109207150D01*
X145650500Y-108707150D01*
X151070000Y-108707150D01*
X152270000Y-108707150D01*
X152270000Y-107957150D01*
X152770000Y-107957150D01*
X152770000Y-108707150D01*
X153970000Y-108707150D01*
X153970000Y-108407899D01*
X153969999Y-108407897D01*
X153940991Y-108262064D01*
X153940989Y-108262060D01*
X153830479Y-108096670D01*
X153665089Y-107986160D01*
X153665085Y-107986158D01*
X153519251Y-107957150D01*
X152770000Y-107957150D01*
X152270000Y-107957150D01*
X151520749Y-107957150D01*
X151374914Y-107986158D01*
X151374910Y-107986160D01*
X151209520Y-108096670D01*
X151099010Y-108262060D01*
X151099008Y-108262064D01*
X151070000Y-108407897D01*
X151070000Y-108707150D01*
X145650500Y-108707150D01*
X145650500Y-108511607D01*
X145686818Y-108423927D01*
X147144306Y-106966439D01*
X154369500Y-106966439D01*
X154398540Y-107112437D01*
X154453975Y-107195400D01*
X154509160Y-107277990D01*
X154674715Y-107388610D01*
X154674718Y-107388610D01*
X154674719Y-107388611D01*
X154747711Y-107403130D01*
X154820707Y-107417650D01*
X156819292Y-107417649D01*
X156965285Y-107388610D01*
X156965286Y-107388609D01*
X156965287Y-107388609D01*
X156993066Y-107370047D01*
X157130840Y-107277990D01*
X157241460Y-107112435D01*
X157270500Y-106966443D01*
X157270499Y-105867858D01*
X157241460Y-105721865D01*
X157241459Y-105721864D01*
X157241459Y-105721862D01*
X157174261Y-105621295D01*
X157130840Y-105556310D01*
X156965285Y-105445690D01*
X156965283Y-105445689D01*
X156965280Y-105445688D01*
X156819296Y-105416650D01*
X154820710Y-105416650D01*
X154674712Y-105445690D01*
X154509160Y-105556310D01*
X154398540Y-105721865D01*
X154398538Y-105721869D01*
X154369500Y-105867852D01*
X154369500Y-106966439D01*
X147144306Y-106966439D01*
X149684305Y-104426439D01*
X151069500Y-104426439D01*
X151098540Y-104572437D01*
X151172286Y-104682805D01*
X151209160Y-104737990D01*
X151374715Y-104848610D01*
X151374718Y-104848610D01*
X151374719Y-104848611D01*
X151447711Y-104863130D01*
X151520707Y-104877650D01*
X153519292Y-104877649D01*
X153665285Y-104848610D01*
X153665286Y-104848609D01*
X153665287Y-104848609D01*
X153693066Y-104830047D01*
X153830840Y-104737990D01*
X153941460Y-104572435D01*
X153970500Y-104426443D01*
X153970499Y-103327858D01*
X153941460Y-103181865D01*
X153941459Y-103181864D01*
X153941459Y-103181862D01*
X153862006Y-103062954D01*
X153830840Y-103016310D01*
X153665285Y-102905690D01*
X153665283Y-102905689D01*
X153665280Y-102905688D01*
X153519296Y-102876650D01*
X151520710Y-102876650D01*
X151374712Y-102905690D01*
X151209160Y-103016310D01*
X151098540Y-103181865D01*
X151098538Y-103181869D01*
X151069500Y-103327852D01*
X151069500Y-104426439D01*
X149684305Y-104426439D01*
X149773995Y-104336749D01*
X149777944Y-104333130D01*
X149841999Y-104279384D01*
X149883813Y-104206957D01*
X149886688Y-104202445D01*
X149934648Y-104133954D01*
X149937943Y-104121653D01*
X149950334Y-104091742D01*
X149956698Y-104080720D01*
X149956698Y-104080718D01*
X149956700Y-104080716D01*
X149971215Y-103998392D01*
X149972380Y-103993132D01*
X149994022Y-103912369D01*
X149986735Y-103829088D01*
X149986500Y-103823686D01*
X149986500Y-102270627D01*
X150016786Y-102189425D01*
X150101339Y-102091847D01*
X150128472Y-102032435D01*
X150195145Y-101886439D01*
X154369500Y-101886439D01*
X154398540Y-102032437D01*
X154464816Y-102131625D01*
X154509160Y-102197990D01*
X154674715Y-102308610D01*
X154674718Y-102308610D01*
X154674719Y-102308611D01*
X154747711Y-102323130D01*
X154820707Y-102337650D01*
X156819292Y-102337649D01*
X156965285Y-102308610D01*
X156965286Y-102308609D01*
X156965287Y-102308609D01*
X156993066Y-102290047D01*
X157130840Y-102197990D01*
X157241460Y-102032435D01*
X157270500Y-101886443D01*
X157270499Y-100787858D01*
X157241460Y-100641865D01*
X157241459Y-100641863D01*
X157241459Y-100641862D01*
X157186024Y-100558898D01*
X157130840Y-100476310D01*
X156965285Y-100365690D01*
X156965283Y-100365689D01*
X156965280Y-100365688D01*
X156819296Y-100336650D01*
X154820710Y-100336650D01*
X154674712Y-100365690D01*
X154509160Y-100476310D01*
X154398540Y-100641865D01*
X154398538Y-100641869D01*
X154369500Y-100787852D01*
X154369500Y-101886439D01*
X150195145Y-101886439D01*
X150208907Y-101856305D01*
X150208908Y-101856303D01*
X150245760Y-101599994D01*
X150208908Y-101343685D01*
X150192377Y-101307487D01*
X150101341Y-101108144D01*
X150101339Y-101108142D01*
X150101339Y-101108141D01*
X150016786Y-101010561D01*
X149986500Y-100929360D01*
X149986500Y-99346439D01*
X151069500Y-99346439D01*
X151098540Y-99492437D01*
X151163257Y-99589291D01*
X151209160Y-99657990D01*
X151374715Y-99768610D01*
X151374718Y-99768610D01*
X151374719Y-99768611D01*
X151447711Y-99783130D01*
X151520707Y-99797650D01*
X153519292Y-99797649D01*
X153665285Y-99768610D01*
X153665286Y-99768609D01*
X153665287Y-99768609D01*
X153693066Y-99750047D01*
X153830840Y-99657990D01*
X153941460Y-99492435D01*
X153970500Y-99346443D01*
X153970499Y-98247858D01*
X153941460Y-98101865D01*
X153941459Y-98101864D01*
X153941459Y-98101862D01*
X153876706Y-98004954D01*
X153830840Y-97936310D01*
X153665285Y-97825690D01*
X153665283Y-97825689D01*
X153665280Y-97825688D01*
X153519296Y-97796650D01*
X151520710Y-97796650D01*
X151374712Y-97825690D01*
X151209160Y-97936310D01*
X151098540Y-98101865D01*
X151098538Y-98101869D01*
X151069500Y-98247852D01*
X151069500Y-99346439D01*
X149986500Y-99346439D01*
X149986500Y-97066613D01*
X149986736Y-97061206D01*
X149994022Y-96977931D01*
X149977759Y-96917237D01*
X149972382Y-96897171D01*
X149971215Y-96891906D01*
X149956700Y-96809584D01*
X149954884Y-96806439D01*
X154369500Y-96806439D01*
X154398540Y-96952437D01*
X154462728Y-97048500D01*
X154509160Y-97117990D01*
X154674715Y-97228610D01*
X154674718Y-97228610D01*
X154674719Y-97228611D01*
X154747711Y-97243130D01*
X154820707Y-97257650D01*
X156819292Y-97257649D01*
X156965285Y-97228610D01*
X156965286Y-97228609D01*
X156965287Y-97228609D01*
X156993066Y-97210047D01*
X157130840Y-97117990D01*
X157241460Y-96952435D01*
X157270500Y-96806443D01*
X157270499Y-95707858D01*
X157241460Y-95561865D01*
X157241459Y-95561864D01*
X157241459Y-95561862D01*
X157180643Y-95470846D01*
X157130840Y-95396310D01*
X156965285Y-95285690D01*
X156965283Y-95285689D01*
X156965280Y-95285688D01*
X156819296Y-95256650D01*
X154820710Y-95256650D01*
X154674712Y-95285690D01*
X154509160Y-95396310D01*
X154398540Y-95561865D01*
X154398538Y-95561869D01*
X154369500Y-95707852D01*
X154369500Y-96806439D01*
X149954884Y-96806439D01*
X149950330Y-96798550D01*
X149937943Y-96768644D01*
X149934648Y-96756347D01*
X149934648Y-96756346D01*
X149886696Y-96687866D01*
X149883808Y-96683334D01*
X149841999Y-96610916D01*
X149777950Y-96557172D01*
X149773966Y-96553521D01*
X149572819Y-96352373D01*
X149536500Y-96264692D01*
X149536500Y-95701777D01*
X149522603Y-95606395D01*
X149515245Y-95555894D01*
X149405239Y-95330872D01*
X149405237Y-95330870D01*
X149405237Y-95330869D01*
X149285049Y-95210681D01*
X149248730Y-95123000D01*
X149285049Y-95035319D01*
X149405237Y-94915130D01*
X149405239Y-94915128D01*
X149515245Y-94690106D01*
X149536500Y-94544222D01*
X149536500Y-94266439D01*
X151069500Y-94266439D01*
X151098540Y-94412437D01*
X151172286Y-94522805D01*
X151209160Y-94577990D01*
X151374715Y-94688610D01*
X151374718Y-94688610D01*
X151374719Y-94688611D01*
X151447711Y-94703130D01*
X151520707Y-94717650D01*
X153519292Y-94717649D01*
X153665285Y-94688610D01*
X153665286Y-94688609D01*
X153665287Y-94688609D01*
X153693066Y-94670047D01*
X153830840Y-94577990D01*
X153941460Y-94412435D01*
X153970500Y-94266443D01*
X153970499Y-93167858D01*
X153941460Y-93021865D01*
X153941459Y-93021864D01*
X153941459Y-93021862D01*
X153886024Y-92938898D01*
X153830840Y-92856310D01*
X153665285Y-92745690D01*
X153665283Y-92745689D01*
X153665280Y-92745688D01*
X153519296Y-92716650D01*
X151520710Y-92716650D01*
X151374712Y-92745690D01*
X151209160Y-92856310D01*
X151098540Y-93021865D01*
X151098538Y-93021869D01*
X151069500Y-93167852D01*
X151069500Y-94266439D01*
X149536500Y-94266439D01*
X149536500Y-93876778D01*
X149515245Y-93730894D01*
X149405239Y-93505872D01*
X149405237Y-93505870D01*
X149405237Y-93505869D01*
X149228130Y-93328762D01*
X149003104Y-93218754D01*
X148857223Y-93197500D01*
X148857222Y-93197500D01*
X147814778Y-93197500D01*
X147814777Y-93197500D01*
X147668898Y-93218753D01*
X147668894Y-93218755D01*
X147545357Y-93279148D01*
X147450633Y-93285028D01*
X147403216Y-93255428D01*
X147176819Y-93029031D01*
X147140500Y-92941350D01*
X147140500Y-91726439D01*
X154369500Y-91726439D01*
X154398540Y-91872437D01*
X154472286Y-91982805D01*
X154509160Y-92037990D01*
X154674715Y-92148610D01*
X154674718Y-92148610D01*
X154674719Y-92148611D01*
X154747711Y-92163130D01*
X154820707Y-92177650D01*
X156819292Y-92177649D01*
X156965285Y-92148610D01*
X156965286Y-92148609D01*
X156965287Y-92148609D01*
X156993066Y-92130047D01*
X157130840Y-92037990D01*
X157241460Y-91872435D01*
X157270500Y-91726443D01*
X157270499Y-90627858D01*
X157241460Y-90481865D01*
X157241459Y-90481864D01*
X157241459Y-90481862D01*
X157185998Y-90398860D01*
X157130840Y-90316310D01*
X156965285Y-90205690D01*
X156965283Y-90205689D01*
X156965280Y-90205688D01*
X156819296Y-90176650D01*
X154820710Y-90176650D01*
X154674712Y-90205690D01*
X154509160Y-90316310D01*
X154398540Y-90481865D01*
X154398538Y-90481869D01*
X154369500Y-90627852D01*
X154369500Y-91726439D01*
X147140500Y-91726439D01*
X147140500Y-89186439D01*
X151069500Y-89186439D01*
X151098540Y-89332437D01*
X151148536Y-89407260D01*
X151209160Y-89497990D01*
X151374715Y-89608610D01*
X151374718Y-89608610D01*
X151374719Y-89608611D01*
X151447711Y-89623130D01*
X151520707Y-89637650D01*
X153519292Y-89637649D01*
X153665285Y-89608610D01*
X153665286Y-89608609D01*
X153665287Y-89608609D01*
X153693066Y-89590047D01*
X153830840Y-89497990D01*
X153941460Y-89332435D01*
X153970500Y-89186443D01*
X153970499Y-88087858D01*
X153941460Y-87941865D01*
X153941459Y-87941864D01*
X153941459Y-87941862D01*
X153863880Y-87825758D01*
X153830840Y-87776310D01*
X153665285Y-87665690D01*
X153665283Y-87665689D01*
X153665280Y-87665688D01*
X153519296Y-87636650D01*
X151520710Y-87636650D01*
X151374712Y-87665690D01*
X151209160Y-87776310D01*
X151098540Y-87941865D01*
X151098538Y-87941869D01*
X151069500Y-88087852D01*
X151069500Y-89186439D01*
X147140500Y-89186439D01*
X147140500Y-86054050D01*
X147176819Y-85966369D01*
X152715969Y-80427219D01*
X152803650Y-80390900D01*
X152985501Y-80390900D01*
X153073182Y-80427219D01*
G37*
%TD.AperFunction*%
%TA.AperFunction,Conductor*%
G36*
X145824031Y-100290819D02*
G01*
X146454965Y-100921753D01*
X146491284Y-101009434D01*
X146454965Y-101097115D01*
X146367284Y-101133434D01*
X146358323Y-101133110D01*
X146356805Y-101133000D01*
X146313000Y-101133000D01*
X146313000Y-103082999D01*
X146356800Y-103082999D01*
X146497730Y-103062467D01*
X146545038Y-103039339D01*
X146639761Y-103033457D01*
X146710900Y-103096277D01*
X146723500Y-103150739D01*
X146723500Y-103807649D01*
X146712294Y-103859160D01*
X146701092Y-103883688D01*
X146671823Y-104087253D01*
X146636766Y-104157286D01*
X140980873Y-109813181D01*
X140893192Y-109849500D01*
X138801773Y-109849500D01*
X138714092Y-109813181D01*
X138677773Y-109725500D01*
X138698670Y-109656611D01*
X138701459Y-109652436D01*
X138701458Y-109652436D01*
X138701460Y-109652435D01*
X138730500Y-109506443D01*
X138730499Y-108407858D01*
X138701460Y-108261865D01*
X138701459Y-108261864D01*
X138701459Y-108261862D01*
X138635192Y-108162688D01*
X138590840Y-108096310D01*
X138425285Y-107985690D01*
X138425283Y-107985689D01*
X138425280Y-107985688D01*
X138279296Y-107956650D01*
X136280710Y-107956650D01*
X136134712Y-107985690D01*
X135969160Y-108096310D01*
X135858540Y-108261865D01*
X135858538Y-108261869D01*
X135829500Y-108407852D01*
X135829500Y-109506439D01*
X135829501Y-109506442D01*
X135858500Y-109652235D01*
X135858541Y-109652438D01*
X135861329Y-109656611D01*
X135862308Y-109661534D01*
X135863214Y-109663721D01*
X135862779Y-109663901D01*
X135879843Y-109749693D01*
X135827115Y-109828603D01*
X135758226Y-109849500D01*
X135092808Y-109849500D01*
X135005127Y-109813181D01*
X134937232Y-109745286D01*
X134902175Y-109675253D01*
X134872908Y-109471691D01*
X134872906Y-109471684D01*
X134765341Y-109236151D01*
X134765340Y-109236150D01*
X134765339Y-109236147D01*
X134765336Y-109236144D01*
X134762148Y-109231182D01*
X134745298Y-109137784D01*
X134799425Y-109059827D01*
X134831526Y-109045167D01*
X134877928Y-109031543D01*
X134978641Y-108966819D01*
X135067946Y-108909426D01*
X135095766Y-108891547D01*
X135265339Y-108695849D01*
X135316507Y-108583807D01*
X135372906Y-108460311D01*
X135372908Y-108460303D01*
X135372916Y-108460246D01*
X135402175Y-108256741D01*
X135437230Y-108186710D01*
X136765123Y-106858819D01*
X136852804Y-106822500D01*
X137796890Y-106822500D01*
X137802293Y-106822735D01*
X137885569Y-106830022D01*
X137885569Y-106830021D01*
X137885570Y-106830022D01*
X137913641Y-106822500D01*
X137966332Y-106808380D01*
X137971592Y-106807215D01*
X138053916Y-106792700D01*
X138053918Y-106792698D01*
X138053920Y-106792698D01*
X138064942Y-106786334D01*
X138094853Y-106773943D01*
X138107154Y-106770648D01*
X138175645Y-106722688D01*
X138180157Y-106719813D01*
X138252584Y-106677999D01*
X138306332Y-106613942D01*
X138309951Y-106609993D01*
X138917820Y-106002124D01*
X139005500Y-105965806D01*
X139093181Y-106002125D01*
X139129500Y-106089806D01*
X139129500Y-106966439D01*
X139158540Y-107112437D01*
X139213975Y-107195400D01*
X139269160Y-107277990D01*
X139434715Y-107388610D01*
X139434718Y-107388610D01*
X139434719Y-107388611D01*
X139507711Y-107403130D01*
X139580707Y-107417650D01*
X141579292Y-107417649D01*
X141725285Y-107388610D01*
X141725286Y-107388609D01*
X141725287Y-107388609D01*
X141753066Y-107370047D01*
X141890840Y-107277990D01*
X142001460Y-107112435D01*
X142030500Y-106966443D01*
X142030499Y-105867858D01*
X142001460Y-105721865D01*
X142001459Y-105721864D01*
X142001459Y-105721862D01*
X141934261Y-105621295D01*
X141890840Y-105556310D01*
X141725285Y-105445690D01*
X141725283Y-105445689D01*
X141725280Y-105445688D01*
X141579296Y-105416650D01*
X139802656Y-105416650D01*
X139714975Y-105380331D01*
X139678656Y-105292650D01*
X139714974Y-105204970D01*
X143371857Y-101548087D01*
X143459537Y-101511769D01*
X143547218Y-101548088D01*
X143583537Y-101635769D01*
X143582242Y-101653642D01*
X143562500Y-101789145D01*
X143562500Y-101789149D01*
X143562500Y-101789150D01*
X143562500Y-102426848D01*
X143583046Y-102567874D01*
X143689389Y-102785403D01*
X143860596Y-102956610D01*
X143860597Y-102956610D01*
X143860599Y-102956612D01*
X144078126Y-103062954D01*
X144219145Y-103083500D01*
X144806854Y-103083499D01*
X144947874Y-103062954D01*
X145165401Y-102956612D01*
X145200671Y-102921341D01*
X145288350Y-102885021D01*
X145376032Y-102921338D01*
X145410891Y-102956197D01*
X145628270Y-103062467D01*
X145769198Y-103082999D01*
X145812999Y-103082999D01*
X145813000Y-103082998D01*
X145813000Y-101133000D01*
X145769199Y-101133000D01*
X145628269Y-101153532D01*
X145410888Y-101259803D01*
X145409548Y-101260761D01*
X145408376Y-101261031D01*
X145401663Y-101264314D01*
X145400903Y-101262760D01*
X145317084Y-101282148D01*
X145236579Y-101231888D01*
X145213500Y-101159840D01*
X145213500Y-100684518D01*
X145249819Y-100596837D01*
X145555838Y-100290819D01*
X145643519Y-100254500D01*
X145736350Y-100254500D01*
X145824031Y-100290819D01*
G37*
%TD.AperFunction*%
%TA.AperFunction,Conductor*%
G36*
X158912181Y-68109945D02*
G01*
X159986137Y-69183901D01*
X160022456Y-69271582D01*
X160000000Y-69325795D01*
X160000000Y-70320400D01*
X160750000Y-70320400D01*
X160750000Y-70247125D01*
X160786319Y-70159444D01*
X160874000Y-70123125D01*
X160961679Y-70159443D01*
X164556074Y-73753837D01*
X171463181Y-80660944D01*
X171499500Y-80748625D01*
X171499500Y-81463528D01*
X171486901Y-81517988D01*
X171420754Y-81653295D01*
X171399500Y-81799177D01*
X171399500Y-82475900D01*
X171363181Y-82563581D01*
X171275500Y-82599900D01*
X169084500Y-82599900D01*
X168996819Y-82563581D01*
X168960500Y-82475900D01*
X168960500Y-80225295D01*
X168960499Y-80225292D01*
X168942574Y-80170124D01*
X168938033Y-80151209D01*
X168928957Y-80093905D01*
X168917853Y-80072112D01*
X168902617Y-80042209D01*
X168895172Y-80024236D01*
X168877247Y-79969067D01*
X168843145Y-79922129D01*
X168832981Y-79905543D01*
X168806646Y-79853857D01*
X168806642Y-79853853D01*
X168806641Y-79853851D01*
X168616143Y-79663354D01*
X168616142Y-79663353D01*
X167423441Y-78470652D01*
X166214087Y-77261298D01*
X166006148Y-77053358D01*
X166006144Y-77053355D01*
X166006143Y-77053354D01*
X166003612Y-77052064D01*
X165954455Y-77027017D01*
X165937865Y-77016851D01*
X165890931Y-76982751D01*
X165835754Y-76964822D01*
X165817781Y-76957377D01*
X165766097Y-76931043D01*
X165766093Y-76931042D01*
X165708796Y-76921967D01*
X165689877Y-76917425D01*
X165634711Y-76899501D01*
X165634707Y-76899500D01*
X165634706Y-76899500D01*
X165566939Y-76899500D01*
X161527413Y-76899500D01*
X161439732Y-76863181D01*
X161403413Y-76775500D01*
X161439732Y-76687819D01*
X161469783Y-76665705D01*
X161715583Y-76536700D01*
X161942888Y-76335326D01*
X162115396Y-76085405D01*
X162223081Y-75801462D01*
X162259685Y-75500000D01*
X162235836Y-75303581D01*
X162223081Y-75198537D01*
X162160735Y-75034145D01*
X162115396Y-74914595D01*
X161942888Y-74664674D01*
X161893370Y-74620805D01*
X161715585Y-74463301D01*
X161446686Y-74322172D01*
X161151838Y-74249500D01*
X160848162Y-74249500D01*
X160553313Y-74322172D01*
X160284414Y-74463301D01*
X160194869Y-74542632D01*
X160121176Y-74607919D01*
X160109441Y-74618315D01*
X160027214Y-74649500D01*
X159415694Y-74649500D01*
X159360519Y-74667426D01*
X159341604Y-74671967D01*
X159284307Y-74681042D01*
X159284301Y-74681044D01*
X159232613Y-74707380D01*
X159214642Y-74714824D01*
X159159467Y-74732752D01*
X159112533Y-74766852D01*
X159095942Y-74777018D01*
X159075772Y-74787295D01*
X159035984Y-74790426D01*
X159011646Y-74835964D01*
X158996341Y-74851270D01*
X156572181Y-77275430D01*
X156484500Y-77311749D01*
X156396819Y-77275430D01*
X156360500Y-77187749D01*
X156360500Y-74832478D01*
X156396819Y-74744797D01*
X156445036Y-74719025D01*
X156444004Y-74716533D01*
X156455285Y-74711860D01*
X156461990Y-74707380D01*
X156591110Y-74621104D01*
X156684191Y-74602590D01*
X156728888Y-74621104D01*
X156864715Y-74711860D01*
X156864718Y-74711860D01*
X156864719Y-74711861D01*
X156888207Y-74716533D01*
X157010707Y-74740900D01*
X158609292Y-74740899D01*
X158755285Y-74711860D01*
X158855069Y-74645186D01*
X158902916Y-74635668D01*
X158916376Y-74607919D01*
X158920837Y-74601241D01*
X158920840Y-74601240D01*
X159031460Y-74435685D01*
X159060500Y-74289693D01*
X159060499Y-72191108D01*
X159031460Y-72045115D01*
X159031459Y-72045114D01*
X159031459Y-72045112D01*
X158960000Y-71938167D01*
X158920840Y-71879560D01*
X158794885Y-71795400D01*
X158755284Y-71768939D01*
X158744003Y-71764267D01*
X158745696Y-71760178D01*
X158681392Y-71717205D01*
X158660500Y-71648322D01*
X158660500Y-71597629D01*
X158696816Y-71509951D01*
X158700008Y-71506759D01*
X158712670Y-71494096D01*
X158800349Y-71457775D01*
X158888031Y-71494091D01*
X159058166Y-71664226D01*
X159058169Y-71664228D01*
X159283035Y-71774158D01*
X159428830Y-71795400D01*
X159500000Y-71795400D01*
X159500000Y-70820400D01*
X160000000Y-70820400D01*
X160000000Y-71795400D01*
X160071170Y-71795400D01*
X160216964Y-71774158D01*
X160441830Y-71664228D01*
X160441833Y-71664226D01*
X160618826Y-71487233D01*
X160618828Y-71487230D01*
X160728758Y-71262364D01*
X160750000Y-71116570D01*
X160750000Y-70820400D01*
X160000000Y-70820400D01*
X159500000Y-70820400D01*
X159500000Y-69345400D01*
X159428830Y-69345400D01*
X159283035Y-69366641D01*
X159058169Y-69476571D01*
X159058166Y-69476573D01*
X158912181Y-69622559D01*
X158824500Y-69658878D01*
X158736819Y-69622559D01*
X158700500Y-69534878D01*
X158700500Y-68197626D01*
X158736819Y-68109945D01*
X158824500Y-68073626D01*
X158912181Y-68109945D01*
G37*
%TD.AperFunction*%
%TA.AperFunction,Conductor*%
G36*
X139325431Y-66736819D02*
G01*
X139361750Y-66824500D01*
X139325431Y-66912180D01*
X138643858Y-67593753D01*
X138513859Y-67723752D01*
X138513857Y-67723754D01*
X138323354Y-67914255D01*
X138297018Y-67965942D01*
X138286854Y-67982527D01*
X138252754Y-68029463D01*
X138252752Y-68029467D01*
X138252752Y-68029468D01*
X138234823Y-68084645D01*
X138227381Y-68102610D01*
X138201042Y-68154305D01*
X138191967Y-68211604D01*
X138187425Y-68230523D01*
X138169501Y-68285688D01*
X138169500Y-68285696D01*
X138169500Y-69947302D01*
X138151859Y-70002371D01*
X138155274Y-70004041D01*
X138150761Y-70013271D01*
X138150761Y-70013272D01*
X138140541Y-70034177D01*
X138040754Y-70238295D01*
X138019500Y-70384177D01*
X138019500Y-71476622D01*
X138040754Y-71622504D01*
X138040755Y-71622506D01*
X138148020Y-71841922D01*
X138155274Y-71856759D01*
X138151854Y-71858430D01*
X138169500Y-71913497D01*
X138169500Y-72162463D01*
X138133181Y-72250144D01*
X138069691Y-72284080D01*
X137944715Y-72308939D01*
X137944711Y-72308940D01*
X137808889Y-72399694D01*
X137715807Y-72418209D01*
X137671108Y-72399694D01*
X137535285Y-72308940D01*
X137535283Y-72308939D01*
X137535280Y-72308938D01*
X137389296Y-72279900D01*
X137389293Y-72279900D01*
X137254500Y-72279900D01*
X137166819Y-72243581D01*
X137130500Y-72155900D01*
X137130500Y-71883497D01*
X137148145Y-71828430D01*
X137144726Y-71826759D01*
X137149383Y-71817233D01*
X137259245Y-71592506D01*
X137280500Y-71446622D01*
X137280500Y-70354178D01*
X137259245Y-70208294D01*
X137149239Y-69983272D01*
X137149237Y-69983270D01*
X137149237Y-69983269D01*
X136972130Y-69806162D01*
X136747104Y-69696154D01*
X136601223Y-69674900D01*
X136601222Y-69674900D01*
X135958778Y-69674900D01*
X135958777Y-69674900D01*
X135812895Y-69696154D01*
X135587869Y-69806162D01*
X135417327Y-69976705D01*
X135329646Y-70013024D01*
X135241965Y-69976705D01*
X135071833Y-69806573D01*
X135071830Y-69806571D01*
X134846964Y-69696641D01*
X134701170Y-69675400D01*
X134630000Y-69675400D01*
X134630000Y-71026400D01*
X134593681Y-71114081D01*
X134506000Y-71150400D01*
X133380000Y-71150400D01*
X133380000Y-71446570D01*
X133401241Y-71592364D01*
X133511171Y-71817230D01*
X133511173Y-71817233D01*
X133688166Y-71994226D01*
X133792025Y-72045000D01*
X133854845Y-72116137D01*
X133848964Y-72210861D01*
X133777827Y-72273681D01*
X133737564Y-72280400D01*
X133490749Y-72280400D01*
X133344914Y-72309408D01*
X133344910Y-72309410D01*
X133179520Y-72419920D01*
X133069010Y-72585310D01*
X133069008Y-72585314D01*
X133040000Y-72731147D01*
X133040000Y-73530400D01*
X134416000Y-73530400D01*
X134503681Y-73566719D01*
X134540000Y-73654400D01*
X134540000Y-75280400D01*
X135089250Y-75280400D01*
X135089252Y-75280399D01*
X135235085Y-75251391D01*
X135235089Y-75251389D01*
X135370660Y-75160805D01*
X135463742Y-75142290D01*
X135508439Y-75160804D01*
X135644715Y-75251860D01*
X135644719Y-75251860D01*
X135656001Y-75256535D01*
X135654305Y-75260627D01*
X135718598Y-75303581D01*
X135739500Y-75372478D01*
X135739500Y-78455900D01*
X135703181Y-78543581D01*
X135615500Y-78579900D01*
X134640710Y-78579900D01*
X134494712Y-78608940D01*
X134329160Y-78719560D01*
X134218540Y-78885115D01*
X134218538Y-78885119D01*
X134189500Y-79031102D01*
X134189500Y-79255900D01*
X134153181Y-79343581D01*
X134065500Y-79379900D01*
X132921919Y-79379900D01*
X132834238Y-79343581D01*
X131736819Y-78246162D01*
X131700500Y-78158481D01*
X131700500Y-76605870D01*
X131736819Y-76518189D01*
X131742258Y-76513067D01*
X131942888Y-76335326D01*
X132115396Y-76085405D01*
X132223081Y-75801462D01*
X132259685Y-75500000D01*
X132235836Y-75303581D01*
X132223081Y-75198537D01*
X132160735Y-75034145D01*
X132115396Y-74914595D01*
X131942888Y-74664674D01*
X131893370Y-74620805D01*
X131715585Y-74463301D01*
X131446686Y-74322172D01*
X131151838Y-74249500D01*
X130848162Y-74249500D01*
X130553313Y-74322172D01*
X130284414Y-74463301D01*
X130057113Y-74664672D01*
X129884605Y-74914593D01*
X129884604Y-74914594D01*
X129776918Y-75198537D01*
X129740315Y-75499999D01*
X129740315Y-75500000D01*
X129776918Y-75801462D01*
X129884604Y-76085405D01*
X130057112Y-76335326D01*
X130257727Y-76513055D01*
X130299274Y-76598383D01*
X130299500Y-76605870D01*
X130299500Y-78414487D01*
X130296861Y-78439933D01*
X130290420Y-78470652D01*
X130290420Y-78470653D01*
X130299023Y-78539672D01*
X130299500Y-78547348D01*
X130299500Y-78558045D01*
X130306668Y-78601003D01*
X130314042Y-78660161D01*
X130288850Y-78751661D01*
X130206335Y-78798548D01*
X130190995Y-78799500D01*
X129085514Y-78799500D01*
X129060068Y-78796861D01*
X129041487Y-78792965D01*
X129029349Y-78790420D01*
X129029348Y-78790420D01*
X129029347Y-78790420D01*
X128960327Y-78799023D01*
X128952651Y-78799500D01*
X128941954Y-78799500D01*
X128898993Y-78806668D01*
X128797353Y-78819338D01*
X128787514Y-78822268D01*
X128787442Y-78822026D01*
X128779038Y-78824718D01*
X128779121Y-78824958D01*
X128769403Y-78828294D01*
X128679332Y-78877037D01*
X128587329Y-78922014D01*
X128578971Y-78927983D01*
X128578823Y-78927776D01*
X128571748Y-78933052D01*
X128571903Y-78933252D01*
X128563792Y-78939564D01*
X128534569Y-78971310D01*
X128494423Y-79014920D01*
X128197432Y-79311911D01*
X127517138Y-79992204D01*
X127497282Y-80008329D01*
X127471007Y-80025496D01*
X127471004Y-80025499D01*
X127428283Y-80080384D01*
X127423198Y-80086142D01*
X127415633Y-80093708D01*
X127415627Y-80093716D01*
X127390317Y-80129164D01*
X127327409Y-80209989D01*
X127322517Y-80219029D01*
X127322295Y-80218909D01*
X127318260Y-80226747D01*
X127318488Y-80226859D01*
X127313974Y-80236090D01*
X127284753Y-80334245D01*
X127251499Y-80431106D01*
X127249809Y-80441240D01*
X127249558Y-80441198D01*
X127248286Y-80449930D01*
X127248539Y-80449962D01*
X127247267Y-80460159D01*
X127251500Y-80562477D01*
X127251500Y-80984666D01*
X127215181Y-81072347D01*
X127127500Y-81108666D01*
X127092566Y-81103643D01*
X126875474Y-81039900D01*
X126875472Y-81039900D01*
X126616528Y-81039900D01*
X126616527Y-81039900D01*
X126368072Y-81112852D01*
X126368069Y-81112853D01*
X126150238Y-81252845D01*
X126150236Y-81252847D01*
X126150234Y-81252848D01*
X126150234Y-81252849D01*
X126107427Y-81302251D01*
X125980661Y-81448547D01*
X125980658Y-81448550D01*
X125873092Y-81684088D01*
X125854718Y-81811878D01*
X125806290Y-81893498D01*
X125714332Y-81916968D01*
X125644300Y-81881911D01*
X125309087Y-81546698D01*
X125101148Y-81338758D01*
X125101144Y-81338755D01*
X125101143Y-81338754D01*
X125098612Y-81337464D01*
X125049455Y-81312417D01*
X125032865Y-81302251D01*
X124985931Y-81268151D01*
X124930754Y-81250222D01*
X124912781Y-81242777D01*
X124861097Y-81216443D01*
X124861093Y-81216442D01*
X124803796Y-81207367D01*
X124784877Y-81202825D01*
X124729711Y-81184901D01*
X124729707Y-81184900D01*
X124729706Y-81184900D01*
X124729705Y-81184900D01*
X124141088Y-81184900D01*
X124086628Y-81172301D01*
X123949874Y-81105446D01*
X123808855Y-81084900D01*
X123808848Y-81084900D01*
X123171151Y-81084900D01*
X123030124Y-81105446D01*
X122893372Y-81172301D01*
X122838912Y-81184900D01*
X120579706Y-81184900D01*
X120310294Y-81184900D01*
X120310292Y-81184900D01*
X120310288Y-81184901D01*
X120255123Y-81202825D01*
X120236204Y-81207367D01*
X120178907Y-81216441D01*
X120172816Y-81218421D01*
X120078203Y-81210973D01*
X120016568Y-81138805D01*
X120010500Y-81100489D01*
X120010500Y-80804026D01*
X120046819Y-80716345D01*
X126732764Y-74030400D01*
X133040000Y-74030400D01*
X133040000Y-74829652D01*
X133069008Y-74975485D01*
X133069010Y-74975489D01*
X133179520Y-75140879D01*
X133344910Y-75251389D01*
X133344914Y-75251391D01*
X133490747Y-75280399D01*
X133490750Y-75280400D01*
X134040000Y-75280400D01*
X134040000Y-74030400D01*
X133040000Y-74030400D01*
X126732764Y-74030400D01*
X130112764Y-70650400D01*
X133380000Y-70650400D01*
X134130000Y-70650400D01*
X134130000Y-69675400D01*
X134058830Y-69675400D01*
X133913035Y-69696641D01*
X133688169Y-69806571D01*
X133688166Y-69806573D01*
X133511173Y-69983566D01*
X133511171Y-69983569D01*
X133401241Y-70208435D01*
X133380000Y-70354229D01*
X133380000Y-70650400D01*
X130112764Y-70650400D01*
X134026345Y-66736819D01*
X134114026Y-66700500D01*
X139237750Y-66700500D01*
X139325431Y-66736819D01*
G37*
%TD.AperFunction*%
%TA.AperFunction,Conductor*%
G36*
X145598194Y-67736818D02*
G01*
X145634513Y-67824499D01*
X145598194Y-67912180D01*
X145591465Y-67917878D01*
X145589609Y-67919735D01*
X145586808Y-67921823D01*
X145582563Y-67925419D01*
X145578966Y-67927987D01*
X145578818Y-67927780D01*
X145571748Y-67933052D01*
X145571903Y-67933252D01*
X145563792Y-67939564D01*
X145524243Y-67982527D01*
X145494423Y-68014920D01*
X144647547Y-68861796D01*
X142131681Y-71377661D01*
X142044000Y-71413980D01*
X141956319Y-71377661D01*
X141920000Y-71289980D01*
X141920000Y-71180400D01*
X141170000Y-71180400D01*
X141170000Y-72155400D01*
X141174290Y-72159690D01*
X141210609Y-72247371D01*
X141174290Y-72335052D01*
X140565138Y-72944204D01*
X140545282Y-72960329D01*
X140519007Y-72977496D01*
X140519004Y-72977499D01*
X140476283Y-73032384D01*
X140471198Y-73038142D01*
X140463633Y-73045708D01*
X140463627Y-73045716D01*
X140438317Y-73081164D01*
X140375408Y-73161990D01*
X140373549Y-73165426D01*
X140371336Y-73167222D01*
X140369100Y-73170096D01*
X140368434Y-73169578D01*
X140299871Y-73225248D01*
X140205473Y-73215450D01*
X140145651Y-73141772D01*
X140140499Y-73106400D01*
X140140499Y-72731110D01*
X140140499Y-72731108D01*
X140111460Y-72585115D01*
X140111459Y-72585114D01*
X140111459Y-72585112D01*
X140000840Y-72419560D01*
X140000837Y-72419557D01*
X139925609Y-72369291D01*
X139872882Y-72290379D01*
X139870500Y-72266189D01*
X139870500Y-71965922D01*
X139906819Y-71878241D01*
X139994500Y-71841922D01*
X140082181Y-71878241D01*
X140228166Y-72024226D01*
X140228169Y-72024228D01*
X140453035Y-72134158D01*
X140598830Y-72155400D01*
X140670000Y-72155400D01*
X140670000Y-69705400D01*
X141170000Y-69705400D01*
X141170000Y-70680400D01*
X141920000Y-70680400D01*
X141920000Y-70384229D01*
X141898758Y-70238435D01*
X141788828Y-70013569D01*
X141788826Y-70013566D01*
X141611833Y-69836573D01*
X141611830Y-69836571D01*
X141386964Y-69726641D01*
X141241170Y-69705400D01*
X141170000Y-69705400D01*
X140670000Y-69705400D01*
X140598830Y-69705400D01*
X140453035Y-69726641D01*
X140228169Y-69836571D01*
X140228166Y-69836573D01*
X140082181Y-69982559D01*
X139994500Y-70018878D01*
X139906819Y-69982559D01*
X139870500Y-69894878D01*
X139870500Y-68824050D01*
X139906819Y-68736369D01*
X140815969Y-67827219D01*
X140903650Y-67790900D01*
X145134704Y-67790900D01*
X145134706Y-67790900D01*
X145189877Y-67772972D01*
X145208785Y-67768432D01*
X145266095Y-67759357D01*
X145317793Y-67733015D01*
X145335754Y-67725575D01*
X145378495Y-67711688D01*
X145394260Y-67706567D01*
X145432575Y-67700499D01*
X145510513Y-67700499D01*
X145598194Y-67736818D01*
G37*
%TD.AperFunction*%
%TA.AperFunction,Conductor*%
G36*
X148212213Y-47590358D02*
G01*
X150238796Y-47709872D01*
X152259125Y-47908857D01*
X154270084Y-48187007D01*
X156268572Y-48543891D01*
X158251509Y-48978961D01*
X160215836Y-49491546D01*
X162158524Y-50080854D01*
X164076579Y-50745977D01*
X165967042Y-51485890D01*
X167826999Y-52299452D01*
X169653582Y-53185408D01*
X171443974Y-54142393D01*
X173195415Y-55168930D01*
X174905203Y-56263437D01*
X176570704Y-57424226D01*
X178189348Y-58649507D01*
X179758639Y-59937393D01*
X181276159Y-61285893D01*
X182739567Y-62692933D01*
X184146607Y-64156341D01*
X185495107Y-65673861D01*
X186782993Y-67243152D01*
X188008274Y-68861796D01*
X189169063Y-70527297D01*
X190263570Y-72237085D01*
X191290107Y-73988526D01*
X192247092Y-75778918D01*
X193133048Y-77605501D01*
X193946610Y-79465458D01*
X194686523Y-81355921D01*
X195351646Y-83273976D01*
X195940954Y-85216664D01*
X196453539Y-87180991D01*
X196888609Y-89163928D01*
X197245493Y-91162416D01*
X197523643Y-93173375D01*
X197722628Y-95193704D01*
X197842142Y-97220287D01*
X197882000Y-99250000D01*
X197842142Y-101279713D01*
X197722628Y-103306296D01*
X197523643Y-105326625D01*
X197245493Y-107337584D01*
X196888609Y-109336072D01*
X196453539Y-111319009D01*
X195940954Y-113283336D01*
X195351646Y-115226024D01*
X194686523Y-117144079D01*
X193946610Y-119034542D01*
X193133048Y-120894499D01*
X192247092Y-122721082D01*
X191290107Y-124511474D01*
X190263570Y-126262915D01*
X189169063Y-127972703D01*
X188008274Y-129638204D01*
X186782993Y-131256848D01*
X185495107Y-132826139D01*
X184146607Y-134343659D01*
X182739567Y-135807067D01*
X181276159Y-137214107D01*
X179758639Y-138562607D01*
X178189348Y-139850493D01*
X176570704Y-141075774D01*
X174905203Y-142236563D01*
X173195415Y-143331070D01*
X171443974Y-144357607D01*
X169653582Y-145314592D01*
X167826999Y-146200548D01*
X165967042Y-147014110D01*
X164076579Y-147754023D01*
X162158524Y-148419146D01*
X160215836Y-149008454D01*
X158251509Y-149521039D01*
X156268572Y-149956109D01*
X154270084Y-150312993D01*
X152259125Y-150591143D01*
X150238796Y-150790128D01*
X148212213Y-150909642D01*
X146182500Y-150949500D01*
X144152787Y-150909642D01*
X142126204Y-150790128D01*
X140105875Y-150591143D01*
X138094916Y-150312993D01*
X136608157Y-150047492D01*
X143806058Y-150047492D01*
X144053488Y-150177355D01*
X144053487Y-150177355D01*
X144348223Y-150250000D01*
X144651777Y-150250000D01*
X144946513Y-150177354D01*
X145193940Y-150047493D01*
X145193940Y-150047492D01*
X144500001Y-149353553D01*
X144500000Y-149353553D01*
X143806058Y-150047492D01*
X136608157Y-150047492D01*
X136096428Y-149956109D01*
X134113491Y-149521039D01*
X132149164Y-149008454D01*
X132121295Y-149000000D01*
X143240819Y-149000000D01*
X143277408Y-149301340D01*
X143277409Y-149301345D01*
X143385051Y-149585171D01*
X143385051Y-149585172D01*
X143457016Y-149689429D01*
X144146447Y-149000000D01*
X144853553Y-149000000D01*
X145542982Y-149689430D01*
X145614948Y-149585172D01*
X145722590Y-149301345D01*
X145722591Y-149301340D01*
X145759180Y-149000000D01*
X145722591Y-148698659D01*
X145722590Y-148698654D01*
X145614948Y-148414828D01*
X145614947Y-148414827D01*
X145542982Y-148310568D01*
X144853553Y-148999999D01*
X144853553Y-149000000D01*
X144146447Y-149000000D01*
X143457015Y-148310568D01*
X143385052Y-148414827D01*
X143385051Y-148414828D01*
X143277409Y-148698654D01*
X143277408Y-148698659D01*
X143240819Y-149000000D01*
X132121295Y-149000000D01*
X130206476Y-148419146D01*
X128860798Y-147952506D01*
X143806058Y-147952506D01*
X144500000Y-148646447D01*
X144500001Y-148646447D01*
X145193940Y-147952506D01*
X144946508Y-147822643D01*
X144651777Y-147750000D01*
X144348223Y-147750000D01*
X144053491Y-147822643D01*
X143806058Y-147952506D01*
X128860798Y-147952506D01*
X128288421Y-147754023D01*
X126397958Y-147014110D01*
X124538001Y-146200548D01*
X122711418Y-145314592D01*
X121687227Y-144767150D01*
X135830000Y-144767150D01*
X135830000Y-145066402D01*
X135859008Y-145212235D01*
X135859010Y-145212239D01*
X135969520Y-145377629D01*
X136134910Y-145488139D01*
X136134914Y-145488141D01*
X136280747Y-145517149D01*
X136280750Y-145517150D01*
X137030000Y-145517150D01*
X137030000Y-144767150D01*
X137530000Y-144767150D01*
X137530000Y-145517150D01*
X138279250Y-145517150D01*
X138279252Y-145517149D01*
X138425085Y-145488141D01*
X138425089Y-145488139D01*
X138590479Y-145377629D01*
X138700989Y-145212239D01*
X138700991Y-145212235D01*
X138729999Y-145066402D01*
X138730000Y-145066400D01*
X138730000Y-144767150D01*
X137530000Y-144767150D01*
X137030000Y-144767150D01*
X135830000Y-144767150D01*
X121687227Y-144767150D01*
X120921026Y-144357607D01*
X120766691Y-144267150D01*
X135830000Y-144267150D01*
X137030000Y-144267150D01*
X137030000Y-143517150D01*
X137530000Y-143517150D01*
X137530000Y-144267150D01*
X138730000Y-144267150D01*
X138730000Y-143967899D01*
X138729999Y-143967897D01*
X138700991Y-143822064D01*
X138700989Y-143822060D01*
X138590479Y-143656670D01*
X138425089Y-143546160D01*
X138425085Y-143546158D01*
X138279251Y-143517150D01*
X137530000Y-143517150D01*
X137030000Y-143517150D01*
X136280749Y-143517150D01*
X136134914Y-143546158D01*
X136134910Y-143546160D01*
X135969520Y-143656670D01*
X135859010Y-143822060D01*
X135859008Y-143822064D01*
X135830000Y-143967897D01*
X135830000Y-144267150D01*
X120766691Y-144267150D01*
X119169585Y-143331070D01*
X117459797Y-142236563D01*
X115794296Y-141075774D01*
X115756751Y-141047353D01*
X127226525Y-141047353D01*
X127307400Y-141427844D01*
X127307402Y-141427849D01*
X127465618Y-141783204D01*
X127465620Y-141783209D01*
X127694259Y-142097904D01*
X127694265Y-142097911D01*
X127837801Y-142227150D01*
X127983337Y-142358191D01*
X128320213Y-142552687D01*
X128690165Y-142672891D01*
X128980046Y-142703359D01*
X128980051Y-142703359D01*
X129173999Y-142703359D01*
X129174004Y-142703359D01*
X129463885Y-142672891D01*
X129833837Y-142552687D01*
X129879300Y-142526439D01*
X139129500Y-142526439D01*
X139158540Y-142672437D01*
X139232286Y-142782805D01*
X139269160Y-142837990D01*
X139434715Y-142948610D01*
X139434718Y-142948610D01*
X139434719Y-142948611D01*
X139507711Y-142963130D01*
X139580707Y-142977650D01*
X141579292Y-142977649D01*
X141725285Y-142948610D01*
X141725286Y-142948609D01*
X141725287Y-142948609D01*
X141753066Y-142930047D01*
X141890840Y-142837990D01*
X142001460Y-142672435D01*
X142030500Y-142526443D01*
X142030500Y-142227150D01*
X154370000Y-142227150D01*
X154370000Y-142526402D01*
X154399008Y-142672235D01*
X154399010Y-142672239D01*
X154509520Y-142837629D01*
X154674910Y-142948139D01*
X154674914Y-142948141D01*
X154820747Y-142977149D01*
X154820750Y-142977150D01*
X155570000Y-142977150D01*
X155570000Y-142227150D01*
X156070000Y-142227150D01*
X156070000Y-142977150D01*
X156819250Y-142977150D01*
X156819252Y-142977149D01*
X156965085Y-142948141D01*
X156965089Y-142948139D01*
X157130479Y-142837629D01*
X157240989Y-142672239D01*
X157240991Y-142672235D01*
X157269999Y-142526402D01*
X157270000Y-142526400D01*
X157270000Y-142227150D01*
X156070000Y-142227150D01*
X155570000Y-142227150D01*
X154370000Y-142227150D01*
X142030500Y-142227150D01*
X142030499Y-141727150D01*
X154370000Y-141727150D01*
X155570000Y-141727150D01*
X155570000Y-140977150D01*
X156070000Y-140977150D01*
X156070000Y-141727150D01*
X157270000Y-141727150D01*
X157270000Y-141427899D01*
X157269999Y-141427897D01*
X157240991Y-141282064D01*
X157240989Y-141282060D01*
X157130479Y-141116670D01*
X156965089Y-141006160D01*
X156965085Y-141006158D01*
X156819251Y-140977150D01*
X156070000Y-140977150D01*
X155570000Y-140977150D01*
X154820749Y-140977150D01*
X154674914Y-141006158D01*
X154674910Y-141006160D01*
X154509520Y-141116670D01*
X154399010Y-141282060D01*
X154399008Y-141282064D01*
X154370000Y-141427897D01*
X154370000Y-141727150D01*
X142030499Y-141727150D01*
X142030499Y-141427858D01*
X142001460Y-141281865D01*
X142001459Y-141281864D01*
X142001459Y-141281862D01*
X141946024Y-141198898D01*
X141890840Y-141116310D01*
X141725285Y-141005690D01*
X141725283Y-141005689D01*
X141725280Y-141005688D01*
X141579296Y-140976650D01*
X139580710Y-140976650D01*
X139434712Y-141005690D01*
X139269160Y-141116310D01*
X139158540Y-141281865D01*
X139158538Y-141281869D01*
X139129500Y-141427852D01*
X139129500Y-142526439D01*
X129879300Y-142526439D01*
X130170713Y-142358191D01*
X130397162Y-142154295D01*
X130459784Y-142097911D01*
X130459785Y-142097908D01*
X130459789Y-142097906D01*
X130688432Y-141783206D01*
X130846649Y-141427845D01*
X130927525Y-141047354D01*
X130927525Y-140658364D01*
X130846649Y-140277873D01*
X130688432Y-139922513D01*
X130688429Y-139922509D01*
X130688429Y-139922508D01*
X130459790Y-139607813D01*
X130459784Y-139607806D01*
X130252753Y-139421396D01*
X130170713Y-139347527D01*
X129833837Y-139153031D01*
X129833836Y-139153030D01*
X129833835Y-139153030D01*
X129463886Y-139032827D01*
X129415571Y-139027749D01*
X129174004Y-139002359D01*
X128980046Y-139002359D01*
X128772988Y-139024121D01*
X128690163Y-139032827D01*
X128320214Y-139153030D01*
X127983338Y-139347526D01*
X127694265Y-139607806D01*
X127694259Y-139607813D01*
X127465621Y-139922506D01*
X127465618Y-139922510D01*
X127465618Y-139922512D01*
X127372155Y-140132434D01*
X127307400Y-140277875D01*
X127226525Y-140658364D01*
X127226525Y-141047353D01*
X115756751Y-141047353D01*
X114175652Y-139850493D01*
X112606361Y-138562607D01*
X111088841Y-137214107D01*
X109625433Y-135807067D01*
X108218393Y-134343659D01*
X106869893Y-132826139D01*
X105848032Y-131581000D01*
X126025001Y-131581000D01*
X126025001Y-131624800D01*
X126045532Y-131765730D01*
X126151802Y-131983108D01*
X126322891Y-132154197D01*
X126540270Y-132260467D01*
X126681198Y-132280999D01*
X126749999Y-132280998D01*
X126750000Y-132280998D01*
X126750000Y-131581000D01*
X127250000Y-131581000D01*
X127250000Y-132280999D01*
X127318800Y-132280999D01*
X127459730Y-132260467D01*
X127677108Y-132154197D01*
X127848197Y-131983108D01*
X127954468Y-131765727D01*
X127975000Y-131624807D01*
X127975000Y-131581000D01*
X127250000Y-131581000D01*
X126750000Y-131581000D01*
X126025001Y-131581000D01*
X105848032Y-131581000D01*
X105582007Y-131256848D01*
X104356726Y-129638204D01*
X103195937Y-127972703D01*
X103017844Y-127694495D01*
X116149500Y-127694495D01*
X116158673Y-127737649D01*
X116230375Y-128074985D01*
X116230377Y-128074990D01*
X116273974Y-128172909D01*
X116333091Y-128305688D01*
X116388593Y-128430345D01*
X116388595Y-128430350D01*
X116617234Y-128745045D01*
X116617240Y-128745052D01*
X116778716Y-128890444D01*
X116906312Y-129005332D01*
X117243188Y-129199828D01*
X117613140Y-129320032D01*
X117903021Y-129350500D01*
X117903026Y-129350500D01*
X118096974Y-129350500D01*
X118096979Y-129350500D01*
X118386860Y-129320032D01*
X118756812Y-129199828D01*
X119093688Y-129005332D01*
X119332950Y-128789900D01*
X119382759Y-128745052D01*
X119382760Y-128745049D01*
X119382764Y-128745047D01*
X119611407Y-128430347D01*
X119769624Y-128074986D01*
X119850500Y-127694495D01*
X119850500Y-127305505D01*
X119769624Y-126925014D01*
X119765028Y-126914692D01*
X119701726Y-126772513D01*
X119611407Y-126569654D01*
X119611404Y-126569650D01*
X119611404Y-126569649D01*
X119382765Y-126254954D01*
X119382759Y-126254947D01*
X119183367Y-126075415D01*
X119093688Y-125994668D01*
X118756812Y-125800172D01*
X118756811Y-125800171D01*
X118756810Y-125800171D01*
X118386861Y-125679968D01*
X118338546Y-125674890D01*
X118096979Y-125649500D01*
X117903021Y-125649500D01*
X117695963Y-125671262D01*
X117613138Y-125679968D01*
X117243189Y-125800171D01*
X116906313Y-125994667D01*
X116617240Y-126254947D01*
X116617234Y-126254954D01*
X116388596Y-126569647D01*
X116388593Y-126569651D01*
X116388593Y-126569653D01*
X116343491Y-126670954D01*
X116230375Y-126925016D01*
X116162414Y-127244750D01*
X116149500Y-127305505D01*
X116149500Y-127694495D01*
X103017844Y-127694495D01*
X102101430Y-126262915D01*
X101074893Y-124511474D01*
X100117908Y-122721082D01*
X99231952Y-120894499D01*
X98418390Y-119034542D01*
X97678477Y-117144079D01*
X97013354Y-115226024D01*
X96424046Y-113283336D01*
X95911461Y-111319009D01*
X95762570Y-110640400D01*
X109649140Y-110640400D01*
X109689618Y-110947858D01*
X109690400Y-110953793D01*
X109718642Y-111021975D01*
X109811365Y-111245830D01*
X109900645Y-111362181D01*
X110003793Y-111496607D01*
X110063535Y-111542448D01*
X110069625Y-111547789D01*
X114729146Y-116207309D01*
X119343181Y-120821344D01*
X119379500Y-120909025D01*
X119379500Y-121981622D01*
X119400754Y-122127504D01*
X119510762Y-122352530D01*
X119687869Y-122529637D01*
X119687870Y-122529637D01*
X119687872Y-122529639D01*
X119912894Y-122639645D01*
X119985836Y-122650272D01*
X120058777Y-122660900D01*
X120058778Y-122660900D01*
X120505500Y-122660900D01*
X120593181Y-122697219D01*
X120629500Y-122784900D01*
X120629500Y-124290104D01*
X120626666Y-124316461D01*
X120621787Y-124338887D01*
X120621787Y-124338891D01*
X120629342Y-124444518D01*
X120629500Y-124448943D01*
X120629500Y-124482555D01*
X120632165Y-124501093D01*
X120634282Y-124515823D01*
X120634755Y-124520222D01*
X120642312Y-124625858D01*
X120650335Y-124647371D01*
X120656888Y-124673049D01*
X120660155Y-124695770D01*
X120704148Y-124792100D01*
X120705842Y-124796190D01*
X120742852Y-124895418D01*
X120756608Y-124913794D01*
X120770131Y-124936585D01*
X120779671Y-124957473D01*
X120779672Y-124957475D01*
X120779673Y-124957476D01*
X120849020Y-125037507D01*
X120851797Y-125040953D01*
X120864551Y-125057989D01*
X120871943Y-125067863D01*
X120871950Y-125067870D01*
X120895700Y-125091620D01*
X120898717Y-125094860D01*
X120968075Y-125174903D01*
X120987386Y-125187313D01*
X121008028Y-125203948D01*
X126054412Y-130250332D01*
X126078131Y-130283553D01*
X126151386Y-130433400D01*
X126151388Y-130433401D01*
X126186658Y-130468671D01*
X126222978Y-130556352D01*
X126186660Y-130644033D01*
X126151802Y-130678891D01*
X126045531Y-130896272D01*
X126025000Y-131037192D01*
X126025000Y-131081000D01*
X127974999Y-131081000D01*
X127974999Y-131037199D01*
X127958416Y-130923377D01*
X127981715Y-130831376D01*
X128063244Y-130782795D01*
X128081121Y-130781500D01*
X128234500Y-130781500D01*
X128322181Y-130817819D01*
X128358500Y-130905500D01*
X128358500Y-130922217D01*
X128358501Y-130922234D01*
X128370971Y-131016959D01*
X128370972Y-131016960D01*
X128419889Y-131121862D01*
X128467921Y-131224867D01*
X128630133Y-131387079D01*
X128743385Y-131439889D01*
X128842405Y-131486063D01*
X128906522Y-131556035D01*
X128914000Y-131598445D01*
X128914000Y-132246000D01*
X133214000Y-132246000D01*
X133214000Y-131598445D01*
X133250319Y-131510764D01*
X133285595Y-131486063D01*
X133296495Y-131480980D01*
X133497867Y-131387079D01*
X133660079Y-131224867D01*
X133757028Y-131016959D01*
X133769500Y-130922224D01*
X133769500Y-130302288D01*
X133783016Y-130245992D01*
X133787957Y-130236295D01*
X133787957Y-130236293D01*
X133787958Y-130236292D01*
X133819500Y-130037144D01*
X133819500Y-128068949D01*
X133830706Y-128017437D01*
X133841908Y-127992909D01*
X133878760Y-127736600D01*
X133841908Y-127480291D01*
X133841907Y-127480288D01*
X133734341Y-127244750D01*
X133734339Y-127244748D01*
X133734339Y-127244747D01*
X133564766Y-127049049D01*
X133564763Y-127049047D01*
X133564764Y-127049047D01*
X133462525Y-126983342D01*
X133408399Y-126905385D01*
X133425250Y-126811987D01*
X133475104Y-126767627D01*
X133522128Y-126744639D01*
X133699239Y-126567528D01*
X133809245Y-126342506D01*
X133830500Y-126196622D01*
X133830500Y-124804178D01*
X133809245Y-124658294D01*
X133699239Y-124433272D01*
X133699237Y-124433270D01*
X133699237Y-124433269D01*
X133522130Y-124256162D01*
X133297104Y-124146154D01*
X133151223Y-124124900D01*
X133151222Y-124124900D01*
X132208778Y-124124900D01*
X132208777Y-124124900D01*
X132062895Y-124146154D01*
X131837869Y-124256162D01*
X131660762Y-124433269D01*
X131550754Y-124658295D01*
X131529500Y-124804177D01*
X131529500Y-125939592D01*
X131493181Y-126027273D01*
X131261026Y-126259427D01*
X131257037Y-126263083D01*
X131193001Y-126316815D01*
X131151202Y-126389211D01*
X131148295Y-126393773D01*
X131100352Y-126462245D01*
X131100350Y-126462248D01*
X131097054Y-126474551D01*
X131084672Y-126504445D01*
X131078300Y-126515481D01*
X131063783Y-126597804D01*
X131062612Y-126603084D01*
X131040977Y-126683830D01*
X131048264Y-126767106D01*
X131048500Y-126772513D01*
X131048500Y-126888012D01*
X131012181Y-126975693D01*
X130924500Y-127012012D01*
X130857462Y-126992328D01*
X130806928Y-126959852D01*
X130549962Y-126884401D01*
X130550711Y-126881848D01*
X130477846Y-126838612D01*
X130454379Y-126746654D01*
X130489435Y-126676623D01*
X130598828Y-126567230D01*
X130708758Y-126342364D01*
X130730000Y-126196570D01*
X130730000Y-125750400D01*
X129830000Y-125750400D01*
X129830000Y-126875400D01*
X129859096Y-126904496D01*
X129895415Y-126992177D01*
X129859096Y-127079858D01*
X129838463Y-127096487D01*
X129833238Y-127099844D01*
X129833236Y-127099847D01*
X129833234Y-127099848D01*
X129833234Y-127099849D01*
X129775640Y-127166316D01*
X129663661Y-127295547D01*
X129663658Y-127295550D01*
X129556092Y-127531088D01*
X129556092Y-127531089D01*
X129519240Y-127787400D01*
X129556091Y-128043705D01*
X129556092Y-128043709D01*
X129567294Y-128068237D01*
X129578500Y-128119749D01*
X129578500Y-128429550D01*
X129542181Y-128517231D01*
X129454500Y-128553550D01*
X129438315Y-128552489D01*
X129385234Y-128545501D01*
X129385229Y-128545500D01*
X129385224Y-128545500D01*
X128932776Y-128545500D01*
X128932770Y-128545500D01*
X128932765Y-128545501D01*
X128838040Y-128557971D01*
X128838039Y-128557972D01*
X128630132Y-128654921D01*
X128540873Y-128744181D01*
X128453192Y-128780500D01*
X127465782Y-128780500D01*
X127378101Y-128744181D01*
X124384320Y-125750400D01*
X128430000Y-125750400D01*
X128430000Y-126196570D01*
X128451241Y-126342364D01*
X128561171Y-126567230D01*
X128561173Y-126567233D01*
X128738166Y-126744226D01*
X128738169Y-126744228D01*
X128963035Y-126854158D01*
X129108830Y-126875400D01*
X129330000Y-126875400D01*
X129330000Y-125750400D01*
X128430000Y-125750400D01*
X124384320Y-125750400D01*
X123884320Y-125250400D01*
X128430000Y-125250400D01*
X129330000Y-125250400D01*
X129330000Y-124125400D01*
X129830000Y-124125400D01*
X129830000Y-125250400D01*
X130730000Y-125250400D01*
X130730000Y-124804229D01*
X130708758Y-124658435D01*
X130598828Y-124433569D01*
X130598826Y-124433566D01*
X130421833Y-124256573D01*
X130421830Y-124256571D01*
X130196964Y-124146641D01*
X130051170Y-124125400D01*
X129830000Y-124125400D01*
X129330000Y-124125400D01*
X129108830Y-124125400D01*
X128963035Y-124146641D01*
X128738169Y-124256571D01*
X128738166Y-124256573D01*
X128561173Y-124433566D01*
X128561171Y-124433569D01*
X128451241Y-124658435D01*
X128430000Y-124804229D01*
X128430000Y-125250400D01*
X123884320Y-125250400D01*
X122666819Y-124032899D01*
X122630500Y-123945218D01*
X122630500Y-122784900D01*
X122666819Y-122697219D01*
X122754500Y-122660900D01*
X123201223Y-122660900D01*
X123249850Y-122653815D01*
X123347106Y-122639645D01*
X123572128Y-122529639D01*
X123749239Y-122352528D01*
X123859245Y-122127506D01*
X123880500Y-121981622D01*
X123880500Y-121610400D01*
X124780000Y-121610400D01*
X124780000Y-121981570D01*
X124801241Y-122127364D01*
X124911171Y-122352230D01*
X124911173Y-122352233D01*
X125088166Y-122529226D01*
X125088169Y-122529228D01*
X125313035Y-122639158D01*
X125458830Y-122660400D01*
X126780000Y-122660400D01*
X126780000Y-121610400D01*
X127280000Y-121610400D01*
X127280000Y-122660400D01*
X128601170Y-122660400D01*
X128746964Y-122639158D01*
X128971830Y-122529228D01*
X128971833Y-122529226D01*
X129148826Y-122352233D01*
X129148828Y-122352230D01*
X129258758Y-122127364D01*
X129280000Y-121981570D01*
X129280000Y-121610400D01*
X127280000Y-121610400D01*
X126780000Y-121610400D01*
X124780000Y-121610400D01*
X123880500Y-121610400D01*
X123880500Y-121110400D01*
X124780000Y-121110400D01*
X126780000Y-121110400D01*
X126780000Y-120060400D01*
X127280000Y-120060400D01*
X127280000Y-121110400D01*
X129280000Y-121110400D01*
X129280000Y-120739229D01*
X129258758Y-120593435D01*
X129148828Y-120368569D01*
X129148826Y-120368566D01*
X128971833Y-120191573D01*
X128971830Y-120191571D01*
X128746964Y-120081641D01*
X128601170Y-120060400D01*
X127280000Y-120060400D01*
X126780000Y-120060400D01*
X125458830Y-120060400D01*
X125313035Y-120081641D01*
X125088169Y-120191571D01*
X125088166Y-120191573D01*
X124911173Y-120368566D01*
X124911171Y-120368569D01*
X124801241Y-120593435D01*
X124780000Y-120739229D01*
X124780000Y-121110400D01*
X123880500Y-121110400D01*
X123880500Y-120739178D01*
X123879618Y-120733127D01*
X123863184Y-120620331D01*
X123859245Y-120593294D01*
X123749239Y-120368272D01*
X123749237Y-120368270D01*
X123749237Y-120368269D01*
X123572130Y-120191162D01*
X123347104Y-120081154D01*
X123201223Y-120059900D01*
X123201222Y-120059900D01*
X122028625Y-120059900D01*
X121940944Y-120023581D01*
X112096819Y-110179455D01*
X112060500Y-110091774D01*
X112060500Y-99444494D01*
X124399500Y-99444494D01*
X124480375Y-99824985D01*
X124480377Y-99824990D01*
X124581142Y-100051311D01*
X124603671Y-100101911D01*
X124638593Y-100180345D01*
X124638595Y-100180350D01*
X124867234Y-100495045D01*
X124867240Y-100495052D01*
X125016229Y-100629201D01*
X125156312Y-100755332D01*
X125493188Y-100949828D01*
X125863140Y-101070032D01*
X126153021Y-101100500D01*
X126153026Y-101100500D01*
X126346974Y-101100500D01*
X126346979Y-101100500D01*
X126636860Y-101070032D01*
X127006812Y-100949828D01*
X127343688Y-100755332D01*
X127614471Y-100511518D01*
X127632759Y-100495052D01*
X127632760Y-100495049D01*
X127632764Y-100495047D01*
X127861407Y-100180347D01*
X128019624Y-99824986D01*
X128100500Y-99444495D01*
X128100500Y-99055505D01*
X128019624Y-98675014D01*
X127861407Y-98319654D01*
X127861404Y-98319650D01*
X127861404Y-98319649D01*
X127632765Y-98004954D01*
X127632759Y-98004947D01*
X127401420Y-97796650D01*
X127343688Y-97744668D01*
X127006812Y-97550172D01*
X127006811Y-97550171D01*
X127006810Y-97550171D01*
X126636861Y-97429968D01*
X126559718Y-97421860D01*
X126346979Y-97399500D01*
X126153021Y-97399500D01*
X125945963Y-97421262D01*
X125863138Y-97429968D01*
X125493189Y-97550171D01*
X125156313Y-97744667D01*
X124867240Y-98004947D01*
X124867234Y-98004954D01*
X124638596Y-98319647D01*
X124480375Y-98675016D01*
X124399500Y-99055505D01*
X124399500Y-99444494D01*
X112060500Y-99444494D01*
X112060500Y-89320400D01*
X117510000Y-89320400D01*
X117510000Y-90641570D01*
X117531241Y-90787364D01*
X117641171Y-91012230D01*
X117641173Y-91012233D01*
X117818166Y-91189226D01*
X117818169Y-91189228D01*
X118043035Y-91299158D01*
X118188830Y-91320400D01*
X118560000Y-91320400D01*
X118560000Y-89320400D01*
X119060000Y-89320400D01*
X119060000Y-91320400D01*
X119431170Y-91320400D01*
X119576964Y-91299158D01*
X119801830Y-91189228D01*
X119801833Y-91189226D01*
X119978826Y-91012233D01*
X119978828Y-91012230D01*
X120088758Y-90787364D01*
X120110000Y-90641570D01*
X120110000Y-89320400D01*
X119060000Y-89320400D01*
X118560000Y-89320400D01*
X117510000Y-89320400D01*
X112060500Y-89320400D01*
X112060500Y-88820400D01*
X117510000Y-88820400D01*
X118560000Y-88820400D01*
X118560000Y-86820400D01*
X119060000Y-86820400D01*
X119060000Y-88820400D01*
X120110000Y-88820400D01*
X120110000Y-87499229D01*
X120088758Y-87353435D01*
X119978828Y-87128569D01*
X119978826Y-87128566D01*
X119801833Y-86951573D01*
X119801830Y-86951571D01*
X119576964Y-86841641D01*
X119431170Y-86820400D01*
X119060000Y-86820400D01*
X118560000Y-86820400D01*
X118188830Y-86820400D01*
X118043035Y-86841641D01*
X117818169Y-86951571D01*
X117818166Y-86951573D01*
X117641173Y-87128566D01*
X117641171Y-87128569D01*
X117531241Y-87353435D01*
X117510000Y-87499229D01*
X117510000Y-88820400D01*
X112060500Y-88820400D01*
X112060500Y-86646439D01*
X139129500Y-86646439D01*
X139158540Y-86792437D01*
X139198258Y-86851878D01*
X139269160Y-86957990D01*
X139434715Y-87068610D01*
X139434718Y-87068610D01*
X139434719Y-87068611D01*
X139507711Y-87083130D01*
X139580707Y-87097650D01*
X141579292Y-87097649D01*
X141725285Y-87068610D01*
X141725286Y-87068609D01*
X141725287Y-87068609D01*
X141780752Y-87031548D01*
X141890840Y-86957990D01*
X142001460Y-86792435D01*
X142030500Y-86646443D01*
X142030499Y-85547858D01*
X142001460Y-85401865D01*
X142001459Y-85401864D01*
X142001459Y-85401862D01*
X141929525Y-85294207D01*
X141890840Y-85236310D01*
X141725285Y-85125690D01*
X141725283Y-85125689D01*
X141725280Y-85125688D01*
X141579296Y-85096650D01*
X139580710Y-85096650D01*
X139434712Y-85125690D01*
X139269160Y-85236310D01*
X139158540Y-85401865D01*
X139158538Y-85401869D01*
X139129500Y-85547852D01*
X139129500Y-86646439D01*
X112060500Y-86646439D01*
X112060500Y-86447000D01*
X130197000Y-86447000D01*
X131322000Y-86447000D01*
X131322000Y-85547000D01*
X131822000Y-85547000D01*
X131822000Y-86447000D01*
X132947000Y-86447000D01*
X132947000Y-86225829D01*
X132925758Y-86080035D01*
X132815828Y-85855169D01*
X132815826Y-85855166D01*
X132638833Y-85678173D01*
X132638830Y-85678171D01*
X132413964Y-85568241D01*
X132268170Y-85547000D01*
X131822000Y-85547000D01*
X131322000Y-85547000D01*
X130875830Y-85547000D01*
X130730035Y-85568241D01*
X130505169Y-85678171D01*
X130505166Y-85678173D01*
X130328173Y-85855166D01*
X130328171Y-85855169D01*
X130218241Y-86080035D01*
X130197000Y-86225829D01*
X130197000Y-86447000D01*
X112060500Y-86447000D01*
X112060500Y-85729025D01*
X112096818Y-85641345D01*
X117397819Y-80340343D01*
X117485500Y-80304025D01*
X117573181Y-80340344D01*
X117609500Y-80428025D01*
X117609500Y-81763528D01*
X117596901Y-81817988D01*
X117530754Y-81953295D01*
X117509500Y-82099177D01*
X117509500Y-85241622D01*
X117530754Y-85387504D01*
X117640762Y-85612530D01*
X117817869Y-85789637D01*
X117817870Y-85789637D01*
X117817872Y-85789639D01*
X118042894Y-85899645D01*
X118115836Y-85910272D01*
X118188777Y-85920900D01*
X118188778Y-85920900D01*
X119431223Y-85920900D01*
X119479850Y-85913815D01*
X119577106Y-85899645D01*
X119802128Y-85789639D01*
X119979239Y-85612528D01*
X120089245Y-85387506D01*
X120110500Y-85241622D01*
X120110500Y-83835400D01*
X122515001Y-83835400D01*
X122515001Y-83879200D01*
X122535532Y-84020130D01*
X122641802Y-84237508D01*
X122812891Y-84408597D01*
X123030270Y-84514867D01*
X123171198Y-84535399D01*
X123239999Y-84535398D01*
X123240000Y-84535398D01*
X123240000Y-83835400D01*
X122515001Y-83835400D01*
X120110500Y-83835400D01*
X120110500Y-83624050D01*
X120146819Y-83536369D01*
X120760969Y-82922219D01*
X120848650Y-82885900D01*
X122466326Y-82885900D01*
X122554007Y-82922219D01*
X122590326Y-83009900D01*
X122577727Y-83064360D01*
X122535531Y-83150672D01*
X122515000Y-83291592D01*
X122515000Y-83335400D01*
X123616000Y-83335400D01*
X123703681Y-83371719D01*
X123740000Y-83459400D01*
X123740000Y-84535399D01*
X123808800Y-84535399D01*
X123949730Y-84514867D01*
X124167108Y-84408597D01*
X124338198Y-84237507D01*
X124357562Y-84197897D01*
X124428699Y-84135075D01*
X124523422Y-84140955D01*
X124586244Y-84212092D01*
X124591436Y-84232953D01*
X124593042Y-84243094D01*
X124597984Y-84252792D01*
X124611500Y-84309088D01*
X124611500Y-84878217D01*
X124611501Y-84878234D01*
X124623971Y-84972959D01*
X124623972Y-84972960D01*
X124703849Y-85144257D01*
X124720921Y-85180867D01*
X124883133Y-85343079D01*
X125009209Y-85401869D01*
X125095405Y-85442063D01*
X125159522Y-85512035D01*
X125167000Y-85554445D01*
X125167000Y-86202000D01*
X129467000Y-86202000D01*
X129467000Y-85554445D01*
X129503319Y-85466764D01*
X129538595Y-85442063D01*
X129553469Y-85435127D01*
X129750867Y-85343079D01*
X129913079Y-85180867D01*
X130010028Y-84972959D01*
X130022500Y-84878224D01*
X130022500Y-84370695D01*
X130036014Y-84314403D01*
X130041006Y-84304605D01*
X130113171Y-84242967D01*
X130207784Y-84250411D01*
X130262892Y-84306436D01*
X130299028Y-84380354D01*
X130327762Y-84439130D01*
X130504869Y-84616237D01*
X130504870Y-84616237D01*
X130504872Y-84616239D01*
X130729894Y-84726245D01*
X130802836Y-84736872D01*
X130875777Y-84747500D01*
X130875778Y-84747500D01*
X132268223Y-84747500D01*
X132316850Y-84740415D01*
X132414106Y-84726245D01*
X132639128Y-84616239D01*
X132816239Y-84439128D01*
X132926245Y-84214106D01*
X132947500Y-84068222D01*
X132947500Y-83125778D01*
X132944220Y-83103269D01*
X132936800Y-83052339D01*
X132926245Y-82979894D01*
X132816239Y-82754872D01*
X132816237Y-82754870D01*
X132816237Y-82754869D01*
X132639130Y-82577762D01*
X132414104Y-82467754D01*
X132378620Y-82462584D01*
X132297092Y-82414002D01*
X132272500Y-82339880D01*
X132272500Y-80889000D01*
X132308819Y-80801319D01*
X132396500Y-80765000D01*
X132436764Y-80771719D01*
X132463507Y-80780900D01*
X132463508Y-80780900D01*
X132473639Y-80782591D01*
X132473597Y-80782841D01*
X132482328Y-80784113D01*
X132482360Y-80783861D01*
X132492553Y-80785131D01*
X132492555Y-80785132D01*
X132492556Y-80785131D01*
X132492557Y-80785132D01*
X132594877Y-80780900D01*
X134065501Y-80780900D01*
X134153182Y-80817219D01*
X134189501Y-80904900D01*
X134189501Y-81129692D01*
X134202459Y-81194838D01*
X134218540Y-81275687D01*
X134274083Y-81358811D01*
X134329160Y-81441240D01*
X134494715Y-81551860D01*
X134494718Y-81551860D01*
X134494719Y-81551861D01*
X134567711Y-81566380D01*
X134640707Y-81580900D01*
X138539292Y-81580899D01*
X138685285Y-81551860D01*
X138685286Y-81551859D01*
X138685287Y-81551859D01*
X138735978Y-81517988D01*
X138850840Y-81441240D01*
X138961460Y-81275685D01*
X138990500Y-81129693D01*
X138990500Y-80904900D01*
X139026819Y-80817219D01*
X139114500Y-80780900D01*
X139834087Y-80780900D01*
X139859533Y-80783539D01*
X139866996Y-80785103D01*
X139890252Y-80789980D01*
X139928457Y-80785217D01*
X139959274Y-80781377D01*
X139966950Y-80780900D01*
X139977640Y-80780900D01*
X139977645Y-80780900D01*
X140020603Y-80773731D01*
X140122242Y-80761062D01*
X140122243Y-80761061D01*
X140122245Y-80761061D01*
X140132092Y-80758130D01*
X140132164Y-80758374D01*
X140140560Y-80755684D01*
X140140477Y-80755443D01*
X140150191Y-80752106D01*
X140150197Y-80752106D01*
X140240267Y-80703362D01*
X140332272Y-80658384D01*
X140332275Y-80658380D01*
X140340637Y-80652411D01*
X140340786Y-80652619D01*
X140347853Y-80647349D01*
X140347696Y-80647147D01*
X140355797Y-80640841D01*
X140355805Y-80640837D01*
X140425175Y-80565480D01*
X141434866Y-79555789D01*
X141454720Y-79539667D01*
X141480996Y-79522501D01*
X141523710Y-79467620D01*
X141528802Y-79461854D01*
X141536372Y-79454285D01*
X141546327Y-79440342D01*
X144358451Y-79440342D01*
X144364250Y-79467623D01*
X144439326Y-79820832D01*
X144439328Y-79820837D01*
X144522724Y-80008146D01*
X144590710Y-80160844D01*
X144597544Y-80176192D01*
X144597546Y-80176197D01*
X144826185Y-80490892D01*
X144826191Y-80490899D01*
X144945432Y-80598263D01*
X145115263Y-80751179D01*
X145452139Y-80945675D01*
X145822091Y-81065879D01*
X146111972Y-81096347D01*
X146111977Y-81096347D01*
X146305925Y-81096347D01*
X146305930Y-81096347D01*
X146595811Y-81065879D01*
X146965763Y-80945675D01*
X147302639Y-80751179D01*
X147589325Y-80493046D01*
X147591710Y-80490899D01*
X147591711Y-80490896D01*
X147591715Y-80490894D01*
X147820358Y-80176194D01*
X147978575Y-79820833D01*
X148059451Y-79440342D01*
X148059451Y-79051352D01*
X147978575Y-78670861D01*
X147970881Y-78653581D01*
X147921867Y-78543494D01*
X147820358Y-78315501D01*
X147820355Y-78315497D01*
X147820355Y-78315496D01*
X147591716Y-78000801D01*
X147591710Y-78000794D01*
X147403338Y-77831185D01*
X147302639Y-77740515D01*
X146965763Y-77546019D01*
X146965762Y-77546018D01*
X146965761Y-77546018D01*
X146595812Y-77425815D01*
X146547497Y-77420737D01*
X146305930Y-77395347D01*
X146111972Y-77395347D01*
X145904914Y-77417109D01*
X145822089Y-77425815D01*
X145452140Y-77546018D01*
X145115264Y-77740514D01*
X144826191Y-78000794D01*
X144826185Y-78000801D01*
X144597547Y-78315494D01*
X144597544Y-78315498D01*
X144597544Y-78315500D01*
X144495996Y-78543581D01*
X144439326Y-78670863D01*
X144366195Y-79014920D01*
X144358451Y-79051352D01*
X144358451Y-79440342D01*
X141546327Y-79440342D01*
X141561685Y-79418831D01*
X141624590Y-79338011D01*
X141624592Y-79338003D01*
X141629480Y-79328973D01*
X141629705Y-79329095D01*
X141633741Y-79321255D01*
X141633511Y-79321143D01*
X141638023Y-79311912D01*
X141638022Y-79311912D01*
X141638024Y-79311911D01*
X141667243Y-79213765D01*
X141670977Y-79202890D01*
X141681426Y-79172451D01*
X141700500Y-79116893D01*
X141700500Y-79116887D01*
X141702192Y-79106755D01*
X141702442Y-79106796D01*
X141703713Y-79098069D01*
X141703461Y-79098038D01*
X141704732Y-79087843D01*
X141700500Y-78985523D01*
X141700500Y-73841518D01*
X141736819Y-73753837D01*
X142000256Y-73490400D01*
X151960000Y-73490400D01*
X151960000Y-74289652D01*
X151989008Y-74435485D01*
X151989010Y-74435489D01*
X152099520Y-74600879D01*
X152264910Y-74711389D01*
X152264914Y-74711391D01*
X152410747Y-74740399D01*
X152410750Y-74740400D01*
X152960000Y-74740400D01*
X152960000Y-73490400D01*
X151960000Y-73490400D01*
X142000256Y-73490400D01*
X142500256Y-72990400D01*
X151960000Y-72990400D01*
X152960000Y-72990400D01*
X152960000Y-71771762D01*
X152980000Y-71723478D01*
X152980000Y-70830400D01*
X152230000Y-70830400D01*
X152230000Y-71126570D01*
X152251241Y-71272364D01*
X152361171Y-71497230D01*
X152361173Y-71497233D01*
X152408181Y-71544241D01*
X152444500Y-71631922D01*
X152408181Y-71719603D01*
X152344692Y-71753539D01*
X152264914Y-71769408D01*
X152264910Y-71769410D01*
X152099520Y-71879920D01*
X151989010Y-72045310D01*
X151989008Y-72045314D01*
X151960000Y-72191147D01*
X151960000Y-72990400D01*
X142500256Y-72990400D01*
X145160256Y-70330400D01*
X152230000Y-70330400D01*
X152980000Y-70330400D01*
X152980000Y-69355400D01*
X152908830Y-69355400D01*
X152763035Y-69376641D01*
X152538169Y-69486571D01*
X152538166Y-69486573D01*
X152361173Y-69663566D01*
X152361171Y-69663569D01*
X152251241Y-69888435D01*
X152230000Y-70034229D01*
X152230000Y-70330400D01*
X145160256Y-70330400D01*
X146253837Y-69236819D01*
X146341518Y-69200500D01*
X148387974Y-69200500D01*
X148455013Y-69220184D01*
X148622072Y-69327547D01*
X148682874Y-69345400D01*
X148870527Y-69400500D01*
X148870528Y-69400500D01*
X149129472Y-69400500D01*
X149377928Y-69327547D01*
X149380655Y-69325795D01*
X149502576Y-69247440D01*
X149595766Y-69187551D01*
X149765339Y-68991853D01*
X149872908Y-68756309D01*
X149909760Y-68500000D01*
X149872908Y-68243691D01*
X149872907Y-68243688D01*
X149765341Y-68008150D01*
X149765339Y-68008148D01*
X149765339Y-68008147D01*
X149754902Y-67996102D01*
X149724932Y-67906053D01*
X149767414Y-67821186D01*
X149848616Y-67790900D01*
X156096350Y-67790900D01*
X156184031Y-67827219D01*
X156963181Y-68606369D01*
X156999500Y-68694050D01*
X156999500Y-69587302D01*
X156981859Y-69642371D01*
X156985274Y-69644041D01*
X156980761Y-69653271D01*
X156980761Y-69653272D01*
X156975729Y-69663566D01*
X156870754Y-69878295D01*
X156849500Y-70024177D01*
X156849500Y-71116622D01*
X156870754Y-71262504D01*
X156946901Y-71418265D01*
X156959500Y-71472725D01*
X156959500Y-71648321D01*
X156923181Y-71736002D01*
X156874969Y-71761774D01*
X156876001Y-71764265D01*
X156864716Y-71768939D01*
X156728890Y-71859695D01*
X156635808Y-71878209D01*
X156591110Y-71859695D01*
X156541817Y-71826759D01*
X156455285Y-71768940D01*
X156455284Y-71768939D01*
X156455283Y-71768939D01*
X156455280Y-71768938D01*
X156309296Y-71739900D01*
X156309293Y-71739900D01*
X156104500Y-71739900D01*
X156016819Y-71703581D01*
X155980500Y-71615900D01*
X155980500Y-71563497D01*
X155998145Y-71508430D01*
X155994726Y-71506759D01*
X155999383Y-71497233D01*
X156109245Y-71272506D01*
X156130500Y-71126622D01*
X156130500Y-70034178D01*
X156109245Y-69888294D01*
X155999239Y-69663272D01*
X155999237Y-69663270D01*
X155999237Y-69663269D01*
X155822130Y-69486162D01*
X155597104Y-69376154D01*
X155451223Y-69354900D01*
X155451222Y-69354900D01*
X154808778Y-69354900D01*
X154808777Y-69354900D01*
X154662895Y-69376154D01*
X154437869Y-69486162D01*
X154267327Y-69656705D01*
X154179646Y-69693024D01*
X154091965Y-69656705D01*
X153921833Y-69486573D01*
X153921830Y-69486571D01*
X153696964Y-69376641D01*
X153551170Y-69355400D01*
X153480000Y-69355400D01*
X153480000Y-71774038D01*
X153460000Y-71822321D01*
X153460000Y-74740400D01*
X154009250Y-74740400D01*
X154009252Y-74740399D01*
X154155085Y-74711391D01*
X154155089Y-74711389D01*
X154290660Y-74620805D01*
X154383742Y-74602290D01*
X154428439Y-74620804D01*
X154564715Y-74711860D01*
X154564719Y-74711860D01*
X154576001Y-74716535D01*
X154574305Y-74720627D01*
X154638598Y-74763581D01*
X154659500Y-74832478D01*
X154659500Y-77915900D01*
X154623181Y-78003581D01*
X154535500Y-78039900D01*
X153560710Y-78039900D01*
X153414712Y-78068940D01*
X153249160Y-78179560D01*
X153138540Y-78345115D01*
X153138538Y-78345119D01*
X153109500Y-78491102D01*
X153109500Y-78565900D01*
X153073181Y-78653581D01*
X152985500Y-78689900D01*
X152534706Y-78689900D01*
X152265294Y-78689900D01*
X152265292Y-78689900D01*
X152265288Y-78689901D01*
X152210123Y-78707825D01*
X152191204Y-78712367D01*
X152133905Y-78721442D01*
X152082210Y-78747781D01*
X152064245Y-78755223D01*
X152027771Y-78767074D01*
X152009067Y-78773152D01*
X152009063Y-78773154D01*
X151962127Y-78807254D01*
X151945542Y-78817418D01*
X151893855Y-78843754D01*
X151703354Y-79034257D01*
X145783857Y-84953754D01*
X145593354Y-85144255D01*
X145567018Y-85195942D01*
X145556854Y-85212527D01*
X145522754Y-85259463D01*
X145522752Y-85259467D01*
X145516674Y-85278171D01*
X145504823Y-85314645D01*
X145497381Y-85332610D01*
X145471042Y-85384305D01*
X145461967Y-85441604D01*
X145457425Y-85460523D01*
X145439501Y-85515688D01*
X145439500Y-85515696D01*
X145439500Y-92941350D01*
X145403181Y-93029031D01*
X145144277Y-93287934D01*
X145056596Y-93324253D01*
X145002136Y-93311654D01*
X144812104Y-93218754D01*
X144666223Y-93197500D01*
X144666222Y-93197500D01*
X143623778Y-93197500D01*
X143623777Y-93197500D01*
X143477895Y-93218754D01*
X143252869Y-93328762D01*
X143075762Y-93505869D01*
X142965754Y-93730895D01*
X142944500Y-93876777D01*
X142944500Y-94544222D01*
X142965754Y-94690104D01*
X143075762Y-94915130D01*
X143195951Y-95035319D01*
X143232270Y-95123000D01*
X143195951Y-95210681D01*
X143075762Y-95330869D01*
X142965754Y-95555895D01*
X142944500Y-95701777D01*
X142944500Y-96369222D01*
X142965754Y-96515104D01*
X142965755Y-96515106D01*
X143072950Y-96734379D01*
X143075762Y-96740130D01*
X143252868Y-96917236D01*
X143256204Y-96919618D01*
X143257789Y-96922157D01*
X143260137Y-96924505D01*
X143259593Y-96925048D01*
X143306461Y-97000124D01*
X143285072Y-97092588D01*
X143271834Y-97108218D01*
X142716424Y-97663628D01*
X142712435Y-97667283D01*
X142648401Y-97721014D01*
X142648401Y-97721015D01*
X142606602Y-97793411D01*
X142603695Y-97797973D01*
X142555752Y-97866445D01*
X142555750Y-97866448D01*
X142552454Y-97878751D01*
X142540072Y-97908645D01*
X142533700Y-97919681D01*
X142519183Y-98002004D01*
X142518012Y-98007284D01*
X142496377Y-98088030D01*
X142503664Y-98171306D01*
X142503900Y-98176713D01*
X142503900Y-99174966D01*
X142473613Y-99256167D01*
X142395393Y-99346439D01*
X142389061Y-99353747D01*
X142389058Y-99353750D01*
X142281492Y-99589288D01*
X142281492Y-99589289D01*
X142244640Y-99845600D01*
X142281492Y-100101910D01*
X142281492Y-100101911D01*
X142389058Y-100337449D01*
X142389060Y-100337451D01*
X142389061Y-100337453D01*
X142473613Y-100435031D01*
X142503900Y-100516233D01*
X142503900Y-100524791D01*
X142467581Y-100612472D01*
X142237957Y-100842096D01*
X142150276Y-100878415D01*
X142062595Y-100842096D01*
X142028658Y-100778606D01*
X142001460Y-100641865D01*
X141999441Y-100638844D01*
X141954714Y-100571905D01*
X141890840Y-100476310D01*
X141725285Y-100365690D01*
X141725283Y-100365689D01*
X141725280Y-100365688D01*
X141579296Y-100336650D01*
X139580710Y-100336650D01*
X139434712Y-100365690D01*
X139269160Y-100476310D01*
X139158540Y-100641865D01*
X139158538Y-100641869D01*
X139129500Y-100787852D01*
X139129500Y-101886439D01*
X139158540Y-102032437D01*
X139224816Y-102131625D01*
X139269160Y-102197990D01*
X139434715Y-102308610D01*
X139434718Y-102308610D01*
X139434719Y-102308611D01*
X139507711Y-102323130D01*
X139580707Y-102337650D01*
X140443041Y-102337649D01*
X140530722Y-102373968D01*
X140567041Y-102461649D01*
X140530722Y-102549330D01*
X138942180Y-104137873D01*
X138854499Y-104174192D01*
X138766818Y-104137873D01*
X138730499Y-104050192D01*
X138730499Y-103327860D01*
X138730499Y-103327858D01*
X138701460Y-103181865D01*
X138701459Y-103181864D01*
X138701459Y-103181862D01*
X138622006Y-103062954D01*
X138590840Y-103016310D01*
X138425285Y-102905690D01*
X138425283Y-102905689D01*
X138425280Y-102905688D01*
X138279296Y-102876650D01*
X136280710Y-102876650D01*
X136134712Y-102905690D01*
X135969160Y-103016310D01*
X135858540Y-103181865D01*
X135858538Y-103181869D01*
X135829500Y-103327852D01*
X135829500Y-104426439D01*
X135858540Y-104572437D01*
X135932286Y-104682805D01*
X135969160Y-104737990D01*
X136134715Y-104848610D01*
X136134718Y-104848610D01*
X136134719Y-104848611D01*
X136207711Y-104863130D01*
X136280707Y-104877650D01*
X137903042Y-104877649D01*
X137990723Y-104913968D01*
X138027042Y-105001649D01*
X137990723Y-105089330D01*
X137594873Y-105485181D01*
X137507192Y-105521500D01*
X136563097Y-105521500D01*
X136557697Y-105521264D01*
X136536535Y-105519412D01*
X136474426Y-105513978D01*
X136474425Y-105513978D01*
X136393687Y-105535611D01*
X136388406Y-105536782D01*
X136306078Y-105551300D01*
X136295041Y-105557672D01*
X136265145Y-105570054D01*
X136252843Y-105573350D01*
X136184370Y-105621295D01*
X136179807Y-105624202D01*
X136107412Y-105666000D01*
X136053678Y-105730037D01*
X136050022Y-105734026D01*
X134516873Y-107267177D01*
X134429192Y-107303496D01*
X134370527Y-107303496D01*
X134122072Y-107376448D01*
X134122069Y-107376449D01*
X133904238Y-107516441D01*
X133904236Y-107516443D01*
X133904234Y-107516444D01*
X133904234Y-107516445D01*
X133880223Y-107544156D01*
X133868213Y-107558016D01*
X133783346Y-107600497D01*
X133693297Y-107570526D01*
X133650816Y-107485659D01*
X133650500Y-107476813D01*
X133650500Y-99346439D01*
X135829500Y-99346439D01*
X135858540Y-99492437D01*
X135923257Y-99589291D01*
X135969160Y-99657990D01*
X136134715Y-99768610D01*
X136134718Y-99768610D01*
X136134719Y-99768611D01*
X136207711Y-99783130D01*
X136280707Y-99797650D01*
X138279292Y-99797649D01*
X138425285Y-99768610D01*
X138425286Y-99768609D01*
X138425287Y-99768609D01*
X138453066Y-99750047D01*
X138590840Y-99657990D01*
X138701460Y-99492435D01*
X138730500Y-99346443D01*
X138730499Y-98247858D01*
X138701460Y-98101865D01*
X138701459Y-98101864D01*
X138701459Y-98101862D01*
X138636706Y-98004954D01*
X138590840Y-97936310D01*
X138425285Y-97825690D01*
X138425283Y-97825689D01*
X138425280Y-97825688D01*
X138279296Y-97796650D01*
X136280710Y-97796650D01*
X136134712Y-97825690D01*
X135969160Y-97936310D01*
X135858540Y-98101865D01*
X135858538Y-98101869D01*
X135829500Y-98247852D01*
X135829500Y-99346439D01*
X133650500Y-99346439D01*
X133650500Y-96806439D01*
X139129500Y-96806439D01*
X139158540Y-96952437D01*
X139222728Y-97048500D01*
X139269160Y-97117990D01*
X139434715Y-97228610D01*
X139434718Y-97228610D01*
X139434719Y-97228611D01*
X139507711Y-97243130D01*
X139580707Y-97257650D01*
X141579292Y-97257649D01*
X141725285Y-97228610D01*
X141725286Y-97228609D01*
X141725287Y-97228609D01*
X141753066Y-97210047D01*
X141890840Y-97117990D01*
X142001460Y-96952435D01*
X142030500Y-96806443D01*
X142030499Y-95707858D01*
X142001460Y-95561865D01*
X142001459Y-95561864D01*
X142001459Y-95561862D01*
X141940643Y-95470846D01*
X141890840Y-95396310D01*
X141725285Y-95285690D01*
X141725283Y-95285689D01*
X141725280Y-95285688D01*
X141579296Y-95256650D01*
X139580710Y-95256650D01*
X139434712Y-95285690D01*
X139269160Y-95396310D01*
X139158540Y-95561865D01*
X139158538Y-95561869D01*
X139129500Y-95707852D01*
X139129500Y-96806439D01*
X133650500Y-96806439D01*
X133650500Y-95781108D01*
X133650736Y-95775701D01*
X133658022Y-95692432D01*
X133636384Y-95611679D01*
X133635215Y-95606406D01*
X133620700Y-95524084D01*
X133619674Y-95522308D01*
X133614330Y-95513050D01*
X133601943Y-95483144D01*
X133598648Y-95470846D01*
X133550701Y-95402371D01*
X133547795Y-95397808D01*
X133506001Y-95325419D01*
X133506000Y-95325418D01*
X133505999Y-95325416D01*
X133441956Y-95271677D01*
X133437972Y-95268026D01*
X132436385Y-94266439D01*
X135829500Y-94266439D01*
X135858540Y-94412437D01*
X135932286Y-94522805D01*
X135969160Y-94577990D01*
X136134715Y-94688610D01*
X136134718Y-94688610D01*
X136134719Y-94688611D01*
X136207711Y-94703130D01*
X136280707Y-94717650D01*
X138279292Y-94717649D01*
X138425285Y-94688610D01*
X138425286Y-94688609D01*
X138425287Y-94688609D01*
X138453066Y-94670047D01*
X138590840Y-94577990D01*
X138701460Y-94412435D01*
X138730500Y-94266443D01*
X138730499Y-93167858D01*
X138701460Y-93021865D01*
X138701459Y-93021864D01*
X138701459Y-93021862D01*
X138646024Y-92938898D01*
X138590840Y-92856310D01*
X138425285Y-92745690D01*
X138425283Y-92745689D01*
X138425280Y-92745688D01*
X138279296Y-92716650D01*
X136280710Y-92716650D01*
X136134712Y-92745690D01*
X135969160Y-92856310D01*
X135858540Y-93021865D01*
X135858538Y-93021869D01*
X135829500Y-93167852D01*
X135829500Y-94266439D01*
X132436385Y-94266439D01*
X129896385Y-91726439D01*
X139129500Y-91726439D01*
X139158540Y-91872437D01*
X139232286Y-91982805D01*
X139269160Y-92037990D01*
X139434715Y-92148610D01*
X139434718Y-92148610D01*
X139434719Y-92148611D01*
X139507711Y-92163130D01*
X139580707Y-92177650D01*
X141579292Y-92177649D01*
X141725285Y-92148610D01*
X141725286Y-92148609D01*
X141725287Y-92148609D01*
X141753066Y-92130047D01*
X141890840Y-92037990D01*
X142001460Y-91872435D01*
X142030500Y-91726443D01*
X142030499Y-90627858D01*
X142001460Y-90481865D01*
X142001459Y-90481864D01*
X142001459Y-90481862D01*
X141945998Y-90398860D01*
X141890840Y-90316310D01*
X141725285Y-90205690D01*
X141725283Y-90205689D01*
X141725280Y-90205688D01*
X141579296Y-90176650D01*
X139580710Y-90176650D01*
X139434712Y-90205690D01*
X139269160Y-90316310D01*
X139158540Y-90481865D01*
X139158538Y-90481869D01*
X139129500Y-90627852D01*
X139129500Y-91726439D01*
X129896385Y-91726439D01*
X128758201Y-90588255D01*
X128721882Y-90500574D01*
X128758201Y-90412893D01*
X128845882Y-90376574D01*
X128898290Y-90388193D01*
X128901170Y-90389536D01*
X128901174Y-90389537D01*
X128971998Y-90398861D01*
X128972000Y-90398860D01*
X128972000Y-89177000D01*
X129472000Y-89177000D01*
X129472000Y-90398860D01*
X129472001Y-90398861D01*
X129542825Y-90389537D01*
X129542832Y-90389535D01*
X129750576Y-90292661D01*
X129912661Y-90130576D01*
X130009537Y-89922826D01*
X130021998Y-89828172D01*
X130022000Y-89828155D01*
X130022000Y-89186439D01*
X135829500Y-89186439D01*
X135858540Y-89332437D01*
X135908536Y-89407260D01*
X135969160Y-89497990D01*
X136134715Y-89608610D01*
X136134718Y-89608610D01*
X136134719Y-89608611D01*
X136207711Y-89623130D01*
X136280707Y-89637650D01*
X138279292Y-89637649D01*
X138425285Y-89608610D01*
X138425286Y-89608609D01*
X138425287Y-89608609D01*
X138453066Y-89590047D01*
X138590840Y-89497990D01*
X138701460Y-89332435D01*
X138730500Y-89186443D01*
X138730499Y-88087858D01*
X138701460Y-87941865D01*
X138701459Y-87941864D01*
X138701459Y-87941862D01*
X138623880Y-87825758D01*
X138590840Y-87776310D01*
X138425285Y-87665690D01*
X138425283Y-87665689D01*
X138425280Y-87665688D01*
X138279296Y-87636650D01*
X136280710Y-87636650D01*
X136134712Y-87665690D01*
X135969160Y-87776310D01*
X135858540Y-87941865D01*
X135858538Y-87941869D01*
X135829500Y-88087852D01*
X135829500Y-89186439D01*
X130022000Y-89186439D01*
X130022000Y-89177000D01*
X129472000Y-89177000D01*
X128972000Y-89177000D01*
X128972000Y-88801000D01*
X129008319Y-88713319D01*
X129096000Y-88677000D01*
X130022000Y-88677000D01*
X130022000Y-88025844D01*
X130021998Y-88025827D01*
X130009537Y-87931173D01*
X129912661Y-87723423D01*
X129750576Y-87561338D01*
X129538595Y-87462489D01*
X129474478Y-87392517D01*
X129467000Y-87350107D01*
X129467000Y-86947000D01*
X130197000Y-86947000D01*
X130197000Y-87168170D01*
X130218241Y-87313964D01*
X130328171Y-87538830D01*
X130328173Y-87538833D01*
X130505166Y-87715826D01*
X130505169Y-87715828D01*
X130730035Y-87825758D01*
X130875830Y-87847000D01*
X131322000Y-87847000D01*
X131322000Y-86947000D01*
X131822000Y-86947000D01*
X131822000Y-87847000D01*
X132268170Y-87847000D01*
X132413964Y-87825758D01*
X132638830Y-87715828D01*
X132638833Y-87715826D01*
X132815826Y-87538833D01*
X132815828Y-87538830D01*
X132925758Y-87313964D01*
X132947000Y-87168170D01*
X132947000Y-86947000D01*
X131822000Y-86947000D01*
X131322000Y-86947000D01*
X130197000Y-86947000D01*
X129467000Y-86947000D01*
X129467000Y-86702000D01*
X125167000Y-86702000D01*
X125167000Y-87349555D01*
X125130681Y-87437236D01*
X125095405Y-87461937D01*
X124883132Y-87560921D01*
X124720921Y-87723132D01*
X124623972Y-87931039D01*
X124623971Y-87931040D01*
X124611501Y-88025765D01*
X124611500Y-88025782D01*
X124611500Y-89828217D01*
X124611501Y-89828234D01*
X124623971Y-89922959D01*
X124623972Y-89922960D01*
X124720921Y-90130867D01*
X124750181Y-90160127D01*
X124786500Y-90247808D01*
X124786500Y-90572389D01*
X124786264Y-90577795D01*
X124779267Y-90657756D01*
X124800044Y-90735297D01*
X124801215Y-90740580D01*
X124815154Y-90819632D01*
X124815156Y-90819636D01*
X124820964Y-90829696D01*
X124833350Y-90859598D01*
X124836359Y-90870826D01*
X124882400Y-90936579D01*
X124885308Y-90941143D01*
X124925448Y-91010666D01*
X124937049Y-91020400D01*
X124986942Y-91062266D01*
X124990932Y-91065922D01*
X125659534Y-91734524D01*
X125673428Y-91751082D01*
X125749781Y-91860126D01*
X125749786Y-91860132D01*
X129813181Y-95923527D01*
X129849500Y-96011208D01*
X129849500Y-111329366D01*
X129819213Y-111410567D01*
X129744661Y-111496606D01*
X129734661Y-111508147D01*
X129734658Y-111508150D01*
X129627092Y-111743688D01*
X129627092Y-111743689D01*
X129590240Y-112000000D01*
X129627092Y-112256310D01*
X129627092Y-112256311D01*
X129734658Y-112491849D01*
X129734660Y-112491851D01*
X129734661Y-112491853D01*
X129819213Y-112589431D01*
X129849500Y-112670633D01*
X129849500Y-119217366D01*
X129819213Y-119298567D01*
X129734661Y-119396147D01*
X129734658Y-119396150D01*
X129627092Y-119631688D01*
X129627092Y-119631689D01*
X129590240Y-119888000D01*
X129627092Y-120144310D01*
X129627092Y-120144311D01*
X129734658Y-120379849D01*
X129734660Y-120379851D01*
X129734661Y-120379853D01*
X129904234Y-120575551D01*
X129904236Y-120575552D01*
X129904238Y-120575554D01*
X130122069Y-120715546D01*
X130122072Y-120715547D01*
X130370527Y-120788500D01*
X130370528Y-120788500D01*
X130629472Y-120788500D01*
X130877928Y-120715547D01*
X130884226Y-120711500D01*
X131068157Y-120593294D01*
X131095766Y-120575551D01*
X131095770Y-120575545D01*
X131102466Y-120569745D01*
X131105918Y-120573729D01*
X131175625Y-120538818D01*
X131184499Y-120538500D01*
X131820890Y-120538500D01*
X131826293Y-120538735D01*
X131909569Y-120546022D01*
X131909569Y-120546021D01*
X131909570Y-120546022D01*
X131937641Y-120538500D01*
X131990332Y-120524380D01*
X131995592Y-120523215D01*
X132077916Y-120508700D01*
X132077918Y-120508698D01*
X132077920Y-120508698D01*
X132088942Y-120502334D01*
X132118853Y-120489943D01*
X132131154Y-120486648D01*
X132199645Y-120438688D01*
X132204157Y-120435813D01*
X132276584Y-120393999D01*
X132330332Y-120329942D01*
X132333951Y-120325993D01*
X132902126Y-119757817D01*
X132989807Y-119721499D01*
X133287848Y-119721499D01*
X133287854Y-119721499D01*
X133428874Y-119700954D01*
X133646401Y-119594612D01*
X133817612Y-119423401D01*
X133923954Y-119205874D01*
X133944500Y-119064855D01*
X133944499Y-118477146D01*
X133923954Y-118336126D01*
X133817612Y-118118599D01*
X133817610Y-118118597D01*
X133817610Y-118118596D01*
X133782341Y-118083328D01*
X133746021Y-117995647D01*
X133782339Y-117907966D01*
X133817197Y-117873108D01*
X133923468Y-117655727D01*
X133944000Y-117514807D01*
X133944000Y-117471000D01*
X131994001Y-117471000D01*
X131994001Y-117514800D01*
X132014532Y-117655730D01*
X132120802Y-117873108D01*
X132155659Y-117907965D01*
X132191978Y-117995646D01*
X132155659Y-118083327D01*
X132120389Y-118118596D01*
X132017677Y-118328699D01*
X132014046Y-118336126D01*
X131993500Y-118477145D01*
X131993500Y-118477150D01*
X131993500Y-118775191D01*
X131957181Y-118862872D01*
X131618873Y-119201181D01*
X131531192Y-119237500D01*
X131274500Y-119237500D01*
X131186819Y-119201181D01*
X131150500Y-119113500D01*
X131150500Y-116971000D01*
X131994000Y-116971000D01*
X132719000Y-116971000D01*
X132719000Y-116271000D01*
X132718999Y-116270999D01*
X132650200Y-116271000D01*
X132509269Y-116291532D01*
X132291891Y-116397802D01*
X132120802Y-116568891D01*
X132014531Y-116786272D01*
X131994000Y-116927192D01*
X131994000Y-116971000D01*
X131150500Y-116971000D01*
X131150500Y-113792397D01*
X131186819Y-113704716D01*
X131274500Y-113668397D01*
X131362181Y-113704716D01*
X131381891Y-113730403D01*
X131385671Y-113736951D01*
X131398054Y-113766850D01*
X131401350Y-113779150D01*
X131401350Y-113779152D01*
X131449296Y-113847626D01*
X131452203Y-113852189D01*
X131494000Y-113924582D01*
X131494003Y-113924586D01*
X131558043Y-113978322D01*
X131562032Y-113981978D01*
X133769712Y-116189658D01*
X133806031Y-116277339D01*
X133769712Y-116365020D01*
X133682031Y-116401339D01*
X133627571Y-116388740D01*
X133428727Y-116291531D01*
X133287808Y-116271000D01*
X133219000Y-116271000D01*
X133219000Y-116971000D01*
X133943999Y-116971000D01*
X133943999Y-116927199D01*
X133923466Y-116786268D01*
X133826260Y-116587429D01*
X133820379Y-116492705D01*
X133883199Y-116421568D01*
X133977923Y-116415687D01*
X134025341Y-116445287D01*
X135018027Y-117437973D01*
X135021683Y-117441963D01*
X135046048Y-117471000D01*
X135075416Y-117505999D01*
X135075417Y-117506000D01*
X135075419Y-117506001D01*
X135147807Y-117547794D01*
X135152363Y-117550696D01*
X135220845Y-117598648D01*
X135233145Y-117601943D01*
X135263052Y-117614330D01*
X135274084Y-117620700D01*
X135356404Y-117635215D01*
X135361689Y-117636386D01*
X135442431Y-117658021D01*
X135525703Y-117650735D01*
X135531105Y-117650500D01*
X136179192Y-117650500D01*
X136266873Y-117686819D01*
X136485023Y-117904969D01*
X136521342Y-117992650D01*
X136485023Y-118080331D01*
X136397343Y-118116650D01*
X136280710Y-118116650D01*
X136134712Y-118145690D01*
X135969160Y-118256310D01*
X135858540Y-118421865D01*
X135858538Y-118421869D01*
X135829500Y-118567852D01*
X135829500Y-119666439D01*
X135858540Y-119812437D01*
X135918552Y-119902250D01*
X135969160Y-119977990D01*
X136134715Y-120088610D01*
X136134718Y-120088610D01*
X136134719Y-120088611D01*
X136207711Y-120103130D01*
X136280707Y-120117650D01*
X138279292Y-120117649D01*
X138425285Y-120088610D01*
X138425286Y-120088609D01*
X138425287Y-120088609D01*
X138456980Y-120067432D01*
X138590840Y-119977990D01*
X138701460Y-119812435D01*
X138730500Y-119666443D01*
X138730499Y-118949806D01*
X138766818Y-118862126D01*
X138854499Y-118825807D01*
X138942180Y-118862126D01*
X139813181Y-119733127D01*
X139849500Y-119820808D01*
X139849500Y-120532650D01*
X139813181Y-120620331D01*
X139725501Y-120656650D01*
X139580710Y-120656650D01*
X139434712Y-120685690D01*
X139269160Y-120796310D01*
X139158540Y-120961865D01*
X139158538Y-120961869D01*
X139129500Y-121107852D01*
X139129500Y-122206439D01*
X139158540Y-122352437D01*
X139232286Y-122462805D01*
X139269160Y-122517990D01*
X139434715Y-122628610D01*
X139434718Y-122628610D01*
X139434719Y-122628611D01*
X139490191Y-122639645D01*
X139580707Y-122657650D01*
X141579292Y-122657649D01*
X141725285Y-122628610D01*
X141725286Y-122628609D01*
X141725287Y-122628609D01*
X141763264Y-122603233D01*
X141890840Y-122517990D01*
X142001460Y-122352435D01*
X142030500Y-122206443D01*
X142030499Y-121107858D01*
X142001460Y-120961865D01*
X142001459Y-120961864D01*
X142001459Y-120961862D01*
X141946024Y-120878898D01*
X141890840Y-120796310D01*
X141725285Y-120685690D01*
X141725283Y-120685689D01*
X141725280Y-120685688D01*
X141579296Y-120656650D01*
X141579293Y-120656650D01*
X141274500Y-120656650D01*
X141186819Y-120620331D01*
X141150500Y-120532650D01*
X141150500Y-119531101D01*
X141150736Y-119525694D01*
X141153663Y-119492247D01*
X141158021Y-119442431D01*
X141136386Y-119361687D01*
X141135215Y-119356404D01*
X141125017Y-119298569D01*
X141120700Y-119274084D01*
X141114330Y-119263052D01*
X141101943Y-119233145D01*
X141098648Y-119220845D01*
X141050696Y-119152363D01*
X141047794Y-119147807D01*
X141006001Y-119075419D01*
X141006000Y-119075418D01*
X141005999Y-119075416D01*
X140941956Y-119021677D01*
X140937972Y-119018026D01*
X139709276Y-117789330D01*
X139672957Y-117701649D01*
X139709276Y-117613968D01*
X139796954Y-117577649D01*
X141579292Y-117577649D01*
X141725285Y-117548610D01*
X141725286Y-117548609D01*
X141725287Y-117548609D01*
X141753066Y-117530047D01*
X141890840Y-117437990D01*
X142001460Y-117272435D01*
X142030500Y-117126443D01*
X142030499Y-116027858D01*
X142001460Y-115881865D01*
X142001459Y-115881864D01*
X142001459Y-115881862D01*
X141912893Y-115749315D01*
X141890840Y-115716310D01*
X141725285Y-115605690D01*
X141725283Y-115605689D01*
X141725280Y-115605688D01*
X141579296Y-115576650D01*
X139580710Y-115576650D01*
X139434712Y-115605690D01*
X139269160Y-115716310D01*
X139158540Y-115881865D01*
X139158538Y-115881869D01*
X139129500Y-116027852D01*
X139129500Y-116910192D01*
X139093181Y-116997873D01*
X139005500Y-117034192D01*
X138917819Y-116997873D01*
X137481971Y-115562025D01*
X137478315Y-115558035D01*
X137424582Y-115493999D01*
X137424581Y-115493998D01*
X137352189Y-115452203D01*
X137347632Y-115449300D01*
X137279154Y-115401352D01*
X137279153Y-115401351D01*
X137279151Y-115401350D01*
X137266850Y-115398054D01*
X137236944Y-115385667D01*
X137225916Y-115379300D01*
X137143597Y-115364784D01*
X137138315Y-115363613D01*
X137057567Y-115341977D01*
X136987651Y-115348095D01*
X136974288Y-115349264D01*
X136968887Y-115349500D01*
X136320808Y-115349500D01*
X136233127Y-115313181D01*
X136166412Y-115246466D01*
X136130093Y-115158785D01*
X136166412Y-115071104D01*
X136254093Y-115034785D01*
X136278293Y-115037169D01*
X136280707Y-115037650D01*
X138279292Y-115037649D01*
X138425285Y-115008610D01*
X138425286Y-115008609D01*
X138425287Y-115008609D01*
X138453066Y-114990047D01*
X138590840Y-114897990D01*
X138701460Y-114732435D01*
X138730500Y-114586443D01*
X138730499Y-114449806D01*
X138766817Y-114362126D01*
X138854498Y-114325807D01*
X138942178Y-114362124D01*
X138942180Y-114362126D01*
X139018027Y-114437973D01*
X139021683Y-114441963D01*
X139075413Y-114505996D01*
X139075416Y-114505999D01*
X139075417Y-114506000D01*
X139075419Y-114506001D01*
X139147808Y-114547795D01*
X139152371Y-114550701D01*
X139220846Y-114598648D01*
X139233144Y-114601943D01*
X139263050Y-114614330D01*
X139272308Y-114619674D01*
X139274084Y-114620700D01*
X139356406Y-114635215D01*
X139361671Y-114636382D01*
X139442431Y-114658022D01*
X139525711Y-114650735D01*
X139531113Y-114650500D01*
X141679192Y-114650500D01*
X141766873Y-114686819D01*
X142313181Y-115233126D01*
X142349500Y-115320807D01*
X142349500Y-123417210D01*
X142313181Y-123504891D01*
X142236309Y-123540738D01*
X142187177Y-123545037D01*
X142171438Y-123546414D01*
X142166037Y-123546650D01*
X138797664Y-123546650D01*
X138709983Y-123510331D01*
X138694562Y-123491541D01*
X138644895Y-123417210D01*
X138590840Y-123336310D01*
X138425285Y-123225690D01*
X138425283Y-123225689D01*
X138425280Y-123225688D01*
X138279296Y-123196650D01*
X136280710Y-123196650D01*
X136134712Y-123225690D01*
X135969160Y-123336310D01*
X135858540Y-123501865D01*
X135858538Y-123501869D01*
X135829500Y-123647852D01*
X135829500Y-124746439D01*
X135858540Y-124892437D01*
X135922463Y-124988103D01*
X135969160Y-125057990D01*
X136134715Y-125168610D01*
X136134718Y-125168610D01*
X136134719Y-125168611D01*
X136207711Y-125183130D01*
X136280707Y-125197650D01*
X138083041Y-125197649D01*
X138170722Y-125233968D01*
X138207041Y-125321649D01*
X138170722Y-125409330D01*
X137562024Y-126018028D01*
X137558035Y-126021683D01*
X137494001Y-126075414D01*
X137494001Y-126075415D01*
X137452202Y-126147811D01*
X137449295Y-126152373D01*
X137401352Y-126220845D01*
X137401350Y-126220848D01*
X137398054Y-126233151D01*
X137385672Y-126263045D01*
X137379300Y-126274081D01*
X137364783Y-126356404D01*
X137363612Y-126361684D01*
X137341977Y-126442430D01*
X137344023Y-126465807D01*
X137348369Y-126515484D01*
X137349264Y-126525706D01*
X137349500Y-126531113D01*
X137349500Y-127179191D01*
X137313181Y-127266872D01*
X136842024Y-127738028D01*
X136838035Y-127741684D01*
X136774001Y-127795415D01*
X136732202Y-127867811D01*
X136729295Y-127872373D01*
X136681352Y-127940845D01*
X136681350Y-127940848D01*
X136678054Y-127953151D01*
X136665672Y-127983045D01*
X136659300Y-127994081D01*
X136644783Y-128076404D01*
X136643612Y-128081684D01*
X136621976Y-128162435D01*
X136621886Y-128163465D01*
X136621503Y-128164199D01*
X136619170Y-128172909D01*
X136617238Y-128172391D01*
X136578059Y-128247645D01*
X136498360Y-128276650D01*
X136280710Y-128276650D01*
X136134712Y-128305690D01*
X135969160Y-128416310D01*
X135858540Y-128581865D01*
X135858538Y-128581869D01*
X135829500Y-128727852D01*
X135829500Y-129826439D01*
X135858540Y-129972437D01*
X135928264Y-130076784D01*
X135969160Y-130137990D01*
X136134715Y-130248610D01*
X136171644Y-130255955D01*
X136250555Y-130308681D01*
X136269071Y-130401763D01*
X136238683Y-130461556D01*
X136155455Y-130551965D01*
X136115574Y-130642884D01*
X136089700Y-130680753D01*
X134062024Y-132708428D01*
X134058035Y-132712083D01*
X133994001Y-132765814D01*
X133994001Y-132765815D01*
X133952202Y-132838211D01*
X133949295Y-132842773D01*
X133901352Y-132911245D01*
X133901350Y-132911248D01*
X133898054Y-132923551D01*
X133885672Y-132953445D01*
X133879300Y-132964481D01*
X133864783Y-133046804D01*
X133863612Y-133052084D01*
X133841977Y-133132830D01*
X133849264Y-133216106D01*
X133849500Y-133221513D01*
X133849500Y-133657900D01*
X133813181Y-133745581D01*
X133725500Y-133781900D01*
X133637819Y-133745581D01*
X133497576Y-133605338D01*
X133285595Y-133506489D01*
X133221478Y-133436517D01*
X133214000Y-133394107D01*
X133214000Y-132746000D01*
X128914000Y-132746000D01*
X128914000Y-133393555D01*
X128877681Y-133481236D01*
X128842405Y-133505937D01*
X128630132Y-133604921D01*
X128467921Y-133767132D01*
X128370972Y-133975039D01*
X128370971Y-133975040D01*
X128358501Y-134069765D01*
X128358500Y-134069782D01*
X128358500Y-135872217D01*
X128358501Y-135872234D01*
X128370971Y-135966957D01*
X128446882Y-136129748D01*
X128458500Y-136182153D01*
X128458500Y-136513887D01*
X128455861Y-136539333D01*
X128449420Y-136570052D01*
X128449420Y-136570053D01*
X128458023Y-136639072D01*
X128458500Y-136646748D01*
X128458500Y-136657445D01*
X128465668Y-136700403D01*
X128478338Y-136802041D01*
X128481269Y-136811886D01*
X128481027Y-136811957D01*
X128483720Y-136820361D01*
X128483958Y-136820280D01*
X128487294Y-136829998D01*
X128536037Y-136920067D01*
X128581013Y-137012070D01*
X128586985Y-137020433D01*
X128586778Y-137020580D01*
X128592055Y-137027654D01*
X128592255Y-137027499D01*
X128598560Y-137035601D01*
X128598563Y-137035605D01*
X128598566Y-137035607D01*
X128598567Y-137035609D01*
X128673920Y-137104976D01*
X130944204Y-139375260D01*
X130960329Y-139395115D01*
X130977497Y-139421393D01*
X130977500Y-139421397D01*
X130977503Y-139421400D01*
X130992541Y-139433104D01*
X131032393Y-139464121D01*
X131038148Y-139469204D01*
X131045716Y-139476772D01*
X131081164Y-139502081D01*
X131159897Y-139563362D01*
X131161992Y-139564992D01*
X131171028Y-139569882D01*
X131170906Y-139570106D01*
X131178746Y-139574140D01*
X131178858Y-139573912D01*
X131188089Y-139578425D01*
X131286244Y-139607646D01*
X131383107Y-139640900D01*
X131383108Y-139640900D01*
X131393245Y-139642592D01*
X131393203Y-139642842D01*
X131401928Y-139644113D01*
X131401960Y-139643861D01*
X131412153Y-139645131D01*
X131412155Y-139645132D01*
X131412156Y-139645131D01*
X131412157Y-139645132D01*
X131514477Y-139640900D01*
X134414487Y-139640900D01*
X134439933Y-139643539D01*
X134447396Y-139645103D01*
X134470652Y-139649980D01*
X134509536Y-139645133D01*
X134539674Y-139641377D01*
X134547350Y-139640900D01*
X134558040Y-139640900D01*
X134558045Y-139640900D01*
X134601003Y-139633731D01*
X134702642Y-139621062D01*
X134702643Y-139621061D01*
X134702645Y-139621061D01*
X134712492Y-139618130D01*
X134712564Y-139618374D01*
X134720960Y-139615684D01*
X134720877Y-139615443D01*
X134730591Y-139612106D01*
X134730597Y-139612106D01*
X134820667Y-139563362D01*
X134912672Y-139518384D01*
X134912675Y-139518380D01*
X134921037Y-139512411D01*
X134921186Y-139512619D01*
X134928253Y-139507349D01*
X134928096Y-139507147D01*
X134936197Y-139500841D01*
X134936205Y-139500837D01*
X135005575Y-139425480D01*
X135617819Y-138813236D01*
X135705500Y-138776918D01*
X135793181Y-138813237D01*
X135829500Y-138900918D01*
X135829500Y-139986439D01*
X135858540Y-140132437D01*
X135932286Y-140242805D01*
X135969160Y-140297990D01*
X136134715Y-140408610D01*
X136134718Y-140408610D01*
X136134719Y-140408611D01*
X136207711Y-140423130D01*
X136280707Y-140437650D01*
X138279292Y-140437649D01*
X138425285Y-140408610D01*
X138425286Y-140408609D01*
X138425287Y-140408609D01*
X138453066Y-140390047D01*
X138590840Y-140297990D01*
X138701460Y-140132435D01*
X138730500Y-139986443D01*
X138730499Y-139460917D01*
X138766818Y-139373237D01*
X138854499Y-139336918D01*
X138942180Y-139373237D01*
X138944206Y-139375263D01*
X138960331Y-139395119D01*
X138977499Y-139421396D01*
X139032388Y-139464117D01*
X139038143Y-139469200D01*
X139041933Y-139472990D01*
X139045714Y-139476772D01*
X139059003Y-139486260D01*
X139081175Y-139502090D01*
X139159897Y-139563362D01*
X139161989Y-139564990D01*
X139171028Y-139569882D01*
X139170906Y-139570107D01*
X139178744Y-139574141D01*
X139178857Y-139573912D01*
X139188087Y-139578424D01*
X139188088Y-139578424D01*
X139188089Y-139578425D01*
X139286240Y-139607646D01*
X139286253Y-139607650D01*
X139383105Y-139640900D01*
X139393239Y-139642591D01*
X139393197Y-139642842D01*
X139401926Y-139644114D01*
X139401958Y-139643862D01*
X139412154Y-139645132D01*
X139412155Y-139645133D01*
X139412155Y-139645132D01*
X139412156Y-139645133D01*
X139467542Y-139642842D01*
X139514491Y-139640900D01*
X145914487Y-139640900D01*
X145939933Y-139643539D01*
X145947396Y-139645103D01*
X145970652Y-139649980D01*
X146009536Y-139645133D01*
X146039674Y-139641377D01*
X146047350Y-139640900D01*
X146058040Y-139640900D01*
X146058045Y-139640900D01*
X146101003Y-139633731D01*
X146202642Y-139621062D01*
X146202643Y-139621061D01*
X146202645Y-139621061D01*
X146212492Y-139618130D01*
X146212564Y-139618374D01*
X146220960Y-139615684D01*
X146220877Y-139615443D01*
X146230591Y-139612106D01*
X146230597Y-139612106D01*
X146320667Y-139563362D01*
X146412672Y-139518384D01*
X146412675Y-139518380D01*
X146421037Y-139512411D01*
X146421186Y-139512619D01*
X146428253Y-139507349D01*
X146428096Y-139507147D01*
X146436197Y-139500841D01*
X146436205Y-139500837D01*
X146505575Y-139425480D01*
X147043204Y-138887852D01*
X147253838Y-138677219D01*
X147341519Y-138640900D01*
X150967528Y-138640900D01*
X151055209Y-138677219D01*
X151091528Y-138764900D01*
X151089145Y-138789091D01*
X151069500Y-138887852D01*
X151069500Y-139986439D01*
X151098540Y-140132437D01*
X151172286Y-140242805D01*
X151209160Y-140297990D01*
X151374715Y-140408610D01*
X151374718Y-140408610D01*
X151374719Y-140408611D01*
X151447711Y-140423130D01*
X151520707Y-140437650D01*
X153519292Y-140437649D01*
X153665285Y-140408610D01*
X153665286Y-140408609D01*
X153665287Y-140408609D01*
X153693066Y-140390047D01*
X153830840Y-140297990D01*
X153941460Y-140132435D01*
X153970500Y-139986443D01*
X153970499Y-139200916D01*
X154006818Y-139113236D01*
X154094499Y-139076917D01*
X154182179Y-139113235D01*
X154405861Y-139336918D01*
X154444206Y-139375263D01*
X154460331Y-139395119D01*
X154477499Y-139421396D01*
X154532388Y-139464117D01*
X154538143Y-139469200D01*
X154541933Y-139472990D01*
X154545714Y-139476772D01*
X154559003Y-139486260D01*
X154581175Y-139502090D01*
X154659897Y-139563362D01*
X154661989Y-139564990D01*
X154671028Y-139569882D01*
X154670906Y-139570107D01*
X154678744Y-139574141D01*
X154678857Y-139573912D01*
X154688087Y-139578424D01*
X154688088Y-139578424D01*
X154688089Y-139578425D01*
X154786240Y-139607646D01*
X154786253Y-139607650D01*
X154883105Y-139640900D01*
X154893239Y-139642591D01*
X154893197Y-139642842D01*
X154901926Y-139644114D01*
X154901958Y-139643862D01*
X154912154Y-139645132D01*
X154912155Y-139645133D01*
X154912155Y-139645132D01*
X154912156Y-139645133D01*
X154967542Y-139642842D01*
X155014491Y-139640900D01*
X157414487Y-139640900D01*
X157439933Y-139643539D01*
X157447396Y-139645103D01*
X157470652Y-139649980D01*
X157509536Y-139645133D01*
X157539674Y-139641377D01*
X157547350Y-139640900D01*
X157558040Y-139640900D01*
X157558045Y-139640900D01*
X157601003Y-139633731D01*
X157660162Y-139626357D01*
X157751662Y-139651552D01*
X157798548Y-139734067D01*
X157799500Y-139749405D01*
X157799500Y-142658481D01*
X157763181Y-142746162D01*
X156729013Y-143780331D01*
X156641332Y-143816650D01*
X154004254Y-143816650D01*
X153916573Y-143780331D01*
X153901156Y-143761546D01*
X153830840Y-143656310D01*
X153665285Y-143545690D01*
X153665283Y-143545689D01*
X153665280Y-143545688D01*
X153519296Y-143516650D01*
X151520710Y-143516650D01*
X151374712Y-143545690D01*
X151209160Y-143656309D01*
X151208919Y-143656670D01*
X151138847Y-143761541D01*
X151059938Y-143814267D01*
X151035746Y-143816650D01*
X149568364Y-143816650D01*
X149542918Y-143814011D01*
X149529066Y-143811106D01*
X149512199Y-143807570D01*
X149512198Y-143807570D01*
X149512197Y-143807570D01*
X149443177Y-143816173D01*
X149435501Y-143816650D01*
X149424804Y-143816650D01*
X149381843Y-143823818D01*
X149280203Y-143836488D01*
X149270364Y-143839418D01*
X149270292Y-143839176D01*
X149261888Y-143841868D01*
X149261971Y-143842108D01*
X149252253Y-143845444D01*
X149162182Y-143894187D01*
X149070179Y-143939164D01*
X149061821Y-143945133D01*
X149061673Y-143944926D01*
X149054598Y-143950202D01*
X149054753Y-143950402D01*
X149046642Y-143956714D01*
X148999800Y-144007599D01*
X148977273Y-144032070D01*
X148457263Y-144552080D01*
X147565138Y-145444204D01*
X147545282Y-145460329D01*
X147519007Y-145477496D01*
X147519004Y-145477499D01*
X147476283Y-145532384D01*
X147471198Y-145538142D01*
X147463633Y-145545708D01*
X147463627Y-145545716D01*
X147438317Y-145581164D01*
X147375409Y-145661989D01*
X147370517Y-145671029D01*
X147370295Y-145670909D01*
X147366260Y-145678747D01*
X147366488Y-145678859D01*
X147361974Y-145688090D01*
X147332753Y-145786245D01*
X147299499Y-145883106D01*
X147297809Y-145893240D01*
X147297558Y-145893198D01*
X147296286Y-145901930D01*
X147296539Y-145901962D01*
X147295267Y-145912159D01*
X147299500Y-146014477D01*
X147299500Y-147894129D01*
X147263181Y-147981810D01*
X147257727Y-147986944D01*
X147057113Y-148164672D01*
X146884605Y-148414593D01*
X146884604Y-148414594D01*
X146776918Y-148698537D01*
X146740315Y-148999999D01*
X146740315Y-149000000D01*
X146776918Y-149301462D01*
X146860193Y-149521039D01*
X146884604Y-149585405D01*
X146956408Y-149689430D01*
X147057113Y-149835327D01*
X147284414Y-150036698D01*
X147284415Y-150036698D01*
X147284417Y-150036700D01*
X147553310Y-150177826D01*
X147553312Y-150177826D01*
X147553313Y-150177827D01*
X147848162Y-150250500D01*
X148151838Y-150250500D01*
X148446686Y-150177827D01*
X148446686Y-150177826D01*
X148446690Y-150177826D01*
X148715583Y-150036700D01*
X148942888Y-149835326D01*
X149115396Y-149585405D01*
X149223081Y-149301462D01*
X149259685Y-149000000D01*
X149228520Y-148743328D01*
X149223081Y-148698537D01*
X149182241Y-148590852D01*
X149115396Y-148414595D01*
X148942888Y-148164674D01*
X148942886Y-148164672D01*
X148742273Y-147986944D01*
X148700726Y-147901616D01*
X148700500Y-147894129D01*
X148700500Y-146341518D01*
X148736819Y-146253837D01*
X149736688Y-145253969D01*
X149824369Y-145217650D01*
X151035746Y-145217650D01*
X151123427Y-145253969D01*
X151138843Y-145272753D01*
X151209160Y-145377990D01*
X151374715Y-145488610D01*
X151374718Y-145488610D01*
X151374719Y-145488611D01*
X151447711Y-145503130D01*
X151520707Y-145517650D01*
X153519292Y-145517649D01*
X153665285Y-145488610D01*
X153665286Y-145488609D01*
X153665287Y-145488609D01*
X153731743Y-145444204D01*
X153830840Y-145377990D01*
X153901152Y-145272758D01*
X153980062Y-145220033D01*
X154004254Y-145217650D01*
X156897337Y-145217650D01*
X156922783Y-145220289D01*
X156930246Y-145221853D01*
X156953502Y-145226730D01*
X156991707Y-145221967D01*
X157022524Y-145218127D01*
X157030200Y-145217650D01*
X157040890Y-145217650D01*
X157040895Y-145217650D01*
X157083853Y-145210481D01*
X157185492Y-145197812D01*
X157185493Y-145197811D01*
X157185495Y-145197811D01*
X157195342Y-145194880D01*
X157195414Y-145195124D01*
X157203810Y-145192434D01*
X157203727Y-145192193D01*
X157213441Y-145188856D01*
X157213447Y-145188856D01*
X157303517Y-145140112D01*
X157395522Y-145095134D01*
X157395525Y-145095130D01*
X157403887Y-145089161D01*
X157404036Y-145089369D01*
X157411103Y-145084099D01*
X157410946Y-145083897D01*
X157419047Y-145077591D01*
X157419055Y-145077587D01*
X157488426Y-145002229D01*
X158934865Y-143555789D01*
X158954714Y-143539671D01*
X158980996Y-143522501D01*
X159023727Y-143467598D01*
X159028799Y-143461855D01*
X159036372Y-143454284D01*
X159061678Y-143418839D01*
X159124590Y-143338011D01*
X159124590Y-143338008D01*
X159124592Y-143338007D01*
X159129482Y-143328972D01*
X159129707Y-143329093D01*
X159133741Y-143321255D01*
X159133511Y-143321143D01*
X159138023Y-143311912D01*
X159138022Y-143311912D01*
X159138024Y-143311911D01*
X159167242Y-143213768D01*
X159200500Y-143116893D01*
X159200500Y-143116887D01*
X159202192Y-143106755D01*
X159202442Y-143106796D01*
X159203713Y-143098068D01*
X159203461Y-143098037D01*
X159204732Y-143087842D01*
X159200500Y-142985522D01*
X159200500Y-140872651D01*
X161561536Y-140872651D01*
X161642411Y-141253142D01*
X161642413Y-141253147D01*
X161800629Y-141608502D01*
X161800631Y-141608507D01*
X162029270Y-141923202D01*
X162029276Y-141923209D01*
X162205123Y-142081541D01*
X162318348Y-142183489D01*
X162655224Y-142377985D01*
X163025176Y-142498189D01*
X163315057Y-142528657D01*
X163315062Y-142528657D01*
X163509010Y-142528657D01*
X163509015Y-142528657D01*
X163798896Y-142498189D01*
X164168848Y-142377985D01*
X164505724Y-142183489D01*
X164732173Y-141979593D01*
X164794795Y-141923209D01*
X164794796Y-141923206D01*
X164794800Y-141923204D01*
X165023443Y-141608504D01*
X165181660Y-141253143D01*
X165262536Y-140872652D01*
X165262536Y-140483662D01*
X165181660Y-140103171D01*
X165023443Y-139747811D01*
X165023440Y-139747807D01*
X165023440Y-139747806D01*
X164794801Y-139433111D01*
X164794795Y-139433104D01*
X164536923Y-139200917D01*
X164505724Y-139172825D01*
X164168848Y-138978329D01*
X164168847Y-138978328D01*
X164168846Y-138978328D01*
X163798897Y-138858125D01*
X163750582Y-138853047D01*
X163509015Y-138827657D01*
X163315057Y-138827657D01*
X163107999Y-138849419D01*
X163025174Y-138858125D01*
X162655225Y-138978328D01*
X162318349Y-139172824D01*
X162029276Y-139433104D01*
X162029270Y-139433111D01*
X161800632Y-139747804D01*
X161800629Y-139747808D01*
X161800629Y-139747810D01*
X161722847Y-139922512D01*
X161642411Y-140103173D01*
X161561536Y-140483662D01*
X161561536Y-140872651D01*
X159200500Y-140872651D01*
X159200500Y-139841517D01*
X159236818Y-139753837D01*
X162934865Y-136055789D01*
X162954714Y-136039671D01*
X162980996Y-136022501D01*
X163023727Y-135967598D01*
X163028799Y-135961855D01*
X163036372Y-135954284D01*
X163061678Y-135918839D01*
X163124590Y-135838011D01*
X163124590Y-135838008D01*
X163124592Y-135838007D01*
X163129482Y-135828972D01*
X163129707Y-135829093D01*
X163133741Y-135821255D01*
X163133511Y-135821143D01*
X163138023Y-135811912D01*
X163138022Y-135811912D01*
X163138024Y-135811911D01*
X163167242Y-135713768D01*
X163200500Y-135616893D01*
X163200500Y-135616887D01*
X163202192Y-135606755D01*
X163202442Y-135606796D01*
X163203713Y-135598068D01*
X163203461Y-135598037D01*
X163204732Y-135587842D01*
X163200500Y-135485522D01*
X163200500Y-133624518D01*
X163236819Y-133536837D01*
X169079161Y-127694495D01*
X172649500Y-127694495D01*
X172658673Y-127737649D01*
X172730375Y-128074985D01*
X172730377Y-128074990D01*
X172773974Y-128172909D01*
X172833091Y-128305688D01*
X172888593Y-128430345D01*
X172888595Y-128430350D01*
X173117234Y-128745045D01*
X173117240Y-128745052D01*
X173278716Y-128890444D01*
X173406312Y-129005332D01*
X173743188Y-129199828D01*
X174113140Y-129320032D01*
X174403021Y-129350500D01*
X174403026Y-129350500D01*
X174596974Y-129350500D01*
X174596979Y-129350500D01*
X174886860Y-129320032D01*
X175256812Y-129199828D01*
X175593688Y-129005332D01*
X175832950Y-128789900D01*
X175882759Y-128745052D01*
X175882760Y-128745049D01*
X175882764Y-128745047D01*
X176111407Y-128430347D01*
X176269624Y-128074986D01*
X176350500Y-127694495D01*
X176350500Y-127305505D01*
X176269624Y-126925014D01*
X176265028Y-126914692D01*
X176201726Y-126772513D01*
X176111407Y-126569654D01*
X176111404Y-126569650D01*
X176111404Y-126569649D01*
X175882765Y-126254954D01*
X175882759Y-126254947D01*
X175683367Y-126075415D01*
X175593688Y-125994668D01*
X175256812Y-125800172D01*
X175256811Y-125800171D01*
X175256810Y-125800171D01*
X174886861Y-125679968D01*
X174838546Y-125674890D01*
X174596979Y-125649500D01*
X174403021Y-125649500D01*
X174195963Y-125671262D01*
X174113138Y-125679968D01*
X173743189Y-125800171D01*
X173406313Y-125994667D01*
X173117240Y-126254947D01*
X173117234Y-126254954D01*
X172888596Y-126569647D01*
X172888593Y-126569651D01*
X172888593Y-126569653D01*
X172843491Y-126670954D01*
X172730375Y-126925016D01*
X172662414Y-127244750D01*
X172649500Y-127305505D01*
X172649500Y-127694495D01*
X169079161Y-127694495D01*
X176529837Y-120243819D01*
X176617518Y-120207500D01*
X187493487Y-120207500D01*
X187518933Y-120210139D01*
X187526396Y-120211703D01*
X187549652Y-120216580D01*
X187587857Y-120211817D01*
X187618674Y-120207977D01*
X187626350Y-120207500D01*
X187637040Y-120207500D01*
X187637045Y-120207500D01*
X187680003Y-120200331D01*
X187781642Y-120187662D01*
X187781643Y-120187661D01*
X187781645Y-120187661D01*
X187791492Y-120184730D01*
X187791564Y-120184974D01*
X187799960Y-120182284D01*
X187799877Y-120182043D01*
X187809591Y-120178706D01*
X187809597Y-120178706D01*
X187899667Y-120129962D01*
X187991672Y-120084984D01*
X187991675Y-120084980D01*
X188000037Y-120079011D01*
X188000186Y-120079219D01*
X188007253Y-120073949D01*
X188007096Y-120073747D01*
X188015197Y-120067441D01*
X188015205Y-120067437D01*
X188084576Y-119992079D01*
X191188865Y-116887789D01*
X191208714Y-116871671D01*
X191234996Y-116854501D01*
X191277727Y-116799598D01*
X191282799Y-116793855D01*
X191290372Y-116786284D01*
X191315681Y-116750835D01*
X191378590Y-116670011D01*
X191378593Y-116670000D01*
X191383482Y-116660970D01*
X191383707Y-116661092D01*
X191387741Y-116653256D01*
X191387511Y-116653144D01*
X191392026Y-116643909D01*
X191421246Y-116545755D01*
X191428344Y-116525079D01*
X191454500Y-116448893D01*
X191454500Y-116448889D01*
X191456192Y-116438756D01*
X191456442Y-116438797D01*
X191457714Y-116430071D01*
X191457461Y-116430040D01*
X191458732Y-116419842D01*
X191454500Y-116317522D01*
X191454500Y-107339513D01*
X191457139Y-107314067D01*
X191459355Y-107303496D01*
X191463580Y-107283349D01*
X191459556Y-107251067D01*
X191454977Y-107214326D01*
X191454500Y-107206650D01*
X191454500Y-107195955D01*
X191447331Y-107152993D01*
X191445526Y-107138519D01*
X191434662Y-107051358D01*
X191434660Y-107051355D01*
X191431730Y-107041508D01*
X191431974Y-107041435D01*
X191429285Y-107033041D01*
X191429044Y-107033124D01*
X191425707Y-107023405D01*
X191376962Y-106933332D01*
X191331984Y-106841328D01*
X191326013Y-106832964D01*
X191326219Y-106832816D01*
X191320946Y-106825744D01*
X191320746Y-106825901D01*
X191314436Y-106817794D01*
X191239079Y-106748423D01*
X186664819Y-102174162D01*
X186628500Y-102086481D01*
X186628500Y-99444494D01*
X189399500Y-99444494D01*
X189480375Y-99824985D01*
X189480377Y-99824990D01*
X189581142Y-100051311D01*
X189603671Y-100101911D01*
X189638593Y-100180345D01*
X189638595Y-100180350D01*
X189867234Y-100495045D01*
X189867240Y-100495052D01*
X190016229Y-100629201D01*
X190156312Y-100755332D01*
X190493188Y-100949828D01*
X190863140Y-101070032D01*
X191153021Y-101100500D01*
X191153026Y-101100500D01*
X191346974Y-101100500D01*
X191346979Y-101100500D01*
X191636860Y-101070032D01*
X192006812Y-100949828D01*
X192343688Y-100755332D01*
X192614471Y-100511518D01*
X192632759Y-100495052D01*
X192632760Y-100495049D01*
X192632764Y-100495047D01*
X192861407Y-100180347D01*
X193019624Y-99824986D01*
X193100500Y-99444495D01*
X193100500Y-99055505D01*
X193019624Y-98675014D01*
X192861407Y-98319654D01*
X192861404Y-98319650D01*
X192861404Y-98319649D01*
X192632765Y-98004954D01*
X192632759Y-98004947D01*
X192401420Y-97796650D01*
X192343688Y-97744668D01*
X192006812Y-97550172D01*
X192006811Y-97550171D01*
X192006810Y-97550171D01*
X191636861Y-97429968D01*
X191559718Y-97421860D01*
X191346979Y-97399500D01*
X191153021Y-97399500D01*
X190945963Y-97421262D01*
X190863138Y-97429968D01*
X190493189Y-97550171D01*
X190156313Y-97744667D01*
X189867240Y-98004947D01*
X189867234Y-98004954D01*
X189638596Y-98319647D01*
X189480375Y-98675016D01*
X189399500Y-99055505D01*
X189399500Y-99444494D01*
X186628500Y-99444494D01*
X186628500Y-89049007D01*
X186631139Y-89023561D01*
X186631802Y-89020400D01*
X186637579Y-88992848D01*
X186633146Y-88957286D01*
X186628977Y-88923834D01*
X186628500Y-88916158D01*
X186628500Y-88905459D01*
X186628499Y-88905451D01*
X186621327Y-88862472D01*
X186618104Y-88836617D01*
X186608661Y-88760858D01*
X186608660Y-88760856D01*
X186608660Y-88760854D01*
X186605729Y-88751008D01*
X186605973Y-88750935D01*
X186603282Y-88742533D01*
X186603040Y-88742617D01*
X186599706Y-88732908D01*
X186599706Y-88732903D01*
X186550961Y-88642829D01*
X186505984Y-88550827D01*
X186500013Y-88542463D01*
X186500220Y-88542314D01*
X186494949Y-88535246D01*
X186494748Y-88535403D01*
X186488437Y-88527294D01*
X186413092Y-88457935D01*
X169149650Y-71194494D01*
X172649500Y-71194494D01*
X172730375Y-71574985D01*
X172730377Y-71574990D01*
X172816939Y-71769410D01*
X172881091Y-71913497D01*
X172888593Y-71930345D01*
X172888595Y-71930350D01*
X173117234Y-72245045D01*
X173117240Y-72245052D01*
X173255223Y-72369291D01*
X173406312Y-72505332D01*
X173743188Y-72699828D01*
X174113140Y-72820032D01*
X174403021Y-72850500D01*
X174403026Y-72850500D01*
X174596974Y-72850500D01*
X174596979Y-72850500D01*
X174886860Y-72820032D01*
X175256812Y-72699828D01*
X175593688Y-72505332D01*
X175832418Y-72290379D01*
X175882759Y-72245052D01*
X175882760Y-72245049D01*
X175882764Y-72245047D01*
X176111407Y-71930347D01*
X176269624Y-71574986D01*
X176350500Y-71194495D01*
X176350500Y-70805505D01*
X176269624Y-70425014D01*
X176111407Y-70069654D01*
X176111404Y-70069650D01*
X176111404Y-70069649D01*
X175882765Y-69754954D01*
X175882759Y-69754947D01*
X175694387Y-69585338D01*
X175593688Y-69494668D01*
X175256812Y-69300172D01*
X175256811Y-69300171D01*
X175256810Y-69300171D01*
X174886861Y-69179968D01*
X174838546Y-69174890D01*
X174596979Y-69149500D01*
X174403021Y-69149500D01*
X174195963Y-69171262D01*
X174113138Y-69179968D01*
X173743189Y-69300171D01*
X173406313Y-69494667D01*
X173117240Y-69754947D01*
X173117234Y-69754954D01*
X172888596Y-70069647D01*
X172888593Y-70069651D01*
X172888593Y-70069653D01*
X172826866Y-70208294D01*
X172730375Y-70425016D01*
X172649500Y-70805505D01*
X172649500Y-71194494D01*
X169149650Y-71194494D01*
X159520294Y-61565138D01*
X159504166Y-61545277D01*
X159487003Y-61519007D01*
X159487002Y-61519006D01*
X159487001Y-61519004D01*
X159457082Y-61495717D01*
X159432115Y-61476284D01*
X159426350Y-61471193D01*
X159418787Y-61463630D01*
X159383335Y-61438317D01*
X159302514Y-61375412D01*
X159302512Y-61375411D01*
X159302511Y-61375410D01*
X159302509Y-61375409D01*
X159293479Y-61370523D01*
X159293600Y-61370298D01*
X159285755Y-61366260D01*
X159285644Y-61366489D01*
X159276413Y-61361976D01*
X159276411Y-61361975D01*
X159178255Y-61332753D01*
X159158538Y-61325984D01*
X159081394Y-61299499D01*
X159071261Y-61297809D01*
X159071302Y-61297558D01*
X159062571Y-61296286D01*
X159062540Y-61296539D01*
X159052342Y-61295267D01*
X158950023Y-61299500D01*
X156112026Y-61299500D01*
X156044986Y-61279815D01*
X155877928Y-61172453D01*
X155877927Y-61172452D01*
X155877926Y-61172452D01*
X155629473Y-61099500D01*
X155629472Y-61099500D01*
X155370528Y-61099500D01*
X155370527Y-61099500D01*
X155122072Y-61172452D01*
X155122069Y-61172453D01*
X154904238Y-61312445D01*
X154904236Y-61312447D01*
X154904234Y-61312448D01*
X154904234Y-61312449D01*
X154795169Y-61438317D01*
X154734661Y-61508147D01*
X154734658Y-61508150D01*
X154627092Y-61743688D01*
X154627092Y-61743689D01*
X154590240Y-61999999D01*
X154602929Y-62088253D01*
X154579458Y-62180210D01*
X154497838Y-62228638D01*
X154480191Y-62229900D01*
X148652352Y-62229900D01*
X148644253Y-62229369D01*
X148598042Y-62223285D01*
X148569601Y-62219541D01*
X148569599Y-62219541D01*
X148256207Y-62260799D01*
X148256202Y-62260801D01*
X148185563Y-62290061D01*
X148138111Y-62299500D01*
X144861889Y-62299500D01*
X144814437Y-62290061D01*
X144743797Y-62260801D01*
X144743795Y-62260800D01*
X144743794Y-62260800D01*
X144587097Y-62240170D01*
X144430401Y-62219540D01*
X144430399Y-62219540D01*
X144402282Y-62223241D01*
X144355739Y-62229369D01*
X144347641Y-62229900D01*
X134607500Y-62229900D01*
X134519819Y-62193581D01*
X134483500Y-62105900D01*
X134483500Y-61158939D01*
X134519819Y-61071258D01*
X134549873Y-61049143D01*
X134573583Y-61036700D01*
X134800888Y-60835326D01*
X134973396Y-60585405D01*
X135081081Y-60301462D01*
X135117685Y-60000000D01*
X135081081Y-59698538D01*
X134973396Y-59414595D01*
X134800888Y-59164674D01*
X134783478Y-59149250D01*
X134573585Y-58963301D01*
X134304686Y-58822172D01*
X134009838Y-58749500D01*
X133706162Y-58749500D01*
X133411313Y-58822172D01*
X133142414Y-58963301D01*
X132915113Y-59164672D01*
X132742605Y-59414593D01*
X132742604Y-59414594D01*
X132634918Y-59698537D01*
X132598315Y-59999999D01*
X132598315Y-60000000D01*
X132634918Y-60301462D01*
X132742604Y-60585405D01*
X132915112Y-60835326D01*
X133142417Y-61036700D01*
X133166124Y-61049142D01*
X133226885Y-61122046D01*
X133232500Y-61158939D01*
X133232500Y-62105900D01*
X133196181Y-62193581D01*
X133108500Y-62229900D01*
X132692758Y-62229900D01*
X132684657Y-62229369D01*
X132652473Y-62225131D01*
X132610001Y-62219540D01*
X132609999Y-62219540D01*
X132296606Y-62260800D01*
X132296605Y-62260800D01*
X132203174Y-62299501D01*
X132004569Y-62381765D01*
X131753790Y-62574195D01*
X131707954Y-62633930D01*
X131702601Y-62640033D01*
X110069633Y-84273001D01*
X110063530Y-84278354D01*
X110003795Y-84324190D01*
X109811365Y-84574970D01*
X109789661Y-84627369D01*
X109704051Y-84834050D01*
X109690400Y-84867006D01*
X109649140Y-85180400D01*
X109649201Y-85180867D01*
X109658969Y-85255056D01*
X109659500Y-85263158D01*
X109659500Y-110557641D01*
X109658969Y-110565741D01*
X109649140Y-110640400D01*
X95762570Y-110640400D01*
X95476391Y-109336072D01*
X95119507Y-107337584D01*
X94841357Y-105326625D01*
X94642372Y-103306296D01*
X94522858Y-101279713D01*
X94486819Y-99444494D01*
X98899500Y-99444494D01*
X98980375Y-99824985D01*
X98980377Y-99824990D01*
X99081142Y-100051311D01*
X99103671Y-100101911D01*
X99138593Y-100180345D01*
X99138595Y-100180350D01*
X99367234Y-100495045D01*
X99367240Y-100495052D01*
X99516229Y-100629201D01*
X99656312Y-100755332D01*
X99993188Y-100949828D01*
X100363140Y-101070032D01*
X100653021Y-101100500D01*
X100653026Y-101100500D01*
X100846974Y-101100500D01*
X100846979Y-101100500D01*
X101136860Y-101070032D01*
X101506812Y-100949828D01*
X101843688Y-100755332D01*
X102114471Y-100511518D01*
X102132759Y-100495052D01*
X102132760Y-100495049D01*
X102132764Y-100495047D01*
X102361407Y-100180347D01*
X102519624Y-99824986D01*
X102600500Y-99444495D01*
X102600500Y-99055505D01*
X102519624Y-98675014D01*
X102361407Y-98319654D01*
X102361404Y-98319650D01*
X102361404Y-98319649D01*
X102132765Y-98004954D01*
X102132759Y-98004947D01*
X101901420Y-97796650D01*
X101843688Y-97744668D01*
X101506812Y-97550172D01*
X101506811Y-97550171D01*
X101506810Y-97550171D01*
X101136861Y-97429968D01*
X101059718Y-97421860D01*
X100846979Y-97399500D01*
X100653021Y-97399500D01*
X100445963Y-97421262D01*
X100363138Y-97429968D01*
X99993189Y-97550171D01*
X99656313Y-97744667D01*
X99367240Y-98004947D01*
X99367234Y-98004954D01*
X99138596Y-98319647D01*
X98980375Y-98675016D01*
X98899500Y-99055505D01*
X98899500Y-99444494D01*
X94486819Y-99444494D01*
X94483000Y-99250000D01*
X94522858Y-97220287D01*
X94642372Y-95193704D01*
X94841357Y-93173375D01*
X95119507Y-91162416D01*
X95476391Y-89163928D01*
X95911461Y-87180991D01*
X96424046Y-85216664D01*
X97013354Y-83273976D01*
X97678477Y-81355921D01*
X98418390Y-79465458D01*
X99231952Y-77605501D01*
X100117908Y-75778918D01*
X101074893Y-73988526D01*
X102101430Y-72237085D01*
X102768836Y-71194494D01*
X116149500Y-71194494D01*
X116230375Y-71574985D01*
X116230377Y-71574990D01*
X116316939Y-71769410D01*
X116381091Y-71913497D01*
X116388593Y-71930345D01*
X116388595Y-71930350D01*
X116617234Y-72245045D01*
X116617240Y-72245052D01*
X116755223Y-72369291D01*
X116906312Y-72505332D01*
X117243188Y-72699828D01*
X117613140Y-72820032D01*
X117903021Y-72850500D01*
X117903026Y-72850500D01*
X118096974Y-72850500D01*
X118096979Y-72850500D01*
X118386860Y-72820032D01*
X118756812Y-72699828D01*
X119093688Y-72505332D01*
X119332418Y-72290379D01*
X119382759Y-72245052D01*
X119382760Y-72245049D01*
X119382764Y-72245047D01*
X119611407Y-71930347D01*
X119769624Y-71574986D01*
X119850500Y-71194495D01*
X119850500Y-70805505D01*
X119769624Y-70425014D01*
X119611407Y-70069654D01*
X119611404Y-70069650D01*
X119611404Y-70069649D01*
X119382765Y-69754954D01*
X119382759Y-69754947D01*
X119194387Y-69585338D01*
X119093688Y-69494668D01*
X118756812Y-69300172D01*
X118756811Y-69300171D01*
X118756810Y-69300171D01*
X118386861Y-69179968D01*
X118338546Y-69174890D01*
X118096979Y-69149500D01*
X117903021Y-69149500D01*
X117695963Y-69171262D01*
X117613138Y-69179968D01*
X117243189Y-69300171D01*
X116906313Y-69494667D01*
X116617240Y-69754947D01*
X116617234Y-69754954D01*
X116388596Y-70069647D01*
X116388593Y-70069651D01*
X116388593Y-70069653D01*
X116326866Y-70208294D01*
X116230375Y-70425016D01*
X116149500Y-70805505D01*
X116149500Y-71194494D01*
X102768836Y-71194494D01*
X103195937Y-70527297D01*
X104356726Y-68861796D01*
X105582007Y-67243152D01*
X106869893Y-65673861D01*
X108218393Y-64156341D01*
X109625433Y-62692933D01*
X111088841Y-61285893D01*
X112606361Y-59937393D01*
X114175652Y-58649507D01*
X115437261Y-57694494D01*
X127149500Y-57694494D01*
X127230375Y-58074985D01*
X127230377Y-58074990D01*
X127388593Y-58430345D01*
X127388595Y-58430350D01*
X127617234Y-58745045D01*
X127617240Y-58745052D01*
X127793087Y-58903384D01*
X127906312Y-59005332D01*
X128243188Y-59199828D01*
X128613140Y-59320032D01*
X128903021Y-59350500D01*
X128903026Y-59350500D01*
X129096974Y-59350500D01*
X129096979Y-59350500D01*
X129386860Y-59320032D01*
X129756812Y-59199828D01*
X130093688Y-59005332D01*
X130320137Y-58801436D01*
X130382759Y-58745052D01*
X130382760Y-58745049D01*
X130382764Y-58745047D01*
X130611407Y-58430347D01*
X130769624Y-58074986D01*
X130850500Y-57694495D01*
X130850500Y-57305505D01*
X130769624Y-56925014D01*
X130611407Y-56569654D01*
X130611404Y-56569650D01*
X130611404Y-56569649D01*
X130382765Y-56254954D01*
X130382759Y-56254947D01*
X130377265Y-56250000D01*
X136900000Y-56250000D01*
X136900000Y-59149252D01*
X136929008Y-59295085D01*
X136929010Y-59295089D01*
X137039520Y-59460479D01*
X137204910Y-59570989D01*
X137204914Y-59570991D01*
X137350747Y-59599999D01*
X137350750Y-59600000D01*
X139100000Y-59600000D01*
X139100000Y-56250000D01*
X139600000Y-56250000D01*
X139600000Y-59600000D01*
X141349250Y-59600000D01*
X141349252Y-59599999D01*
X141495085Y-59570991D01*
X141495089Y-59570989D01*
X141660479Y-59460479D01*
X141770989Y-59295089D01*
X141770991Y-59295085D01*
X141799999Y-59149252D01*
X141800000Y-59149250D01*
X141800000Y-56250000D01*
X149800000Y-56250000D01*
X149800000Y-59149252D01*
X149829008Y-59295085D01*
X149829010Y-59295089D01*
X149939520Y-59460479D01*
X150104910Y-59570989D01*
X150104914Y-59570991D01*
X150250747Y-59599999D01*
X150250750Y-59600000D01*
X152000000Y-59600000D01*
X152000000Y-56250000D01*
X152500000Y-56250000D01*
X152500000Y-59600000D01*
X154249250Y-59600000D01*
X154249252Y-59599999D01*
X154395085Y-59570991D01*
X154395089Y-59570989D01*
X154560479Y-59460479D01*
X154670989Y-59295089D01*
X154670991Y-59295085D01*
X154699999Y-59149252D01*
X154700000Y-59149250D01*
X154700000Y-57694494D01*
X161649500Y-57694494D01*
X161730375Y-58074985D01*
X161730377Y-58074990D01*
X161888593Y-58430345D01*
X161888595Y-58430350D01*
X162117234Y-58745045D01*
X162117240Y-58745052D01*
X162293087Y-58903384D01*
X162406312Y-59005332D01*
X162743188Y-59199828D01*
X163113140Y-59320032D01*
X163403021Y-59350500D01*
X163403026Y-59350500D01*
X163596974Y-59350500D01*
X163596979Y-59350500D01*
X163886860Y-59320032D01*
X164256812Y-59199828D01*
X164593688Y-59005332D01*
X164820137Y-58801436D01*
X164882759Y-58745052D01*
X164882760Y-58745049D01*
X164882764Y-58745047D01*
X165111407Y-58430347D01*
X165269624Y-58074986D01*
X165350500Y-57694495D01*
X165350500Y-57305505D01*
X165269624Y-56925014D01*
X165111407Y-56569654D01*
X165111404Y-56569650D01*
X165111404Y-56569649D01*
X164882765Y-56254954D01*
X164882759Y-56254947D01*
X164694387Y-56085338D01*
X164593688Y-55994668D01*
X164256812Y-55800172D01*
X164256811Y-55800171D01*
X164256810Y-55800171D01*
X163886861Y-55679968D01*
X163838546Y-55674890D01*
X163596979Y-55649500D01*
X163403021Y-55649500D01*
X163195963Y-55671262D01*
X163113138Y-55679968D01*
X162743189Y-55800171D01*
X162406313Y-55994667D01*
X162117240Y-56254947D01*
X162117234Y-56254954D01*
X161888596Y-56569647D01*
X161730375Y-56925016D01*
X161649500Y-57305505D01*
X161649500Y-57694494D01*
X154700000Y-57694494D01*
X154700000Y-56250000D01*
X152500000Y-56250000D01*
X152000000Y-56250000D01*
X149800000Y-56250000D01*
X141800000Y-56250000D01*
X139600000Y-56250000D01*
X139100000Y-56250000D01*
X136900000Y-56250000D01*
X130377265Y-56250000D01*
X130194387Y-56085338D01*
X130093688Y-55994668D01*
X129756812Y-55800172D01*
X129756811Y-55800171D01*
X129756810Y-55800171D01*
X129602399Y-55750000D01*
X136900000Y-55750000D01*
X139100000Y-55750000D01*
X139100000Y-52400000D01*
X139600000Y-52400000D01*
X139600000Y-55750000D01*
X141800000Y-55750000D01*
X149800000Y-55750000D01*
X152000000Y-55750000D01*
X152000000Y-52400000D01*
X152500000Y-52400000D01*
X152500000Y-55750000D01*
X154700000Y-55750000D01*
X154700000Y-52850749D01*
X154699999Y-52850747D01*
X154670991Y-52704914D01*
X154670989Y-52704910D01*
X154560479Y-52539520D01*
X154395089Y-52429010D01*
X154395085Y-52429008D01*
X154249251Y-52400000D01*
X152500000Y-52400000D01*
X152000000Y-52400000D01*
X150250749Y-52400000D01*
X150104914Y-52429008D01*
X150104910Y-52429010D01*
X149939520Y-52539520D01*
X149829010Y-52704910D01*
X149829008Y-52704914D01*
X149800000Y-52850747D01*
X149800000Y-55750000D01*
X141800000Y-55750000D01*
X141800000Y-52850749D01*
X141799999Y-52850747D01*
X141770991Y-52704914D01*
X141770989Y-52704910D01*
X141660479Y-52539520D01*
X141495089Y-52429010D01*
X141495085Y-52429008D01*
X141349251Y-52400000D01*
X139600000Y-52400000D01*
X139100000Y-52400000D01*
X137350749Y-52400000D01*
X137204914Y-52429008D01*
X137204910Y-52429010D01*
X137039520Y-52539520D01*
X136929010Y-52704910D01*
X136929008Y-52704914D01*
X136900000Y-52850747D01*
X136900000Y-55750000D01*
X129602399Y-55750000D01*
X129386861Y-55679968D01*
X129338546Y-55674890D01*
X129096979Y-55649500D01*
X128903021Y-55649500D01*
X128695963Y-55671262D01*
X128613138Y-55679968D01*
X128243189Y-55800171D01*
X127906313Y-55994667D01*
X127617240Y-56254947D01*
X127617234Y-56254954D01*
X127388596Y-56569647D01*
X127230375Y-56925016D01*
X127149500Y-57305505D01*
X127149500Y-57694494D01*
X115437261Y-57694494D01*
X115794296Y-57424226D01*
X117459797Y-56263437D01*
X119169585Y-55168930D01*
X120921026Y-54142393D01*
X122711418Y-53185408D01*
X124538001Y-52299452D01*
X124946298Y-52120859D01*
X144542048Y-52120859D01*
X144561887Y-52436181D01*
X144561888Y-52436187D01*
X144659520Y-52736668D01*
X144659521Y-52736669D01*
X144828815Y-53003434D01*
X144828818Y-53003437D01*
X144828819Y-53003438D01*
X145059129Y-53219714D01*
X145059137Y-53219720D01*
X145335997Y-53371925D01*
X145336001Y-53371927D01*
X145642025Y-53450500D01*
X145642029Y-53450500D01*
X145878673Y-53450500D01*
X145878675Y-53450500D01*
X145878680Y-53450499D01*
X145878684Y-53450499D01*
X145904137Y-53447283D01*
X146113458Y-53420840D01*
X146407221Y-53304531D01*
X146662830Y-53118820D01*
X146864224Y-52875377D01*
X146998749Y-52589497D01*
X147057952Y-52279144D01*
X147038113Y-51963817D01*
X146940479Y-51663331D01*
X146771185Y-51396566D01*
X146771180Y-51396561D01*
X146540870Y-51180285D01*
X146540862Y-51180279D01*
X146264002Y-51028074D01*
X146263992Y-51028071D01*
X145957978Y-50949500D01*
X145957975Y-50949500D01*
X145721325Y-50949500D01*
X145721315Y-50949500D01*
X145486542Y-50979160D01*
X145486539Y-50979160D01*
X145192780Y-51095468D01*
X145192771Y-51095473D01*
X144937172Y-51281177D01*
X144735775Y-51524624D01*
X144601250Y-51810505D01*
X144572006Y-51963812D01*
X144542048Y-52120856D01*
X144542048Y-52120858D01*
X144542048Y-52120859D01*
X124946298Y-52120859D01*
X126397958Y-51485890D01*
X128288421Y-50745977D01*
X130206476Y-50080854D01*
X132149164Y-49491546D01*
X134113491Y-48978961D01*
X136096428Y-48543891D01*
X138094916Y-48187007D01*
X140105875Y-47908857D01*
X142126204Y-47709872D01*
X144152787Y-47590358D01*
X146182500Y-47550500D01*
X148212213Y-47590358D01*
G37*
%TD.AperFunction*%
M02*
