<?xml version="1.0" standalone="no"?>
 <!DOCTYPE svg PUBLIC "-//W3C//DTD SVG 1.1//EN" 
 "http://www.w3.org/Graphics/SVG/1.1/DTD/svg11.dtd"> 
<svg
  xmlns:svg="http://www.w3.org/2000/svg"
  xmlns="http://www.w3.org/2000/svg"
  xmlns:xlink="http://www.w3.org/1999/xlink"
  version="1.1"
  width="297.0022mm" height="210.0072mm" viewBox="0.0000 0.0000 297.0022 210.0072">
<title>SVG Image created as maglev26-F_Silkscreen.svg date 2024/10/17 17:31:25 </title>
  <desc>Image generated by PCBNEW </desc>
<g style="fill:#000000; fill-opacity:1.0000;stroke:#000000; stroke-opacity:1.0000;
stroke-linecap:round; stroke-linejoin:round;"
 transform="translate(0 0) scale(1 1)">
</g>
<g style="fill:#000000; fill-opacity:0.0; 
stroke:#000000; stroke-width:0.0000; stroke-opacity:1; 
stroke-linecap:round; stroke-linejoin:round;">
</g>
<g style="fill:#000000; fill-opacity:0.0; 
stroke:#000000; stroke-width:0.1500; stroke-opacity:1; 
stroke-linecap:round; stroke-linejoin:round;">
<path d="M174.2500 132.0000 A0.2500 0.2500 0.0 0 0 174.7500 132.0000" />
<path d="M165.8620 113.1570
L165.6080 113.4110
" />
<path d="M174.7500 74.5000
L174.7500 75.2500
" />
<path d="M126.6250 103.5000
L127.1250 103.5000
" />
<path d="M147.1250 123.2500
L147.3750 122.5000
" />
<path style="fill:#000000; fill-opacity:0.0; 
stroke:#000000; stroke-width:0.1500; stroke-opacity:1; 
stroke-linecap:round; stroke-linejoin:round;fill:none"
d="M 174.7500,131.0000
175.2500,131.0000
175.2500,131.5000
174.7500,131.5000
Z" /> 
<path d="M145.5000 82.2500
L144.7500 83.2500
" />
<path d="M117.7500 75.2500
L117.7500 75.5000
" />
<circle cx="124.4600" cy="113.9190" r="0.3810" /> 
<path d="M144.7500 83.2500
L145.2500 83.2500
" />
<path d="M174.2500 131.0000
L174.2500 131.7500
" />
<path d="M173.7500 74.5000
L174.2500 74.5000
" />
<path style="fill:#000000; fill-opacity:0.0; 
stroke:#000000; stroke-width:0.1500; stroke-opacity:1; 
stroke-linecap:round; stroke-linejoin:round;fill:none"
d="M 118.2500,74.5000
118.7500,74.5000
118.7500,75.0000
118.2500,75.0000
Z" /> 
<path d="M167.6400 114.0460
L167.6400 114.5540
" />
<path d="M167.6250 103.2500
L167.1250 103.2500
" />
<path d="M117.2500 75.5000
L117.2500 74.5000
" />
<path d="M124.7140 113.6650
L124.2060 114.1730
" />
<path d="M144.3990 93.9800
L144.6530 94.2340
" />
<path d="M173.7500 131.0000
L174.2500 131.0000
" />
<path d="M175.2500 75.5000
L175.2500 74.5000
" />
<path d="M146.4310 91.9480
L146.6850 92.2020
" />
<circle cx="167.6400" cy="113.4110" r="0.3810" /> 
<path d="M174.7500 75.5000
L174.7500 75.2500
" />
<path d="M145.2500 124.2500
L146.0000 123.2500
" />
<path d="M117.2500 132.0000
L117.2500 131.0000
" />
<circle cx="126.2500" cy="99.2500" r="10.0000" /> 
<path d="M117.7500 74.5000
L117.7500 75.2500
" />
<path d="M118.7500 131.5000
L118.2500 131.5000
" />
<path d="M166.0000 103.2500
L165.5000 103.2500
" />
<path d="M145.2500 83.2500
L145.0000 84.0000
" />
<path d="M173.7500 75.5000
L173.7500 74.5000
" />
<circle cx="146.2500" cy="79.2500" r="10.0000" /> 
<path d="M118.2500 131.0000
L118.2500 131.7500
" />
<path d="M146.4310 93.3450
L146.4310 91.9480
" />
<path d="M146.8750 124.2500
L147.6250 123.2500
" />
<path d="M175.2500 131.0000
L174.7500 131.0000
" />
<path d="M117.7500 131.5000
L117.2500 131.5000
" />
<path d="M167.8940 113.1570
L167.3860 113.6650
" />
<circle cx="146.2500" cy="79.2500" r="9.5000" /> 
<path d="M167.6400 111.3790
L167.8940 111.6330
" />
<circle cx="118.0000" cy="71.0000" r="10.0000" /> 
<path d="M145.7500 122.5000
L145.0000 123.5000
" />
<path d="M146.0000 123.2500
L145.5000 123.2500
" />
<path d="M167.1250 103.5000
L166.8750 104.2500
" />
<path d="M174.7500 131.0000
L174.7500 131.7500
" />
<path d="M127.3750 102.5000
L126.6250 103.5000
" />
<path d="M165.2500 104.2500
L166.0000 103.2500
" />
<path d="M122.6820 113.6650
L122.4280 113.9190
" />
<path d="M145.5000 123.5000
L145.2500 124.2500
" />
<path d="M166.6250 103.5000
L167.1250 103.5000
" />
<path d="M146.6250 84.0000
L147.3750 83.0000
" />
<path d="M167.6400 112.7760
L167.6400 111.3790
" />
<path d="M125.7500 102.5000
L125.0000 103.5000
" />
<path d="M126.8750 104.2500
L127.6250 103.2500
" />
<path d="M146.4310 94.6150
L146.4310 95.1230
" />
<path d="M165.0000 103.5000
L165.5000 103.5000
" />
<path d="M173.7500 132.0000 A0.7500 0.7500 0.0 0 0 175.2500 132.0000" />
<path d="M166.8750 104.2500
L167.6250 103.2500
" />
<path d="M127.1250 103.5000
L126.8750 104.2500
" />
<path d="M145.7500 83.0000
L145.2500 83.0000
" />
<circle cx="146.2500" cy="119.2500" r="9.5000" /> 
<path d="M146.4310 91.9480
L146.1770 92.2020
" />
<circle cx="126.2500" cy="99.2500" r="9.5000" /> 
<path d="M165.5000 103.2500
L165.7500 102.5000
" />
<path d="M117.7500 75.0000
L117.2500 75.0000
" />
<path d="M174.7500 132.0000
L174.7500 131.7500
" />
<path d="M174.2500 75.0000
L173.7500 75.0000
" />
<path d="M175.2500 132.0000
L175.2500 131.0000
" />
<path d="M175.2500 74.5000
L174.7500 74.5000
" />
<path d="M165.7500 102.5000
L165.0000 103.5000
" />
<circle cx="174.5000" cy="71.0000" r="10.0000" /> 
<path d="M127.6250 103.2500
L127.1250 103.2500
" />
<path d="M117.7500 132.0000 A0.2500 0.2500 0.0 0 0 118.2500 132.0000" />
<path d="M175.2500 75.0000
L174.7500 75.0000
" />
<path d="M117.2500 131.0000
L117.7500 131.0000
" />
</g>
<g style="fill:#000000; fill-opacity:1.0000; 
stroke:#000000; stroke-width:0.0000; stroke-opacity:1; 
stroke-linecap:round; stroke-linejoin:round;">
<circle cx="143.9672" cy="98.2980" r="0.2020" /> 
</g>
<g style="fill:#000000; fill-opacity:1.0000; 
stroke:#000000; stroke-width:0.1500; stroke-opacity:1; 
stroke-linecap:round; stroke-linejoin:round;">
</g>
<g style="fill:#000000; fill-opacity:0.0; 
stroke:#000000; stroke-width:0.1500; stroke-opacity:1; 
stroke-linecap:round; stroke-linejoin:round;">
<path d="M122.4280 113.9190
L122.6820 113.6650
" />
<path d="M118.7500 75.0000
L118.2500 75.0000
" />
<path d="M174.2500 75.2500
L174.2500 75.5000
" />
<path d="M117.2500 74.5000
L117.7500 74.5000
" />
<path d="M118.7500 131.0000
L118.2500 131.0000
" />
<path d="M146.8750 83.0000
L147.1250 82.2500
" />
<path d="M124.4600 114.5540
L124.4600 115.0620
" />
</g>
<g style="fill:#000000; fill-opacity:1.0000; 
stroke:#000000; stroke-width:0.0000; stroke-opacity:1; 
stroke-linecap:round; stroke-linejoin:round;">
<circle cx="162.4838" cy="116.9416" r="0.2020" /> 
</g>
<g style="fill:#000000; fill-opacity:1.0000; 
stroke:#000000; stroke-width:0.1500; stroke-opacity:1; 
stroke-linecap:round; stroke-linejoin:round;">
</g>
<g style="fill:#000000; fill-opacity:0.0; 
stroke:#000000; stroke-width:0.1500; stroke-opacity:1; 
stroke-linecap:round; stroke-linejoin:round;">
<path d="M118.2500 132.0000
L118.2500 131.7500
" />
<path d="M118.7500 74.5000
L118.2500 74.5000
" />
<path d="M167.0050 113.4110
L165.6080 113.4110
" />
<path d="M145.7960 93.9800
L144.3990 93.9800
" />
<path d="M145.0000 123.5000
L145.5000 123.5000
" />
<path d="M147.3750 122.5000
L146.6250 123.5000
" />
<path d="M146.1770 93.7260
L146.6850 94.2340
" />
<path d="M173.7500 75.5000 A0.7500 0.7500 0.0 0 0 175.2500 75.5000" />
<path d="M124.4600 111.8870
L124.7140 112.1410
" />
<path d="M167.1250 103.2500
L167.3750 102.5000
" />
<path d="M127.1250 103.2500
L127.3750 102.5000
" />
<path d="M165.6080 113.4110
L165.8620 113.6650
" />
<path d="M174.2500 75.5000 A0.2500 0.2500 0.0 0 0 174.7500 75.5000" />
<circle cx="146.4310" cy="93.9800" r="0.3810" /> 
<path d="M174.2500 131.5000
L173.7500 131.5000
" />
<path d="M126.0000 103.2500
L125.5000 103.2500
" />
<path d="M173.7500 132.0000
L173.7500 131.0000
" />
<circle cx="166.2500" cy="99.2500" r="9.5000" /> 
<circle cx="174.5000" cy="127.5000" r="10.0000" /> 
<path d="M146.6850 93.7260
L146.1770 94.2340
" />
<path d="M117.2500 132.0000 A0.7500 0.7500 0.0 0 0 118.7500 132.0000" />
<path d="M118.7500 132.0000
L118.7500 131.0000
" />
<path d="M147.3750 83.0000
L146.8750 83.0000
" />
<path d="M167.3750 102.5000
L166.6250 103.5000
" />
<path d="M118.2500 74.5000
L118.2500 75.2500
" />
<path d="M146.3750 83.2500
L146.8750 83.2500
" />
<path d="M167.3860 113.1570
L167.8940 113.6650
" />
<path style="fill:#000000; fill-opacity:0.0; 
stroke:#000000; stroke-width:0.1500; stroke-opacity:1; 
stroke-linecap:round; stroke-linejoin:round;fill:none"
d="M 118.2500,131.0000
118.7500,131.0000
118.7500,131.5000
118.2500,131.5000
Z" /> 
<path d="M123.8250 113.9190
L122.4280 113.9190
" />
<circle cx="118.0000" cy="127.5000" r="10.0000" /> 
</g>
<g style="fill:#000000; fill-opacity:1.0000; 
stroke:#000000; stroke-width:0.1500; stroke-opacity:1; 
stroke-linecap:round; stroke-linejoin:round;">
<path style="fill:#000000; fill-opacity:1.0000; 
stroke:#000000; stroke-width:0.1500; stroke-opacity:1; 
stroke-linecap:round; stroke-linejoin:round;fill-rule:evenodd;"
d="M 194.8180,103.8860
193.8020,103.8860
194.3100,102.8700
Z" /> 
</g>
<g style="fill:#000000; fill-opacity:0.0; 
stroke:#000000; stroke-width:0.1500; stroke-opacity:1; 
stroke-linecap:round; stroke-linejoin:round;">
<path d="M165.6080 113.4110
L165.8620 113.1570
" />
<circle cx="166.2500" cy="99.2500" r="10.0000" /> 
<path d="M175.2500 131.5000
L174.7500 131.5000
" />
<path d="M117.7500 131.7500
L117.7500 132.0000
" />
<path d="M194.3100 106.9340
L194.3100 102.8700
" />
<path d="M144.3990 93.9800
L144.6530 93.7260
" />
<path d="M147.1250 82.2500
L146.3750 83.2500
" />
<path d="M144.6530 93.7260
L144.3990 93.9800
" />
<path d="M125.5000 103.2500
L125.7500 102.5000
" />
<path d="M167.6400 111.3790
L167.3860 111.6330
" />
<path d="M125.0000 103.5000
L125.5000 103.5000
" />
</g>
<g style="fill:#000000; fill-opacity:1.0000; 
stroke:#000000; stroke-width:0.0000; stroke-opacity:1; 
stroke-linecap:round; stroke-linejoin:round;">
<circle cx="125.2728" cy="116.8908" r="0.2020" /> 
</g>
<g style="fill:#000000; fill-opacity:1.0000; 
stroke:#000000; stroke-width:0.1500; stroke-opacity:1; 
stroke-linecap:round; stroke-linejoin:round;">
</g>
<g style="fill:#000000; fill-opacity:0.0; 
stroke:#000000; stroke-width:0.1500; stroke-opacity:1; 
stroke-linecap:round; stroke-linejoin:round;">
<path d="M145.0000 84.0000
L145.7500 83.0000
" />
<path d="M124.2060 113.6650
L124.7140 114.1730
" />
<path d="M124.4600 113.2840
L124.4600 111.8870
" />
<path d="M117.7500 75.5000 A0.2500 0.2500 0.0 0 0 118.2500 75.5000" />
<path d="M165.5000 103.5000
L165.2500 104.2500
" />
<path d="M174.2500 74.5000
L174.2500 75.2500
" />
<path d="M124.4600 111.8870
L124.2060 112.1410
" />
<path d="M122.4280 113.9190
L122.6820 114.1730
" />
<path d="M118.7500 75.5000
L118.7500 74.5000
" />
<path d="M145.5000 123.2500
L145.7500 122.5000
" />
<path d="M147.6250 123.2500
L147.1250 123.2500
" />
<path d="M118.2500 75.5000
L118.2500 75.2500
" />
<path d="M117.2500 75.5000 A0.7500 0.7500 0.0 0 0 118.7500 75.5000" />
<path d="M117.7500 131.0000
L117.7500 131.7500
" />
<path d="M174.2500 131.7500
L174.2500 132.0000
" />
<path d="M125.5000 103.5000
L125.2500 104.2500
" />
<path d="M145.2500 83.0000
L145.5000 82.2500
" />
<path d="M147.1250 123.5000
L146.8750 124.2500
" />
<path d="M146.6250 123.5000
L147.1250 123.5000
" />
<circle cx="146.2500" cy="119.2500" r="10.0000" /> 
<path d="M146.8750 83.2500
L146.6250 84.0000
" />
<path style="fill:#000000; fill-opacity:0.0; 
stroke:#000000; stroke-width:0.1500; stroke-opacity:1; 
stroke-linecap:round; stroke-linejoin:round;fill:none"
d="M 174.7500,74.5000
175.2500,74.5000
175.2500,75.0000
174.7500,75.0000
Z" /> 
<path d="M125.2500 104.2500
L126.0000 103.2500
" />
</g>
<g style="fill:#000000; fill-opacity:0.0; 
stroke:#000000; stroke-width:0.1000; stroke-opacity:1; 
stroke-linecap:round; stroke-linejoin:round;">
<text x="146.9390" y="94.3610"
textLength="0.7876" font-size="1.0667" lengthAdjust="spacingAndGlyphs"
text-anchor="start" opacity="0">z</text>
<g class="stroked-text"><desc>z</desc>
<path d="M147.1191 93.7246
L147.5381 93.7246
" />
<path d="M147.5381 93.7246
L147.1191 94.2579
" />
<path d="M147.1191 94.2579
L147.5381 94.2579
" />
</g></g>
<g style="fill:#000000; fill-opacity:0.0; 
stroke:#000000; stroke-width:0.1500; stroke-opacity:1; 
stroke-linecap:round; stroke-linejoin:round;">
<text x="134.1120" y="124.9600"
textLength="1.4881" font-size="1.3333" lengthAdjust="spacingAndGlyphs"
text-anchor="middle" opacity="0">-</text>
<g class="stroked-text"><desc>-</desc>
<path d="M133.7310 124.5339
L134.4930 124.5339
" />
</g><text x="174.5000" y="123.7596"
textLength="4.2500" font-size="1.3333" lengthAdjust="spacingAndGlyphs"
text-anchor="middle" opacity="0">PMAG</text>
<g class="stroked-text"><desc>PMAG</desc>
<path d="M172.7381 123.7144
L172.7381 122.7144
" />
<path d="M172.7381 122.7144
L173.1190 122.7144
" />
<path d="M173.1190 122.7144
L173.2143 122.7620
" />
<path d="M173.2143 122.7620
L173.2619 122.8097
" />
<path d="M173.2619 122.8097
L173.3095 122.9049
" />
<path d="M173.3095 122.9049
L173.3095 123.0478
" />
<path d="M173.3095 123.0478
L173.2619 123.1430
" />
<path d="M173.2619 123.1430
L173.2143 123.1906
" />
<path d="M173.2143 123.1906
L173.1190 123.2382
" />
<path d="M173.1190 123.2382
L172.7381 123.2382
" />
<path d="M173.7381 123.7144
L173.7381 122.7144
" />
<path d="M173.7381 122.7144
L174.0714 123.4287
" />
<path d="M174.0714 123.4287
L174.4048 122.7144
" />
<path d="M174.4048 122.7144
L174.4048 123.7144
" />
<path d="M174.8333 123.4287
L175.3095 123.4287
" />
<path d="M174.7381 123.7144
L175.0714 122.7144
" />
<path d="M175.0714 122.7144
L175.4048 123.7144
" />
<path d="M176.2619 122.7620
L176.1667 122.7144
" />
<path d="M176.1667 122.7144
L176.0238 122.7144
" />
<path d="M176.0238 122.7144
L175.8810 122.7620
" />
<path d="M175.8810 122.7620
L175.7857 122.8573
" />
<path d="M175.7857 122.8573
L175.7381 122.9525
" />
<path d="M175.7381 122.9525
L175.6905 123.1430
" />
<path d="M175.6905 123.1430
L175.6905 123.2858
" />
<path d="M175.6905 123.2858
L175.7381 123.4763
" />
<path d="M175.7381 123.4763
L175.7857 123.5716
" />
<path d="M175.7857 123.5716
L175.8810 123.6668
" />
<path d="M175.8810 123.6668
L176.0238 123.7144
" />
<path d="M176.0238 123.7144
L176.1190 123.7144
" />
<path d="M176.1190 123.7144
L176.2619 123.6668
" />
<path d="M176.2619 123.6668
L176.3095 123.6192
" />
<path d="M176.3095 123.6192
L176.3095 123.2858
" />
<path d="M176.3095 123.2858
L176.1190 123.2858
" />
</g></g>
<g style="fill:#000000; fill-opacity:0.0; 
stroke:#000000; stroke-width:0.1600; stroke-opacity:1; 
stroke-linecap:round; stroke-linejoin:round;">
<text x="130.5560" y="117.5840"
textLength="1.7676" font-size="1.0667" lengthAdjust="spacingAndGlyphs"
text-anchor="middle" opacity="0">A1</text>
<g class="stroked-text"><desc>A1</desc>
<path d="M129.9846 117.2492
L130.3655 117.2492
" />
<path d="M129.9084 117.4778
L130.1750 116.6778
" />
<path d="M130.1750 116.6778
L130.4417 117.4778
" />
<path d="M131.1274 117.4778
L130.6703 117.4778
" />
<path d="M130.8989 117.4778
L130.8989 116.6778
" />
<path d="M130.8989 116.6778
L130.8227 116.7921
" />
<path d="M130.8227 116.7921
L130.7465 116.8683
" />
<path d="M130.7465 116.8683
L130.6703 116.9063
" />
</g><text x="130.5560" y="118.8720"
textLength="1.8438" font-size="1.0667" lengthAdjust="spacingAndGlyphs"
text-anchor="middle" opacity="0">ED</text>
<g class="stroked-text"><desc>ED</desc>
<path d="M129.9846 118.3467
L130.2512 118.3467
" />
<path d="M130.3655 118.7658
L129.9846 118.7658
" />
<path d="M129.9846 118.7658
L129.9846 117.9658
" />
<path d="M129.9846 117.9658
L130.3655 117.9658
" />
<path d="M130.7084 118.7658
L130.7084 117.9658
" />
<path d="M130.7084 117.9658
L130.8989 117.9658
" />
<path d="M130.8989 117.9658
L131.0131 118.0039
" />
<path d="M131.0131 118.0039
L131.0893 118.0801
" />
<path d="M131.0893 118.0801
L131.1274 118.1563
" />
<path d="M131.1274 118.1563
L131.1655 118.3086
" />
<path d="M131.1655 118.3086
L131.1655 118.4229
" />
<path d="M131.1655 118.4229
L131.1274 118.5753
" />
<path d="M131.1274 118.5753
L131.0893 118.6515
" />
<path d="M131.0893 118.6515
L131.0131 118.7277
" />
<path d="M131.0131 118.7277
L130.8989 118.7658
" />
<path d="M130.8989 118.7658
L130.7084 118.7658
" />
</g></g>
<g style="fill:#000000; fill-opacity:0.0; 
stroke:#000000; stroke-width:0.1500; stroke-opacity:1; 
stroke-linecap:round; stroke-linejoin:round;">
<text x="146.0000" y="75.5000"
textLength="4.3452" font-size="1.3333" lengthAdjust="spacingAndGlyphs"
text-anchor="middle" opacity="0">Sol_2</text>
<g class="stroked-text"><desc>Sol_2</desc>
<path d="M144.1429 75.4072
L144.2857 75.4548
" />
<path d="M144.2857 75.4548
L144.5238 75.4548
" />
<path d="M144.5238 75.4548
L144.6190 75.4072
" />
<path d="M144.6190 75.4072
L144.6667 75.3596
" />
<path d="M144.6667 75.3596
L144.7143 75.2643
" />
<path d="M144.7143 75.2643
L144.7143 75.1691
" />
<path d="M144.7143 75.1691
L144.6667 75.0739
" />
<path d="M144.6667 75.0739
L144.6190 75.0262
" />
<path d="M144.6190 75.0262
L144.5238 74.9786
" />
<path d="M144.5238 74.9786
L144.3333 74.9310
" />
<path d="M144.3333 74.9310
L144.2381 74.8834
" />
<path d="M144.2381 74.8834
L144.1905 74.8358
" />
<path d="M144.1905 74.8358
L144.1429 74.7405
" />
<path d="M144.1429 74.7405
L144.1429 74.6453
" />
<path d="M144.1429 74.6453
L144.1905 74.5501
" />
<path d="M144.1905 74.5501
L144.2381 74.5024
" />
<path d="M144.2381 74.5024
L144.3333 74.4548
" />
<path d="M144.3333 74.4548
L144.5714 74.4548
" />
<path d="M144.5714 74.4548
L144.7143 74.5024
" />
<path d="M145.2857 75.4548
L145.1905 75.4072
" />
<path d="M145.1905 75.4072
L145.1429 75.3596
" />
<path d="M145.1429 75.3596
L145.0952 75.2643
" />
<path d="M145.0952 75.2643
L145.0952 74.9786
" />
<path d="M145.0952 74.9786
L145.1429 74.8834
" />
<path d="M145.1429 74.8834
L145.1905 74.8358
" />
<path d="M145.1905 74.8358
L145.2857 74.7882
" />
<path d="M145.2857 74.7882
L145.4286 74.7882
" />
<path d="M145.4286 74.7882
L145.5238 74.8358
" />
<path d="M145.5238 74.8358
L145.5714 74.8834
" />
<path d="M145.5714 74.8834
L145.6190 74.9786
" />
<path d="M145.6190 74.9786
L145.6190 75.2643
" />
<path d="M145.6190 75.2643
L145.5714 75.3596
" />
<path d="M145.5714 75.3596
L145.5238 75.4072
" />
<path d="M145.5238 75.4072
L145.4286 75.4548
" />
<path d="M145.4286 75.4548
L145.2857 75.4548
" />
<path d="M146.1905 75.4548
L146.0952 75.4072
" />
<path d="M146.0952 75.4072
L146.0476 75.3120
" />
<path d="M146.0476 75.3120
L146.0476 74.4548
" />
<path d="M146.3333 75.5501
L147.0952 75.5501
" />
<path d="M147.2857 74.5501
L147.3333 74.5024
" />
<path d="M147.3333 74.5024
L147.4286 74.4548
" />
<path d="M147.4286 74.4548
L147.6667 74.4548
" />
<path d="M147.6667 74.4548
L147.7619 74.5024
" />
<path d="M147.7619 74.5024
L147.8095 74.5501
" />
<path d="M147.8095 74.5501
L147.8571 74.6453
" />
<path d="M147.8571 74.6453
L147.8571 74.7405
" />
<path d="M147.8571 74.7405
L147.8095 74.8834
" />
<path d="M147.8095 74.8834
L147.2381 75.4548
" />
<path d="M147.2381 75.4548
L147.8571 75.4548
" />
</g><text x="174.5000" y="67.5000"
textLength="4.2500" font-size="1.3333" lengthAdjust="spacingAndGlyphs"
text-anchor="middle" opacity="0">PMAG</text>
<g class="stroked-text"><desc>PMAG</desc>
<path d="M172.7381 67.4548
L172.7381 66.4548
" />
<path d="M172.7381 66.4548
L173.1190 66.4548
" />
<path d="M173.1190 66.4548
L173.2143 66.5024
" />
<path d="M173.2143 66.5024
L173.2619 66.5501
" />
<path d="M173.2619 66.5501
L173.3095 66.6453
" />
<path d="M173.3095 66.6453
L173.3095 66.7882
" />
<path d="M173.3095 66.7882
L173.2619 66.8834
" />
<path d="M173.2619 66.8834
L173.2143 66.9310
" />
<path d="M173.2143 66.9310
L173.1190 66.9786
" />
<path d="M173.1190 66.9786
L172.7381 66.9786
" />
<path d="M173.7381 67.4548
L173.7381 66.4548
" />
<path d="M173.7381 66.4548
L174.0714 67.1691
" />
<path d="M174.0714 67.1691
L174.4048 66.4548
" />
<path d="M174.4048 66.4548
L174.4048 67.4548
" />
<path d="M174.8333 67.1691
L175.3095 67.1691
" />
<path d="M174.7381 67.4548
L175.0714 66.4548
" />
<path d="M175.0714 66.4548
L175.4048 67.4548
" />
<path d="M176.2619 66.5024
L176.1667 66.4548
" />
<path d="M176.1667 66.4548
L176.0238 66.4548
" />
<path d="M176.0238 66.4548
L175.8810 66.5024
" />
<path d="M175.8810 66.5024
L175.7857 66.5977
" />
<path d="M175.7857 66.5977
L175.7381 66.6929
" />
<path d="M175.7381 66.6929
L175.6905 66.8834
" />
<path d="M175.6905 66.8834
L175.6905 67.0262
" />
<path d="M175.6905 67.0262
L175.7381 67.2167
" />
<path d="M175.7381 67.2167
L175.7857 67.3120
" />
<path d="M175.7857 67.3120
L175.8810 67.4072
" />
<path d="M175.8810 67.4072
L176.0238 67.4548
" />
<path d="M176.0238 67.4548
L176.1190 67.4548
" />
<path d="M176.1190 67.4548
L176.2619 67.4072
" />
<path d="M176.2619 67.4072
L176.3095 67.3596
" />
<path d="M176.3095 67.3596
L176.3095 67.0262
" />
<path d="M176.3095 67.0262
L176.1190 67.0262
" />
</g></g>
<g style="fill:#000000; fill-opacity:0.0; 
stroke:#000000; stroke-width:0.1600; stroke-opacity:1; 
stroke-linecap:round; stroke-linejoin:round;">
<text x="149.0980" y="99.0420"
textLength="1.7676" font-size="1.0667" lengthAdjust="spacingAndGlyphs"
text-anchor="middle" opacity="0">A0</text>
<g class="stroked-text"><desc>A0</desc>
<path d="M148.5266 98.7072
L148.9075 98.7072
" />
<path d="M148.4504 98.9358
L148.7170 98.1358
" />
<path d="M148.7170 98.1358
L148.9837 98.9358
" />
<path d="M149.4028 98.1358
L149.4790 98.1358
" />
<path d="M149.4790 98.1358
L149.5551 98.1739
" />
<path d="M149.5551 98.1739
L149.5932 98.2120
" />
<path d="M149.5932 98.2120
L149.6313 98.2882
" />
<path d="M149.6313 98.2882
L149.6694 98.4405
" />
<path d="M149.6694 98.4405
L149.6694 98.6310
" />
<path d="M149.6694 98.6310
L149.6313 98.7834
" />
<path d="M149.6313 98.7834
L149.5932 98.8596
" />
<path d="M149.5932 98.8596
L149.5551 98.8977
" />
<path d="M149.5551 98.8977
L149.4790 98.9358
" />
<path d="M149.4790 98.9358
L149.4028 98.9358
" />
<path d="M149.4028 98.9358
L149.3266 98.8977
" />
<path d="M149.3266 98.8977
L149.2885 98.8596
" />
<path d="M149.2885 98.8596
L149.2504 98.7834
" />
<path d="M149.2504 98.7834
L149.2123 98.6310
" />
<path d="M149.2123 98.6310
L149.2123 98.4405
" />
<path d="M149.2123 98.4405
L149.2504 98.2882
" />
<path d="M149.2504 98.2882
L149.2885 98.2120
" />
<path d="M149.2885 98.2120
L149.3266 98.1739
" />
<path d="M149.3266 98.1739
L149.4028 98.1358
" />
</g><text x="149.0980" y="100.3300"
textLength="1.8438" font-size="1.0667" lengthAdjust="spacingAndGlyphs"
text-anchor="middle" opacity="0">EC</text>
<g class="stroked-text"><desc>EC</desc>
<path d="M148.5266 99.8047
L148.7932 99.8047
" />
<path d="M148.9075 100.2238
L148.5266 100.2238
" />
<path d="M148.5266 100.2238
L148.5266 99.4238
" />
<path d="M148.5266 99.4238
L148.9075 99.4238
" />
<path d="M149.7075 100.1476
L149.6694 100.1857
" />
<path d="M149.6694 100.1857
L149.5551 100.2238
" />
<path d="M149.5551 100.2238
L149.4790 100.2238
" />
<path d="M149.4790 100.2238
L149.3647 100.1857
" />
<path d="M149.3647 100.1857
L149.2885 100.1095
" />
<path d="M149.2885 100.1095
L149.2504 100.0333
" />
<path d="M149.2504 100.0333
L149.2123 99.8809
" />
<path d="M149.2123 99.8809
L149.2123 99.7666
" />
<path d="M149.2123 99.7666
L149.2504 99.6143
" />
<path d="M149.2504 99.6143
L149.2885 99.5381
" />
<path d="M149.2885 99.5381
L149.3647 99.4619
" />
<path d="M149.3647 99.4619
L149.4790 99.4238
" />
<path d="M149.4790 99.4238
L149.5551 99.4238
" />
<path d="M149.5551 99.4238
L149.6694 99.4619
" />
<path d="M149.6694 99.4619
L149.7075 99.5000
" />
</g></g>
<g style="fill:#000000; fill-opacity:0.0; 
stroke:#000000; stroke-width:0.1000; stroke-opacity:1; 
stroke-linecap:round; stroke-linejoin:round;">
<text x="124.0790" y="111.7600"
textLength="0.7876" font-size="1.0667" lengthAdjust="spacingAndGlyphs"
text-anchor="start" opacity="0">x</text>
<g class="stroked-text"><desc>x</desc>
<path d="M124.2591 111.6569
L124.6781 111.1236
" />
<path d="M124.2591 111.1236
L124.6781 111.6569
" />
</g></g>
<g style="fill:#000000; fill-opacity:0.0; 
stroke:#000000; stroke-width:0.1500; stroke-opacity:1; 
stroke-linecap:round; stroke-linejoin:round;">
<text x="130.9370" y="87.8840"
textLength="1.4881" font-size="1.3333" lengthAdjust="spacingAndGlyphs"
text-anchor="start" opacity="0">-</text>
<g class="stroked-text"><desc>-</desc>
<path d="M131.2738 87.3729
L132.0357 87.3729
" />
</g><text x="134.1120" y="119.8800"
textLength="1.4881" font-size="1.3333" lengthAdjust="spacingAndGlyphs"
text-anchor="middle" opacity="0">+</text>
<g class="stroked-text"><desc>+</desc>
<path d="M133.7310 119.4539
L134.4930 119.4539
" />
<path d="M134.1120 119.8348
L134.1120 119.0729
" />
</g><text x="160.0200" y="81.2720"
textLength="1.4881" font-size="1.3333" lengthAdjust="spacingAndGlyphs"
text-anchor="middle" opacity="0">+</text>
<g class="stroked-text"><desc>+</desc>
<path d="M159.6390 80.8459
L160.4010 80.8459
" />
<path d="M160.0200 81.2268
L160.0200 80.4649
" />
</g></g>
<g style="fill:#000000; fill-opacity:0.0; 
stroke:#000000; stroke-width:0.1000; stroke-opacity:1; 
stroke-linecap:round; stroke-linejoin:round;">
<text x="146.0500" y="91.8210"
textLength="0.7876" font-size="1.0667" lengthAdjust="spacingAndGlyphs"
text-anchor="start" opacity="0">x</text>
<g class="stroked-text"><desc>x</desc>
<path d="M146.2301 91.7179
L146.6491 91.1846
" />
<path d="M146.2301 91.1846
L146.6491 91.7179
" />
</g></g>
<g style="fill:#000000; fill-opacity:0.0; 
stroke:#000000; stroke-width:0.3500; stroke-opacity:1; 
stroke-linecap:round; stroke-linejoin:round;">
<g transform="rotate(-270.000000 109.7280 99.3140)">
<text x="109.7280" y="100.2140"
textLength="24.6900" font-size="2.4000" lengthAdjust="spacingAndGlyphs"
text-anchor="middle" opacity="0">Maglev Board 2.6</text>
</g>
<g class="stroked-text"><desc>Maglev Board 2.6</desc>
<path d="M108.9135 87.7426
L110.7135 87.7426
" />
<path d="M110.7135 87.7426
L109.4278 88.3426
" />
<path d="M109.4278 88.3426
L110.7135 88.9426
" />
<path d="M110.7135 88.9426
L108.9135 88.9426
" />
<path d="M108.9135 90.5711
L109.8563 90.5711
" />
<path d="M109.8563 90.5711
L110.0278 90.4854
" />
<path d="M110.0278 90.4854
L110.1135 90.3140
" />
<path d="M110.1135 90.3140
L110.1135 89.9711
" />
<path d="M110.1135 89.9711
L110.0278 89.7997
" />
<path d="M108.9992 90.5711
L108.9135 90.3997
" />
<path d="M108.9135 90.3997
L108.9135 89.9711
" />
<path d="M108.9135 89.9711
L108.9992 89.7997
" />
<path d="M108.9992 89.7997
L109.1706 89.7140
" />
<path d="M109.1706 89.7140
L109.3421 89.7140
" />
<path d="M109.3421 89.7140
L109.5135 89.7997
" />
<path d="M109.5135 89.7997
L109.5992 89.9711
" />
<path d="M109.5992 89.9711
L109.5992 90.3997
" />
<path d="M109.5992 90.3997
L109.6849 90.5711
" />
<path d="M110.1135 92.1997
L108.6563 92.1997
" />
<path d="M108.6563 92.1997
L108.4849 92.1140
" />
<path d="M108.4849 92.1140
L108.3992 92.0283
" />
<path d="M108.3992 92.0283
L108.3135 91.8569
" />
<path d="M108.3135 91.8569
L108.3135 91.5997
" />
<path d="M108.3135 91.5997
L108.3992 91.4283
" />
<path d="M108.9992 92.1997
L108.9135 92.0283
" />
<path d="M108.9135 92.0283
L108.9135 91.6854
" />
<path d="M108.9135 91.6854
L108.9992 91.5140
" />
<path d="M108.9992 91.5140
L109.0849 91.4283
" />
<path d="M109.0849 91.4283
L109.2563 91.3426
" />
<path d="M109.2563 91.3426
L109.7706 91.3426
" />
<path d="M109.7706 91.3426
L109.9421 91.4283
" />
<path d="M109.9421 91.4283
L110.0278 91.5140
" />
<path d="M110.0278 91.5140
L110.1135 91.6854
" />
<path d="M110.1135 91.6854
L110.1135 92.0283
" />
<path d="M110.1135 92.0283
L110.0278 92.1997
" />
<path d="M108.9135 93.3140
L108.9992 93.1426
" />
<path d="M108.9992 93.1426
L109.1706 93.0569
" />
<path d="M109.1706 93.0569
L110.7135 93.0569
" />
<path d="M108.9992 94.6854
L108.9135 94.5140
" />
<path d="M108.9135 94.5140
L108.9135 94.1711
" />
<path d="M108.9135 94.1711
L108.9992 93.9997
" />
<path d="M108.9992 93.9997
L109.1706 93.9140
" />
<path d="M109.1706 93.9140
L109.8563 93.9140
" />
<path d="M109.8563 93.9140
L110.0278 93.9997
" />
<path d="M110.0278 93.9997
L110.1135 94.1711
" />
<path d="M110.1135 94.1711
L110.1135 94.5140
" />
<path d="M110.1135 94.5140
L110.0278 94.6854
" />
<path d="M110.0278 94.6854
L109.8563 94.7711
" />
<path d="M109.8563 94.7711
L109.6849 94.7711
" />
<path d="M109.6849 94.7711
L109.5135 93.9140
" />
<path d="M110.1135 95.3711
L108.9135 95.7997
" />
<path d="M108.9135 95.7997
L110.1135 96.2283
" />
<path d="M109.8563 98.8854
L109.7706 99.1426
" />
<path d="M109.7706 99.1426
L109.6849 99.2283
" />
<path d="M109.6849 99.2283
L109.5135 99.3140
" />
<path d="M109.5135 99.3140
L109.2563 99.3140
" />
<path d="M109.2563 99.3140
L109.0849 99.2283
" />
<path d="M109.0849 99.2283
L108.9992 99.1426
" />
<path d="M108.9992 99.1426
L108.9135 98.9711
" />
<path d="M108.9135 98.9711
L108.9135 98.2854
" />
<path d="M108.9135 98.2854
L110.7135 98.2854
" />
<path d="M110.7135 98.2854
L110.7135 98.8854
" />
<path d="M110.7135 98.8854
L110.6278 99.0569
" />
<path d="M110.6278 99.0569
L110.5421 99.1426
" />
<path d="M110.5421 99.1426
L110.3706 99.2283
" />
<path d="M110.3706 99.2283
L110.1992 99.2283
" />
<path d="M110.1992 99.2283
L110.0278 99.1426
" />
<path d="M110.0278 99.1426
L109.9421 99.0569
" />
<path d="M109.9421 99.0569
L109.8563 98.8854
" />
<path d="M109.8563 98.8854
L109.8563 98.2854
" />
<path d="M108.9135 100.3426
L108.9992 100.1711
" />
<path d="M108.9992 100.1711
L109.0849 100.0854
" />
<path d="M109.0849 100.0854
L109.2563 99.9997
" />
<path d="M109.2563 99.9997
L109.7706 99.9997
" />
<path d="M109.7706 99.9997
L109.9421 100.0854
" />
<path d="M109.9421 100.0854
L110.0278 100.1711
" />
<path d="M110.0278 100.1711
L110.1135 100.3426
" />
<path d="M110.1135 100.3426
L110.1135 100.5997
" />
<path d="M110.1135 100.5997
L110.0278 100.7711
" />
<path d="M110.0278 100.7711
L109.9421 100.8569
" />
<path d="M109.9421 100.8569
L109.7706 100.9426
" />
<path d="M109.7706 100.9426
L109.2563 100.9426
" />
<path d="M109.2563 100.9426
L109.0849 100.8569
" />
<path d="M109.0849 100.8569
L108.9992 100.7711
" />
<path d="M108.9992 100.7711
L108.9135 100.5997
" />
<path d="M108.9135 100.5997
L108.9135 100.3426
" />
<path d="M108.9135 102.4854
L109.8563 102.4854
" />
<path d="M109.8563 102.4854
L110.0278 102.3997
" />
<path d="M110.0278 102.3997
L110.1135 102.2283
" />
<path d="M110.1135 102.2283
L110.1135 101.8854
" />
<path d="M110.1135 101.8854
L110.0278 101.7140
" />
<path d="M108.9992 102.4854
L108.9135 102.3140
" />
<path d="M108.9135 102.3140
L108.9135 101.8854
" />
<path d="M108.9135 101.8854
L108.9992 101.7140
" />
<path d="M108.9992 101.7140
L109.1706 101.6283
" />
<path d="M109.1706 101.6283
L109.3421 101.6283
" />
<path d="M109.3421 101.6283
L109.5135 101.7140
" />
<path d="M109.5135 101.7140
L109.5992 101.8854
" />
<path d="M109.5992 101.8854
L109.5992 102.3140
" />
<path d="M109.5992 102.3140
L109.6849 102.4854
" />
<path d="M108.9135 103.3426
L110.1135 103.3426
" />
<path d="M109.7706 103.3426
L109.9421 103.4283
" />
<path d="M109.9421 103.4283
L110.0278 103.5140
" />
<path d="M110.0278 103.5140
L110.1135 103.6854
" />
<path d="M110.1135 103.6854
L110.1135 103.8569
" />
<path d="M108.9135 105.2283
L110.7135 105.2283
" />
<path d="M108.9992 105.2283
L108.9135 105.0569
" />
<path d="M108.9135 105.0569
L108.9135 104.7140
" />
<path d="M108.9135 104.7140
L108.9992 104.5426
" />
<path d="M108.9992 104.5426
L109.0849 104.4569
" />
<path d="M109.0849 104.4569
L109.2563 104.3711
" />
<path d="M109.2563 104.3711
L109.7706 104.3711
" />
<path d="M109.7706 104.3711
L109.9421 104.4569
" />
<path d="M109.9421 104.4569
L110.0278 104.5426
" />
<path d="M110.0278 104.5426
L110.1135 104.7140
" />
<path d="M110.1135 104.7140
L110.1135 105.0569
" />
<path d="M110.1135 105.0569
L110.0278 105.2283
" />
<path d="M110.5421 107.3711
L110.6278 107.4569
" />
<path d="M110.6278 107.4569
L110.7135 107.6283
" />
<path d="M110.7135 107.6283
L110.7135 108.0569
" />
<path d="M110.7135 108.0569
L110.6278 108.2283
" />
<path d="M110.6278 108.2283
L110.5421 108.3140
" />
<path d="M110.5421 108.3140
L110.3706 108.3997
" />
<path d="M110.3706 108.3997
L110.1992 108.3997
" />
<path d="M110.1992 108.3997
L109.9421 108.3140
" />
<path d="M109.9421 108.3140
L108.9135 107.2854
" />
<path d="M108.9135 107.2854
L108.9135 108.3997
" />
<path d="M109.0849 109.1711
L108.9992 109.2569
" />
<path d="M108.9992 109.2569
L108.9135 109.1711
" />
<path d="M108.9135 109.1711
L108.9992 109.0854
" />
<path d="M108.9992 109.0854
L109.0849 109.1711
" />
<path d="M109.0849 109.1711
L108.9135 109.1711
" />
<path d="M110.7135 110.7997
L110.7135 110.4569
" />
<path d="M110.7135 110.4569
L110.6278 110.2854
" />
<path d="M110.6278 110.2854
L110.5421 110.1997
" />
<path d="M110.5421 110.1997
L110.2849 110.0283
" />
<path d="M110.2849 110.0283
L109.9421 109.9426
" />
<path d="M109.9421 109.9426
L109.2563 109.9426
" />
<path d="M109.2563 109.9426
L109.0849 110.0283
" />
<path d="M109.0849 110.0283
L108.9992 110.1140
" />
<path d="M108.9992 110.1140
L108.9135 110.2854
" />
<path d="M108.9135 110.2854
L108.9135 110.6283
" />
<path d="M108.9135 110.6283
L108.9992 110.7997
" />
<path d="M108.9992 110.7997
L109.0849 110.8854
" />
<path d="M109.0849 110.8854
L109.2563 110.9711
" />
<path d="M109.2563 110.9711
L109.6849 110.9711
" />
<path d="M109.6849 110.9711
L109.8563 110.8854
" />
<path d="M109.8563 110.8854
L109.9421 110.7997
" />
<path d="M109.9421 110.7997
L110.0278 110.6283
" />
<path d="M110.0278 110.6283
L110.0278 110.2854
" />
<path d="M110.0278 110.2854
L109.9421 110.1140
" />
<path d="M109.9421 110.1140
L109.8563 110.0283
" />
<path d="M109.8563 110.0283
L109.6849 109.9426
" />
</g></g>
<g style="fill:#000000; fill-opacity:0.0; 
stroke:#000000; stroke-width:0.1000; stroke-opacity:1; 
stroke-linecap:round; stroke-linejoin:round;">
<text x="167.2590" y="111.2520"
textLength="0.7876" font-size="1.0667" lengthAdjust="spacingAndGlyphs"
text-anchor="start" opacity="0">x</text>
<g class="stroked-text"><desc>x</desc>
<path d="M167.4391 111.1489
L167.8581 110.6156
" />
<path d="M167.4391 110.6156
L167.8581 111.1489
" />
</g><text x="164.8460" y="113.6650"
textLength="0.7495" font-size="1.0667" lengthAdjust="spacingAndGlyphs"
text-anchor="start" opacity="0">y</text>
<g class="stroked-text"><desc>y</desc>
<path d="M165.0261 113.0286
L165.2165 113.5619
" />
<path d="M165.4070 113.0286
L165.2165 113.5619
" />
<path d="M165.2165 113.5619
L165.1404 113.7524
" />
<path d="M165.1404 113.7524
L165.1023 113.7905
" />
<path d="M165.1023 113.7905
L165.0261 113.8286
" />
</g></g>
<g style="fill:#000000; fill-opacity:0.0; 
stroke:#000000; stroke-width:0.1500; stroke-opacity:1; 
stroke-linecap:round; stroke-linejoin:round;">
<text x="146.0000" y="115.5000"
textLength="4.3452" font-size="1.3333" lengthAdjust="spacingAndGlyphs"
text-anchor="middle" opacity="0">Sol_3</text>
<g class="stroked-text"><desc>Sol_3</desc>
<path d="M144.1429 115.4072
L144.2857 115.4548
" />
<path d="M144.2857 115.4548
L144.5238 115.4548
" />
<path d="M144.5238 115.4548
L144.6190 115.4072
" />
<path d="M144.6190 115.4072
L144.6667 115.3596
" />
<path d="M144.6667 115.3596
L144.7143 115.2643
" />
<path d="M144.7143 115.2643
L144.7143 115.1691
" />
<path d="M144.7143 115.1691
L144.6667 115.0739
" />
<path d="M144.6667 115.0739
L144.6190 115.0262
" />
<path d="M144.6190 115.0262
L144.5238 114.9786
" />
<path d="M144.5238 114.9786
L144.3333 114.9310
" />
<path d="M144.3333 114.9310
L144.2381 114.8834
" />
<path d="M144.2381 114.8834
L144.1905 114.8358
" />
<path d="M144.1905 114.8358
L144.1429 114.7405
" />
<path d="M144.1429 114.7405
L144.1429 114.6453
" />
<path d="M144.1429 114.6453
L144.1905 114.5501
" />
<path d="M144.1905 114.5501
L144.2381 114.5024
" />
<path d="M144.2381 114.5024
L144.3333 114.4548
" />
<path d="M144.3333 114.4548
L144.5714 114.4548
" />
<path d="M144.5714 114.4548
L144.7143 114.5024
" />
<path d="M145.2857 115.4548
L145.1905 115.4072
" />
<path d="M145.1905 115.4072
L145.1429 115.3596
" />
<path d="M145.1429 115.3596
L145.0952 115.2643
" />
<path d="M145.0952 115.2643
L145.0952 114.9786
" />
<path d="M145.0952 114.9786
L145.1429 114.8834
" />
<path d="M145.1429 114.8834
L145.1905 114.8358
" />
<path d="M145.1905 114.8358
L145.2857 114.7882
" />
<path d="M145.2857 114.7882
L145.4286 114.7882
" />
<path d="M145.4286 114.7882
L145.5238 114.8358
" />
<path d="M145.5238 114.8358
L145.5714 114.8834
" />
<path d="M145.5714 114.8834
L145.6190 114.9786
" />
<path d="M145.6190 114.9786
L145.6190 115.2643
" />
<path d="M145.6190 115.2643
L145.5714 115.3596
" />
<path d="M145.5714 115.3596
L145.5238 115.4072
" />
<path d="M145.5238 115.4072
L145.4286 115.4548
" />
<path d="M145.4286 115.4548
L145.2857 115.4548
" />
<path d="M146.1905 115.4548
L146.0952 115.4072
" />
<path d="M146.0952 115.4072
L146.0476 115.3120
" />
<path d="M146.0476 115.3120
L146.0476 114.4548
" />
<path d="M146.3333 115.5501
L147.0952 115.5501
" />
<path d="M147.2381 114.4548
L147.8571 114.4548
" />
<path d="M147.8571 114.4548
L147.5238 114.8358
" />
<path d="M147.5238 114.8358
L147.6667 114.8358
" />
<path d="M147.6667 114.8358
L147.7619 114.8834
" />
<path d="M147.7619 114.8834
L147.8095 114.9310
" />
<path d="M147.8095 114.9310
L147.8571 115.0262
" />
<path d="M147.8571 115.0262
L147.8571 115.2643
" />
<path d="M147.8571 115.2643
L147.8095 115.3596
" />
<path d="M147.8095 115.3596
L147.7619 115.4072
" />
<path d="M147.7619 115.4072
L147.6667 115.4548
" />
<path d="M147.6667 115.4548
L147.3810 115.4548
" />
<path d="M147.3810 115.4548
L147.2857 115.4072
" />
<path d="M147.2857 115.4072
L147.2381 115.3596
" />
</g><text x="179.8320" y="97.5280"
textLength="1.4881" font-size="1.3333" lengthAdjust="spacingAndGlyphs"
text-anchor="middle" opacity="0">-</text>
<g class="stroked-text"><desc>-</desc>
<path d="M179.4510 97.1019
L180.2130 97.1019
" />
</g></g>
<g style="fill:#000000; fill-opacity:0.0; 
stroke:#000000; stroke-width:0.1000; stroke-opacity:1; 
stroke-linecap:round; stroke-linejoin:round;">
<text x="168.1480" y="113.7920"
textLength="0.7876" font-size="1.0667" lengthAdjust="spacingAndGlyphs"
text-anchor="start" opacity="0">z</text>
<g class="stroked-text"><desc>z</desc>
<path d="M168.3281 113.1556
L168.7471 113.1556
" />
<path d="M168.7471 113.1556
L168.3281 113.6889
" />
<path d="M168.3281 113.6889
L168.7471 113.6889
" />
</g></g>
<g style="fill:#000000; fill-opacity:0.0; 
stroke:#000000; stroke-width:0.1500; stroke-opacity:1; 
stroke-linecap:round; stroke-linejoin:round;">
<text x="117.7500" y="123.7596"
textLength="4.2500" font-size="1.3333" lengthAdjust="spacingAndGlyphs"
text-anchor="middle" opacity="0">PMAG</text>
<g class="stroked-text"><desc>PMAG</desc>
<path d="M115.9881 123.7144
L115.9881 122.7144
" />
<path d="M115.9881 122.7144
L116.3690 122.7144
" />
<path d="M116.3690 122.7144
L116.4643 122.7620
" />
<path d="M116.4643 122.7620
L116.5119 122.8097
" />
<path d="M116.5119 122.8097
L116.5595 122.9049
" />
<path d="M116.5595 122.9049
L116.5595 123.0478
" />
<path d="M116.5595 123.0478
L116.5119 123.1430
" />
<path d="M116.5119 123.1430
L116.4643 123.1906
" />
<path d="M116.4643 123.1906
L116.3690 123.2382
" />
<path d="M116.3690 123.2382
L115.9881 123.2382
" />
<path d="M116.9881 123.7144
L116.9881 122.7144
" />
<path d="M116.9881 122.7144
L117.3214 123.4287
" />
<path d="M117.3214 123.4287
L117.6548 122.7144
" />
<path d="M117.6548 122.7144
L117.6548 123.7144
" />
<path d="M118.0833 123.4287
L118.5595 123.4287
" />
<path d="M117.9881 123.7144
L118.3214 122.7144
" />
<path d="M118.3214 122.7144
L118.6548 123.7144
" />
<path d="M119.5119 122.7620
L119.4167 122.7144
" />
<path d="M119.4167 122.7144
L119.2738 122.7144
" />
<path d="M119.2738 122.7144
L119.1310 122.7620
" />
<path d="M119.1310 122.7620
L119.0357 122.8573
" />
<path d="M119.0357 122.8573
L118.9881 122.9525
" />
<path d="M118.9881 122.9525
L118.9405 123.1430
" />
<path d="M118.9405 123.1430
L118.9405 123.2858
" />
<path d="M118.9405 123.2858
L118.9881 123.4763
" />
<path d="M118.9881 123.4763
L119.0357 123.5716
" />
<path d="M119.0357 123.5716
L119.1310 123.6668
" />
<path d="M119.1310 123.6668
L119.2738 123.7144
" />
<path d="M119.2738 123.7144
L119.3690 123.7144
" />
<path d="M119.3690 123.7144
L119.5119 123.6668
" />
<path d="M119.5119 123.6668
L119.5595 123.6192
" />
<path d="M119.5595 123.6192
L119.5595 123.2858
" />
<path d="M119.5595 123.2858
L119.3690 123.2858
" />
</g></g>
<g style="fill:#000000; fill-opacity:0.0; 
stroke:#000000; stroke-width:0.1000; stroke-opacity:1; 
stroke-linecap:round; stroke-linejoin:round;">
<g transform="rotate(-270.000000 106.8160 92.2020)">
<text x="106.8160" y="92.6020"
textLength="16.3305" font-size="1.0667" lengthAdjust="spacingAndGlyphs"
text-anchor="start" opacity="0">2024-01, Jh Technical AS</text>
</g>
<g class="stroked-text"><desc>2024-01, Jh Technical AS</desc>
<path d="M107.1749 92.5059
L107.2130 92.5487
" />
<path d="M107.2130 92.5487
L107.2511 92.6297
" />
<path d="M107.2511 92.6297
L107.2511 92.8202
" />
<path d="M107.2511 92.8202
L107.2130 92.8916
" />
<path d="M107.2130 92.8916
L107.1749 92.9249
" />
<path d="M107.1749 92.9249
L107.0987 92.9535
" />
<path d="M107.0987 92.9535
L107.0225 92.9440
" />
<path d="M107.0225 92.9440
L106.9082 92.8916
" />
<path d="M106.9082 92.8916
L106.4511 92.3773
" />
<path d="M106.4511 92.3773
L106.4511 92.8725
" />
<path d="M107.2511 93.4678
L107.2511 93.5440
" />
<path d="M107.2511 93.5440
L107.2130 93.6154
" />
<path d="M107.2130 93.6154
L107.1749 93.6487
" />
<path d="M107.1749 93.6487
L107.0987 93.6773
" />
<path d="M107.0987 93.6773
L106.9463 93.6964
" />
<path d="M106.9463 93.6964
L106.7559 93.6726
" />
<path d="M106.7559 93.6726
L106.6035 93.6154
" />
<path d="M106.6035 93.6154
L106.5273 93.5678
" />
<path d="M106.5273 93.5678
L106.4892 93.5249
" />
<path d="M106.4892 93.5249
L106.4511 93.4440
" />
<path d="M106.4511 93.4440
L106.4511 93.3678
" />
<path d="M106.4511 93.3678
L106.4892 93.2964
" />
<path d="M106.4892 93.2964
L106.5273 93.2630
" />
<path d="M106.5273 93.2630
L106.6035 93.2345
" />
<path d="M106.6035 93.2345
L106.7559 93.2154
" />
<path d="M106.7559 93.2154
L106.9463 93.2392
" />
<path d="M106.9463 93.2392
L107.0987 93.2964
" />
<path d="M107.0987 93.2964
L107.1749 93.3440
" />
<path d="M107.1749 93.3440
L107.2130 93.3868
" />
<path d="M107.2130 93.3868
L107.2511 93.4678
" />
<path d="M107.1749 94.0297
L107.2130 94.0726
" />
<path d="M107.2130 94.0726
L107.2511 94.1535
" />
<path d="M107.2511 94.1535
L107.2511 94.3440
" />
<path d="M107.2511 94.3440
L107.2130 94.4154
" />
<path d="M107.2130 94.4154
L107.1749 94.4487
" />
<path d="M107.1749 94.4487
L107.0987 94.4773
" />
<path d="M107.0987 94.4773
L107.0225 94.4678
" />
<path d="M107.0225 94.4678
L106.9082 94.4154
" />
<path d="M106.9082 94.4154
L106.4511 93.9011
" />
<path d="M106.4511 93.9011
L106.4511 94.3964
" />
<path d="M106.9844 95.1487
L106.4511 95.0821
" />
<path d="M107.2892 94.9964
L106.7178 94.7345
" />
<path d="M106.7178 94.7345
L106.7178 95.2297
" />
<path d="M106.7559 95.5392
L106.7559 96.1487
" />
<path d="M107.2511 96.7440
L107.2511 96.8202
" />
<path d="M107.2511 96.8202
L107.2130 96.8916
" />
<path d="M107.2130 96.8916
L107.1749 96.9249
" />
<path d="M107.1749 96.9249
L107.0987 96.9535
" />
<path d="M107.0987 96.9535
L106.9463 96.9726
" />
<path d="M106.9463 96.9726
L106.7559 96.9487
" />
<path d="M106.7559 96.9487
L106.6035 96.8916
" />
<path d="M106.6035 96.8916
L106.5273 96.8440
" />
<path d="M106.5273 96.8440
L106.4892 96.8011
" />
<path d="M106.4892 96.8011
L106.4511 96.7202
" />
<path d="M106.4511 96.7202
L106.4511 96.6440
" />
<path d="M106.4511 96.6440
L106.4892 96.5726
" />
<path d="M106.4892 96.5726
L106.5273 96.5392
" />
<path d="M106.5273 96.5392
L106.6035 96.5106
" />
<path d="M106.6035 96.5106
L106.7559 96.4916
" />
<path d="M106.7559 96.4916
L106.9463 96.5154
" />
<path d="M106.9463 96.5154
L107.0987 96.5726
" />
<path d="M107.0987 96.5726
L107.1749 96.6202
" />
<path d="M107.1749 96.6202
L107.2130 96.6630
" />
<path d="M107.2130 96.6630
L107.2511 96.7440
" />
<path d="M106.4511 97.6726
L106.4511 97.2154
" />
<path d="M106.4511 97.4440
L107.2511 97.5440
" />
<path d="M107.2511 97.5440
L107.1368 97.4535
" />
<path d="M107.1368 97.4535
L107.0606 97.3678
" />
<path d="M107.0606 97.3678
L107.0225 97.2868
" />
<path d="M106.4892 98.0583
L106.4511 98.0535
" />
<path d="M106.4511 98.0535
L106.3749 98.0059
" />
<path d="M106.3749 98.0059
L106.3368 97.9630
" />
<path d="M107.2511 99.3345
L106.6797 99.2630
" />
<path d="M106.6797 99.2630
L106.5654 99.2106
" />
<path d="M106.5654 99.2106
L106.4892 99.1249
" />
<path d="M106.4892 99.1249
L106.4511 99.0059
" />
<path d="M106.4511 99.0059
L106.4511 98.9297
" />
<path d="M106.4511 99.6154
L107.2511 99.7154
" />
<path d="M106.4511 99.9583
L106.8702 100.0106
" />
<path d="M106.8702 100.0106
L106.9463 99.9821
" />
<path d="M106.9463 99.9821
L106.9844 99.9106
" />
<path d="M106.9844 99.9106
L106.9844 99.7964
" />
<path d="M106.9844 99.7964
L106.9463 99.7154
" />
<path d="M106.9463 99.7154
L106.9082 99.6726
" />
<path d="M107.2511 100.9345
L107.2511 101.3916
" />
<path d="M106.4511 101.0630
L107.2511 101.1630
" />
<path d="M106.4892 101.8678
L106.4511 101.7868
" />
<path d="M106.4511 101.7868
L106.4511 101.6345
" />
<path d="M106.4511 101.6345
L106.4892 101.5630
" />
<path d="M106.4892 101.5630
L106.5654 101.5345
" />
<path d="M106.5654 101.5345
L106.8702 101.5726
" />
<path d="M106.8702 101.5726
L106.9463 101.6202
" />
<path d="M106.9463 101.6202
L106.9844 101.7011
" />
<path d="M106.9844 101.7011
L106.9844 101.8535
" />
<path d="M106.9844 101.8535
L106.9463 101.9249
" />
<path d="M106.9463 101.9249
L106.8702 101.9535
" />
<path d="M106.8702 101.9535
L106.7940 101.9440
" />
<path d="M106.7940 101.9440
L106.7178 101.5535
" />
<path d="M106.4892 102.5916
L106.4511 102.5106
" />
<path d="M106.4511 102.5106
L106.4511 102.3583
" />
<path d="M106.4511 102.3583
L106.4892 102.2868
" />
<path d="M106.4892 102.2868
L106.5273 102.2535
" />
<path d="M106.5273 102.2535
L106.6035 102.2249
" />
<path d="M106.6035 102.2249
L106.8321 102.2535
" />
<path d="M106.8321 102.2535
L106.9082 102.3011
" />
<path d="M106.9082 102.3011
L106.9463 102.3440
" />
<path d="M106.9463 102.3440
L106.9844 102.4249
" />
<path d="M106.9844 102.4249
L106.9844 102.5773
" />
<path d="M106.9844 102.5773
L106.9463 102.6487
" />
<path d="M106.4511 102.9297
L107.2511 103.0297
" />
<path d="M106.4511 103.2726
L106.8702 103.3249
" />
<path d="M106.8702 103.3249
L106.9463 103.2964
" />
<path d="M106.9463 103.2964
L106.9844 103.2249
" />
<path d="M106.9844 103.2249
L106.9844 103.1106
" />
<path d="M106.9844 103.1106
L106.9463 103.0297
" />
<path d="M106.9463 103.0297
L106.9082 102.9868
" />
<path d="M106.9844 103.7202
L106.4511 103.6535
" />
<path d="M106.9082 103.7106
L106.9463 103.7535
" />
<path d="M106.9463 103.7535
L106.9844 103.8345
" />
<path d="M106.9844 103.8345
L106.9844 103.9487
" />
<path d="M106.9844 103.9487
L106.9463 104.0202
" />
<path d="M106.9463 104.0202
L106.8702 104.0487
" />
<path d="M106.8702 104.0487
L106.4511 103.9964
" />
<path d="M106.4511 104.3773
L106.9844 104.4440
" />
<path d="M107.2511 104.4773
L107.2130 104.4345
" />
<path d="M107.2130 104.4345
L107.1749 104.4678
" />
<path d="M107.1749 104.4678
L107.2130 104.5106
" />
<path d="M107.2130 104.5106
L107.2511 104.4773
" />
<path d="M107.2511 104.4773
L107.1749 104.4678
" />
<path d="M106.4892 105.1059
L106.4511 105.0249
" />
<path d="M106.4511 105.0249
L106.4511 104.8726
" />
<path d="M106.4511 104.8726
L106.4892 104.8011
" />
<path d="M106.4892 104.8011
L106.5273 104.7678
" />
<path d="M106.5273 104.7678
L106.6035 104.7392
" />
<path d="M106.6035 104.7392
L106.8321 104.7678
" />
<path d="M106.8321 104.7678
L106.9082 104.8154
" />
<path d="M106.9082 104.8154
L106.9463 104.8583
" />
<path d="M106.9463 104.8583
L106.9844 104.9392
" />
<path d="M106.9844 104.9392
L106.9844 105.0916
" />
<path d="M106.9844 105.0916
L106.9463 105.1630
" />
<path d="M106.4511 105.7868
L106.8702 105.8392
" />
<path d="M106.8702 105.8392
L106.9463 105.8106
" />
<path d="M106.9463 105.8106
L106.9844 105.7392
" />
<path d="M106.9844 105.7392
L106.9844 105.5868
" />
<path d="M106.9844 105.5868
L106.9463 105.5059
" />
<path d="M106.4892 105.7916
L106.4511 105.7106
" />
<path d="M106.4511 105.7106
L106.4511 105.5202
" />
<path d="M106.4511 105.5202
L106.4892 105.4487
" />
<path d="M106.4892 105.4487
L106.5654 105.4202
" />
<path d="M106.5654 105.4202
L106.6416 105.4297
" />
<path d="M106.6416 105.4297
L106.7178 105.4773
" />
<path d="M106.7178 105.4773
L106.7559 105.5583
" />
<path d="M106.7559 105.5583
L106.7559 105.7487
" />
<path d="M106.7559 105.7487
L106.7940 105.8297
" />
<path d="M106.4511 106.2821
L106.4892 106.2106
" />
<path d="M106.4892 106.2106
L106.5654 106.1821
" />
<path d="M106.5654 106.1821
L107.2511 106.2678
" />
<path d="M106.6797 107.1868
L106.6797 107.5678
" />
<path d="M106.4511 107.0821
L107.2511 107.4487
" />
<path d="M107.2511 107.4487
L106.4511 107.6154
" />
<path d="M106.4892 107.8487
L106.4511 107.9583
" />
<path d="M106.4511 107.9583
L106.4511 108.1487
" />
<path d="M106.4511 108.1487
L106.4892 108.2297
" />
<path d="M106.4892 108.2297
L106.5273 108.2726
" />
<path d="M106.5273 108.2726
L106.6035 108.3202
" />
<path d="M106.6035 108.3202
L106.6797 108.3297
" />
<path d="M106.6797 108.3297
L106.7559 108.3011
" />
<path d="M106.7559 108.3011
L106.7940 108.2678
" />
<path d="M106.7940 108.2678
L106.8321 108.1964
" />
<path d="M106.8321 108.1964
L106.8702 108.0487
" />
<path d="M106.8702 108.0487
L106.9082 107.9773
" />
<path d="M106.9082 107.9773
L106.9463 107.9440
" />
<path d="M106.9463 107.9440
L107.0225 107.9154
" />
<path d="M107.0225 107.9154
L107.0987 107.9249
" />
<path d="M107.0987 107.9249
L107.1749 107.9726
" />
<path d="M107.1749 107.9726
L107.2130 108.0154
" />
<path d="M107.2130 108.0154
L107.2511 108.0964
" />
<path d="M107.2511 108.0964
L107.2511 108.2868
" />
<path d="M107.2511 108.2868
L107.2130 108.3964
" />
</g><g transform="rotate(-270.000000 105.5280 92.2020)">
<text x="105.5280" y="92.6020"
textLength="16.1019" font-size="1.0667" lengthAdjust="spacingAndGlyphs"
text-anchor="start" opacity="0">H. A. Engmark, A. Morselli</text>
</g>
<g class="stroked-text"><desc>H. A. Engmark, A. Morselli</desc>
<path d="M105.1631 92.4535
L105.9631 92.5535
" />
<path d="M105.5822 92.5059
L105.5822 92.9630
" />
<path d="M105.1631 92.9106
L105.9631 93.0106
" />
<path d="M105.2393 93.3011
L105.2012 93.3345
" />
<path d="M105.2012 93.3345
L105.1631 93.2916
" />
<path d="M105.1631 93.2916
L105.2012 93.2583
" />
<path d="M105.2012 93.2583
L105.2393 93.3011
" />
<path d="M105.2393 93.3011
L105.1631 93.2916
" />
<path d="M105.3917 94.2725
L105.3917 94.6535
" />
<path d="M105.1631 94.1678
L105.9631 94.5345
" />
<path d="M105.9631 94.5345
L105.1631 94.7011
" />
<path d="M105.2393 94.9773
L105.2012 95.0106
" />
<path d="M105.2012 95.0106
L105.1631 94.9678
" />
<path d="M105.1631 94.9678
L105.2012 94.9345
" />
<path d="M105.2012 94.9345
L105.2393 94.9773
" />
<path d="M105.2393 94.9773
L105.1631 94.9678
" />
<path d="M105.5822 96.0106
L105.5822 96.2773
" />
<path d="M105.1631 96.3392
L105.1631 95.9583
" />
<path d="M105.1631 95.9583
L105.9631 96.0583
" />
<path d="M105.9631 96.0583
L105.9631 96.4392
" />
<path d="M105.6964 96.7487
L105.1631 96.6821
" />
<path d="M105.6202 96.7392
L105.6583 96.7821
" />
<path d="M105.6583 96.7821
L105.6964 96.8630
" />
<path d="M105.6964 96.8630
L105.6964 96.9773
" />
<path d="M105.6964 96.9773
L105.6583 97.0487
" />
<path d="M105.6583 97.0487
L105.5822 97.0773
" />
<path d="M105.5822 97.0773
L105.1631 97.0249
" />
<path d="M105.6964 97.8154
L105.0488 97.7345
" />
<path d="M105.0488 97.7345
L104.9726 97.6868
" />
<path d="M104.9726 97.6868
L104.9345 97.6440
" />
<path d="M104.9345 97.6440
L104.8964 97.5630
" />
<path d="M104.8964 97.5630
L104.8964 97.4487
" />
<path d="M104.8964 97.4487
L104.9345 97.3773
" />
<path d="M105.2012 97.7535
L105.1631 97.6726
" />
<path d="M105.1631 97.6726
L105.1631 97.5202
" />
<path d="M105.1631 97.5202
L105.2012 97.4487
" />
<path d="M105.2012 97.4487
L105.2393 97.4154
" />
<path d="M105.2393 97.4154
L105.3155 97.3868
" />
<path d="M105.3155 97.3868
L105.5441 97.4154
" />
<path d="M105.5441 97.4154
L105.6202 97.4630
" />
<path d="M105.6202 97.4630
L105.6583 97.5059
" />
<path d="M105.6583 97.5059
L105.6964 97.5868
" />
<path d="M105.6964 97.5868
L105.6964 97.7392
" />
<path d="M105.6964 97.7392
L105.6583 97.8106
" />
<path d="M105.1631 98.1297
L105.6964 98.1964
" />
<path d="M105.6202 98.1868
L105.6583 98.2297
" />
<path d="M105.6583 98.2297
L105.6964 98.3106
" />
<path d="M105.6964 98.3106
L105.6964 98.4249
" />
<path d="M105.6964 98.4249
L105.6583 98.4964
" />
<path d="M105.6583 98.4964
L105.5822 98.5249
" />
<path d="M105.5822 98.5249
L105.1631 98.4726
" />
<path d="M105.5822 98.5249
L105.6583 98.5726
" />
<path d="M105.6583 98.5726
L105.6964 98.6535
" />
<path d="M105.6964 98.6535
L105.6964 98.7678
" />
<path d="M105.6964 98.7678
L105.6583 98.8392
" />
<path d="M105.6583 98.8392
L105.5822 98.8678
" />
<path d="M105.5822 98.8678
L105.1631 98.8154
" />
<path d="M105.1631 99.5392
L105.5822 99.5916
" />
<path d="M105.5822 99.5916
L105.6583 99.5630
" />
<path d="M105.6583 99.5630
L105.6964 99.4916
" />
<path d="M105.6964 99.4916
L105.6964 99.3392
" />
<path d="M105.6964 99.3392
L105.6583 99.2583
" />
<path d="M105.2012 99.5440
L105.1631 99.4630
" />
<path d="M105.1631 99.4630
L105.1631 99.2726
" />
<path d="M105.1631 99.2726
L105.2012 99.2011
" />
<path d="M105.2012 99.2011
L105.2774 99.1726
" />
<path d="M105.2774 99.1726
L105.3536 99.1821
" />
<path d="M105.3536 99.1821
L105.4298 99.2297
" />
<path d="M105.4298 99.2297
L105.4679 99.3106
" />
<path d="M105.4679 99.3106
L105.4679 99.5011
" />
<path d="M105.4679 99.5011
L105.5060 99.5821
" />
<path d="M105.1631 99.9202
L105.6964 99.9868
" />
<path d="M105.5441 99.9678
L105.6202 100.0154
" />
<path d="M105.6202 100.0154
L105.6583 100.0583
" />
<path d="M105.6583 100.0583
L105.6964 100.1392
" />
<path d="M105.6964 100.1392
L105.6964 100.2154
" />
<path d="M105.1631 100.4154
L105.9631 100.5154
" />
<path d="M105.4679 100.5297
L105.1631 100.7202
" />
<path d="M105.6964 100.7868
L105.3917 100.4440
" />
<path d="M105.2012 101.1059
L105.1631 101.1011
" />
<path d="M105.1631 101.1011
L105.0869 101.0535
" />
<path d="M105.0869 101.0535
L105.0488 101.0106
" />
<path d="M105.3917 102.0440
L105.3917 102.4249
" />
<path d="M105.1631 101.9392
L105.9631 102.3059
" />
<path d="M105.9631 102.3059
L105.1631 102.4726
" />
<path d="M105.2393 102.7487
L105.2012 102.7821
" />
<path d="M105.2012 102.7821
L105.1631 102.7392
" />
<path d="M105.1631 102.7392
L105.2012 102.7059
" />
<path d="M105.2012 102.7059
L105.2393 102.7487
" />
<path d="M105.2393 102.7487
L105.1631 102.7392
" />
<path d="M105.1631 103.7297
L105.9631 103.8297
" />
<path d="M105.9631 103.8297
L105.3917 104.0249
" />
<path d="M105.3917 104.0249
L105.9631 104.3630
" />
<path d="M105.9631 104.3630
L105.1631 104.2630
" />
<path d="M105.1631 104.7583
L105.2012 104.6868
" />
<path d="M105.2012 104.6868
L105.2393 104.6535
" />
<path d="M105.2393 104.6535
L105.3155 104.6249
" />
<path d="M105.3155 104.6249
L105.5441 104.6535
" />
<path d="M105.5441 104.6535
L105.6202 104.7011
" />
<path d="M105.6202 104.7011
L105.6583 104.7440
" />
<path d="M105.6583 104.7440
L105.6964 104.8249
" />
<path d="M105.6964 104.8249
L105.6964 104.9392
" />
<path d="M105.6964 104.9392
L105.6583 105.0106
" />
<path d="M105.6583 105.0106
L105.6202 105.0440
" />
<path d="M105.6202 105.0440
L105.5441 105.0726
" />
<path d="M105.5441 105.0726
L105.3155 105.0440
" />
<path d="M105.3155 105.0440
L105.2393 104.9964
" />
<path d="M105.2393 104.9964
L105.2012 104.9535
" />
<path d="M105.2012 104.9535
L105.1631 104.8726
" />
<path d="M105.1631 104.8726
L105.1631 104.7583
" />
<path d="M105.1631 105.3678
L105.6964 105.4345
" />
<path d="M105.5441 105.4154
L105.6202 105.4630
" />
<path d="M105.6202 105.4630
L105.6583 105.5059
" />
<path d="M105.6583 105.5059
L105.6964 105.5868
" />
<path d="M105.6964 105.5868
L105.6964 105.6630
" />
<path d="M105.2012 105.8297
L105.1631 105.9011
" />
<path d="M105.1631 105.9011
L105.1631 106.0535
" />
<path d="M105.1631 106.0535
L105.2012 106.1345
" />
<path d="M105.2012 106.1345
L105.2774 106.1821
" />
<path d="M105.2774 106.1821
L105.3155 106.1868
" />
<path d="M105.3155 106.1868
L105.3917 106.1583
" />
<path d="M105.3917 106.1583
L105.4298 106.0868
" />
<path d="M105.4298 106.0868
L105.4298 105.9726
" />
<path d="M105.4298 105.9726
L105.4679 105.9011
" />
<path d="M105.4679 105.9011
L105.5441 105.8726
" />
<path d="M105.5441 105.8726
L105.5822 105.8773
" />
<path d="M105.5822 105.8773
L105.6583 105.9249
" />
<path d="M105.6583 105.9249
L105.6964 106.0059
" />
<path d="M105.6964 106.0059
L105.6964 106.1202
" />
<path d="M105.6964 106.1202
L105.6583 106.1916
" />
<path d="M105.2012 106.8202
L105.1631 106.7392
" />
<path d="M105.1631 106.7392
L105.1631 106.5868
" />
<path d="M105.1631 106.5868
L105.2012 106.5154
" />
<path d="M105.2012 106.5154
L105.2774 106.4868
" />
<path d="M105.2774 106.4868
L105.5822 106.5249
" />
<path d="M105.5822 106.5249
L105.6583 106.5726
" />
<path d="M105.6583 106.5726
L105.6964 106.6535
" />
<path d="M105.6964 106.6535
L105.6964 106.8059
" />
<path d="M105.6964 106.8059
L105.6583 106.8773
" />
<path d="M105.6583 106.8773
L105.5822 106.9059
" />
<path d="M105.5822 106.9059
L105.5060 106.8964
" />
<path d="M105.5060 106.8964
L105.4298 106.5059
" />
<path d="M105.1631 107.3106
L105.2012 107.2392
" />
<path d="M105.2012 107.2392
L105.2774 107.2106
" />
<path d="M105.2774 107.2106
L105.9631 107.2964
" />
<path d="M105.1631 107.7297
L105.2012 107.6583
" />
<path d="M105.2012 107.6583
L105.2774 107.6297
" />
<path d="M105.2774 107.6297
L105.9631 107.7154
" />
<path d="M105.1631 108.0345
L105.6964 108.1011
" />
<path d="M105.9631 108.1345
L105.9250 108.0916
" />
<path d="M105.9250 108.0916
L105.8869 108.1249
" />
<path d="M105.8869 108.1249
L105.9250 108.1678
" />
<path d="M105.9250 108.1678
L105.9631 108.1345
" />
<path d="M105.9631 108.1345
L105.8869 108.1249
" />
</g></g>
<g style="fill:#000000; fill-opacity:0.0; 
stroke:#000000; stroke-width:0.2500; stroke-opacity:1; 
stroke-linecap:round; stroke-linejoin:round;">
<text x="193.2940" y="104.4445"
textLength="4.6643" font-size="2.0000" lengthAdjust="spacingAndGlyphs"
text-anchor="end" opacity="0">TOP</text>
<g class="stroked-text"><desc>TOP</desc>
<path d="M189.0581 102.8754
L189.9152 102.8754
" />
<path d="M189.4867 104.3754
L189.4867 102.8754
" />
<path d="M190.7010 102.8754
L190.9867 102.8754
" />
<path d="M190.9867 102.8754
L191.1295 102.9469
" />
<path d="M191.1295 102.9469
L191.2724 103.0897
" />
<path d="M191.2724 103.0897
L191.3438 103.3754
" />
<path d="M191.3438 103.3754
L191.3438 103.8754
" />
<path d="M191.3438 103.8754
L191.2724 104.1611
" />
<path d="M191.2724 104.1611
L191.1295 104.3040
" />
<path d="M191.1295 104.3040
L190.9867 104.3754
" />
<path d="M190.9867 104.3754
L190.7010 104.3754
" />
<path d="M190.7010 104.3754
L190.5581 104.3040
" />
<path d="M190.5581 104.3040
L190.4152 104.1611
" />
<path d="M190.4152 104.1611
L190.3438 103.8754
" />
<path d="M190.3438 103.8754
L190.3438 103.3754
" />
<path d="M190.3438 103.3754
L190.4152 103.0897
" />
<path d="M190.4152 103.0897
L190.5581 102.9469
" />
<path d="M190.5581 102.9469
L190.7010 102.8754
" />
<path d="M191.9867 104.3754
L191.9867 102.8754
" />
<path d="M191.9867 102.8754
L192.5581 102.8754
" />
<path d="M192.5581 102.8754
L192.7010 102.9469
" />
<path d="M192.7010 102.9469
L192.7724 103.0183
" />
<path d="M192.7724 103.0183
L192.8438 103.1611
" />
<path d="M192.8438 103.1611
L192.8438 103.3754
" />
<path d="M192.8438 103.3754
L192.7724 103.5183
" />
<path d="M192.7724 103.5183
L192.7010 103.5897
" />
<path d="M192.7010 103.5897
L192.5581 103.6611
" />
<path d="M192.5581 103.6611
L191.9867 103.6611
" />
</g><text x="193.2940" y="106.8595"
textLength="5.4500" font-size="2.0000" lengthAdjust="spacingAndGlyphs"
text-anchor="end" opacity="0">SIDE</text>
<g class="stroked-text"><desc>SIDE</desc>
<path d="M188.4152 106.7190
L188.6295 106.7904
" />
<path d="M188.6295 106.7904
L188.9867 106.7904
" />
<path d="M188.9867 106.7904
L189.1295 106.7190
" />
<path d="M189.1295 106.7190
L189.2010 106.6476
" />
<path d="M189.2010 106.6476
L189.2724 106.5047
" />
<path d="M189.2724 106.5047
L189.2724 106.3619
" />
<path d="M189.2724 106.3619
L189.2010 106.2190
" />
<path d="M189.2010 106.2190
L189.1295 106.1476
" />
<path d="M189.1295 106.1476
L188.9867 106.0761
" />
<path d="M188.9867 106.0761
L188.7010 106.0047
" />
<path d="M188.7010 106.0047
L188.5581 105.9333
" />
<path d="M188.5581 105.9333
L188.4867 105.8619
" />
<path d="M188.4867 105.8619
L188.4152 105.7190
" />
<path d="M188.4152 105.7190
L188.4152 105.5761
" />
<path d="M188.4152 105.5761
L188.4867 105.4333
" />
<path d="M188.4867 105.4333
L188.5581 105.3619
" />
<path d="M188.5581 105.3619
L188.7010 105.2904
" />
<path d="M188.7010 105.2904
L189.0581 105.2904
" />
<path d="M189.0581 105.2904
L189.2724 105.3619
" />
<path d="M189.9152 106.7904
L189.9152 105.2904
" />
<path d="M190.6295 106.7904
L190.6295 105.2904
" />
<path d="M190.6295 105.2904
L190.9867 105.2904
" />
<path d="M190.9867 105.2904
L191.2010 105.3619
" />
<path d="M191.2010 105.3619
L191.3438 105.5047
" />
<path d="M191.3438 105.5047
L191.4152 105.6476
" />
<path d="M191.4152 105.6476
L191.4867 105.9333
" />
<path d="M191.4867 105.9333
L191.4867 106.1476
" />
<path d="M191.4867 106.1476
L191.4152 106.4333
" />
<path d="M191.4152 106.4333
L191.3438 106.5761
" />
<path d="M191.3438 106.5761
L191.2010 106.7190
" />
<path d="M191.2010 106.7190
L190.9867 106.7904
" />
<path d="M190.9867 106.7904
L190.6295 106.7904
" />
<path d="M192.1295 106.0047
L192.6295 106.0047
" />
<path d="M192.8438 106.7904
L192.1295 106.7904
" />
<path d="M192.1295 106.7904
L192.1295 105.2904
" />
<path d="M192.1295 105.2904
L192.8438 105.2904
" />
</g></g>
<g style="fill:#000000; fill-opacity:0.0; 
stroke:#000000; stroke-width:0.1500; stroke-opacity:1; 
stroke-linecap:round; stroke-linejoin:round;">
<text x="126.5000" y="95.5000"
textLength="4.3452" font-size="1.3333" lengthAdjust="spacingAndGlyphs"
text-anchor="middle" opacity="0">Sol_4</text>
<g class="stroked-text"><desc>Sol_4</desc>
<path d="M124.6429 95.4072
L124.7857 95.4548
" />
<path d="M124.7857 95.4548
L125.0238 95.4548
" />
<path d="M125.0238 95.4548
L125.1190 95.4072
" />
<path d="M125.1190 95.4072
L125.1667 95.3596
" />
<path d="M125.1667 95.3596
L125.2143 95.2643
" />
<path d="M125.2143 95.2643
L125.2143 95.1691
" />
<path d="M125.2143 95.1691
L125.1667 95.0739
" />
<path d="M125.1667 95.0739
L125.1190 95.0262
" />
<path d="M125.1190 95.0262
L125.0238 94.9786
" />
<path d="M125.0238 94.9786
L124.8333 94.9310
" />
<path d="M124.8333 94.9310
L124.7381 94.8834
" />
<path d="M124.7381 94.8834
L124.6905 94.8358
" />
<path d="M124.6905 94.8358
L124.6429 94.7405
" />
<path d="M124.6429 94.7405
L124.6429 94.6453
" />
<path d="M124.6429 94.6453
L124.6905 94.5501
" />
<path d="M124.6905 94.5501
L124.7381 94.5024
" />
<path d="M124.7381 94.5024
L124.8333 94.4548
" />
<path d="M124.8333 94.4548
L125.0714 94.4548
" />
<path d="M125.0714 94.4548
L125.2143 94.5024
" />
<path d="M125.7857 95.4548
L125.6905 95.4072
" />
<path d="M125.6905 95.4072
L125.6429 95.3596
" />
<path d="M125.6429 95.3596
L125.5952 95.2643
" />
<path d="M125.5952 95.2643
L125.5952 94.9786
" />
<path d="M125.5952 94.9786
L125.6429 94.8834
" />
<path d="M125.6429 94.8834
L125.6905 94.8358
" />
<path d="M125.6905 94.8358
L125.7857 94.7882
" />
<path d="M125.7857 94.7882
L125.9286 94.7882
" />
<path d="M125.9286 94.7882
L126.0238 94.8358
" />
<path d="M126.0238 94.8358
L126.0714 94.8834
" />
<path d="M126.0714 94.8834
L126.1190 94.9786
" />
<path d="M126.1190 94.9786
L126.1190 95.2643
" />
<path d="M126.1190 95.2643
L126.0714 95.3596
" />
<path d="M126.0714 95.3596
L126.0238 95.4072
" />
<path d="M126.0238 95.4072
L125.9286 95.4548
" />
<path d="M125.9286 95.4548
L125.7857 95.4548
" />
<path d="M126.6905 95.4548
L126.5952 95.4072
" />
<path d="M126.5952 95.4072
L126.5476 95.3120
" />
<path d="M126.5476 95.3120
L126.5476 94.4548
" />
<path d="M126.8333 95.5501
L127.5952 95.5501
" />
<path d="M128.2619 94.7882
L128.2619 95.4548
" />
<path d="M128.0238 94.4072
L127.7857 95.1215
" />
<path d="M127.7857 95.1215
L128.4048 95.1215
" />
</g><text x="179.8320" y="102.1000"
textLength="1.4881" font-size="1.3333" lengthAdjust="spacingAndGlyphs"
text-anchor="middle" opacity="0">+</text>
<g class="stroked-text"><desc>+</desc>
<path d="M179.4510 101.6739
L180.2130 101.6739
" />
<path d="M179.8320 102.0548
L179.8320 101.2929
" />
</g></g>
<g style="fill:#000000; fill-opacity:0.0; 
stroke:#000000; stroke-width:0.1600; stroke-opacity:1; 
stroke-linecap:round; stroke-linejoin:round;">
<text x="167.6400" y="117.8380"
textLength="1.7676" font-size="1.0667" lengthAdjust="spacingAndGlyphs"
text-anchor="middle" opacity="0">A2</text>
<g class="stroked-text"><desc>A2</desc>
<path d="M167.0686 117.5032
L167.4495 117.5032
" />
<path d="M166.9924 117.7318
L167.2590 116.9318
" />
<path d="M167.2590 116.9318
L167.5257 117.7318
" />
<path d="M167.7543 117.0080
L167.7924 116.9699
" />
<path d="M167.7924 116.9699
L167.8686 116.9318
" />
<path d="M167.8686 116.9318
L168.0590 116.9318
" />
<path d="M168.0590 116.9318
L168.1352 116.9699
" />
<path d="M168.1352 116.9699
L168.1733 117.0080
" />
<path d="M168.1733 117.0080
L168.2114 117.0842
" />
<path d="M168.2114 117.0842
L168.2114 117.1603
" />
<path d="M168.2114 117.1603
L168.1733 117.2746
" />
<path d="M168.1733 117.2746
L167.7162 117.7318
" />
<path d="M167.7162 117.7318
L168.2114 117.7318
" />
</g><text x="167.6400" y="119.1260"
textLength="1.7676" font-size="1.0667" lengthAdjust="spacingAndGlyphs"
text-anchor="middle" opacity="0">EE</text>
<g class="stroked-text"><desc>EE</desc>
<path d="M167.1067 118.6007
L167.3733 118.6007
" />
<path d="M167.4876 119.0198
L167.1067 119.0198
" />
<path d="M167.1067 119.0198
L167.1067 118.2198
" />
<path d="M167.1067 118.2198
L167.4876 118.2198
" />
<path d="M167.8305 118.6007
L168.0971 118.6007
" />
<path d="M168.2114 119.0198
L167.8305 119.0198
" />
<path d="M167.8305 119.0198
L167.8305 118.2198
" />
<path d="M167.8305 118.2198
L168.2114 118.2198
" />
</g></g>
<g style="fill:#000000; fill-opacity:0.0; 
stroke:#000000; stroke-width:0.1000; stroke-opacity:1; 
stroke-linecap:round; stroke-linejoin:round;">
<text x="121.6660" y="114.1730"
textLength="0.7495" font-size="1.0667" lengthAdjust="spacingAndGlyphs"
text-anchor="start" opacity="0">y</text>
<g class="stroked-text"><desc>y</desc>
<path d="M121.8461 113.5366
L122.0365 114.0699
" />
<path d="M122.2270 113.5366
L122.0365 114.0699
" />
<path d="M122.0365 114.0699
L121.9604 114.2604
" />
<path d="M121.9604 114.2604
L121.9223 114.2985
" />
<path d="M121.9223 114.2985
L121.8461 114.3366
" />
</g><text x="124.9680" y="114.3000"
textLength="0.7876" font-size="1.0667" lengthAdjust="spacingAndGlyphs"
text-anchor="start" opacity="0">z</text>
<g class="stroked-text"><desc>z</desc>
<path d="M125.1481 113.6636
L125.5671 113.6636
" />
<path d="M125.5671 113.6636
L125.1481 114.1969
" />
<path d="M125.1481 114.1969
L125.5671 114.1969
" />
</g><text x="143.6370" y="94.2340"
textLength="0.7495" font-size="1.0667" lengthAdjust="spacingAndGlyphs"
text-anchor="start" opacity="0">y</text>
<g class="stroked-text"><desc>y</desc>
<path d="M143.8171 93.5976
L144.0075 94.1309
" />
<path d="M144.1980 93.5976
L144.0075 94.1309
" />
<path d="M144.0075 94.1309
L143.9314 94.3214
" />
<path d="M143.9314 94.3214
L143.8933 94.3595
" />
<path d="M143.8933 94.3595
L143.8171 94.3976
" />
</g></g>
<g style="fill:#000000; fill-opacity:0.0; 
stroke:#000000; stroke-width:0.1500; stroke-opacity:1; 
stroke-linecap:round; stroke-linejoin:round;">
<text x="166.5000" y="95.5000"
textLength="4.3452" font-size="1.3333" lengthAdjust="spacingAndGlyphs"
text-anchor="middle" opacity="0">Sol_1</text>
<g class="stroked-text"><desc>Sol_1</desc>
<path d="M164.6429 95.4072
L164.7857 95.4548
" />
<path d="M164.7857 95.4548
L165.0238 95.4548
" />
<path d="M165.0238 95.4548
L165.1190 95.4072
" />
<path d="M165.1190 95.4072
L165.1667 95.3596
" />
<path d="M165.1667 95.3596
L165.2143 95.2643
" />
<path d="M165.2143 95.2643
L165.2143 95.1691
" />
<path d="M165.2143 95.1691
L165.1667 95.0739
" />
<path d="M165.1667 95.0739
L165.1190 95.0262
" />
<path d="M165.1190 95.0262
L165.0238 94.9786
" />
<path d="M165.0238 94.9786
L164.8333 94.9310
" />
<path d="M164.8333 94.9310
L164.7381 94.8834
" />
<path d="M164.7381 94.8834
L164.6905 94.8358
" />
<path d="M164.6905 94.8358
L164.6429 94.7405
" />
<path d="M164.6429 94.7405
L164.6429 94.6453
" />
<path d="M164.6429 94.6453
L164.6905 94.5501
" />
<path d="M164.6905 94.5501
L164.7381 94.5024
" />
<path d="M164.7381 94.5024
L164.8333 94.4548
" />
<path d="M164.8333 94.4548
L165.0714 94.4548
" />
<path d="M165.0714 94.4548
L165.2143 94.5024
" />
<path d="M165.7857 95.4548
L165.6905 95.4072
" />
<path d="M165.6905 95.4072
L165.6429 95.3596
" />
<path d="M165.6429 95.3596
L165.5952 95.2643
" />
<path d="M165.5952 95.2643
L165.5952 94.9786
" />
<path d="M165.5952 94.9786
L165.6429 94.8834
" />
<path d="M165.6429 94.8834
L165.6905 94.8358
" />
<path d="M165.6905 94.8358
L165.7857 94.7882
" />
<path d="M165.7857 94.7882
L165.9286 94.7882
" />
<path d="M165.9286 94.7882
L166.0238 94.8358
" />
<path d="M166.0238 94.8358
L166.0714 94.8834
" />
<path d="M166.0714 94.8834
L166.1190 94.9786
" />
<path d="M166.1190 94.9786
L166.1190 95.2643
" />
<path d="M166.1190 95.2643
L166.0714 95.3596
" />
<path d="M166.0714 95.3596
L166.0238 95.4072
" />
<path d="M166.0238 95.4072
L165.9286 95.4548
" />
<path d="M165.9286 95.4548
L165.7857 95.4548
" />
<path d="M166.6905 95.4548
L166.5952 95.4072
" />
<path d="M166.5952 95.4072
L166.5476 95.3120
" />
<path d="M166.5476 95.3120
L166.5476 94.4548
" />
<path d="M166.8333 95.5501
L167.5952 95.5501
" />
<path d="M168.3571 95.4548
L167.7857 95.4548
" />
<path d="M168.0714 95.4548
L168.0714 94.4548
" />
<path d="M168.0714 94.4548
L167.9762 94.5977
" />
<path d="M167.9762 94.5977
L167.8810 94.6929
" />
<path d="M167.8810 94.6929
L167.7857 94.7405
" />
</g><text x="195.5800" y="88.0870"
textLength="3.2976" font-size="1.3333" lengthAdjust="spacingAndGlyphs"
text-anchor="end" opacity="0">GND</text>
<g class="stroked-text"><desc>GND</desc>
<path d="M193.1956 87.0894
L193.1004 87.0418
" />
<path d="M193.1004 87.0418
L192.9575 87.0418
" />
<path d="M192.9575 87.0418
L192.8146 87.0894
" />
<path d="M192.8146 87.0894
L192.7194 87.1847
" />
<path d="M192.7194 87.1847
L192.6718 87.2799
" />
<path d="M192.6718 87.2799
L192.6242 87.4704
" />
<path d="M192.6242 87.4704
L192.6242 87.6132
" />
<path d="M192.6242 87.6132
L192.6718 87.8037
" />
<path d="M192.6718 87.8037
L192.7194 87.8990
" />
<path d="M192.7194 87.8990
L192.8146 87.9942
" />
<path d="M192.8146 87.9942
L192.9575 88.0418
" />
<path d="M192.9575 88.0418
L193.0527 88.0418
" />
<path d="M193.0527 88.0418
L193.1956 87.9942
" />
<path d="M193.1956 87.9942
L193.2432 87.9466
" />
<path d="M193.2432 87.9466
L193.2432 87.6132
" />
<path d="M193.2432 87.6132
L193.0527 87.6132
" />
<path d="M193.6718 88.0418
L193.6718 87.0418
" />
<path d="M193.6718 87.0418
L194.2432 88.0418
" />
<path d="M194.2432 88.0418
L194.2432 87.0418
" />
<path d="M194.7194 88.0418
L194.7194 87.0418
" />
<path d="M194.7194 87.0418
L194.9575 87.0418
" />
<path d="M194.9575 87.0418
L195.1004 87.0894
" />
<path d="M195.1004 87.0894
L195.1956 87.1847
" />
<path d="M195.1956 87.1847
L195.2432 87.2799
" />
<path d="M195.2432 87.2799
L195.2908 87.4704
" />
<path d="M195.2908 87.4704
L195.2908 87.6132
" />
<path d="M195.2908 87.6132
L195.2432 87.8037
" />
<path d="M195.2432 87.8037
L195.1956 87.8990
" />
<path d="M195.1956 87.8990
L195.1004 87.9942
" />
<path d="M195.1004 87.9942
L194.9575 88.0418
" />
<path d="M194.9575 88.0418
L194.7194 88.0418
" />
</g><text x="195.5800" y="89.6970"
textLength="4.8690" font-size="1.3333" lengthAdjust="spacingAndGlyphs"
text-anchor="end" opacity="0">PLANE</text>
<g class="stroked-text"><desc>PLANE</desc>
<path d="M191.1004 89.6518
L191.1004 88.6518
" />
<path d="M191.1004 88.6518
L191.4813 88.6518
" />
<path d="M191.4813 88.6518
L191.5766 88.6994
" />
<path d="M191.5766 88.6994
L191.6242 88.7471
" />
<path d="M191.6242 88.7471
L191.6718 88.8423
" />
<path d="M191.6718 88.8423
L191.6718 88.9852
" />
<path d="M191.6718 88.9852
L191.6242 89.0804
" />
<path d="M191.6242 89.0804
L191.5766 89.1280
" />
<path d="M191.5766 89.1280
L191.4813 89.1756
" />
<path d="M191.4813 89.1756
L191.1004 89.1756
" />
<path d="M192.5766 89.6518
L192.1004 89.6518
" />
<path d="M192.1004 89.6518
L192.1004 88.6518
" />
<path d="M192.8623 89.3661
L193.3385 89.3661
" />
<path d="M192.7670 89.6518
L193.1004 88.6518
" />
<path d="M193.1004 88.6518
L193.4337 89.6518
" />
<path d="M193.7670 89.6518
L193.7670 88.6518
" />
<path d="M193.7670 88.6518
L194.3385 89.6518
" />
<path d="M194.3385 89.6518
L194.3385 88.6518
" />
<path d="M194.8146 89.1280
L195.1480 89.1280
" />
<path d="M195.2908 89.6518
L194.8146 89.6518
" />
<path d="M194.8146 89.6518
L194.8146 88.6518
" />
<path d="M194.8146 88.6518
L195.2908 88.6518
" />
</g><g transform="rotate(90.000000 125.9840 87.3760)">
<text x="125.9840" y="87.8760"
textLength="1.4881" font-size="1.3333" lengthAdjust="spacingAndGlyphs"
text-anchor="middle" opacity="0">+</text>
</g>
<g class="stroked-text"><desc>+</desc>
<path d="M125.9101 86.9950
L125.9101 87.7570
" />
<path d="M125.5292 87.3760
L126.2911 87.3760
" />
</g><text x="118.0000" y="67.5000"
textLength="4.2500" font-size="1.3333" lengthAdjust="spacingAndGlyphs"
text-anchor="middle" opacity="0">PMAG</text>
<g class="stroked-text"><desc>PMAG</desc>
<path d="M116.2381 67.4548
L116.2381 66.4548
" />
<path d="M116.2381 66.4548
L116.6190 66.4548
" />
<path d="M116.6190 66.4548
L116.7143 66.5024
" />
<path d="M116.7143 66.5024
L116.7619 66.5501
" />
<path d="M116.7619 66.5501
L116.8095 66.6453
" />
<path d="M116.8095 66.6453
L116.8095 66.7882
" />
<path d="M116.8095 66.7882
L116.7619 66.8834
" />
<path d="M116.7619 66.8834
L116.7143 66.9310
" />
<path d="M116.7143 66.9310
L116.6190 66.9786
" />
<path d="M116.6190 66.9786
L116.2381 66.9786
" />
<path d="M117.2381 67.4548
L117.2381 66.4548
" />
<path d="M117.2381 66.4548
L117.5714 67.1691
" />
<path d="M117.5714 67.1691
L117.9048 66.4548
" />
<path d="M117.9048 66.4548
L117.9048 67.4548
" />
<path d="M118.3333 67.1691
L118.8095 67.1691
" />
<path d="M118.2381 67.4548
L118.5714 66.4548
" />
<path d="M118.5714 66.4548
L118.9048 67.4548
" />
<path d="M119.7619 66.5024
L119.6667 66.4548
" />
<path d="M119.6667 66.4548
L119.5238 66.4548
" />
<path d="M119.5238 66.4548
L119.3810 66.5024
" />
<path d="M119.3810 66.5024
L119.2857 66.5977
" />
<path d="M119.2857 66.5977
L119.2381 66.6929
" />
<path d="M119.2381 66.6929
L119.1905 66.8834
" />
<path d="M119.1905 66.8834
L119.1905 67.0262
" />
<path d="M119.1905 67.0262
L119.2381 67.2167
" />
<path d="M119.2381 67.2167
L119.2857 67.3120
" />
<path d="M119.2857 67.3120
L119.3810 67.4072
" />
<path d="M119.3810 67.4072
L119.5238 67.4548
" />
<path d="M119.5238 67.4548
L119.6190 67.4548
" />
<path d="M119.6190 67.4548
L119.7619 67.4072
" />
<path d="M119.7619 67.4072
L119.8095 67.3596
" />
<path d="M119.8095 67.3596
L119.8095 67.0262
" />
<path d="M119.8095 67.0262
L119.6190 67.0262
" />
</g><text x="159.2580" y="76.8350"
textLength="1.4881" font-size="1.3333" lengthAdjust="spacingAndGlyphs"
text-anchor="start" opacity="0">-</text>
<g class="stroked-text"><desc>-</desc>
<path d="M159.5948 76.3239
L160.3567 76.3239
" />
</g><text x="134.1120" y="121.4956"
textLength="2.9167" font-size="1.3333" lengthAdjust="spacingAndGlyphs"
text-anchor="middle" opacity="0">3_2</text>
<g class="stroked-text"><desc>3_2</desc>
<path d="M132.9215 120.4504
L133.5406 120.4504
" />
<path d="M133.5406 120.4504
L133.2072 120.8314
" />
<path d="M133.2072 120.8314
L133.3501 120.8314
" />
<path d="M133.3501 120.8314
L133.4453 120.8790
" />
<path d="M133.4453 120.8790
L133.4930 120.9266
" />
<path d="M133.4930 120.9266
L133.5406 121.0218
" />
<path d="M133.5406 121.0218
L133.5406 121.2599
" />
<path d="M133.5406 121.2599
L133.4930 121.3552
" />
<path d="M133.4930 121.3552
L133.4453 121.4028
" />
<path d="M133.4453 121.4028
L133.3501 121.4504
" />
<path d="M133.3501 121.4504
L133.0644 121.4504
" />
<path d="M133.0644 121.4504
L132.9691 121.4028
" />
<path d="M132.9691 121.4028
L132.9215 121.3552
" />
<path d="M133.7310 121.5457
L134.4930 121.5457
" />
<path d="M134.6834 120.5457
L134.7310 120.4980
" />
<path d="M134.7310 120.4980
L134.8263 120.4504
" />
<path d="M134.8263 120.4504
L135.0644 120.4504
" />
<path d="M135.0644 120.4504
L135.1596 120.4980
" />
<path d="M135.1596 120.4980
L135.2072 120.5457
" />
<path d="M135.2072 120.5457
L135.2549 120.6409
" />
<path d="M135.2549 120.6409
L135.2549 120.7361
" />
<path d="M135.2549 120.7361
L135.2072 120.8790
" />
<path d="M135.2072 120.8790
L134.6358 121.4504
" />
<path d="M134.6358 121.4504
L135.2549 121.4504
" />
</g><text x="124.0000" y="86.0000"
textLength="2.9167" font-size="1.3333" lengthAdjust="spacingAndGlyphs"
text-anchor="middle" opacity="0">4_1</text>
<g class="stroked-text"><desc>4_1</desc>
<path d="M123.3333 85.2882
L123.3333 85.9548
" />
<path d="M123.0952 84.9072
L122.8571 85.6215
" />
<path d="M122.8571 85.6215
L123.4762 85.6215
" />
<path d="M123.6190 86.0501
L124.3810 86.0501
" />
<path d="M125.1429 85.9548
L124.5714 85.9548
" />
<path d="M124.8571 85.9548
L124.8571 84.9548
" />
<path d="M124.8571 84.9548
L124.7619 85.0977
" />
<path d="M124.7619 85.0977
L124.6667 85.1929
" />
<path d="M124.6667 85.1929
L124.5714 85.2405
" />
</g><text x="177.8000" y="95.6280"
textLength="2.9167" font-size="1.3333" lengthAdjust="spacingAndGlyphs"
text-anchor="middle" opacity="0">1_2</text>
<g class="stroked-text"><desc>1_2</desc>
<path d="M177.2286 95.5828
L176.6571 95.5828
" />
<path d="M176.9429 95.5828
L176.9429 94.5828
" />
<path d="M176.9429 94.5828
L176.8476 94.7257
" />
<path d="M176.8476 94.7257
L176.7524 94.8209
" />
<path d="M176.7524 94.8209
L176.6571 94.8685
" />
<path d="M177.4190 95.6781
L178.1810 95.6781
" />
<path d="M178.3714 94.6781
L178.4190 94.6304
" />
<path d="M178.4190 94.6304
L178.5143 94.5828
" />
<path d="M178.5143 94.5828
L178.7524 94.5828
" />
<path d="M178.7524 94.5828
L178.8476 94.6304
" />
<path d="M178.8476 94.6304
L178.8952 94.6781
" />
<path d="M178.8952 94.6781
L178.9429 94.7733
" />
<path d="M178.9429 94.7733
L178.9429 94.8685
" />
<path d="M178.9429 94.8685
L178.8952 95.0114
" />
<path d="M178.8952 95.0114
L178.3238 95.5828
" />
<path d="M178.3238 95.5828
L178.9429 95.5828
" />
</g><text x="127.5000" y="116.0000"
textLength="2.1548" font-size="1.3333" lengthAdjust="spacingAndGlyphs"
text-anchor="middle" opacity="0">S2</text>
<g class="stroked-text"><desc>S2</desc>
<path d="M126.7381 115.9072
L126.8810 115.9548
" />
<path d="M126.8810 115.9548
L127.1190 115.9548
" />
<path d="M127.1190 115.9548
L127.2143 115.9072
" />
<path d="M127.2143 115.9072
L127.2619 115.8596
" />
<path d="M127.2619 115.8596
L127.3095 115.7643
" />
<path d="M127.3095 115.7643
L127.3095 115.6691
" />
<path d="M127.3095 115.6691
L127.2619 115.5739
" />
<path d="M127.2619 115.5739
L127.2143 115.5262
" />
<path d="M127.2143 115.5262
L127.1190 115.4786
" />
<path d="M127.1190 115.4786
L126.9286 115.4310
" />
<path d="M126.9286 115.4310
L126.8333 115.3834
" />
<path d="M126.8333 115.3834
L126.7857 115.3358
" />
<path d="M126.7857 115.3358
L126.7381 115.2405
" />
<path d="M126.7381 115.2405
L126.7381 115.1453
" />
<path d="M126.7381 115.1453
L126.7857 115.0501
" />
<path d="M126.7857 115.0501
L126.8333 115.0024
" />
<path d="M126.8333 115.0024
L126.9286 114.9548
" />
<path d="M126.9286 114.9548
L127.1667 114.9548
" />
<path d="M127.1667 114.9548
L127.3095 115.0024
" />
<path d="M127.6905 115.0501
L127.7381 115.0024
" />
<path d="M127.7381 115.0024
L127.8333 114.9548
" />
<path d="M127.8333 114.9548
L128.0714 114.9548
" />
<path d="M128.0714 114.9548
L128.1667 115.0024
" />
<path d="M128.1667 115.0024
L128.2143 115.0501
" />
<path d="M128.2143 115.0501
L128.2619 115.1453
" />
<path d="M128.2619 115.1453
L128.2619 115.2405
" />
<path d="M128.2619 115.2405
L128.2143 115.3834
" />
<path d="M128.2143 115.3834
L127.6429 115.9548
" />
<path d="M127.6429 115.9548
L128.2619 115.9548
" />
</g><text x="164.5000" y="116.0000"
textLength="2.1548" font-size="1.3333" lengthAdjust="spacingAndGlyphs"
text-anchor="middle" opacity="0">S3</text>
<g class="stroked-text"><desc>S3</desc>
<path d="M163.7381 115.9072
L163.8810 115.9548
" />
<path d="M163.8810 115.9548
L164.1190 115.9548
" />
<path d="M164.1190 115.9548
L164.2143 115.9072
" />
<path d="M164.2143 115.9072
L164.2619 115.8596
" />
<path d="M164.2619 115.8596
L164.3095 115.7643
" />
<path d="M164.3095 115.7643
L164.3095 115.6691
" />
<path d="M164.3095 115.6691
L164.2619 115.5739
" />
<path d="M164.2619 115.5739
L164.2143 115.5262
" />
<path d="M164.2143 115.5262
L164.1190 115.4786
" />
<path d="M164.1190 115.4786
L163.9286 115.4310
" />
<path d="M163.9286 115.4310
L163.8333 115.3834
" />
<path d="M163.8333 115.3834
L163.7857 115.3358
" />
<path d="M163.7857 115.3358
L163.7381 115.2405
" />
<path d="M163.7381 115.2405
L163.7381 115.1453
" />
<path d="M163.7381 115.1453
L163.7857 115.0501
" />
<path d="M163.7857 115.0501
L163.8333 115.0024
" />
<path d="M163.8333 115.0024
L163.9286 114.9548
" />
<path d="M163.9286 114.9548
L164.1667 114.9548
" />
<path d="M164.1667 114.9548
L164.3095 115.0024
" />
<path d="M164.6429 114.9548
L165.2619 114.9548
" />
<path d="M165.2619 114.9548
L164.9286 115.3358
" />
<path d="M164.9286 115.3358
L165.0714 115.3358
" />
<path d="M165.0714 115.3358
L165.1667 115.3834
" />
<path d="M165.1667 115.3834
L165.2143 115.4310
" />
<path d="M165.2143 115.4310
L165.2619 115.5262
" />
<path d="M165.2619 115.5262
L165.2619 115.7643
" />
<path d="M165.2619 115.7643
L165.2143 115.8596
" />
<path d="M165.2143 115.8596
L165.1667 115.9072
" />
<path d="M165.1667 115.9072
L165.0714 115.9548
" />
<path d="M165.0714 115.9548
L164.7857 115.9548
" />
<path d="M164.7857 115.9548
L164.6905 115.9072
" />
<path d="M164.6905 115.9072
L164.6429 115.8596
" />
</g><text x="177.8000" y="100.2000"
textLength="2.9167" font-size="1.3333" lengthAdjust="spacingAndGlyphs"
text-anchor="middle" opacity="0">1_1</text>
<g class="stroked-text"><desc>1_1</desc>
<path d="M177.2286 100.1548
L176.6571 100.1548
" />
<path d="M176.9429 100.1548
L176.9429 99.1548
" />
<path d="M176.9429 99.1548
L176.8476 99.2977
" />
<path d="M176.8476 99.2977
L176.7524 99.3929
" />
<path d="M176.7524 99.3929
L176.6571 99.4405
" />
<path d="M177.4190 100.2501
L178.1810 100.2501
" />
<path d="M178.9429 100.1548
L178.3714 100.1548
" />
<path d="M178.6571 100.1548
L178.6571 99.1548
" />
<path d="M178.6571 99.1548
L178.5619 99.2977
" />
<path d="M178.5619 99.2977
L178.4667 99.3929
" />
<path d="M178.4667 99.3929
L178.3714 99.4405
" />
</g><text x="158.0000" y="74.8404"
textLength="2.9167" font-size="1.3333" lengthAdjust="spacingAndGlyphs"
text-anchor="middle" opacity="0">2_2</text>
<g class="stroked-text"><desc>2_2</desc>
<path d="M156.8571 73.8905
L156.9048 73.8428
" />
<path d="M156.9048 73.8428
L157.0000 73.7952
" />
<path d="M157.0000 73.7952
L157.2381 73.7952
" />
<path d="M157.2381 73.7952
L157.3333 73.8428
" />
<path d="M157.3333 73.8428
L157.3810 73.8905
" />
<path d="M157.3810 73.8905
L157.4286 73.9857
" />
<path d="M157.4286 73.9857
L157.4286 74.0809
" />
<path d="M157.4286 74.0809
L157.3810 74.2238
" />
<path d="M157.3810 74.2238
L156.8095 74.7952
" />
<path d="M156.8095 74.7952
L157.4286 74.7952
" />
<path d="M157.6190 74.8905
L158.3810 74.8905
" />
<path d="M158.5714 73.8905
L158.6190 73.8428
" />
<path d="M158.6190 73.8428
L158.7143 73.7952
" />
<path d="M158.7143 73.7952
L158.9524 73.7952
" />
<path d="M158.9524 73.7952
L159.0476 73.8428
" />
<path d="M159.0476 73.8428
L159.0952 73.8905
" />
<path d="M159.0952 73.8905
L159.1429 73.9857
" />
<path d="M159.1429 73.9857
L159.1429 74.0809
" />
<path d="M159.1429 74.0809
L159.0952 74.2238
" />
<path d="M159.0952 74.2238
L158.5238 74.7952
" />
<path d="M158.5238 74.7952
L159.1429 74.7952
" />
</g><text x="134.0000" y="116.2380"
textLength="2.9167" font-size="1.3333" lengthAdjust="spacingAndGlyphs"
text-anchor="middle" opacity="0">3_1</text>
<g class="stroked-text"><desc>3_1</desc>
<path d="M132.8095 115.1928
L133.4286 115.1928
" />
<path d="M133.4286 115.1928
L133.0952 115.5738
" />
<path d="M133.0952 115.5738
L133.2381 115.5738
" />
<path d="M133.2381 115.5738
L133.3333 115.6214
" />
<path d="M133.3333 115.6214
L133.3810 115.6690
" />
<path d="M133.3810 115.6690
L133.4286 115.7642
" />
<path d="M133.4286 115.7642
L133.4286 116.0023
" />
<path d="M133.4286 116.0023
L133.3810 116.0976
" />
<path d="M133.3810 116.0976
L133.3333 116.1452
" />
<path d="M133.3333 116.1452
L133.2381 116.1928
" />
<path d="M133.2381 116.1928
L132.9524 116.1928
" />
<path d="M132.9524 116.1928
L132.8571 116.1452
" />
<path d="M132.8571 116.1452
L132.8095 116.0976
" />
<path d="M133.6190 116.2881
L134.3810 116.2881
" />
<path d="M135.1429 116.1928
L134.5714 116.1928
" />
<path d="M134.8571 116.1928
L134.8571 115.1928
" />
<path d="M134.8571 115.1928
L134.7619 115.3357
" />
<path d="M134.7619 115.3357
L134.6667 115.4309
" />
<path d="M134.6667 115.4309
L134.5714 115.4785
" />
</g><text x="158.0000" y="79.4404"
textLength="2.9167" font-size="1.3333" lengthAdjust="spacingAndGlyphs"
text-anchor="middle" opacity="0">2_1</text>
<g class="stroked-text"><desc>2_1</desc>
<path d="M156.8571 78.4905
L156.9048 78.4428
" />
<path d="M156.9048 78.4428
L157.0000 78.3952
" />
<path d="M157.0000 78.3952
L157.2381 78.3952
" />
<path d="M157.2381 78.3952
L157.3333 78.4428
" />
<path d="M157.3333 78.4428
L157.3810 78.4905
" />
<path d="M157.3810 78.4905
L157.4286 78.5857
" />
<path d="M157.4286 78.5857
L157.4286 78.6809
" />
<path d="M157.4286 78.6809
L157.3810 78.8238
" />
<path d="M157.3810 78.8238
L156.8095 79.3952
" />
<path d="M156.8095 79.3952
L157.4286 79.3952
" />
<path d="M157.6190 79.4905
L158.3810 79.4905
" />
<path d="M159.1429 79.3952
L158.5714 79.3952
" />
<path d="M158.8571 79.3952
L158.8571 78.3952
" />
<path d="M158.8571 78.3952
L158.7619 78.5381
" />
<path d="M158.7619 78.5381
L158.6667 78.6333
" />
<path d="M158.6667 78.6333
L158.5714 78.6809
" />
</g><text x="129.4000" y="85.9404"
textLength="2.9167" font-size="1.3333" lengthAdjust="spacingAndGlyphs"
text-anchor="middle" opacity="0">4_2</text>
<g class="stroked-text"><desc>4_2</desc>
<path d="M128.7333 85.2286
L128.7333 85.8952
" />
<path d="M128.4952 84.8476
L128.2571 85.5619
" />
<path d="M128.2571 85.5619
L128.8762 85.5619
" />
<path d="M129.0190 85.9905
L129.7810 85.9905
" />
<path d="M129.9714 84.9905
L130.0190 84.9428
" />
<path d="M130.0190 84.9428
L130.1143 84.8952
" />
<path d="M130.1143 84.8952
L130.3524 84.8952
" />
<path d="M130.3524 84.8952
L130.4476 84.9428
" />
<path d="M130.4476 84.9428
L130.4952 84.9905
" />
<path d="M130.4952 84.9905
L130.5429 85.0857
" />
<path d="M130.5429 85.0857
L130.5429 85.1809
" />
<path d="M130.5429 85.1809
L130.4952 85.3238
" />
<path d="M130.4952 85.3238
L129.9238 85.8952
" />
<path d="M129.9238 85.8952
L130.5429 85.8952
" />
</g><text x="146.0000" y="97.5000"
textLength="2.1548" font-size="1.3333" lengthAdjust="spacingAndGlyphs"
text-anchor="middle" opacity="0">S1</text>
<g class="stroked-text"><desc>S1</desc>
<path d="M145.2381 97.4072
L145.3810 97.4548
" />
<path d="M145.3810 97.4548
L145.6190 97.4548
" />
<path d="M145.6190 97.4548
L145.7143 97.4072
" />
<path d="M145.7143 97.4072
L145.7619 97.3596
" />
<path d="M145.7619 97.3596
L145.8095 97.2643
" />
<path d="M145.8095 97.2643
L145.8095 97.1691
" />
<path d="M145.8095 97.1691
L145.7619 97.0739
" />
<path d="M145.7619 97.0739
L145.7143 97.0262
" />
<path d="M145.7143 97.0262
L145.6190 96.9786
" />
<path d="M145.6190 96.9786
L145.4286 96.9310
" />
<path d="M145.4286 96.9310
L145.3333 96.8834
" />
<path d="M145.3333 96.8834
L145.2857 96.8358
" />
<path d="M145.2857 96.8358
L145.2381 96.7405
" />
<path d="M145.2381 96.7405
L145.2381 96.6453
" />
<path d="M145.2381 96.6453
L145.2857 96.5501
" />
<path d="M145.2857 96.5501
L145.3333 96.5024
" />
<path d="M145.3333 96.5024
L145.4286 96.4548
" />
<path d="M145.4286 96.4548
L145.6667 96.4548
" />
<path d="M145.6667 96.4548
L145.8095 96.5024
" />
<path d="M146.7619 97.4548
L146.1905 97.4548
" />
<path d="M146.4762 97.4548
L146.4762 96.4548
" />
<path d="M146.4762 96.4548
L146.3810 96.5977
" />
<path d="M146.3810 96.5977
L146.2857 96.6929
" />
<path d="M146.2857 96.6929
L146.1905 96.7405
" />
</g></g>
<g style="fill:#000000; fill-opacity:0.0; 
stroke:#000000; stroke-width:0.1200; stroke-opacity:1; 
stroke-linecap:round; stroke-linejoin:round;">
<path d="M133.1620 121.9860
L135.0620 121.9860
" />
<path d="M133.1620 123.8860
L133.1620 121.9860
" />
<path d="M135.0620 121.9860
L135.0620 123.8860
" />
<path d="M135.0620 123.8860
L133.1620 123.8860
" />
<path d="M123.0500 86.4904
L124.9500 86.4904
" />
<path d="M123.0500 88.3904
L123.0500 86.4904
" />
<path d="M124.9500 86.4904
L124.9500 88.3904
" />
<path d="M124.9500 88.3904
L123.0500 88.3904
" />
<path d="M176.8500 96.0780
L178.7500 96.0780
" />
<path d="M176.8500 97.9780
L176.8500 96.0780
" />
<path d="M178.7500 96.0780
L178.7500 97.9780
" />
<path d="M178.7500 97.9780
L176.8500 97.9780
" />
<path d="M127.5080 116.2960
L125.7080 116.2960
" />
<path d="M127.5080 116.2960
L128.3080 116.2960
" />
<path d="M127.5080 119.4160
L126.7080 119.4160
" />
<path d="M127.5080 119.4160
L128.3080 119.4160
" />
<path d="M164.7135 116.3620
L162.9135 116.3620
" />
<path d="M164.7135 116.3620
L165.5135 116.3620
" />
<path d="M164.7135 119.4820
L163.9135 119.4820
" />
<path d="M164.7135 119.4820
L165.5135 119.4820
" />
<path d="M176.8500 100.6500
L178.7500 100.6500
" />
<path d="M176.8500 102.5500
L176.8500 100.6500
" />
<path d="M178.7500 100.6500
L178.7500 102.5500
" />
<path d="M178.7500 102.5500
L176.8500 102.5500
" />
<path d="M157.0500 75.3904
L158.9500 75.3904
" />
<path d="M157.0500 77.2904
L157.0500 75.3904
" />
<path d="M158.9500 75.3904
L158.9500 77.2904
" />
<path d="M158.9500 77.2904
L157.0500 77.2904
" />
<path d="M133.0500 116.9060
L134.9500 116.9060
" />
<path d="M133.0500 118.8060
L133.0500 116.9060
" />
<path d="M134.9500 116.9060
L134.9500 118.8060
" />
<path d="M134.9500 118.8060
L133.0500 118.8060
" />
<path d="M157.0500 79.9904
L158.9500 79.9904
" />
<path d="M157.0500 81.8904
L157.0500 79.9904
" />
<path d="M158.9500 79.9904
L158.9500 81.8904
" />
<path d="M158.9500 81.8904
L157.0500 81.8904
" />
<path d="M128.4500 86.4904
L130.3500 86.4904
" />
<path d="M128.4500 88.3904
L128.4500 86.4904
" />
<path d="M130.3500 86.4904
L130.3500 88.3904
" />
<path d="M130.3500 88.3904
L128.4500 88.3904
" />
<path d="M146.2011 97.6900
L144.4011 97.6900
" />
<path d="M146.2011 97.6900
L147.0011 97.6900
" />
<path d="M146.2011 100.8100
L145.4011 100.8100
" />
<path d="M146.2011 100.8100
L147.0011 100.8100
" />
<g >
</g>
<g >
</g>
<g >
</g>
<g >
</g>
<g >
</g>
<g >
</g>
<g >
</g>
<g >
</g>
<g >
</g>
<g >
</g>
<g >
</g>
<g >
</g>
<g >
</g>
<g >
</g>
<g >
</g>
<g >
</g>
<g >
</g>
<g >
</g>
<g >
</g>
<g >
</g>
<g >
</g>
<g >
</g>
<g >
</g>
<g >
</g>
<g >
</g>
<g >
</g>
<g >
</g>
<g >
</g>
<g >
</g>
<g >
</g>
<g >
</g>
<g >
</g>
<g >
</g>
<g >
</g>
<g >
</g>
<g >
</g>
<g >
</g>
<g >
</g>
<g >
</g>
<g >
</g>
<g >
</g>
<g >
</g>
<g >
</g>
<g >
</g>
<g >
</g>
<g >
</g>
<g >
</g>
<g >
</g>
<g >
</g>
<g >
</g>
<g >
</g>
<g >
</g>
<g >
</g>
<g >
</g>
<g >
</g>
<g >
</g>
<g >
</g>
<g >
</g>
<g >
</g>
<g >
</g>
<g >
</g>
<g >
</g>
<g >
</g>
</g> 
</svg>
