<?xml version="1.0" standalone="no"?>
 <!DOCTYPE svg PUBLIC "-//W3C//DTD SVG 1.1//EN" 
 "http://www.w3.org/Graphics/SVG/1.1/DTD/svg11.dtd"> 
<svg
  xmlns:svg="http://www.w3.org/2000/svg"
  xmlns="http://www.w3.org/2000/svg"
  xmlns:xlink="http://www.w3.org/1999/xlink"
  version="1.1"
  width="297.0022mm" height="210.0072mm" viewBox="0.0000 0.0000 297.0022 210.0072">
<title>SVG Image created as maglev26-F_Mask.svg date 2024/10/17 17:31:25 </title>
  <desc>Image generated by PCBNEW </desc>
<g style="fill:#000000; fill-opacity:1.0000;stroke:#000000; stroke-opacity:1.0000;
stroke-linecap:round; stroke-linejoin:round;"
 transform="translate(0 0) scale(1 1)">
</g>
<g style="fill:#000000; fill-opacity:0.0; 
stroke:#000000; stroke-width:0.0000; stroke-opacity:1; 
stroke-linecap:round; stroke-linejoin:round;">
<g >
</g>
<g style="fill:#000000; fill-opacity:0.0; 
stroke:#000000; stroke-width:0.0000; stroke-opacity:1; 
stroke-linecap:round; stroke-linejoin:round;">
</g>
<g style="fill:#000000; fill-opacity:1.0000; 
stroke:#000000; stroke-width:0.0000; stroke-opacity:1; 
stroke-linecap:round; stroke-linejoin:round;">
<path style="fill:#000000; fill-opacity:1.0000; 
stroke:#000000; stroke-width:0.0000; stroke-opacity:1; 
stroke-linecap:round; stroke-linejoin:round;fill-rule:evenodd;"
d="M 133.3620,123.6860
133.3620,122.1860
134.8620,122.1860
134.8620,123.6860
Z" /> 
</g>
<g >
</g>
<g style="fill:#000000; fill-opacity:1.0000; 
stroke:#000000; stroke-width:0.0000; stroke-opacity:1; 
stroke-linecap:round; stroke-linejoin:round;">
<path style="fill:#000000; fill-opacity:1.0000; 
stroke:#000000; stroke-width:0.0000; stroke-opacity:1; 
stroke-linecap:round; stroke-linejoin:round;fill-rule:evenodd;"
d="M 123.2500,88.1904
123.2500,86.6904
124.7500,86.6904
124.7500,88.1904
Z" /> 
</g>
<g >
</g>
<g style="fill:#000000; fill-opacity:1.0000; 
stroke:#000000; stroke-width:0.0000; stroke-opacity:1; 
stroke-linecap:round; stroke-linejoin:round;">
<path style="fill:#000000; fill-opacity:1.0000; 
stroke:#000000; stroke-width:0.0000; stroke-opacity:1; 
stroke-linecap:round; stroke-linejoin:round;fill-rule:evenodd;"
d="M 177.0500,97.7780
177.0500,96.2780
178.5500,96.2780
178.5500,97.7780
Z" /> 
</g>
<g >
</g>
<g style="fill:#000000; fill-opacity:1.0000; 
stroke:#000000; stroke-width:0.0000; stroke-opacity:1; 
stroke-linecap:round; stroke-linejoin:round;">
<path style="fill:#000000; fill-opacity:1.0000; 
stroke:#000000; stroke-width:0.0000; stroke-opacity:1; 
stroke-linecap:round; stroke-linejoin:round;fill-rule:evenodd;"
d="M 125.7080,116.7560
125.7194,116.6986
125.7519,116.6499
125.8006,116.6174
125.8580,116.6060
126.8830,116.6060
126.9404,116.6174
126.9891,116.6499
127.0216,116.6986
127.0330,116.7560
127.0330,117.0560
127.0216,117.1134
126.9891,117.1621
126.9404,117.1946
126.8830,117.2060
125.8580,117.2060
125.8006,117.1946
125.7519,117.1621
125.7194,117.1134
125.7080,117.0560
Z" /> 
<path style="fill:#000000; fill-opacity:1.0000; 
stroke:#000000; stroke-width:0.0000; stroke-opacity:1; 
stroke-linecap:round; stroke-linejoin:round;fill-rule:evenodd;"
d="M 125.7080,117.7060
125.7194,117.6486
125.7519,117.5999
125.8006,117.5674
125.8580,117.5560
126.8830,117.5560
126.9404,117.5674
126.9891,117.5999
127.0216,117.6486
127.0330,117.7060
127.0330,118.0060
127.0216,118.0634
126.9891,118.1121
126.9404,118.1446
126.8830,118.1560
125.8580,118.1560
125.8006,118.1446
125.7519,118.1121
125.7194,118.0634
125.7080,118.0060
Z" /> 
<path style="fill:#000000; fill-opacity:1.0000; 
stroke:#000000; stroke-width:0.0000; stroke-opacity:1; 
stroke-linecap:round; stroke-linejoin:round;fill-rule:evenodd;"
d="M 125.7080,118.6560
125.7194,118.5986
125.7519,118.5499
125.8006,118.5174
125.8580,118.5060
126.8830,118.5060
126.9404,118.5174
126.9891,118.5499
127.0216,118.5986
127.0330,118.6560
127.0330,118.9560
127.0216,119.0134
126.9891,119.0621
126.9404,119.0946
126.8830,119.1060
125.8580,119.1060
125.8006,119.0946
125.7519,119.0621
125.7194,119.0134
125.7080,118.9560
Z" /> 
<path style="fill:#000000; fill-opacity:1.0000; 
stroke:#000000; stroke-width:0.0000; stroke-opacity:1; 
stroke-linecap:round; stroke-linejoin:round;fill-rule:evenodd;"
d="M 127.9830,118.6560
127.9944,118.5986
128.0269,118.5499
128.0756,118.5174
128.1330,118.5060
129.1580,118.5060
129.2154,118.5174
129.2641,118.5499
129.2966,118.5986
129.3080,118.6560
129.3080,118.9560
129.2966,119.0134
129.2641,119.0621
129.2154,119.0946
129.1580,119.1060
128.1330,119.1060
128.0756,119.0946
128.0269,119.0621
127.9944,119.0134
127.9830,118.9560
Z" /> 
<path style="fill:#000000; fill-opacity:1.0000; 
stroke:#000000; stroke-width:0.0000; stroke-opacity:1; 
stroke-linecap:round; stroke-linejoin:round;fill-rule:evenodd;"
d="M 127.9830,117.7060
127.9944,117.6486
128.0269,117.5999
128.0756,117.5674
128.1330,117.5560
129.1580,117.5560
129.2154,117.5674
129.2641,117.5999
129.2966,117.6486
129.3080,117.7060
129.3080,118.0060
129.2966,118.0634
129.2641,118.1121
129.2154,118.1446
129.1580,118.1560
128.1330,118.1560
128.0756,118.1446
128.0269,118.1121
127.9944,118.0634
127.9830,118.0060
Z" /> 
<path style="fill:#000000; fill-opacity:1.0000; 
stroke:#000000; stroke-width:0.0000; stroke-opacity:1; 
stroke-linecap:round; stroke-linejoin:round;fill-rule:evenodd;"
d="M 127.9830,116.7560
127.9944,116.6986
128.0269,116.6499
128.0756,116.6174
128.1330,116.6060
129.1580,116.6060
129.2154,116.6174
129.2641,116.6499
129.2966,116.6986
129.3080,116.7560
129.3080,117.0560
129.2966,117.1134
129.2641,117.1621
129.2154,117.1946
129.1580,117.2060
128.1330,117.2060
128.0756,117.1946
128.0269,117.1621
127.9944,117.1134
127.9830,117.0560
Z" /> 
</g>
<g >
</g>
<g style="fill:#000000; fill-opacity:1.0000; 
stroke:#000000; stroke-width:0.0000; stroke-opacity:1; 
stroke-linecap:round; stroke-linejoin:round;">
<path style="fill:#000000; fill-opacity:1.0000; 
stroke:#000000; stroke-width:0.0000; stroke-opacity:1; 
stroke-linecap:round; stroke-linejoin:round;fill-rule:evenodd;"
d="M 162.9135,116.8220
162.9249,116.7646
162.9574,116.7159
163.0061,116.6834
163.0635,116.6720
164.0885,116.6720
164.1459,116.6834
164.1946,116.7159
164.2271,116.7646
164.2385,116.8220
164.2385,117.1220
164.2271,117.1794
164.1946,117.2281
164.1459,117.2606
164.0885,117.2720
163.0635,117.2720
163.0061,117.2606
162.9574,117.2281
162.9249,117.1794
162.9135,117.1220
Z" /> 
<path style="fill:#000000; fill-opacity:1.0000; 
stroke:#000000; stroke-width:0.0000; stroke-opacity:1; 
stroke-linecap:round; stroke-linejoin:round;fill-rule:evenodd;"
d="M 162.9135,117.7720
162.9249,117.7146
162.9574,117.6659
163.0061,117.6334
163.0635,117.6220
164.0885,117.6220
164.1459,117.6334
164.1946,117.6659
164.2271,117.7146
164.2385,117.7720
164.2385,118.0720
164.2271,118.1294
164.1946,118.1781
164.1459,118.2106
164.0885,118.2220
163.0635,118.2220
163.0061,118.2106
162.9574,118.1781
162.9249,118.1294
162.9135,118.0720
Z" /> 
<path style="fill:#000000; fill-opacity:1.0000; 
stroke:#000000; stroke-width:0.0000; stroke-opacity:1; 
stroke-linecap:round; stroke-linejoin:round;fill-rule:evenodd;"
d="M 162.9135,118.7220
162.9249,118.6646
162.9574,118.6159
163.0061,118.5834
163.0635,118.5720
164.0885,118.5720
164.1459,118.5834
164.1946,118.6159
164.2271,118.6646
164.2385,118.7220
164.2385,119.0220
164.2271,119.0794
164.1946,119.1281
164.1459,119.1606
164.0885,119.1720
163.0635,119.1720
163.0061,119.1606
162.9574,119.1281
162.9249,119.0794
162.9135,119.0220
Z" /> 
<path style="fill:#000000; fill-opacity:1.0000; 
stroke:#000000; stroke-width:0.0000; stroke-opacity:1; 
stroke-linecap:round; stroke-linejoin:round;fill-rule:evenodd;"
d="M 165.1885,118.7220
165.1999,118.6646
165.2324,118.6159
165.2811,118.5834
165.3385,118.5720
166.3635,118.5720
166.4209,118.5834
166.4696,118.6159
166.5021,118.6646
166.5135,118.7220
166.5135,119.0220
166.5021,119.0794
166.4696,119.1281
166.4209,119.1606
166.3635,119.1720
165.3385,119.1720
165.2811,119.1606
165.2324,119.1281
165.1999,119.0794
165.1885,119.0220
Z" /> 
<path style="fill:#000000; fill-opacity:1.0000; 
stroke:#000000; stroke-width:0.0000; stroke-opacity:1; 
stroke-linecap:round; stroke-linejoin:round;fill-rule:evenodd;"
d="M 165.1885,117.7720
165.1999,117.7146
165.2324,117.6659
165.2811,117.6334
165.3385,117.6220
166.3635,117.6220
166.4209,117.6334
166.4696,117.6659
166.5021,117.7146
166.5135,117.7720
166.5135,118.0720
166.5021,118.1294
166.4696,118.1781
166.4209,118.2106
166.3635,118.2220
165.3385,118.2220
165.2811,118.2106
165.2324,118.1781
165.1999,118.1294
165.1885,118.0720
Z" /> 
<path style="fill:#000000; fill-opacity:1.0000; 
stroke:#000000; stroke-width:0.0000; stroke-opacity:1; 
stroke-linecap:round; stroke-linejoin:round;fill-rule:evenodd;"
d="M 165.1885,116.8220
165.1999,116.7646
165.2324,116.7159
165.2811,116.6834
165.3385,116.6720
166.3635,116.6720
166.4209,116.6834
166.4696,116.7159
166.5021,116.7646
166.5135,116.8220
166.5135,117.1220
166.5021,117.1794
166.4696,117.2281
166.4209,117.2606
166.3635,117.2720
165.3385,117.2720
165.2811,117.2606
165.2324,117.2281
165.1999,117.1794
165.1885,117.1220
Z" /> 
</g>
<g >
</g>
<g style="fill:#000000; fill-opacity:1.0000; 
stroke:#000000; stroke-width:0.0000; stroke-opacity:1; 
stroke-linecap:round; stroke-linejoin:round;">
<path style="fill:#000000; fill-opacity:1.0000; 
stroke:#000000; stroke-width:0.0000; stroke-opacity:1; 
stroke-linecap:round; stroke-linejoin:round;fill-rule:evenodd;"
d="M 177.0500,102.3500
177.0500,100.8500
178.5500,100.8500
178.5500,102.3500
Z" /> 
</g>
<g >
</g>
<g style="fill:#000000; fill-opacity:1.0000; 
stroke:#000000; stroke-width:0.0000; stroke-opacity:1; 
stroke-linecap:round; stroke-linejoin:round;">
<path style="fill:#000000; fill-opacity:1.0000; 
stroke:#000000; stroke-width:0.0000; stroke-opacity:1; 
stroke-linecap:round; stroke-linejoin:round;fill-rule:evenodd;"
d="M 157.2500,77.0904
157.2500,75.5904
158.7500,75.5904
158.7500,77.0904
Z" /> 
</g>
<g >
</g>
<g style="fill:#000000; fill-opacity:1.0000; 
stroke:#000000; stroke-width:0.0000; stroke-opacity:1; 
stroke-linecap:round; stroke-linejoin:round;">
<path style="fill:#000000; fill-opacity:1.0000; 
stroke:#000000; stroke-width:0.0000; stroke-opacity:1; 
stroke-linecap:round; stroke-linejoin:round;fill-rule:evenodd;"
d="M 133.2500,118.6060
133.2500,117.1060
134.7500,117.1060
134.7500,118.6060
Z" /> 
</g>
<g >
</g>
<g style="fill:#000000; fill-opacity:1.0000; 
stroke:#000000; stroke-width:0.0000; stroke-opacity:1; 
stroke-linecap:round; stroke-linejoin:round;">
<path style="fill:#000000; fill-opacity:1.0000; 
stroke:#000000; stroke-width:0.0000; stroke-opacity:1; 
stroke-linecap:round; stroke-linejoin:round;fill-rule:evenodd;"
d="M 157.2500,81.6904
157.2500,80.1904
158.7500,80.1904
158.7500,81.6904
Z" /> 
</g>
<g >
</g>
<g style="fill:#000000; fill-opacity:1.0000; 
stroke:#000000; stroke-width:0.0000; stroke-opacity:1; 
stroke-linecap:round; stroke-linejoin:round;">
<path style="fill:#000000; fill-opacity:1.0000; 
stroke:#000000; stroke-width:0.0000; stroke-opacity:1; 
stroke-linecap:round; stroke-linejoin:round;fill-rule:evenodd;"
d="M 128.6500,88.1904
128.6500,86.6904
130.1500,86.6904
130.1500,88.1904
Z" /> 
</g>
<g >
</g>
<g style="fill:#000000; fill-opacity:1.0000; 
stroke:#000000; stroke-width:0.0000; stroke-opacity:1; 
stroke-linecap:round; stroke-linejoin:round;">
<path style="fill:#000000; fill-opacity:1.0000; 
stroke:#000000; stroke-width:0.0000; stroke-opacity:1; 
stroke-linecap:round; stroke-linejoin:round;fill-rule:evenodd;"
d="M 144.4011,98.1500
144.4126,98.0926
144.4451,98.0439
144.4937,98.0114
144.5511,98.0000
145.5761,98.0000
145.6335,98.0114
145.6822,98.0439
145.7147,98.0926
145.7261,98.1500
145.7261,98.4500
145.7147,98.5074
145.6822,98.5561
145.6335,98.5886
145.5761,98.6000
144.5511,98.6000
144.4937,98.5886
144.4451,98.5561
144.4126,98.5074
144.4011,98.4500
Z" /> 
<path style="fill:#000000; fill-opacity:1.0000; 
stroke:#000000; stroke-width:0.0000; stroke-opacity:1; 
stroke-linecap:round; stroke-linejoin:round;fill-rule:evenodd;"
d="M 144.4011,99.1000
144.4126,99.0426
144.4451,98.9939
144.4937,98.9614
144.5511,98.9500
145.5761,98.9500
145.6335,98.9614
145.6822,98.9939
145.7147,99.0426
145.7261,99.1000
145.7261,99.4000
145.7147,99.4574
145.6822,99.5061
145.6335,99.5386
145.5761,99.5500
144.5511,99.5500
144.4937,99.5386
144.4451,99.5061
144.4126,99.4574
144.4011,99.4000
Z" /> 
<path style="fill:#000000; fill-opacity:1.0000; 
stroke:#000000; stroke-width:0.0000; stroke-opacity:1; 
stroke-linecap:round; stroke-linejoin:round;fill-rule:evenodd;"
d="M 144.4011,100.0500
144.4126,99.9926
144.4451,99.9439
144.4937,99.9114
144.5511,99.9000
145.5761,99.9000
145.6335,99.9114
145.6822,99.9439
145.7147,99.9926
145.7261,100.0500
145.7261,100.3500
145.7147,100.4074
145.6822,100.4561
145.6335,100.4886
145.5761,100.5000
144.5511,100.5000
144.4937,100.4886
144.4451,100.4561
144.4126,100.4074
144.4011,100.3500
Z" /> 
<path style="fill:#000000; fill-opacity:1.0000; 
stroke:#000000; stroke-width:0.0000; stroke-opacity:1; 
stroke-linecap:round; stroke-linejoin:round;fill-rule:evenodd;"
d="M 146.6761,100.0500
146.6876,99.9926
146.7201,99.9439
146.7687,99.9114
146.8261,99.9000
147.8511,99.9000
147.9085,99.9114
147.9572,99.9439
147.9897,99.9926
148.0011,100.0500
148.0011,100.3500
147.9897,100.4074
147.9572,100.4561
147.9085,100.4886
147.8511,100.5000
146.8261,100.5000
146.7687,100.4886
146.7201,100.4561
146.6876,100.4074
146.6761,100.3500
Z" /> 
<path style="fill:#000000; fill-opacity:1.0000; 
stroke:#000000; stroke-width:0.0000; stroke-opacity:1; 
stroke-linecap:round; stroke-linejoin:round;fill-rule:evenodd;"
d="M 146.6761,99.1000
146.6876,99.0426
146.7201,98.9939
146.7687,98.9614
146.8261,98.9500
147.8511,98.9500
147.9085,98.9614
147.9572,98.9939
147.9897,99.0426
148.0011,99.1000
148.0011,99.4000
147.9897,99.4574
147.9572,99.5061
147.9085,99.5386
147.8511,99.5500
146.8261,99.5500
146.7687,99.5386
146.7201,99.5061
146.6876,99.4574
146.6761,99.4000
Z" /> 
<path style="fill:#000000; fill-opacity:1.0000; 
stroke:#000000; stroke-width:0.0000; stroke-opacity:1; 
stroke-linecap:round; stroke-linejoin:round;fill-rule:evenodd;"
d="M 146.6761,98.1500
146.6876,98.0926
146.7201,98.0439
146.7687,98.0114
146.8261,98.0000
147.8511,98.0000
147.9085,98.0114
147.9572,98.0439
147.9897,98.0926
148.0011,98.1500
148.0011,98.4500
147.9897,98.5074
147.9572,98.5561
147.9085,98.5886
147.8511,98.6000
146.8261,98.6000
146.7687,98.5886
146.7201,98.5561
146.6876,98.5074
146.6761,98.4500
Z" /> 
</g>
<g >
</g>
<g >
</g>
<g >
</g>
<g >
</g>
<g >
</g>
<g style="fill:#000000; fill-opacity:1.0000; 
stroke:#000000; stroke-width:0.0000; stroke-opacity:1; 
stroke-linecap:round; stroke-linejoin:round;">
<circle cx="129.0770" cy="140.8529" r="1.6000" /> 
</g>
<g style="fill:#000000; fill-opacity:1.0000; 
stroke:#000000; stroke-width:0.0212; stroke-opacity:1; 
stroke-linecap:round; stroke-linejoin:round;">
</g>
<g >
</g>
<g >
</g>
<g >
</g>
<g style="fill:#000000; fill-opacity:1.0000; 
stroke:#000000; stroke-width:0.0212; stroke-opacity:1; 
stroke-linecap:round; stroke-linejoin:round;">
</g>
<g style="fill:#000000; fill-opacity:1.0000; 
stroke:#000000; stroke-width:0.0000; stroke-opacity:1; 
stroke-linecap:round; stroke-linejoin:round;">
<circle cx="126.2500" cy="99.2500" r="1.6000" /> 
</g>
<g style="fill:#000000; fill-opacity:1.0000; 
stroke:#000000; stroke-width:0.0212; stroke-opacity:1; 
stroke-linecap:round; stroke-linejoin:round;">
</g>
<g >
</g>
<g >
</g>
<g >
</g>
<g >
</g>
<g style="fill:#000000; fill-opacity:1.0000; 
stroke:#000000; stroke-width:0.0212; stroke-opacity:1; 
stroke-linecap:round; stroke-linejoin:round;">
</g>
<g style="fill:#000000; fill-opacity:1.0000; 
stroke:#000000; stroke-width:0.0000; stroke-opacity:1; 
stroke-linecap:round; stroke-linejoin:round;">
<circle cx="100.7500" cy="99.2500" r="1.6000" /> 
</g>
<g style="fill:#000000; fill-opacity:1.0000; 
stroke:#000000; stroke-width:0.0212; stroke-opacity:1; 
stroke-linecap:round; stroke-linejoin:round;">
</g>
<g >
</g>
<g >
</g>
<g >
</g>
<g style="fill:#000000; fill-opacity:1.0000; 
stroke:#000000; stroke-width:0.0212; stroke-opacity:1; 
stroke-linecap:round; stroke-linejoin:round;">
</g>
<g style="fill:#000000; fill-opacity:1.0000; 
stroke:#000000; stroke-width:0.0000; stroke-opacity:1; 
stroke-linecap:round; stroke-linejoin:round;">
<circle cx="118.0000" cy="71.0000" r="1.6000" /> 
</g>
<g style="fill:#000000; fill-opacity:1.0000; 
stroke:#000000; stroke-width:0.0212; stroke-opacity:1; 
stroke-linecap:round; stroke-linejoin:round;">
</g>
<g >
</g>
<g >
</g>
<g >
</g>
<g style="fill:#000000; fill-opacity:1.0000; 
stroke:#000000; stroke-width:0.0212; stroke-opacity:1; 
stroke-linecap:round; stroke-linejoin:round;">
</g>
<g style="fill:#000000; fill-opacity:1.0000; 
stroke:#000000; stroke-width:0.0000; stroke-opacity:1; 
stroke-linecap:round; stroke-linejoin:round;">
<circle cx="146.2090" cy="79.2458" r="1.6000" /> 
</g>
<g style="fill:#000000; fill-opacity:1.0000; 
stroke:#000000; stroke-width:0.0212; stroke-opacity:1; 
stroke-linecap:round; stroke-linejoin:round;">
</g>
<g >
</g>
<g >
</g>
<g style="fill:#000000; fill-opacity:1.0000; 
stroke:#000000; stroke-width:0.0212; stroke-opacity:1; 
stroke-linecap:round; stroke-linejoin:round;">
</g>
<g style="fill:#000000; fill-opacity:1.0000; 
stroke:#000000; stroke-width:0.0000; stroke-opacity:1; 
stroke-linecap:round; stroke-linejoin:round;">
<circle cx="191.2500" cy="99.2500" r="1.6000" /> 
</g>
<g style="fill:#000000; fill-opacity:1.0000; 
stroke:#000000; stroke-width:0.0212; stroke-opacity:1; 
stroke-linecap:round; stroke-linejoin:round;">
</g>
<g >
</g>
<g >
</g>
<g >
</g>
<g >
</g>
<g >
</g>
<g style="fill:#000000; fill-opacity:1.0000; 
stroke:#000000; stroke-width:0.0212; stroke-opacity:1; 
stroke-linecap:round; stroke-linejoin:round;">
</g>
<g style="fill:#000000; fill-opacity:1.0000; 
stroke:#000000; stroke-width:0.0000; stroke-opacity:1; 
stroke-linecap:round; stroke-linejoin:round;">
<circle cx="174.5000" cy="127.5000" r="1.6000" /> 
</g>
<g style="fill:#000000; fill-opacity:1.0000; 
stroke:#000000; stroke-width:0.0212; stroke-opacity:1; 
stroke-linecap:round; stroke-linejoin:round;">
</g>
<g >
</g>
<g >
</g>
<g >
</g>
<g >
</g>
<g style="fill:#000000; fill-opacity:1.0000; 
stroke:#000000; stroke-width:0.0212; stroke-opacity:1; 
stroke-linecap:round; stroke-linejoin:round;">
</g>
<g style="fill:#000000; fill-opacity:1.0000; 
stroke:#000000; stroke-width:0.0000; stroke-opacity:1; 
stroke-linecap:round; stroke-linejoin:round;">
<circle cx="166.2500" cy="99.2500" r="1.6000" /> 
</g>
<g style="fill:#000000; fill-opacity:1.0000; 
stroke:#000000; stroke-width:0.0212; stroke-opacity:1; 
stroke-linecap:round; stroke-linejoin:round;">
</g>
<g >
</g>
<g style="fill:#000000; fill-opacity:1.0000; 
stroke:#000000; stroke-width:0.0212; stroke-opacity:1; 
stroke-linecap:round; stroke-linejoin:round;">
</g>
<g style="fill:#000000; fill-opacity:1.0000; 
stroke:#000000; stroke-width:0.0000; stroke-opacity:1; 
stroke-linecap:round; stroke-linejoin:round;">
<circle cx="145.8000" cy="52.2000" r="1.0000" /> 
</g>
<g style="fill:#000000; fill-opacity:1.0000; 
stroke:#000000; stroke-width:0.0212; stroke-opacity:1; 
stroke-linecap:round; stroke-linejoin:round;">
</g>
<g >
</g>
<g >
</g>
<g style="fill:#000000; fill-opacity:1.0000; 
stroke:#000000; stroke-width:0.0212; stroke-opacity:1; 
stroke-linecap:round; stroke-linejoin:round;">
</g>
<g style="fill:#000000; fill-opacity:1.0000; 
stroke:#000000; stroke-width:0.0000; stroke-opacity:1; 
stroke-linecap:round; stroke-linejoin:round;">
<circle cx="129.0000" cy="57.5000" r="1.6000" /> 
</g>
<g style="fill:#000000; fill-opacity:1.0000; 
stroke:#000000; stroke-width:0.0212; stroke-opacity:1; 
stroke-linecap:round; stroke-linejoin:round;">
</g>
<g >
</g>
<g >
</g>
<g style="fill:#000000; fill-opacity:1.0000; 
stroke:#000000; stroke-width:0.0212; stroke-opacity:1; 
stroke-linecap:round; stroke-linejoin:round;">
</g>
<g style="fill:#000000; fill-opacity:1.0000; 
stroke:#000000; stroke-width:0.0000; stroke-opacity:1; 
stroke-linecap:round; stroke-linejoin:round;">
<circle cx="163.4120" cy="140.6782" r="1.6000" /> 
</g>
<g style="fill:#000000; fill-opacity:1.0000; 
stroke:#000000; stroke-width:0.0212; stroke-opacity:1; 
stroke-linecap:round; stroke-linejoin:round;">
</g>
<g >
</g>
<g style="fill:#000000; fill-opacity:1.0000; 
stroke:#000000; stroke-width:0.0212; stroke-opacity:1; 
stroke-linecap:round; stroke-linejoin:round;">
</g>
<g style="fill:#000000; fill-opacity:1.0000; 
stroke:#000000; stroke-width:0.0000; stroke-opacity:1; 
stroke-linecap:round; stroke-linejoin:round;">
<circle cx="146.1985" cy="119.2619" r="1.6000" /> 
</g>
<g style="fill:#000000; fill-opacity:1.0000; 
stroke:#000000; stroke-width:0.0212; stroke-opacity:1; 
stroke-linecap:round; stroke-linejoin:round;">
</g>
<g >
</g>
<g >
</g>
<g >
</g>
<g >
</g>
<g >
</g>
<g >
</g>
<g style="fill:#000000; fill-opacity:1.0000; 
stroke:#000000; stroke-width:0.0212; stroke-opacity:1; 
stroke-linecap:round; stroke-linejoin:round;">
</g>
<g style="fill:#000000; fill-opacity:1.0000; 
stroke:#000000; stroke-width:0.0000; stroke-opacity:1; 
stroke-linecap:round; stroke-linejoin:round;">
<circle cx="174.5000" cy="71.0000" r="1.6000" /> 
</g>
<g style="fill:#000000; fill-opacity:1.0000; 
stroke:#000000; stroke-width:0.0212; stroke-opacity:1; 
stroke-linecap:round; stroke-linejoin:round;">
</g>
<g >
</g>
<g >
</g>
<g style="fill:#000000; fill-opacity:1.0000; 
stroke:#000000; stroke-width:0.0212; stroke-opacity:1; 
stroke-linecap:round; stroke-linejoin:round;">
</g>
<g style="fill:#000000; fill-opacity:1.0000; 
stroke:#000000; stroke-width:0.0000; stroke-opacity:1; 
stroke-linecap:round; stroke-linejoin:round;">
<circle cx="163.5000" cy="57.5000" r="1.6000" /> 
</g>
<g style="fill:#000000; fill-opacity:1.0000; 
stroke:#000000; stroke-width:0.0212; stroke-opacity:1; 
stroke-linecap:round; stroke-linejoin:round;">
</g>
<g >
</g>
<g >
</g>
<g >
</g>
<g >
</g>
<g >
</g>
<g style="fill:#000000; fill-opacity:1.0000; 
stroke:#000000; stroke-width:0.0212; stroke-opacity:1; 
stroke-linecap:round; stroke-linejoin:round;">
</g>
<g style="fill:#000000; fill-opacity:1.0000; 
stroke:#000000; stroke-width:0.0000; stroke-opacity:1; 
stroke-linecap:round; stroke-linejoin:round;">
<circle cx="118.0000" cy="127.5000" r="1.6000" /> 
</g>
<g style="fill:#000000; fill-opacity:1.0000; 
stroke:#000000; stroke-width:0.0212; stroke-opacity:1; 
stroke-linecap:round; stroke-linejoin:round;">
</g>
<g >
</g>
<g >
</g>
<g >
</g>
<g >
</g>
<g style="fill:#000000; fill-opacity:1.0000; 
stroke:#000000; stroke-width:0.0212; stroke-opacity:1; 
stroke-linecap:round; stroke-linejoin:round;">
<g >
</g>
<g style="fill:#000000; fill-opacity:1.0000; 
stroke:#000000; stroke-width:0.0000; stroke-opacity:1; 
stroke-linecap:round; stroke-linejoin:round;">
<path style="fill:#000000; fill-opacity:1.0000; 
stroke:#000000; stroke-width:0.0000; stroke-opacity:1; 
stroke-linecap:round; stroke-linejoin:round;fill-rule:evenodd;"
d="M 193.4674,74.3478
193.5503,74.3773
193.5994,74.4096
193.6695,74.4848
193.6875,74.5098
193.8115,74.7363
193.9381,74.9789
194.2774,75.6448
194.7319,76.5589
195.1684,77.4818
195.5867,78.4131
195.9866,79.3524
196.3680,80.2994
196.7307,81.2536
196.8329,81.5305
197.0774,82.2139
197.3052,82.8922
197.3101,82.9122
197.3412,83.1076
197.3413,83.1462
197.3122,83.3326
197.3004,83.3694
197.2153,83.5378
197.1928,83.5692
197.0601,83.7033
197.0290,83.7262
196.8527,83.8175
196.8349,83.8250
193.3834,84.9755
193.3794,84.9767
192.7634,85.1367
192.7552,85.1383
192.1254,85.2135
192.1170,85.2139
191.4828,85.2036
191.4744,85.2029
190.8474,85.1071
190.8392,85.1052
190.2309,84.9258
190.2230,84.9229
189.6444,84.6630
189.6370,84.6591
189.0987,84.3236
189.0919,84.3187
188.6037,83.9137
188.5977,83.9079
188.1686,83.4408
188.1633,83.4343
187.8011,82.9136
187.7968,82.9064
187.5072,82.3397
187.5054,82.3359
187.1419,81.4878
187.1404,81.4839
186.9548,80.9563
186.9526,80.9483
186.8391,80.4028
186.8380,80.3946
186.7981,79.8387
186.7980,79.8305
186.8323,79.2743
186.8334,79.2661
186.9412,78.7194
186.9434,78.7114
187.1229,78.1839
187.1261,78.1762
187.3742,77.6772
187.3783,77.6701
187.6905,77.2085
187.6956,77.2020
188.0663,76.7859
188.0722,76.7801
188.4949,76.4170
188.5015,76.4121
188.9688,76.1084
188.9760,76.1043
189.4813,75.8645
189.4851,75.8629
193.2778,74.3634
193.3065,74.3559
193.4089,74.3418
Z" /> 
</g>
</g>
</g> 
</svg>
