%TF.GenerationSoftware,KiCad,Pcbnew,7.0.9-7.0.9~ubuntu23.04.1*%
%TF.CreationDate,2023-11-29T14:17:22+01:00*%
%TF.ProjectId,maglev cv2,6d61676c-6576-4206-9376-322e6b696361,rev?*%
%TF.SameCoordinates,Original*%
%TF.FileFunction,Legend,Top*%
%TF.FilePolarity,Positive*%
%FSLAX46Y46*%
G04 Gerber Fmt 4.6, Leading zero omitted, Abs format (unit mm)*
G04 Created by KiCad (PCBNEW 7.0.9-7.0.9~ubuntu23.04.1) date 2023-11-29 14:17:22*
%MOMM*%
%LPD*%
G01*
G04 APERTURE LIST*
G04 Aperture macros list*
%AMRoundRect*
0 Rectangle with rounded corners*
0 $1 Rounding radius*
0 $2 $3 $4 $5 $6 $7 $8 $9 X,Y pos of 4 corners*
0 Add a 4 corners polygon primitive as box body*
4,1,4,$2,$3,$4,$5,$6,$7,$8,$9,$2,$3,0*
0 Add four circle primitives for the rounded corners*
1,1,$1+$1,$2,$3*
1,1,$1+$1,$4,$5*
1,1,$1+$1,$6,$7*
1,1,$1+$1,$8,$9*
0 Add four rect primitives between the rounded corners*
20,1,$1+$1,$2,$3,$4,$5,0*
20,1,$1+$1,$4,$5,$6,$7,0*
20,1,$1+$1,$6,$7,$8,$9,0*
20,1,$1+$1,$8,$9,$2,$3,0*%
G04 Aperture macros list end*
%ADD10C,0.250000*%
%ADD11C,0.500000*%
%ADD12C,0.150000*%
%ADD13C,0.120000*%
%ADD14R,1.500000X1.500000*%
%ADD15RoundRect,0.250000X-0.450000X0.262500X-0.450000X-0.262500X0.450000X-0.262500X0.450000X0.262500X0*%
%ADD16RoundRect,0.225000X-0.225000X-0.250000X0.225000X-0.250000X0.225000X0.250000X-0.225000X0.250000X0*%
%ADD17RoundRect,0.150000X-0.512500X-0.150000X0.512500X-0.150000X0.512500X0.150000X-0.512500X0.150000X0*%
%ADD18C,2.500000*%
%ADD19RoundRect,0.250000X0.450000X-0.262500X0.450000X0.262500X-0.450000X0.262500X-0.450000X-0.262500X0*%
%ADD20C,3.200000*%
%ADD21C,2.000000*%
G04 APERTURE END LIST*
D10*
X109483714Y-83676115D02*
X109555142Y-83747543D01*
X109555142Y-83747543D02*
X109626571Y-83890401D01*
X109626571Y-83890401D02*
X109626571Y-84247543D01*
X109626571Y-84247543D02*
X109555142Y-84390401D01*
X109555142Y-84390401D02*
X109483714Y-84461829D01*
X109483714Y-84461829D02*
X109340857Y-84533258D01*
X109340857Y-84533258D02*
X109198000Y-84533258D01*
X109198000Y-84533258D02*
X108983714Y-84461829D01*
X108983714Y-84461829D02*
X108126571Y-83604686D01*
X108126571Y-83604686D02*
X108126571Y-84533258D01*
X109626571Y-85461829D02*
X109626571Y-85604686D01*
X109626571Y-85604686D02*
X109555142Y-85747543D01*
X109555142Y-85747543D02*
X109483714Y-85818972D01*
X109483714Y-85818972D02*
X109340857Y-85890400D01*
X109340857Y-85890400D02*
X109055142Y-85961829D01*
X109055142Y-85961829D02*
X108698000Y-85961829D01*
X108698000Y-85961829D02*
X108412285Y-85890400D01*
X108412285Y-85890400D02*
X108269428Y-85818972D01*
X108269428Y-85818972D02*
X108198000Y-85747543D01*
X108198000Y-85747543D02*
X108126571Y-85604686D01*
X108126571Y-85604686D02*
X108126571Y-85461829D01*
X108126571Y-85461829D02*
X108198000Y-85318972D01*
X108198000Y-85318972D02*
X108269428Y-85247543D01*
X108269428Y-85247543D02*
X108412285Y-85176114D01*
X108412285Y-85176114D02*
X108698000Y-85104686D01*
X108698000Y-85104686D02*
X109055142Y-85104686D01*
X109055142Y-85104686D02*
X109340857Y-85176114D01*
X109340857Y-85176114D02*
X109483714Y-85247543D01*
X109483714Y-85247543D02*
X109555142Y-85318972D01*
X109555142Y-85318972D02*
X109626571Y-85461829D01*
X109483714Y-86533257D02*
X109555142Y-86604685D01*
X109555142Y-86604685D02*
X109626571Y-86747543D01*
X109626571Y-86747543D02*
X109626571Y-87104685D01*
X109626571Y-87104685D02*
X109555142Y-87247543D01*
X109555142Y-87247543D02*
X109483714Y-87318971D01*
X109483714Y-87318971D02*
X109340857Y-87390400D01*
X109340857Y-87390400D02*
X109198000Y-87390400D01*
X109198000Y-87390400D02*
X108983714Y-87318971D01*
X108983714Y-87318971D02*
X108126571Y-86461828D01*
X108126571Y-86461828D02*
X108126571Y-87390400D01*
X109626571Y-87890399D02*
X109626571Y-88818971D01*
X109626571Y-88818971D02*
X109055142Y-88318971D01*
X109055142Y-88318971D02*
X109055142Y-88533256D01*
X109055142Y-88533256D02*
X108983714Y-88676114D01*
X108983714Y-88676114D02*
X108912285Y-88747542D01*
X108912285Y-88747542D02*
X108769428Y-88818971D01*
X108769428Y-88818971D02*
X108412285Y-88818971D01*
X108412285Y-88818971D02*
X108269428Y-88747542D01*
X108269428Y-88747542D02*
X108198000Y-88676114D01*
X108198000Y-88676114D02*
X108126571Y-88533256D01*
X108126571Y-88533256D02*
X108126571Y-88104685D01*
X108126571Y-88104685D02*
X108198000Y-87961828D01*
X108198000Y-87961828D02*
X108269428Y-87890399D01*
X108698000Y-89461827D02*
X108698000Y-90604685D01*
X108126571Y-92104685D02*
X108126571Y-91247542D01*
X108126571Y-91676113D02*
X109626571Y-91676113D01*
X109626571Y-91676113D02*
X109412285Y-91533256D01*
X109412285Y-91533256D02*
X109269428Y-91390399D01*
X109269428Y-91390399D02*
X109198000Y-91247542D01*
X108126571Y-93533256D02*
X108126571Y-92676113D01*
X108126571Y-93104684D02*
X109626571Y-93104684D01*
X109626571Y-93104684D02*
X109412285Y-92961827D01*
X109412285Y-92961827D02*
X109269428Y-92818970D01*
X109269428Y-92818970D02*
X109198000Y-92676113D01*
X108198000Y-94247541D02*
X108126571Y-94247541D01*
X108126571Y-94247541D02*
X107983714Y-94176112D01*
X107983714Y-94176112D02*
X107912285Y-94104684D01*
X108126571Y-96033255D02*
X109626571Y-96033255D01*
X108912285Y-96033255D02*
X108912285Y-96890398D01*
X108126571Y-96890398D02*
X109626571Y-96890398D01*
X108126571Y-98247542D02*
X108912285Y-98247542D01*
X108912285Y-98247542D02*
X109055142Y-98176113D01*
X109055142Y-98176113D02*
X109126571Y-98033256D01*
X109126571Y-98033256D02*
X109126571Y-97747542D01*
X109126571Y-97747542D02*
X109055142Y-97604684D01*
X108198000Y-98247542D02*
X108126571Y-98104684D01*
X108126571Y-98104684D02*
X108126571Y-97747542D01*
X108126571Y-97747542D02*
X108198000Y-97604684D01*
X108198000Y-97604684D02*
X108340857Y-97533256D01*
X108340857Y-97533256D02*
X108483714Y-97533256D01*
X108483714Y-97533256D02*
X108626571Y-97604684D01*
X108626571Y-97604684D02*
X108698000Y-97747542D01*
X108698000Y-97747542D02*
X108698000Y-98104684D01*
X108698000Y-98104684D02*
X108769428Y-98247542D01*
X109126571Y-98961827D02*
X108126571Y-98961827D01*
X108983714Y-98961827D02*
X109055142Y-99033256D01*
X109055142Y-99033256D02*
X109126571Y-99176113D01*
X109126571Y-99176113D02*
X109126571Y-99390399D01*
X109126571Y-99390399D02*
X109055142Y-99533256D01*
X109055142Y-99533256D02*
X108912285Y-99604685D01*
X108912285Y-99604685D02*
X108126571Y-99604685D01*
X108198000Y-100247542D02*
X108126571Y-100390399D01*
X108126571Y-100390399D02*
X108126571Y-100676113D01*
X108126571Y-100676113D02*
X108198000Y-100818970D01*
X108198000Y-100818970D02*
X108340857Y-100890399D01*
X108340857Y-100890399D02*
X108412285Y-100890399D01*
X108412285Y-100890399D02*
X108555142Y-100818970D01*
X108555142Y-100818970D02*
X108626571Y-100676113D01*
X108626571Y-100676113D02*
X108626571Y-100461828D01*
X108626571Y-100461828D02*
X108698000Y-100318970D01*
X108698000Y-100318970D02*
X108840857Y-100247542D01*
X108840857Y-100247542D02*
X108912285Y-100247542D01*
X108912285Y-100247542D02*
X109055142Y-100318970D01*
X109055142Y-100318970D02*
X109126571Y-100461828D01*
X109126571Y-100461828D02*
X109126571Y-100676113D01*
X109126571Y-100676113D02*
X109055142Y-100818970D01*
X108555142Y-102604685D02*
X108555142Y-103318971D01*
X108126571Y-102461828D02*
X109626571Y-102961828D01*
X109626571Y-102961828D02*
X108126571Y-103461828D01*
X108269428Y-103961827D02*
X108198000Y-104033256D01*
X108198000Y-104033256D02*
X108126571Y-103961827D01*
X108126571Y-103961827D02*
X108198000Y-103890399D01*
X108198000Y-103890399D02*
X108269428Y-103961827D01*
X108269428Y-103961827D02*
X108126571Y-103961827D01*
X108912285Y-105818970D02*
X108912285Y-106318970D01*
X108126571Y-106533256D02*
X108126571Y-105818970D01*
X108126571Y-105818970D02*
X109626571Y-105818970D01*
X109626571Y-105818970D02*
X109626571Y-106533256D01*
X109126571Y-107176113D02*
X108126571Y-107176113D01*
X108983714Y-107176113D02*
X109055142Y-107247542D01*
X109055142Y-107247542D02*
X109126571Y-107390399D01*
X109126571Y-107390399D02*
X109126571Y-107604685D01*
X109126571Y-107604685D02*
X109055142Y-107747542D01*
X109055142Y-107747542D02*
X108912285Y-107818971D01*
X108912285Y-107818971D02*
X108126571Y-107818971D01*
X109126571Y-109176114D02*
X107912285Y-109176114D01*
X107912285Y-109176114D02*
X107769428Y-109104685D01*
X107769428Y-109104685D02*
X107698000Y-109033256D01*
X107698000Y-109033256D02*
X107626571Y-108890399D01*
X107626571Y-108890399D02*
X107626571Y-108676114D01*
X107626571Y-108676114D02*
X107698000Y-108533256D01*
X108198000Y-109176114D02*
X108126571Y-109033256D01*
X108126571Y-109033256D02*
X108126571Y-108747542D01*
X108126571Y-108747542D02*
X108198000Y-108604685D01*
X108198000Y-108604685D02*
X108269428Y-108533256D01*
X108269428Y-108533256D02*
X108412285Y-108461828D01*
X108412285Y-108461828D02*
X108840857Y-108461828D01*
X108840857Y-108461828D02*
X108983714Y-108533256D01*
X108983714Y-108533256D02*
X109055142Y-108604685D01*
X109055142Y-108604685D02*
X109126571Y-108747542D01*
X109126571Y-108747542D02*
X109126571Y-109033256D01*
X109126571Y-109033256D02*
X109055142Y-109176114D01*
X108126571Y-109890399D02*
X109126571Y-109890399D01*
X108983714Y-109890399D02*
X109055142Y-109961828D01*
X109055142Y-109961828D02*
X109126571Y-110104685D01*
X109126571Y-110104685D02*
X109126571Y-110318971D01*
X109126571Y-110318971D02*
X109055142Y-110461828D01*
X109055142Y-110461828D02*
X108912285Y-110533257D01*
X108912285Y-110533257D02*
X108126571Y-110533257D01*
X108912285Y-110533257D02*
X109055142Y-110604685D01*
X109055142Y-110604685D02*
X109126571Y-110747542D01*
X109126571Y-110747542D02*
X109126571Y-110961828D01*
X109126571Y-110961828D02*
X109055142Y-111104685D01*
X109055142Y-111104685D02*
X108912285Y-111176114D01*
X108912285Y-111176114D02*
X108126571Y-111176114D01*
X108126571Y-112533257D02*
X108912285Y-112533257D01*
X108912285Y-112533257D02*
X109055142Y-112461828D01*
X109055142Y-112461828D02*
X109126571Y-112318971D01*
X109126571Y-112318971D02*
X109126571Y-112033257D01*
X109126571Y-112033257D02*
X109055142Y-111890399D01*
X108198000Y-112533257D02*
X108126571Y-112390399D01*
X108126571Y-112390399D02*
X108126571Y-112033257D01*
X108126571Y-112033257D02*
X108198000Y-111890399D01*
X108198000Y-111890399D02*
X108340857Y-111818971D01*
X108340857Y-111818971D02*
X108483714Y-111818971D01*
X108483714Y-111818971D02*
X108626571Y-111890399D01*
X108626571Y-111890399D02*
X108698000Y-112033257D01*
X108698000Y-112033257D02*
X108698000Y-112390399D01*
X108698000Y-112390399D02*
X108769428Y-112533257D01*
X108126571Y-113247542D02*
X109126571Y-113247542D01*
X108840857Y-113247542D02*
X108983714Y-113318971D01*
X108983714Y-113318971D02*
X109055142Y-113390400D01*
X109055142Y-113390400D02*
X109126571Y-113533257D01*
X109126571Y-113533257D02*
X109126571Y-113676114D01*
X108126571Y-114176113D02*
X109626571Y-114176113D01*
X108698000Y-114318971D02*
X108126571Y-114747542D01*
X109126571Y-114747542D02*
X108555142Y-114176113D01*
X108198000Y-115461828D02*
X108126571Y-115461828D01*
X108126571Y-115461828D02*
X107983714Y-115390399D01*
X107983714Y-115390399D02*
X107912285Y-115318971D01*
X107211571Y-91890401D02*
X106140142Y-91890401D01*
X106140142Y-91890401D02*
X105925857Y-91818972D01*
X105925857Y-91818972D02*
X105783000Y-91676115D01*
X105783000Y-91676115D02*
X105711571Y-91461829D01*
X105711571Y-91461829D02*
X105711571Y-91318972D01*
X105711571Y-92604686D02*
X107211571Y-92604686D01*
X105711571Y-93247544D02*
X106497285Y-93247544D01*
X106497285Y-93247544D02*
X106640142Y-93176115D01*
X106640142Y-93176115D02*
X106711571Y-93033258D01*
X106711571Y-93033258D02*
X106711571Y-92818972D01*
X106711571Y-92818972D02*
X106640142Y-92676115D01*
X106640142Y-92676115D02*
X106568714Y-92604686D01*
X107211571Y-94890401D02*
X107211571Y-95747544D01*
X105711571Y-95318972D02*
X107211571Y-95318972D01*
X105783000Y-96818972D02*
X105711571Y-96676115D01*
X105711571Y-96676115D02*
X105711571Y-96390401D01*
X105711571Y-96390401D02*
X105783000Y-96247543D01*
X105783000Y-96247543D02*
X105925857Y-96176115D01*
X105925857Y-96176115D02*
X106497285Y-96176115D01*
X106497285Y-96176115D02*
X106640142Y-96247543D01*
X106640142Y-96247543D02*
X106711571Y-96390401D01*
X106711571Y-96390401D02*
X106711571Y-96676115D01*
X106711571Y-96676115D02*
X106640142Y-96818972D01*
X106640142Y-96818972D02*
X106497285Y-96890401D01*
X106497285Y-96890401D02*
X106354428Y-96890401D01*
X106354428Y-96890401D02*
X106211571Y-96176115D01*
X105783000Y-98176115D02*
X105711571Y-98033257D01*
X105711571Y-98033257D02*
X105711571Y-97747543D01*
X105711571Y-97747543D02*
X105783000Y-97604686D01*
X105783000Y-97604686D02*
X105854428Y-97533257D01*
X105854428Y-97533257D02*
X105997285Y-97461829D01*
X105997285Y-97461829D02*
X106425857Y-97461829D01*
X106425857Y-97461829D02*
X106568714Y-97533257D01*
X106568714Y-97533257D02*
X106640142Y-97604686D01*
X106640142Y-97604686D02*
X106711571Y-97747543D01*
X106711571Y-97747543D02*
X106711571Y-98033257D01*
X106711571Y-98033257D02*
X106640142Y-98176115D01*
X105711571Y-98818971D02*
X107211571Y-98818971D01*
X105711571Y-99461829D02*
X106497285Y-99461829D01*
X106497285Y-99461829D02*
X106640142Y-99390400D01*
X106640142Y-99390400D02*
X106711571Y-99247543D01*
X106711571Y-99247543D02*
X106711571Y-99033257D01*
X106711571Y-99033257D02*
X106640142Y-98890400D01*
X106640142Y-98890400D02*
X106568714Y-98818971D01*
X106711571Y-100176114D02*
X105711571Y-100176114D01*
X106568714Y-100176114D02*
X106640142Y-100247543D01*
X106640142Y-100247543D02*
X106711571Y-100390400D01*
X106711571Y-100390400D02*
X106711571Y-100604686D01*
X106711571Y-100604686D02*
X106640142Y-100747543D01*
X106640142Y-100747543D02*
X106497285Y-100818972D01*
X106497285Y-100818972D02*
X105711571Y-100818972D01*
X105711571Y-101533257D02*
X106711571Y-101533257D01*
X107211571Y-101533257D02*
X107140142Y-101461829D01*
X107140142Y-101461829D02*
X107068714Y-101533257D01*
X107068714Y-101533257D02*
X107140142Y-101604686D01*
X107140142Y-101604686D02*
X107211571Y-101533257D01*
X107211571Y-101533257D02*
X107068714Y-101533257D01*
X105783000Y-102890401D02*
X105711571Y-102747543D01*
X105711571Y-102747543D02*
X105711571Y-102461829D01*
X105711571Y-102461829D02*
X105783000Y-102318972D01*
X105783000Y-102318972D02*
X105854428Y-102247543D01*
X105854428Y-102247543D02*
X105997285Y-102176115D01*
X105997285Y-102176115D02*
X106425857Y-102176115D01*
X106425857Y-102176115D02*
X106568714Y-102247543D01*
X106568714Y-102247543D02*
X106640142Y-102318972D01*
X106640142Y-102318972D02*
X106711571Y-102461829D01*
X106711571Y-102461829D02*
X106711571Y-102747543D01*
X106711571Y-102747543D02*
X106640142Y-102890401D01*
X105711571Y-104176115D02*
X106497285Y-104176115D01*
X106497285Y-104176115D02*
X106640142Y-104104686D01*
X106640142Y-104104686D02*
X106711571Y-103961829D01*
X106711571Y-103961829D02*
X106711571Y-103676115D01*
X106711571Y-103676115D02*
X106640142Y-103533257D01*
X105783000Y-104176115D02*
X105711571Y-104033257D01*
X105711571Y-104033257D02*
X105711571Y-103676115D01*
X105711571Y-103676115D02*
X105783000Y-103533257D01*
X105783000Y-103533257D02*
X105925857Y-103461829D01*
X105925857Y-103461829D02*
X106068714Y-103461829D01*
X106068714Y-103461829D02*
X106211571Y-103533257D01*
X106211571Y-103533257D02*
X106283000Y-103676115D01*
X106283000Y-103676115D02*
X106283000Y-104033257D01*
X106283000Y-104033257D02*
X106354428Y-104176115D01*
X105711571Y-105104686D02*
X105783000Y-104961829D01*
X105783000Y-104961829D02*
X105925857Y-104890400D01*
X105925857Y-104890400D02*
X107211571Y-104890400D01*
X106140142Y-106747543D02*
X106140142Y-107461829D01*
X105711571Y-106604686D02*
X107211571Y-107104686D01*
X107211571Y-107104686D02*
X105711571Y-107604686D01*
X105783000Y-108033257D02*
X105711571Y-108247543D01*
X105711571Y-108247543D02*
X105711571Y-108604685D01*
X105711571Y-108604685D02*
X105783000Y-108747543D01*
X105783000Y-108747543D02*
X105854428Y-108818971D01*
X105854428Y-108818971D02*
X105997285Y-108890400D01*
X105997285Y-108890400D02*
X106140142Y-108890400D01*
X106140142Y-108890400D02*
X106283000Y-108818971D01*
X106283000Y-108818971D02*
X106354428Y-108747543D01*
X106354428Y-108747543D02*
X106425857Y-108604685D01*
X106425857Y-108604685D02*
X106497285Y-108318971D01*
X106497285Y-108318971D02*
X106568714Y-108176114D01*
X106568714Y-108176114D02*
X106640142Y-108104685D01*
X106640142Y-108104685D02*
X106783000Y-108033257D01*
X106783000Y-108033257D02*
X106925857Y-108033257D01*
X106925857Y-108033257D02*
X107068714Y-108104685D01*
X107068714Y-108104685D02*
X107140142Y-108176114D01*
X107140142Y-108176114D02*
X107211571Y-108318971D01*
X107211571Y-108318971D02*
X107211571Y-108676114D01*
X107211571Y-108676114D02*
X107140142Y-108890400D01*
D11*
X111269452Y-83033257D02*
X113769452Y-83033257D01*
X113769452Y-83033257D02*
X111983738Y-83866590D01*
X111983738Y-83866590D02*
X113769452Y-84699923D01*
X113769452Y-84699923D02*
X111269452Y-84699923D01*
X111269452Y-86961828D02*
X112578976Y-86961828D01*
X112578976Y-86961828D02*
X112817071Y-86842781D01*
X112817071Y-86842781D02*
X112936119Y-86604685D01*
X112936119Y-86604685D02*
X112936119Y-86128495D01*
X112936119Y-86128495D02*
X112817071Y-85890400D01*
X111388500Y-86961828D02*
X111269452Y-86723733D01*
X111269452Y-86723733D02*
X111269452Y-86128495D01*
X111269452Y-86128495D02*
X111388500Y-85890400D01*
X111388500Y-85890400D02*
X111626595Y-85771352D01*
X111626595Y-85771352D02*
X111864690Y-85771352D01*
X111864690Y-85771352D02*
X112102785Y-85890400D01*
X112102785Y-85890400D02*
X112221833Y-86128495D01*
X112221833Y-86128495D02*
X112221833Y-86723733D01*
X112221833Y-86723733D02*
X112340880Y-86961828D01*
X112936119Y-89223733D02*
X110912309Y-89223733D01*
X110912309Y-89223733D02*
X110674214Y-89104686D01*
X110674214Y-89104686D02*
X110555166Y-88985638D01*
X110555166Y-88985638D02*
X110436119Y-88747543D01*
X110436119Y-88747543D02*
X110436119Y-88390400D01*
X110436119Y-88390400D02*
X110555166Y-88152305D01*
X111388500Y-89223733D02*
X111269452Y-88985638D01*
X111269452Y-88985638D02*
X111269452Y-88509447D01*
X111269452Y-88509447D02*
X111388500Y-88271352D01*
X111388500Y-88271352D02*
X111507547Y-88152305D01*
X111507547Y-88152305D02*
X111745642Y-88033257D01*
X111745642Y-88033257D02*
X112459928Y-88033257D01*
X112459928Y-88033257D02*
X112698023Y-88152305D01*
X112698023Y-88152305D02*
X112817071Y-88271352D01*
X112817071Y-88271352D02*
X112936119Y-88509447D01*
X112936119Y-88509447D02*
X112936119Y-88985638D01*
X112936119Y-88985638D02*
X112817071Y-89223733D01*
X111269452Y-90771352D02*
X111388500Y-90533257D01*
X111388500Y-90533257D02*
X111626595Y-90414210D01*
X111626595Y-90414210D02*
X113769452Y-90414210D01*
X111388500Y-92676115D02*
X111269452Y-92438019D01*
X111269452Y-92438019D02*
X111269452Y-91961829D01*
X111269452Y-91961829D02*
X111388500Y-91723734D01*
X111388500Y-91723734D02*
X111626595Y-91604686D01*
X111626595Y-91604686D02*
X112578976Y-91604686D01*
X112578976Y-91604686D02*
X112817071Y-91723734D01*
X112817071Y-91723734D02*
X112936119Y-91961829D01*
X112936119Y-91961829D02*
X112936119Y-92438019D01*
X112936119Y-92438019D02*
X112817071Y-92676115D01*
X112817071Y-92676115D02*
X112578976Y-92795162D01*
X112578976Y-92795162D02*
X112340880Y-92795162D01*
X112340880Y-92795162D02*
X112102785Y-91604686D01*
X112936119Y-93628495D02*
X111269452Y-94223733D01*
X111269452Y-94223733D02*
X112936119Y-94818972D01*
X112578976Y-98509448D02*
X112459928Y-98866591D01*
X112459928Y-98866591D02*
X112340880Y-98985638D01*
X112340880Y-98985638D02*
X112102785Y-99104686D01*
X112102785Y-99104686D02*
X111745642Y-99104686D01*
X111745642Y-99104686D02*
X111507547Y-98985638D01*
X111507547Y-98985638D02*
X111388500Y-98866591D01*
X111388500Y-98866591D02*
X111269452Y-98628496D01*
X111269452Y-98628496D02*
X111269452Y-97676115D01*
X111269452Y-97676115D02*
X113769452Y-97676115D01*
X113769452Y-97676115D02*
X113769452Y-98509448D01*
X113769452Y-98509448D02*
X113650404Y-98747543D01*
X113650404Y-98747543D02*
X113531357Y-98866591D01*
X113531357Y-98866591D02*
X113293261Y-98985638D01*
X113293261Y-98985638D02*
X113055166Y-98985638D01*
X113055166Y-98985638D02*
X112817071Y-98866591D01*
X112817071Y-98866591D02*
X112698023Y-98747543D01*
X112698023Y-98747543D02*
X112578976Y-98509448D01*
X112578976Y-98509448D02*
X112578976Y-97676115D01*
X111269452Y-100533257D02*
X111388500Y-100295162D01*
X111388500Y-100295162D02*
X111507547Y-100176115D01*
X111507547Y-100176115D02*
X111745642Y-100057067D01*
X111745642Y-100057067D02*
X112459928Y-100057067D01*
X112459928Y-100057067D02*
X112698023Y-100176115D01*
X112698023Y-100176115D02*
X112817071Y-100295162D01*
X112817071Y-100295162D02*
X112936119Y-100533257D01*
X112936119Y-100533257D02*
X112936119Y-100890400D01*
X112936119Y-100890400D02*
X112817071Y-101128496D01*
X112817071Y-101128496D02*
X112698023Y-101247543D01*
X112698023Y-101247543D02*
X112459928Y-101366591D01*
X112459928Y-101366591D02*
X111745642Y-101366591D01*
X111745642Y-101366591D02*
X111507547Y-101247543D01*
X111507547Y-101247543D02*
X111388500Y-101128496D01*
X111388500Y-101128496D02*
X111269452Y-100890400D01*
X111269452Y-100890400D02*
X111269452Y-100533257D01*
X111269452Y-103509448D02*
X112578976Y-103509448D01*
X112578976Y-103509448D02*
X112817071Y-103390401D01*
X112817071Y-103390401D02*
X112936119Y-103152305D01*
X112936119Y-103152305D02*
X112936119Y-102676115D01*
X112936119Y-102676115D02*
X112817071Y-102438020D01*
X111388500Y-103509448D02*
X111269452Y-103271353D01*
X111269452Y-103271353D02*
X111269452Y-102676115D01*
X111269452Y-102676115D02*
X111388500Y-102438020D01*
X111388500Y-102438020D02*
X111626595Y-102318972D01*
X111626595Y-102318972D02*
X111864690Y-102318972D01*
X111864690Y-102318972D02*
X112102785Y-102438020D01*
X112102785Y-102438020D02*
X112221833Y-102676115D01*
X112221833Y-102676115D02*
X112221833Y-103271353D01*
X112221833Y-103271353D02*
X112340880Y-103509448D01*
X111269452Y-104699925D02*
X112936119Y-104699925D01*
X112459928Y-104699925D02*
X112698023Y-104818972D01*
X112698023Y-104818972D02*
X112817071Y-104938020D01*
X112817071Y-104938020D02*
X112936119Y-105176115D01*
X112936119Y-105176115D02*
X112936119Y-105414210D01*
X111269452Y-107318972D02*
X113769452Y-107318972D01*
X111388500Y-107318972D02*
X111269452Y-107080877D01*
X111269452Y-107080877D02*
X111269452Y-106604686D01*
X111269452Y-106604686D02*
X111388500Y-106366591D01*
X111388500Y-106366591D02*
X111507547Y-106247544D01*
X111507547Y-106247544D02*
X111745642Y-106128496D01*
X111745642Y-106128496D02*
X112459928Y-106128496D01*
X112459928Y-106128496D02*
X112698023Y-106247544D01*
X112698023Y-106247544D02*
X112817071Y-106366591D01*
X112817071Y-106366591D02*
X112936119Y-106604686D01*
X112936119Y-106604686D02*
X112936119Y-107080877D01*
X112936119Y-107080877D02*
X112817071Y-107318972D01*
X111507547Y-111842782D02*
X111388500Y-111723734D01*
X111388500Y-111723734D02*
X111269452Y-111366592D01*
X111269452Y-111366592D02*
X111269452Y-111128496D01*
X111269452Y-111128496D02*
X111388500Y-110771353D01*
X111388500Y-110771353D02*
X111626595Y-110533258D01*
X111626595Y-110533258D02*
X111864690Y-110414211D01*
X111864690Y-110414211D02*
X112340880Y-110295163D01*
X112340880Y-110295163D02*
X112698023Y-110295163D01*
X112698023Y-110295163D02*
X113174214Y-110414211D01*
X113174214Y-110414211D02*
X113412309Y-110533258D01*
X113412309Y-110533258D02*
X113650404Y-110771353D01*
X113650404Y-110771353D02*
X113769452Y-111128496D01*
X113769452Y-111128496D02*
X113769452Y-111366592D01*
X113769452Y-111366592D02*
X113650404Y-111723734D01*
X113650404Y-111723734D02*
X113531357Y-111842782D01*
X113769452Y-112557068D02*
X111269452Y-113390401D01*
X111269452Y-113390401D02*
X113769452Y-114223734D01*
X113531357Y-114938020D02*
X113650404Y-115057068D01*
X113650404Y-115057068D02*
X113769452Y-115295163D01*
X113769452Y-115295163D02*
X113769452Y-115890401D01*
X113769452Y-115890401D02*
X113650404Y-116128496D01*
X113650404Y-116128496D02*
X113531357Y-116247544D01*
X113531357Y-116247544D02*
X113293261Y-116366591D01*
X113293261Y-116366591D02*
X113055166Y-116366591D01*
X113055166Y-116366591D02*
X112698023Y-116247544D01*
X112698023Y-116247544D02*
X111269452Y-114818972D01*
X111269452Y-114818972D02*
X111269452Y-116366591D01*
D12*
X133873524Y-122675619D02*
X134492571Y-122675619D01*
X134492571Y-122675619D02*
X134159238Y-123056571D01*
X134159238Y-123056571D02*
X134302095Y-123056571D01*
X134302095Y-123056571D02*
X134397333Y-123104190D01*
X134397333Y-123104190D02*
X134444952Y-123151809D01*
X134444952Y-123151809D02*
X134492571Y-123247047D01*
X134492571Y-123247047D02*
X134492571Y-123485142D01*
X134492571Y-123485142D02*
X134444952Y-123580380D01*
X134444952Y-123580380D02*
X134397333Y-123628000D01*
X134397333Y-123628000D02*
X134302095Y-123675619D01*
X134302095Y-123675619D02*
X134016381Y-123675619D01*
X134016381Y-123675619D02*
X133921143Y-123628000D01*
X133921143Y-123628000D02*
X133873524Y-123580380D01*
X134683048Y-123770857D02*
X135444952Y-123770857D01*
X135635429Y-122770857D02*
X135683048Y-122723238D01*
X135683048Y-122723238D02*
X135778286Y-122675619D01*
X135778286Y-122675619D02*
X136016381Y-122675619D01*
X136016381Y-122675619D02*
X136111619Y-122723238D01*
X136111619Y-122723238D02*
X136159238Y-122770857D01*
X136159238Y-122770857D02*
X136206857Y-122866095D01*
X136206857Y-122866095D02*
X136206857Y-122961333D01*
X136206857Y-122961333D02*
X136159238Y-123104190D01*
X136159238Y-123104190D02*
X135587810Y-123675619D01*
X135587810Y-123675619D02*
X136206857Y-123675619D01*
X149133333Y-93595219D02*
X148800000Y-93119028D01*
X148561905Y-93595219D02*
X148561905Y-92595219D01*
X148561905Y-92595219D02*
X148942857Y-92595219D01*
X148942857Y-92595219D02*
X149038095Y-92642838D01*
X149038095Y-92642838D02*
X149085714Y-92690457D01*
X149085714Y-92690457D02*
X149133333Y-92785695D01*
X149133333Y-92785695D02*
X149133333Y-92928552D01*
X149133333Y-92928552D02*
X149085714Y-93023790D01*
X149085714Y-93023790D02*
X149038095Y-93071409D01*
X149038095Y-93071409D02*
X148942857Y-93119028D01*
X148942857Y-93119028D02*
X148561905Y-93119028D01*
X150038095Y-92595219D02*
X149561905Y-92595219D01*
X149561905Y-92595219D02*
X149514286Y-93071409D01*
X149514286Y-93071409D02*
X149561905Y-93023790D01*
X149561905Y-93023790D02*
X149657143Y-92976171D01*
X149657143Y-92976171D02*
X149895238Y-92976171D01*
X149895238Y-92976171D02*
X149990476Y-93023790D01*
X149990476Y-93023790D02*
X150038095Y-93071409D01*
X150038095Y-93071409D02*
X150085714Y-93166647D01*
X150085714Y-93166647D02*
X150085714Y-93404742D01*
X150085714Y-93404742D02*
X150038095Y-93499980D01*
X150038095Y-93499980D02*
X149990476Y-93547600D01*
X149990476Y-93547600D02*
X149895238Y-93595219D01*
X149895238Y-93595219D02*
X149657143Y-93595219D01*
X149657143Y-93595219D02*
X149561905Y-93547600D01*
X149561905Y-93547600D02*
X149514286Y-93499980D01*
X124833333Y-85428552D02*
X124833333Y-86095219D01*
X124595238Y-85047600D02*
X124357143Y-85761885D01*
X124357143Y-85761885D02*
X124976190Y-85761885D01*
X125119048Y-86190457D02*
X125880952Y-86190457D01*
X126642857Y-86095219D02*
X126071429Y-86095219D01*
X126357143Y-86095219D02*
X126357143Y-85095219D01*
X126357143Y-85095219D02*
X126261905Y-85238076D01*
X126261905Y-85238076D02*
X126166667Y-85333314D01*
X126166667Y-85333314D02*
X126071429Y-85380933D01*
X144133333Y-103899980D02*
X144085714Y-103947600D01*
X144085714Y-103947600D02*
X143942857Y-103995219D01*
X143942857Y-103995219D02*
X143847619Y-103995219D01*
X143847619Y-103995219D02*
X143704762Y-103947600D01*
X143704762Y-103947600D02*
X143609524Y-103852361D01*
X143609524Y-103852361D02*
X143561905Y-103757123D01*
X143561905Y-103757123D02*
X143514286Y-103566647D01*
X143514286Y-103566647D02*
X143514286Y-103423790D01*
X143514286Y-103423790D02*
X143561905Y-103233314D01*
X143561905Y-103233314D02*
X143609524Y-103138076D01*
X143609524Y-103138076D02*
X143704762Y-103042838D01*
X143704762Y-103042838D02*
X143847619Y-102995219D01*
X143847619Y-102995219D02*
X143942857Y-102995219D01*
X143942857Y-102995219D02*
X144085714Y-103042838D01*
X144085714Y-103042838D02*
X144133333Y-103090457D01*
X145038095Y-102995219D02*
X144561905Y-102995219D01*
X144561905Y-102995219D02*
X144514286Y-103471409D01*
X144514286Y-103471409D02*
X144561905Y-103423790D01*
X144561905Y-103423790D02*
X144657143Y-103376171D01*
X144657143Y-103376171D02*
X144895238Y-103376171D01*
X144895238Y-103376171D02*
X144990476Y-103423790D01*
X144990476Y-103423790D02*
X145038095Y-103471409D01*
X145038095Y-103471409D02*
X145085714Y-103566647D01*
X145085714Y-103566647D02*
X145085714Y-103804742D01*
X145085714Y-103804742D02*
X145038095Y-103899980D01*
X145038095Y-103899980D02*
X144990476Y-103947600D01*
X144990476Y-103947600D02*
X144895238Y-103995219D01*
X144895238Y-103995219D02*
X144657143Y-103995219D01*
X144657143Y-103995219D02*
X144561905Y-103947600D01*
X144561905Y-103947600D02*
X144514286Y-103899980D01*
X177228571Y-97995219D02*
X176657143Y-97995219D01*
X176942857Y-97995219D02*
X176942857Y-96995219D01*
X176942857Y-96995219D02*
X176847619Y-97138076D01*
X176847619Y-97138076D02*
X176752381Y-97233314D01*
X176752381Y-97233314D02*
X176657143Y-97280933D01*
X177419048Y-98090457D02*
X178180952Y-98090457D01*
X178371429Y-97090457D02*
X178419048Y-97042838D01*
X178419048Y-97042838D02*
X178514286Y-96995219D01*
X178514286Y-96995219D02*
X178752381Y-96995219D01*
X178752381Y-96995219D02*
X178847619Y-97042838D01*
X178847619Y-97042838D02*
X178895238Y-97090457D01*
X178895238Y-97090457D02*
X178942857Y-97185695D01*
X178942857Y-97185695D02*
X178942857Y-97280933D01*
X178942857Y-97280933D02*
X178895238Y-97423790D01*
X178895238Y-97423790D02*
X178323810Y-97995219D01*
X178323810Y-97995219D02*
X178942857Y-97995219D01*
X129938095Y-116747600D02*
X130080952Y-116795219D01*
X130080952Y-116795219D02*
X130319047Y-116795219D01*
X130319047Y-116795219D02*
X130414285Y-116747600D01*
X130414285Y-116747600D02*
X130461904Y-116699980D01*
X130461904Y-116699980D02*
X130509523Y-116604742D01*
X130509523Y-116604742D02*
X130509523Y-116509504D01*
X130509523Y-116509504D02*
X130461904Y-116414266D01*
X130461904Y-116414266D02*
X130414285Y-116366647D01*
X130414285Y-116366647D02*
X130319047Y-116319028D01*
X130319047Y-116319028D02*
X130128571Y-116271409D01*
X130128571Y-116271409D02*
X130033333Y-116223790D01*
X130033333Y-116223790D02*
X129985714Y-116176171D01*
X129985714Y-116176171D02*
X129938095Y-116080933D01*
X129938095Y-116080933D02*
X129938095Y-115985695D01*
X129938095Y-115985695D02*
X129985714Y-115890457D01*
X129985714Y-115890457D02*
X130033333Y-115842838D01*
X130033333Y-115842838D02*
X130128571Y-115795219D01*
X130128571Y-115795219D02*
X130366666Y-115795219D01*
X130366666Y-115795219D02*
X130509523Y-115842838D01*
X130890476Y-115890457D02*
X130938095Y-115842838D01*
X130938095Y-115842838D02*
X131033333Y-115795219D01*
X131033333Y-115795219D02*
X131271428Y-115795219D01*
X131271428Y-115795219D02*
X131366666Y-115842838D01*
X131366666Y-115842838D02*
X131414285Y-115890457D01*
X131414285Y-115890457D02*
X131461904Y-115985695D01*
X131461904Y-115985695D02*
X131461904Y-116080933D01*
X131461904Y-116080933D02*
X131414285Y-116223790D01*
X131414285Y-116223790D02*
X130842857Y-116795219D01*
X130842857Y-116795219D02*
X131461904Y-116795219D01*
X160375695Y-118364800D02*
X160518552Y-118412419D01*
X160518552Y-118412419D02*
X160756647Y-118412419D01*
X160756647Y-118412419D02*
X160851885Y-118364800D01*
X160851885Y-118364800D02*
X160899504Y-118317180D01*
X160899504Y-118317180D02*
X160947123Y-118221942D01*
X160947123Y-118221942D02*
X160947123Y-118126704D01*
X160947123Y-118126704D02*
X160899504Y-118031466D01*
X160899504Y-118031466D02*
X160851885Y-117983847D01*
X160851885Y-117983847D02*
X160756647Y-117936228D01*
X160756647Y-117936228D02*
X160566171Y-117888609D01*
X160566171Y-117888609D02*
X160470933Y-117840990D01*
X160470933Y-117840990D02*
X160423314Y-117793371D01*
X160423314Y-117793371D02*
X160375695Y-117698133D01*
X160375695Y-117698133D02*
X160375695Y-117602895D01*
X160375695Y-117602895D02*
X160423314Y-117507657D01*
X160423314Y-117507657D02*
X160470933Y-117460038D01*
X160470933Y-117460038D02*
X160566171Y-117412419D01*
X160566171Y-117412419D02*
X160804266Y-117412419D01*
X160804266Y-117412419D02*
X160947123Y-117460038D01*
X161280457Y-117412419D02*
X161899504Y-117412419D01*
X161899504Y-117412419D02*
X161566171Y-117793371D01*
X161566171Y-117793371D02*
X161709028Y-117793371D01*
X161709028Y-117793371D02*
X161804266Y-117840990D01*
X161804266Y-117840990D02*
X161851885Y-117888609D01*
X161851885Y-117888609D02*
X161899504Y-117983847D01*
X161899504Y-117983847D02*
X161899504Y-118221942D01*
X161899504Y-118221942D02*
X161851885Y-118317180D01*
X161851885Y-118317180D02*
X161804266Y-118364800D01*
X161804266Y-118364800D02*
X161709028Y-118412419D01*
X161709028Y-118412419D02*
X161423314Y-118412419D01*
X161423314Y-118412419D02*
X161328076Y-118364800D01*
X161328076Y-118364800D02*
X161280457Y-118317180D01*
X177128571Y-101795219D02*
X176557143Y-101795219D01*
X176842857Y-101795219D02*
X176842857Y-100795219D01*
X176842857Y-100795219D02*
X176747619Y-100938076D01*
X176747619Y-100938076D02*
X176652381Y-101033314D01*
X176652381Y-101033314D02*
X176557143Y-101080933D01*
X177319048Y-101890457D02*
X178080952Y-101890457D01*
X178842857Y-101795219D02*
X178271429Y-101795219D01*
X178557143Y-101795219D02*
X178557143Y-100795219D01*
X178557143Y-100795219D02*
X178461905Y-100938076D01*
X178461905Y-100938076D02*
X178366667Y-101033314D01*
X178366667Y-101033314D02*
X178271429Y-101080933D01*
X156857143Y-73890457D02*
X156904762Y-73842838D01*
X156904762Y-73842838D02*
X157000000Y-73795219D01*
X157000000Y-73795219D02*
X157238095Y-73795219D01*
X157238095Y-73795219D02*
X157333333Y-73842838D01*
X157333333Y-73842838D02*
X157380952Y-73890457D01*
X157380952Y-73890457D02*
X157428571Y-73985695D01*
X157428571Y-73985695D02*
X157428571Y-74080933D01*
X157428571Y-74080933D02*
X157380952Y-74223790D01*
X157380952Y-74223790D02*
X156809524Y-74795219D01*
X156809524Y-74795219D02*
X157428571Y-74795219D01*
X157619048Y-74890457D02*
X158380952Y-74890457D01*
X158571429Y-73890457D02*
X158619048Y-73842838D01*
X158619048Y-73842838D02*
X158714286Y-73795219D01*
X158714286Y-73795219D02*
X158952381Y-73795219D01*
X158952381Y-73795219D02*
X159047619Y-73842838D01*
X159047619Y-73842838D02*
X159095238Y-73890457D01*
X159095238Y-73890457D02*
X159142857Y-73985695D01*
X159142857Y-73985695D02*
X159142857Y-74080933D01*
X159142857Y-74080933D02*
X159095238Y-74223790D01*
X159095238Y-74223790D02*
X158523810Y-74795219D01*
X158523810Y-74795219D02*
X159142857Y-74795219D01*
X132909524Y-118277219D02*
X133528571Y-118277219D01*
X133528571Y-118277219D02*
X133195238Y-118658171D01*
X133195238Y-118658171D02*
X133338095Y-118658171D01*
X133338095Y-118658171D02*
X133433333Y-118705790D01*
X133433333Y-118705790D02*
X133480952Y-118753409D01*
X133480952Y-118753409D02*
X133528571Y-118848647D01*
X133528571Y-118848647D02*
X133528571Y-119086742D01*
X133528571Y-119086742D02*
X133480952Y-119181980D01*
X133480952Y-119181980D02*
X133433333Y-119229600D01*
X133433333Y-119229600D02*
X133338095Y-119277219D01*
X133338095Y-119277219D02*
X133052381Y-119277219D01*
X133052381Y-119277219D02*
X132957143Y-119229600D01*
X132957143Y-119229600D02*
X132909524Y-119181980D01*
X133719048Y-119372457D02*
X134480952Y-119372457D01*
X135242857Y-119277219D02*
X134671429Y-119277219D01*
X134957143Y-119277219D02*
X134957143Y-118277219D01*
X134957143Y-118277219D02*
X134861905Y-118420076D01*
X134861905Y-118420076D02*
X134766667Y-118515314D01*
X134766667Y-118515314D02*
X134671429Y-118562933D01*
X156857143Y-78290457D02*
X156904762Y-78242838D01*
X156904762Y-78242838D02*
X157000000Y-78195219D01*
X157000000Y-78195219D02*
X157238095Y-78195219D01*
X157238095Y-78195219D02*
X157333333Y-78242838D01*
X157333333Y-78242838D02*
X157380952Y-78290457D01*
X157380952Y-78290457D02*
X157428571Y-78385695D01*
X157428571Y-78385695D02*
X157428571Y-78480933D01*
X157428571Y-78480933D02*
X157380952Y-78623790D01*
X157380952Y-78623790D02*
X156809524Y-79195219D01*
X156809524Y-79195219D02*
X157428571Y-79195219D01*
X157619048Y-79290457D02*
X158380952Y-79290457D01*
X159142857Y-79195219D02*
X158571429Y-79195219D01*
X158857143Y-79195219D02*
X158857143Y-78195219D01*
X158857143Y-78195219D02*
X158761905Y-78338076D01*
X158761905Y-78338076D02*
X158666667Y-78433314D01*
X158666667Y-78433314D02*
X158571429Y-78480933D01*
X143033333Y-93495219D02*
X142700000Y-93019028D01*
X142461905Y-93495219D02*
X142461905Y-92495219D01*
X142461905Y-92495219D02*
X142842857Y-92495219D01*
X142842857Y-92495219D02*
X142938095Y-92542838D01*
X142938095Y-92542838D02*
X142985714Y-92590457D01*
X142985714Y-92590457D02*
X143033333Y-92685695D01*
X143033333Y-92685695D02*
X143033333Y-92828552D01*
X143033333Y-92828552D02*
X142985714Y-92923790D01*
X142985714Y-92923790D02*
X142938095Y-92971409D01*
X142938095Y-92971409D02*
X142842857Y-93019028D01*
X142842857Y-93019028D02*
X142461905Y-93019028D01*
X143890476Y-92495219D02*
X143700000Y-92495219D01*
X143700000Y-92495219D02*
X143604762Y-92542838D01*
X143604762Y-92542838D02*
X143557143Y-92590457D01*
X143557143Y-92590457D02*
X143461905Y-92733314D01*
X143461905Y-92733314D02*
X143414286Y-92923790D01*
X143414286Y-92923790D02*
X143414286Y-93304742D01*
X143414286Y-93304742D02*
X143461905Y-93399980D01*
X143461905Y-93399980D02*
X143509524Y-93447600D01*
X143509524Y-93447600D02*
X143604762Y-93495219D01*
X143604762Y-93495219D02*
X143795238Y-93495219D01*
X143795238Y-93495219D02*
X143890476Y-93447600D01*
X143890476Y-93447600D02*
X143938095Y-93399980D01*
X143938095Y-93399980D02*
X143985714Y-93304742D01*
X143985714Y-93304742D02*
X143985714Y-93066647D01*
X143985714Y-93066647D02*
X143938095Y-92971409D01*
X143938095Y-92971409D02*
X143890476Y-92923790D01*
X143890476Y-92923790D02*
X143795238Y-92876171D01*
X143795238Y-92876171D02*
X143604762Y-92876171D01*
X143604762Y-92876171D02*
X143509524Y-92923790D01*
X143509524Y-92923790D02*
X143461905Y-92971409D01*
X143461905Y-92971409D02*
X143414286Y-93066647D01*
X128733333Y-85628552D02*
X128733333Y-86295219D01*
X128495238Y-85247600D02*
X128257143Y-85961885D01*
X128257143Y-85961885D02*
X128876190Y-85961885D01*
X129019048Y-86390457D02*
X129780952Y-86390457D01*
X129971429Y-85390457D02*
X130019048Y-85342838D01*
X130019048Y-85342838D02*
X130114286Y-85295219D01*
X130114286Y-85295219D02*
X130352381Y-85295219D01*
X130352381Y-85295219D02*
X130447619Y-85342838D01*
X130447619Y-85342838D02*
X130495238Y-85390457D01*
X130495238Y-85390457D02*
X130542857Y-85485695D01*
X130542857Y-85485695D02*
X130542857Y-85580933D01*
X130542857Y-85580933D02*
X130495238Y-85723790D01*
X130495238Y-85723790D02*
X129923810Y-86295219D01*
X129923810Y-86295219D02*
X130542857Y-86295219D01*
X144438095Y-97047600D02*
X144580952Y-97095219D01*
X144580952Y-97095219D02*
X144819047Y-97095219D01*
X144819047Y-97095219D02*
X144914285Y-97047600D01*
X144914285Y-97047600D02*
X144961904Y-96999980D01*
X144961904Y-96999980D02*
X145009523Y-96904742D01*
X145009523Y-96904742D02*
X145009523Y-96809504D01*
X145009523Y-96809504D02*
X144961904Y-96714266D01*
X144961904Y-96714266D02*
X144914285Y-96666647D01*
X144914285Y-96666647D02*
X144819047Y-96619028D01*
X144819047Y-96619028D02*
X144628571Y-96571409D01*
X144628571Y-96571409D02*
X144533333Y-96523790D01*
X144533333Y-96523790D02*
X144485714Y-96476171D01*
X144485714Y-96476171D02*
X144438095Y-96380933D01*
X144438095Y-96380933D02*
X144438095Y-96285695D01*
X144438095Y-96285695D02*
X144485714Y-96190457D01*
X144485714Y-96190457D02*
X144533333Y-96142838D01*
X144533333Y-96142838D02*
X144628571Y-96095219D01*
X144628571Y-96095219D02*
X144866666Y-96095219D01*
X144866666Y-96095219D02*
X145009523Y-96142838D01*
X145961904Y-97095219D02*
X145390476Y-97095219D01*
X145676190Y-97095219D02*
X145676190Y-96095219D01*
X145676190Y-96095219D02*
X145580952Y-96238076D01*
X145580952Y-96238076D02*
X145485714Y-96333314D01*
X145485714Y-96333314D02*
X145390476Y-96380933D01*
D13*
X134350000Y-124390400D02*
X136250000Y-124390400D01*
X134350000Y-126290400D02*
X134350000Y-124390400D01*
X136250000Y-124390400D02*
X136250000Y-126290400D01*
X136250000Y-126290400D02*
X134350000Y-126290400D01*
X149985400Y-95632536D02*
X149985400Y-96086664D01*
X148515400Y-95632536D02*
X148515400Y-96086664D01*
X124550000Y-86690400D02*
X126450000Y-86690400D01*
X124550000Y-88590400D02*
X124550000Y-86690400D01*
X126450000Y-86690400D02*
X126450000Y-88590400D01*
X126450000Y-88590400D02*
X124550000Y-88590400D01*
X146163420Y-101344000D02*
X146444580Y-101344000D01*
X146163420Y-102364000D02*
X146444580Y-102364000D01*
X176850000Y-98490400D02*
X178750000Y-98490400D01*
X176850000Y-100390400D02*
X176850000Y-98490400D01*
X178750000Y-98490400D02*
X178750000Y-100390400D01*
X178750000Y-100390400D02*
X176850000Y-100390400D01*
X127508000Y-116296000D02*
X125708000Y-116296000D01*
X127508000Y-116296000D02*
X128308000Y-116296000D01*
X127508000Y-119416000D02*
X126708000Y-119416000D01*
X127508000Y-119416000D02*
X128308000Y-119416000D01*
X164713500Y-116362000D02*
X162913500Y-116362000D01*
X164713500Y-116362000D02*
X165513500Y-116362000D01*
X164713500Y-119482000D02*
X163913500Y-119482000D01*
X164713500Y-119482000D02*
X165513500Y-119482000D01*
X176750000Y-102290400D02*
X178650000Y-102290400D01*
X176750000Y-104190400D02*
X176750000Y-102290400D01*
X178650000Y-102290400D02*
X178650000Y-104190400D01*
X178650000Y-104190400D02*
X176750000Y-104190400D01*
X157050000Y-75390400D02*
X158950000Y-75390400D01*
X157050000Y-77290400D02*
X157050000Y-75390400D01*
X158950000Y-75390400D02*
X158950000Y-77290400D01*
X158950000Y-77290400D02*
X157050000Y-77290400D01*
X133150000Y-119990400D02*
X135050000Y-119990400D01*
X133150000Y-121890400D02*
X133150000Y-119990400D01*
X135050000Y-119990400D02*
X135050000Y-121890400D01*
X135050000Y-121890400D02*
X133150000Y-121890400D01*
X157050000Y-79790400D02*
X158950000Y-79790400D01*
X157050000Y-81690400D02*
X157050000Y-79790400D01*
X158950000Y-79790400D02*
X158950000Y-81690400D01*
X158950000Y-81690400D02*
X157050000Y-81690400D01*
X142419400Y-96035864D02*
X142419400Y-95581736D01*
X143889400Y-96035864D02*
X143889400Y-95581736D01*
X128450000Y-86890400D02*
X130350000Y-86890400D01*
X128450000Y-88790400D02*
X128450000Y-86890400D01*
X130350000Y-86890400D02*
X130350000Y-88790400D01*
X130350000Y-88790400D02*
X128450000Y-88790400D01*
X146201140Y-97690000D02*
X144401140Y-97690000D01*
X146201140Y-97690000D02*
X147001140Y-97690000D01*
X146201140Y-100810000D02*
X145401140Y-100810000D01*
X146201140Y-100810000D02*
X147001140Y-100810000D01*
%LPC*%
D14*
X135300000Y-125340400D03*
D15*
X149250400Y-94947100D03*
X149250400Y-96772100D03*
D14*
X125500000Y-87640400D03*
D16*
X145529000Y-101854000D03*
X147079000Y-101854000D03*
D14*
X177800000Y-99440400D03*
D17*
X126370500Y-116906000D03*
X126370500Y-117856000D03*
X126370500Y-118806000D03*
X128645500Y-118806000D03*
X128645500Y-117856000D03*
X128645500Y-116906000D03*
X163576000Y-116972000D03*
X163576000Y-117922000D03*
X163576000Y-118872000D03*
X165851000Y-118872000D03*
X165851000Y-117922000D03*
X165851000Y-116972000D03*
D14*
X177700000Y-103240400D03*
D18*
X126250000Y-99250000D03*
D14*
X158000000Y-76340400D03*
X134100000Y-120940400D03*
X158000000Y-80740400D03*
D19*
X143154400Y-96721300D03*
X143154400Y-94896300D03*
D14*
X129400000Y-87840400D03*
D17*
X145063640Y-98300000D03*
X145063640Y-99250000D03*
X145063640Y-100200000D03*
X147338640Y-100200000D03*
X147338640Y-99250000D03*
X147338640Y-98300000D03*
D20*
X129077025Y-140852859D03*
X126250000Y-99250000D03*
X100750000Y-99250000D03*
X118000000Y-71000000D03*
X146208951Y-79245847D03*
X191250000Y-99250000D03*
X174500000Y-127500000D03*
X166250000Y-99250000D03*
D21*
X145850000Y-52750000D03*
D20*
X129000000Y-57500000D03*
X163412036Y-140678157D03*
X146198475Y-119261890D03*
X174500000Y-71000000D03*
X163500000Y-57500000D03*
X118000000Y-127500000D03*
%LPD*%
M02*
