%TF.GenerationSoftware,KiCad,Pcbnew,7.0.9-7.0.9~ubuntu23.04.1*%
%TF.CreationDate,2023-11-29T14:17:22+01:00*%
%TF.ProjectId,maglev cv2,6d61676c-6576-4206-9376-322e6b696361,rev?*%
%TF.SameCoordinates,Original*%
%TF.FileFunction,Legend,Bot*%
%TF.FilePolarity,Positive*%
%FSLAX46Y46*%
G04 Gerber Fmt 4.6, Leading zero omitted, Abs format (unit mm)*
G04 Created by KiCad (PCBNEW 7.0.9-7.0.9~ubuntu23.04.1) date 2023-11-29 14:17:22*
%MOMM*%
%LPD*%
G01*
G04 APERTURE LIST*
G04 Aperture macros list*
%AMRoundRect*
0 Rectangle with rounded corners*
0 $1 Rounding radius*
0 $2 $3 $4 $5 $6 $7 $8 $9 X,Y pos of 4 corners*
0 Add a 4 corners polygon primitive as box body*
4,1,4,$2,$3,$4,$5,$6,$7,$8,$9,$2,$3,0*
0 Add four circle primitives for the rounded corners*
1,1,$1+$1,$2,$3*
1,1,$1+$1,$4,$5*
1,1,$1+$1,$6,$7*
1,1,$1+$1,$8,$9*
0 Add four rect primitives between the rounded corners*
20,1,$1+$1,$2,$3,$4,$5,0*
20,1,$1+$1,$4,$5,$6,$7,0*
20,1,$1+$1,$6,$7,$8,$9,0*
20,1,$1+$1,$8,$9,$2,$3,0*%
G04 Aperture macros list end*
%ADD10C,0.500000*%
%ADD11C,0.250000*%
%ADD12C,0.150000*%
%ADD13C,0.120000*%
%ADD14C,0.400000*%
%ADD15C,0.127000*%
%ADD16C,2.500000*%
%ADD17RoundRect,0.250000X-0.250000X-0.475000X0.250000X-0.475000X0.250000X0.475000X-0.250000X0.475000X0*%
%ADD18RoundRect,0.250000X-0.550000X1.500000X-0.550000X-1.500000X0.550000X-1.500000X0.550000X1.500000X0*%
%ADD19C,3.200000*%
%ADD20RoundRect,0.250000X-0.625000X0.400000X-0.625000X-0.400000X0.625000X-0.400000X0.625000X0.400000X0*%
%ADD21RoundRect,0.225000X-0.225000X-0.250000X0.225000X-0.250000X0.225000X0.250000X-0.225000X0.250000X0*%
%ADD22RoundRect,0.150000X0.150000X-0.825000X0.150000X0.825000X-0.150000X0.825000X-0.150000X-0.825000X0*%
%ADD23R,3.300000X2.410000*%
%ADD24R,1.500000X2.000000*%
%ADD25R,3.800000X2.000000*%
%ADD26RoundRect,0.250000X-1.500000X-0.550000X1.500000X-0.550000X1.500000X0.550000X-1.500000X0.550000X0*%
%ADD27R,1.900000X1.000000*%
%ADD28RoundRect,0.250000X0.250000X0.475000X-0.250000X0.475000X-0.250000X-0.475000X0.250000X-0.475000X0*%
%ADD29R,3.900000X6.200000*%
%ADD30R,3.300000X4.400000*%
%ADD31C,2.000000*%
%ADD32RoundRect,0.225000X-0.250000X0.225000X-0.250000X-0.225000X0.250000X-0.225000X0.250000X0.225000X0*%
%ADD33RoundRect,0.250000X0.400000X0.625000X-0.400000X0.625000X-0.400000X-0.625000X0.400000X-0.625000X0*%
G04 APERTURE END LIST*
D10*
X111353202Y-116347542D02*
X113853202Y-116347542D01*
X113853202Y-116347542D02*
X112067488Y-115514209D01*
X112067488Y-115514209D02*
X113853202Y-114680876D01*
X113853202Y-114680876D02*
X111353202Y-114680876D01*
X111353202Y-112418971D02*
X112662726Y-112418971D01*
X112662726Y-112418971D02*
X112900821Y-112538018D01*
X112900821Y-112538018D02*
X113019869Y-112776114D01*
X113019869Y-112776114D02*
X113019869Y-113252304D01*
X113019869Y-113252304D02*
X112900821Y-113490399D01*
X111472250Y-112418971D02*
X111353202Y-112657066D01*
X111353202Y-112657066D02*
X111353202Y-113252304D01*
X111353202Y-113252304D02*
X111472250Y-113490399D01*
X111472250Y-113490399D02*
X111710345Y-113609447D01*
X111710345Y-113609447D02*
X111948440Y-113609447D01*
X111948440Y-113609447D02*
X112186535Y-113490399D01*
X112186535Y-113490399D02*
X112305583Y-113252304D01*
X112305583Y-113252304D02*
X112305583Y-112657066D01*
X112305583Y-112657066D02*
X112424630Y-112418971D01*
X113019869Y-110157066D02*
X110996059Y-110157066D01*
X110996059Y-110157066D02*
X110757964Y-110276113D01*
X110757964Y-110276113D02*
X110638916Y-110395161D01*
X110638916Y-110395161D02*
X110519869Y-110633256D01*
X110519869Y-110633256D02*
X110519869Y-110990399D01*
X110519869Y-110990399D02*
X110638916Y-111228494D01*
X111472250Y-110157066D02*
X111353202Y-110395161D01*
X111353202Y-110395161D02*
X111353202Y-110871352D01*
X111353202Y-110871352D02*
X111472250Y-111109447D01*
X111472250Y-111109447D02*
X111591297Y-111228494D01*
X111591297Y-111228494D02*
X111829392Y-111347542D01*
X111829392Y-111347542D02*
X112543678Y-111347542D01*
X112543678Y-111347542D02*
X112781773Y-111228494D01*
X112781773Y-111228494D02*
X112900821Y-111109447D01*
X112900821Y-111109447D02*
X113019869Y-110871352D01*
X113019869Y-110871352D02*
X113019869Y-110395161D01*
X113019869Y-110395161D02*
X112900821Y-110157066D01*
X111353202Y-108609447D02*
X111472250Y-108847542D01*
X111472250Y-108847542D02*
X111710345Y-108966589D01*
X111710345Y-108966589D02*
X113853202Y-108966589D01*
X111472250Y-106704684D02*
X111353202Y-106942780D01*
X111353202Y-106942780D02*
X111353202Y-107418970D01*
X111353202Y-107418970D02*
X111472250Y-107657065D01*
X111472250Y-107657065D02*
X111710345Y-107776113D01*
X111710345Y-107776113D02*
X112662726Y-107776113D01*
X112662726Y-107776113D02*
X112900821Y-107657065D01*
X112900821Y-107657065D02*
X113019869Y-107418970D01*
X113019869Y-107418970D02*
X113019869Y-106942780D01*
X113019869Y-106942780D02*
X112900821Y-106704684D01*
X112900821Y-106704684D02*
X112662726Y-106585637D01*
X112662726Y-106585637D02*
X112424630Y-106585637D01*
X112424630Y-106585637D02*
X112186535Y-107776113D01*
X113019869Y-105752304D02*
X111353202Y-105157066D01*
X111353202Y-105157066D02*
X113019869Y-104561827D01*
X112662726Y-100871351D02*
X112543678Y-100514208D01*
X112543678Y-100514208D02*
X112424630Y-100395161D01*
X112424630Y-100395161D02*
X112186535Y-100276113D01*
X112186535Y-100276113D02*
X111829392Y-100276113D01*
X111829392Y-100276113D02*
X111591297Y-100395161D01*
X111591297Y-100395161D02*
X111472250Y-100514208D01*
X111472250Y-100514208D02*
X111353202Y-100752303D01*
X111353202Y-100752303D02*
X111353202Y-101704684D01*
X111353202Y-101704684D02*
X113853202Y-101704684D01*
X113853202Y-101704684D02*
X113853202Y-100871351D01*
X113853202Y-100871351D02*
X113734154Y-100633256D01*
X113734154Y-100633256D02*
X113615107Y-100514208D01*
X113615107Y-100514208D02*
X113377011Y-100395161D01*
X113377011Y-100395161D02*
X113138916Y-100395161D01*
X113138916Y-100395161D02*
X112900821Y-100514208D01*
X112900821Y-100514208D02*
X112781773Y-100633256D01*
X112781773Y-100633256D02*
X112662726Y-100871351D01*
X112662726Y-100871351D02*
X112662726Y-101704684D01*
X111353202Y-98847542D02*
X111472250Y-99085637D01*
X111472250Y-99085637D02*
X111591297Y-99204684D01*
X111591297Y-99204684D02*
X111829392Y-99323732D01*
X111829392Y-99323732D02*
X112543678Y-99323732D01*
X112543678Y-99323732D02*
X112781773Y-99204684D01*
X112781773Y-99204684D02*
X112900821Y-99085637D01*
X112900821Y-99085637D02*
X113019869Y-98847542D01*
X113019869Y-98847542D02*
X113019869Y-98490399D01*
X113019869Y-98490399D02*
X112900821Y-98252303D01*
X112900821Y-98252303D02*
X112781773Y-98133256D01*
X112781773Y-98133256D02*
X112543678Y-98014208D01*
X112543678Y-98014208D02*
X111829392Y-98014208D01*
X111829392Y-98014208D02*
X111591297Y-98133256D01*
X111591297Y-98133256D02*
X111472250Y-98252303D01*
X111472250Y-98252303D02*
X111353202Y-98490399D01*
X111353202Y-98490399D02*
X111353202Y-98847542D01*
X111353202Y-95871351D02*
X112662726Y-95871351D01*
X112662726Y-95871351D02*
X112900821Y-95990398D01*
X112900821Y-95990398D02*
X113019869Y-96228494D01*
X113019869Y-96228494D02*
X113019869Y-96704684D01*
X113019869Y-96704684D02*
X112900821Y-96942779D01*
X111472250Y-95871351D02*
X111353202Y-96109446D01*
X111353202Y-96109446D02*
X111353202Y-96704684D01*
X111353202Y-96704684D02*
X111472250Y-96942779D01*
X111472250Y-96942779D02*
X111710345Y-97061827D01*
X111710345Y-97061827D02*
X111948440Y-97061827D01*
X111948440Y-97061827D02*
X112186535Y-96942779D01*
X112186535Y-96942779D02*
X112305583Y-96704684D01*
X112305583Y-96704684D02*
X112305583Y-96109446D01*
X112305583Y-96109446D02*
X112424630Y-95871351D01*
X111353202Y-94680874D02*
X113019869Y-94680874D01*
X112543678Y-94680874D02*
X112781773Y-94561827D01*
X112781773Y-94561827D02*
X112900821Y-94442779D01*
X112900821Y-94442779D02*
X113019869Y-94204684D01*
X113019869Y-94204684D02*
X113019869Y-93966589D01*
X111353202Y-92061827D02*
X113853202Y-92061827D01*
X111472250Y-92061827D02*
X111353202Y-92299922D01*
X111353202Y-92299922D02*
X111353202Y-92776113D01*
X111353202Y-92776113D02*
X111472250Y-93014208D01*
X111472250Y-93014208D02*
X111591297Y-93133255D01*
X111591297Y-93133255D02*
X111829392Y-93252303D01*
X111829392Y-93252303D02*
X112543678Y-93252303D01*
X112543678Y-93252303D02*
X112781773Y-93133255D01*
X112781773Y-93133255D02*
X112900821Y-93014208D01*
X112900821Y-93014208D02*
X113019869Y-92776113D01*
X113019869Y-92776113D02*
X113019869Y-92299922D01*
X113019869Y-92299922D02*
X112900821Y-92061827D01*
X111591297Y-87538017D02*
X111472250Y-87657065D01*
X111472250Y-87657065D02*
X111353202Y-88014207D01*
X111353202Y-88014207D02*
X111353202Y-88252303D01*
X111353202Y-88252303D02*
X111472250Y-88609446D01*
X111472250Y-88609446D02*
X111710345Y-88847541D01*
X111710345Y-88847541D02*
X111948440Y-88966588D01*
X111948440Y-88966588D02*
X112424630Y-89085636D01*
X112424630Y-89085636D02*
X112781773Y-89085636D01*
X112781773Y-89085636D02*
X113257964Y-88966588D01*
X113257964Y-88966588D02*
X113496059Y-88847541D01*
X113496059Y-88847541D02*
X113734154Y-88609446D01*
X113734154Y-88609446D02*
X113853202Y-88252303D01*
X113853202Y-88252303D02*
X113853202Y-88014207D01*
X113853202Y-88014207D02*
X113734154Y-87657065D01*
X113734154Y-87657065D02*
X113615107Y-87538017D01*
X113853202Y-86823731D02*
X111353202Y-85990398D01*
X111353202Y-85990398D02*
X113853202Y-85157065D01*
X113615107Y-84442779D02*
X113734154Y-84323731D01*
X113734154Y-84323731D02*
X113853202Y-84085636D01*
X113853202Y-84085636D02*
X113853202Y-83490398D01*
X113853202Y-83490398D02*
X113734154Y-83252303D01*
X113734154Y-83252303D02*
X113615107Y-83133255D01*
X113615107Y-83133255D02*
X113377011Y-83014208D01*
X113377011Y-83014208D02*
X113138916Y-83014208D01*
X113138916Y-83014208D02*
X112781773Y-83133255D01*
X112781773Y-83133255D02*
X111353202Y-84561827D01*
X111353202Y-84561827D02*
X111353202Y-83014208D01*
D11*
X109567464Y-115704684D02*
X109638892Y-115633256D01*
X109638892Y-115633256D02*
X109710321Y-115490399D01*
X109710321Y-115490399D02*
X109710321Y-115133256D01*
X109710321Y-115133256D02*
X109638892Y-114990399D01*
X109638892Y-114990399D02*
X109567464Y-114918970D01*
X109567464Y-114918970D02*
X109424607Y-114847541D01*
X109424607Y-114847541D02*
X109281750Y-114847541D01*
X109281750Y-114847541D02*
X109067464Y-114918970D01*
X109067464Y-114918970D02*
X108210321Y-115776113D01*
X108210321Y-115776113D02*
X108210321Y-114847541D01*
X109710321Y-113918970D02*
X109710321Y-113776113D01*
X109710321Y-113776113D02*
X109638892Y-113633256D01*
X109638892Y-113633256D02*
X109567464Y-113561828D01*
X109567464Y-113561828D02*
X109424607Y-113490399D01*
X109424607Y-113490399D02*
X109138892Y-113418970D01*
X109138892Y-113418970D02*
X108781750Y-113418970D01*
X108781750Y-113418970D02*
X108496035Y-113490399D01*
X108496035Y-113490399D02*
X108353178Y-113561828D01*
X108353178Y-113561828D02*
X108281750Y-113633256D01*
X108281750Y-113633256D02*
X108210321Y-113776113D01*
X108210321Y-113776113D02*
X108210321Y-113918970D01*
X108210321Y-113918970D02*
X108281750Y-114061828D01*
X108281750Y-114061828D02*
X108353178Y-114133256D01*
X108353178Y-114133256D02*
X108496035Y-114204685D01*
X108496035Y-114204685D02*
X108781750Y-114276113D01*
X108781750Y-114276113D02*
X109138892Y-114276113D01*
X109138892Y-114276113D02*
X109424607Y-114204685D01*
X109424607Y-114204685D02*
X109567464Y-114133256D01*
X109567464Y-114133256D02*
X109638892Y-114061828D01*
X109638892Y-114061828D02*
X109710321Y-113918970D01*
X109567464Y-112847542D02*
X109638892Y-112776114D01*
X109638892Y-112776114D02*
X109710321Y-112633257D01*
X109710321Y-112633257D02*
X109710321Y-112276114D01*
X109710321Y-112276114D02*
X109638892Y-112133257D01*
X109638892Y-112133257D02*
X109567464Y-112061828D01*
X109567464Y-112061828D02*
X109424607Y-111990399D01*
X109424607Y-111990399D02*
X109281750Y-111990399D01*
X109281750Y-111990399D02*
X109067464Y-112061828D01*
X109067464Y-112061828D02*
X108210321Y-112918971D01*
X108210321Y-112918971D02*
X108210321Y-111990399D01*
X109710321Y-111490400D02*
X109710321Y-110561828D01*
X109710321Y-110561828D02*
X109138892Y-111061828D01*
X109138892Y-111061828D02*
X109138892Y-110847543D01*
X109138892Y-110847543D02*
X109067464Y-110704686D01*
X109067464Y-110704686D02*
X108996035Y-110633257D01*
X108996035Y-110633257D02*
X108853178Y-110561828D01*
X108853178Y-110561828D02*
X108496035Y-110561828D01*
X108496035Y-110561828D02*
X108353178Y-110633257D01*
X108353178Y-110633257D02*
X108281750Y-110704686D01*
X108281750Y-110704686D02*
X108210321Y-110847543D01*
X108210321Y-110847543D02*
X108210321Y-111276114D01*
X108210321Y-111276114D02*
X108281750Y-111418971D01*
X108281750Y-111418971D02*
X108353178Y-111490400D01*
X108781750Y-109918972D02*
X108781750Y-108776115D01*
X108210321Y-107276114D02*
X108210321Y-108133257D01*
X108210321Y-107704686D02*
X109710321Y-107704686D01*
X109710321Y-107704686D02*
X109496035Y-107847543D01*
X109496035Y-107847543D02*
X109353178Y-107990400D01*
X109353178Y-107990400D02*
X109281750Y-108133257D01*
X108210321Y-105847543D02*
X108210321Y-106704686D01*
X108210321Y-106276115D02*
X109710321Y-106276115D01*
X109710321Y-106276115D02*
X109496035Y-106418972D01*
X109496035Y-106418972D02*
X109353178Y-106561829D01*
X109353178Y-106561829D02*
X109281750Y-106704686D01*
X108281750Y-105133258D02*
X108210321Y-105133258D01*
X108210321Y-105133258D02*
X108067464Y-105204687D01*
X108067464Y-105204687D02*
X107996035Y-105276115D01*
X108210321Y-103347544D02*
X109710321Y-103347544D01*
X108996035Y-103347544D02*
X108996035Y-102490401D01*
X108210321Y-102490401D02*
X109710321Y-102490401D01*
X108210321Y-101133258D02*
X108996035Y-101133258D01*
X108996035Y-101133258D02*
X109138892Y-101204686D01*
X109138892Y-101204686D02*
X109210321Y-101347543D01*
X109210321Y-101347543D02*
X109210321Y-101633258D01*
X109210321Y-101633258D02*
X109138892Y-101776115D01*
X108281750Y-101133258D02*
X108210321Y-101276115D01*
X108210321Y-101276115D02*
X108210321Y-101633258D01*
X108210321Y-101633258D02*
X108281750Y-101776115D01*
X108281750Y-101776115D02*
X108424607Y-101847543D01*
X108424607Y-101847543D02*
X108567464Y-101847543D01*
X108567464Y-101847543D02*
X108710321Y-101776115D01*
X108710321Y-101776115D02*
X108781750Y-101633258D01*
X108781750Y-101633258D02*
X108781750Y-101276115D01*
X108781750Y-101276115D02*
X108853178Y-101133258D01*
X109210321Y-100418972D02*
X108210321Y-100418972D01*
X109067464Y-100418972D02*
X109138892Y-100347543D01*
X109138892Y-100347543D02*
X109210321Y-100204686D01*
X109210321Y-100204686D02*
X109210321Y-99990400D01*
X109210321Y-99990400D02*
X109138892Y-99847543D01*
X109138892Y-99847543D02*
X108996035Y-99776115D01*
X108996035Y-99776115D02*
X108210321Y-99776115D01*
X108281750Y-99133257D02*
X108210321Y-98990400D01*
X108210321Y-98990400D02*
X108210321Y-98704686D01*
X108210321Y-98704686D02*
X108281750Y-98561829D01*
X108281750Y-98561829D02*
X108424607Y-98490400D01*
X108424607Y-98490400D02*
X108496035Y-98490400D01*
X108496035Y-98490400D02*
X108638892Y-98561829D01*
X108638892Y-98561829D02*
X108710321Y-98704686D01*
X108710321Y-98704686D02*
X108710321Y-98918972D01*
X108710321Y-98918972D02*
X108781750Y-99061829D01*
X108781750Y-99061829D02*
X108924607Y-99133257D01*
X108924607Y-99133257D02*
X108996035Y-99133257D01*
X108996035Y-99133257D02*
X109138892Y-99061829D01*
X109138892Y-99061829D02*
X109210321Y-98918972D01*
X109210321Y-98918972D02*
X109210321Y-98704686D01*
X109210321Y-98704686D02*
X109138892Y-98561829D01*
X108638892Y-96776114D02*
X108638892Y-96061829D01*
X108210321Y-96918971D02*
X109710321Y-96418971D01*
X109710321Y-96418971D02*
X108210321Y-95918971D01*
X108353178Y-95418972D02*
X108281750Y-95347543D01*
X108281750Y-95347543D02*
X108210321Y-95418972D01*
X108210321Y-95418972D02*
X108281750Y-95490400D01*
X108281750Y-95490400D02*
X108353178Y-95418972D01*
X108353178Y-95418972D02*
X108210321Y-95418972D01*
X108996035Y-93561829D02*
X108996035Y-93061829D01*
X108210321Y-92847543D02*
X108210321Y-93561829D01*
X108210321Y-93561829D02*
X109710321Y-93561829D01*
X109710321Y-93561829D02*
X109710321Y-92847543D01*
X109210321Y-92204686D02*
X108210321Y-92204686D01*
X109067464Y-92204686D02*
X109138892Y-92133257D01*
X109138892Y-92133257D02*
X109210321Y-91990400D01*
X109210321Y-91990400D02*
X109210321Y-91776114D01*
X109210321Y-91776114D02*
X109138892Y-91633257D01*
X109138892Y-91633257D02*
X108996035Y-91561829D01*
X108996035Y-91561829D02*
X108210321Y-91561829D01*
X109210321Y-90204686D02*
X107996035Y-90204686D01*
X107996035Y-90204686D02*
X107853178Y-90276114D01*
X107853178Y-90276114D02*
X107781750Y-90347543D01*
X107781750Y-90347543D02*
X107710321Y-90490400D01*
X107710321Y-90490400D02*
X107710321Y-90704686D01*
X107710321Y-90704686D02*
X107781750Y-90847543D01*
X108281750Y-90204686D02*
X108210321Y-90347543D01*
X108210321Y-90347543D02*
X108210321Y-90633257D01*
X108210321Y-90633257D02*
X108281750Y-90776114D01*
X108281750Y-90776114D02*
X108353178Y-90847543D01*
X108353178Y-90847543D02*
X108496035Y-90918971D01*
X108496035Y-90918971D02*
X108924607Y-90918971D01*
X108924607Y-90918971D02*
X109067464Y-90847543D01*
X109067464Y-90847543D02*
X109138892Y-90776114D01*
X109138892Y-90776114D02*
X109210321Y-90633257D01*
X109210321Y-90633257D02*
X109210321Y-90347543D01*
X109210321Y-90347543D02*
X109138892Y-90204686D01*
X108210321Y-89490400D02*
X109210321Y-89490400D01*
X109067464Y-89490400D02*
X109138892Y-89418971D01*
X109138892Y-89418971D02*
X109210321Y-89276114D01*
X109210321Y-89276114D02*
X109210321Y-89061828D01*
X109210321Y-89061828D02*
X109138892Y-88918971D01*
X109138892Y-88918971D02*
X108996035Y-88847543D01*
X108996035Y-88847543D02*
X108210321Y-88847543D01*
X108996035Y-88847543D02*
X109138892Y-88776114D01*
X109138892Y-88776114D02*
X109210321Y-88633257D01*
X109210321Y-88633257D02*
X109210321Y-88418971D01*
X109210321Y-88418971D02*
X109138892Y-88276114D01*
X109138892Y-88276114D02*
X108996035Y-88204685D01*
X108996035Y-88204685D02*
X108210321Y-88204685D01*
X108210321Y-86847543D02*
X108996035Y-86847543D01*
X108996035Y-86847543D02*
X109138892Y-86918971D01*
X109138892Y-86918971D02*
X109210321Y-87061828D01*
X109210321Y-87061828D02*
X109210321Y-87347543D01*
X109210321Y-87347543D02*
X109138892Y-87490400D01*
X108281750Y-86847543D02*
X108210321Y-86990400D01*
X108210321Y-86990400D02*
X108210321Y-87347543D01*
X108210321Y-87347543D02*
X108281750Y-87490400D01*
X108281750Y-87490400D02*
X108424607Y-87561828D01*
X108424607Y-87561828D02*
X108567464Y-87561828D01*
X108567464Y-87561828D02*
X108710321Y-87490400D01*
X108710321Y-87490400D02*
X108781750Y-87347543D01*
X108781750Y-87347543D02*
X108781750Y-86990400D01*
X108781750Y-86990400D02*
X108853178Y-86847543D01*
X108210321Y-86133257D02*
X109210321Y-86133257D01*
X108924607Y-86133257D02*
X109067464Y-86061828D01*
X109067464Y-86061828D02*
X109138892Y-85990400D01*
X109138892Y-85990400D02*
X109210321Y-85847542D01*
X109210321Y-85847542D02*
X109210321Y-85704685D01*
X108210321Y-85204686D02*
X109710321Y-85204686D01*
X108781750Y-85061829D02*
X108210321Y-84633257D01*
X109210321Y-84633257D02*
X108638892Y-85204686D01*
X108281750Y-83918971D02*
X108210321Y-83918971D01*
X108210321Y-83918971D02*
X108067464Y-83990400D01*
X108067464Y-83990400D02*
X107996035Y-84061828D01*
X107295321Y-107490398D02*
X106223892Y-107490398D01*
X106223892Y-107490398D02*
X106009607Y-107561827D01*
X106009607Y-107561827D02*
X105866750Y-107704684D01*
X105866750Y-107704684D02*
X105795321Y-107918970D01*
X105795321Y-107918970D02*
X105795321Y-108061827D01*
X105795321Y-106776113D02*
X107295321Y-106776113D01*
X105795321Y-106133256D02*
X106581035Y-106133256D01*
X106581035Y-106133256D02*
X106723892Y-106204684D01*
X106723892Y-106204684D02*
X106795321Y-106347541D01*
X106795321Y-106347541D02*
X106795321Y-106561827D01*
X106795321Y-106561827D02*
X106723892Y-106704684D01*
X106723892Y-106704684D02*
X106652464Y-106776113D01*
X107295321Y-104490398D02*
X107295321Y-103633256D01*
X105795321Y-104061827D02*
X107295321Y-104061827D01*
X105866750Y-102561827D02*
X105795321Y-102704684D01*
X105795321Y-102704684D02*
X105795321Y-102990399D01*
X105795321Y-102990399D02*
X105866750Y-103133256D01*
X105866750Y-103133256D02*
X106009607Y-103204684D01*
X106009607Y-103204684D02*
X106581035Y-103204684D01*
X106581035Y-103204684D02*
X106723892Y-103133256D01*
X106723892Y-103133256D02*
X106795321Y-102990399D01*
X106795321Y-102990399D02*
X106795321Y-102704684D01*
X106795321Y-102704684D02*
X106723892Y-102561827D01*
X106723892Y-102561827D02*
X106581035Y-102490399D01*
X106581035Y-102490399D02*
X106438178Y-102490399D01*
X106438178Y-102490399D02*
X106295321Y-103204684D01*
X105866750Y-101204685D02*
X105795321Y-101347542D01*
X105795321Y-101347542D02*
X105795321Y-101633256D01*
X105795321Y-101633256D02*
X105866750Y-101776113D01*
X105866750Y-101776113D02*
X105938178Y-101847542D01*
X105938178Y-101847542D02*
X106081035Y-101918970D01*
X106081035Y-101918970D02*
X106509607Y-101918970D01*
X106509607Y-101918970D02*
X106652464Y-101847542D01*
X106652464Y-101847542D02*
X106723892Y-101776113D01*
X106723892Y-101776113D02*
X106795321Y-101633256D01*
X106795321Y-101633256D02*
X106795321Y-101347542D01*
X106795321Y-101347542D02*
X106723892Y-101204685D01*
X105795321Y-100561828D02*
X107295321Y-100561828D01*
X105795321Y-99918971D02*
X106581035Y-99918971D01*
X106581035Y-99918971D02*
X106723892Y-99990399D01*
X106723892Y-99990399D02*
X106795321Y-100133256D01*
X106795321Y-100133256D02*
X106795321Y-100347542D01*
X106795321Y-100347542D02*
X106723892Y-100490399D01*
X106723892Y-100490399D02*
X106652464Y-100561828D01*
X106795321Y-99204685D02*
X105795321Y-99204685D01*
X106652464Y-99204685D02*
X106723892Y-99133256D01*
X106723892Y-99133256D02*
X106795321Y-98990399D01*
X106795321Y-98990399D02*
X106795321Y-98776113D01*
X106795321Y-98776113D02*
X106723892Y-98633256D01*
X106723892Y-98633256D02*
X106581035Y-98561828D01*
X106581035Y-98561828D02*
X105795321Y-98561828D01*
X105795321Y-97847542D02*
X106795321Y-97847542D01*
X107295321Y-97847542D02*
X107223892Y-97918970D01*
X107223892Y-97918970D02*
X107152464Y-97847542D01*
X107152464Y-97847542D02*
X107223892Y-97776113D01*
X107223892Y-97776113D02*
X107295321Y-97847542D01*
X107295321Y-97847542D02*
X107152464Y-97847542D01*
X105866750Y-96490399D02*
X105795321Y-96633256D01*
X105795321Y-96633256D02*
X105795321Y-96918970D01*
X105795321Y-96918970D02*
X105866750Y-97061827D01*
X105866750Y-97061827D02*
X105938178Y-97133256D01*
X105938178Y-97133256D02*
X106081035Y-97204684D01*
X106081035Y-97204684D02*
X106509607Y-97204684D01*
X106509607Y-97204684D02*
X106652464Y-97133256D01*
X106652464Y-97133256D02*
X106723892Y-97061827D01*
X106723892Y-97061827D02*
X106795321Y-96918970D01*
X106795321Y-96918970D02*
X106795321Y-96633256D01*
X106795321Y-96633256D02*
X106723892Y-96490399D01*
X105795321Y-95204685D02*
X106581035Y-95204685D01*
X106581035Y-95204685D02*
X106723892Y-95276113D01*
X106723892Y-95276113D02*
X106795321Y-95418970D01*
X106795321Y-95418970D02*
X106795321Y-95704685D01*
X106795321Y-95704685D02*
X106723892Y-95847542D01*
X105866750Y-95204685D02*
X105795321Y-95347542D01*
X105795321Y-95347542D02*
X105795321Y-95704685D01*
X105795321Y-95704685D02*
X105866750Y-95847542D01*
X105866750Y-95847542D02*
X106009607Y-95918970D01*
X106009607Y-95918970D02*
X106152464Y-95918970D01*
X106152464Y-95918970D02*
X106295321Y-95847542D01*
X106295321Y-95847542D02*
X106366750Y-95704685D01*
X106366750Y-95704685D02*
X106366750Y-95347542D01*
X106366750Y-95347542D02*
X106438178Y-95204685D01*
X105795321Y-94276113D02*
X105866750Y-94418970D01*
X105866750Y-94418970D02*
X106009607Y-94490399D01*
X106009607Y-94490399D02*
X107295321Y-94490399D01*
X106223892Y-92633256D02*
X106223892Y-91918971D01*
X105795321Y-92776113D02*
X107295321Y-92276113D01*
X107295321Y-92276113D02*
X105795321Y-91776113D01*
X105866750Y-91347542D02*
X105795321Y-91133257D01*
X105795321Y-91133257D02*
X105795321Y-90776114D01*
X105795321Y-90776114D02*
X105866750Y-90633257D01*
X105866750Y-90633257D02*
X105938178Y-90561828D01*
X105938178Y-90561828D02*
X106081035Y-90490399D01*
X106081035Y-90490399D02*
X106223892Y-90490399D01*
X106223892Y-90490399D02*
X106366750Y-90561828D01*
X106366750Y-90561828D02*
X106438178Y-90633257D01*
X106438178Y-90633257D02*
X106509607Y-90776114D01*
X106509607Y-90776114D02*
X106581035Y-91061828D01*
X106581035Y-91061828D02*
X106652464Y-91204685D01*
X106652464Y-91204685D02*
X106723892Y-91276114D01*
X106723892Y-91276114D02*
X106866750Y-91347542D01*
X106866750Y-91347542D02*
X107009607Y-91347542D01*
X107009607Y-91347542D02*
X107152464Y-91276114D01*
X107152464Y-91276114D02*
X107223892Y-91204685D01*
X107223892Y-91204685D02*
X107295321Y-91061828D01*
X107295321Y-91061828D02*
X107295321Y-90704685D01*
X107295321Y-90704685D02*
X107223892Y-90490399D01*
D12*
X143066666Y-71199980D02*
X143114285Y-71247600D01*
X143114285Y-71247600D02*
X143257142Y-71295219D01*
X143257142Y-71295219D02*
X143352380Y-71295219D01*
X143352380Y-71295219D02*
X143495237Y-71247600D01*
X143495237Y-71247600D02*
X143590475Y-71152361D01*
X143590475Y-71152361D02*
X143638094Y-71057123D01*
X143638094Y-71057123D02*
X143685713Y-70866647D01*
X143685713Y-70866647D02*
X143685713Y-70723790D01*
X143685713Y-70723790D02*
X143638094Y-70533314D01*
X143638094Y-70533314D02*
X143590475Y-70438076D01*
X143590475Y-70438076D02*
X143495237Y-70342838D01*
X143495237Y-70342838D02*
X143352380Y-70295219D01*
X143352380Y-70295219D02*
X143257142Y-70295219D01*
X143257142Y-70295219D02*
X143114285Y-70342838D01*
X143114285Y-70342838D02*
X143066666Y-70390457D01*
X142114285Y-71295219D02*
X142685713Y-71295219D01*
X142399999Y-71295219D02*
X142399999Y-70295219D01*
X142399999Y-70295219D02*
X142495237Y-70438076D01*
X142495237Y-70438076D02*
X142590475Y-70533314D01*
X142590475Y-70533314D02*
X142685713Y-70580933D01*
X176242857Y-90999980D02*
X176290476Y-91047600D01*
X176290476Y-91047600D02*
X176433333Y-91095219D01*
X176433333Y-91095219D02*
X176528571Y-91095219D01*
X176528571Y-91095219D02*
X176671428Y-91047600D01*
X176671428Y-91047600D02*
X176766666Y-90952361D01*
X176766666Y-90952361D02*
X176814285Y-90857123D01*
X176814285Y-90857123D02*
X176861904Y-90666647D01*
X176861904Y-90666647D02*
X176861904Y-90523790D01*
X176861904Y-90523790D02*
X176814285Y-90333314D01*
X176814285Y-90333314D02*
X176766666Y-90238076D01*
X176766666Y-90238076D02*
X176671428Y-90142838D01*
X176671428Y-90142838D02*
X176528571Y-90095219D01*
X176528571Y-90095219D02*
X176433333Y-90095219D01*
X176433333Y-90095219D02*
X176290476Y-90142838D01*
X176290476Y-90142838D02*
X176242857Y-90190457D01*
X175290476Y-91095219D02*
X175861904Y-91095219D01*
X175576190Y-91095219D02*
X175576190Y-90095219D01*
X175576190Y-90095219D02*
X175671428Y-90238076D01*
X175671428Y-90238076D02*
X175766666Y-90333314D01*
X175766666Y-90333314D02*
X175861904Y-90380933D01*
X174909523Y-90190457D02*
X174861904Y-90142838D01*
X174861904Y-90142838D02*
X174766666Y-90095219D01*
X174766666Y-90095219D02*
X174528571Y-90095219D01*
X174528571Y-90095219D02*
X174433333Y-90142838D01*
X174433333Y-90142838D02*
X174385714Y-90190457D01*
X174385714Y-90190457D02*
X174338095Y-90285695D01*
X174338095Y-90285695D02*
X174338095Y-90380933D01*
X174338095Y-90380933D02*
X174385714Y-90523790D01*
X174385714Y-90523790D02*
X174957142Y-91095219D01*
X174957142Y-91095219D02*
X174338095Y-91095219D01*
X181466666Y-115995219D02*
X181799999Y-115519028D01*
X182038094Y-115995219D02*
X182038094Y-114995219D01*
X182038094Y-114995219D02*
X181657142Y-114995219D01*
X181657142Y-114995219D02*
X181561904Y-115042838D01*
X181561904Y-115042838D02*
X181514285Y-115090457D01*
X181514285Y-115090457D02*
X181466666Y-115185695D01*
X181466666Y-115185695D02*
X181466666Y-115328552D01*
X181466666Y-115328552D02*
X181514285Y-115423790D01*
X181514285Y-115423790D02*
X181561904Y-115471409D01*
X181561904Y-115471409D02*
X181657142Y-115519028D01*
X181657142Y-115519028D02*
X182038094Y-115519028D01*
X180514285Y-115995219D02*
X181085713Y-115995219D01*
X180799999Y-115995219D02*
X180799999Y-114995219D01*
X180799999Y-114995219D02*
X180895237Y-115138076D01*
X180895237Y-115138076D02*
X180990475Y-115233314D01*
X180990475Y-115233314D02*
X181085713Y-115280933D01*
X161659866Y-121873180D02*
X161707485Y-121920800D01*
X161707485Y-121920800D02*
X161850342Y-121968419D01*
X161850342Y-121968419D02*
X161945580Y-121968419D01*
X161945580Y-121968419D02*
X162088437Y-121920800D01*
X162088437Y-121920800D02*
X162183675Y-121825561D01*
X162183675Y-121825561D02*
X162231294Y-121730323D01*
X162231294Y-121730323D02*
X162278913Y-121539847D01*
X162278913Y-121539847D02*
X162278913Y-121396990D01*
X162278913Y-121396990D02*
X162231294Y-121206514D01*
X162231294Y-121206514D02*
X162183675Y-121111276D01*
X162183675Y-121111276D02*
X162088437Y-121016038D01*
X162088437Y-121016038D02*
X161945580Y-120968419D01*
X161945580Y-120968419D02*
X161850342Y-120968419D01*
X161850342Y-120968419D02*
X161707485Y-121016038D01*
X161707485Y-121016038D02*
X161659866Y-121063657D01*
X161326532Y-120968419D02*
X160659866Y-120968419D01*
X160659866Y-120968419D02*
X161088437Y-121968419D01*
X127249999Y-95457200D02*
X127107142Y-95504819D01*
X127107142Y-95504819D02*
X126869047Y-95504819D01*
X126869047Y-95504819D02*
X126773809Y-95457200D01*
X126773809Y-95457200D02*
X126726190Y-95409580D01*
X126726190Y-95409580D02*
X126678571Y-95314342D01*
X126678571Y-95314342D02*
X126678571Y-95219104D01*
X126678571Y-95219104D02*
X126726190Y-95123866D01*
X126726190Y-95123866D02*
X126773809Y-95076247D01*
X126773809Y-95076247D02*
X126869047Y-95028628D01*
X126869047Y-95028628D02*
X127059523Y-94981009D01*
X127059523Y-94981009D02*
X127154761Y-94933390D01*
X127154761Y-94933390D02*
X127202380Y-94885771D01*
X127202380Y-94885771D02*
X127249999Y-94790533D01*
X127249999Y-94790533D02*
X127249999Y-94695295D01*
X127249999Y-94695295D02*
X127202380Y-94600057D01*
X127202380Y-94600057D02*
X127154761Y-94552438D01*
X127154761Y-94552438D02*
X127059523Y-94504819D01*
X127059523Y-94504819D02*
X126821428Y-94504819D01*
X126821428Y-94504819D02*
X126678571Y-94552438D01*
X126107142Y-95504819D02*
X126202380Y-95457200D01*
X126202380Y-95457200D02*
X126249999Y-95409580D01*
X126249999Y-95409580D02*
X126297618Y-95314342D01*
X126297618Y-95314342D02*
X126297618Y-95028628D01*
X126297618Y-95028628D02*
X126249999Y-94933390D01*
X126249999Y-94933390D02*
X126202380Y-94885771D01*
X126202380Y-94885771D02*
X126107142Y-94838152D01*
X126107142Y-94838152D02*
X125964285Y-94838152D01*
X125964285Y-94838152D02*
X125869047Y-94885771D01*
X125869047Y-94885771D02*
X125821428Y-94933390D01*
X125821428Y-94933390D02*
X125773809Y-95028628D01*
X125773809Y-95028628D02*
X125773809Y-95314342D01*
X125773809Y-95314342D02*
X125821428Y-95409580D01*
X125821428Y-95409580D02*
X125869047Y-95457200D01*
X125869047Y-95457200D02*
X125964285Y-95504819D01*
X125964285Y-95504819D02*
X126107142Y-95504819D01*
X125202380Y-95504819D02*
X125297618Y-95457200D01*
X125297618Y-95457200D02*
X125345237Y-95361961D01*
X125345237Y-95361961D02*
X125345237Y-94504819D01*
X132466666Y-71199980D02*
X132514285Y-71247600D01*
X132514285Y-71247600D02*
X132657142Y-71295219D01*
X132657142Y-71295219D02*
X132752380Y-71295219D01*
X132752380Y-71295219D02*
X132895237Y-71247600D01*
X132895237Y-71247600D02*
X132990475Y-71152361D01*
X132990475Y-71152361D02*
X133038094Y-71057123D01*
X133038094Y-71057123D02*
X133085713Y-70866647D01*
X133085713Y-70866647D02*
X133085713Y-70723790D01*
X133085713Y-70723790D02*
X133038094Y-70533314D01*
X133038094Y-70533314D02*
X132990475Y-70438076D01*
X132990475Y-70438076D02*
X132895237Y-70342838D01*
X132895237Y-70342838D02*
X132752380Y-70295219D01*
X132752380Y-70295219D02*
X132657142Y-70295219D01*
X132657142Y-70295219D02*
X132514285Y-70342838D01*
X132514285Y-70342838D02*
X132466666Y-70390457D01*
X131609523Y-70628552D02*
X131609523Y-71295219D01*
X131847618Y-70247600D02*
X132085713Y-70961885D01*
X132085713Y-70961885D02*
X131466666Y-70961885D01*
X135254819Y-129930876D02*
X134254819Y-129930876D01*
X134254819Y-129930876D02*
X134969104Y-130264209D01*
X134969104Y-130264209D02*
X134254819Y-130597542D01*
X134254819Y-130597542D02*
X135254819Y-130597542D01*
X134254819Y-130978495D02*
X134254819Y-131597542D01*
X134254819Y-131597542D02*
X134635771Y-131264209D01*
X134635771Y-131264209D02*
X134635771Y-131407066D01*
X134635771Y-131407066D02*
X134683390Y-131502304D01*
X134683390Y-131502304D02*
X134731009Y-131549923D01*
X134731009Y-131549923D02*
X134826247Y-131597542D01*
X134826247Y-131597542D02*
X135064342Y-131597542D01*
X135064342Y-131597542D02*
X135159580Y-131549923D01*
X135159580Y-131549923D02*
X135207200Y-131502304D01*
X135207200Y-131502304D02*
X135254819Y-131407066D01*
X135254819Y-131407066D02*
X135254819Y-131121352D01*
X135254819Y-131121352D02*
X135207200Y-131026114D01*
X135207200Y-131026114D02*
X135159580Y-130978495D01*
X132209523Y-89795219D02*
X132209523Y-88795219D01*
X132209523Y-88795219D02*
X131876190Y-89509504D01*
X131876190Y-89509504D02*
X131542857Y-88795219D01*
X131542857Y-88795219D02*
X131542857Y-89795219D01*
X130638095Y-89128552D02*
X130638095Y-89795219D01*
X130876190Y-88747600D02*
X131114285Y-89461885D01*
X131114285Y-89461885D02*
X130495238Y-89461885D01*
X119761904Y-67254819D02*
X119761904Y-66254819D01*
X119761904Y-66254819D02*
X119380952Y-66254819D01*
X119380952Y-66254819D02*
X119285714Y-66302438D01*
X119285714Y-66302438D02*
X119238095Y-66350057D01*
X119238095Y-66350057D02*
X119190476Y-66445295D01*
X119190476Y-66445295D02*
X119190476Y-66588152D01*
X119190476Y-66588152D02*
X119238095Y-66683390D01*
X119238095Y-66683390D02*
X119285714Y-66731009D01*
X119285714Y-66731009D02*
X119380952Y-66778628D01*
X119380952Y-66778628D02*
X119761904Y-66778628D01*
X118761904Y-67254819D02*
X118761904Y-66254819D01*
X118761904Y-66254819D02*
X118428571Y-66969104D01*
X118428571Y-66969104D02*
X118095238Y-66254819D01*
X118095238Y-66254819D02*
X118095238Y-67254819D01*
X117666666Y-66969104D02*
X117190476Y-66969104D01*
X117761904Y-67254819D02*
X117428571Y-66254819D01*
X117428571Y-66254819D02*
X117095238Y-67254819D01*
X116238095Y-66302438D02*
X116333333Y-66254819D01*
X116333333Y-66254819D02*
X116476190Y-66254819D01*
X116476190Y-66254819D02*
X116619047Y-66302438D01*
X116619047Y-66302438D02*
X116714285Y-66397676D01*
X116714285Y-66397676D02*
X116761904Y-66492914D01*
X116761904Y-66492914D02*
X116809523Y-66683390D01*
X116809523Y-66683390D02*
X116809523Y-66826247D01*
X116809523Y-66826247D02*
X116761904Y-67016723D01*
X116761904Y-67016723D02*
X116714285Y-67111961D01*
X116714285Y-67111961D02*
X116619047Y-67207200D01*
X116619047Y-67207200D02*
X116476190Y-67254819D01*
X116476190Y-67254819D02*
X116380952Y-67254819D01*
X116380952Y-67254819D02*
X116238095Y-67207200D01*
X116238095Y-67207200D02*
X116190476Y-67159580D01*
X116190476Y-67159580D02*
X116190476Y-66826247D01*
X116190476Y-66826247D02*
X116380952Y-66826247D01*
X116466666Y-91399980D02*
X116514285Y-91447600D01*
X116514285Y-91447600D02*
X116657142Y-91495219D01*
X116657142Y-91495219D02*
X116752380Y-91495219D01*
X116752380Y-91495219D02*
X116895237Y-91447600D01*
X116895237Y-91447600D02*
X116990475Y-91352361D01*
X116990475Y-91352361D02*
X117038094Y-91257123D01*
X117038094Y-91257123D02*
X117085713Y-91066647D01*
X117085713Y-91066647D02*
X117085713Y-90923790D01*
X117085713Y-90923790D02*
X117038094Y-90733314D01*
X117038094Y-90733314D02*
X116990475Y-90638076D01*
X116990475Y-90638076D02*
X116895237Y-90542838D01*
X116895237Y-90542838D02*
X116752380Y-90495219D01*
X116752380Y-90495219D02*
X116657142Y-90495219D01*
X116657142Y-90495219D02*
X116514285Y-90542838D01*
X116514285Y-90542838D02*
X116466666Y-90590457D01*
X115895237Y-90923790D02*
X115990475Y-90876171D01*
X115990475Y-90876171D02*
X116038094Y-90828552D01*
X116038094Y-90828552D02*
X116085713Y-90733314D01*
X116085713Y-90733314D02*
X116085713Y-90685695D01*
X116085713Y-90685695D02*
X116038094Y-90590457D01*
X116038094Y-90590457D02*
X115990475Y-90542838D01*
X115990475Y-90542838D02*
X115895237Y-90495219D01*
X115895237Y-90495219D02*
X115704761Y-90495219D01*
X115704761Y-90495219D02*
X115609523Y-90542838D01*
X115609523Y-90542838D02*
X115561904Y-90590457D01*
X115561904Y-90590457D02*
X115514285Y-90685695D01*
X115514285Y-90685695D02*
X115514285Y-90733314D01*
X115514285Y-90733314D02*
X115561904Y-90828552D01*
X115561904Y-90828552D02*
X115609523Y-90876171D01*
X115609523Y-90876171D02*
X115704761Y-90923790D01*
X115704761Y-90923790D02*
X115895237Y-90923790D01*
X115895237Y-90923790D02*
X115990475Y-90971409D01*
X115990475Y-90971409D02*
X116038094Y-91019028D01*
X116038094Y-91019028D02*
X116085713Y-91114266D01*
X116085713Y-91114266D02*
X116085713Y-91304742D01*
X116085713Y-91304742D02*
X116038094Y-91399980D01*
X116038094Y-91399980D02*
X115990475Y-91447600D01*
X115990475Y-91447600D02*
X115895237Y-91495219D01*
X115895237Y-91495219D02*
X115704761Y-91495219D01*
X115704761Y-91495219D02*
X115609523Y-91447600D01*
X115609523Y-91447600D02*
X115561904Y-91399980D01*
X115561904Y-91399980D02*
X115514285Y-91304742D01*
X115514285Y-91304742D02*
X115514285Y-91114266D01*
X115514285Y-91114266D02*
X115561904Y-91019028D01*
X115561904Y-91019028D02*
X115609523Y-90971409D01*
X115609523Y-90971409D02*
X115704761Y-90923790D01*
X188042857Y-115799980D02*
X188090476Y-115847600D01*
X188090476Y-115847600D02*
X188233333Y-115895219D01*
X188233333Y-115895219D02*
X188328571Y-115895219D01*
X188328571Y-115895219D02*
X188471428Y-115847600D01*
X188471428Y-115847600D02*
X188566666Y-115752361D01*
X188566666Y-115752361D02*
X188614285Y-115657123D01*
X188614285Y-115657123D02*
X188661904Y-115466647D01*
X188661904Y-115466647D02*
X188661904Y-115323790D01*
X188661904Y-115323790D02*
X188614285Y-115133314D01*
X188614285Y-115133314D02*
X188566666Y-115038076D01*
X188566666Y-115038076D02*
X188471428Y-114942838D01*
X188471428Y-114942838D02*
X188328571Y-114895219D01*
X188328571Y-114895219D02*
X188233333Y-114895219D01*
X188233333Y-114895219D02*
X188090476Y-114942838D01*
X188090476Y-114942838D02*
X188042857Y-114990457D01*
X187090476Y-115895219D02*
X187661904Y-115895219D01*
X187376190Y-115895219D02*
X187376190Y-114895219D01*
X187376190Y-114895219D02*
X187471428Y-115038076D01*
X187471428Y-115038076D02*
X187566666Y-115133314D01*
X187566666Y-115133314D02*
X187661904Y-115180933D01*
X186233333Y-115228552D02*
X186233333Y-115895219D01*
X186471428Y-114847600D02*
X186709523Y-115561885D01*
X186709523Y-115561885D02*
X186090476Y-115561885D01*
X147208950Y-75453047D02*
X147066093Y-75500666D01*
X147066093Y-75500666D02*
X146827998Y-75500666D01*
X146827998Y-75500666D02*
X146732760Y-75453047D01*
X146732760Y-75453047D02*
X146685141Y-75405427D01*
X146685141Y-75405427D02*
X146637522Y-75310189D01*
X146637522Y-75310189D02*
X146637522Y-75214951D01*
X146637522Y-75214951D02*
X146685141Y-75119713D01*
X146685141Y-75119713D02*
X146732760Y-75072094D01*
X146732760Y-75072094D02*
X146827998Y-75024475D01*
X146827998Y-75024475D02*
X147018474Y-74976856D01*
X147018474Y-74976856D02*
X147113712Y-74929237D01*
X147113712Y-74929237D02*
X147161331Y-74881618D01*
X147161331Y-74881618D02*
X147208950Y-74786380D01*
X147208950Y-74786380D02*
X147208950Y-74691142D01*
X147208950Y-74691142D02*
X147161331Y-74595904D01*
X147161331Y-74595904D02*
X147113712Y-74548285D01*
X147113712Y-74548285D02*
X147018474Y-74500666D01*
X147018474Y-74500666D02*
X146780379Y-74500666D01*
X146780379Y-74500666D02*
X146637522Y-74548285D01*
X146066093Y-75500666D02*
X146161331Y-75453047D01*
X146161331Y-75453047D02*
X146208950Y-75405427D01*
X146208950Y-75405427D02*
X146256569Y-75310189D01*
X146256569Y-75310189D02*
X146256569Y-75024475D01*
X146256569Y-75024475D02*
X146208950Y-74929237D01*
X146208950Y-74929237D02*
X146161331Y-74881618D01*
X146161331Y-74881618D02*
X146066093Y-74833999D01*
X146066093Y-74833999D02*
X145923236Y-74833999D01*
X145923236Y-74833999D02*
X145827998Y-74881618D01*
X145827998Y-74881618D02*
X145780379Y-74929237D01*
X145780379Y-74929237D02*
X145732760Y-75024475D01*
X145732760Y-75024475D02*
X145732760Y-75310189D01*
X145732760Y-75310189D02*
X145780379Y-75405427D01*
X145780379Y-75405427D02*
X145827998Y-75453047D01*
X145827998Y-75453047D02*
X145923236Y-75500666D01*
X145923236Y-75500666D02*
X146066093Y-75500666D01*
X145161331Y-75500666D02*
X145256569Y-75453047D01*
X145256569Y-75453047D02*
X145304188Y-75357808D01*
X145304188Y-75357808D02*
X145304188Y-74500666D01*
X131454819Y-75878495D02*
X132264342Y-75878495D01*
X132264342Y-75878495D02*
X132359580Y-75926114D01*
X132359580Y-75926114D02*
X132407200Y-75973733D01*
X132407200Y-75973733D02*
X132454819Y-76068971D01*
X132454819Y-76068971D02*
X132454819Y-76259447D01*
X132454819Y-76259447D02*
X132407200Y-76354685D01*
X132407200Y-76354685D02*
X132359580Y-76402304D01*
X132359580Y-76402304D02*
X132264342Y-76449923D01*
X132264342Y-76449923D02*
X131454819Y-76449923D01*
X131550057Y-76878495D02*
X131502438Y-76926114D01*
X131502438Y-76926114D02*
X131454819Y-77021352D01*
X131454819Y-77021352D02*
X131454819Y-77259447D01*
X131454819Y-77259447D02*
X131502438Y-77354685D01*
X131502438Y-77354685D02*
X131550057Y-77402304D01*
X131550057Y-77402304D02*
X131645295Y-77449923D01*
X131645295Y-77449923D02*
X131740533Y-77449923D01*
X131740533Y-77449923D02*
X131883390Y-77402304D01*
X131883390Y-77402304D02*
X132454819Y-76830876D01*
X132454819Y-76830876D02*
X132454819Y-77449923D01*
X123942857Y-117299980D02*
X123990476Y-117347600D01*
X123990476Y-117347600D02*
X124133333Y-117395219D01*
X124133333Y-117395219D02*
X124228571Y-117395219D01*
X124228571Y-117395219D02*
X124371428Y-117347600D01*
X124371428Y-117347600D02*
X124466666Y-117252361D01*
X124466666Y-117252361D02*
X124514285Y-117157123D01*
X124514285Y-117157123D02*
X124561904Y-116966647D01*
X124561904Y-116966647D02*
X124561904Y-116823790D01*
X124561904Y-116823790D02*
X124514285Y-116633314D01*
X124514285Y-116633314D02*
X124466666Y-116538076D01*
X124466666Y-116538076D02*
X124371428Y-116442838D01*
X124371428Y-116442838D02*
X124228571Y-116395219D01*
X124228571Y-116395219D02*
X124133333Y-116395219D01*
X124133333Y-116395219D02*
X123990476Y-116442838D01*
X123990476Y-116442838D02*
X123942857Y-116490457D01*
X122990476Y-117395219D02*
X123561904Y-117395219D01*
X123276190Y-117395219D02*
X123276190Y-116395219D01*
X123276190Y-116395219D02*
X123371428Y-116538076D01*
X123371428Y-116538076D02*
X123466666Y-116633314D01*
X123466666Y-116633314D02*
X123561904Y-116680933D01*
X122371428Y-116395219D02*
X122276190Y-116395219D01*
X122276190Y-116395219D02*
X122180952Y-116442838D01*
X122180952Y-116442838D02*
X122133333Y-116490457D01*
X122133333Y-116490457D02*
X122085714Y-116585695D01*
X122085714Y-116585695D02*
X122038095Y-116776171D01*
X122038095Y-116776171D02*
X122038095Y-117014266D01*
X122038095Y-117014266D02*
X122085714Y-117204742D01*
X122085714Y-117204742D02*
X122133333Y-117299980D01*
X122133333Y-117299980D02*
X122180952Y-117347600D01*
X122180952Y-117347600D02*
X122276190Y-117395219D01*
X122276190Y-117395219D02*
X122371428Y-117395219D01*
X122371428Y-117395219D02*
X122466666Y-117347600D01*
X122466666Y-117347600D02*
X122514285Y-117299980D01*
X122514285Y-117299980D02*
X122561904Y-117204742D01*
X122561904Y-117204742D02*
X122609523Y-117014266D01*
X122609523Y-117014266D02*
X122609523Y-116776171D01*
X122609523Y-116776171D02*
X122561904Y-116585695D01*
X122561904Y-116585695D02*
X122514285Y-116490457D01*
X122514285Y-116490457D02*
X122466666Y-116442838D01*
X122466666Y-116442838D02*
X122371428Y-116395219D01*
X139263333Y-84485219D02*
X139263333Y-85199504D01*
X139263333Y-85199504D02*
X139310952Y-85342361D01*
X139310952Y-85342361D02*
X139406190Y-85437600D01*
X139406190Y-85437600D02*
X139549047Y-85485219D01*
X139549047Y-85485219D02*
X139644285Y-85485219D01*
X138882380Y-84485219D02*
X138263333Y-84485219D01*
X138263333Y-84485219D02*
X138596666Y-84866171D01*
X138596666Y-84866171D02*
X138453809Y-84866171D01*
X138453809Y-84866171D02*
X138358571Y-84913790D01*
X138358571Y-84913790D02*
X138310952Y-84961409D01*
X138310952Y-84961409D02*
X138263333Y-85056647D01*
X138263333Y-85056647D02*
X138263333Y-85294742D01*
X138263333Y-85294742D02*
X138310952Y-85389980D01*
X138310952Y-85389980D02*
X138358571Y-85437600D01*
X138358571Y-85437600D02*
X138453809Y-85485219D01*
X138453809Y-85485219D02*
X138739523Y-85485219D01*
X138739523Y-85485219D02*
X138834761Y-85437600D01*
X138834761Y-85437600D02*
X138882380Y-85389980D01*
X176261904Y-132195219D02*
X176261904Y-131195219D01*
X176261904Y-131195219D02*
X175880952Y-131195219D01*
X175880952Y-131195219D02*
X175785714Y-131242838D01*
X175785714Y-131242838D02*
X175738095Y-131290457D01*
X175738095Y-131290457D02*
X175690476Y-131385695D01*
X175690476Y-131385695D02*
X175690476Y-131528552D01*
X175690476Y-131528552D02*
X175738095Y-131623790D01*
X175738095Y-131623790D02*
X175785714Y-131671409D01*
X175785714Y-131671409D02*
X175880952Y-131719028D01*
X175880952Y-131719028D02*
X176261904Y-131719028D01*
X175261904Y-132195219D02*
X175261904Y-131195219D01*
X175261904Y-131195219D02*
X174928571Y-131909504D01*
X174928571Y-131909504D02*
X174595238Y-131195219D01*
X174595238Y-131195219D02*
X174595238Y-132195219D01*
X174166666Y-131909504D02*
X173690476Y-131909504D01*
X174261904Y-132195219D02*
X173928571Y-131195219D01*
X173928571Y-131195219D02*
X173595238Y-132195219D01*
X172738095Y-131242838D02*
X172833333Y-131195219D01*
X172833333Y-131195219D02*
X172976190Y-131195219D01*
X172976190Y-131195219D02*
X173119047Y-131242838D01*
X173119047Y-131242838D02*
X173214285Y-131338076D01*
X173214285Y-131338076D02*
X173261904Y-131433314D01*
X173261904Y-131433314D02*
X173309523Y-131623790D01*
X173309523Y-131623790D02*
X173309523Y-131766647D01*
X173309523Y-131766647D02*
X173261904Y-131957123D01*
X173261904Y-131957123D02*
X173214285Y-132052361D01*
X173214285Y-132052361D02*
X173119047Y-132147600D01*
X173119047Y-132147600D02*
X172976190Y-132195219D01*
X172976190Y-132195219D02*
X172880952Y-132195219D01*
X172880952Y-132195219D02*
X172738095Y-132147600D01*
X172738095Y-132147600D02*
X172690476Y-132099980D01*
X172690476Y-132099980D02*
X172690476Y-131766647D01*
X172690476Y-131766647D02*
X172880952Y-131766647D01*
X131766666Y-82095219D02*
X132099999Y-81619028D01*
X132338094Y-82095219D02*
X132338094Y-81095219D01*
X132338094Y-81095219D02*
X131957142Y-81095219D01*
X131957142Y-81095219D02*
X131861904Y-81142838D01*
X131861904Y-81142838D02*
X131814285Y-81190457D01*
X131814285Y-81190457D02*
X131766666Y-81285695D01*
X131766666Y-81285695D02*
X131766666Y-81428552D01*
X131766666Y-81428552D02*
X131814285Y-81523790D01*
X131814285Y-81523790D02*
X131861904Y-81571409D01*
X131861904Y-81571409D02*
X131957142Y-81619028D01*
X131957142Y-81619028D02*
X132338094Y-81619028D01*
X130909523Y-81428552D02*
X130909523Y-82095219D01*
X131147618Y-81047600D02*
X131385713Y-81761885D01*
X131385713Y-81761885D02*
X130766666Y-81761885D01*
X162166666Y-70999980D02*
X162214285Y-71047600D01*
X162214285Y-71047600D02*
X162357142Y-71095219D01*
X162357142Y-71095219D02*
X162452380Y-71095219D01*
X162452380Y-71095219D02*
X162595237Y-71047600D01*
X162595237Y-71047600D02*
X162690475Y-70952361D01*
X162690475Y-70952361D02*
X162738094Y-70857123D01*
X162738094Y-70857123D02*
X162785713Y-70666647D01*
X162785713Y-70666647D02*
X162785713Y-70523790D01*
X162785713Y-70523790D02*
X162738094Y-70333314D01*
X162738094Y-70333314D02*
X162690475Y-70238076D01*
X162690475Y-70238076D02*
X162595237Y-70142838D01*
X162595237Y-70142838D02*
X162452380Y-70095219D01*
X162452380Y-70095219D02*
X162357142Y-70095219D01*
X162357142Y-70095219D02*
X162214285Y-70142838D01*
X162214285Y-70142838D02*
X162166666Y-70190457D01*
X161833332Y-70095219D02*
X161214285Y-70095219D01*
X161214285Y-70095219D02*
X161547618Y-70476171D01*
X161547618Y-70476171D02*
X161404761Y-70476171D01*
X161404761Y-70476171D02*
X161309523Y-70523790D01*
X161309523Y-70523790D02*
X161261904Y-70571409D01*
X161261904Y-70571409D02*
X161214285Y-70666647D01*
X161214285Y-70666647D02*
X161214285Y-70904742D01*
X161214285Y-70904742D02*
X161261904Y-70999980D01*
X161261904Y-70999980D02*
X161309523Y-71047600D01*
X161309523Y-71047600D02*
X161404761Y-71095219D01*
X161404761Y-71095219D02*
X161690475Y-71095219D01*
X161690475Y-71095219D02*
X161785713Y-71047600D01*
X161785713Y-71047600D02*
X161833332Y-70999980D01*
X167249999Y-95457200D02*
X167107142Y-95504819D01*
X167107142Y-95504819D02*
X166869047Y-95504819D01*
X166869047Y-95504819D02*
X166773809Y-95457200D01*
X166773809Y-95457200D02*
X166726190Y-95409580D01*
X166726190Y-95409580D02*
X166678571Y-95314342D01*
X166678571Y-95314342D02*
X166678571Y-95219104D01*
X166678571Y-95219104D02*
X166726190Y-95123866D01*
X166726190Y-95123866D02*
X166773809Y-95076247D01*
X166773809Y-95076247D02*
X166869047Y-95028628D01*
X166869047Y-95028628D02*
X167059523Y-94981009D01*
X167059523Y-94981009D02*
X167154761Y-94933390D01*
X167154761Y-94933390D02*
X167202380Y-94885771D01*
X167202380Y-94885771D02*
X167249999Y-94790533D01*
X167249999Y-94790533D02*
X167249999Y-94695295D01*
X167249999Y-94695295D02*
X167202380Y-94600057D01*
X167202380Y-94600057D02*
X167154761Y-94552438D01*
X167154761Y-94552438D02*
X167059523Y-94504819D01*
X167059523Y-94504819D02*
X166821428Y-94504819D01*
X166821428Y-94504819D02*
X166678571Y-94552438D01*
X166107142Y-95504819D02*
X166202380Y-95457200D01*
X166202380Y-95457200D02*
X166249999Y-95409580D01*
X166249999Y-95409580D02*
X166297618Y-95314342D01*
X166297618Y-95314342D02*
X166297618Y-95028628D01*
X166297618Y-95028628D02*
X166249999Y-94933390D01*
X166249999Y-94933390D02*
X166202380Y-94885771D01*
X166202380Y-94885771D02*
X166107142Y-94838152D01*
X166107142Y-94838152D02*
X165964285Y-94838152D01*
X165964285Y-94838152D02*
X165869047Y-94885771D01*
X165869047Y-94885771D02*
X165821428Y-94933390D01*
X165821428Y-94933390D02*
X165773809Y-95028628D01*
X165773809Y-95028628D02*
X165773809Y-95314342D01*
X165773809Y-95314342D02*
X165821428Y-95409580D01*
X165821428Y-95409580D02*
X165869047Y-95457200D01*
X165869047Y-95457200D02*
X165964285Y-95504819D01*
X165964285Y-95504819D02*
X166107142Y-95504819D01*
X165202380Y-95504819D02*
X165297618Y-95457200D01*
X165297618Y-95457200D02*
X165345237Y-95361961D01*
X165345237Y-95361961D02*
X165345237Y-94504819D01*
X152533994Y-62294153D02*
X152533994Y-63009856D01*
X152533994Y-63009856D02*
X152581707Y-63152996D01*
X152581707Y-63152996D02*
X152677134Y-63248424D01*
X152677134Y-63248424D02*
X152820275Y-63296137D01*
X152820275Y-63296137D02*
X152915702Y-63296137D01*
X151532010Y-63296137D02*
X152104572Y-63296137D01*
X151818291Y-63296137D02*
X151818291Y-62294153D01*
X151818291Y-62294153D02*
X151913718Y-62437294D01*
X151913718Y-62437294D02*
X152009145Y-62532721D01*
X152009145Y-62532721D02*
X152104572Y-62580434D01*
X158151819Y-82730876D02*
X157151819Y-82730876D01*
X157151819Y-82730876D02*
X157866104Y-83064209D01*
X157866104Y-83064209D02*
X157151819Y-83397542D01*
X157151819Y-83397542D02*
X158151819Y-83397542D01*
X157247057Y-83826114D02*
X157199438Y-83873733D01*
X157199438Y-83873733D02*
X157151819Y-83968971D01*
X157151819Y-83968971D02*
X157151819Y-84207066D01*
X157151819Y-84207066D02*
X157199438Y-84302304D01*
X157199438Y-84302304D02*
X157247057Y-84349923D01*
X157247057Y-84349923D02*
X157342295Y-84397542D01*
X157342295Y-84397542D02*
X157437533Y-84397542D01*
X157437533Y-84397542D02*
X157580390Y-84349923D01*
X157580390Y-84349923D02*
X158151819Y-83778495D01*
X158151819Y-83778495D02*
X158151819Y-84397542D01*
X127166666Y-128299980D02*
X127214285Y-128347600D01*
X127214285Y-128347600D02*
X127357142Y-128395219D01*
X127357142Y-128395219D02*
X127452380Y-128395219D01*
X127452380Y-128395219D02*
X127595237Y-128347600D01*
X127595237Y-128347600D02*
X127690475Y-128252361D01*
X127690475Y-128252361D02*
X127738094Y-128157123D01*
X127738094Y-128157123D02*
X127785713Y-127966647D01*
X127785713Y-127966647D02*
X127785713Y-127823790D01*
X127785713Y-127823790D02*
X127738094Y-127633314D01*
X127738094Y-127633314D02*
X127690475Y-127538076D01*
X127690475Y-127538076D02*
X127595237Y-127442838D01*
X127595237Y-127442838D02*
X127452380Y-127395219D01*
X127452380Y-127395219D02*
X127357142Y-127395219D01*
X127357142Y-127395219D02*
X127214285Y-127442838D01*
X127214285Y-127442838D02*
X127166666Y-127490457D01*
X126690475Y-128395219D02*
X126499999Y-128395219D01*
X126499999Y-128395219D02*
X126404761Y-128347600D01*
X126404761Y-128347600D02*
X126357142Y-128299980D01*
X126357142Y-128299980D02*
X126261904Y-128157123D01*
X126261904Y-128157123D02*
X126214285Y-127966647D01*
X126214285Y-127966647D02*
X126214285Y-127585695D01*
X126214285Y-127585695D02*
X126261904Y-127490457D01*
X126261904Y-127490457D02*
X126309523Y-127442838D01*
X126309523Y-127442838D02*
X126404761Y-127395219D01*
X126404761Y-127395219D02*
X126595237Y-127395219D01*
X126595237Y-127395219D02*
X126690475Y-127442838D01*
X126690475Y-127442838D02*
X126738094Y-127490457D01*
X126738094Y-127490457D02*
X126785713Y-127585695D01*
X126785713Y-127585695D02*
X126785713Y-127823790D01*
X126785713Y-127823790D02*
X126738094Y-127919028D01*
X126738094Y-127919028D02*
X126690475Y-127966647D01*
X126690475Y-127966647D02*
X126595237Y-128014266D01*
X126595237Y-128014266D02*
X126404761Y-128014266D01*
X126404761Y-128014266D02*
X126309523Y-127966647D01*
X126309523Y-127966647D02*
X126261904Y-127919028D01*
X126261904Y-127919028D02*
X126214285Y-127823790D01*
X147169999Y-115467600D02*
X147027142Y-115515219D01*
X147027142Y-115515219D02*
X146789047Y-115515219D01*
X146789047Y-115515219D02*
X146693809Y-115467600D01*
X146693809Y-115467600D02*
X146646190Y-115419980D01*
X146646190Y-115419980D02*
X146598571Y-115324742D01*
X146598571Y-115324742D02*
X146598571Y-115229504D01*
X146598571Y-115229504D02*
X146646190Y-115134266D01*
X146646190Y-115134266D02*
X146693809Y-115086647D01*
X146693809Y-115086647D02*
X146789047Y-115039028D01*
X146789047Y-115039028D02*
X146979523Y-114991409D01*
X146979523Y-114991409D02*
X147074761Y-114943790D01*
X147074761Y-114943790D02*
X147122380Y-114896171D01*
X147122380Y-114896171D02*
X147169999Y-114800933D01*
X147169999Y-114800933D02*
X147169999Y-114705695D01*
X147169999Y-114705695D02*
X147122380Y-114610457D01*
X147122380Y-114610457D02*
X147074761Y-114562838D01*
X147074761Y-114562838D02*
X146979523Y-114515219D01*
X146979523Y-114515219D02*
X146741428Y-114515219D01*
X146741428Y-114515219D02*
X146598571Y-114562838D01*
X146027142Y-115515219D02*
X146122380Y-115467600D01*
X146122380Y-115467600D02*
X146169999Y-115419980D01*
X146169999Y-115419980D02*
X146217618Y-115324742D01*
X146217618Y-115324742D02*
X146217618Y-115039028D01*
X146217618Y-115039028D02*
X146169999Y-114943790D01*
X146169999Y-114943790D02*
X146122380Y-114896171D01*
X146122380Y-114896171D02*
X146027142Y-114848552D01*
X146027142Y-114848552D02*
X145884285Y-114848552D01*
X145884285Y-114848552D02*
X145789047Y-114896171D01*
X145789047Y-114896171D02*
X145741428Y-114943790D01*
X145741428Y-114943790D02*
X145693809Y-115039028D01*
X145693809Y-115039028D02*
X145693809Y-115324742D01*
X145693809Y-115324742D02*
X145741428Y-115419980D01*
X145741428Y-115419980D02*
X145789047Y-115467600D01*
X145789047Y-115467600D02*
X145884285Y-115515219D01*
X145884285Y-115515219D02*
X146027142Y-115515219D01*
X145122380Y-115515219D02*
X145217618Y-115467600D01*
X145217618Y-115467600D02*
X145265237Y-115372361D01*
X145265237Y-115372361D02*
X145265237Y-114515219D01*
X165666666Y-82495219D02*
X165999999Y-82019028D01*
X166238094Y-82495219D02*
X166238094Y-81495219D01*
X166238094Y-81495219D02*
X165857142Y-81495219D01*
X165857142Y-81495219D02*
X165761904Y-81542838D01*
X165761904Y-81542838D02*
X165714285Y-81590457D01*
X165714285Y-81590457D02*
X165666666Y-81685695D01*
X165666666Y-81685695D02*
X165666666Y-81828552D01*
X165666666Y-81828552D02*
X165714285Y-81923790D01*
X165714285Y-81923790D02*
X165761904Y-81971409D01*
X165761904Y-81971409D02*
X165857142Y-82019028D01*
X165857142Y-82019028D02*
X166238094Y-82019028D01*
X165285713Y-81590457D02*
X165238094Y-81542838D01*
X165238094Y-81542838D02*
X165142856Y-81495219D01*
X165142856Y-81495219D02*
X164904761Y-81495219D01*
X164904761Y-81495219D02*
X164809523Y-81542838D01*
X164809523Y-81542838D02*
X164761904Y-81590457D01*
X164761904Y-81590457D02*
X164714285Y-81685695D01*
X164714285Y-81685695D02*
X164714285Y-81780933D01*
X164714285Y-81780933D02*
X164761904Y-81923790D01*
X164761904Y-81923790D02*
X165333332Y-82495219D01*
X165333332Y-82495219D02*
X164714285Y-82495219D01*
X150464819Y-75628495D02*
X151274342Y-75628495D01*
X151274342Y-75628495D02*
X151369580Y-75676114D01*
X151369580Y-75676114D02*
X151417200Y-75723733D01*
X151417200Y-75723733D02*
X151464819Y-75818971D01*
X151464819Y-75818971D02*
X151464819Y-76009447D01*
X151464819Y-76009447D02*
X151417200Y-76104685D01*
X151417200Y-76104685D02*
X151369580Y-76152304D01*
X151369580Y-76152304D02*
X151274342Y-76199923D01*
X151274342Y-76199923D02*
X150464819Y-76199923D01*
X151464819Y-77199923D02*
X151464819Y-76628495D01*
X151464819Y-76914209D02*
X150464819Y-76914209D01*
X150464819Y-76914209D02*
X150607676Y-76818971D01*
X150607676Y-76818971D02*
X150702914Y-76723733D01*
X150702914Y-76723733D02*
X150750533Y-76628495D01*
X172109523Y-112995219D02*
X172109523Y-111995219D01*
X172109523Y-111995219D02*
X171776190Y-112709504D01*
X171776190Y-112709504D02*
X171442857Y-111995219D01*
X171442857Y-111995219D02*
X171442857Y-112995219D01*
X170442857Y-112995219D02*
X171014285Y-112995219D01*
X170728571Y-112995219D02*
X170728571Y-111995219D01*
X170728571Y-111995219D02*
X170823809Y-112138076D01*
X170823809Y-112138076D02*
X170919047Y-112233314D01*
X170919047Y-112233314D02*
X171014285Y-112280933D01*
X132266666Y-116299980D02*
X132314285Y-116347600D01*
X132314285Y-116347600D02*
X132457142Y-116395219D01*
X132457142Y-116395219D02*
X132552380Y-116395219D01*
X132552380Y-116395219D02*
X132695237Y-116347600D01*
X132695237Y-116347600D02*
X132790475Y-116252361D01*
X132790475Y-116252361D02*
X132838094Y-116157123D01*
X132838094Y-116157123D02*
X132885713Y-115966647D01*
X132885713Y-115966647D02*
X132885713Y-115823790D01*
X132885713Y-115823790D02*
X132838094Y-115633314D01*
X132838094Y-115633314D02*
X132790475Y-115538076D01*
X132790475Y-115538076D02*
X132695237Y-115442838D01*
X132695237Y-115442838D02*
X132552380Y-115395219D01*
X132552380Y-115395219D02*
X132457142Y-115395219D01*
X132457142Y-115395219D02*
X132314285Y-115442838D01*
X132314285Y-115442838D02*
X132266666Y-115490457D01*
X131409523Y-115395219D02*
X131599999Y-115395219D01*
X131599999Y-115395219D02*
X131695237Y-115442838D01*
X131695237Y-115442838D02*
X131742856Y-115490457D01*
X131742856Y-115490457D02*
X131838094Y-115633314D01*
X131838094Y-115633314D02*
X131885713Y-115823790D01*
X131885713Y-115823790D02*
X131885713Y-116204742D01*
X131885713Y-116204742D02*
X131838094Y-116299980D01*
X131838094Y-116299980D02*
X131790475Y-116347600D01*
X131790475Y-116347600D02*
X131695237Y-116395219D01*
X131695237Y-116395219D02*
X131504761Y-116395219D01*
X131504761Y-116395219D02*
X131409523Y-116347600D01*
X131409523Y-116347600D02*
X131361904Y-116299980D01*
X131361904Y-116299980D02*
X131314285Y-116204742D01*
X131314285Y-116204742D02*
X131314285Y-115966647D01*
X131314285Y-115966647D02*
X131361904Y-115871409D01*
X131361904Y-115871409D02*
X131409523Y-115823790D01*
X131409523Y-115823790D02*
X131504761Y-115776171D01*
X131504761Y-115776171D02*
X131695237Y-115776171D01*
X131695237Y-115776171D02*
X131790475Y-115823790D01*
X131790475Y-115823790D02*
X131838094Y-115871409D01*
X131838094Y-115871409D02*
X131885713Y-115966647D01*
X176261904Y-67254819D02*
X176261904Y-66254819D01*
X176261904Y-66254819D02*
X175880952Y-66254819D01*
X175880952Y-66254819D02*
X175785714Y-66302438D01*
X175785714Y-66302438D02*
X175738095Y-66350057D01*
X175738095Y-66350057D02*
X175690476Y-66445295D01*
X175690476Y-66445295D02*
X175690476Y-66588152D01*
X175690476Y-66588152D02*
X175738095Y-66683390D01*
X175738095Y-66683390D02*
X175785714Y-66731009D01*
X175785714Y-66731009D02*
X175880952Y-66778628D01*
X175880952Y-66778628D02*
X176261904Y-66778628D01*
X175261904Y-67254819D02*
X175261904Y-66254819D01*
X175261904Y-66254819D02*
X174928571Y-66969104D01*
X174928571Y-66969104D02*
X174595238Y-66254819D01*
X174595238Y-66254819D02*
X174595238Y-67254819D01*
X174166666Y-66969104D02*
X173690476Y-66969104D01*
X174261904Y-67254819D02*
X173928571Y-66254819D01*
X173928571Y-66254819D02*
X173595238Y-67254819D01*
X172738095Y-66302438D02*
X172833333Y-66254819D01*
X172833333Y-66254819D02*
X172976190Y-66254819D01*
X172976190Y-66254819D02*
X173119047Y-66302438D01*
X173119047Y-66302438D02*
X173214285Y-66397676D01*
X173214285Y-66397676D02*
X173261904Y-66492914D01*
X173261904Y-66492914D02*
X173309523Y-66683390D01*
X173309523Y-66683390D02*
X173309523Y-66826247D01*
X173309523Y-66826247D02*
X173261904Y-67016723D01*
X173261904Y-67016723D02*
X173214285Y-67111961D01*
X173214285Y-67111961D02*
X173119047Y-67207200D01*
X173119047Y-67207200D02*
X172976190Y-67254819D01*
X172976190Y-67254819D02*
X172880952Y-67254819D01*
X172880952Y-67254819D02*
X172738095Y-67207200D01*
X172738095Y-67207200D02*
X172690476Y-67159580D01*
X172690476Y-67159580D02*
X172690476Y-66826247D01*
X172690476Y-66826247D02*
X172880952Y-66826247D01*
X151266666Y-70899980D02*
X151314285Y-70947600D01*
X151314285Y-70947600D02*
X151457142Y-70995219D01*
X151457142Y-70995219D02*
X151552380Y-70995219D01*
X151552380Y-70995219D02*
X151695237Y-70947600D01*
X151695237Y-70947600D02*
X151790475Y-70852361D01*
X151790475Y-70852361D02*
X151838094Y-70757123D01*
X151838094Y-70757123D02*
X151885713Y-70566647D01*
X151885713Y-70566647D02*
X151885713Y-70423790D01*
X151885713Y-70423790D02*
X151838094Y-70233314D01*
X151838094Y-70233314D02*
X151790475Y-70138076D01*
X151790475Y-70138076D02*
X151695237Y-70042838D01*
X151695237Y-70042838D02*
X151552380Y-69995219D01*
X151552380Y-69995219D02*
X151457142Y-69995219D01*
X151457142Y-69995219D02*
X151314285Y-70042838D01*
X151314285Y-70042838D02*
X151266666Y-70090457D01*
X150885713Y-70090457D02*
X150838094Y-70042838D01*
X150838094Y-70042838D02*
X150742856Y-69995219D01*
X150742856Y-69995219D02*
X150504761Y-69995219D01*
X150504761Y-69995219D02*
X150409523Y-70042838D01*
X150409523Y-70042838D02*
X150361904Y-70090457D01*
X150361904Y-70090457D02*
X150314285Y-70185695D01*
X150314285Y-70185695D02*
X150314285Y-70280933D01*
X150314285Y-70280933D02*
X150361904Y-70423790D01*
X150361904Y-70423790D02*
X150933332Y-70995219D01*
X150933332Y-70995219D02*
X150314285Y-70995219D01*
X124042857Y-80699980D02*
X124090476Y-80747600D01*
X124090476Y-80747600D02*
X124233333Y-80795219D01*
X124233333Y-80795219D02*
X124328571Y-80795219D01*
X124328571Y-80795219D02*
X124471428Y-80747600D01*
X124471428Y-80747600D02*
X124566666Y-80652361D01*
X124566666Y-80652361D02*
X124614285Y-80557123D01*
X124614285Y-80557123D02*
X124661904Y-80366647D01*
X124661904Y-80366647D02*
X124661904Y-80223790D01*
X124661904Y-80223790D02*
X124614285Y-80033314D01*
X124614285Y-80033314D02*
X124566666Y-79938076D01*
X124566666Y-79938076D02*
X124471428Y-79842838D01*
X124471428Y-79842838D02*
X124328571Y-79795219D01*
X124328571Y-79795219D02*
X124233333Y-79795219D01*
X124233333Y-79795219D02*
X124090476Y-79842838D01*
X124090476Y-79842838D02*
X124042857Y-79890457D01*
X123090476Y-80795219D02*
X123661904Y-80795219D01*
X123376190Y-80795219D02*
X123376190Y-79795219D01*
X123376190Y-79795219D02*
X123471428Y-79938076D01*
X123471428Y-79938076D02*
X123566666Y-80033314D01*
X123566666Y-80033314D02*
X123661904Y-80080933D01*
X122138095Y-80795219D02*
X122709523Y-80795219D01*
X122423809Y-80795219D02*
X122423809Y-79795219D01*
X122423809Y-79795219D02*
X122519047Y-79938076D01*
X122519047Y-79938076D02*
X122614285Y-80033314D01*
X122614285Y-80033314D02*
X122709523Y-80080933D01*
X154503333Y-84485219D02*
X154503333Y-85199504D01*
X154503333Y-85199504D02*
X154550952Y-85342361D01*
X154550952Y-85342361D02*
X154646190Y-85437600D01*
X154646190Y-85437600D02*
X154789047Y-85485219D01*
X154789047Y-85485219D02*
X154884285Y-85485219D01*
X154074761Y-84580457D02*
X154027142Y-84532838D01*
X154027142Y-84532838D02*
X153931904Y-84485219D01*
X153931904Y-84485219D02*
X153693809Y-84485219D01*
X153693809Y-84485219D02*
X153598571Y-84532838D01*
X153598571Y-84532838D02*
X153550952Y-84580457D01*
X153550952Y-84580457D02*
X153503333Y-84675695D01*
X153503333Y-84675695D02*
X153503333Y-84770933D01*
X153503333Y-84770933D02*
X153550952Y-84913790D01*
X153550952Y-84913790D02*
X154122380Y-85485219D01*
X154122380Y-85485219D02*
X153503333Y-85485219D01*
X132766666Y-123895219D02*
X133099999Y-123419028D01*
X133338094Y-123895219D02*
X133338094Y-122895219D01*
X133338094Y-122895219D02*
X132957142Y-122895219D01*
X132957142Y-122895219D02*
X132861904Y-122942838D01*
X132861904Y-122942838D02*
X132814285Y-122990457D01*
X132814285Y-122990457D02*
X132766666Y-123085695D01*
X132766666Y-123085695D02*
X132766666Y-123228552D01*
X132766666Y-123228552D02*
X132814285Y-123323790D01*
X132814285Y-123323790D02*
X132861904Y-123371409D01*
X132861904Y-123371409D02*
X132957142Y-123419028D01*
X132957142Y-123419028D02*
X133338094Y-123419028D01*
X132433332Y-122895219D02*
X131814285Y-122895219D01*
X131814285Y-122895219D02*
X132147618Y-123276171D01*
X132147618Y-123276171D02*
X132004761Y-123276171D01*
X132004761Y-123276171D02*
X131909523Y-123323790D01*
X131909523Y-123323790D02*
X131861904Y-123371409D01*
X131861904Y-123371409D02*
X131814285Y-123466647D01*
X131814285Y-123466647D02*
X131814285Y-123704742D01*
X131814285Y-123704742D02*
X131861904Y-123799980D01*
X131861904Y-123799980D02*
X131909523Y-123847600D01*
X131909523Y-123847600D02*
X132004761Y-123895219D01*
X132004761Y-123895219D02*
X132290475Y-123895219D01*
X132290475Y-123895219D02*
X132385713Y-123847600D01*
X132385713Y-123847600D02*
X132433332Y-123799980D01*
X169242857Y-82099980D02*
X169290476Y-82147600D01*
X169290476Y-82147600D02*
X169433333Y-82195219D01*
X169433333Y-82195219D02*
X169528571Y-82195219D01*
X169528571Y-82195219D02*
X169671428Y-82147600D01*
X169671428Y-82147600D02*
X169766666Y-82052361D01*
X169766666Y-82052361D02*
X169814285Y-81957123D01*
X169814285Y-81957123D02*
X169861904Y-81766647D01*
X169861904Y-81766647D02*
X169861904Y-81623790D01*
X169861904Y-81623790D02*
X169814285Y-81433314D01*
X169814285Y-81433314D02*
X169766666Y-81338076D01*
X169766666Y-81338076D02*
X169671428Y-81242838D01*
X169671428Y-81242838D02*
X169528571Y-81195219D01*
X169528571Y-81195219D02*
X169433333Y-81195219D01*
X169433333Y-81195219D02*
X169290476Y-81242838D01*
X169290476Y-81242838D02*
X169242857Y-81290457D01*
X168290476Y-82195219D02*
X168861904Y-82195219D01*
X168576190Y-82195219D02*
X168576190Y-81195219D01*
X168576190Y-81195219D02*
X168671428Y-81338076D01*
X168671428Y-81338076D02*
X168766666Y-81433314D01*
X168766666Y-81433314D02*
X168861904Y-81480933D01*
X167957142Y-81195219D02*
X167338095Y-81195219D01*
X167338095Y-81195219D02*
X167671428Y-81576171D01*
X167671428Y-81576171D02*
X167528571Y-81576171D01*
X167528571Y-81576171D02*
X167433333Y-81623790D01*
X167433333Y-81623790D02*
X167385714Y-81671409D01*
X167385714Y-81671409D02*
X167338095Y-81766647D01*
X167338095Y-81766647D02*
X167338095Y-82004742D01*
X167338095Y-82004742D02*
X167385714Y-82099980D01*
X167385714Y-82099980D02*
X167433333Y-82147600D01*
X167433333Y-82147600D02*
X167528571Y-82195219D01*
X167528571Y-82195219D02*
X167814285Y-82195219D01*
X167814285Y-82195219D02*
X167909523Y-82147600D01*
X167909523Y-82147600D02*
X167957142Y-82099980D01*
X119761904Y-132195219D02*
X119761904Y-131195219D01*
X119761904Y-131195219D02*
X119380952Y-131195219D01*
X119380952Y-131195219D02*
X119285714Y-131242838D01*
X119285714Y-131242838D02*
X119238095Y-131290457D01*
X119238095Y-131290457D02*
X119190476Y-131385695D01*
X119190476Y-131385695D02*
X119190476Y-131528552D01*
X119190476Y-131528552D02*
X119238095Y-131623790D01*
X119238095Y-131623790D02*
X119285714Y-131671409D01*
X119285714Y-131671409D02*
X119380952Y-131719028D01*
X119380952Y-131719028D02*
X119761904Y-131719028D01*
X118761904Y-132195219D02*
X118761904Y-131195219D01*
X118761904Y-131195219D02*
X118428571Y-131909504D01*
X118428571Y-131909504D02*
X118095238Y-131195219D01*
X118095238Y-131195219D02*
X118095238Y-132195219D01*
X117666666Y-131909504D02*
X117190476Y-131909504D01*
X117761904Y-132195219D02*
X117428571Y-131195219D01*
X117428571Y-131195219D02*
X117095238Y-132195219D01*
X116238095Y-131242838D02*
X116333333Y-131195219D01*
X116333333Y-131195219D02*
X116476190Y-131195219D01*
X116476190Y-131195219D02*
X116619047Y-131242838D01*
X116619047Y-131242838D02*
X116714285Y-131338076D01*
X116714285Y-131338076D02*
X116761904Y-131433314D01*
X116761904Y-131433314D02*
X116809523Y-131623790D01*
X116809523Y-131623790D02*
X116809523Y-131766647D01*
X116809523Y-131766647D02*
X116761904Y-131957123D01*
X116761904Y-131957123D02*
X116714285Y-132052361D01*
X116714285Y-132052361D02*
X116619047Y-132147600D01*
X116619047Y-132147600D02*
X116476190Y-132195219D01*
X116476190Y-132195219D02*
X116380952Y-132195219D01*
X116380952Y-132195219D02*
X116238095Y-132147600D01*
X116238095Y-132147600D02*
X116190476Y-132099980D01*
X116190476Y-132099980D02*
X116190476Y-131766647D01*
X116190476Y-131766647D02*
X116380952Y-131766647D01*
X180742857Y-104499980D02*
X180790476Y-104547600D01*
X180790476Y-104547600D02*
X180933333Y-104595219D01*
X180933333Y-104595219D02*
X181028571Y-104595219D01*
X181028571Y-104595219D02*
X181171428Y-104547600D01*
X181171428Y-104547600D02*
X181266666Y-104452361D01*
X181266666Y-104452361D02*
X181314285Y-104357123D01*
X181314285Y-104357123D02*
X181361904Y-104166647D01*
X181361904Y-104166647D02*
X181361904Y-104023790D01*
X181361904Y-104023790D02*
X181314285Y-103833314D01*
X181314285Y-103833314D02*
X181266666Y-103738076D01*
X181266666Y-103738076D02*
X181171428Y-103642838D01*
X181171428Y-103642838D02*
X181028571Y-103595219D01*
X181028571Y-103595219D02*
X180933333Y-103595219D01*
X180933333Y-103595219D02*
X180790476Y-103642838D01*
X180790476Y-103642838D02*
X180742857Y-103690457D01*
X179790476Y-104595219D02*
X180361904Y-104595219D01*
X180076190Y-104595219D02*
X180076190Y-103595219D01*
X180076190Y-103595219D02*
X180171428Y-103738076D01*
X180171428Y-103738076D02*
X180266666Y-103833314D01*
X180266666Y-103833314D02*
X180361904Y-103880933D01*
X178885714Y-103595219D02*
X179361904Y-103595219D01*
X179361904Y-103595219D02*
X179409523Y-104071409D01*
X179409523Y-104071409D02*
X179361904Y-104023790D01*
X179361904Y-104023790D02*
X179266666Y-103976171D01*
X179266666Y-103976171D02*
X179028571Y-103976171D01*
X179028571Y-103976171D02*
X178933333Y-104023790D01*
X178933333Y-104023790D02*
X178885714Y-104071409D01*
X178885714Y-104071409D02*
X178838095Y-104166647D01*
X178838095Y-104166647D02*
X178838095Y-104404742D01*
X178838095Y-104404742D02*
X178885714Y-104499980D01*
X178885714Y-104499980D02*
X178933333Y-104547600D01*
X178933333Y-104547600D02*
X179028571Y-104595219D01*
X179028571Y-104595219D02*
X179266666Y-104595219D01*
X179266666Y-104595219D02*
X179361904Y-104547600D01*
X179361904Y-104547600D02*
X179409523Y-104499980D01*
D13*
X139708748Y-70195400D02*
X140231252Y-70195400D01*
X139708748Y-71665400D02*
X140231252Y-71665400D01*
X170852500Y-81632900D02*
X170852500Y-82420400D01*
X170458750Y-82026650D02*
X171246250Y-82026650D01*
X175045563Y-82660400D02*
X173760000Y-82660400D01*
X175045563Y-82660400D02*
X176110000Y-83724837D01*
X170354437Y-82660400D02*
X171640000Y-82660400D01*
X170354437Y-82660400D02*
X169290000Y-83724837D01*
X176110000Y-83724837D02*
X176110000Y-89480400D01*
X169290000Y-83724837D02*
X169290000Y-89480400D01*
X176110000Y-89480400D02*
X173760000Y-89480400D01*
X169290000Y-89480400D02*
X171640000Y-89480400D01*
X180361000Y-111256936D02*
X180361000Y-112711064D01*
X178541000Y-111256936D02*
X178541000Y-112711064D01*
X164400620Y-120902000D02*
X164681780Y-120902000D01*
X164400620Y-121922000D02*
X164681780Y-121922000D01*
X135068748Y-70165400D02*
X135591252Y-70165400D01*
X135068748Y-71635400D02*
X135591252Y-71635400D01*
X128504000Y-132496000D02*
X128504000Y-134446000D01*
X128504000Y-132496000D02*
X128504000Y-130546000D01*
X133624000Y-132496000D02*
X133624000Y-135946000D01*
X133624000Y-132496000D02*
X133624000Y-130546000D01*
X124757000Y-86452000D02*
X124757000Y-88402000D01*
X124757000Y-86452000D02*
X124757000Y-84502000D01*
X129877000Y-86452000D02*
X129877000Y-89902000D01*
X129877000Y-86452000D02*
X129877000Y-84502000D01*
X116962500Y-81932900D02*
X116962500Y-82720400D01*
X116568750Y-82326650D02*
X117356250Y-82326650D01*
X121155563Y-82960400D02*
X119870000Y-82960400D01*
X121155563Y-82960400D02*
X122220000Y-84024837D01*
X116464437Y-82960400D02*
X117750000Y-82960400D01*
X116464437Y-82960400D02*
X115400000Y-84024837D01*
X122220000Y-84024837D02*
X122220000Y-89780400D01*
X115400000Y-84024837D02*
X115400000Y-89780400D01*
X122220000Y-89780400D02*
X119870000Y-89780400D01*
X115400000Y-89780400D02*
X117750000Y-89780400D01*
X182692500Y-106522900D02*
X182692500Y-107310400D01*
X182298750Y-106916650D02*
X183086250Y-106916650D01*
X186885563Y-107550400D02*
X185600000Y-107550400D01*
X186885563Y-107550400D02*
X187950000Y-108614837D01*
X182194437Y-107550400D02*
X183480000Y-107550400D01*
X182194437Y-107550400D02*
X181130000Y-108614837D01*
X187950000Y-108614837D02*
X187950000Y-114370400D01*
X181130000Y-108614837D02*
X181130000Y-114370400D01*
X187950000Y-114370400D02*
X185600000Y-114370400D01*
X181130000Y-114370400D02*
X183480000Y-114370400D01*
X133180000Y-72830400D02*
X133180000Y-78840400D01*
X140000000Y-75080400D02*
X140000000Y-78840400D01*
X140000000Y-78840400D02*
X138740000Y-78840400D01*
X133180000Y-78840400D02*
X134440000Y-78840400D01*
X119892500Y-123207900D02*
X120680000Y-123207900D01*
X120286250Y-123601650D02*
X120286250Y-122814150D01*
X120920000Y-119014837D02*
X120920000Y-120300400D01*
X120920000Y-119014837D02*
X121984437Y-117950400D01*
X120920000Y-123705963D02*
X120920000Y-122420400D01*
X120920000Y-123705963D02*
X121984437Y-124770400D01*
X121984437Y-117950400D02*
X127740000Y-117950400D01*
X121984437Y-124770400D02*
X127740000Y-124770400D01*
X127740000Y-117950400D02*
X127740000Y-120300400D01*
X127740000Y-124770400D02*
X127740000Y-122420400D01*
X141470000Y-87140400D02*
X140260000Y-87140400D01*
X140260000Y-147750400D02*
X137600000Y-147750400D01*
X140260000Y-144540400D02*
X140260000Y-147750400D01*
X140260000Y-139460400D02*
X140260000Y-143020400D01*
X140260000Y-134380400D02*
X140260000Y-137940400D01*
X140260000Y-129300400D02*
X140260000Y-132860400D01*
X140260000Y-124220400D02*
X140260000Y-127780400D01*
X140260000Y-119140400D02*
X140260000Y-122700400D01*
X140260000Y-114060400D02*
X140260000Y-117620400D01*
X140260000Y-108980400D02*
X140260000Y-112540400D01*
X140260000Y-103900400D02*
X140260000Y-107460400D01*
X140260000Y-98820400D02*
X140260000Y-102380400D01*
X140260000Y-93740400D02*
X140260000Y-97300400D01*
X140260000Y-88660400D02*
X140260000Y-92220400D01*
X140260000Y-86470400D02*
X140260000Y-87140400D01*
X140260000Y-86470400D02*
X137600000Y-86470400D01*
X137600000Y-147080400D02*
X137600000Y-147750400D01*
X137600000Y-142000400D02*
X137600000Y-145560400D01*
X137600000Y-136920400D02*
X137600000Y-140480400D01*
X137600000Y-131840400D02*
X137600000Y-135400400D01*
X137600000Y-126760400D02*
X137600000Y-130320400D01*
X137600000Y-121680400D02*
X137600000Y-125240400D01*
X137600000Y-116600400D02*
X137600000Y-120160400D01*
X137600000Y-111520400D02*
X137600000Y-115080400D01*
X137600000Y-106440400D02*
X137600000Y-110000400D01*
X137600000Y-101360400D02*
X137600000Y-104920400D01*
X137600000Y-96280400D02*
X137600000Y-99840400D01*
X137600000Y-91200400D02*
X137600000Y-94760400D01*
X137600000Y-86470400D02*
X137600000Y-89680400D01*
X132482000Y-84419936D02*
X132482000Y-85874064D01*
X130662000Y-84419936D02*
X130662000Y-85874064D01*
X159061252Y-71305400D02*
X158538748Y-71305400D01*
X159061252Y-69835400D02*
X158538748Y-69835400D01*
D14*
X146730000Y-68858000D02*
G75*
G03*
X146730000Y-68858000I-200000J0D01*
G01*
D15*
X141350000Y-64250000D02*
X141350000Y-60000000D01*
X144500000Y-64250000D02*
X141350000Y-64250000D01*
X150350000Y-64250000D02*
X148500000Y-64250000D01*
X150350000Y-60000000D02*
X150350000Y-64250000D01*
X141350000Y-53100000D02*
X141350000Y-49750000D01*
X141350000Y-49750000D02*
X150350000Y-49750000D01*
X150350000Y-49750000D02*
X150350000Y-53100000D01*
D13*
X158755000Y-85460400D02*
X158755000Y-87410400D01*
X158755000Y-85460400D02*
X158755000Y-83510400D01*
X163875000Y-85460400D02*
X163875000Y-88910400D01*
X163875000Y-85460400D02*
X163875000Y-83510400D01*
X127510000Y-130415420D02*
X127510000Y-130696580D01*
X126490000Y-130415420D02*
X126490000Y-130696580D01*
X166480000Y-84768336D02*
X166480000Y-86222464D01*
X164660000Y-84768336D02*
X164660000Y-86222464D01*
X152100000Y-72290400D02*
X152100000Y-78300400D01*
X158920000Y-74540400D02*
X158920000Y-78300400D01*
X158920000Y-78300400D02*
X157660000Y-78300400D01*
X152100000Y-78300400D02*
X153360000Y-78300400D01*
X172891000Y-112684000D02*
X172891000Y-114634000D01*
X172891000Y-112684000D02*
X172891000Y-110734000D01*
X178011000Y-112684000D02*
X178011000Y-116134000D01*
X178011000Y-112684000D02*
X178011000Y-110734000D01*
X132590000Y-118223420D02*
X132590000Y-118504580D01*
X131570000Y-118223420D02*
X131570000Y-118504580D01*
X154441252Y-71315400D02*
X153918748Y-71315400D01*
X154441252Y-69845400D02*
X153918748Y-69845400D01*
X124000000Y-82669820D02*
X124000000Y-82950980D01*
X122980000Y-82669820D02*
X122980000Y-82950980D01*
X156710000Y-87140400D02*
X155500000Y-87140400D01*
X155500000Y-147750400D02*
X152840000Y-147750400D01*
X155500000Y-144540400D02*
X155500000Y-147750400D01*
X155500000Y-139460400D02*
X155500000Y-143020400D01*
X155500000Y-134380400D02*
X155500000Y-137940400D01*
X155500000Y-129300400D02*
X155500000Y-132860400D01*
X155500000Y-124220400D02*
X155500000Y-127780400D01*
X155500000Y-119140400D02*
X155500000Y-122700400D01*
X155500000Y-114060400D02*
X155500000Y-117620400D01*
X155500000Y-108980400D02*
X155500000Y-112540400D01*
X155500000Y-103900400D02*
X155500000Y-107460400D01*
X155500000Y-98820400D02*
X155500000Y-102380400D01*
X155500000Y-93740400D02*
X155500000Y-97300400D01*
X155500000Y-88660400D02*
X155500000Y-92220400D01*
X155500000Y-86470400D02*
X155500000Y-87140400D01*
X155500000Y-86470400D02*
X152840000Y-86470400D01*
X152840000Y-147080400D02*
X152840000Y-147750400D01*
X152840000Y-142000400D02*
X152840000Y-145560400D01*
X152840000Y-136920400D02*
X152840000Y-140480400D01*
X152840000Y-131840400D02*
X152840000Y-135400400D01*
X152840000Y-126760400D02*
X152840000Y-130320400D01*
X152840000Y-121680400D02*
X152840000Y-125240400D01*
X152840000Y-116600400D02*
X152840000Y-120160400D01*
X152840000Y-111520400D02*
X152840000Y-115080400D01*
X152840000Y-106440400D02*
X152840000Y-110000400D01*
X152840000Y-101360400D02*
X152840000Y-104920400D01*
X152840000Y-96280400D02*
X152840000Y-99840400D01*
X152840000Y-91200400D02*
X152840000Y-94760400D01*
X152840000Y-86470400D02*
X152840000Y-89680400D01*
X131857064Y-126410400D02*
X130402936Y-126410400D01*
X131857064Y-124590400D02*
X130402936Y-124590400D01*
X168620000Y-84084820D02*
X168620000Y-84365980D01*
X167600000Y-84084820D02*
X167600000Y-84365980D01*
X180660000Y-106529820D02*
X180660000Y-106810980D01*
X179640000Y-106529820D02*
X179640000Y-106810980D01*
%LPC*%
D16*
X126250000Y-99250000D03*
D17*
X139020000Y-70930400D03*
X140920000Y-70930400D03*
D18*
X172700000Y-83370400D03*
X172700000Y-88770400D03*
D19*
X129077025Y-140852859D03*
D20*
X179451000Y-110434000D03*
X179451000Y-113534000D03*
D21*
X163766200Y-121412000D03*
X165316200Y-121412000D03*
D19*
X126250000Y-99250000D03*
D17*
X134380000Y-70900400D03*
X136280000Y-70900400D03*
D22*
X132969000Y-134971000D03*
X131699000Y-134971000D03*
X130429000Y-134971000D03*
X129159000Y-134971000D03*
X129159000Y-130021000D03*
X130429000Y-130021000D03*
X131699000Y-130021000D03*
X132969000Y-130021000D03*
D23*
X131064000Y-132496000D03*
D22*
X129222000Y-88927000D03*
X127952000Y-88927000D03*
X126682000Y-88927000D03*
X125412000Y-88927000D03*
X125412000Y-83977000D03*
X126682000Y-83977000D03*
X127952000Y-83977000D03*
X129222000Y-83977000D03*
D23*
X127317000Y-86452000D03*
D19*
X100750000Y-99250000D03*
X118000000Y-71000000D03*
D18*
X118810000Y-83670400D03*
X118810000Y-89070400D03*
X184540000Y-108260400D03*
X184540000Y-113660400D03*
D19*
X146208951Y-79245847D03*
D24*
X134290000Y-73780400D03*
X136590000Y-73780400D03*
X138890000Y-73780400D03*
D25*
X136590000Y-80080400D03*
D19*
X191250000Y-99250000D03*
D26*
X121630000Y-121360400D03*
X127030000Y-121360400D03*
D27*
X140580000Y-87900400D03*
X137280000Y-90440400D03*
X140580000Y-92980400D03*
X137280000Y-95520400D03*
X140580000Y-98060400D03*
X137280000Y-100600400D03*
X140580000Y-103140400D03*
X137280000Y-105680400D03*
X140580000Y-108220400D03*
X137280000Y-110760400D03*
X140580000Y-113300400D03*
X137280000Y-115840400D03*
X140580000Y-118380400D03*
X137280000Y-120920400D03*
X140580000Y-123460400D03*
X137280000Y-126000400D03*
X140580000Y-128540400D03*
X137280000Y-131080400D03*
X140580000Y-133620400D03*
X137280000Y-136160400D03*
X140580000Y-138700400D03*
X137280000Y-141240400D03*
X140580000Y-143780400D03*
X137280000Y-146320400D03*
D19*
X174500000Y-127500000D03*
D20*
X131572000Y-83597000D03*
X131572000Y-86697000D03*
D28*
X159750000Y-70570400D03*
X157850000Y-70570400D03*
D19*
X166250000Y-99250000D03*
D29*
X152300000Y-56550000D03*
X139400000Y-56550000D03*
D30*
X146500000Y-65500000D03*
D31*
X145850000Y-52750000D03*
D22*
X163220000Y-87935400D03*
X161950000Y-87935400D03*
X160680000Y-87935400D03*
X159410000Y-87935400D03*
X159410000Y-82985400D03*
X160680000Y-82985400D03*
X161950000Y-82985400D03*
X163220000Y-82985400D03*
D23*
X161315000Y-85460400D03*
D19*
X129000000Y-57500000D03*
D32*
X127000000Y-129781000D03*
X127000000Y-131331000D03*
D19*
X163412036Y-140678157D03*
X146198475Y-119261890D03*
D20*
X165570000Y-83945400D03*
X165570000Y-87045400D03*
D24*
X153210000Y-73240400D03*
X155510000Y-73240400D03*
X157810000Y-73240400D03*
D25*
X155510000Y-79540400D03*
D22*
X177356000Y-115159000D03*
X176086000Y-115159000D03*
X174816000Y-115159000D03*
X173546000Y-115159000D03*
X173546000Y-110209000D03*
X174816000Y-110209000D03*
X176086000Y-110209000D03*
X177356000Y-110209000D03*
D23*
X175451000Y-112684000D03*
D32*
X132080000Y-117589000D03*
X132080000Y-119139000D03*
D19*
X174500000Y-71000000D03*
D28*
X155130000Y-70580400D03*
X153230000Y-70580400D03*
D19*
X163500000Y-57500000D03*
D32*
X123490000Y-82035400D03*
X123490000Y-83585400D03*
D27*
X155820000Y-87900400D03*
X152520000Y-90440400D03*
X155820000Y-92980400D03*
X152520000Y-95520400D03*
X155820000Y-98060400D03*
X152520000Y-100600400D03*
X155820000Y-103140400D03*
X152520000Y-105680400D03*
X155820000Y-108220400D03*
X152520000Y-110760400D03*
X155820000Y-113300400D03*
X152520000Y-115840400D03*
X155820000Y-118380400D03*
X152520000Y-120920400D03*
X155820000Y-123460400D03*
X152520000Y-126000400D03*
X155820000Y-128540400D03*
X152520000Y-131080400D03*
X155820000Y-133620400D03*
X152520000Y-136160400D03*
X155820000Y-138700400D03*
X152520000Y-141240400D03*
X155820000Y-143780400D03*
X152520000Y-146320400D03*
D33*
X132680000Y-125500400D03*
X129580000Y-125500400D03*
D32*
X168110000Y-83450400D03*
X168110000Y-85000400D03*
D19*
X118000000Y-127500000D03*
D32*
X180150000Y-105895400D03*
X180150000Y-107445400D03*
%LPD*%
M02*
