M48
; DRILL file {KiCad 7.0.9-7.0.9~ubuntu23.04.1} date Wed 29 Nov 2023 02:17:20 PM CET
; FORMAT={-:-/ absolute / metric / decimal}
; #@! TF.CreationDate,2023-11-29T14:17:20+01:00
; #@! TF.GenerationSoftware,Kicad,Pcbnew,7.0.9-7.0.9~ubuntu23.04.1
; #@! TF.FileFunction,Plated,1,2,PTH
FMAT,2
METRIC
; #@! TA.AperFunction,Plated,PTH,ViaDrill
T1C0.400
%
G90
G05
T1
X116.6Y-89.04
X120.8Y-89.04
X123.46Y-85.7
X126.2Y-123.74
X126.49Y-115.29
X126.746Y-81.839
X127.508Y-134.925
X128.68Y-115.29
X129.286Y-81.686
X130.0Y-121.34
X130.048Y-117.856
X130.048Y-118.872
X130.353Y-127.711
X132.994Y-127.711
X133.54Y-86.74
X134.3Y-136.34
X134.32Y-69.01
X134.5Y-134.94
X134.88Y-127.77
X135.8Y-56.54
X139.4Y-51.74
X139.4Y-60.94
X141.17Y-69.09
X142.7Y-56.64
X143.154Y-98.146
X143.75Y-126.64
X144.1Y-101.84
X145.0Y-108.24
X145.886Y-104.162
X146.29Y-94.71
X146.5Y-108.94
X147.075Y-107.065
X147.09Y-103.21
X147.7Y-96.84
X148.4Y-56.54
X148.72Y-126.58
X149.25Y-103.27
X152.2Y-51.64
X152.3Y-61.24
X153.21Y-68.89
X155.7Y-56.54
X155.88Y-86.41
X159.76Y-68.7
X160.592Y-80.847
X163.58Y-115.3
X163.589Y-80.847
X163.779Y-120.142
X165.405Y-120.091
X165.48Y-88.75
X165.85Y-114.69
X168.26Y-86.54
X168.402Y-116.891
X170.4Y-88.74
X173.584Y-116.789
X174.803Y-107.696
X174.9Y-88.74
X177.394Y-108.219
X179.51Y-115.5
X181.74Y-107.39
X182.5Y-113.74
X186.9Y-113.74
T0
M30
