999
"DXF R12 Output" (www.mydxf.blogspot.com)
 0 
SECTION
 2 
HEADER
 9 
$ACADVER
 1 
AC1009
 9 
$EXTMIN
 10 
 0 
 20 
 0 
 9 
$EXTMAX
 10 
 8.5 
 20 
 11 
 0 
ENDSEC
 0 
SECTION
 2 
ENTITIES
0
LINE
8
Layer 1
10
7.094880
20
247.987327
11
7.094880
21
197.987278
0
LINE
8
Layer 1
10
7.094880
20
197.987278
11
10.094700
21
197.987278
0
LINE
8
Layer 1
10
10.094700
20
197.987278
11
116.094950
21
197.987278
0
LINE
8
Layer 1
10
116.094950
20
197.987278
11
119.094760
21
197.987278
0
LINE
8
Layer 1
10
119.094760
20
197.987278
11
119.094760
21
247.987327
0
LINE
8
Layer 1
10
119.094760
20
247.987327
11
116.094950
21
247.987327
0
LINE
8
Layer 1
10
116.094950
20
247.987327
11
104.810880
21
247.987327
0
LINE
8
Layer 1
10
104.810880
20
247.987327
11
73.094990
21
247.987327
0
LINE
8
Layer 1
10
73.094990
20
247.987327
11
73.091990
21
247.987327
0
LINE
8
Layer 1
10
73.091990
20
247.987327
11
73.091990
21
241.987176
0
LINE
8
Layer 1
10
73.091990
20
241.987176
11
53.091660
21
241.987176
0
LINE
8
Layer 1
10
53.091660
20
241.987176
11
53.091660
21
247.987327
0
LINE
8
Layer 1
10
53.091660
20
247.987327
11
18.563010
21
247.987327
0
LINE
8
Layer 1
10
18.563010
20
247.987327
11
10.094800
21
247.987327
0
LINE
8
Layer 1
10
10.094800
20
247.987327
11
7.094880
21
247.987327
0
LINE
8
Layer 1
10
10.094700
20
243.687331
11
12.996840
21
243.688331
0
LINE
8
Layer 1
10
12.996840
20
243.688331
11
12.996850
21
232.988209
0
LINE
8
Layer 1
10
12.996850
20
232.988209
11
12.996850
21
230.891179
0
LINE
8
Layer 1
10
12.996850
20
230.891179
11
12.997850
21
230.889079
0
LINE
8
Layer 1
10
12.997850
20
230.889079
11
12.997330
21
230.889079
0
LINE
8
Layer 1
10
12.997330
20
230.889079
11
12.998330
21
230.889080
0
LINE
8
Layer 1
10
12.998330
20
230.889080
11
10.094640
21
230.886980
0
LINE
8
Layer 1
10
10.094640
20
230.886980
11
10.094700
21
243.687331
0
LINE
8
Layer 1
10
113.189690
20
243.687331
11
116.094950
21
243.687331
0
LINE
8
Layer 1
10
116.094950
20
243.687331
11
116.094950
21
232.987209
0
LINE
8
Layer 1
10
116.094950
20
232.987209
11
116.094950
21
230.887079
0
LINE
8
Layer 1
10
116.094950
20
230.887079
11
116.094950
21
230.857109
0
LINE
8
Layer 1
10
116.094950
20
230.857109
11
116.094430
21
230.857109
0
LINE
8
Layer 1
10
116.094430
20
230.857109
11
116.094430
21
230.887079
0
LINE
8
Layer 1
10
116.094430
20
230.887079
11
113.189690
21
230.889179
0
LINE
8
Layer 1
10
113.189690
20
230.889179
11
113.189690
21
243.687331
0
LINE
8
Layer 1
10
116.094430
20
214.690651
11
116.094950
21
214.690651
0
LINE
8
Layer 1
10
116.094950
20
214.690651
11
116.094950
21
214.687051
0
LINE
8
Layer 1
10
116.094950
20
214.687051
11
116.094950
21
212.987413
0
LINE
8
Layer 1
10
116.094950
20
212.987413
11
116.094950
21
201.887316
0
LINE
8
Layer 1
10
116.094950
20
201.887316
11
113.189690
21
201.889416
0
LINE
8
Layer 1
10
113.189690
20
201.889416
11
113.190690
21
214.683966
0
LINE
8
Layer 1
10
113.190690
20
214.683966
11
116.094390
21
214.687066
0
LINE
8
Layer 1
10
116.094390
20
214.687066
11
116.094430
21
214.690651
0
LINE
8
Layer 1
10
12.991160
20
214.689051
11
12.991680
21
214.684951
0
LINE
8
Layer 1
10
12.991680
20
214.684951
11
12.987680
21
214.686951
0
LINE
8
Layer 1
10
12.987680
20
214.686951
11
13.000080
21
212.983179
0
LINE
8
Layer 1
10
13.000080
20
212.983179
11
13.002080
21
201.884293
0
LINE
8
Layer 1
10
13.002080
20
201.884293
11
10.095290
21
201.887193
0
LINE
8
Layer 1
10
10.095290
20
201.887193
11
10.095290
21
214.687034
0
LINE
8
Layer 1
10
10.095290
20
214.687034
11
13.004150
21
214.687034
0
LINE
8
Layer 1
10
13.004150
20
214.687034
11
12.991160
21
214.689051
0
LINE
8
Layer 1
10
4.844994
20
305.371388
11
4.844994
21
255.371338
0
LINE
8
Layer 1
10
4.844994
20
255.371338
11
7.844811
21
255.371338
0
LINE
8
Layer 1
10
7.844811
20
255.371338
11
50.839603
21
255.371338
0
LINE
8
Layer 1
10
50.839603
20
255.371338
11
50.844803
21
255.371338
0
LINE
8
Layer 1
10
50.844803
20
255.371338
11
70.839965
21
255.371338
0
LINE
8
Layer 1
10
70.839965
20
255.371338
11
70.839965
21
255.451438
0
LINE
8
Layer 1
10
70.839965
20
255.451438
11
70.844665
21
255.451438
0
LINE
8
Layer 1
10
70.844665
20
255.451438
11
70.844665
21
255.371338
0
LINE
8
Layer 1
10
70.844665
20
255.371338
11
113.845139
21
255.371338
0
LINE
8
Layer 1
10
113.845139
20
255.371338
11
116.844959
21
255.371338
0
LINE
8
Layer 1
10
116.844959
20
255.371338
11
116.844959
21
305.371388
0
LINE
8
Layer 1
10
116.844959
20
305.371388
11
113.845139
21
305.371388
0
LINE
8
Layer 1
10
113.845139
20
305.371388
11
7.844893
21
305.371388
0
LINE
8
Layer 1
10
7.844893
20
305.371388
11
4.844994
21
305.371388
0
LINE
8
Layer 1
10
10.751093
20
301.476535
11
10.750093
21
288.674732
0
LINE
8
Layer 1
10
10.750093
20
288.674732
11
7.845361
21
288.671632
0
LINE
8
Layer 1
10
7.845361
20
288.671632
11
7.845361
21
288.589982
0
LINE
8
Layer 1
10
7.845361
20
288.589982
11
7.844844
21
288.589982
0
LINE
8
Layer 1
10
7.844844
20
288.589982
11
7.844844
21
288.671632
0
LINE
8
Layer 1
10
7.844844
20
288.671632
11
7.844844
21
290.371270
0
LINE
8
Layer 1
10
7.844844
20
290.371270
11
7.844844
21
301.471367
0
LINE
8
Layer 1
10
7.844844
20
301.471367
11
10.751093
21
301.476535
0
LINE
8
Layer 1
10
113.845057
20
301.471335
11
113.845057
21
288.671632
0
LINE
8
Layer 1
10
113.845057
20
288.671632
11
110.940847
21
288.670632
0
LINE
8
Layer 1
10
110.940847
20
288.670632
11
110.942947
21
290.368203
0
LINE
8
Layer 1
10
110.942947
20
290.368203
11
110.942947
21
301.470334
0
LINE
8
Layer 1
10
110.942947
20
301.470334
11
113.845057
21
301.471335
0
LINE
8
Layer 1
10
20.810428
20
284.371636
11
35.810546
21
284.371636
0
LINE
8
Layer 1
10
35.810546
20
284.371636
11
35.810546
21
282.371241
0
LINE
8
Layer 1
10
35.810546
20
282.371241
11
35.844653
21
282.371241
0
LINE
8
Layer 1
10
35.844653
20
282.371241
11
35.844653
21
282.239466
0
LINE
8
Layer 1
10
35.844653
20
282.239466
11
35.810546
21
282.239466
0
LINE
8
Layer 1
10
35.810546
20
282.239466
11
35.810546
21
274.371729
0
LINE
8
Layer 1
10
35.810546
20
274.371729
11
20.810428
21
274.371729
0
LINE
8
Layer 1
10
20.810428
20
274.371729
11
20.810428
21
284.371636
0
LINE
8
Layer 1
10
61.075671
20
284.371636
11
63.800569
21
284.371636
0
LINE
8
Layer 1
10
63.800569
20
284.371636
11
82.942036
21
284.371636
0
LINE
8
Layer 1
10
82.942036
20
284.371636
11
101.075813
21
284.371636
0
LINE
8
Layer 1
10
101.075813
20
284.371636
11
101.075813
21
269.371518
0
LINE
8
Layer 1
10
101.075813
20
269.371518
11
82.942036
21
269.371518
0
LINE
8
Layer 1
10
82.942036
20
269.371518
11
63.800569
21
269.371518
0
LINE
8
Layer 1
10
63.800569
20
269.371518
11
61.075671
21
269.371518
0
LINE
8
Layer 1
10
61.075671
20
269.371518
11
61.075671
21
284.371636
0
LINE
8
Layer 1
10
7.844811
20
272.488123
11
7.845328
21
272.488123
0
LINE
8
Layer 1
10
7.845328
20
272.488123
11
7.845328
21
272.471583
0
LINE
8
Layer 1
10
7.845328
20
272.471583
11
10.747476
21
272.471583
0
LINE
8
Layer 1
10
10.747476
20
272.471583
11
10.747476
21
259.674435
0
LINE
8
Layer 1
10
10.747476
20
259.674435
11
7.844811
21
259.671335
0
LINE
8
Layer 1
10
7.844811
20
259.671335
11
7.844811
21
270.371458
0
LINE
8
Layer 1
10
7.844811
20
270.371458
11
7.844811
21
272.471588
0
LINE
8
Layer 1
10
7.844811
20
272.471588
11
7.844811
21
272.488123
0
LINE
8
Layer 1
10
113.845057
20
272.471587
11
113.845057
21
259.671334
0
LINE
8
Layer 1
10
113.845057
20
259.671334
11
110.941877
21
259.671334
0
LINE
8
Layer 1
10
110.941877
20
259.671334
11
110.941357
21
270.365772
0
LINE
8
Layer 1
10
110.941357
20
270.365772
11
110.943457
21
272.470553
0
LINE
8
Layer 1
10
110.943457
20
272.470553
11
113.845057
21
272.471587
0
LINE
8
Layer 1
10
247.273660
20
408.557690
11
247.273660
21
408.549690
0
LINE
8
Layer 1
10
247.273660
20
408.549690
11
227.273330
21
408.549690
0
LINE
8
Layer 1
10
227.273330
20
408.549690
11
227.273330
21
408.550200
0
LINE
8
Layer 1
10
227.273330
20
408.550200
11
187.324870
21
408.550200
0
LINE
8
Layer 1
10
187.324870
20
408.550200
11
187.324870
21
358.550150
0
LINE
8
Layer 1
10
187.324870
20
358.550150
11
184.325050
21
358.550150
0
LINE
8
Layer 1
10
184.325050
20
358.550150
11
184.325050
21
338.549830
0
LINE
8
Layer 1
10
184.325050
20
338.549830
11
187.324870
21
338.549830
0
LINE
8
Layer 1
10
187.324870
20
338.549830
11
187.324870
21
318.550010
0
LINE
8
Layer 1
10
187.324870
20
318.550010
11
184.325050
21
318.550010
0
LINE
8
Layer 1
10
184.325050
20
318.550010
11
184.325050
21
298.550200
0
LINE
8
Layer 1
10
184.325050
20
298.550200
11
187.324870
21
298.550200
0
LINE
8
Layer 1
10
187.324870
20
298.550200
11
187.324870
21
248.550150
0
LINE
8
Layer 1
10
187.324870
20
248.550150
11
227.325010
21
248.550150
0
LINE
8
Layer 1
10
227.325010
20
248.550150
11
227.325010
21
248.549630
0
LINE
8
Layer 1
10
227.325010
20
248.549630
11
247.273660
21
248.549630
0
LINE
8
Layer 1
10
247.273660
20
248.549630
11
247.273660
21
248.549120
0
LINE
8
Layer 1
10
247.273660
20
248.549120
11
247.324860
21
248.545120
0
LINE
8
Layer 1
10
247.324860
20
248.545120
11
247.324860
21
248.550120
0
LINE
8
Layer 1
10
247.324860
20
248.550120
11
287.325000
21
248.550120
0
LINE
8
Layer 1
10
287.325000
20
248.550120
11
287.325000
21
298.550170
0
LINE
8
Layer 1
10
287.325000
20
298.550170
11
290.324820
21
298.550170
0
LINE
8
Layer 1
10
290.324820
20
298.550170
11
290.324820
21
318.549980
0
LINE
8
Layer 1
10
290.324820
20
318.549980
11
287.325000
21
318.549980
0
LINE
8
Layer 1
10
287.325000
20
318.549980
11
287.325000
21
338.549800
0
LINE
8
Layer 1
10
287.325000
20
338.549800
11
290.324820
21
338.549800
0
LINE
8
Layer 1
10
290.324820
20
338.549800
11
290.324820
21
358.550120
0
LINE
8
Layer 1
10
290.324820
20
358.550120
11
287.325000
21
358.550120
0
LINE
8
Layer 1
10
287.325000
20
358.550120
11
287.325000
21
408.550170
0
LINE
8
Layer 1
10
287.325000
20
408.550170
11
247.324860
21
408.550170
0
LINE
8
Layer 1
10
247.324860
20
408.550170
11
247.324860
21
408.558170
0
LINE
8
Layer 1
10
247.324860
20
408.558170
11
247.273660
21
408.557690
0
LINE
8
Layer 1
10
237.324910
20
405.534110
11
240.854493
21
405.381013
0
LINE
8
Layer 1
10
240.854493
20
405.381013
11
244.345159
21
404.954076
0
LINE
8
Layer 1
10
244.345159
20
404.954076
11
247.781622
21
404.258306
0
LINE
8
Layer 1
10
247.781622
20
404.258306
11
251.148594
21
403.298711
0
LINE
8
Layer 1
10
251.148594
20
403.298711
11
254.430787
21
402.080298
0
LINE
8
Layer 1
10
254.430787
20
402.080298
11
257.612913
21
400.608075
0
LINE
8
Layer 1
10
257.612913
20
400.608075
11
260.679687
21
398.887050
0
LINE
8
Layer 1
10
260.679687
20
398.887050
11
263.615820
21
396.922230
0
LINE
8
Layer 1
10
263.615820
20
396.922230
11
277.325060
21
396.922230
0
LINE
8
Layer 1
10
277.325060
20
396.922230
11
278.252270
21
396.836683
0
LINE
8
Layer 1
10
278.252270
20
396.836683
11
279.120187
21
396.590311
0
LINE
8
Layer 1
10
279.120187
20
396.590311
11
279.914080
21
396.198519
0
LINE
8
Layer 1
10
279.914080
20
396.198519
11
280.619217
21
395.676713
0
LINE
8
Layer 1
10
280.619217
20
395.676713
11
281.220867
21
395.040295
0
LINE
8
Layer 1
10
281.220867
20
395.040295
11
281.704297
21
394.304673
0
LINE
8
Layer 1
10
281.704297
20
394.304673
11
282.054775
21
393.485249
0
LINE
8
Layer 1
10
282.054775
20
393.485249
11
282.257570
21
392.597430
0
LINE
8
Layer 1
10
282.257570
20
392.597430
11
282.257570
21
392.879580
0
LINE
8
Layer 1
10
282.257570
20
392.879580
11
282.325270
21
392.879580
0
LINE
8
Layer 1
10
282.325270
20
392.879580
11
282.325270
21
391.922020
0
LINE
8
Layer 1
10
282.325270
20
391.922020
11
282.325270
21
305.549510
0
LINE
8
Layer 1
10
282.325270
20
305.549510
11
282.325270
21
304.049350
0
LINE
8
Layer 1
10
282.325270
20
304.049350
11
282.257570
21
303.373930
0
LINE
8
Layer 1
10
282.257570
20
303.373930
11
282.257570
21
304.874100
0
LINE
8
Layer 1
10
282.257570
20
304.874100
11
282.054775
21
303.986281
0
LINE
8
Layer 1
10
282.054775
20
303.986281
11
281.704297
21
303.166857
0
LINE
8
Layer 1
10
281.704297
20
303.166857
11
281.220867
21
302.431235
0
LINE
8
Layer 1
10
281.220867
20
302.431235
11
280.619217
21
301.794818
0
LINE
8
Layer 1
10
280.619217
20
301.794818
11
279.914080
21
301.273011
0
LINE
8
Layer 1
10
279.914080
20
301.273011
11
279.120187
21
300.881219
0
LINE
8
Layer 1
10
279.120187
20
300.881219
11
278.252270
21
300.634847
0
LINE
8
Layer 1
10
278.252270
20
300.634847
11
277.325060
21
300.549300
0
LINE
8
Layer 1
10
277.325060
20
300.549300
11
197.325290
21
300.549300
0
LINE
8
Layer 1
10
197.325290
20
300.549300
11
196.315144
21
300.650539
0
LINE
8
Layer 1
10
196.315144
20
300.650539
11
195.375413
21
300.941052
0
LINE
8
Layer 1
10
195.375413
20
300.941052
11
194.525907
21
301.401027
0
LINE
8
Layer 1
10
194.525907
20
301.401027
11
193.786435
21
302.010655
0
LINE
8
Layer 1
10
193.786435
20
302.010655
11
193.176807
21
302.750127
0
LINE
8
Layer 1
10
193.176807
20
302.750127
11
192.716832
21
303.599633
0
LINE
8
Layer 1
10
192.716832
20
303.599633
11
192.426319
21
304.539364
0
LINE
8
Layer 1
10
192.426319
20
304.539364
11
192.325080
21
305.549510
0
LINE
8
Layer 1
10
192.325080
20
305.549510
11
192.325080
21
360.534270
0
LINE
8
Layer 1
10
192.325080
20
360.534270
11
192.325080
21
391.922020
0
LINE
8
Layer 1
10
192.325080
20
391.922020
11
192.426319
21
392.932166
0
LINE
8
Layer 1
10
192.426319
20
392.932166
11
192.716832
21
393.871897
0
LINE
8
Layer 1
10
192.716832
20
393.871897
11
193.176807
21
394.721403
0
LINE
8
Layer 1
10
193.176807
20
394.721403
11
193.786435
21
395.460875
0
LINE
8
Layer 1
10
193.786435
20
395.460875
11
194.525907
21
396.070503
0
LINE
8
Layer 1
10
194.525907
20
396.070503
11
195.375413
21
396.530478
0
LINE
8
Layer 1
10
195.375413
20
396.530478
11
196.315144
21
396.820991
0
LINE
8
Layer 1
10
196.315144
20
396.820991
11
197.325290
21
396.922230
0
LINE
8
Layer 1
10
197.325290
20
396.922230
11
210.864510
21
396.922230
0
LINE
8
Layer 1
10
210.864510
20
396.922230
11
213.819006
21
398.898257
0
LINE
8
Layer 1
10
213.819006
20
398.898257
11
216.905524
21
400.627410
0
LINE
8
Layer 1
10
216.905524
20
400.627410
11
220.108490
21
402.104620
0
LINE
8
Layer 1
10
220.108490
20
402.104620
11
223.412329
21
403.324818
0
LINE
8
Layer 1
10
223.412329
20
403.324818
11
226.801465
21
404.282935
0
LINE
8
Layer 1
10
226.801465
20
404.282935
11
230.260324
21
404.973903
0
LINE
8
Layer 1
10
230.260324
20
404.973903
11
233.773330
21
405.392650
0
LINE
8
Layer 1
10
233.773330
20
405.392650
11
237.324910
21
405.534110
0
LINE
8
Layer 1
10
237.324910
20
405.534110
11
237.324910
21
405.534110
0
LINE
8
Layer 1
10
194.324950
20
403.049500
11
194.899064
21
402.935353
0
LINE
8
Layer 1
10
194.899064
20
402.935353
11
195.385777
21
402.610164
0
LINE
8
Layer 1
10
195.385777
20
402.610164
11
195.710969
21
402.123454
0
LINE
8
Layer 1
10
195.710969
20
402.123454
11
195.825120
21
401.549340
0
LINE
8
Layer 1
10
195.825120
20
401.549340
11
195.710972
21
400.975223
0
LINE
8
Layer 1
10
195.710972
20
400.975223
11
195.385780
21
400.488510
0
LINE
8
Layer 1
10
195.385780
20
400.488510
11
194.899067
21
400.163318
0
LINE
8
Layer 1
10
194.899067
20
400.163318
11
194.324950
21
400.049170
0
LINE
8
Layer 1
10
194.324950
20
400.049170
11
193.741153
21
400.167165
0
LINE
8
Layer 1
10
193.741153
20
400.167165
11
193.264456
21
400.488694
0
LINE
8
Layer 1
10
193.264456
20
400.488694
11
192.943093
21
400.965503
0
LINE
8
Layer 1
10
192.943093
20
400.965503
11
192.825300
21
401.549340
0
LINE
8
Layer 1
10
192.825300
20
401.549340
11
192.943096
21
402.133174
0
LINE
8
Layer 1
10
192.943096
20
402.133174
11
193.264460
21
402.609980
0
LINE
8
Layer 1
10
193.264460
20
402.609980
11
193.741156
21
402.931506
0
LINE
8
Layer 1
10
193.741156
20
402.931506
11
194.324950
21
403.049500
0
LINE
8
Layer 1
10
194.324950
20
403.049500
11
194.324950
21
403.049500
0
LINE
8
Layer 1
10
280.324870
20
403.049500
11
280.898984
21
402.935353
0
LINE
8
Layer 1
10
280.898984
20
402.935353
11
281.385697
21
402.610164
0
LINE
8
Layer 1
10
281.385697
20
402.610164
11
281.710889
21
402.123454
0
LINE
8
Layer 1
10
281.710889
20
402.123454
11
281.825040
21
401.549340
0
LINE
8
Layer 1
10
281.825040
20
401.549340
11
281.710892
21
400.975223
0
LINE
8
Layer 1
10
281.710892
20
400.975223
11
281.385700
21
400.488510
0
LINE
8
Layer 1
10
281.385700
20
400.488510
11
280.898987
21
400.163318
0
LINE
8
Layer 1
10
280.898987
20
400.163318
11
280.324870
21
400.049170
0
LINE
8
Layer 1
10
280.324870
20
400.049170
11
279.741073
21
400.167165
0
LINE
8
Layer 1
10
279.741073
20
400.167165
11
279.264376
21
400.488694
0
LINE
8
Layer 1
10
279.264376
20
400.488694
11
278.943013
21
400.965503
0
LINE
8
Layer 1
10
278.943013
20
400.965503
11
278.825220
21
401.549340
0
LINE
8
Layer 1
10
278.825220
20
401.549340
11
278.943016
21
402.133174
0
LINE
8
Layer 1
10
278.943016
20
402.133174
11
279.264380
21
402.609980
0
LINE
8
Layer 1
10
279.264380
20
402.609980
11
279.741076
21
402.931506
0
LINE
8
Layer 1
10
279.741076
20
402.931506
11
280.324870
21
403.049500
0
LINE
8
Layer 1
10
280.324870
20
403.049500
11
280.324870
21
403.049500
0
LINE
8
Layer 1
10
194.324950
20
257.049630
11
194.899067
21
256.935482
0
LINE
8
Layer 1
10
194.899067
20
256.935482
11
195.385780
21
256.610290
0
LINE
8
Layer 1
10
195.385780
20
256.610290
11
195.710972
21
256.123577
0
LINE
8
Layer 1
10
195.710972
20
256.123577
11
195.825120
21
255.549460
0
LINE
8
Layer 1
10
195.825120
20
255.549460
11
195.710969
21
254.975346
0
LINE
8
Layer 1
10
195.710969
20
254.975346
11
195.385777
21
254.488636
0
LINE
8
Layer 1
10
195.385777
20
254.488636
11
194.899064
21
254.163447
0
LINE
8
Layer 1
10
194.899064
20
254.163447
11
194.324950
21
254.049300
0
LINE
8
Layer 1
10
194.324950
20
254.049300
11
193.741156
21
254.167294
0
LINE
8
Layer 1
10
193.741156
20
254.167294
11
193.264460
21
254.488820
0
LINE
8
Layer 1
10
193.264460
20
254.488820
11
192.943096
21
254.965626
0
LINE
8
Layer 1
10
192.943096
20
254.965626
11
192.825300
21
255.549460
0
LINE
8
Layer 1
10
192.825300
20
255.549460
11
192.943093
21
256.133297
0
LINE
8
Layer 1
10
192.943093
20
256.133297
11
193.264456
21
256.610106
0
LINE
8
Layer 1
10
193.264456
20
256.610106
11
193.741153
21
256.931635
0
LINE
8
Layer 1
10
193.741153
20
256.931635
11
194.324950
21
257.049630
0
LINE
8
Layer 1
10
194.324950
20
257.049630
11
194.324950
21
257.049630
0
LINE
8
Layer 1
10
280.324870
20
257.049630
11
280.898987
21
256.935482
0
LINE
8
Layer 1
10
280.898987
20
256.935482
11
281.385700
21
256.610290
0
LINE
8
Layer 1
10
281.385700
20
256.610290
11
281.710892
21
256.123577
0
LINE
8
Layer 1
10
281.710892
20
256.123577
11
281.825040
21
255.549460
0
LINE
8
Layer 1
10
281.825040
20
255.549460
11
281.710889
21
254.975346
0
LINE
8
Layer 1
10
281.710889
20
254.975346
11
281.385697
21
254.488636
0
LINE
8
Layer 1
10
281.385697
20
254.488636
11
280.898984
21
254.163447
0
LINE
8
Layer 1
10
280.898984
20
254.163447
11
280.324870
21
254.049300
0
LINE
8
Layer 1
10
280.324870
20
254.049300
11
279.741076
21
254.167294
0
LINE
8
Layer 1
10
279.741076
20
254.167294
11
279.264380
21
254.488820
0
LINE
8
Layer 1
10
279.264380
20
254.488820
11
278.943016
21
254.965626
0
LINE
8
Layer 1
10
278.943016
20
254.965626
11
278.825220
21
255.549460
0
LINE
8
Layer 1
10
278.825220
20
255.549460
11
278.943013
21
256.133297
0
LINE
8
Layer 1
10
278.943013
20
256.133297
11
279.264376
21
256.610106
0
LINE
8
Layer 1
10
279.264376
20
256.610106
11
279.741073
21
256.931635
0
LINE
8
Layer 1
10
279.741073
20
256.931635
11
280.324870
21
257.049630
0
LINE
8
Layer 1
10
280.324870
20
257.049630
11
280.324870
21
257.049630
0
LINE
8
Layer 1
10
15.820840
20
418.527650
11
15.820840
21
415.527310
0
LINE
8
Layer 1
10
15.820840
20
415.527310
11
5.820420
21
415.527310
0
LINE
8
Layer 1
10
5.820420
20
415.527310
11
5.820420
21
375.527689
0
LINE
8
Layer 1
10
5.820420
20
375.527689
11
2.820600
21
375.527689
0
LINE
8
Layer 1
10
2.820600
20
375.527689
11
2.820600
21
355.527359
0
LINE
8
Layer 1
10
2.820600
20
355.527359
11
5.820420
21
355.527359
0
LINE
8
Layer 1
10
5.820420
20
355.527359
11
5.820420
21
315.527734
0
LINE
8
Layer 1
10
5.820420
20
315.527734
11
15.883370
21
315.527734
0
LINE
8
Layer 1
10
15.883370
20
315.527734
11
15.883370
21
312.527400
0
LINE
8
Layer 1
10
15.883370
20
312.527400
11
35.883180
21
312.527400
0
LINE
8
Layer 1
10
35.883180
20
312.527400
11
35.883180
21
315.527734
0
LINE
8
Layer 1
10
35.883180
20
315.527734
11
142.874587
21
315.527734
0
LINE
8
Layer 1
10
142.874587
20
315.527734
11
152.820750
21
315.527734
0
LINE
8
Layer 1
10
152.820750
20
315.527734
11
155.820566
21
315.527734
0
LINE
8
Layer 1
10
155.820566
20
315.527734
11
158.402838
21
315.527734
0
LINE
8
Layer 1
10
158.402838
20
315.527734
11
159.320611
21
315.527734
0
LINE
8
Layer 1
10
159.320611
20
315.527734
11
159.320611
21
312.527400
0
LINE
8
Layer 1
10
159.320611
20
312.527400
11
162.314227
21
312.527400
0
LINE
8
Layer 1
10
162.314227
20
312.527400
11
162.314227
21
315.527734
0
LINE
8
Layer 1
10
162.314227
20
315.527734
11
165.820473
21
315.527734
0
LINE
8
Layer 1
10
165.820473
20
315.527734
11
165.820473
21
415.527310
0
LINE
8
Layer 1
10
165.820473
20
415.527310
11
162.314227
21
415.527310
0
LINE
8
Layer 1
10
162.314227
20
415.527310
11
162.314227
21
418.527650
0
LINE
8
Layer 1
10
162.314227
20
418.527650
11
159.320611
21
418.527650
0
LINE
8
Layer 1
10
159.320611
20
418.527650
11
159.320611
21
415.527310
0
LINE
8
Layer 1
10
159.320611
20
415.527310
11
155.820566
21
415.527310
0
LINE
8
Layer 1
10
155.820566
20
415.527310
11
152.820750
21
415.527310
0
LINE
8
Layer 1
10
152.820750
20
415.527310
11
144.079164
21
415.527310
0
LINE
8
Layer 1
10
144.079164
20
415.527310
11
35.820660
21
415.527310
0
LINE
8
Layer 1
10
35.820660
20
415.527310
11
35.820660
21
418.527650
0
LINE
8
Layer 1
10
35.820660
20
418.527650
11
15.820840
21
418.527650
0
LINE
8
Layer 1
10
55.569840
20
392.643957
11
56.820410
21
390.479748
0
LINE
8
Layer 1
10
56.820410
20
390.479748
11
55.571390
21
388.313989
0
LINE
8
Layer 1
10
55.571390
20
388.313989
11
53.071800
21
388.312989
0
LINE
8
Layer 1
10
53.071800
20
388.312989
11
51.820710
21
390.477715
0
LINE
8
Layer 1
10
51.820710
20
390.477715
11
53.069730
21
392.642957
0
LINE
8
Layer 1
10
53.069730
20
392.642957
11
55.569840
21
392.643957
0
LINE
8
Layer 1
10
60.908530
20
389.957816
11
62.159620
21
387.793090
0
LINE
8
Layer 1
10
62.159620
20
387.793090
11
60.910600
21
385.627331
0
LINE
8
Layer 1
10
60.910600
20
385.627331
11
58.410490
21
385.626331
0
LINE
8
Layer 1
10
58.410490
20
385.626331
11
57.159920
21
387.791057
0
LINE
8
Layer 1
10
57.159920
20
387.791057
11
58.408940
21
389.956816
0
LINE
8
Layer 1
10
58.408940
20
389.956816
11
60.908530
21
389.957816
0
LINE
8
Layer 1
10
50.327260
20
389.874096
11
51.577830
21
387.709370
0
LINE
8
Layer 1
10
51.577830
20
387.709370
11
50.328810
21
385.543611
0
LINE
8
Layer 1
10
50.328810
20
385.543611
11
47.828710
21
385.542611
0
LINE
8
Layer 1
10
47.828710
20
385.542611
11
46.578140
21
387.707336
0
LINE
8
Layer 1
10
46.578140
20
387.707336
11
47.827160
21
389.873096
0
LINE
8
Layer 1
10
47.827160
20
389.873096
11
50.327260
21
389.874096
0
LINE
8
Layer 1
10
66.062740
20
387.233947
11
67.313820
21
385.069221
0
LINE
8
Layer 1
10
67.313820
20
385.069221
11
66.064800
21
382.903979
0
LINE
8
Layer 1
10
66.064800
20
382.903979
11
63.564700
21
382.902979
0
LINE
8
Layer 1
10
63.564700
20
382.902979
11
62.313610
21
385.067188
0
LINE
8
Layer 1
10
62.313610
20
385.067188
11
63.562630
21
387.232948
0
LINE
8
Layer 1
10
63.562630
20
387.232948
11
66.062740
21
387.233947
0
LINE
8
Layer 1
10
45.307930
20
387.152297
11
46.558500
21
384.988088
0
LINE
8
Layer 1
10
46.558500
20
384.988088
11
45.309480
21
382.822329
0
LINE
8
Layer 1
10
45.309480
20
382.822329
11
42.809380
21
382.821329
0
LINE
8
Layer 1
10
42.809380
20
382.821329
11
41.558810
21
384.986054
0
LINE
8
Layer 1
10
41.558810
20
384.986054
11
42.807830
21
387.151297
0
LINE
8
Layer 1
10
42.807830
20
387.151297
11
45.307930
21
387.152297
0
LINE
8
Layer 1
10
55.569840
20
387.143997
11
56.820410
21
384.979788
0
LINE
8
Layer 1
10
56.820410
20
384.979788
11
55.571390
21
382.814029
0
LINE
8
Layer 1
10
55.571390
20
382.814029
11
53.071800
21
382.813029
0
LINE
8
Layer 1
10
53.071800
20
382.813029
11
51.820710
21
384.977755
0
LINE
8
Layer 1
10
51.820710
20
384.977755
11
53.069730
21
387.142998
0
LINE
8
Layer 1
10
53.069730
20
387.142998
11
55.569840
21
387.143997
0
LINE
8
Layer 1
10
60.908530
20
384.457856
11
62.159620
21
382.293131
0
LINE
8
Layer 1
10
62.159620
20
382.293131
11
60.910600
21
380.127371
0
LINE
8
Layer 1
10
60.910600
20
380.127371
11
58.410490
21
380.126371
0
LINE
8
Layer 1
10
58.410490
20
380.126371
11
57.159920
21
382.291096
0
LINE
8
Layer 1
10
57.159920
20
382.291096
11
58.408940
21
384.456856
0
LINE
8
Layer 1
10
58.408940
20
384.456856
11
60.908530
21
384.457856
0
LINE
8
Layer 1
10
50.327260
20
384.374136
11
51.577830
21
382.209411
0
LINE
8
Layer 1
10
51.577830
20
382.209411
11
50.328810
21
380.043651
0
LINE
8
Layer 1
10
50.328810
20
380.043651
11
47.828710
21
380.042651
0
LINE
8
Layer 1
10
47.828710
20
380.042651
11
46.578140
21
382.207377
0
LINE
8
Layer 1
10
46.578140
20
382.207377
11
47.827160
21
384.373136
0
LINE
8
Layer 1
10
47.827160
20
384.373136
11
50.327260
21
384.374136
0
LINE
8
Layer 1
10
40.089130
20
384.144176
11
41.340220
21
381.979451
0
LINE
8
Layer 1
10
41.340220
20
381.979451
11
40.091200
21
379.814208
0
LINE
8
Layer 1
10
40.091200
20
379.814208
11
37.591090
21
379.813208
0
LINE
8
Layer 1
10
37.591090
20
379.813208
11
36.340000
21
381.977417
0
LINE
8
Layer 1
10
36.340000
20
381.977417
11
37.589020
21
384.143176
0
LINE
8
Layer 1
10
37.589020
20
384.143176
11
40.089130
21
384.144176
0
LINE
8
Layer 1
10
71.024710
20
384.144176
11
72.275280
21
381.979451
0
LINE
8
Layer 1
10
72.275280
20
381.979451
11
71.026260
21
379.814208
0
LINE
8
Layer 1
10
71.026260
20
379.814208
11
68.526670
21
379.813208
0
LINE
8
Layer 1
10
68.526670
20
379.813208
11
67.275580
21
381.977417
0
LINE
8
Layer 1
10
67.275580
20
381.977417
11
68.524600
21
384.143176
0
LINE
8
Layer 1
10
68.524600
20
384.143176
11
71.024710
21
384.144176
0
LINE
8
Layer 1
10
66.062740
20
381.733988
11
67.313820
21
379.569262
0
LINE
8
Layer 1
10
67.313820
20
379.569262
11
66.064800
21
377.403503
0
LINE
8
Layer 1
10
66.064800
20
377.403503
11
63.564700
21
377.402503
0
LINE
8
Layer 1
10
63.564700
20
377.402503
11
62.313610
21
379.567229
0
LINE
8
Layer 1
10
62.313610
20
379.567229
11
63.562630
21
381.732988
0
LINE
8
Layer 1
10
63.562630
20
381.732988
11
66.062740
21
381.733988
0
LINE
8
Layer 1
10
45.307930
20
381.652338
11
46.558500
21
379.488129
0
LINE
8
Layer 1
10
46.558500
20
379.488129
11
45.309480
21
377.322370
0
LINE
8
Layer 1
10
45.309480
20
377.322370
11
42.809380
21
377.321370
0
LINE
8
Layer 1
10
42.809380
20
377.321370
11
41.558810
21
379.485579
0
LINE
8
Layer 1
10
41.558810
20
379.485579
11
42.807830
21
381.651338
0
LINE
8
Layer 1
10
42.807830
20
381.651338
11
45.307930
21
381.652338
0
LINE
8
Layer 1
10
55.569840
20
381.644038
11
56.820410
21
379.479829
0
LINE
8
Layer 1
10
56.820410
20
379.479829
11
55.571390
21
377.314069
0
LINE
8
Layer 1
10
55.571390
20
377.314069
11
53.071800
21
377.313069
0
LINE
8
Layer 1
10
53.071800
20
377.313069
11
51.820710
21
379.477278
0
LINE
8
Layer 1
10
51.820710
20
379.477278
11
53.069730
21
381.643037
0
LINE
8
Layer 1
10
53.069730
20
381.643037
11
55.569840
21
381.644038
0
LINE
8
Layer 1
10
35.094600
20
381.543785
11
36.345170
21
379.379060
0
LINE
8
Layer 1
10
36.345170
20
379.379060
11
35.096150
21
377.213300
0
LINE
8
Layer 1
10
35.096150
20
377.213300
11
32.596050
21
377.212300
0
LINE
8
Layer 1
10
32.596050
20
377.212300
11
31.345480
21
379.377025
0
LINE
8
Layer 1
10
31.345480
20
379.377025
11
32.594500
21
381.542268
0
LINE
8
Layer 1
10
32.594500
20
381.542268
11
35.094600
21
381.543785
0
LINE
8
Layer 1
10
76.032155
20
381.451285
11
77.282725
21
379.286560
0
LINE
8
Layer 1
10
77.282725
20
379.286560
11
76.033705
21
377.121317
0
LINE
8
Layer 1
10
76.033705
20
377.121317
11
73.533600
21
377.120317
0
LINE
8
Layer 1
10
73.533600
20
377.120317
11
72.283030
21
379.284526
0
LINE
8
Layer 1
10
72.283030
20
379.284526
11
73.532050
21
381.450285
0
LINE
8
Layer 1
10
73.532050
20
381.450285
11
76.032155
21
381.451285
0
LINE
8
Layer 1
10
60.908530
20
378.957898
11
62.159620
21
376.793172
0
LINE
8
Layer 1
10
62.159620
20
376.793172
11
60.910600
21
374.627413
0
LINE
8
Layer 1
10
60.910600
20
374.627413
11
58.410490
21
374.626413
0
LINE
8
Layer 1
10
58.410490
20
374.626413
11
57.159920
21
376.791139
0
LINE
8
Layer 1
10
57.159920
20
376.791139
11
58.408940
21
378.956381
0
LINE
8
Layer 1
10
58.408940
20
378.956381
11
60.908530
21
378.957898
0
LINE
8
Layer 1
10
50.327260
20
378.873668
11
51.577830
21
376.709459
0
LINE
8
Layer 1
10
51.577830
20
376.709459
11
50.328810
21
374.543700
0
LINE
8
Layer 1
10
50.328810
20
374.543700
11
47.828710
21
374.542700
0
LINE
8
Layer 1
10
47.828710
20
374.542700
11
46.578140
21
376.707426
0
LINE
8
Layer 1
10
46.578140
20
376.707426
11
47.827160
21
378.872668
0
LINE
8
Layer 1
10
47.827160
20
378.872668
11
50.327260
21
378.873668
0
LINE
8
Layer 1
10
40.089130
20
378.644225
11
41.340220
21
376.479499
0
LINE
8
Layer 1
10
41.340220
20
376.479499
11
40.091200
21
374.313740
0
LINE
8
Layer 1
10
40.091200
20
374.313740
11
37.591090
21
374.312740
0
LINE
8
Layer 1
10
37.591090
20
374.312740
11
36.340000
21
376.477466
0
LINE
8
Layer 1
10
36.340000
20
376.477466
11
37.589020
21
378.643225
0
LINE
8
Layer 1
10
37.589020
20
378.643225
11
40.089130
21
378.644225
0
LINE
8
Layer 1
10
71.024710
20
378.644225
11
72.275280
21
376.479499
0
LINE
8
Layer 1
10
72.275280
20
376.479499
11
71.026260
21
374.313740
0
LINE
8
Layer 1
10
71.026260
20
374.313740
11
68.526670
21
374.312740
0
LINE
8
Layer 1
10
68.526670
20
374.312740
11
67.275580
21
376.477466
0
LINE
8
Layer 1
10
67.275580
20
376.477466
11
68.524600
21
378.643225
0
LINE
8
Layer 1
10
68.524600
20
378.643225
11
71.024710
21
378.644225
0
LINE
8
Layer 1
10
66.062740
20
376.234036
11
67.313820
21
374.069310
0
LINE
8
Layer 1
10
67.313820
20
374.069310
11
66.064800
21
371.903551
0
LINE
8
Layer 1
10
66.064800
20
371.903551
11
63.564700
21
371.902551
0
LINE
8
Layer 1
10
63.564700
20
371.902551
11
62.313610
21
374.067277
0
LINE
8
Layer 1
10
62.313610
20
374.067277
11
63.562630
21
376.233036
0
LINE
8
Layer 1
10
63.562630
20
376.233036
11
66.062740
21
376.234036
0
LINE
8
Layer 1
10
45.307930
20
376.152386
11
46.558500
21
373.987660
0
LINE
8
Layer 1
10
46.558500
20
373.987660
11
45.309480
21
371.822418
0
LINE
8
Layer 1
10
45.309480
20
371.822418
11
42.809380
21
371.821418
0
LINE
8
Layer 1
10
42.809380
20
371.821418
11
41.558810
21
373.985627
0
LINE
8
Layer 1
10
41.558810
20
373.985627
11
42.807830
21
376.151387
0
LINE
8
Layer 1
10
42.807830
20
376.151387
11
45.307930
21
376.152386
0
LINE
8
Layer 1
10
55.569840
20
376.144086
11
56.820410
21
373.979360
0
LINE
8
Layer 1
10
56.820410
20
373.979360
11
55.571390
21
371.814118
0
LINE
8
Layer 1
10
55.571390
20
371.814118
11
53.071800
21
371.813118
0
LINE
8
Layer 1
10
53.071800
20
371.813118
11
51.820710
21
373.977327
0
LINE
8
Layer 1
10
51.820710
20
373.977327
11
53.069730
21
376.143086
0
LINE
8
Layer 1
10
53.069730
20
376.143086
11
55.569840
21
376.144086
0
LINE
8
Layer 1
10
35.094600
20
376.043317
11
36.345170
21
373.879108
0
LINE
8
Layer 1
10
36.345170
20
373.879108
11
35.096150
21
371.713349
0
LINE
8
Layer 1
10
35.096150
20
371.713349
11
32.596050
21
371.712349
0
LINE
8
Layer 1
10
32.596050
20
371.712349
11
31.345480
21
373.877075
0
LINE
8
Layer 1
10
31.345480
20
373.877075
11
32.594500
21
376.042317
0
LINE
8
Layer 1
10
32.594500
20
376.042317
11
35.094600
21
376.043317
0
LINE
8
Layer 1
10
76.032155
20
375.951337
11
77.282725
21
373.786611
0
LINE
8
Layer 1
10
77.282725
20
373.786611
11
76.033705
21
371.621369
0
LINE
8
Layer 1
10
76.033705
20
371.621369
11
73.533600
21
371.619769
0
LINE
8
Layer 1
10
73.533600
20
371.619769
11
72.283030
21
373.784495
0
LINE
8
Layer 1
10
72.283030
20
373.784495
11
73.532050
21
375.950254
0
LINE
8
Layer 1
10
73.532050
20
375.950254
11
76.032155
21
375.951337
0
LINE
8
Layer 1
10
60.908530
20
373.457432
11
62.159620
21
371.293223
0
LINE
8
Layer 1
10
62.159620
20
371.293223
11
60.910600
21
369.127464
0
LINE
8
Layer 1
10
60.910600
20
369.127464
11
58.410490
21
369.126464
0
LINE
8
Layer 1
10
58.410490
20
369.126464
11
57.159920
21
371.291190
0
LINE
8
Layer 1
10
57.159920
20
371.291190
11
58.408940
21
373.456433
0
LINE
8
Layer 1
10
58.408940
20
373.456433
11
60.908530
21
373.457432
0
LINE
8
Layer 1
10
50.327260
20
373.373712
11
51.577830
21
371.209503
0
LINE
8
Layer 1
10
51.577830
20
371.209503
11
50.328810
21
369.043744
0
LINE
8
Layer 1
10
50.328810
20
369.043744
11
47.828710
21
369.042744
0
LINE
8
Layer 1
10
47.828710
20
369.042744
11
46.578140
21
371.207469
0
LINE
8
Layer 1
10
46.578140
20
371.207469
11
47.827160
21
373.372712
0
LINE
8
Layer 1
10
47.827160
20
373.372712
11
50.327260
21
373.373712
0
LINE
8
Layer 1
10
40.089130
20
373.144269
11
41.340220
21
370.979543
0
LINE
8
Layer 1
10
41.340220
20
370.979543
11
40.091200
21
368.813784
0
LINE
8
Layer 1
10
40.091200
20
368.813784
11
37.591090
21
368.812784
0
LINE
8
Layer 1
10
37.591090
20
368.812784
11
36.340000
21
370.977510
0
LINE
8
Layer 1
10
36.340000
20
370.977510
11
37.589020
21
373.143269
0
LINE
8
Layer 1
10
37.589020
20
373.143269
11
40.089130
21
373.144269
0
LINE
8
Layer 1
10
71.024710
20
373.144269
11
72.275280
21
370.979543
0
LINE
8
Layer 1
10
72.275280
20
370.979543
11
71.026260
21
368.813784
0
LINE
8
Layer 1
10
71.026260
20
368.813784
11
68.526670
21
368.812784
0
LINE
8
Layer 1
10
68.526670
20
368.812784
11
67.275580
21
370.977510
0
LINE
8
Layer 1
10
67.275580
20
370.977510
11
68.524600
21
373.143269
0
LINE
8
Layer 1
10
68.524600
20
373.143269
11
71.024710
21
373.144269
0
LINE
8
Layer 1
10
66.062740
20
370.733563
11
67.313820
21
368.569354
0
LINE
8
Layer 1
10
67.313820
20
368.569354
11
66.064800
21
366.403595
0
LINE
8
Layer 1
10
66.064800
20
366.403595
11
63.564700
21
366.402595
0
LINE
8
Layer 1
10
63.564700
20
366.402595
11
62.313610
21
368.567320
0
LINE
8
Layer 1
10
62.313610
20
368.567320
11
63.562630
21
370.732563
0
LINE
8
Layer 1
10
63.562630
20
370.732563
11
66.062740
21
370.733563
0
LINE
8
Layer 1
10
45.307930
20
370.652433
11
46.558500
21
368.487708
0
LINE
8
Layer 1
10
46.558500
20
368.487708
11
45.309480
21
366.322465
0
LINE
8
Layer 1
10
45.309480
20
366.322465
11
42.809380
21
366.320965
0
LINE
8
Layer 1
10
42.809380
20
366.320965
11
41.558810
21
368.485691
0
LINE
8
Layer 1
10
41.558810
20
368.485691
11
42.807830
21
370.651450
0
LINE
8
Layer 1
10
42.807830
20
370.651450
11
45.307930
21
370.652433
0
LINE
8
Layer 1
10
55.569840
20
370.644133
11
56.820410
21
368.479407
0
LINE
8
Layer 1
10
56.820410
20
368.479407
11
55.571390
21
366.314165
0
LINE
8
Layer 1
10
55.571390
20
366.314165
11
53.071800
21
366.312665
0
LINE
8
Layer 1
10
53.071800
20
366.312665
11
51.820710
21
368.477390
0
LINE
8
Layer 1
10
51.820710
20
368.477390
11
53.069730
21
370.643150
0
LINE
8
Layer 1
10
53.069730
20
370.643150
11
55.569840
21
370.644133
0
LINE
8
Layer 1
10
35.094600
20
370.543364
11
36.345170
21
368.379155
0
LINE
8
Layer 1
10
36.345170
20
368.379155
11
35.096150
21
366.213396
0
LINE
8
Layer 1
10
35.096150
20
366.213396
11
32.596050
21
366.212396
0
LINE
8
Layer 1
10
32.596050
20
366.212396
11
31.345480
21
368.377122
0
LINE
8
Layer 1
10
31.345480
20
368.377122
11
32.594500
21
370.542365
0
LINE
8
Layer 1
10
32.594500
20
370.542365
11
35.094600
21
370.543364
0
LINE
8
Layer 1
10
76.032155
20
370.451384
11
77.282725
21
368.286658
0
LINE
8
Layer 1
10
77.282725
20
368.286658
11
76.033705
21
366.120899
0
LINE
8
Layer 1
10
76.033705
20
366.120899
11
73.533600
21
366.119899
0
LINE
8
Layer 1
10
73.533600
20
366.119899
11
72.283030
21
368.284624
0
LINE
8
Layer 1
10
72.283030
20
368.284624
11
73.532050
21
370.450384
0
LINE
8
Layer 1
10
73.532050
20
370.450384
11
76.032155
21
370.451384
0
LINE
8
Layer 1
10
60.908530
20
367.957479
11
62.159620
21
365.793270
0
LINE
8
Layer 1
10
62.159620
20
365.793270
11
60.910600
21
363.627511
0
LINE
8
Layer 1
10
60.910600
20
363.627511
11
58.410490
21
363.626511
0
LINE
8
Layer 1
10
58.410490
20
363.626511
11
57.159920
21
365.790720
0
LINE
8
Layer 1
10
57.159920
20
365.790720
11
58.408940
21
367.956479
0
LINE
8
Layer 1
10
58.408940
20
367.956479
11
60.908530
21
367.957479
0
LINE
8
Layer 1
10
50.327260
20
367.873769
11
51.577830
21
365.709560
0
LINE
8
Layer 1
10
51.577830
20
365.709560
11
50.328810
21
363.543800
0
LINE
8
Layer 1
10
50.328810
20
363.543800
11
47.828710
21
363.542800
0
LINE
8
Layer 1
10
47.828710
20
363.542800
11
46.578140
21
365.707009
0
LINE
8
Layer 1
10
46.578140
20
365.707009
11
47.827160
21
367.872768
0
LINE
8
Layer 1
10
47.827160
20
367.872768
11
50.327260
21
367.873769
0
LINE
8
Layer 1
10
40.089130
20
367.643809
11
41.340220
21
365.479600
0
LINE
8
Layer 1
10
41.340220
20
365.479600
11
40.091200
21
363.313840
0
LINE
8
Layer 1
10
40.091200
20
363.313840
11
37.591090
21
363.312840
0
LINE
8
Layer 1
10
37.591090
20
363.312840
11
36.340000
21
365.477565
0
LINE
8
Layer 1
10
36.340000
20
365.477565
11
37.589020
21
367.642808
0
LINE
8
Layer 1
10
37.589020
20
367.642808
11
40.089130
21
367.643809
0
LINE
8
Layer 1
10
71.024710
20
367.643809
11
72.275280
21
365.479600
0
LINE
8
Layer 1
10
72.275280
20
365.479600
11
71.026260
21
363.313840
0
LINE
8
Layer 1
10
71.026260
20
363.313840
11
68.526670
21
363.312840
0
LINE
8
Layer 1
10
68.526670
20
363.312840
11
67.275580
21
365.477565
0
LINE
8
Layer 1
10
67.275580
20
365.477565
11
68.524600
21
367.642808
0
LINE
8
Layer 1
10
68.524600
20
367.642808
11
71.024710
21
367.643809
0
LINE
8
Layer 1
10
66.062740
20
365.233620
11
67.313820
21
363.069411
0
LINE
8
Layer 1
10
67.313820
20
363.069411
11
66.064800
21
360.903651
0
LINE
8
Layer 1
10
66.064800
20
360.903651
11
63.564700
21
360.902651
0
LINE
8
Layer 1
10
63.564700
20
360.902651
11
62.313610
21
363.067377
0
LINE
8
Layer 1
10
62.313610
20
363.067377
11
63.562630
21
365.232619
0
LINE
8
Layer 1
10
63.562630
20
365.232619
11
66.062740
21
365.233620
0
LINE
8
Layer 1
10
45.307930
20
365.152490
11
46.558500
21
362.987764
0
LINE
8
Layer 1
10
46.558500
20
362.987764
11
45.309480
21
360.822005
0
LINE
8
Layer 1
10
45.309480
20
360.822005
11
42.809380
21
360.821005
0
LINE
8
Layer 1
10
42.809380
20
360.821005
11
41.558810
21
362.985731
0
LINE
8
Layer 1
10
41.558810
20
362.985731
11
42.807830
21
365.151490
0
LINE
8
Layer 1
10
42.807830
20
365.151490
11
45.307930
21
365.152490
0
LINE
8
Layer 1
10
55.569840
20
365.144190
11
56.820410
21
362.979465
0
LINE
8
Layer 1
10
56.820410
20
362.979465
11
55.571390
21
360.813705
0
LINE
8
Layer 1
10
55.571390
20
360.813705
11
53.071800
21
360.812705
0
LINE
8
Layer 1
10
53.071800
20
360.812705
11
51.820710
21
362.977431
0
LINE
8
Layer 1
10
51.820710
20
362.977431
11
53.069730
21
365.143190
0
LINE
8
Layer 1
10
53.069730
20
365.143190
11
55.569840
21
365.144190
0
LINE
8
Layer 1
10
35.094600
20
365.043421
11
36.345170
21
362.878696
0
LINE
8
Layer 1
10
36.345170
20
362.878696
11
35.096150
21
360.713453
0
LINE
8
Layer 1
10
35.096150
20
360.713453
11
32.596050
21
360.712453
0
LINE
8
Layer 1
10
32.596050
20
360.712453
11
31.345480
21
362.876662
0
LINE
8
Layer 1
10
31.345480
20
362.876662
11
32.594500
21
365.042421
0
LINE
8
Layer 1
10
32.594500
20
365.042421
11
35.094600
21
365.043421
0
LINE
8
Layer 1
10
76.032155
20
364.951441
11
77.282725
21
362.786716
0
LINE
8
Layer 1
10
77.282725
20
362.786716
11
76.033705
21
360.620956
0
LINE
8
Layer 1
10
76.033705
20
360.620956
11
73.533600
21
360.619956
0
LINE
8
Layer 1
10
73.533600
20
360.619956
11
72.283030
21
362.784682
0
LINE
8
Layer 1
10
72.283030
20
362.784682
11
73.532050
21
364.949924
0
LINE
8
Layer 1
10
73.532050
20
364.949924
11
76.032155
21
364.951441
0
LINE
8
Layer 1
10
60.908530
20
362.457537
11
62.159620
21
360.292811
0
LINE
8
Layer 1
10
62.159620
20
360.292811
11
60.910600
21
358.127569
0
LINE
8
Layer 1
10
60.910600
20
358.127569
11
58.410490
21
358.126569
0
LINE
8
Layer 1
10
58.410490
20
358.126569
11
57.159920
21
360.290778
0
LINE
8
Layer 1
10
57.159920
20
360.290778
11
58.408940
21
362.456537
0
LINE
8
Layer 1
10
58.408940
20
362.456537
11
60.908530
21
362.457537
0
LINE
8
Layer 1
10
50.327260
20
362.373817
11
51.577830
21
360.209091
0
LINE
8
Layer 1
10
51.577830
20
360.209091
11
50.328810
21
358.043849
0
LINE
8
Layer 1
10
50.328810
20
358.043849
11
47.828710
21
358.042849
0
LINE
8
Layer 1
10
47.828710
20
358.042849
11
46.578140
21
360.207058
0
LINE
8
Layer 1
10
46.578140
20
360.207058
11
47.827160
21
362.372817
0
LINE
8
Layer 1
10
47.827160
20
362.372817
11
50.327260
21
362.373817
0
LINE
8
Layer 1
10
40.089130
20
362.143857
11
41.340220
21
359.979648
0
LINE
8
Layer 1
10
41.340220
20
359.979648
11
40.091200
21
357.813889
0
LINE
8
Layer 1
10
40.091200
20
357.813889
11
37.591090
21
357.812889
0
LINE
8
Layer 1
10
37.591090
20
357.812889
11
36.340000
21
359.977615
0
LINE
8
Layer 1
10
36.340000
20
359.977615
11
37.589020
21
362.142857
0
LINE
8
Layer 1
10
37.589020
20
362.142857
11
40.089130
21
362.143857
0
LINE
8
Layer 1
10
71.024710
20
362.143857
11
72.275280
21
359.979648
0
LINE
8
Layer 1
10
72.275280
20
359.979648
11
71.026260
21
357.813889
0
LINE
8
Layer 1
10
71.026260
20
357.813889
11
68.526670
21
357.812889
0
LINE
8
Layer 1
10
68.526670
20
357.812889
11
67.275580
21
359.977615
0
LINE
8
Layer 1
10
67.275580
20
359.977615
11
68.524600
21
362.142857
0
LINE
8
Layer 1
10
68.524600
20
362.142857
11
71.024710
21
362.143857
0
LINE
8
Layer 1
10
66.062740
20
359.733668
11
67.313820
21
357.569459
0
LINE
8
Layer 1
10
67.313820
20
357.569459
11
66.064800
21
355.403700
0
LINE
8
Layer 1
10
66.064800
20
355.403700
11
63.564700
21
355.402700
0
LINE
8
Layer 1
10
63.564700
20
355.402700
11
62.313610
21
357.566909
0
LINE
8
Layer 1
10
62.313610
20
357.566909
11
63.562630
21
359.732669
0
LINE
8
Layer 1
10
63.562630
20
359.732669
11
66.062740
21
359.733668
0
LINE
8
Layer 1
10
45.307930
20
359.652538
11
46.558500
21
357.487812
0
LINE
8
Layer 1
10
46.558500
20
357.487812
11
45.309480
21
355.322053
0
LINE
8
Layer 1
10
45.309480
20
355.322053
11
42.809380
21
355.321053
0
LINE
8
Layer 1
10
42.809380
20
355.321053
11
41.558810
21
357.485779
0
LINE
8
Layer 1
10
41.558810
20
357.485779
11
42.807830
21
359.651022
0
LINE
8
Layer 1
10
42.807830
20
359.651022
11
45.307930
21
359.652538
0
LINE
8
Layer 1
10
55.569840
20
359.644238
11
56.820410
21
357.479512
0
LINE
8
Layer 1
10
56.820410
20
357.479512
11
55.571390
21
355.313753
0
LINE
8
Layer 1
10
55.571390
20
355.313753
11
53.071800
21
355.312753
0
LINE
8
Layer 1
10
53.071800
20
355.312753
11
51.820710
21
357.477479
0
LINE
8
Layer 1
10
51.820710
20
357.477479
11
53.069730
21
359.642722
0
LINE
8
Layer 1
10
53.069730
20
359.642722
11
55.569840
21
359.644238
0
LINE
8
Layer 1
10
35.094600
20
359.543469
11
36.345170
21
357.378743
0
LINE
8
Layer 1
10
36.345170
20
357.378743
11
35.096150
21
355.213501
0
LINE
8
Layer 1
10
35.096150
20
355.213501
11
32.596050
21
355.212501
0
LINE
8
Layer 1
10
32.596050
20
355.212501
11
31.345480
21
357.376710
0
LINE
8
Layer 1
10
31.345480
20
357.376710
11
32.594500
21
359.542469
0
LINE
8
Layer 1
10
32.594500
20
359.542469
11
35.094600
21
359.543469
0
LINE
8
Layer 1
10
76.032155
20
359.450969
11
77.282725
21
357.286760
0
LINE
8
Layer 1
10
77.282725
20
357.286760
11
76.033705
21
355.121001
0
LINE
8
Layer 1
10
76.033705
20
355.121001
11
73.533600
21
355.120001
0
LINE
8
Layer 1
10
73.533600
20
355.120001
11
72.283030
21
357.284727
0
LINE
8
Layer 1
10
72.283030
20
357.284727
11
73.532050
21
359.449969
0
LINE
8
Layer 1
10
73.532050
20
359.449969
11
76.032155
21
359.450969
0
LINE
8
Layer 1
10
60.908530
20
356.957581
11
62.159620
21
354.792855
0
LINE
8
Layer 1
10
62.159620
20
354.792855
11
60.910600
21
352.627613
0
LINE
8
Layer 1
10
60.910600
20
352.627613
11
58.410490
21
352.626613
0
LINE
8
Layer 1
10
58.410490
20
352.626613
11
57.159920
21
354.790822
0
LINE
8
Layer 1
10
57.159920
20
354.790822
11
58.408940
21
356.956582
0
LINE
8
Layer 1
10
58.408940
20
356.956582
11
60.908530
21
356.957581
0
LINE
8
Layer 1
10
50.327260
20
356.873861
11
51.577830
21
354.709136
0
LINE
8
Layer 1
10
51.577830
20
354.709136
11
50.328810
21
352.543893
0
LINE
8
Layer 1
10
50.328810
20
352.543893
11
47.828710
21
352.542293
0
LINE
8
Layer 1
10
47.828710
20
352.542293
11
46.578140
21
354.707018
0
LINE
8
Layer 1
10
46.578140
20
354.707018
11
47.827160
21
356.872778
0
LINE
8
Layer 1
10
47.827160
20
356.872778
11
50.327260
21
356.873861
0
LINE
8
Layer 1
10
40.089130
20
356.643901
11
41.340220
21
354.479692
0
LINE
8
Layer 1
10
41.340220
20
354.479692
11
40.091200
21
352.313933
0
LINE
8
Layer 1
10
40.091200
20
352.313933
11
37.591090
21
352.312933
0
LINE
8
Layer 1
10
37.591090
20
352.312933
11
36.340000
21
354.477142
0
LINE
8
Layer 1
10
36.340000
20
354.477142
11
37.589020
21
356.642902
0
LINE
8
Layer 1
10
37.589020
20
356.642902
11
40.089130
21
356.643901
0
LINE
8
Layer 1
10
71.024710
20
356.643901
11
72.275280
21
354.479692
0
LINE
8
Layer 1
10
72.275280
20
354.479692
11
71.026260
21
352.313933
0
LINE
8
Layer 1
10
71.026260
20
352.313933
11
68.526670
21
352.312933
0
LINE
8
Layer 1
10
68.526670
20
352.312933
11
67.275580
21
354.477142
0
LINE
8
Layer 1
10
67.275580
20
354.477142
11
68.524600
21
356.642902
0
LINE
8
Layer 1
10
68.524600
20
356.642902
11
71.024710
21
356.643901
0
LINE
8
Layer 1
10
66.062740
20
354.233712
11
67.313820
21
352.068987
0
LINE
8
Layer 1
10
67.313820
20
352.068987
11
66.064800
21
349.903744
0
LINE
8
Layer 1
10
66.064800
20
349.903744
11
63.564700
21
349.902744
0
LINE
8
Layer 1
10
63.564700
20
349.902744
11
62.313610
21
352.066953
0
LINE
8
Layer 1
10
62.313610
20
352.066953
11
63.562630
21
354.232712
0
LINE
8
Layer 1
10
63.562630
20
354.232712
11
66.062740
21
354.233712
0
LINE
8
Layer 1
10
45.307930
20
354.152062
11
46.558500
21
351.987853
0
LINE
8
Layer 1
10
46.558500
20
351.987853
11
45.309480
21
349.822093
0
LINE
8
Layer 1
10
45.309480
20
349.822093
11
42.809380
21
349.821093
0
LINE
8
Layer 1
10
42.809380
20
349.821093
11
41.558810
21
351.985819
0
LINE
8
Layer 1
10
41.558810
20
351.985819
11
42.807830
21
354.151061
0
LINE
8
Layer 1
10
42.807830
20
354.151061
11
45.307930
21
354.152062
0
LINE
8
Layer 1
10
55.569840
20
354.143762
11
56.820410
21
351.979553
0
LINE
8
Layer 1
10
56.820410
20
351.979553
11
55.571390
21
349.813794
0
LINE
8
Layer 1
10
55.571390
20
349.813794
11
53.071800
21
349.812794
0
LINE
8
Layer 1
10
53.071800
20
349.812794
11
51.820710
21
351.977519
0
LINE
8
Layer 1
10
51.820710
20
351.977519
11
53.069730
21
354.142762
0
LINE
8
Layer 1
10
53.069730
20
354.142762
11
55.569840
21
354.143762
0
LINE
8
Layer 1
10
35.094600
20
354.043510
11
36.345170
21
351.878784
0
LINE
8
Layer 1
10
36.345170
20
351.878784
11
35.096150
21
349.713542
0
LINE
8
Layer 1
10
35.096150
20
349.713542
11
32.596050
21
349.712042
0
LINE
8
Layer 1
10
32.596050
20
349.712042
11
31.345480
21
351.876767
0
LINE
8
Layer 1
10
31.345480
20
351.876767
11
32.594500
21
354.042527
0
LINE
8
Layer 1
10
32.594500
20
354.042527
11
35.094600
21
354.043510
0
LINE
8
Layer 1
10
76.032155
20
353.951010
11
77.282725
21
351.786801
0
LINE
8
Layer 1
10
77.282725
20
351.786801
11
76.033705
21
349.621042
0
LINE
8
Layer 1
10
76.033705
20
349.621042
11
73.533600
21
349.620042
0
LINE
8
Layer 1
10
73.533600
20
349.620042
11
72.283030
21
351.784251
0
LINE
8
Layer 1
10
72.283030
20
351.784251
11
73.532050
21
353.950011
0
LINE
8
Layer 1
10
73.532050
20
353.950011
11
76.032155
21
353.951010
0
LINE
8
Layer 1
10
60.908530
20
351.457622
11
62.159620
21
349.292897
0
LINE
8
Layer 1
10
62.159620
20
349.292897
11
60.910600
21
347.127137
0
LINE
8
Layer 1
10
60.910600
20
347.127137
11
58.410490
21
347.126137
0
LINE
8
Layer 1
10
58.410490
20
347.126137
11
57.159920
21
349.290863
0
LINE
8
Layer 1
10
57.159920
20
349.290863
11
58.408940
21
351.456622
0
LINE
8
Layer 1
10
58.408940
20
351.456622
11
60.908530
21
351.457622
0
LINE
8
Layer 1
10
50.327260
20
351.373902
11
51.577830
21
349.209176
0
LINE
8
Layer 1
10
51.577830
20
349.209176
11
50.328810
21
347.043417
0
LINE
8
Layer 1
10
50.328810
20
347.043417
11
47.828710
21
347.042417
0
LINE
8
Layer 1
10
47.828710
20
347.042417
11
46.578140
21
349.207143
0
LINE
8
Layer 1
10
46.578140
20
349.207143
11
47.827160
21
351.372902
0
LINE
8
Layer 1
10
47.827160
20
351.372902
11
50.327260
21
351.373902
0
LINE
8
Layer 1
10
40.089130
20
351.143941
11
41.340220
21
348.979216
0
LINE
8
Layer 1
10
41.340220
20
348.979216
11
40.091200
21
346.813973
0
LINE
8
Layer 1
10
40.091200
20
346.813973
11
37.591090
21
346.812973
0
LINE
8
Layer 1
10
37.591090
20
346.812973
11
36.340000
21
348.977182
0
LINE
8
Layer 1
10
36.340000
20
348.977182
11
37.589020
21
351.142941
0
LINE
8
Layer 1
10
37.589020
20
351.142941
11
40.089130
21
351.143941
0
LINE
8
Layer 1
10
71.024710
20
351.143941
11
72.275280
21
348.979216
0
LINE
8
Layer 1
10
72.275280
20
348.979216
11
71.026260
21
346.813973
0
LINE
8
Layer 1
10
71.026260
20
346.813973
11
68.526670
21
346.812973
0
LINE
8
Layer 1
10
68.526670
20
346.812973
11
67.275580
21
348.977182
0
LINE
8
Layer 1
10
67.275580
20
348.977182
11
68.524600
21
351.142941
0
LINE
8
Layer 1
10
68.524600
20
351.142941
11
71.024710
21
351.143941
0
LINE
8
Layer 1
10
66.062740
20
348.733753
11
67.313820
21
346.569027
0
LINE
8
Layer 1
10
67.313820
20
346.569027
11
66.064800
21
344.403784
0
LINE
8
Layer 1
10
66.064800
20
344.403784
11
63.564700
21
344.402184
0
LINE
8
Layer 1
10
63.564700
20
344.402184
11
62.313610
21
346.566910
0
LINE
8
Layer 1
10
62.313610
20
346.566910
11
63.562630
21
348.732669
0
LINE
8
Layer 1
10
63.562630
20
348.732669
11
66.062740
21
348.733753
0
LINE
8
Layer 1
10
45.307930
20
348.652103
11
46.558500
21
346.487894
0
LINE
8
Layer 1
10
46.558500
20
346.487894
11
45.309480
21
344.322135
0
LINE
8
Layer 1
10
45.309480
20
344.322135
11
42.809380
21
344.321135
0
LINE
8
Layer 1
10
42.809380
20
344.321135
11
41.558810
21
346.485344
0
LINE
8
Layer 1
10
41.558810
20
346.485344
11
42.807830
21
348.651103
0
LINE
8
Layer 1
10
42.807830
20
348.651103
11
45.307930
21
348.652103
0
LINE
8
Layer 1
10
55.569840
20
348.643803
11
56.820410
21
346.479594
0
LINE
8
Layer 1
10
56.820410
20
346.479594
11
55.571390
21
344.313834
0
LINE
8
Layer 1
10
55.571390
20
344.313834
11
53.071800
21
344.312834
0
LINE
8
Layer 1
10
53.071800
20
344.312834
11
51.820710
21
346.477043
0
LINE
8
Layer 1
10
51.820710
20
346.477043
11
53.069730
21
348.642802
0
LINE
8
Layer 1
10
53.069730
20
348.642802
11
55.569840
21
348.643803
0
LINE
8
Layer 1
10
60.908530
20
345.957662
11
62.159620
21
343.792936
0
LINE
8
Layer 1
10
62.159620
20
343.792936
11
60.910600
21
341.627177
0
LINE
8
Layer 1
10
60.910600
20
341.627177
11
58.410490
21
341.626177
0
LINE
8
Layer 1
10
58.410490
20
341.626177
11
57.159920
21
343.790903
0
LINE
8
Layer 1
10
57.159920
20
343.790903
11
58.408940
21
345.956662
0
LINE
8
Layer 1
10
58.408940
20
345.956662
11
60.908530
21
345.957662
0
LINE
8
Layer 1
10
50.327260
20
345.873942
11
51.577830
21
343.709216
0
LINE
8
Layer 1
10
51.577830
20
343.709216
11
50.328810
21
341.543457
0
LINE
8
Layer 1
10
50.328810
20
341.543457
11
47.828710
21
341.542457
0
LINE
8
Layer 1
10
47.828710
20
341.542457
11
46.578140
21
343.707183
0
LINE
8
Layer 1
10
46.578140
20
343.707183
11
47.827160
21
345.872426
0
LINE
8
Layer 1
10
47.827160
20
345.872426
11
50.327260
21
345.873942
0
LINE
8
Layer 1
10
55.569840
20
343.143876
11
56.820410
21
340.979150
0
LINE
8
Layer 1
10
56.820410
20
340.979150
11
55.571390
21
338.813908
0
LINE
8
Layer 1
10
55.571390
20
338.813908
11
53.071800
21
338.812908
0
LINE
8
Layer 1
10
53.071800
20
338.812908
11
51.820710
21
340.977117
0
LINE
8
Layer 1
10
51.820710
20
340.977117
11
53.069730
21
343.142876
0
LINE
8
Layer 1
10
53.069730
20
343.142876
11
55.569840
21
343.143876
0
LINE
8
Layer 1
10
11.543787
20
190.140140
11
11.543787
21
185.822057
0
LINE
8
Layer 1
10
11.543787
20
185.822057
11
11.543267
21
185.822057
0
LINE
8
Layer 1
10
11.543267
20
185.822057
11
11.543267
21
185.810693
0
LINE
8
Layer 1
10
11.543267
20
185.810693
11
8.829739
21
185.823094
0
LINE
8
Layer 1
10
8.829739
20
185.823094
11
8.709854
21
186.409104
0
LINE
8
Layer 1
10
8.709854
20
186.409104
11
8.441074
21
186.740490
0
LINE
8
Layer 1
10
8.441074
20
186.740490
11
7.882725
21
186.865102
0
LINE
8
Layer 1
10
7.882725
20
186.865102
11
6.298504
21
186.593909
0
LINE
8
Layer 1
10
6.298504
20
186.593909
11
5.473226
21
186.248053
0
LINE
8
Layer 1
10
5.473226
20
186.248053
11
4.759565
21
185.795327
0
LINE
8
Layer 1
10
4.759565
20
185.795327
11
4.257818
21
185.260704
0
LINE
8
Layer 1
10
4.257818
20
185.260704
11
4.068280
21
184.669161
0
LINE
8
Layer 1
10
4.068280
20
184.669161
11
4.158705
21
184.073952
0
LINE
8
Layer 1
10
4.158705
20
184.073952
11
4.418050
21
183.519579
0
LINE
8
Layer 1
10
4.418050
20
183.519579
11
5.371906
21
182.580838
0
LINE
8
Layer 1
10
5.371906
20
182.580838
11
6.786671
21
181.947933
0
LINE
8
Layer 1
10
6.786671
20
181.947933
11
8.519167
21
181.715855
0
LINE
8
Layer 1
10
8.519167
20
181.715855
11
15.997255
21
181.715404
0
LINE
8
Layer 1
10
15.997255
20
181.715404
11
21.295553
21
181.844389
0
LINE
8
Layer 1
10
21.295553
20
181.844389
11
25.985620
21
182.201560
0
LINE
8
Layer 1
10
25.985620
20
182.201560
11
30.000102
21
182.742242
0
LINE
8
Layer 1
10
30.000102
20
182.742242
11
33.271648
21
183.421759
0
LINE
8
Layer 1
10
33.271648
20
183.421759
11
33.609093
21
183.499788
0
LINE
8
Layer 1
10
33.609093
20
183.499788
11
36.281281
21
184.058412
0
LINE
8
Layer 1
10
36.281281
20
184.058412
11
37.203195
21
184.213955
0
LINE
8
Layer 1
10
37.203195
20
184.213955
11
40.348732
21
184.647006
0
LINE
8
Layer 1
10
40.348732
20
184.647006
11
41.597236
21
184.780331
0
LINE
8
Layer 1
10
41.597236
20
184.780331
11
45.162395
21
185.063002
0
LINE
8
Layer 1
10
45.162395
20
185.063002
11
46.761780
21
185.146199
0
LINE
8
Layer 1
10
46.761780
20
185.146199
11
50.752745
21
185.248520
0
LINE
8
Layer 1
10
50.752745
20
185.248520
11
51.609539
21
185.259884
0
LINE
8
Layer 1
10
51.609539
20
185.259884
11
51.822447
21
185.245408
0
LINE
8
Layer 1
10
51.822447
20
185.245408
11
51.989364
21
185.223176
0
LINE
8
Layer 1
10
51.989364
20
185.223176
11
52.430166
21
185.094501
0
LINE
8
Layer 1
10
52.430166
20
185.094501
11
52.447174
21
185.086745
0
LINE
8
Layer 1
10
52.447174
20
185.086745
11
52.838364
21
184.826296
0
LINE
8
Layer 1
10
52.838364
20
184.826296
11
52.840365
21
184.826296
0
LINE
8
Layer 1
10
52.840365
20
184.826296
11
52.840875
21
184.825845
0
LINE
8
Layer 1
10
52.840875
20
184.825845
11
53.047590
21
184.508550
0
LINE
8
Layer 1
10
53.047590
20
184.508550
11
53.068800
21
184.438787
0
LINE
8
Layer 1
10
53.068800
20
184.438787
11
53.093111
21
184.276525
0
LINE
8
Layer 1
10
53.093111
20
184.276525
11
53.075503
21
184.162321
0
LINE
8
Layer 1
10
53.075503
20
184.162321
11
53.025380
21
183.999021
0
LINE
8
Layer 1
10
53.025380
20
183.999021
11
52.938540
21
183.847095
0
LINE
8
Layer 1
10
52.938540
20
183.847095
11
52.710645
21
183.622817
0
LINE
8
Layer 1
10
52.710645
20
183.622817
11
52.663624
21
183.585072
0
LINE
8
Layer 1
10
52.663624
20
183.585072
11
52.197832
21
183.380024
0
LINE
8
Layer 1
10
52.197832
20
183.380024
11
51.630609
21
183.304471
0
LINE
8
Layer 1
10
51.630609
20
183.304471
11
50.679762
21
183.281202
0
LINE
8
Layer 1
10
50.679762
20
183.281202
11
47.164735
21
183.195417
0
LINE
8
Layer 1
10
47.164735
20
183.195417
11
45.565350
21
183.116869
0
LINE
8
Layer 1
10
45.565350
20
183.116869
11
42.343329
21
182.871406
0
LINE
8
Layer 1
10
42.343329
20
182.871406
11
41.037458
21
182.736530
0
LINE
8
Layer 1
10
41.037458
20
182.736530
11
38.119296
21
182.343271
0
LINE
8
Layer 1
10
38.119296
20
182.343271
11
37.258361
21
182.200130
0
LINE
8
Layer 1
10
37.258361
20
182.200130
11
34.646640
21
181.658042
0
LINE
8
Layer 1
10
34.646640
20
181.658042
11
34.357767
21
181.598101
0
LINE
8
Layer 1
10
34.357767
20
181.598101
11
30.962610
21
180.888630
0
LINE
8
Layer 1
10
30.962610
20
180.888630
11
26.715612
21
180.303690
0
LINE
8
Layer 1
10
26.715612
20
180.303690
11
21.705218
21
179.906422
0
LINE
8
Layer 1
10
21.705218
20
179.906422
11
16.019875
21
179.759968
0
LINE
8
Layer 1
10
16.019875
20
179.759968
11
11.543147
21
179.759968
0
LINE
8
Layer 1
10
11.543147
20
179.759968
11
11.543147
21
179.748063
0
LINE
8
Layer 1
10
11.543147
20
179.748063
11
8.520077
21
179.748063
0
LINE
8
Layer 1
10
8.520077
20
179.748063
11
8.520077
21
174.626934
0
LINE
8
Layer 1
10
8.520077
20
174.626934
11
8.706490
21
174.013708
0
LINE
8
Layer 1
10
8.706490
20
174.013708
11
9.214969
21
173.512872
0
LINE
8
Layer 1
10
9.214969
20
173.512872
11
9.969378
21
173.175164
0
LINE
8
Layer 1
10
9.969378
20
173.175164
11
10.893578
21
173.051319
0
LINE
8
Layer 1
10
10.893578
20
173.051319
11
11.568989
21
173.051319
0
LINE
8
Layer 1
10
11.568989
20
173.051319
11
11.568989
21
156.838882
0
LINE
8
Layer 1
10
11.568989
20
156.838882
11
11.544178
21
156.838882
0
LINE
8
Layer 1
10
11.544178
20
156.838882
11
11.544178
21
156.826977
0
LINE
8
Layer 1
10
11.544178
20
156.826977
11
10.894089
21
156.826977
0
LINE
8
Layer 1
10
10.894089
20
156.826977
11
9.969890
21
156.703064
0
LINE
8
Layer 1
10
9.969890
20
156.703064
11
9.215484
21
156.365240
0
LINE
8
Layer 1
10
9.215484
20
156.365240
11
8.707008
21
155.864381
0
LINE
8
Layer 1
10
8.707008
20
155.864381
11
8.520597
21
155.251362
0
LINE
8
Layer 1
10
8.520597
20
155.251362
11
8.520597
21
148.162392
0
LINE
8
Layer 1
10
8.520597
20
148.162392
11
6.787722
21
147.930221
0
LINE
8
Layer 1
10
6.787722
20
147.930221
11
5.372999
21
147.297117
0
LINE
8
Layer 1
10
5.372999
20
147.297117
11
4.419354
21
146.358194
0
LINE
8
Layer 1
10
4.419354
20
146.358194
11
4.160099
21
145.803774
0
LINE
8
Layer 1
10
4.160099
20
145.803774
11
4.069711
21
145.208567
0
LINE
8
Layer 1
10
4.069711
20
145.208567
11
4.274282
21
144.642078
0
LINE
8
Layer 1
10
4.274282
20
144.642078
11
4.813608
21
144.167747
0
LINE
8
Layer 1
10
4.813608
20
144.167747
11
6.450180
21
143.506318
0
LINE
8
Layer 1
10
6.450180
20
143.506318
11
8.086753
21
143.245782
0
LINE
8
Layer 1
10
8.086753
20
143.245782
11
8.626078
21
143.272570
0
LINE
8
Layer 1
10
8.626078
20
143.272570
11
8.830650
21
143.407646
0
LINE
8
Layer 1
10
8.830650
20
143.407646
11
8.830650
21
144.066521
0
LINE
8
Layer 1
10
8.830650
20
144.066521
11
11.544178
21
144.066972
0
LINE
8
Layer 1
10
11.544178
20
144.066972
11
11.544178
21
140.140083
0
LINE
8
Layer 1
10
11.544178
20
140.140083
11
16.648264
21
140.140083
0
LINE
8
Layer 1
10
16.648264
20
140.140083
11
19.548338
21
140.140083
0
LINE
8
Layer 1
10
19.548338
20
140.140083
11
21.548217
21
140.140083
0
LINE
8
Layer 1
10
21.548217
20
140.140083
11
21.548217
21
146.140233
0
LINE
8
Layer 1
10
21.548217
20
146.140233
11
43.558237
21
146.140233
0
LINE
8
Layer 1
10
43.558237
20
146.140233
11
43.558237
21
140.140110
0
LINE
8
Layer 1
10
43.558237
20
140.140110
11
163.614027
21
140.140110
0
LINE
8
Layer 1
10
163.614027
20
140.140110
11
166.513591
21
140.140110
0
LINE
8
Layer 1
10
166.513591
20
140.140110
11
171.617667
21
140.140110
0
LINE
8
Layer 1
10
171.617667
20
140.140110
11
171.617667
21
144.078886
0
LINE
8
Layer 1
10
171.617667
20
144.078886
11
174.270217
21
144.070634
0
LINE
8
Layer 1
10
174.270217
20
144.070634
11
174.262213
21
143.568853
0
LINE
8
Layer 1
10
174.262213
20
143.568853
11
174.465780
21
143.263326
0
LINE
8
Layer 1
10
174.465780
20
143.263326
11
175.001427
21
143.201623
0
LINE
8
Layer 1
10
175.001427
20
143.201623
11
176.627661
21
143.621685
0
LINE
8
Layer 1
10
176.627661
20
143.621685
11
178.258307
21
144.453030
0
LINE
8
Layer 1
10
178.258307
20
144.453030
11
178.799469
21
144.905431
0
LINE
8
Layer 1
10
178.799469
20
144.905431
11
179.010757
21
145.319650
0
LINE
8
Layer 1
10
179.010757
20
145.319650
11
178.933857
21
145.877578
0
LINE
8
Layer 1
10
178.933857
20
145.877578
11
178.686322
21
146.405261
0
LINE
8
Layer 1
10
178.686322
20
146.405261
11
177.750776
21
147.315466
0
LINE
8
Layer 1
10
177.750776
20
147.315466
11
176.346968
21
147.941414
0
LINE
8
Layer 1
10
176.346968
20
147.941414
11
174.617747
21
148.174252
0
LINE
8
Layer 1
10
174.617747
20
148.174252
11
174.617747
21
155.263222
0
LINE
8
Layer 1
10
174.617747
20
155.263222
11
174.431255
21
155.876241
0
LINE
8
Layer 1
10
174.431255
20
155.876241
11
173.922600
21
156.377100
0
LINE
8
Layer 1
10
173.922600
20
156.377100
11
173.168016
21
156.714924
0
LINE
8
Layer 1
10
173.168016
20
156.714924
11
172.243735
21
156.838837
0
LINE
8
Layer 1
10
172.243735
20
156.838837
11
171.623620
21
156.838837
0
LINE
8
Layer 1
10
171.623620
20
156.838837
11
171.623620
21
173.063680
0
LINE
8
Layer 1
10
171.623620
20
173.063680
11
172.243735
21
173.063680
0
LINE
8
Layer 1
10
172.243735
20
173.063680
11
173.168016
21
173.187524
0
LINE
8
Layer 1
10
173.168016
20
173.187524
11
173.922600
21
173.525232
0
LINE
8
Layer 1
10
173.922600
20
173.525232
11
174.431255
21
174.026067
0
LINE
8
Layer 1
10
174.431255
20
174.026067
11
174.617747
21
174.639290
0
LINE
8
Layer 1
10
174.617747
20
174.639290
11
174.617747
21
179.758872
0
LINE
8
Layer 1
10
174.617747
20
179.758872
11
171.617417
21
179.758872
0
LINE
8
Layer 1
10
171.617417
20
179.758872
11
167.141719
21
179.758872
0
LINE
8
Layer 1
10
167.141719
20
179.758872
11
167.138718
21
179.758872
0
LINE
8
Layer 1
10
167.138718
20
179.758872
11
161.486359
21
179.904084
0
LINE
8
Layer 1
10
161.486359
20
179.904084
11
161.430033
21
179.907240
0
LINE
8
Layer 1
10
161.430033
20
179.907240
11
156.460829
21
180.301532
0
LINE
8
Layer 1
10
156.460829
20
180.301532
11
156.442220
21
180.302885
0
LINE
8
Layer 1
10
156.442220
20
180.302885
11
156.436217
21
180.303336
0
LINE
8
Layer 1
10
156.436217
20
180.303336
11
152.200300
21
180.886762
0
LINE
8
Layer 1
10
152.200300
20
180.886762
11
152.197298
21
180.886762
0
LINE
8
Layer 1
10
152.197298
20
180.886762
11
152.194297
21
180.887213
0
LINE
8
Layer 1
10
152.194297
20
180.887213
11
148.802257
21
181.596212
0
LINE
8
Layer 1
10
148.802257
20
181.596212
11
148.799256
21
181.596663
0
LINE
8
Layer 1
10
148.799256
20
181.596663
11
148.793253
21
181.598016
0
LINE
8
Layer 1
10
148.793253
20
181.598016
11
145.534535
21
182.274460
0
LINE
8
Layer 1
10
145.534535
20
182.274460
11
145.531533
21
182.274911
0
LINE
8
Layer 1
10
145.531533
20
182.274911
11
145.528532
21
182.275362
0
LINE
8
Layer 1
10
145.528532
20
182.275362
11
141.541179
21
182.812800
0
LINE
8
Layer 1
10
141.541179
20
182.812800
11
141.514266
21
182.815957
0
LINE
8
Layer 1
10
141.514266
20
182.815957
11
141.497759
21
182.817310
0
LINE
8
Layer 1
10
141.497759
20
182.817310
11
136.817838
21
183.173253
0
LINE
8
Layer 1
10
136.817838
20
183.173253
11
131.532487
21
183.302031
0
LINE
8
Layer 1
10
131.532487
20
183.302031
11
131.529485
21
183.302031
0
LINE
8
Layer 1
10
131.529485
20
183.302031
11
130.952260
21
183.379032
0
LINE
8
Layer 1
10
130.952260
20
183.379032
11
130.299687
21
183.735446
0
LINE
8
Layer 1
10
130.299687
20
183.735446
11
130.046373
21
184.285950
0
LINE
8
Layer 1
10
130.046373
20
184.285950
11
130.162741
21
184.668769
0
LINE
8
Layer 1
10
130.162741
20
184.668769
11
130.480280
21
184.981539
0
LINE
8
Layer 1
10
130.480280
20
184.981539
11
130.951644
21
185.192495
0
LINE
8
Layer 1
10
130.951644
20
185.192495
11
131.529485
21
185.269873
0
LINE
8
Layer 1
10
131.529485
20
185.269873
11
137.214938
21
185.123416
0
LINE
8
Layer 1
10
137.214938
20
185.123416
11
142.225463
21
184.726234
0
LINE
8
Layer 1
10
142.225463
20
184.726234
11
146.448465
21
184.144873
0
LINE
8
Layer 1
10
146.448465
20
184.144873
11
146.497588
21
184.136621
0
LINE
8
Layer 1
10
146.497588
20
184.136621
11
149.863785
21
183.432790
0
LINE
8
Layer 1
10
149.863785
20
183.432790
11
149.867787
21
183.432339
0
LINE
8
Layer 1
10
149.867787
20
183.432339
11
153.136320
21
182.753310
0
LINE
8
Layer 1
10
153.136320
20
182.753310
11
153.139321
21
182.752859
0
LINE
8
Layer 1
10
153.139321
20
182.752859
11
153.142323
21
182.752408
0
LINE
8
Layer 1
10
153.142323
20
182.752408
11
157.145183
21
182.212910
0
LINE
8
Layer 1
10
157.145183
20
182.212910
11
157.151186
21
182.212459
0
LINE
8
Layer 1
10
157.151186
20
182.212459
11
157.171395
21
182.211557
0
LINE
8
Layer 1
10
157.171395
20
182.211557
11
161.819172
21
181.857571
0
LINE
8
Layer 1
10
161.819172
20
181.857571
11
161.874998
21
181.854866
0
LINE
8
Layer 1
10
161.874998
20
181.854866
11
167.103102
21
181.727223
0
LINE
8
Layer 1
10
167.103102
20
181.727223
11
167.142420
21
181.726321
0
LINE
8
Layer 1
10
167.142420
20
181.726321
11
171.617077
21
181.726772
0
LINE
8
Layer 1
10
171.617077
20
181.726772
11
171.617077
21
181.727223
0
LINE
8
Layer 1
10
171.617077
20
181.727223
11
174.617407
21
181.727223
0
LINE
8
Layer 1
10
174.617407
20
181.727223
11
176.349903
21
181.959301
0
LINE
8
Layer 1
10
176.349903
20
181.959301
11
177.764668
21
182.592207
0
LINE
8
Layer 1
10
177.764668
20
182.592207
11
178.718524
21
183.530948
0
LINE
8
Layer 1
10
178.718524
20
183.530948
11
178.977868
21
184.085321
0
LINE
8
Layer 1
10
178.977868
20
184.085321
11
179.068293
21
184.680530
0
LINE
8
Layer 1
10
179.068293
20
184.680530
11
178.894864
21
185.294760
0
LINE
8
Layer 1
10
178.894864
20
185.294760
11
178.430348
21
185.879623
0
LINE
8
Layer 1
10
178.430348
20
185.879623
11
177.758404
21
186.383400
0
LINE
8
Layer 1
10
177.758404
20
186.383400
11
176.962694
21
186.754372
0
LINE
8
Layer 1
10
176.962694
20
186.754372
11
176.126875
21
186.940818
0
LINE
8
Layer 1
10
176.126875
20
186.940818
11
175.334607
21
186.891019
0
LINE
8
Layer 1
10
175.334607
20
186.891019
11
174.669550
21
186.553255
0
LINE
8
Layer 1
10
174.669550
20
186.553255
11
174.215362
21
185.875806
0
LINE
8
Layer 1
10
174.215362
20
185.875806
11
174.195753
21
185.822061
0
LINE
8
Layer 1
10
174.195753
20
185.822061
11
171.622790
21
185.822061
0
LINE
8
Layer 1
10
171.622790
20
185.822061
11
171.622790
21
190.139626
0
LINE
8
Layer 1
10
171.622790
20
190.139626
11
152.461690
21
190.139626
0
LINE
8
Layer 1
10
152.461690
20
190.139626
11
146.822247
21
190.139626
0
LINE
8
Layer 1
10
146.822247
20
190.139626
11
36.344280
21
190.139626
0
LINE
8
Layer 1
10
36.344280
20
190.139626
11
30.699665
21
190.139626
0
LINE
8
Layer 1
10
30.699665
20
190.139626
11
11.543787
21
190.140140
0
LINE
8
Layer 1
10
61.566547
20
187.140322
11
81.575657
21
187.140322
0
LINE
8
Layer 1
10
81.575657
20
187.140322
11
81.577658
21
184.251095
0
LINE
8
Layer 1
10
81.577658
20
184.251095
11
61.568548
21
184.241806
0
LINE
8
Layer 1
10
61.568548
20
184.241806
11
61.566547
21
187.140322
0
LINE
8
Layer 1
10
101.585277
20
187.140322
11
121.593867
21
187.140322
0
LINE
8
Layer 1
10
121.593867
20
187.140322
11
121.589865
21
184.235592
0
LINE
8
Layer 1
10
121.589865
20
184.235592
11
101.583857
21
184.236043
0
LINE
8
Layer 1
10
101.583857
20
184.236043
11
101.585277
21
187.140322
0
LINE
8
Layer 1
10
91.995178
20
169.154351
11
111.994974
21
169.154351
0
LINE
8
Layer 1
10
111.994974
20
169.154351
11
111.994974
21
153.154300
0
LINE
8
Layer 1
10
111.994974
20
153.154300
11
91.995178
21
153.154300
0
LINE
8
Layer 1
10
91.995178
20
153.154300
11
91.995178
21
169.154351
0
LINE
8
Layer 1
10
130.978822
20
169.154351
11
155.978837
21
169.154351
0
LINE
8
Layer 1
10
155.978837
20
169.154351
11
155.978837
21
147.154154
0
LINE
8
Layer 1
10
155.978837
20
147.154154
11
130.978822
21
147.154154
0
LINE
8
Layer 1
10
130.978822
20
147.154154
11
130.978822
21
169.154351
0
LINE
8
Layer 1
10
166.523405
20
147.141748
11
167.302119
21
146.984654
0
LINE
8
Layer 1
10
167.302119
20
146.984654
11
167.938017
21
146.555964
0
LINE
8
Layer 1
10
167.938017
20
146.555964
11
168.366709
21
145.920069
0
LINE
8
Layer 1
10
168.366709
20
145.920069
11
168.523805
21
145.141357
0
LINE
8
Layer 1
10
168.523805
20
145.141357
11
168.366558
21
144.362811
0
LINE
8
Layer 1
10
168.366558
20
144.362811
11
167.937833
21
143.727084
0
LINE
8
Layer 1
10
167.937833
20
143.727084
11
167.301994
21
143.298524
0
LINE
8
Layer 1
10
167.301994
20
143.298524
11
166.523405
21
143.141479
0
LINE
8
Layer 1
10
166.523405
20
143.141479
11
165.744987
21
143.298672
0
LINE
8
Layer 1
10
165.744987
20
143.298672
11
165.109318
21
143.727266
0
LINE
8
Layer 1
10
165.109318
20
143.727266
11
164.680725
21
144.362936
0
LINE
8
Layer 1
10
164.680725
20
144.362936
11
164.523536
21
145.141357
0
LINE
8
Layer 1
10
164.523536
20
145.141357
11
164.680579
21
145.919943
0
LINE
8
Layer 1
10
164.680579
20
145.919943
11
165.109137
21
146.555780
0
LINE
8
Layer 1
10
165.109137
20
146.555780
11
165.744863
21
146.984503
0
LINE
8
Layer 1
10
165.744863
20
146.984503
11
166.523405
21
147.141748
0
LINE
8
Layer 1
10
166.523405
20
147.141748
11
166.523405
21
147.141748
0
LINE
8
Layer 1
10
14.790410
20
128.795992
11
14.790410
21
124.477914
0
LINE
8
Layer 1
10
14.790410
20
124.477914
11
14.789890
21
124.477914
0
LINE
8
Layer 1
10
14.789890
20
124.477914
11
14.789890
21
124.466550
0
LINE
8
Layer 1
10
14.789890
20
124.466550
11
12.076362
21
124.478951
0
LINE
8
Layer 1
10
12.076362
20
124.478951
11
11.956477
21
125.064961
0
LINE
8
Layer 1
10
11.956477
20
125.064961
11
11.687697
21
125.396347
0
LINE
8
Layer 1
10
11.687697
20
125.396347
11
11.129346
21
125.520959
0
LINE
8
Layer 1
10
11.129346
20
125.520959
11
9.545122
21
125.249763
0
LINE
8
Layer 1
10
9.545122
20
125.249763
11
8.719842
21
124.903907
0
LINE
8
Layer 1
10
8.719842
20
124.903907
11
8.006179
21
124.451180
0
LINE
8
Layer 1
10
8.006179
20
124.451180
11
7.504431
21
123.916557
0
LINE
8
Layer 1
10
7.504431
20
123.916557
11
7.314893
21
123.325014
0
LINE
8
Layer 1
10
7.314893
20
123.325014
11
7.405319
21
122.729805
0
LINE
8
Layer 1
10
7.405319
20
122.729805
11
7.664664
21
122.175431
0
LINE
8
Layer 1
10
7.664664
20
122.175431
11
8.618524
21
121.236691
0
LINE
8
Layer 1
10
8.618524
20
121.236691
11
10.033292
21
120.603785
0
LINE
8
Layer 1
10
10.033292
20
120.603785
11
11.765789
21
120.371707
0
LINE
8
Layer 1
10
11.765789
20
120.371707
11
19.243878
21
120.371256
0
LINE
8
Layer 1
10
19.243878
20
120.371256
11
24.542176
21
120.500241
0
LINE
8
Layer 1
10
24.542176
20
120.500241
11
29.232243
21
120.857413
0
LINE
8
Layer 1
10
29.232243
20
120.857413
11
33.246725
21
121.398095
0
LINE
8
Layer 1
10
33.246725
20
121.398095
11
36.518270
21
122.077612
0
LINE
8
Layer 1
10
36.518270
20
122.077612
11
36.855715
21
122.155641
0
LINE
8
Layer 1
10
36.855715
20
122.155641
11
39.527904
21
122.714264
0
LINE
8
Layer 1
10
39.527904
20
122.714264
11
40.449808
21
122.869812
0
LINE
8
Layer 1
10
40.449808
20
122.869812
11
43.595354
21
123.302858
0
LINE
8
Layer 1
10
43.595354
20
123.302858
11
44.843858
21
123.436183
0
LINE
8
Layer 1
10
44.843858
20
123.436183
11
48.409018
21
123.718855
0
LINE
8
Layer 1
10
48.409018
20
123.718855
11
50.008403
21
123.802051
0
LINE
8
Layer 1
10
50.008403
20
123.802051
11
53.999368
21
123.904373
0
LINE
8
Layer 1
10
53.999368
20
123.904373
11
54.856162
21
123.915737
0
LINE
8
Layer 1
10
54.856162
20
123.915737
11
55.069070
21
123.901261
0
LINE
8
Layer 1
10
55.069070
20
123.901261
11
55.235987
21
123.879029
0
LINE
8
Layer 1
10
55.235987
20
123.879029
11
55.676779
21
123.750354
0
LINE
8
Layer 1
10
55.676779
20
123.750354
11
55.693887
21
123.742597
0
LINE
8
Layer 1
10
55.693887
20
123.742597
11
56.085077
21
123.482149
0
LINE
8
Layer 1
10
56.085077
20
123.482149
11
56.087078
21
123.482149
0
LINE
8
Layer 1
10
56.087078
20
123.482149
11
56.087588
21
123.481698
0
LINE
8
Layer 1
10
56.087588
20
123.481698
11
56.294293
21
123.164407
0
LINE
8
Layer 1
10
56.294293
20
123.164407
11
56.315503
21
123.094644
0
LINE
8
Layer 1
10
56.315503
20
123.094644
11
56.339814
21
122.932377
0
LINE
8
Layer 1
10
56.339814
20
122.932377
11
56.322206
21
122.818173
0
LINE
8
Layer 1
10
56.322206
20
122.818173
11
56.272083
21
122.654878
0
LINE
8
Layer 1
10
56.272083
20
122.654878
11
56.185243
21
122.502947
0
LINE
8
Layer 1
10
56.185243
20
122.502947
11
55.957348
21
122.278674
0
LINE
8
Layer 1
10
55.957348
20
122.278674
11
55.910327
21
122.240929
0
LINE
8
Layer 1
10
55.910327
20
122.240929
11
55.444540
21
122.035881
0
LINE
8
Layer 1
10
55.444540
20
122.035881
11
54.877322
21
121.960328
0
LINE
8
Layer 1
10
54.877322
20
121.960328
11
53.926474
21
121.937059
0
LINE
8
Layer 1
10
53.926474
20
121.937059
11
50.411448
21
121.851278
0
LINE
8
Layer 1
10
50.411448
20
121.851278
11
48.812063
21
121.772726
0
LINE
8
Layer 1
10
48.812063
20
121.772726
11
45.590031
21
121.527268
0
LINE
8
Layer 1
10
45.590031
20
121.527268
11
44.284171
21
121.392392
0
LINE
8
Layer 1
10
44.284171
20
121.392392
11
41.366009
21
120.999133
0
LINE
8
Layer 1
10
41.366009
20
120.999133
11
40.505073
21
120.855991
0
LINE
8
Layer 1
10
40.505073
20
120.855991
11
37.893353
21
120.313904
0
LINE
8
Layer 1
10
37.893353
20
120.313904
11
37.604480
21
120.253958
0
LINE
8
Layer 1
10
37.604480
20
120.253958
11
34.209323
21
119.544488
0
LINE
8
Layer 1
10
34.209323
20
119.544488
11
29.962325
21
118.959549
0
LINE
8
Layer 1
10
29.962325
20
118.959549
11
24.951931
21
118.562283
0
LINE
8
Layer 1
10
24.951931
20
118.562283
11
19.266588
21
118.415829
0
LINE
8
Layer 1
10
19.266588
20
118.415829
11
14.789860
21
118.415829
0
LINE
8
Layer 1
10
14.789860
20
118.415829
11
14.789860
21
118.403924
0
LINE
8
Layer 1
10
14.789860
20
118.403924
11
11.766790
21
118.403924
0
LINE
8
Layer 1
10
11.766790
20
118.403924
11
11.766790
21
113.282796
0
LINE
8
Layer 1
10
11.766790
20
113.282796
11
11.953202
21
112.669570
0
LINE
8
Layer 1
10
11.953202
20
112.669570
11
12.461682
21
112.168734
0
LINE
8
Layer 1
10
12.461682
20
112.168734
11
13.216091
21
111.831025
0
LINE
8
Layer 1
10
13.216091
20
111.831025
11
14.140291
21
111.707181
0
LINE
8
Layer 1
10
14.140291
20
111.707181
11
14.815702
21
111.707181
0
LINE
8
Layer 1
10
14.815702
20
111.707181
11
14.815702
21
95.494739
0
LINE
8
Layer 1
10
14.815702
20
95.494739
11
14.790890
21
95.494739
0
LINE
8
Layer 1
10
14.790890
20
95.494739
11
14.790890
21
95.482879
0
LINE
8
Layer 1
10
14.790890
20
95.482879
11
14.140801
21
95.482879
0
LINE
8
Layer 1
10
14.140801
20
95.482879
11
13.216602
21
95.358966
0
LINE
8
Layer 1
10
13.216602
20
95.358966
11
12.462197
21
95.021142
0
LINE
8
Layer 1
10
12.462197
20
95.021142
11
11.953721
21
94.520283
0
LINE
8
Layer 1
10
11.953721
20
94.520283
11
11.767310
21
93.907264
0
LINE
8
Layer 1
10
11.767310
20
93.907264
11
11.767310
21
86.818294
0
LINE
8
Layer 1
10
11.767310
20
86.818294
11
10.034433
21
86.586123
0
LINE
8
Layer 1
10
10.034433
20
86.586123
11
8.619707
21
85.953019
0
LINE
8
Layer 1
10
8.619707
20
85.953019
11
7.666058
21
85.014096
0
LINE
8
Layer 1
10
7.666058
20
85.014096
11
7.406802
21
84.459676
0
LINE
8
Layer 1
10
7.406802
20
84.459676
11
7.316414
21
83.864469
0
LINE
8
Layer 1
10
7.316414
20
83.864469
11
7.520986
21
83.297980
0
LINE
8
Layer 1
10
7.520986
20
83.297980
11
8.060312
21
82.823650
0
LINE
8
Layer 1
10
8.060312
20
82.823650
11
9.696888
21
82.162220
0
LINE
8
Layer 1
10
9.696888
20
82.162220
11
11.333464
21
81.901684
0
LINE
8
Layer 1
10
11.333464
20
81.901684
11
11.872791
21
81.928472
0
LINE
8
Layer 1
10
11.872791
20
81.928472
11
12.077363
21
82.063548
0
LINE
8
Layer 1
10
12.077363
20
82.063548
11
12.077363
21
82.722423
0
LINE
8
Layer 1
10
12.077363
20
82.722423
11
14.790890
21
82.722874
0
LINE
8
Layer 1
10
14.790890
20
82.722874
11
14.790890
21
78.795985
0
LINE
8
Layer 1
10
14.790890
20
78.795985
11
19.894977
21
78.795985
0
LINE
8
Layer 1
10
19.894977
20
78.795985
11
22.795051
21
78.795985
0
LINE
8
Layer 1
10
22.795051
20
78.795985
11
24.794930
21
78.795985
0
LINE
8
Layer 1
10
24.794930
20
78.795985
11
24.794930
21
84.796135
0
LINE
8
Layer 1
10
24.794930
20
84.796135
11
46.804950
21
84.796135
0
LINE
8
Layer 1
10
46.804950
20
84.796135
11
46.804950
21
78.795985
0
LINE
8
Layer 1
10
46.804950
20
78.795985
11
166.860620
21
78.795985
0
LINE
8
Layer 1
10
166.860620
20
78.795985
11
169.760183
21
78.795985
0
LINE
8
Layer 1
10
169.760183
20
78.795985
11
174.864260
21
78.795985
0
LINE
8
Layer 1
10
174.864260
20
78.795985
11
174.864260
21
82.734762
0
LINE
8
Layer 1
10
174.864260
20
82.734762
11
177.516810
21
82.726509
0
LINE
8
Layer 1
10
177.516810
20
82.726509
11
177.508806
21
82.224728
0
LINE
8
Layer 1
10
177.508806
20
82.224728
11
177.712372
21
81.919201
0
LINE
8
Layer 1
10
177.712372
20
81.919201
11
178.248020
21
81.857498
0
LINE
8
Layer 1
10
178.248020
20
81.857498
11
179.874254
21
82.277560
0
LINE
8
Layer 1
10
179.874254
20
82.277560
11
181.504900
21
83.108905
0
LINE
8
Layer 1
10
181.504900
20
83.108905
11
182.046062
21
83.561306
0
LINE
8
Layer 1
10
182.046062
20
83.561306
11
182.257349
21
83.975525
0
LINE
8
Layer 1
10
182.257349
20
83.975525
11
182.180449
21
84.533454
0
LINE
8
Layer 1
10
182.180449
20
84.533454
11
181.932915
21
85.061137
0
LINE
8
Layer 1
10
181.932915
20
85.061137
11
180.997369
21
85.971344
0
LINE
8
Layer 1
10
180.997369
20
85.971344
11
179.593560
21
86.597293
0
LINE
8
Layer 1
10
179.593560
20
86.597293
11
177.864340
21
86.830132
0
LINE
8
Layer 1
10
177.864340
20
86.830132
11
177.864340
21
93.919102
0
LINE
8
Layer 1
10
177.864340
20
93.919102
11
177.677846
21
94.532120
0
LINE
8
Layer 1
10
177.677846
20
94.532120
11
177.169187
21
95.032977
0
LINE
8
Layer 1
10
177.169187
20
95.032977
11
176.414600
21
95.370800
0
LINE
8
Layer 1
10
176.414600
20
95.370800
11
175.490318
21
95.494712
0
LINE
8
Layer 1
10
175.490318
20
95.494712
11
174.870203
21
95.494712
0
LINE
8
Layer 1
10
174.870203
20
95.494712
11
174.870203
21
111.719555
0
LINE
8
Layer 1
10
174.870203
20
111.719555
11
175.490318
21
111.719555
0
LINE
8
Layer 1
10
175.490318
20
111.719555
11
176.414600
21
111.843400
0
LINE
8
Layer 1
10
176.414600
20
111.843400
11
177.169187
21
112.181110
0
LINE
8
Layer 1
10
177.169187
20
112.181110
11
177.677846
21
112.681946
0
LINE
8
Layer 1
10
177.677846
20
112.681946
11
177.864340
21
113.295170
0
LINE
8
Layer 1
10
177.864340
20
113.295170
11
177.864340
21
118.414752
0
LINE
8
Layer 1
10
177.864340
20
118.414752
11
174.864000
21
118.414752
0
LINE
8
Layer 1
10
174.864000
20
118.414752
11
170.388312
21
118.414752
0
LINE
8
Layer 1
10
170.388312
20
118.414752
11
170.385311
21
118.414752
0
LINE
8
Layer 1
10
170.385311
20
118.414752
11
164.732942
21
118.559963
0
LINE
8
Layer 1
10
164.732942
20
118.559963
11
164.676616
21
118.563120
0
LINE
8
Layer 1
10
164.676616
20
118.563120
11
159.707411
21
118.957412
0
LINE
8
Layer 1
10
159.707411
20
118.957412
11
159.688803
21
118.958764
0
LINE
8
Layer 1
10
159.688803
20
118.958764
11
159.682800
21
118.959215
0
LINE
8
Layer 1
10
159.682800
20
118.959215
11
155.446882
21
119.542642
0
LINE
8
Layer 1
10
155.446882
20
119.542642
11
155.443881
21
119.542642
0
LINE
8
Layer 1
10
155.443881
20
119.542642
11
155.440880
21
119.543093
0
LINE
8
Layer 1
10
155.440880
20
119.543093
11
152.048840
21
120.252092
0
LINE
8
Layer 1
10
152.048840
20
120.252092
11
152.045839
21
120.252092
0
LINE
8
Layer 1
10
152.045839
20
120.252092
11
152.039836
21
120.253444
0
LINE
8
Layer 1
10
152.039836
20
120.253444
11
148.781117
21
120.929889
0
LINE
8
Layer 1
10
148.781117
20
120.929889
11
148.778116
21
120.930340
0
LINE
8
Layer 1
10
148.778116
20
120.930340
11
148.775115
21
120.930791
0
LINE
8
Layer 1
10
148.775115
20
120.930791
11
144.787761
21
121.468224
0
LINE
8
Layer 1
10
144.787761
20
121.468224
11
144.760849
21
121.471381
0
LINE
8
Layer 1
10
144.760849
20
121.471381
11
144.744341
21
121.472734
0
LINE
8
Layer 1
10
144.744341
20
121.472734
11
140.064416
21
121.828680
0
LINE
8
Layer 1
10
140.064416
20
121.828680
11
134.779060
21
121.957460
0
LINE
8
Layer 1
10
134.779060
20
121.957460
11
134.776058
21
121.957460
0
LINE
8
Layer 1
10
134.776058
20
121.957460
11
134.198833
21
122.034456
0
LINE
8
Layer 1
10
134.198833
20
122.034456
11
133.546260
21
122.390873
0
LINE
8
Layer 1
10
133.546260
20
122.390873
11
133.292946
21
122.941378
0
LINE
8
Layer 1
10
133.292946
20
122.941378
11
133.409314
21
123.324197
0
LINE
8
Layer 1
10
133.409314
20
123.324197
11
133.726853
21
123.636965
0
LINE
8
Layer 1
10
133.726853
20
123.636965
11
134.198217
21
123.847920
0
LINE
8
Layer 1
10
134.198217
20
123.847920
11
134.776058
21
123.925297
0
LINE
8
Layer 1
10
134.776058
20
123.925297
11
140.461511
21
123.778840
0
LINE
8
Layer 1
10
140.461511
20
123.778840
11
145.472036
21
123.381658
0
LINE
8
Layer 1
10
145.472036
20
123.381658
11
149.695038
21
122.800302
0
LINE
8
Layer 1
10
149.695038
20
122.800302
11
149.744160
21
122.792049
0
LINE
8
Layer 1
10
149.744160
20
122.792049
11
153.110358
21
122.088218
0
LINE
8
Layer 1
10
153.110358
20
122.088218
11
153.114360
21
122.087767
0
LINE
8
Layer 1
10
153.114360
20
122.087767
11
156.382893
21
121.408739
0
LINE
8
Layer 1
10
156.382893
20
121.408739
11
156.385894
21
121.408288
0
LINE
8
Layer 1
10
156.385894
20
121.408288
11
156.388895
21
121.407837
0
LINE
8
Layer 1
10
156.388895
20
121.407837
11
160.391746
21
120.868334
0
LINE
8
Layer 1
10
160.391746
20
120.868334
11
160.397749
21
120.867883
0
LINE
8
Layer 1
10
160.397749
20
120.867883
11
160.417858
21
120.866981
0
LINE
8
Layer 1
10
160.417858
20
120.866981
11
165.065635
21
120.512995
0
LINE
8
Layer 1
10
165.065635
20
120.512995
11
165.121461
21
120.510290
0
LINE
8
Layer 1
10
165.121461
20
120.510290
11
170.349564
21
120.382652
0
LINE
8
Layer 1
10
170.349564
20
120.382652
11
170.388882
21
120.381750
0
LINE
8
Layer 1
10
170.388882
20
120.381750
11
174.863550
21
120.382201
0
LINE
8
Layer 1
10
174.863550
20
120.382201
11
174.863550
21
120.382652
0
LINE
8
Layer 1
10
174.863550
20
120.382652
11
177.863879
21
120.382652
0
LINE
8
Layer 1
10
177.863879
20
120.382652
11
179.596375
21
120.614729
0
LINE
8
Layer 1
10
179.596375
20
120.614729
11
181.011140
21
121.247633
0
LINE
8
Layer 1
10
181.011140
20
121.247633
11
181.964996
21
122.186372
0
LINE
8
Layer 1
10
181.964996
20
122.186372
11
182.224341
21
122.740745
0
LINE
8
Layer 1
10
182.224341
20
122.740745
11
182.314766
21
123.335954
0
LINE
8
Layer 1
10
182.314766
20
123.335954
11
182.141336
21
123.950184
0
LINE
8
Layer 1
10
182.141336
20
123.950184
11
181.676820
21
124.535047
0
LINE
8
Layer 1
10
181.676820
20
124.535047
11
181.004877
21
125.038825
0
LINE
8
Layer 1
10
181.004877
20
125.038825
11
180.209166
21
125.409796
0
LINE
8
Layer 1
10
180.209166
20
125.409796
11
179.373348
21
125.596242
0
LINE
8
Layer 1
10
179.373348
20
125.596242
11
178.581080
21
125.546443
0
LINE
8
Layer 1
10
178.581080
20
125.546443
11
177.916022
21
125.208679
0
LINE
8
Layer 1
10
177.916022
20
125.208679
11
177.461835
21
124.531230
0
LINE
8
Layer 1
10
177.461835
20
124.531230
11
177.442226
21
124.477490
0
LINE
8
Layer 1
10
177.442226
20
124.477490
11
174.869263
21
124.477490
0
LINE
8
Layer 1
10
174.869263
20
124.477490
11
174.869263
21
128.795050
0
LINE
8
Layer 1
10
174.869263
20
128.795050
11
155.708162
21
128.795050
0
LINE
8
Layer 1
10
155.708162
20
128.795050
11
150.068720
21
128.795050
0
LINE
8
Layer 1
10
150.068720
20
128.795050
11
39.590753
21
128.795050
0
LINE
8
Layer 1
10
39.590753
20
128.795050
11
33.946138
21
128.795050
0
LINE
8
Layer 1
10
33.946138
20
128.795050
11
14.790410
21
128.795992
0
LINE
8
Layer 1
10
64.813170
20
125.796179
11
84.822280
21
125.796179
0
LINE
8
Layer 1
10
84.822280
20
125.796179
11
84.824281
21
122.906948
0
LINE
8
Layer 1
10
84.824281
20
122.906948
11
64.815171
21
122.897658
0
LINE
8
Layer 1
10
64.815171
20
122.897658
11
64.813170
21
125.796179
0
LINE
8
Layer 1
10
104.831900
20
125.796179
11
124.840490
21
125.796179
0
LINE
8
Layer 1
10
124.840490
20
125.796179
11
124.836488
21
122.891444
0
LINE
8
Layer 1
10
124.836488
20
122.891444
11
104.830479
21
122.891895
0
LINE
8
Layer 1
10
104.830479
20
122.891895
11
104.831900
21
125.796179
0
LINE
8
Layer 1
10
169.770028
20
85.797605
11
170.548742
21
85.640510
0
LINE
8
Layer 1
10
170.548742
20
85.640510
11
171.184640
21
85.211819
0
LINE
8
Layer 1
10
171.184640
20
85.211819
11
171.613332
21
84.575922
0
LINE
8
Layer 1
10
171.613332
20
84.575922
11
171.770428
21
83.797209
0
LINE
8
Layer 1
10
171.770428
20
83.797209
11
171.613181
21
83.018663
0
LINE
8
Layer 1
10
171.613181
20
83.018663
11
171.184456
21
82.382936
0
LINE
8
Layer 1
10
171.184456
20
82.382936
11
170.548617
21
81.954377
0
LINE
8
Layer 1
10
170.548617
20
81.954377
11
169.770028
21
81.797332
0
LINE
8
Layer 1
10
169.770028
20
81.797332
11
168.991609
21
81.954525
0
LINE
8
Layer 1
10
168.991609
20
81.954525
11
168.355940
21
82.383119
0
LINE
8
Layer 1
10
168.355940
20
82.383119
11
167.927348
21
83.018789
0
LINE
8
Layer 1
10
167.927348
20
83.018789
11
167.770158
21
83.797209
0
LINE
8
Layer 1
10
167.770158
20
83.797209
11
167.927201
21
84.575796
0
LINE
8
Layer 1
10
167.927201
20
84.575796
11
168.355760
21
85.211635
0
LINE
8
Layer 1
10
168.355760
20
85.211635
11
168.991486
21
85.640360
0
LINE
8
Layer 1
10
168.991486
20
85.640360
11
169.770028
21
85.797605
0
LINE
8
Layer 1
10
169.770028
20
85.797605
11
169.770028
21
85.797605
 0 
ENDSEC
 0 
EOF