  0
SECTION
  2
HEADER
  9
$ACADVER
  1
AC1014
  9
$HANDSEED
  5
FFFF
  9
$INSUNITS
 70
     4
  9
$MEASUREMENT
 70
     1
  0
ENDSEC
  0
SECTION
  2
TABLES
  0
TABLE
  2
VPORT
  5
8
330
0
100
AcDbSymbolTable
 70
     4
  0
VPORT
  5
2E
330
8
100
AcDbSymbolTableRecord
100
AcDbViewportTableRecord
  2
*ACTIVE
 70
     0
 10
0.0
 20
0.0
 11
1.0
 21
1.0
 12
210.0
 22
148.5
 13
0.0
 23
0.0
 14
10.0
 24
10.0
 15
10.0
 25
10.0
 16
0.0
 26
0.0
 36
1.0
 17
0.0
 27
0.0
 37
0.0
 40
341.0
 41
1.24
 42
50.0
 43
0.0
 44
0.0
 50
0.0
 51
0.0
 71
     0
 72
   100
 73
     1
 74
     3
 75
     0
 76
     0
 77
     0
 78
     0
  0
ENDTAB
  0
TABLE
  2
LTYPE
  5
5
330
0
100
AcDbSymbolTable
 70
     1
  0
LTYPE
  5
14
330
5
100
AcDbSymbolTableRecord
100
AcDbLinetypeTableRecord
  2
BYBLOCK
 70
     0
  3

 72
    65
 73
     0
 40
0.0
  0
LTYPE
  5
15
330
5
100
AcDbSymbolTableRecord
100
AcDbLinetypeTableRecord
  2
BYLAYER
 70
     0
  3

 72
    65
 73
     0
 40
0.0
  0
LTYPE
  5
16
330
5
100
AcDbSymbolTableRecord
100
AcDbLinetypeTableRecord
  2
CONTINUOUS
 70
     0
  3
Solid line
 72
    65
 73
     0
 40
0.0
  0
ENDTAB
  0
TABLE
  2
LAYER
  5
2
100
AcDbSymbolTable
 70
2
  0
LAYER
  5
50
100
AcDbSymbolTableRecord
100
AcDbLayerTableRecord
  2
0
 70
0
  6
CONTINUOUS
  0
LAYER
  5
51
100
AcDbSymbolTableRecord
100
AcDbLayerTableRecord
  2
Lag_1
 70
0
  6
CONTINUOUS
  0
ENDTAB
  0
TABLE
  2
STYLE
  5
3
330
0
100
AcDbSymbolTable
 70
     1
  0
STYLE
  5
11
330
3
100
AcDbSymbolTableRecord
100
AcDbTextStyleTableRecord
  2
STANDARD
 70
     0
 40
0.0
 41
1.0
 50
0.0
 71
     0
 42
2.5
  3
txt
  4

  0
ENDTAB
  0
TABLE
  2
VIEW
  5
6
330
0
100
AcDbSymbolTable
 70
     0
  0
ENDTAB
  0
TABLE
  2
UCS
  5
7
330
0
100
AcDbSymbolTable
 70
     0
  0
ENDTAB
  0
TABLE
  2
APPID
  5
9
330
0
100
AcDbSymbolTable
 70
     2
  0
APPID
  5
12
330
9
100
AcDbSymbolTableRecord
100
AcDbRegAppTableRecord
  2
ACAD
 70
     0
  0
ENDTAB
  0
TABLE
  2
DIMSTYLE
  5
A
330
0
100
AcDbSymbolTable
 70
     1
  0
DIMSTYLE
105
27
330
A
100
AcDbSymbolTableRecord
100
AcDbDimStyleTableRecord
  2
ISO-25
 70
     0
  3

  4

  5

  6

  7

 40
1.0
 41
2.5
 42
0.625
 43
3.75
 44
1.25
 45
0.0
 46
0.0
 47
0.0
 48
0.0
140
2.5
141
2.5
142
0.0
143
0.03937007874016
144
1.0
145
0.0
146
1.0
147
0.625
 71
     0
 72
     0
 73
     0
 74
     0
 75
     0
 76
     0
 77
     1
 78
     8
170
     0
171
     3
172
     1
173
     0
174
     0
175
     0
176
     0
177
     0
178
     0
270
     2
271
     2
272
     2
273
     2
274
     3
340
11
275
     0
280
     0
281
     0
282
     0
283
     0
284
     8
285
     0
286
     0
287
     3
288
     0
  0
ENDTAB
  0
TABLE
  2
BLOCK_RECORD
  5
1
330
0
100
AcDbSymbolTable
 70
     1
  0
BLOCK_RECORD
  5
1F
330
1
100
AcDbSymbolTableRecord
100
AcDbBlockTableRecord
  2
*MODEL_SPACE
  0
BLOCK_RECORD
  5
1B
330
1
100
AcDbSymbolTableRecord
100
AcDbBlockTableRecord
  2
*PAPER_SPACE
  0
ENDTAB
  0
ENDSEC
  0
SECTION
  2
BLOCKS
  0
BLOCK
  5
20
330
1F
100
AcDbEntity
  8
0
100
AcDbBlockBegin
  2
*MODEL_SPACE
 70
     0
 10
0.0
 20
0.0
 30
0.0
  3
*MODEL_SPACE
  1

  0
ENDBLK
  5
21
330
1F
100
AcDbEntity
  8
0
100
AcDbBlockEnd
  0
BLOCK
  5
1C
330
1B
100
AcDbEntity
 67
     1
  8
0
100
AcDbBlockBegin
  2
*PAPER_SPACE
  1

  0
ENDBLK
  5
1D
330
1B
100
AcDbEntity
 67
     1
  8
0
100
AcDbBlockEnd
  0
ENDSEC
  0
SECTION
  2
ENTITIES
  0
SPLINE
  5
100
100
AcDbEntity
  8
Lag_1
 62
7
100
AcDbSpline
 70
8
 71
3
 72
8
 73
4
 74
0
 40
0
 40
0
 40
0
 40
0
 40
1
 40
1
 40
1
 40
1
 10
52.000000
 20
103.850307
 30
0.0
 10
31.028508
 20
103.850307
 30
0.0
 10
12.122005
 20
91.217385
 30
0.0
 10
4.096563
 20
71.842253
 30
0.0
  0
SPLINE
  5
101
100
AcDbEntity
  8
Lag_1
 62
7
100
AcDbSpline
 70
8
 71
3
 72
8
 73
4
 74
0
 40
0
 40
0
 40
0
 40
0
 40
1
 40
1
 40
1
 40
1
 10
4.096563
 20
71.842253
 30
0.0
 10
-3.928880
 20
52.467122
 30
0.0
 10
0.507212
 20
30.165380
 30
0.0
 10
15.336296
 20
15.336296
 30
0.0
  0
SPLINE
  5
102
100
AcDbEntity
  8
Lag_1
 62
7
100
AcDbSpline
 70
8
 71
3
 72
8
 73
4
 74
0
 40
0
 40
0
 40
0
 40
0
 40
1
 40
1
 40
1
 40
1
 10
15.336296
 20
15.336296
 30
0.0
 10
30.165380
 20
0.507212
 30
0.0
 10
52.467122
 20
-3.928880
 30
0.0
 10
71.842253
 20
4.096563
 30
0.0
  0
SPLINE
  5
103
100
AcDbEntity
  8
Lag_1
 62
7
100
AcDbSpline
 70
8
 71
3
 72
8
 73
4
 74
0
 40
0
 40
0
 40
0
 40
0
 40
1
 40
1
 40
1
 40
1
 10
71.842253
 20
4.096563
 30
0.0
 10
91.217385
 20
12.122005
 30
0.0
 10
103.850307
 20
31.028508
 30
0.0
 10
103.850307
 20
52.000000
 30
0.0
  0
SPLINE
  5
104
100
AcDbEntity
  8
Lag_1
 62
7
100
AcDbSpline
 70
8
 71
3
 72
8
 73
4
 74
0
 40
0
 40
0
 40
0
 40
0
 40
1
 40
1
 40
1
 40
1
 10
103.850307
 20
52.000000
 30
0.0
 10
103.850307
 20
65.751556
 30
0.0
 10
98.387522
 20
78.939885
 30
0.0
 10
88.663704
 20
88.663704
 30
0.0
  0
SPLINE
  5
105
100
AcDbEntity
  8
Lag_1
 62
7
100
AcDbSpline
 70
8
 71
3
 72
8
 73
4
 74
0
 40
0
 40
0
 40
0
 40
0
 40
1
 40
1
 40
1
 40
1
 10
88.663704
 20
88.663704
 30
0.0
 10
78.939885
 20
98.387522
 30
0.0
 10
65.751556
 20
103.850307
 30
0.0
 10
52.000000
 20
103.850307
 30
0.0
  0
SPLINE
  5
106
100
AcDbEntity
  8
Lag_1
 62
7
100
AcDbSpline
 70
8
 71
3
 72
8
 73
4
 74
0
 40
0
 40
0
 40
0
 40
0
 40
1
 40
1
 40
1
 40
1
 10
88.512845
 20
76.723361
 30
0.0
 10
87.856033
 20
76.862971
 30
0.0
 10
87.347994
 20
77.384488
 30
0.0
 10
87.225626
 20
78.044729
 30
0.0
  0
SPLINE
  5
107
100
AcDbEntity
  8
Lag_1
 62
7
100
AcDbSpline
 70
8
 71
3
 72
8
 73
4
 74
0
 40
0
 40
0
 40
0
 40
0
 40
1
 40
1
 40
1
 40
1
 10
87.225626
 20
78.044729
 30
0.0
 10
87.103258
 20
78.704971
 30
0.0
 10
87.390659
 20
79.373914
 30
0.0
 10
87.953814
 20
79.739631
 30
0.0
  0
SPLINE
  5
108
100
AcDbEntity
  8
Lag_1
 62
7
100
AcDbSpline
 70
8
 71
3
 72
8
 73
4
 74
0
 40
0
 40
0
 40
0
 40
0
 40
1
 40
1
 40
1
 40
1
 10
87.953814
 20
79.739631
 30
0.0
 10
88.516970
 20
80.105348
 30
0.0
 10
89.244976
 20
80.095818
 30
0.0
 10
89.798365
 20
79.715484
 30
0.0
  0
SPLINE
  5
109
100
AcDbEntity
  8
Lag_1
 62
7
100
AcDbSpline
 70
8
 71
3
 72
8
 73
4
 74
0
 40
0
 40
0
 40
0
 40
0
 40
1
 40
1
 40
1
 40
1
 10
89.798365
 20
79.715484
 30
0.0
 10
90.351754
 20
79.335150
 30
0.0
 10
90.621544
 20
78.658913
 30
0.0
 10
90.481934
 20
78.002101
 30
0.0
  0
SPLINE
  5
10a
100
AcDbEntity
  8
Lag_1
 62
7
100
AcDbSpline
 70
8
 71
3
 72
8
 73
4
 74
0
 40
0
 40
0
 40
0
 40
0
 40
1
 40
1
 40
1
 40
1
 10
90.481934
 20
78.002101
 30
0.0
 10
90.390388
 20
77.571412
 30
0.0
 10
90.131501
 20
77.194729
 30
0.0
 10
89.762226
 20
76.954919
 30
0.0
  0
SPLINE
  5
10b
100
AcDbEntity
  8
Lag_1
 62
7
100
AcDbSpline
 70
8
 71
3
 72
8
 73
4
 74
0
 40
0
 40
0
 40
0
 40
0
 40
1
 40
1
 40
1
 40
1
 10
89.762226
 20
76.954919
 30
0.0
 10
89.392950
 20
76.715109
 30
0.0
 10
88.943534
 20
76.631815
 30
0.0
 10
88.512845
 20
76.723361
 30
0.0
  0
LWPOLYLINE
  5
10c
100
AcDbEntity
  8
Lag_1
 62
7
100
AcDbPolyline
 90
1
 70
1
 10
52.000000
 20
103.850307
 30
0.0
  0
SPLINE
  5
10d
100
AcDbEntity
  8
Lag_1
 62
7
100
AcDbSpline
 70
8
 71
3
 72
8
 73
4
 74
0
 40
0
 40
0
 40
0
 40
0
 40
1
 40
1
 40
1
 40
1
 10
64.738434
 20
95.507370
 30
0.0
 10
65.030810
 20
96.112204
 30
0.0
 10
65.658739
 20
96.481358
 30
0.0
 10
66.329420
 20
96.442698
 30
0.0
  0
SPLINE
  5
10e
100
AcDbEntity
  8
Lag_1
 62
7
100
AcDbSpline
 70
8
 71
3
 72
8
 73
4
 74
0
 40
0
 40
0
 40
0
 40
0
 40
1
 40
1
 40
1
 40
1
 10
66.329420
 20
96.442698
 30
0.0
 10
67.000100
 20
96.404038
 30
0.0
 10
67.581453
 20
95.965176
 30
0.0
 10
67.802394
 20
95.330753
 30
0.0
  0
SPLINE
  5
10f
100
AcDbEntity
  8
Lag_1
 62
7
100
AcDbSpline
 70
8
 71
3
 72
8
 73
4
 74
0
 40
0
 40
0
 40
0
 40
0
 40
1
 40
1
 40
1
 40
1
 10
67.802394
 20
95.330753
 30
0.0
 10
68.023335
 20
94.696330
 30
0.0
 10
67.840354
 20
93.991285
 30
0.0
 10
67.338774
 20
93.544379
 30
0.0
  0
SPLINE
  5
110
100
AcDbEntity
  8
Lag_1
 62
7
100
AcDbSpline
 70
8
 71
3
 72
8
 73
4
 74
0
 40
0
 40
0
 40
0
 40
0
 40
1
 40
1
 40
1
 40
1
 10
67.338774
 20
93.544379
 30
0.0
 10
66.837194
 20
93.097474
 30
0.0
 10
66.115793
 20
92.996717
 30
0.0
 10
65.510960
 20
93.289093
 30
0.0
  0
SPLINE
  5
111
100
AcDbEntity
  8
Lag_1
 62
7
100
AcDbSpline
 70
8
 71
3
 72
8
 73
4
 74
0
 40
0
 40
0
 40
0
 40
0
 40
1
 40
1
 40
1
 40
1
 10
65.510960
 20
93.289093
 30
0.0
 10
65.114355
 20
93.480812
 30
0.0
 10
64.810153
 20
93.822229
 30
0.0
 10
64.665277
 20
94.238236
 30
0.0
  0
SPLINE
  5
112
100
AcDbEntity
  8
Lag_1
 62
7
100
AcDbSpline
 70
8
 71
3
 72
8
 73
4
 74
0
 40
0
 40
0
 40
0
 40
0
 40
1
 40
1
 40
1
 40
1
 10
64.665277
 20
94.238236
 30
0.0
 10
64.520400
 20
94.654244
 30
0.0
 10
64.546715
 20
95.110765
 30
0.0
 10
64.738434
 20
95.507370
 30
0.0
  0
LWPOLYLINE
  5
113
100
AcDbEntity
  8
Lag_1
 62
7
100
AcDbPolyline
 90
1
 70
1
 10
88.512845
 20
76.723361
 30
0.0
  0
SPLINE
  5
114
100
AcDbEntity
  8
Lag_1
 62
7
100
AcDbSpline
 70
8
 71
3
 72
8
 73
4
 74
0
 40
0
 40
0
 40
0
 40
0
 40
1
 40
1
 40
1
 40
1
 10
39.302900
 20
96.084379
 30
0.0
 10
39.829021
 20
95.666082
 30
0.0
 10
40.051360
 20
94.972046
 30
0.0
 10
39.866242
 20
94.325899
 30
0.0
  0
SPLINE
  5
115
100
AcDbEntity
  8
Lag_1
 62
7
100
AcDbSpline
 70
8
 71
3
 72
8
 73
4
 74
0
 40
0
 40
0
 40
0
 40
0
 40
1
 40
1
 40
1
 40
1
 10
39.866242
 20
94.325899
 30
0.0
 10
39.681124
 20
93.679751
 30
0.0
 10
39.125004
 20
93.208740
 30
0.0
 10
38.457200
 20
93.132497
 30
0.0
  0
SPLINE
  5
116
100
AcDbEntity
  8
Lag_1
 62
7
100
AcDbSpline
 70
8
 71
3
 72
8
 73
4
 74
0
 40
0
 40
0
 40
0
 40
0
 40
1
 40
1
 40
1
 40
1
 10
38.457200
 20
93.132497
 30
0.0
 10
37.789396
 20
93.056254
 30
0.0
 10
37.141421
 20
93.389793
 30
0.0
 10
36.815424
 20
93.977587
 30
0.0
  0
SPLINE
  5
117
100
AcDbEntity
  8
Lag_1
 62
7
100
AcDbSpline
 70
8
 71
3
 72
8
 73
4
 74
0
 40
0
 40
0
 40
0
 40
0
 40
1
 40
1
 40
1
 40
1
 10
36.815424
 20
93.977587
 30
0.0
 10
36.489427
 20
94.565380
 30
0.0
 10
36.549608
 20
95.291672
 30
0.0
 10
36.967904
 20
95.817793
 30
0.0
  0
SPLINE
  5
118
100
AcDbEntity
  8
Lag_1
 62
7
100
AcDbSpline
 70
8
 71
3
 72
8
 73
4
 74
0
 40
0
 40
0
 40
0
 40
0
 40
1
 40
1
 40
1
 40
1
 10
36.967904
 20
95.817793
 30
0.0
 10
37.242193
 20
96.162784
 30
0.0
 10
37.642294
 20
96.384684
 30
0.0
 10
38.080190
 20
96.434679
 30
0.0
  0
SPLINE
  5
119
100
AcDbEntity
  8
Lag_1
 62
7
100
AcDbSpline
 70
8
 71
3
 72
8
 73
4
 74
0
 40
0
 40
0
 40
0
 40
0
 40
1
 40
1
 40
1
 40
1
 10
38.080190
 20
96.434679
 30
0.0
 10
38.518087
 20
96.484674
 30
0.0
 10
38.957909
 20
96.358667
 30
0.0
 10
39.302900
 20
96.084379
 30
0.0
  0
LWPOLYLINE
  5
11a
100
AcDbEntity
  8
Lag_1
 62
7
100
AcDbPolyline
 90
1
 70
1
 10
64.738434
 20
95.507370
 30
0.0
  0
SPLINE
  5
11b
100
AcDbEntity
  8
Lag_1
 62
7
100
AcDbSpline
 70
8
 71
3
 72
8
 73
4
 74
0
 40
0
 40
0
 40
0
 40
0
 40
1
 40
1
 40
1
 40
1
 10
14.042295
 20
77.903115
 30
0.0
 10
13.862690
 20
78.550181
 30
0.0
 10
14.090553
 20
79.241725
 30
0.0
 10
14.619633
 20
79.655280
 30
0.0
  0
SPLINE
  5
11c
100
AcDbEntity
  8
Lag_1
 62
7
100
AcDbSpline
 70
8
 71
3
 72
8
 73
4
 74
0
 40
0
 40
0
 40
0
 40
0
 40
1
 40
1
 40
1
 40
1
 10
14.619633
 20
79.655280
 30
0.0
 10
15.148712
 20
80.068835
 30
0.0
 10
15.874815
 20
80.122960
 30
0.0
 10
16.459360
 20
79.792415
 30
0.0
  0
SPLINE
  5
11d
100
AcDbEntity
  8
Lag_1
 62
7
100
AcDbSpline
 70
8
 71
3
 72
8
 73
4
 74
0
 40
0
 40
0
 40
0
 40
0
 40
1
 40
1
 40
1
 40
1
 10
16.459360
 20
79.792415
 30
0.0
 10
17.043905
 20
79.461870
 30
0.0
 10
17.371777
 20
78.811751
 30
0.0
 10
17.290089
 20
78.145207
 30
0.0
  0
SPLINE
  5
11e
100
AcDbEntity
  8
Lag_1
 62
7
100
AcDbSpline
 70
8
 71
3
 72
8
 73
4
 74
0
 40
0
 40
0
 40
0
 40
0
 40
1
 40
1
 40
1
 40
1
 10
17.290089
 20
78.145207
 30
0.0
 10
17.208401
 20
77.478664
 30
0.0
 10
16.733240
 20
76.926960
 30
0.0
 10
16.086174
 20
76.747355
 30
0.0
  0
SPLINE
  5
11f
100
AcDbEntity
  8
Lag_1
 62
7
100
AcDbSpline
 70
8
 71
3
 72
8
 73
4
 74
0
 40
0
 40
0
 40
0
 40
0
 40
1
 40
1
 40
1
 40
1
 10
16.086174
 20
76.747355
 30
0.0
 10
15.661876
 20
76.629583
 30
0.0
 10
15.208171
 20
76.685187
 30
0.0
 10
14.824869
 20
76.901934
 30
0.0
  0
SPLINE
  5
120
100
AcDbEntity
  8
Lag_1
 62
7
100
AcDbSpline
 70
8
 71
3
 72
8
 73
4
 74
0
 40
0
 40
0
 40
0
 40
0
 40
1
 40
1
 40
1
 40
1
 10
14.824869
 20
76.901934
 30
0.0
 10
14.441567
 20
77.118681
 30
0.0
 10
14.160067
 20
77.478816
 30
0.0
 10
14.042295
 20
77.903115
 30
0.0
  0
LWPOLYLINE
  5
121
100
AcDbEntity
  8
Lag_1
 62
7
100
AcDbPolyline
 90
1
 70
1
 10
39.302900
 20
96.084379
 30
0.0
  0
SPLINE
  5
122
100
AcDbEntity
  8
Lag_1
 62
7
100
AcDbSpline
 70
8
 71
3
 72
8
 73
4
 74
0
 40
0
 40
0
 40
0
 40
0
 40
1
 40
1
 40
1
 40
1
 10
8.555949
 20
51.168417
 30
0.0
 10
8.320881
 20
50.539258
 30
0.0
 10
7.729964
 20
50.113651
 30
0.0
 10
7.058740
 20
50.090056
 30
0.0
  0
SPLINE
  5
123
100
AcDbEntity
  8
Lag_1
 62
7
100
AcDbSpline
 70
8
 71
3
 72
8
 73
4
 74
0
 40
0
 40
0
 40
0
 40
0
 40
1
 40
1
 40
1
 40
1
 10
7.058740
 20
50.090056
 30
0.0
 10
6.387517
 20
50.066462
 30
0.0
 10
5.768173
 20
50.449526
 30
0.0
 10
5.489508
 20
51.060626
 30
0.0
  0
SPLINE
  5
124
100
AcDbEntity
  8
Lag_1
 62
7
100
AcDbSpline
 70
8
 71
3
 72
8
 73
4
 74
0
 40
0
 40
0
 40
0
 40
0
 40
1
 40
1
 40
1
 40
1
 10
5.489508
 20
51.060626
 30
0.0
 10
5.210843
 20
51.671726
 30
0.0
 10
5.327736
 20
52.390517
 30
0.0
 10
5.785678
 20
52.881828
 30
0.0
  0
SPLINE
  5
125
100
AcDbEntity
  8
Lag_1
 62
7
100
AcDbSpline
 70
8
 71
3
 72
8
 73
4
 74
0
 40
0
 40
0
 40
0
 40
0
 40
1
 40
1
 40
1
 40
1
 10
5.785678
 20
52.881828
 30
0.0
 10
6.243621
 20
53.373139
 30
0.0
 10
6.952430
 20
53.540214
 30
0.0
 10
7.581589
 20
53.305147
 30
0.0
  0
SPLINE
  5
126
100
AcDbEntity
  8
Lag_1
 62
7
100
AcDbSpline
 70
8
 71
3
 72
8
 73
4
 74
0
 40
0
 40
0
 40
0
 40
0
 40
1
 40
1
 40
1
 40
1
 10
7.581589
 20
53.305147
 30
0.0
 10
7.994145
 20
53.151007
 30
0.0
 10
8.328572
 20
52.839293
 30
0.0
 10
8.511300
 20
52.438578
 30
0.0
  0
SPLINE
  5
127
100
AcDbEntity
  8
Lag_1
 62
7
100
AcDbSpline
 70
8
 71
3
 72
8
 73
4
 74
0
 40
0
 40
0
 40
0
 40
0
 40
1
 40
1
 40
1
 40
1
 10
8.511300
 20
52.438578
 30
0.0
 10
8.694028
 20
52.037864
 30
0.0
 10
8.710089
 20
51.580973
 30
0.0
 10
8.555949
 20
51.168417
 30
0.0
  0
LWPOLYLINE
  5
128
100
AcDbEntity
  8
Lag_1
 62
7
100
AcDbPolyline
 90
1
 70
1
 10
14.042295
 20
77.903115
 30
0.0
  0
SPLINE
  5
129
100
AcDbEntity
  8
Lag_1
 62
7
100
AcDbSpline
 70
8
 71
3
 72
8
 73
4
 74
0
 40
0
 40
0
 40
0
 40
0
 40
1
 40
1
 40
1
 40
1
 10
16.677904
 20
26.451798
 30
0.0
 10
17.204025
 20
26.033501
 30
0.0
 10
17.426363
 20
25.339464
 30
0.0
 10
17.241244
 20
24.693317
 30
0.0
  0
SPLINE
  5
12a
100
AcDbEntity
  8
Lag_1
 62
7
100
AcDbSpline
 70
8
 71
3
 72
8
 73
4
 74
0
 40
0
 40
0
 40
0
 40
0
 40
1
 40
1
 40
1
 40
1
 10
17.241244
 20
24.693317
 30
0.0
 10
17.056126
 20
24.047170
 30
0.0
 10
16.500005
 20
23.576160
 30
0.0
 10
15.832201
 20
23.499917
 30
0.0
  0
SPLINE
  5
12b
100
AcDbEntity
  8
Lag_1
 62
7
100
AcDbSpline
 70
8
 71
3
 72
8
 73
4
 74
0
 40
0
 40
0
 40
0
 40
0
 40
1
 40
1
 40
1
 40
1
 10
15.832201
 20
23.499917
 30
0.0
 10
15.164397
 20
23.423675
 30
0.0
 10
14.516422
 20
23.757216
 30
0.0
 10
14.190425
 20
24.345010
 30
0.0
  0
SPLINE
  5
12c
100
AcDbEntity
  8
Lag_1
 62
7
100
AcDbSpline
 70
8
 71
3
 72
8
 73
4
 74
0
 40
0
 40
0
 40
0
 40
0
 40
1
 40
1
 40
1
 40
1
 10
14.190425
 20
24.345010
 30
0.0
 10
13.864429
 20
24.932804
 30
0.0
 10
13.924611
 20
25.659095
 30
0.0
 10
14.342909
 20
26.185215
 30
0.0
  0
SPLINE
  5
12d
100
AcDbEntity
  8
Lag_1
 62
7
100
AcDbSpline
 70
8
 71
3
 72
8
 73
4
 74
0
 40
0
 40
0
 40
0
 40
0
 40
1
 40
1
 40
1
 40
1
 10
14.342909
 20
26.185215
 30
0.0
 10
14.617197
 20
26.530206
 30
0.0
 10
15.017299
 20
26.752106
 30
0.0
 10
15.455195
 20
26.802100
 30
0.0
  0
SPLINE
  5
12e
100
AcDbEntity
  8
Lag_1
 62
7
100
AcDbSpline
 70
8
 71
3
 72
8
 73
4
 74
0
 40
0
 40
0
 40
0
 40
0
 40
1
 40
1
 40
1
 40
1
 10
15.455195
 20
26.802100
 30
0.0
 10
15.893092
 20
26.852094
 30
0.0
 10
16.332914
 20
26.726087
 30
0.0
 10
16.677904
 20
26.451798
 30
0.0
  0
LWPOLYLINE
  5
12f
100
AcDbEntity
  8
Lag_1
 62
7
100
AcDbPolyline
 90
1
 70
1
 10
8.555949
 20
51.168417
 30
0.0
  0
SPLINE
  5
130
100
AcDbEntity
  8
Lag_1
 62
7
100
AcDbSpline
 70
8
 71
3
 72
8
 73
4
 74
0
 40
0
 40
0
 40
0
 40
0
 40
1
 40
1
 40
1
 40
1
 10
36.667280
 20
8.270509
 30
0.0
 10
36.487674
 20
8.917575
 30
0.0
 10
36.715536
 20
9.609119
 30
0.0
 10
37.244615
 20
10.022675
 30
0.0
  0
SPLINE
  5
131
100
AcDbEntity
  8
Lag_1
 62
7
100
AcDbSpline
 70
8
 71
3
 72
8
 73
4
 74
0
 40
0
 40
0
 40
0
 40
0
 40
1
 40
1
 40
1
 40
1
 10
37.244615
 20
10.022675
 30
0.0
 10
37.773694
 20
10.436231
 30
0.0
 10
38.499796
 20
10.490356
 30
0.0
 10
39.084342
 20
10.159812
 30
0.0
  0
SPLINE
  5
132
100
AcDbEntity
  8
Lag_1
 62
7
100
AcDbSpline
 70
8
 71
3
 72
8
 73
4
 74
0
 40
0
 40
0
 40
0
 40
0
 40
1
 40
1
 40
1
 40
1
 10
39.084342
 20
10.159812
 30
0.0
 10
39.668887
 20
9.829268
 30
0.0
 10
39.996760
 20
9.179150
 30
0.0
 10
39.915073
 20
8.512607
 30
0.0
  0
SPLINE
  5
133
100
AcDbEntity
  8
Lag_1
 62
7
100
AcDbSpline
 70
8
 71
3
 72
8
 73
4
 74
0
 40
0
 40
0
 40
0
 40
0
 40
1
 40
1
 40
1
 40
1
 10
39.915073
 20
8.512607
 30
0.0
 10
39.833386
 20
7.846063
 30
0.0
 10
39.358227
 20
7.294359
 30
0.0
 10
38.711161
 20
7.114752
 30
0.0
  0
SPLINE
  5
134
100
AcDbEntity
  8
Lag_1
 62
7
100
AcDbSpline
 70
8
 71
3
 72
8
 73
4
 74
0
 40
0
 40
0
 40
0
 40
0
 40
1
 40
1
 40
1
 40
1
 10
38.711161
 20
7.114752
 30
0.0
 10
38.286862
 20
6.996980
 30
0.0
 10
37.833157
 20
7.052583
 30
0.0
 10
37.449855
 20
7.269329
 30
0.0
  0
SPLINE
  5
135
100
AcDbEntity
  8
Lag_1
 62
7
100
AcDbSpline
 70
8
 71
3
 72
8
 73
4
 74
0
 40
0
 40
0
 40
0
 40
0
 40
1
 40
1
 40
1
 40
1
 10
37.449855
 20
7.269329
 30
0.0
 10
37.066553
 20
7.486075
 30
0.0
 10
36.785053
 20
7.846210
 30
0.0
 10
36.667280
 20
8.270509
 30
0.0
  0
LWPOLYLINE
  5
136
100
AcDbEntity
  8
Lag_1
 62
7
100
AcDbPolyline
 90
1
 70
1
 10
16.677904
 20
26.451798
 30
0.0
  0
SPLINE
  5
137
100
AcDbEntity
  8
Lag_1
 62
7
100
AcDbSpline
 70
8
 71
3
 72
8
 73
4
 74
0
 40
0
 40
0
 40
0
 40
0
 40
1
 40
1
 40
1
 40
1
 10
67.891506
 20
8.789193
 30
0.0
 10
67.921631
 20
8.118391
 30
0.0
 10
67.544708
 20
7.495493
 30
0.0
 10
66.936496
 20
7.210957
 30
0.0
  0
SPLINE
  5
138
100
AcDbEntity
  8
Lag_1
 62
7
100
AcDbSpline
 70
8
 71
3
 72
8
 73
4
 74
0
 40
0
 40
0
 40
0
 40
0
 40
1
 40
1
 40
1
 40
1
 10
66.936496
 20
7.210957
 30
0.0
 10
66.328284
 20
6.926420
 30
0.0
 10
65.608560
 20
7.036279
 30
0.0
 10
65.112930
 20
7.489306
 30
0.0
  0
SPLINE
  5
139
100
AcDbEntity
  8
Lag_1
 62
7
100
AcDbSpline
 70
8
 71
3
 72
8
 73
4
 74
0
 40
0
 40
0
 40
0
 40
0
 40
1
 40
1
 40
1
 40
1
 10
65.112930
 20
7.489306
 30
0.0
 10
64.617299
 20
7.942333
 30
0.0
 10
64.443369
 20
8.649313
 30
0.0
 10
64.672242
 20
9.280582
 30
0.0
  0
SPLINE
  5
13a
100
AcDbEntity
  8
Lag_1
 62
7
100
AcDbSpline
 70
8
 71
3
 72
8
 73
4
 74
0
 40
0
 40
0
 40
0
 40
0
 40
1
 40
1
 40
1
 40
1
 10
64.672242
 20
9.280582
 30
0.0
 10
64.901115
 20
9.911851
 30
0.0
 10
65.487719
 20
10.343091
 30
0.0
 10
66.158521
 20
10.373216
 30
0.0
  0
SPLINE
  5
13b
100
AcDbEntity
  8
Lag_1
 62
7
100
AcDbSpline
 70
8
 71
3
 72
8
 73
4
 74
0
 40
0
 40
0
 40
0
 40
0
 40
1
 40
1
 40
1
 40
1
 10
66.158521
 20
10.373216
 30
0.0
 10
67.074487
 20
10.414350
 30
0.0
 10
67.850371
 20
9.705159
 30
0.0
 10
67.891506
 20
8.789193
 30
0.0
  0
LWPOLYLINE
  5
13c
100
AcDbEntity
  8
Lag_1
 62
7
100
AcDbPolyline
 90
1
 70
1
 10
36.667280
 20
8.270509
 30
0.0
  0
SPLINE
  5
13d
100
AcDbEntity
  8
Lag_1
 62
7
100
AcDbSpline
 70
8
 71
3
 72
8
 73
4
 74
0
 40
0
 40
0
 40
0
 40
0
 40
1
 40
1
 40
1
 40
1
 10
87.224950
 20
25.451586
 30
0.0
 10
87.345822
 20
26.112091
 30
0.0
 10
87.852671
 20
26.634748
 30
0.0
 10
88.509155
 20
26.775841
 30
0.0
  0
SPLINE
  5
13e
100
AcDbEntity
  8
Lag_1
 62
7
100
AcDbSpline
 70
8
 71
3
 72
8
 73
4
 74
0
 40
0
 40
0
 40
0
 40
0
 40
1
 40
1
 40
1
 40
1
 10
88.509155
 20
26.775841
 30
0.0
 10
89.165638
 20
26.916934
 30
0.0
 10
89.842473
 20
26.648678
 30
0.0
 10
90.224051
 20
26.096160
 30
0.0
  0
SPLINE
  5
13f
100
AcDbEntity
  8
Lag_1
 62
7
100
AcDbSpline
 70
8
 71
3
 72
8
 73
4
 74
0
 40
0
 40
0
 40
0
 40
0
 40
1
 40
1
 40
1
 40
1
 10
90.224051
 20
26.096160
 30
0.0
 10
90.605629
 20
25.543642
 30
0.0
 10
90.616806
 20
24.815672
 30
0.0
 10
90.252370
 20
24.251700
 30
0.0
  0
SPLINE
  5
140
100
AcDbEntity
  8
Lag_1
 62
7
100
AcDbSpline
 70
8
 71
3
 72
8
 73
4
 74
0
 40
0
 40
0
 40
0
 40
0
 40
1
 40
1
 40
1
 40
1
 10
90.252370
 20
24.251700
 30
0.0
 10
89.887934
 20
23.687728
 30
0.0
 10
89.219655
 20
23.398820
 30
0.0
 10
88.559149
 20
23.519692
 30
0.0
  0
SPLINE
  5
141
100
AcDbEntity
  8
Lag_1
 62
7
100
AcDbSpline
 70
8
 71
3
 72
8
 73
4
 74
0
 40
0
 40
0
 40
0
 40
0
 40
1
 40
1
 40
1
 40
1
 10
88.559149
 20
23.519692
 30
0.0
 10
88.126038
 20
23.598951
 30
0.0
 10
87.742152
 20
23.847017
 30
0.0
 10
87.491941
 20
24.209317
 30
0.0
  0
SPLINE
  5
142
100
AcDbEntity
  8
Lag_1
 62
7
100
AcDbSpline
 70
8
 71
3
 72
8
 73
4
 74
0
 40
0
 40
0
 40
0
 40
0
 40
1
 40
1
 40
1
 40
1
 10
87.491941
 20
24.209317
 30
0.0
 10
87.241730
 20
24.571618
 30
0.0
 10
87.145690
 20
25.018475
 30
0.0
 10
87.224950
 20
25.451586
 30
0.0
  0
LWPOLYLINE
  5
143
100
AcDbEntity
  8
Lag_1
 62
7
100
AcDbPolyline
 90
1
 70
1
 10
67.891506
 20
8.789193
 30
0.0
  0
SPLINE
  5
144
100
AcDbEntity
  8
Lag_1
 62
7
100
AcDbSpline
 70
8
 71
3
 72
8
 73
4
 74
0
 40
0
 40
0
 40
0
 40
0
 40
1
 40
1
 40
1
 40
1
 10
96.248657
 20
52.839767
 30
0.0
 10
96.690161
 20
53.346618
 30
0.0
 10
97.393512
 20
53.537606
 30
0.0
 10
98.030739
 20
53.323673
 30
0.0
  0
SPLINE
  5
145
100
AcDbEntity
  8
Lag_1
 62
7
100
AcDbSpline
 70
8
 71
3
 72
8
 73
4
 74
0
 40
0
 40
0
 40
0
 40
0
 40
1
 40
1
 40
1
 40
1
 10
98.030739
 20
53.323673
 30
0.0
 10
98.667965
 20
53.109740
 30
0.0
 10
99.113575
 20
52.533016
 30
0.0
 10
99.159783
 20
51.862427
 30
0.0
  0
SPLINE
  5
146
100
AcDbEntity
  8
Lag_1
 62
7
100
AcDbSpline
 70
8
 71
3
 72
8
 73
4
 74
0
 40
0
 40
0
 40
0
 40
0
 40
1
 40
1
 40
1
 40
1
 10
99.159783
 20
51.862427
 30
0.0
 10
99.205990
 20
51.191839
 30
0.0
 10
98.843695
 20
50.559446
 30
0.0
 10
98.241834
 20
50.260132
 30
0.0
  0
SPLINE
  5
147
100
AcDbEntity
  8
Lag_1
 62
7
100
AcDbSpline
 70
8
 71
3
 72
8
 73
4
 74
0
 40
0
 40
0
 40
0
 40
0
 40
1
 40
1
 40
1
 40
1
 10
98.241834
 20
50.260132
 30
0.0
 10
97.639974
 20
49.960819
 30
0.0
 10
96.917074
 20
50.053530
 30
0.0
 10
96.410223
 20
50.495034
 30
0.0
  0
SPLINE
  5
148
100
AcDbEntity
  8
Lag_1
 62
7
100
AcDbSpline
 70
8
 71
3
 72
8
 73
4
 74
0
 40
0
 40
0
 40
0
 40
0
 40
1
 40
1
 40
1
 40
1
 10
96.410223
 20
50.495034
 30
0.0
 10
96.077867
 20
50.784540
 30
0.0
 10
95.874129
 20
51.194216
 30
0.0
 10
95.843830
 20
51.633939
 30
0.0
  0
SPLINE
  5
149
100
AcDbEntity
  8
Lag_1
 62
7
100
AcDbSpline
 70
8
 71
3
 72
8
 73
4
 74
0
 40
0
 40
0
 40
0
 40
0
 40
1
 40
1
 40
1
 40
1
 10
95.843830
 20
51.633939
 30
0.0
 10
95.813530
 20
52.073662
 30
0.0
 10
95.959151
 20
52.507411
 30
0.0
 10
96.248657
 20
52.839767
 30
0.0
  0
LWPOLYLINE
  5
14a
100
AcDbEntity
  8
Lag_1
 62
7
100
AcDbPolyline
 90
1
 70
1
 10
87.224950
 20
25.451586
 30
0.0
  0
LWPOLYLINE
  5
14b
100
AcDbEntity
  8
Lag_1
 62
7
100
AcDbPolyline
 90
1
 70
1
 10
96.248657
 20
52.839767
 30
0.0
  0
ENDSEC
  0
SECTION
  2
OBJECTS
  0
DICTIONARY
  5
C
330
0
100
AcDbDictionary
  3
ACAD_GROUP
350
D
  3
ACAD_MLINESTYLE
350
17
  0
DICTIONARY
  5
D
330
C
100
AcDbDictionary
  0
DICTIONARY
  5
1A
330
C
100
AcDbDictionary
  0
DICTIONARY
  5
17
330
C
100
AcDbDictionary
  3
STANDARD
350
18
  0
DICTIONARY
  5
19
330
C
100
AcDbDictionary
  0
ENDSEC
  0
EOF
